<?xml version="1.0" encoding="utf-8"?>
<!-- Generator: Adobe Illustrator 19.2.1, SVG Export Plug-In . SVG Version: 6.00 Build 0)  -->
<svg version="1.1" id="Isolation_Mode" xmlns="http://www.w3.org/2000/svg" xmlns:xlink="http://www.w3.org/1999/xlink" x="0px"
	 y="0px" viewBox="0 0 544 564.1" style="enable-background:new 0 0 544 564.1;" xml:space="preserve">
<style type="text/css">
	.st0{fill:#FFFFFF;}
</style>
<g id="EtNMMy.tif">
	<g>
		<path class="st0" d="M-445-97.4"/>
	</g>
</g>
<path class="st0" d="M536.3,235.3c-4.7-33.1-15.7-64.2-32.2-93.4c-14.5-25.7-32.9-48.4-55-67.9C419.5,47.9,385.7,29,347.8,17.7
	c-19.1-5.7-38.7-9-58.5-10.5c-1.2-0.1-2.5-0.5-3.7-0.8c-9.8,0-19.5,0-29.2,0c-8.2,1-16.4,2-24.8,3.2c-37,5.3-71.3,18.1-103,37.8
	c-21.8,13.6-41.4,30-58.4,49.2C44,126.1,25.1,159.9,13.7,197.6C8,216.6,4.6,236.2,3.1,256c-0.1,1.4-0.5,2.7-0.8,4.1
	c0,9.8,0,19.5,0,29.2c1,8.1,2,16.2,3.1,24.2c5.3,37.3,18,71.9,38.1,103.8c21.1,33.8,48.4,61.3,81.7,83c26.4,17.2,54.8,29.6,85.6,36
	c13.8,2.9,28,4.3,41.9,6.4c1.2,0.2,2.5,0.5,3.7,0.8c9.8,0,19.5,0,29.2,0c8.3-1,16.5-1.9,24.7-3.1c33.3-4.7,64.5-15.7,93.8-32.3
	c25.7-14.5,48.4-32.9,67.9-55c26-29.4,44.9-63,56.2-100.6c5.7-19,9.1-38.6,10.7-58.4c0.1-1.3,0.5-2.5,0.8-3.7c0-10,0-20.1,0-30.1
	C538.4,251.9,537.5,243.6,536.3,235.3z M412,170.6c-1.1,1.1-2.1,2.3-3.3,3.3c-39.6,34.7-79.2,69.3-118.8,104
	c-5.4,4.7-10.8,9.4-16.2,14.1c-0.7-0.6-1.2-0.9-1.6-1.3c-44.9-39.3-89.7-78.5-134.6-117.8c-0.8-0.7-1.4-1.6-2.1-2.4
	C227.7,170.6,319.8,170.6,412,170.6z M121.4,385.3c-0.3,0.3-0.6,0.5-0.9,0.8c0-67.6,0-135.3,0-202.9c33.9,29.6,67.8,59.3,101.8,89.1
	c-4.9,5.5-9.6,10.7-14.3,16C179.2,320.6,150.3,353,121.4,385.3z M133.7,400.5c0.8-1,1.4-2.1,2.3-3.1c28.1-31.4,56.2-62.9,84.2-94.3
	c5.4-6.1,10.9-12.1,16.4-18.3c12.5,10.9,24.7,21.6,37.1,32.5c12.5-10.9,24.8-21.7,37.1-32.5c0.6,0.7,1,1,1.3,1.4
	c29.9,33.4,59.8,66.9,89.6,100.3c4.1,4.6,8,9.3,12,14C320.4,400.5,227.1,400.5,133.7,400.5z M427,386.1
	c-13.8-15.4-27.6-30.7-41.3-46.1c-19.6-21.9-39.2-43.9-58.8-65.8c-0.5-0.6-1-1.2-1.7-2c34-29.8,67.9-59.4,101.8-89.1
	C427,250.8,427,318.5,427,386.1z"/>
</svg>
