<?xml version="1.0" encoding="utf-8"?>
<!-- Generator: Adobe Illustrator 19.2.1, SVG Export Plug-In . SVG Version: 6.00 Build 0)  -->
<svg version="1.1" id="Isolation_Mode" xmlns="http://www.w3.org/2000/svg" xmlns:xlink="http://www.w3.org/1999/xlink" x="0px"
	 y="0px" viewBox="0 0 544 564.1" style="enable-background:new 0 0 544 564.1;" xml:space="preserve">
<style type="text/css">
	.st0{fill:#FFFFFF;}
</style>
<g id="t4iNlP.tif">
	<g>
		<path class="st0" d="M256.4,6.3c9.7,0,19.4,0,29.2,0c1.2,0.3,2.5,0.7,3.7,0.8c19.8,1.5,39.4,4.8,58.5,10.5
			c38,11.3,71.8,30.2,101.4,56.4c22.1,19.5,40.5,42.2,55,67.9c16.5,29.2,27.5,60.3,32.2,93.4c1.2,8.3,2.1,16.6,3.2,25
			c0,10,0,20.1,0,30.1c-0.3,1.2-0.7,2.4-0.8,3.7c-1.6,19.8-5,39.4-10.7,58.4c-11.3,37.6-30.2,71.2-56.2,100.6
			c-19.5,22.1-42.2,40.5-67.9,55c-29.3,16.6-60.5,27.6-93.8,32.3c-8.2,1.2-16.4,2.1-24.7,3.1c-9.7,0-19.4,0-29.2,0
			c-1.2-0.3-2.5-0.6-3.7-0.8c-13.9-2.1-28.1-3.5-41.9-6.4c-30.8-6.4-59.2-18.8-85.6-36c-33.3-21.7-60.6-49.2-81.7-83
			c-20.1-31.9-32.8-66.5-38.1-103.8c-1.1-8-2.1-16.1-3.1-24.2c0-9.7,0-19.4,0-29.2c0.3-1.4,0.7-2.7,0.8-4.1
			c1.5-19.8,4.9-39.4,10.6-58.4C25,159.8,43.9,126,70.2,96.5c17-19.2,36.6-35.6,58.4-49.2c31.7-19.7,66-32.5,103-37.8
			C240,8.3,248.2,7.3,256.4,6.3z M296.9,219.4c0-11.3-0.2-22.1,0.1-32.8c0.3-12,4.1-16,15.9-16.5c9.8-0.5,19.7-0.4,29.6-0.4
			c2.7,0,3.8-0.7,3.8-3.6c-0.1-16.3-0.1-32.6,0-48.9c0-2.7-1-3.5-3.6-3.4c-6,0.1-12-0.1-18,0.1c-14.5,0.5-29.3,0.1-43.6,1.9
			c-23.8,2.9-39.3,19.6-42.9,42.9c-2.5,16.3-2.4,32.8-2.4,49.1c0,3.7,0,7.3,0,11.6c-13.6,0-26.9,0-40,0c0,18.8,0,37.1,0,55.7
			c13.3,0,26.5,0,40,0c0,2.1,0,3.8,0,5.4c0,50.2,0,100.4-0.1,150.6c0,4.1,1.2,5.3,5.3,5.3c16.4-0.2,32.9-0.1,49.3-0.1
			c6.3,0,6.3,0,6.3-6.1c0-49.9,0-99.9,0-149.8c0-1.7,0-3.3,0-5.4c14.8,0,29.3,0,43.9,0c2-18.6,3.9-36.9,5.9-55.6
			C329.8,219.4,313.5,219.4,296.9,219.4z"/>
	</g>
</g>
</svg>
