<?xml version="1.0" encoding="utf-8"?>
<!-- Generator: Adobe Illustrator 19.2.1, SVG Export Plug-In . SVG Version: 6.00 Build 0)  -->
<svg version="1.1" id="Isolation_Mode" xmlns="http://www.w3.org/2000/svg" xmlns:xlink="http://www.w3.org/1999/xlink" x="0px"
	 y="0px" viewBox="0 0 543 543" style="enable-background:new 0 0 543 543;" xml:space="preserve">
<style type="text/css">
	.st0{fill:#FFFFFF;}
</style>
<g id="iV3duJ.tif">
	<g>
		<path class="st0" d="M270.6,539.7C123.9,541.2,1.1,420.1,1.6,270.3C2.1,121.1,125.8,0,275.2,2.6C420.7,5.2,541.9,126.5,539,276.9
			C536.1,421.8,416.3,540.8,270.6,539.7z M280.4,239.7c-50.9-3.3-92.7-25.5-126.2-64.1c-6.3,8.4-9.5,20.7-8.6,35
			c1.2,19,10.2,34.1,24.7,46.7c-4.5-0.2-8.7-0.7-12.7-1.8c-4.1-1.1-8.1-2.8-12.2-4.3c-2.6,24.3,13.4,45.5,45.9,62.2
			c-7.8,0-15.6,0-24.7,0c10.5,26.7,29.4,40.4,57.4,43.9c-27,20.3-56.5,27.7-88.7,26.1c37,23.3,76.9,31.5,119.5,25.4
			c87-12.6,150.9-87,150.7-175.2c0-5.9,1.3-9.9,6.3-13.6c9.3-6.9,17-15.5,24-26.4c-6.6,2.1-11.7,3.8-16.9,5.2
			c-5,1.3-10.1,2.2-15.2,3.3c11-9.1,19.4-19.1,23.8-32c-11.8,4.1-22.9,8.2-34.3,11.7c-2.2,0.7-6-0.3-7.8-2
			c-35.6-32.2-92.3-14.8-102.9,32C280.5,220.5,281.1,229.7,280.4,239.7z"/>
	</g>
</g>
</svg>
