<?xml version="1.0" encoding="utf-8"?>
<!-- Generator: Adobe Illustrator 19.2.1, SVG Export Plug-In . SVG Version: 6.00 Build 0)  -->
<svg version="1.1" id="Layer_1" xmlns="http://www.w3.org/2000/svg" xmlns:xlink="http://www.w3.org/1999/xlink" x="0px" y="0px"
	 viewBox="0 0 696 54" style="enable-background:new 0 0 696 54;" xml:space="preserve">
<style type="text/css">
	.st0{fill:#8d2f31;}
</style>
<g>
	<path class="st0" d="M16.1,12.7H2.5V3.5h37.5v9.2H26.5v38.2H16.1V12.7z"/>
	<path class="st0" d="M43.3,3.5h10.5v17.7h20.3V3.5h10.5v47.4H74.1V30.4H53.8v20.5H43.3V3.5z"/>
	<path class="st0" d="M92.6,3.5h32.2v9.6H103V22h20.6v9.6H103v9.6h23v9.6H92.6V3.5z"/>
	<path class="st0" d="M150.6,3.5h31.8v9.6h-21.4v9.6h19.8v9.6h-19.8v18.5h-10.5V3.5z"/>
	<path class="st0" d="M199.8,3.5h8.6l20.6,47.4h-11.8l-4.1-10h-18.4l-4,10h-11.5L199.8,3.5z M203.9,17.3L198.1,32h11.6L203.9,17.3z"
		/>
	<path class="st0" d="M231.9,3.5h18.4c2.4,0,4.7,0.2,6.9,0.7c2.2,0.5,4.1,1.3,5.7,2.3c1.6,1.1,2.9,2.6,3.9,4.4
		c1,1.9,1.4,4.2,1.4,6.9c0,3.3-0.9,6.2-2.6,8.5c-1.7,2.3-4.3,3.8-7.6,4.5l12.1,20h-12.5l-9.9-19h-5.2v19h-10.5V3.5z M242.3,23.1h6.2
		c0.9,0,1.9,0,3-0.1c1-0.1,2-0.3,2.8-0.6c0.8-0.3,1.6-0.9,2.1-1.6c0.6-0.7,0.8-1.7,0.8-3c0-1.2-0.2-2.2-0.7-2.9
		c-0.5-0.7-1.1-1.3-1.9-1.6c-0.8-0.4-1.6-0.6-2.6-0.8c-1-0.1-1.9-0.2-2.9-0.2h-6.8V23.1z"/>
	<path class="st0" d="M273.3,3.5h15.8l10.9,31h0.1l11-31h15.7v47.4h-10.5V14.5h-0.1l-12.5,36.4h-8l-12-36.4h-0.1v36.4h-10.5V3.5z"/>
	<path class="st0" d="M346.2,30.7L328.4,3.5h13l10,17.8l10.7-17.8h12.4l-17.8,27.2v20.2h-10.5V30.7z"/>
	<path class="st0" d="M386.6,3.5h8.6l20.6,47.4h-11.8l-4.1-10h-18.4l-4,10h-11.5L386.6,3.5z M390.6,17.3L384.8,32h11.6L390.6,17.3z"
		/>
	<path class="st0" d="M418.6,3.5H437c2.4,0,4.7,0.2,6.9,0.7c2.2,0.5,4.1,1.3,5.7,2.3c1.6,1.1,2.9,2.6,3.9,4.4c1,1.9,1.4,4.2,1.4,6.9
		c0,3.3-0.9,6.2-2.6,8.5c-1.7,2.3-4.3,3.8-7.6,4.5l12.1,20h-12.5l-9.9-19h-5.2v19h-10.5V3.5z M429.1,23.1h6.2c0.9,0,1.9,0,3-0.1
		c1-0.1,2-0.3,2.8-0.6s1.6-0.9,2.1-1.6c0.6-0.7,0.8-1.7,0.8-3c0-1.2-0.2-2.2-0.7-2.9c-0.5-0.7-1.1-1.3-1.9-1.6
		c-0.8-0.4-1.6-0.6-2.6-0.8c-1-0.1-1.9-0.2-2.9-0.2h-6.8V23.1z"/>
	<path class="st0" d="M460,3.5h15.7c3.8,0,7.4,0.4,10.8,1.3c3.4,0.8,6.4,2.2,8.9,4.1c2.5,1.9,4.6,4.4,6.1,7.4
		c1.5,3,2.2,6.7,2.2,11.1c0,3.8-0.7,7.2-2.2,10.2c-1.5,2.9-3.4,5.4-5.9,7.4c-2.5,2-5.3,3.5-8.5,4.5c-3.2,1-6.6,1.5-10.1,1.5H460V3.5
		z M470.5,41.3h5.4c2.4,0,4.7-0.2,6.7-0.7c2.1-0.5,3.9-1.3,5.4-2.4c1.5-1.1,2.7-2.6,3.6-4.5c0.9-1.9,1.3-4.1,1.3-6.8
		c0-2.3-0.4-4.3-1.3-6.1c-0.9-1.7-2-3.1-3.5-4.3c-1.5-1.1-3.2-2-5.2-2.5c-2-0.6-4.1-0.8-6.3-0.8h-6.2V41.3z"/>
	<path class="st0" d="M526.7,3.5h17.6c2.5,0,4.8,0.2,7,0.7c2.2,0.4,4.1,1.2,5.7,2.3c1.6,1.1,2.9,2.6,3.9,4.4c1,1.9,1.4,4.2,1.4,7
		c0,2.8-0.4,5.1-1.3,7c-0.9,1.9-2.1,3.4-3.7,4.5c-1.6,1.1-3.4,1.9-5.6,2.4c-2.1,0.5-4.5,0.7-7,0.7h-7.6v18.5h-10.5V3.5z M537.1,23.6
		h7c0.9,0,1.8-0.1,2.7-0.3c0.9-0.2,1.7-0.5,2.3-0.9c0.7-0.4,1.2-1,1.7-1.7c0.4-0.7,0.6-1.7,0.6-2.8c0-1.2-0.3-2.2-0.8-2.9
		c-0.6-0.7-1.3-1.3-2.1-1.7c-0.9-0.4-1.8-0.7-2.9-0.8c-1.1-0.1-2.1-0.2-3.1-0.2h-5.4V23.6z"/>
	<path class="st0" d="M577.5,3.5h8.6l20.6,47.4H595l-4.1-10h-18.4l-4,10H557L577.5,3.5z M581.5,17.3L575.8,32h11.6L581.5,17.3z"/>
	<path class="st0" d="M609.5,3.5h18.4c2.4,0,4.7,0.2,6.9,0.7c2.2,0.5,4.1,1.3,5.7,2.3c1.6,1.1,2.9,2.6,3.9,4.4
		c1,1.9,1.4,4.2,1.4,6.9c0,3.3-0.9,6.2-2.6,8.5c-1.7,2.3-4.3,3.8-7.6,4.5l12.1,20h-12.5l-9.9-19H620v19h-10.5V3.5z M620,23.1h6.2
		c0.9,0,1.9,0,3-0.1c1-0.1,2-0.3,2.8-0.6s1.6-0.9,2.1-1.6c0.6-0.7,0.8-1.7,0.8-3c0-1.2-0.2-2.2-0.7-2.9c-0.5-0.7-1.1-1.3-1.9-1.6
		c-0.8-0.4-1.6-0.6-2.6-0.8c-1-0.1-1.9-0.2-2.9-0.2H620V23.1z"/>
	<path class="st0" d="M651.4,3.5h10.5v19.7l18.4-19.7h13.7l-21.1,22l22.9,25.4h-14.6l-19.3-22.5v22.5h-10.5V3.5z"/>
</g>
</svg>
