<?xml version="1.0" encoding="utf-8"?>
<!-- Generator: Adobe Illustrator 21.1.0, SVG Export Plug-In . SVG Version: 6.00 Build 0)  -->
<svg version="1.1" id="Layer_1" xmlns="http://www.w3.org/2000/svg" xmlns:xlink="http://www.w3.org/1999/xlink" x="0px" y="0px"
	 viewBox="0 0 702.1 128" style="enable-background:new 0 0 702.1 128;" xml:space="preserve">
<style type="text/css">
	.st0{stroke:#000000;stroke-width:2;stroke-miterlimit:10;}
	.st1{fill:#FBAA19;}
	.st2{fill:#FFFFFF;}
	.st3{fill:none;stroke:#000000;stroke-width:4;stroke-miterlimit:10;}
	.st4{fill:#F79916;}
</style>
<g>
	<g>
		<g>
			<path class="st0" d="M358.2,38.3c0.4-0.5,0.8-0.8,1.2-1.2c5.2,5.5,10.3,11.1,15.5,16.7c-0.3,0.3-0.8,0.7-1.2,1.1
				C368.6,49.4,363.4,43.8,358.2,38.3z"/>
		</g>
		<g>
			<path class="st0" d="M357.1,34.7c-0.3,0.4-0.8,0.8-1.2,1.2c-0.6-0.6-1.1-1.2-1.7-1.9c0.4-0.4,0.8-0.8,1.2-1.3
				C356,33.3,356.6,34,357.1,34.7z"/>
		</g>
		<path class="st0" d="M385.5,43.9c-1.3-0.7-2.7-0.6-4.2-0.3c0.4-2.4,0.2-4.5-1.5-6.2c-1.6-1.8-3.6-2-5.8-1.6
			c0.5-2.4,0.1-4.5-1.5-6.3c-1.6-1.7-3.6-2-5.8-1.5c0.1-0.2,0.1-0.4,0.1-0.5c0.3-1.9,0-3.7-1.1-5.3c-2.1-2.8-5.7-2.8-8.3-0.9
			c-1,0.7-1.9,1.8-2.9,2.8c-0.2-0.2-16.5,17.5-16.5,17.5c-7.2-8-15.2,3.7-15.8,5.4c-1.5,4.8-1.4,9,1.6,12.9c1.2,1.5,2.5,2.8,3.8,4.1
			c0.7,0.7,0.8,1.3,0.5,2.3c-3.6,10.2-7.2,20.4-10.9,30.6c-0.6,1.7-4.1,11.4-4.8,13.1c0.6,0.2,1.1,0.5,1.8,0.7
			c1.4-4,6.6-18.4,7.9-22l2.6,1.2c0.1,0.1,0.1,0.2,0.1,0.3c0.7,1.9,2,3.3,3.7,4.1l8.7,4l0,0c0.9,0.4,1.8,0.6,2.7,0.6
			c1.3,0,2.5-0.4,3.7-1.1l2.4,1.1l0,0c0.1,0-7.9,21.4-7.8,21.4h1.9l7.1-20.9c0.2,0.1,3.1-7.7,5.1-13.3c0.2-0.5,0.4-0.7,1-0.8
			c1.2-0.1,2.4-0.4,3.6-0.7c2.8,0.1,30.7-31.4,31.2-32.4C389.6,49,388.4,45.3,385.5,43.9z M337.9,96.7L337.9,96.7l-8.7-4
			c-1.3-0.6-2.3-1.7-2.8-3.1c-0.5-1.4-0.5-2.9,0.1-4.3c0.6-1.4,1.6-2.4,2.9-3s2.7-0.5,4,0.1l8.7,4c1.3,0.6,2.3,1.7,2.8,3.1
			c0.5,1.4,0.5,2.9-0.1,4.3C343.6,96.7,340.6,98,337.9,96.7z M386.5,51.4c-0.4,0.9-1,1.8-1.6,2.5c-8.2,8.8-16.3,17.5-24.5,26.3
			c-2.1,2.2-4.6,3.4-7.5,3.2c-1.5-0.1-3-0.4-4.6-0.6c-0.1,0.5-0.3,1.1-0.5,1.8c1,0.2,1.9,0.5,2.9,0.7c-0.7,2-1.2,3.5-1.6,4.8
			l-2.7-1.2l0,0c-0.7-1.9-2-3.3-3.7-4.1l-8.7-4c-2.2-1-4.5-0.7-6.3,0.5l-2.4-1.1c1.8-5,3.6-10.1,5.5-15.7c-0.3-0.3-0.6-0.5-0.9-0.8
			c-1.3-1.4-2.6-2.8-4-4.2c-1.9-2-3-4.4-3.3-7.2c-0.2-1.5,0.7-2.7,1.3-4.4c8-10.7,11.3-6.5,12.5-5.2c0.2,0.3-9.1,9.6-9.1,9.6
			c0.6,0.7,1.2,1.3,1.8,2c0.4-0.5,0.7-0.8,1-1.1c6.3-6.8,12.7-13.7,19-20.5c2.6-2.8,5.2-5.5,7.7-8.4c1.3-1.5,2.8-2.3,4.8-2.2
			c0.9,0.1,1.6,0.5,2.3,1.1c1.9,2.2,1.1,5.3-0.4,6.8c-0.7,0.7-1.4,1.4-1.9,2c0.5,0.6,0.9,1,1.3,1.6c0.4-0.5,0.8-0.9,1.2-1.3
			c0.8-1,1.8-1.9,3.1-2.3c2.4-0.7,4.7,0.7,5,3.3c0.3,1.7-0.3,3.2-1.4,4.5c-0.7,0.8-1.4,1.5-2.1,2.2c0.5,0.6,0.8,1,1.4,1.6
			c0.5-0.6,1-1.2,1.5-1.7c0.6-0.6,1.2-1.2,1.9-1.6c2.5-1.4,5.3-0.2,5.9,2.4c0.5,1.9-0.1,3.6-1.3,5c-0.7,0.7-1.4,1.4-2,2.1
			c0.5,0.6,0.9,1.1,1.3,1.6c0.7-0.8,1.4-1.5,2-2.2c0.3-0.3,0.7-0.7,1.2-1c1.7-1,3.7-0.8,5,0.3C386.9,47.5,387.3,49.4,386.5,51.4z"/>
		<path class="st1" d="M337.9,96.7c2.7,1.2,5.7-0.1,6.8-2.9c0.6-1.4,0.6-2.9,0.1-4.3s-1.5-2.5-2.8-3.1l-8.7-4
			c-1.3-0.6-2.7-0.6-4-0.1c-1.3,0.6-2.3,1.6-2.9,3c-0.6,1.4-0.6,2.9-0.1,4.3c0.5,1.4,1.5,2.5,2.8,3.1L337.9,96.7L337.9,96.7"/>
	</g>
	<path class="st2" d="M345.2,96.3c0.5-0.6,1-1.3,1.3-2.2c0.5-1.1,0.6-2.4,0.6-3.6l1.6,0.8c-0.6,1.7-1.1,3.3-1.9,5.7L345.2,96.3z"/>
	<path class="st0" d="M346.3,99"/>
	<circle class="st3" cx="347.3" cy="65.4" r="56.5"/>
	<path class="st2" d="M326,82c-0.4,0.5-0.6,0.4-1.3,2.2c-0.5,1.1-0.6,2.4-0.6,3.6l-1.6-0.8c0.6-1.7,1.1-3.3,1.9-5.7L326,82z"/>
</g>
<g>
	<path class="st1" d="M670.6,54.9c-0.6-3-3.1-4.8-6.7-4.8c-8.7,0.1-17.3,0.1-25.9,0.1c-2.1,0-4.2,0-6.2,0c-6.6,0-13.1,0-19.7,0
		c-4.6,0-7.2,2.9-6.7,7.3c0.6,6.7,1.2,13.3,1.9,20c0.6,6.7,1.2,13.5,1.9,20.2c0.3,2.6,1.9,4.6,4.4,5.2c1.1,0.3,2.2,0.3,3.4,0.3"/>
	<path class="st1" d="M616.7,103.2c6.6,0,13.2,0,19.8,0c7.4,0,14.7,0,22.1,0c3.6,0,6.2-2.2,6.5-5.4c0.5-5.1,0.9-10.1,1.5-15.2
		c0.8-7.6,1.5-15.2,2.2-22.8c0.2-1.1,0.2-2.3-0.1-3.5"/>
	<g id="_x35_eYWNM_1_">
		<g>
			<path d="M614.3,106.9c-0.5-0.2-0.9-0.3-1.4-0.3c-4.4-1.2-7.7-5.2-8-9.8c-0.3-4.3-0.8-8.6-1.2-12.9c-0.5-4.8-0.9-9.6-1.4-14.5
				c-0.3-3.5-0.5-6.8-1-10.3c-0.7-4.3,2.2-9.2,6.8-10.9c1.2-0.5,2.6-0.6,3.9-0.8c1.7-0.2,3.5,0,5.3,0c0-0.5,0-0.8,0-1.2
				c0-4.3,0.2-8.6,0-12.8c-0.5-11.2,8.4-18.2,15.9-19.8c10.1-2.2,21.1,4.7,23.4,14.6c0.3,1.3,0.4,2.6,0.4,4c0.1,4.7,0,9.4,0,14
				c0,0.3,0,0.7,0,1.1c1.9,0,3.6-0.1,5.4,0c4.5,0.2,7.7,2.3,9.7,6.3c1,2.1,0.9,4.2,0.7,6.5c-0.6,6.2-1.2,12.4-1.8,18.6
				c-0.5,5.4-1.1,10.9-1.6,16.4c-0.2,1.1-0.2,2.2-0.4,3.3c-1.1,4.4-4.1,7.1-8.4,8.1c-0.2,0.1-0.3,0.2-0.5,0.2
				C644.7,106.9,629.5,106.9,614.3,106.9z M637.1,51.4c-2,0-4.1,0-6,0c-6.4,0-12.8,0-19.2,0c-4.4,0-7,2.8-6.5,7.1
				c0.6,6.5,1.2,12.9,1.9,19.4c0.6,6.5,1.2,13.1,1.9,19.6c0.3,2.5,1.9,4.4,4.3,5c1.1,0.3,2.2,0.3,3.3,0.3c6.6,0,13.2,0,19.8,0
				c7.4,0,14.7,0,22.1,0c3.6,0,6.2-2.2,6.5-5.4c0.5-5.1,0.9-10.1,1.5-15.2c0.8-7.6,1.5-15.2,2.2-22.8c0.2-1.1,0.2-2.3-0.1-3.5
				c-0.6-2.9-3-4.7-6.5-4.7C653.8,51.4,645.5,51.4,637.1,51.4z M621.2,47.5c10.6,0,21,0,31.6,0c0-0.2,0.1-0.3,0.1-0.4
				c0-5.4,0.1-10.8-0.1-16.2c-0.1-3-1.2-5.8-3.2-8c-4.2-4.8-9.6-6.5-15.9-5.3c-7.4,1.4-12.8,7.5-12.6,14.8c0.2,4.7,0,9.3,0,14
				C621.2,46.7,621.2,47,621.2,47.5z"/>
			<path d="M637.1,91.1c-1.4,0-2.8,0-4.1,0c-1.4,0-2.2-0.6-2.3-2c-0.5-4.3-1.1-8.6-1.6-12.8c-0.3-3.5,1.3-5.9,4.1-7.5
				c2.8-1.7,5.6-1.6,8.3,0.3c2.7,1.9,4,4.4,3.5,7.7c-0.5,3.9-1,7.8-1.4,11.6c-0.3,2.2-0.8,2.7-3,2.7c-0.6,0-1.2,0-1.7,0
				C638.3,91.1,637.7,91.1,637.1,91.1L637.1,91.1z M637.1,87.2L637.1,87.2c0.6-0.1,1.2-0.2,1.9-0.1s0.9-0.2,0.9-0.9
				c0.3-2.5,0.6-4.9,0.9-7.4c0.2-1,0.2-2,0.3-2.9c0.2-1.6-0.2-2.9-1.6-3.8c-1.6-0.9-3.4-1-5-0.1c-1.4,0.8-1.8,2.2-1.6,3.8
				c0.3,2.9,0.7,5.7,1.1,8.6c0.2,0.9-0.1,2,0.4,2.5C635,87.3,636.2,87.1,637.1,87.2z"/>
			<path class="st2" d="M637.1,87.2c-0.9-0.1-2,0.2-2.6-0.3c-0.5-0.5-0.3-1.6-0.4-2.5c-0.3-2.8-0.8-5.7-1.1-8.6
				c-0.2-1.6,0.2-2.9,1.6-3.8c1.6-0.9,3.4-0.9,5,0.1c1.4,0.9,1.7,2.3,1.6,3.8c-0.2,1-0.2,2-0.3,2.9c-0.3,2.5-0.6,4.9-0.9,7.4
				c-0.1,0.7-0.3,0.9-0.9,0.9C638.4,87,637.8,87.1,637.1,87.2L637.1,87.2z"/>
		</g>
	</g>
	<circle class="st3" cx="637" cy="63.1" r="56.5"/>
</g>
<g>
	<path class="st4" d="M70,36.8c4.8,2.3,2.5,1.2,7.3,3.7c0.2,0.1,0.5,0.2,0.7,0.4c1.3-2.7,2.7-5.3,3.9-8c-8.4-4.2-16.8-8.2-25.2-12.4
		C47.3,39.7,37.9,58.8,28.4,78c2.7,1.3,12.5,6.1,15.2,7.4c0.1-0.2,0.2-0.4,0.3-0.5c2.6-5.1,5.5-9.9,8-15c5.2-10.6,10-21.5,15.2-32.1
		"/>
	<path d="M39.8,67c2.1-4.3,7.4-6.2,11.7-4.1c4.3,2,3.3,5.9,1.2,10.4c-2.2,4.7-4.6,7.5-8.7,5.6C39.5,76.6,37.6,71.4,39.8,67z
		 M45.2,75.7c2.7,1.4,6.1,0.2,7.4-2.5c1.3-2.6,0.1-5.9-2.4-7.2c-2.7-1.4-6.1-0.3-7.4,2.4C41.4,71,42.5,74.3,45.2,75.7z"/>
	<g id="Cay7dE_1_">
		<g>
			<path d="M41.2,97.9c8.4,4.2,16.7,8.2,25.2,12.4c0.4-0.7,0.7-1.4,1-2.1c2.3-4.7,4.6-9.3,6.9-14c0.3-0.7,0.8-1.1,1.5-1.1
				c0.7-0.1,1.3,0.3,1.5,0.9c0.1,0.4,0.2,1.1,0.1,1.5c-2.8,5.9-5.8,11.9-8.7,17.7c-0.4,0.8-1.2,1.1-2.1,0.8
				c-0.2-0.1-0.5-0.2-0.7-0.3c-9.1-4.5-18.2-8.9-27.2-13.4c-1.4-0.7-1.6-1.4-0.9-2.8c1.4-2.8,2.7-5.5,4.1-8.3
				c0.1-0.2,0.2-0.5,0.4-0.8c-0.8-0.4-8.8-4.3-9.7-4.7c-2.3-1.1-4.6-2.2-6.8-3.4c-1.2-0.6-1.4-1.4-0.9-2.6c4.4-9,8.8-17.9,13.2-26.8
				c3.1-6.3,6.2-12.7,9.3-19c2.3-4.7,4.7-9.5,7.1-14.3c0.5-1.1,1.5-1.4,2.6-0.9c9.3,4.6,18.6,9.1,27.8,13.7c1.1,0.5,1.4,1.4,0.8,2.6
				c-1.4,2.8-2.8,5.6-4.2,8.5c-0.1,0.3-0.2,0.5-0.4,0.8c1.2,0.6,9.4,4.6,10.5,5.1c2,0.9,4,1.9,5.9,3c1.2,0.6,1.5,1.4,0.9,2.7
				c-4.6,9.5-9.3,19-14,28.5c-0.3,0.7-0.7,1.2-1.5,1.2c-1.3,0.1-2.2-1.2-1.6-2.4c1.4-2.8,2.8-5.7,4.2-8.5c3.1-6.3,6.2-12.6,9.3-18.9
				c0-0.1,0.1-0.1,0.1-0.2c-8.4-4.2-16.7-8.2-25.2-12.4C60.1,59.5,50.6,78.7,41.2,97.9z M56.6,20.4C47.2,39.7,37.7,58.8,28.3,78
				c2.7,1.3,12.5,6.1,15.2,7.4c0.1-0.2,0.2-0.4,0.3-0.5c2.6-5.1,5-10.1,7.5-15.3C56.6,59,61.8,48.4,67,37.8c0.7-1.4,1.4-1.7,2.8-1
				c4.8,2.3,9.7,4.7,14.5,7.1c0.2,0.1-6.7-3.3-6.5-3.1c1.3-2.7,2.7-5.3,3.9-8C73.4,28.7,65,24.5,56.6,20.4z"/>
			<path d="M52.6,86.4c2.1-4.3,7.4-6.2,11.7-4.1c4.3,2,6.3,7.2,4.3,11.6c-2.2,4.7-7.7,6.3-11.8,4.3C52.3,96,50.5,90.8,52.6,86.4z
				 M58.2,95.1c2.7,1.4,6.1,0.2,7.4-2.5c1.3-2.6,0.1-5.9-2.4-7.2c-2.7-1.4-6.1-0.3-7.4,2.4C54.3,90.5,55.4,93.8,58.2,95.1z"/>
			<path d="M79.8,66.2c-1.5,3-3,6.1-4.5,9.1c-0.5,1.1-1.7,1.4-2.6,0.7c-0.6-0.5-0.8-1.2-0.4-2c1.7-3.4,3.4-6.8,5-10.2
				c0.9-2,1.9-3.9,2.8-5.8c0.5-0.9,0.9-2,1.5-2.8c0.5-0.8,1.4-0.8,2.1-0.2c0.7,0.4,0.9,1.2,0.5,2.1c-0.5,1.1-1.1,2.1-1.6,3.1
				C81.7,62.1,80.8,64.2,79.8,66.2C79.8,66.1,79.8,66.2,79.8,66.2z"/>
			<path d="M68.6,66.4c-1.3,2.7-2.6,5.3-3.9,8c-0.7,1.4-2.1,1.5-3,0.4c-0.5-0.7-0.4-1.3,0-2c1.1-2.3,2.3-4.6,3.4-6.9
				c1.4-3,2.9-5.9,4.3-8.8c0.5-1.1,1.4-1.4,2.2-1.1c0.9,0.4,1.3,1.4,0.8,2.4C71.2,61,69.9,63.7,68.6,66.4z"/>
			<path d="M78.5,89.4c-0.9-0.4-1.2-1.4-0.7-2.3c0.4-0.8,1.4-1.1,2.2-0.7c0.8,0.4,1.2,1.5,0.7,2.3C80.3,89.6,79.3,89.9,78.5,89.4z"
				/>
		</g>
	</g>
	<path class="st4" d="M58.1,95.1c2.7,1.4,6.1,0.2,7.4-2.5c1.3-2.6,0.1-5.9-2.4-7.2c-2.7-1.4-6.1-0.3-7.4,2.4
		C54.3,90.5,55.4,93.8,58.1,95.1z"/>
	<path class="st2" d="M45.2,75.7c2.7,1.4,6.1,0.2,7.4-2.5c1.3-2.6,0.1-5.9-2.4-7.2c-2.7-1.4-6.1-0.3-7.4,2.4
		C41.4,71,42.5,74.4,45.2,75.7z"/>
	<path d="M47,82.4L47,82.4c-0.8-0.4-1.1-1.4-0.8-2.2l5.9-12.3c0.4-0.8,1.4-1.1,2.2-0.8l0,0c0.8,0.4,1.1,1.4,0.8,2.2l-5.9,12.3
		C48.8,82.4,47.8,82.8,47,82.4z"/>
	<g>
		<circle class="st3" cx="63.5" cy="64.7" r="56.5"/>
	</g>
</g>
<path d="M483,65.6h-21.9c-1.4,0-2.5-1.1-2.5-2.5l0,0c0-1.4,1.1-2.5,2.5-2.5H483c1.4,0,2.5,1.1,2.5,2.5l0,0
	C485.6,64.5,484.4,65.6,483,65.6z"/>
<path d="M421.6,65.6h-2.8c-1.4,0-2.5-1.1-2.5-2.5l0,0c0-1.4,1.1-2.5,2.5-2.5h2.8c1.4,0,2.5,1.1,2.5,2.5l0,0
	C424.1,64.5,423,65.6,421.6,65.6z"/>
<path d="M436.8,65.6h-7.4c-1.4,0-2.5-1.1-2.5-2.5l0,0c0-1.4,1.1-2.5,2.5-2.5h7.4c1.4,0,2.5,1.1,2.5,2.5l0,0
	C439.4,64.5,438.2,65.6,436.8,65.6z"/>
<path d="M451.9,65.6h-7.4c-1.4,0-2.5-1.1-2.5-2.5l0,0c0-1.4,1.1-2.5,2.5-2.5h7.4c1.4,0,2.5,1.1,2.5,2.5l0,0
	C454.4,64.5,453.3,65.6,451.9,65.6z"/>
<path d="M558.3,65.6h-57.9c-3.7,0-6.7-1.1-6.7-2.5l0,0c0-1.4,3-2.5,6.7-2.5h57.9c3.7,0,6.7,1.1,6.7,2.5l0,0
	C565,64.5,562,65.6,558.3,65.6z"/>
<path d="M196.4,64.5h-21.9c-1.4,0-2.5-1.1-2.5-2.5l0,0c0-1.4,1.1-2.5,2.5-2.5h21.9c1.4,0,2.5,1.1,2.5,2.5l0,0
	C199,63.4,197.8,64.5,196.4,64.5z"/>
<path d="M135,64.5h-2.8c-1.4,0-2.5-1.1-2.5-2.5l0,0c0-1.4,1.1-2.5,2.5-2.5h2.8c1.4,0,2.5,1.1,2.5,2.5l0,0
	C137.5,63.4,136.4,64.5,135,64.5z"/>
<path d="M150.2,64.5h-7.4c-1.4,0-2.5-1.1-2.5-2.5l0,0c0-1.4,1.1-2.5,2.5-2.5h7.4c1.4,0,2.5,1.1,2.5,2.5l0,0
	C152.8,63.4,151.6,64.5,150.2,64.5z"/>
<path d="M165.3,64.5h-7.4c-1.4,0-2.5-1.1-2.5-2.5l0,0c0-1.4,1.1-2.5,2.5-2.5h7.4c1.4,0,2.5,1.1,2.5,2.5l0,0
	C167.8,63.4,166.7,64.5,165.3,64.5z"/>
<path d="M271.6,64.5h-57.9c-3.7,0-6.7-1.1-6.7-2.5l0,0c0-1.4,3-2.5,6.7-2.5h57.9c3.7,0,6.7,1.1,6.7,2.5l0,0
	C278.4,63.4,275.4,64.5,271.6,64.5z"/>
</svg>
