<?xml version="1.0" encoding="utf-8"?>
<!-- Generator: Adobe Illustrator 19.2.1, SVG Export Plug-In . SVG Version: 6.00 Build 0)  -->
<svg version="1.1" id="Layer_1" xmlns="http://www.w3.org/2000/svg" xmlns:xlink="http://www.w3.org/1999/xlink" x="0px" y="0px"
	 viewBox="0 0 110 52" style="enable-background:new 0 0 110 52;" xml:space="preserve">
<style type="text/css">
	.st0{fill:#FFFFFF;}
	.st1{fill:#274C6C;}
	.st2{fill:#8B3430;}
	.st3{fill:#F7BB00;}
</style>
<g id="KozyW7.tif">
</g>
<g>
	<g>
		<path class="st0" d="M35.7,39.8c0.1,0,0.1,0,0.2-0.1c0-0.1,0.1-0.2,0.1-0.4c0.9-2.1,1.7-4.4,2.8-6.4c3.4-6.3,8.7-10.7,15.1-13.7
			c5.8-2.7,12.1-3.3,18.4-3.7c3.2-0.2,6.5,0.1,9.7,0.3c1.7,0.1,3.4,0.3,5.1,0.4c-0.1-0.2-0.3-0.3-0.4-0.3c-7-1.9-14.1-3.5-21.4-3.7
			c-4.8-0.1-9.5,0-14.1,1.6c-4.7,1.6-8.8,3.9-11.7,8c-0.1,0.2-0.3,0.3-0.5,0.6c-0.2-0.3-0.4-0.6-0.6-0.8c-2.5-3.4-4.9-6.9-8.3-9.6
			c-5.9-4.7-12.4-5.9-19.6-3.5C9.4,8.9,8.4,9.3,7.4,9.8c2.6,0.3,5.1,0.5,7.6,1s4.7,1.7,6.7,3.3c-0.9,0-1.8,0-2.7,0
			c-2.5,0-4.8,2.5-4.7,4.9c0.1,2,1.5,3.7,3.5,4.3c4.1,1.3,7.4-1.3,7.2-5.5c0-0.1,0.1-0.2,0.1-0.4C30.7,23.8,33.6,31.6,35.7,39.8z
			 M23.8,26.1c-3.1,1.6-6,1.4-9,0.1c-0.6,5.6-1.2,11-1.8,16.5c4.3,0,8.6,0,12.8,0C25.1,37.2,24.4,31.7,23.8,26.1z M102,26.1
			c-3.1,1.6-6,1.5-9,0.1c-0.6,5.6-1.2,11-1.8,16.6c4.3,0,8.5,0,12.8,0C103.3,37.3,102.7,31.8,102,26.1z M98.2,14c-0.2,0-0.5,0-0.7,0
			c-2.1,0.3-3.7,1.2-4.5,3.3c-0.7,1.7-0.3,3.3,1,4.6c2,2.2,5.5,2.4,7.8,0.5c2.4-1.9,2.5-5.1,0.3-7.1C101,14.4,99.7,14,98.2,14z"/>
		<path class="st1" d="M35.7,39.8c-2.1-8.2-5-15.9-10.7-22.4c-0.1,0.2-0.1,0.3-0.1,0.4c0.2,4.2-3.1,6.7-7.2,5.5
			c-2.1-0.6-3.4-2.3-3.5-4.3c-0.1-2.4,2.2-4.8,4.7-4.9c0.9,0,1.8,0.1,2.7,0c-2-1.6-4.2-2.8-6.7-3.3s-5-0.7-7.6-1
			c1-0.4,2-0.9,3.1-1.3C17.6,6.1,24.1,7.4,30,12c3.4,2.7,5.8,6.2,8.3,9.6c0.2,0.3,0.4,0.5,0.6,0.8c0.2-0.2,0.4-0.4,0.5-0.6
			c2.9-4.1,7.1-6.4,11.7-8c4.6-1.6,9.3-1.7,14.1-1.6c7.3,0.2,14.4,1.7,21.4,3.7c0.2,0,0.3,0.1,0.4,0.3c-1.7-0.1-3.4-0.3-5.1-0.4
			c-3.2-0.1-6.5-0.4-9.7-0.3c-6.3,0.3-12.6,1-18.4,3.7c-6.4,3-11.7,7.4-15.1,13.7c-1.1,2-1.9,4.3-2.8,6.4c-0.1,0.1-0.1,0.2-0.1,0.4
			C35.8,39.7,35.7,39.8,35.7,39.8z"/>
		<path class="st2" d="M81.1,23.9c0,0.8-0.1,1.5,0,2.2c0,0.4,0.3,0.7,0.5,1.1c0.3-0.2,0.6-0.4,0.7-0.7c1-2,2.6-3,4.8-3.1
			c1.2-0.1,1.3,0,1.1,1.2c-0.1,0.7-0.2,1.3-0.3,2s-0.3,1.1-1.1,1c-0.3,0-0.6,0.1-0.9,0.1c-3.2,0.4-4.5,3.4-4.5,5.5
			c0,2.8,0,5.7,0,8.5c0,0.2,0,0.3,0,0.6c-2.6,0-5.2,0-7.9,0c0-2.7,0-5.5,0-8.3c-6.4,0-12.7,0-19.1,0c0,1.9,0.8,3.4,2.4,4.5
			c2,1.3,5.3,1.2,7.2-0.1c0.3-0.2,0.6-0.4,0.8-0.4c2.3,0,4.7,0,7.2,0c-0.3,0.4-0.4,0.7-0.6,0.9c-2.1,2.4-4.9,3.5-8,3.9
			c-3.3,0.4-6.5,0.2-9.7-0.8c-2.4-0.8-4.6-2-5.9-4.3C45.6,33.9,46,29,50.2,26c5.5-3.8,11.3-3.9,17.3-1.4c2.5,1.1,4.2,3.2,5,5.8
			c0.1,0.4,0.3,0.8,0.5,1.1c0.1,0,0.2-0.1,0.3-0.1c0-0.3,0.1-0.5,0.1-0.8c0-2,0-4,0-6c0-0.4-0.1-0.8,0.5-0.8
			C76.4,23.9,78.7,23.9,81.1,23.9z M54.4,31.2c3.4,0,6.6,0,9.9,0c1,0,1.3-0.3,0.9-1.3c-0.1-0.2-0.2-0.5-0.3-0.7
			c-1.6-2.6-4.9-3.5-7.7-1.9C55.6,28.1,54.5,29.2,54.4,31.2z"/>
		<path class="st2" d="M23.8,26.1c0.7,5.6,1.3,11.1,2,16.7c-4.3,0-8.5,0-12.8,0c0.6-5.5,1.2-11,1.8-16.5
			C17.7,27.5,20.7,27.7,23.8,26.1z"/>
		<path class="st2" d="M102,26.1c0.7,5.6,1.3,11.1,2,16.7c-4.3,0-8.5,0-12.8,0c0.6-5.5,1.2-11,1.8-16.6C96,27.6,99,27.7,102,26.1z"
			/>
		<path class="st1" d="M98.2,14c1.5,0,2.8,0.4,3.8,1.4c2.2,2,2.1,5.2-0.3,7.1c-2.3,1.8-5.8,1.6-7.8-0.5c-1.2-1.3-1.6-2.9-1-4.6
			c0.8-2,2.4-3,4.5-3.3C97.7,14,98,14,98.2,14z"/>
	</g>
	<g id="XacQi5.tif">
		<g>
			<path class="st3" d="M2.6,10c0.7-0.4,1.3-0.8,2-1.2C5.2,8.5,5.7,8.3,6.3,8c0.6-0.2,1.2-0.4,1.8-0.7C8.5,7.1,8.9,7,9.3,6.8
				c0.5-0.2,1-0.3,1.6-0.4c0.2-0.1,0.4-0.1,0.6-0.2c0.9-0.2,1.9-0.3,2.8-0.5c0.3-0.1,0.7,0,1-0.1c0.6,0,1.1-0.1,1.7-0.1
				c0.5,0,1,0.1,1.5,0.1c1.1,0,2.1,0.1,3.2,0.4c0.6,0.2,1.2,0.2,1.8,0.4c0.7,0.2,1.4,0.5,2,0.8c0.7,0.3,1.4,0.7,2,1.1
				c0.8,0.5,1.5,0.9,2.3,1.5c0.9,0.7,1.8,1.4,2.6,2.2s1.6,1.6,2.3,2.5c1,1.2,2,2.4,2.9,3.7c0.4,0.5,0.7,1,1,1.5c0.5-0.5,1-1,1.5-1.5
				c0.6-0.5,1.1-1.1,1.8-1.6c1.1-0.8,2.2-1.7,3.4-2.3c0.7-0.4,1.5-0.8,2.2-1.1s1.5-0.5,2.2-0.8c0.5-0.2,1-0.3,1.5-0.5
				c0.3-0.1,0.6-0.2,0.9-0.2c0.7-0.1,1.4-0.3,2.1-0.4c0.7-0.1,1.3-0.2,2-0.3c1-0.2,2.1-0.3,3.1-0.4c1.8-0.2,3.6-0.1,5.4-0.1
				c1.2,0,2.4,0.1,3.6,0.2c0.6,0,1.2,0.1,1.8,0.2c0.5,0.1,1.1,0.1,1.6,0.2c0.8,0.1,1.7,0.2,2.5,0.3c0.7,0.1,1.4,0.2,2.1,0.4
				c0.7,0.1,1.3,0.2,2,0.4c0.9,0.2,1.9,0.4,2.8,0.7c0.6,0.1,1.3,0.2,1.9,0.4c0.8,0.2,1.7,0.4,2.5,0.7c0.8,0.2,1.6,0.4,2.3,0.6
				s1.4,0.4,2.1,0.6c0.5,0.1,1,0.3,1.5,0.4c0.3,0.1,0.5-0.1,0.7-0.3c0.6-0.9,1.4-1.5,2.4-2c1.5-0.8,3-0.8,4.6-0.6
				c0.9,0.1,1.7,0.4,2.4,0.9c0.7,0.4,1.3,0.9,1.8,1.5c0.6,0.7,1,1.4,1.1,2.3c0.1,0.6,0.1,1.2,0.1,1.7s-0.2,1-0.4,1.5
				c-0.6,1.6-1.9,2.6-3.3,3.4c-0.4,0.2-0.8,0.3-1.3,0.4c-1,0.3-2.1,0.2-3.1,0.1c-0.5,0-0.9-0.2-1.4-0.4c-0.7-0.3-1.4-0.7-1.9-1.2
				c-0.8-0.7-1.4-1.4-1.7-2.4c-0.3-0.8-0.5-1.6-0.5-2.4c0-0.2-0.1-0.3-0.3-0.3c-0.5-0.1-0.9-0.2-1.4-0.3c-0.4-0.1-0.9-0.2-1.3-0.2
				c-0.7-0.1-1.4-0.1-2.1-0.2c-0.6-0.1-1.3-0.1-1.9-0.2c-0.9-0.1-1.9-0.1-2.8-0.2c-1.9-0.2-3.9-0.1-5.8-0.1c-0.9,0-1.7,0-2.6,0
				c-0.8,0-1.6,0.1-2.5,0.2c-0.5,0-1.1,0.1-1.6,0.2c-0.6,0.1-1.2,0.2-1.8,0.3c-0.1,0-0.3,0-0.4,0c-0.9,0.1-1.9,0.3-2.8,0.4
				c-0.6,0.1-1.1,0.2-1.7,0.3c-0.6,0.1-1.3,0.3-1.9,0.5c-0.5,0.1-1.1,0.2-1.6,0.4c-0.5,0.1-1,0.3-1.5,0.5c-0.4,0.1-0.8,0.3-1.2,0.4
				s-0.7,0.3-1.1,0.5c-0.3,0.1-0.7,0.3-1,0.4c-0.5,0.2-1.1,0.5-1.6,0.8c-0.6,0.3-1.2,0.7-1.7,1c-0.7,0.4-1.4,0.8-2,1.3
				c-0.9,0.6-1.7,1.3-2.5,2.1c-0.5,0.5-1,1-1.4,1.5c-0.8,0.9-1.6,1.8-2.3,2.8c-0.6,0.8-1.1,1.6-1.7,2.5c-0.6,1.1-1.2,2.2-1.8,3.3
				c-0.4,0.7-0.7,1.4-1,2.1c-0.2,0.6-0.4,1.2-0.6,1.8c-0.2,0.6-0.3,1.2-0.5,1.8c-0.1,0.4-0.1,0.8-0.2,1.3c-0.1,0.4-0.1,0.7-0.2,1.1
				c-0.1,0.3-0.4,0.5-0.7,0.5s-0.6-0.2-0.7-0.5c-0.1-0.5-0.2-1-0.4-1.5c-0.1-0.6-0.3-1.2-0.5-1.8c-0.1-0.5-0.3-1-0.4-1.6
				c-0.1-0.5-0.3-1-0.5-1.6c-0.1-0.3-0.1-0.5-0.2-0.8c-0.3-1-0.7-2.1-1-3.1c-0.2-0.7-0.5-1.5-0.8-2.2c-0.2-0.7-0.5-1.3-0.8-1.9
				s-0.5-1.2-0.7-1.8c-0.3-0.7-0.7-1.5-1-2.2c-0.5-1-1-2-1.6-3c-0.4-0.6-0.8-1.2-1.3-1.9c-0.2,0.3-0.4,0.6-0.6,0.9
				c-0.4,0.7-0.9,1.2-1.5,1.6c-0.7,0.5-1.5,0.9-2.3,1.2c-0.3,0.1-0.7,0.2-1,0.2c-0.2,0-0.4,0.1-0.7,0.1c-0.1,0-0.2,0-0.3,0
				c-0.4,0-0.8-0.1-1.2-0.2c-0.6-0.1-1.2-0.3-1.7-0.5c-0.6-0.2-1.1-0.5-1.6-0.9c-0.8-0.6-1.4-1.3-1.9-2.3c-0.3-0.7-0.6-1.4-0.6-2.1
				c0-1.1,0.2-2.2,0.8-3.2c0.5-0.8,1.1-1.5,1.9-2c0.4-0.2,0.8-0.4,1.2-0.6c0.1-0.1,0.2-0.1,0.4-0.3c-0.6-0.3-1.2-0.5-1.7-0.8
				c-0.4-0.2-0.9-0.3-1.3-0.5c-0.2-0.1-0.5-0.1-0.7-0.2c-0.6-0.1-1.2-0.2-1.7-0.2c-0.8-0.1-1.7-0.1-2.5-0.1s-1.6,0-2.3,0.2
				c-1,0.1-2,0.3-2.9,0.5c-0.3,0.1-0.6,0.2-0.9,0.3C2.6,11.4,2.6,10.7,2.6,10z M19.4,23.2L19.4,23.2c0.4-0.1,0.9,0,1.3-0.1
				c1-0.3,2-0.6,2.7-1.4c0.1-0.2,0.4-0.3,0.5-0.5c0.5-0.6,0.9-1.2,0.8-2c0-0.6,0-1.1,0-1.7c0-0.3,0.2-0.4,0.4-0.3
				c0.1,0,0.2,0.1,0.2,0.2c0.4,0.6,0.9,1.2,1.3,1.7c0.1,0.2,0.3,0.3,0.4,0.5c0.5,0.8,1.1,1.6,1.6,2.5c0.3,0.5,0.7,1,1,1.5
				c0.2,0.3,0.4,0.7,0.6,1c0.3,0.6,0.6,1.2,0.9,1.8c0.3,0.7,0.6,1.3,0.9,2c0.3,0.8,0.6,1.7,0.9,2.6c0,0.1,0.1,0.2,0.1,0.3
				c0.2,0.4,0.3,0.8,0.5,1.2c0.1,0.2,0.1,0.3,0.1,0.5c0.3,0.8,0.6,1.7,0.9,2.5c0.3,0.8,0.5,1.6,0.7,2.4c0.1,0.3,0.1,0.6,0.2,0.9
				c0,0.1,0.1,0.2,0.2,0.2c0.1,0,0.2-0.1,0.2-0.2c0.1-0.3,0.2-0.6,0.4-0.9c0.3-0.5,0.7-1,0.8-1.6c0.1-0.5,0.4-0.8,0.5-1.3
				c0.1-0.3,0.2-0.6,0.3-0.9c0.3-0.6,0.6-1.1,0.9-1.6c0.3-0.6,0.7-1.2,1-1.8c0.3-0.5,0.7-1.1,1.1-1.6c0.5-0.6,0.9-1.2,1.5-1.7
				c1.3-1.4,2.6-2.8,4.2-3.9c0.6-0.5,1.2-1,1.9-1.4c0.4-0.3,0.8-0.5,1.3-0.8s1-0.7,1.6-1c0.4-0.2,0.8-0.4,1.2-0.6
				c0.7-0.3,1.3-0.6,2-0.9s1.4-0.6,2.1-0.8c0.3-0.1,0.7-0.1,1-0.2c0.4-0.1,0.8-0.3,1.3-0.4c0.7-0.2,1.4-0.3,2.2-0.4
				c0.7-0.1,1.4-0.3,2.1-0.4c0.4-0.1,0.7-0.1,1.1-0.1c0.7-0.1,1.4-0.3,2-0.4c0.9-0.1,1.9,0,2.7-0.4l0,0c0.7,0,1.4-0.1,2-0.1
				c2.6,0,5.2,0,7.8,0c0.2,0,0.3,0,0.5,0.1c0.6,0,1.1,0.3,1.6-0.2c0.1-0.1,0.2,0,0.3-0.1c0.2,0,0.4,0,0.5,0c0.2,0,0.3,0,0.3-0.3
				c0-0.2-0.1-0.2-0.3-0.2c-0.3,0-0.5,0-0.8-0.1c-0.6-0.1-1.2-0.3-1.8-0.5c-0.3-0.1-0.6-0.1-1-0.2c-0.6-0.1-1.3-0.3-1.9-0.5
				c-0.9-0.2-1.9-0.3-2.8-0.5c-0.6-0.1-1.2-0.2-1.8-0.2c-0.4,0-0.8,0-1.2-0.2c-0.1,0-0.2,0-0.3,0c-0.8,0-1.6-0.1-2.4-0.1
				c-1.1-0.1-2.3-0.1-3.4-0.1c-1.7,0-3.4,0.1-5.1,0.1c-1,0-1.9,0.1-2.9,0.1c-0.1,0-0.2,0.1-0.2,0.1c-0.2,0.1-0.4,0.1-0.6,0.2
				c-0.1,0-0.3,0-0.4,0.1c-0.7,0.2-1.4,0.3-2.1,0.5c-0.4,0.1-0.8,0.2-1.2,0.3c-0.9,0.3-1.8,0.6-2.6,1c-0.9,0.4-1.8,0.8-2.6,1.2
				c-0.4,0.2-0.9,0.5-1.3,0.7c-0.5,0.3-0.9,0.5-1.3,0.8c-0.5,0.4-1,0.8-1.5,1.2c-0.3,0.3-0.7,0.6-1,0.9c-0.8,0.9-1.6,1.7-2.4,2.6
				c-0.1,0.2-0.3,0.2-0.5,0c-0.3-0.3-0.5-0.6-0.7-0.9c-0.3-0.4-0.5-0.8-0.8-1.2c-0.6-0.8-1.2-1.7-1.8-2.5s-1.2-1.6-1.9-2.4
				c-0.9-0.9-1.9-1.8-2.8-2.7c-0.3-0.2-0.5-0.4-0.8-0.6c-0.5-0.3-0.9-0.6-1.4-0.9c-0.4-0.3-0.9-0.6-1.3-0.8C26.5,10,26,9.7,25.4,9.4
				c-0.7-0.3-1.4-0.7-2.1-0.9c-0.8-0.3-1.6-0.5-2.4-0.6c-1-0.1-1.9-0.2-2.9-0.3c-0.9,0-1.8,0.1-2.6,0.1c-0.3,0-0.5,0.1-0.8,0.1
				C14,7.9,13.5,8,12.9,8.1c-0.6,0.1-1.2,0.3-1.8,0.5c-0.2,0.1-0.5,0.1-0.7,0.2c-0.3,0.1-0.6,0.1-0.9,0.3C9.2,9.2,8.9,9.4,8.7,9.5
				C8.6,9.6,8.5,9.7,8.5,9.8S8.7,10,8.7,10c0.9,0.1,1.9,0.1,2.9,0.2c0.2,0,0.4,0,0.6,0.1c0.6,0.1,1.1,0.2,1.7,0.3
				c0.5,0.1,1.1,0.2,1.6,0.3c0.8,0.2,1.5,0.6,2.2,0.9c0.9,0.3,1.6,0.7,2.4,1.3c0.4,0.3,0.5,0.5,0.3,1.1c-0.1,0.3-0.4,0.1-0.6,0.2
				c-0.2,0-0.3,0-0.5,0c-0.5,0-1,0-1.4,0.2c-0.5,0.2-1,0.5-1.5,0.8c-0.3,0.2-0.6,0.5-0.8,0.8c-0.4,0.5-0.8,1.1-1,1.7
				c-0.5,1.5-0.1,2.8,0.8,4c0.6,0.8,1.5,1.1,2.3,1.7h0.1C18.1,23.1,18.8,23.2,19.4,23.2z M98.1,23.4C98.1,23.4,98.1,23.3,98.1,23.4
				c0.3-0.1,0.7,0,1-0.1c0.5-0.1,1.1-0.2,1.5-0.4c0.7-0.3,1.3-0.9,1.8-1.5c0.6-0.7,1-1.4,0.9-2.3c0-0.5,0-0.9,0-1.4
				c0-0.4-0.1-0.7-0.3-1c-0.1-0.1-0.2-0.3-0.3-0.4c-0.3-0.8-1-1.2-1.7-1.6c-0.9-0.5-1.9-0.8-3-0.8c-0.3,0-0.7,0.1-1,0.1
				c-0.9-0.1-1.6,0.4-2.2,0.8c-1,0.6-1.7,1.6-2,2.8c-0.3,1.4,0,2.7,0.8,3.8c0.6,0.8,1.4,1.4,2.3,1.7C96.7,23.3,97.4,23.3,98.1,23.4z
				"/>
			<path class="st3" d="M72.2,26.4c0-0.2,0-0.4,0-0.5c-0.3-0.7-0.1-1.4-0.1-2.1c0-0.5,0.1-0.8,0.5-1.1c0.2-0.1,0.4-0.2,0.7-0.2
				c2.7,0,5.5,0,8.2,0c0.5,0,0.9,0.4,0.9,0.9c0,0.1,0,0.2,0,0.3c0.2-0.1,0.3-0.2,0.4-0.3c0.6-0.4,1.3-0.8,2.1-1.1
				c0.5-0.2,1-0.3,1.5-0.3c0.6,0,1.1-0.1,1.7-0.1c0.5,0,1,0.1,1.3,0.5c0.2,0.2,0.4,0.4,0.2,0.7c0,0.1,0,0.1,0,0.2
				c-0.1,1-0.3,2-0.5,3c-0.1,0.6-0.2,1.2-0.3,1.7c-0.1,0.3-0.2,0.4-0.5,0.5c-0.7,0.1-1.4,0-2.1,0c-1.2,0-2.5,0.9-2.9,2
				c-0.5,1.1-0.5,2.2-0.5,3.4c0,2.1,0,4.2,0,6.3c0,0.6,0,1.2,0,1.8c0,0.8-0.5,1.3-1.3,1.3c-2.8,0-5.6,0-8.3,0
				c-0.7,0-1.1-0.5-1.1-1.1s0-1.2,0-1.8c0-0.1,0-0.2,0-0.4c-0.2,0.2-0.3,0.2-0.4,0.4c-0.8,0.7-1.6,1.3-2.6,1.7
				c-0.8,0.4-1.7,0.7-2.5,1c-0.6,0.2-1.2,0.3-1.8,0.4c-1.2,0.3-2.4,0.4-3.6,0.3c-0.2,0-0.5,0.1-0.7,0.1c-0.9,0-1.9-0.1-2.8-0.2
				c-1.1-0.1-2.2-0.3-3.2-0.5c-0.7-0.1-1.3-0.4-1.9-0.6c-0.8-0.2-1.5-0.7-2.2-1.1c-1-0.6-1.9-1.3-2.7-2.2c-0.4-0.5-0.8-1-1.1-1.6
				s-0.5-1.2-0.8-1.9c-0.3-0.8-0.4-1.7-0.4-2.6c0-0.2-0.1-0.4-0.1-0.6c0.2-0.9,0.2-1.9,0.5-2.8c0.4-1.1,0.9-2,1.6-3
				c0.8-1.1,1.8-2,2.9-2.8c0.9-0.6,1.8-1.1,2.8-1.5c0.6-0.3,1.3-0.4,1.9-0.6c0.6-0.1,1.2-0.3,1.8-0.4c0.4-0.1,0.8-0.1,1.2-0.2
				c1.4-0.3,2.8-0.1,4.1-0.1c0.6,0,1.1,0.2,1.7,0.3c0.4,0.1,0.8,0.1,1.1,0.2c0.7,0.2,1.4,0.4,2.1,0.7c1.6,0.5,2.9,1.5,4.2,2.5
				c0.3,0.3,0.6,0.6,0.9,0.9C71.9,26.2,72,26.3,72.2,26.4z M63.9,33.7c3.1,0,6.1,0,9.2,0c0.3,0,0.4,0.1,0.4,0.4c0,2.5,0,5.1,0,7.6
				c0,0.4,0,0.4,0.5,0.4c2.2,0,4.4,0,6.7,0c0.6,0,0.7-0.1,0.7-0.7c0-2.9,0-5.8,0-8.8c0-0.7,0.3-1.3,0.5-2c0.1-0.2,0.2-0.5,0.3-0.7
				c0.3-0.5,0.7-1,1.1-1.5c0.3-0.4,0.7-0.5,1.1-0.6c0.3-0.1,0.5-0.3,0.8-0.3c0.8-0.1,1.6-0.2,2.4-0.3c0.1,0,0.2-0.1,0.2-0.2
				c0.1-0.4,0.1-0.8,0.1-1.2c0.1-0.7,0.2-1.4,0.3-2.2c0-0.1,0-0.3-0.1-0.3c-0.2-0.1-0.5-0.2-0.8-0.1c-0.7,0.1-1.3,0.2-1.9,0.4
				c-0.2,0.1-0.4,0.1-0.6,0.2c-0.8,0.5-1.6,1-2,1.9c-0.2,0.4-0.4,0.7-0.6,1.1c-0.1,0.2-0.4,0.3-0.6,0.3c-0.3,0-0.5-0.3-0.5-0.7
				c0-0.7,0-1.4,0-2.2c0-0.3-0.1-0.4-0.4-0.4c-2.2,0-4.4,0-6.6,0c-0.3,0-0.4,0.1-0.4,0.4c0,2.1,0,4.2,0,6.3c0,0.1,0,0.2,0,0.3
				c-0.1,0.2-0.2,0.4-0.4,0.5c0,0-0.3-0.2-0.4-0.3c-0.1-0.1-0.1-0.2-0.1-0.3c-0.3-0.6-0.5-1.3-0.8-1.9c-0.3-0.5-0.5-1.1-0.9-1.5
				c-0.6-0.7-1.3-1.3-2-1.9c-0.3-0.3-0.7-0.4-1.1-0.6c-0.6-0.3-1.1-0.7-1.7-0.9c-0.8-0.3-1.6-0.4-2.4-0.6c-0.8-0.2-1.6-0.3-2.4-0.3
				c-0.7,0-1.3-0.1-2,0c-0.9,0.1-1.9,0.1-2.9,0.2c-0.3,0-0.6,0.1-0.9,0.2c-0.7,0.3-1.5,0.5-2.2,0.8c-0.9,0.4-1.9,0.8-2.7,1.4
				c-0.2,0.2-0.4,0.3-0.6,0.5c-1.1,0.7-1.8,1.6-2.5,2.7c-0.3,0.5-0.5,1.2-0.7,1.8c-0.1,0.2-0.1,0.5-0.1,0.7
				c-0.1,0.5-0.2,1.1-0.2,1.6c0,0.4,0.1,0.7,0.1,1.1c0.1,1,0.2,2,0.7,3c0.4,0.7,0.7,1.4,1.3,2c0.5,0.4,1,0.9,1.5,1.3
				c0.1,0.1,0.1,0.1,0.2,0.1c0.6,0.3,1.1,0.6,1.7,0.9c0.6,0.3,1.1,0.5,1.8,0.7s1.5,0.3,2.2,0.5c0.2,0,0.4,0.2,0.6,0.2
				c0.8,0.1,1.7,0.1,2.5,0.1c0.9,0,1.7,0,2.6,0c0.7,0,1.4-0.1,2.1-0.1c0.1,0,0.1,0,0.2,0c0.4-0.3,0.8-0.3,1.2-0.4
				c0.4-0.1,0.9-0.1,1.2-0.3c0.7-0.3,1.5-0.7,2.2-1.1c1.2-0.6,2.1-1.5,2.9-2.6c0.1-0.1,0.1-0.2,0.1-0.3c-0.1,0-0.2-0.1-0.3-0.1
				c-2.2,0-4.4,0-6.6,0c-0.2,0-0.4,0.1-0.6,0.2c-0.6,0.5-1.2,0.8-1.9,1c-1,0.3-2.1,0.3-3.1,0.3c-0.6,0-1.2-0.1-1.7-0.4
				c-0.7-0.3-1.3-0.8-1.8-1.3c-0.9-1-1.6-2.1-1.4-3.5c0-0.3,0.1-0.4,0.4-0.4C57.8,33.7,60.9,33.7,63.9,33.7z M55.7,34.9
				c0.2,0.4,0.3,0.7,0.5,1c0.3,0.5,0.6,1,1.1,1.3c0.4,0.2,0.8,0.5,1.3,0.6c0.4,0.1,0.9,0.2,1.3,0.3c0.5,0,0.9-0.1,1.4-0.1
				c0.8-0.1,1.5-0.5,2.1-1c0.3-0.2,0.6-0.4,1-0.4c1.6,0,3.1,0,4.7,0c0.8,0,1.7,0,2.5,0c0.1,0,0.3-0.1,0.3-0.2c0-0.5,0-1,0-1.5
				C66.6,34.9,61.3,34.9,55.7,34.9z"/>
			<path class="st3" d="M97.2,43.9c-2.2,0-4.4,0-6.6,0c-0.6,0-1-0.4-0.9-0.9c0-0.8,0.1-1.6,0.2-2.4c0-0.5,0.1-1.1,0.2-1.6
				c0.1-0.7,0.2-1.4,0.3-2.1c0-0.2,0-0.5,0-0.7c0.1-0.8,0.1-1.6,0.2-2.3c0.1-0.6,0.1-1.2,0.2-1.7c0.1-0.5,0.1-1,0.2-1.6
				c0.1-0.7,0.2-1.4,0.3-2.1c0-0.2,0-0.5,0-0.7c0.1-0.8,0.1-1.6,0.2-2.4c0-0.2,0.1-0.4,0.1-0.6c0.1-0.1,0.2-0.2,0.4-0.3
				c0.5-0.1,0.9,0,1.3,0.2c0.7,0.3,1.3,0.7,2.1,0.9c1,0.3,2,0.2,3,0.1c0.9-0.1,1.8-0.5,2.6-0.8c0.5-0.1,1-0.3,1.4-0.4
				c0.3-0.1,0.6,0.2,0.7,0.5c0.1,0.4,0.1,0.8,0.2,1.2c0.1,0.7,0.2,1.4,0.3,2.1c0,0.2,0,0.4,0,0.5c0.1,0.7,0.1,1.4,0.2,2.1
				c0.1,0.6,0.2,1.2,0.3,1.9c0,0.2,0,0.5,0,0.7c0.1,0.5,0.1,1.1,0.2,1.6c0.1,0.6,0.2,1.2,0.2,1.8c0.1,0.8,0.1,1.7,0.3,2.5
				c0.3,1.2,0.1,2.4,0.2,3.6c0,0.5-0.1,0.5-0.5,0.6c-0.6,0.2-1.3,0.1-1.9,0.1C100.8,43.9,99,43.9,97.2,43.9z M93,26.3
				c0,0.3,0,0.5,0,0.8c-0.1,0.9-0.2,1.7-0.3,2.6c0,0.5-0.1,0.9-0.2,1.4c-0.1,0.7-0.2,1.3-0.2,2c0,0.1,0,0.3,0,0.4
				c-0.1,0.8-0.2,1.7-0.3,2.5c0,0.4,0.1,0.9-0.3,1.3v0.1c0,0.6-0.1,1.2-0.1,1.9c-0.1,0.8-0.1,1.7-0.1,2.5c0,0.1,0,0.1,0,0.2
				c-0.2,0.6-0.1,0.8,0.6,0.8c3.7,0,7.4,0,11,0c0.1,0,0.2,0,0.3,0c0.3,0,0.4-0.2,0.4-0.4c0-0.8,0-1.6-0.2-2.4
				c-0.2-1.1-0.3-2.1-0.4-3.2c0-0.5-0.1-0.9-0.2-1.4c-0.1-1-0.3-2-0.4-3c-0.1-0.7-0.1-1.5-0.1-2.2v-0.1c-0.4-0.5-0.4-1.1-0.4-1.8
				c0-0.7-0.1-1.3-0.1-2c0,0,0,0-0.1-0.1c-0.1,0.1-0.3,0.1-0.5,0.2c-0.3,0.1-0.7,0.3-1,0.4c-0.4,0.1-0.9,0.3-1.3,0.4
				c-0.2,0-0.3,0.2-0.5,0.1c-1-0.1-2.1,0.2-3.1-0.2c-0.7-0.3-1.6-0.2-2.3-0.7C93.2,26.3,93.1,26.3,93,26.3z"/>
			<path class="st3" d="M19,43.8c-2.3,0-4.6,0-6.8,0c-0.6,0-0.8-0.3-0.8-0.8c0-0.4,0-0.9,0-1.3c0.1-0.7,0.2-1.4,0.3-2.1
				c0-0.2,0-0.4,0-0.5c0.1-0.8,0.1-1.7,0.2-2.5c0.1-0.5,0.1-1.1,0.2-1.6c0.1-0.6,0.1-1.2,0.2-1.7c0.1-1.1,0.2-2.2,0.4-3.4
				c0.1-0.9,0.2-1.8,0.3-2.7c0.1-0.6,0.1-1.2,0.2-1.8c0.1-0.4,0-0.9,0.5-1c0.2,0,0.5-0.1,0.6,0c0.7,0.3,1.3,0.7,1.9,0.9
				c1,0.4,2.1,0.5,3.2,0.4c0.7-0.1,1.5-0.3,2.2-0.5c0.6-0.2,1.3-0.5,1.9-0.7c0.5-0.2,1,0,1.2,0.3c0,0.1,0.1,0.2,0.1,0.2
				c0.1,0.6,0.2,1.2,0.2,1.7c0.1,0.9,0.2,1.7,0.3,2.6c0.1,1,0.2,2,0.4,3c0.1,0.8,0.2,1.6,0.3,2.4c0.1,0.7,0.1,1.4,0.2,2
				c0.1,0.7,0.2,1.3,0.3,2c0,0.2,0,0.4,0,0.6c0.1,0.7,0.1,1.4,0.2,2.1c0,0.4,0.1,0.8,0.2,1.2c0.1,0.6-0.3,0.8-0.8,0.9
				c-0.2,0-0.3,0-0.5,0C23.5,43.8,21.3,43.8,19,43.8z M14.7,26.2c0,0.1,0,0.1,0,0.2c-0.1,0.9-0.2,1.8-0.3,2.7
				c-0.1,0.9-0.2,1.8-0.3,2.6c-0.1,0.5-0.1,1-0.2,1.5c-0.1,1-0.3,2-0.4,3c0,0.9-0.2,1.8-0.3,2.7C13.1,40,13,41,12.9,42.1
				c0,0.5,0,0.5,0.5,0.5c3.8,0,7.7,0,11.5,0c0.1,0,0.2,0,0.2,0c0.1,0,0.2-0.1,0.2-0.2c0-0.8-0.1-1.5-0.2-2.3c0-0.4-0.1-0.8-0.1-1.1
				c0-0.2-0.1-0.3-0.1-0.4c0-0.2-0.1-0.3-0.1-0.5c-0.1-0.8-0.1-1.5-0.2-2.3c-0.1-1-0.3-2-0.4-3.1c0-0.2-0.1-0.5-0.1-0.7
				C24,31.2,24,30.4,24,29.7v-0.1c-0.2-1-0.4-2-0.5-3.1c0-0.2-0.1-0.2-0.3-0.2c-0.3,0.1-0.6,0.2-0.9,0.3c-0.9,0.4-1.9,0.6-2.9,0.6
				c-0.6,0-1.2-0.1-1.8-0.1c-0.8-0.1-1.7-0.1-2.4-0.6C15.2,26.3,14.9,26.3,14.7,26.2z"/>
			<path class="st3" d="M59.7,31.1c-1.7,0-3.3,0-5,0c-0.3,0-0.4-0.1-0.4-0.4c0-1.2,0.5-2.1,1.5-2.8c0.5-0.4,1-0.7,1.6-1
				c0.1-0.1,0.3-0.1,0.4-0.1c0.2,0,0.3,0,0.5-0.1c0.6-0.4,1.3-0.2,1.9-0.3c0.9-0.1,1.8,0.3,2.5,0.6c1.2,0.6,2,1.5,2.5,2.7
				c0.1,0.2,0.2,0.4,0.2,0.6c0.1,0.5-0.2,0.8-0.7,0.8C63.1,31.1,61.4,31.1,59.7,31.1z M56.1,29.5l0.1,0.1c0.1,0,0.2,0,0.3,0
				c1.2,0,2.3,0,3.5,0c1.1,0,2.1,0,3.2,0c0.3,0,0.4-0.1,0.2-0.4s-0.5-0.6-0.7-0.8c-0.5-0.4-1-0.6-1.6-0.7c-0.3,0-0.5,0-0.8-0.1
				c-0.2,0-0.4-0.1-0.6-0.1c-0.3,0-0.7,0.1-1,0.1c-0.3,0.1-0.6,0.1-0.8,0.2c-0.5,0.3-1,0.7-1.4,1.1C56.3,29.1,56.2,29.3,56.1,29.5z"
				/>
		</g>
	</g>
</g>
</svg>
