<?xml version="1.0" encoding="utf-8"?>
<!-- Generator: Adobe Illustrator 21.1.0, SVG Export Plug-In . SVG Version: 6.00 Build 0)  -->
<svg version="1.1" id="Layer_1" xmlns="http://www.w3.org/2000/svg" xmlns:xlink="http://www.w3.org/1999/xlink" x="0px" y="0px"
	 viewBox="0 0 83.5 35.9" style="enable-background:new 0 0 83.5 35.9;" xml:space="preserve">
<style type="text/css">
	.st0{fill:#FFFFFF;}
	.st1{fill:#FAA819;}
	.st2{enable-background:new    ;}
</style>
<g>
	<path class="st0" d="M27,14c0-7.2-5.8-13-13-13S1,6.8,1,14s5.8,13,13,13c0.1,0,0.2,0,0.3,0l-1.7,7l9.9-10.2l0,0
		C25.2,20.9,27,17.9,27,14z M14,22.2c-4.4,0-8.1-3.6-8.1-8.1C5.9,9.7,9.5,6,14,6c4.4,0,8.1,3.6,8.1,8.1C22.1,18.5,18.5,22.2,14,22.2
		z"/>
	<circle class="st1" cx="14" cy="14.1" r="6.3"/>
</g>
<g>
	<g>
		<path class="st0" d="M50.3,1.7c0.5,0,1,0.2,1.3,0.6c0.4,0.4,0.6,0.8,0.6,1.3c0,0.6-0.2,1-0.6,1.3c-0.3,0.3-0.8,0.5-1.4,0.5
			s-1-0.2-1.4-0.5c-0.3-0.3-0.6-0.8-0.6-1.3s0.2-0.9,0.6-1.3C49.3,1.9,49.8,1.7,50.3,1.7z"/>
	</g>
	<g>
		<path class="st0" d="M48.2,6.9v10.8c0,1.1,0.8,1.9,1.9,1.9h0.2c1.1,0,1.9-0.8,1.9-1.9V6.9H48.2z"/>
	</g>
	<g>
		<path class="st0" d="M55.2,1.6c0.5,0,1,0.2,1.3,0.6c0.4,0.4,0.6,0.8,0.6,1.3c0,0.6-0.2,1-0.6,1.3c-0.3,0.3-0.8,0.5-1.4,0.5
			s-1-0.2-1.4-0.5c-0.3-0.3-0.6-0.8-0.6-1.3s0.2-0.9,0.6-1.3C54.3,1.8,54.7,1.6,55.2,1.6z"/>
	</g>
	<g>
		<path class="st0" d="M53.2,6.8v10.8c0,1.1,0.8,1.9,1.9,1.9h0.2c1.1,0,1.9-0.8,1.9-1.9V6.8H53.2z"/>
	</g>
	<g>
		<path class="st0" d="M47,7.5c0-1.8-0.4-3.1-1.2-4s-1.9-1.4-3.4-1.4c-0.9,0-1.7,0.2-2.4,0.6s-1.2,0.9-1.8,1.8
			c-0.9-1.6-2.2-2.3-3.9-2.3c-1.4,0-2.6,0.4-3.5,1.4c-0.9,0.9-1.3,2.2-1.3,3.7v9.9c0,1.4,1.1,2.5,2.5,2.5c1.4,0,2.5-1.1,2.5-2.5
			c0-0.1,0-0.1,0-0.1V8.5c0-0.9,0.2-1.3,0.7-1.3c0.3,0,0.4,0.1,0.5,0.3c0.1,0.2,0.1,0.6,0.1,1.1v8.5c0,0.1,0,0.1,0,0.2
			c0,1.4,1.1,2.5,2.5,2.5s2.5-1.1,2.5-2.5l0,0V8.5c0-0.8,0.2-1.2,0.7-1.2c0.3,0,0.4,0.1,0.5,0.3c0.1,0.2,0.1,0.6,0.1,1.1v8.7
			c0,0.1,0,0.1,0,0.1c0,1.4,1.1,2.5,2.5,2.5s2.5-1.1,2.5-2.5v-0.1l0,0C47,17.1,47,7.5,47,7.5z"/>
	</g>
	<g>
		<path class="st0" d="M66.5,4.5c0-0.3,0.1-0.6,0.2-0.9C66.9,3.3,67,3,67.3,2.8c0.2-0.2,0.5-0.4,0.8-0.6C68.4,2.1,68.7,2,69,2h2.3
			c1.5,0,2.8,0.3,3.9,0.8s2.1,1.2,2.8,2s1.3,1.8,1.7,2.8c0.4,1.1,0.6,2.1,0.6,3.2S80.1,13,79.7,14c-0.3,1-0.9,1.9-1.6,2.7
			c-0.7,0.8-1.6,1.4-2.7,1.9s-2.3,0.7-3.8,0.7h-2.7c-0.8,0-1.3-0.2-1.8-0.7c-0.4-0.4-0.7-1-0.7-1.8V4.3h0.1V4.5z M71.8,14.6
			c0.7,0,1.2-0.1,1.7-0.3s0.9-0.6,1.2-0.9c0.3-0.4,0.6-0.8,0.7-1.3c0.2-0.5,0.2-0.9,0.2-1.4c0-0.4-0.1-0.9-0.2-1.4
			c-0.2-0.4-0.4-0.8-0.7-1.2c-0.3-0.3-0.7-0.6-1.2-0.8S72.4,7,71.8,7h-0.4v7.7L71.8,14.6L71.8,14.6z"/>
	</g>
	<g>
		<g>
			<path class="st0" d="M64.6,9.2v3.2h-5.5V9.2H64.6z"/>
		</g>
	</g>
</g>
<g class="st2">
	<path class="st0" d="M29.4,25.2c0-1.2,0.9-2.1,2.2-2.1c1.2,0,2.2,0.9,2.2,2.1c0,1.2-0.9,2.1-2.2,2.1C30.3,27.3,29.4,26.4,29.4,25.2
		z M32.7,25.2c0-0.7-0.4-1.2-1.1-1.2c-0.7,0-1.1,0.5-1.1,1.2c0,0.7,0.4,1.2,1.1,1.2C32.2,26.3,32.7,25.8,32.7,25.2z"/>
	<path class="st0" d="M36.2,27.2v-1.7c0-0.4-0.2-0.5-0.5-0.5c-0.3,0-0.5,0.2-0.6,0.3v1.9h-0.9v-2.9h0.9v0.4c0.2-0.2,0.5-0.4,1-0.4
		c0.7,0,1,0.4,1,0.9v2.1H36.2z"/>
	<path class="st0" d="M37.8,27.2v-4.1h0.9v4.1H37.8z"/>
	<path class="st0" d="M39.4,23.5c0-0.3,0.2-0.5,0.5-0.5c0.3,0,0.5,0.2,0.5,0.5c0,0.3-0.2,0.5-0.5,0.5C39.6,24,39.4,23.8,39.4,23.5z
		 M39.5,27.2v-2.9h0.9v2.9H39.5z"/>
	<path class="st0" d="M43.1,27.2v-1.7c0-0.4-0.2-0.5-0.5-0.5c-0.3,0-0.5,0.2-0.6,0.3v1.9h-0.9v-2.9H42v0.4c0.2-0.2,0.5-0.4,1-0.4
		c0.7,0,1,0.4,1,0.9v2.1H43.1z"/>
	<path class="st0" d="M44.5,25.7c0-0.9,0.6-1.5,1.6-1.5c0.9,0,1.5,0.6,1.5,1.6V26h-2.1c0.1,0.3,0.3,0.5,0.7,0.5
		c0.2,0,0.6-0.1,0.7-0.2l0.4,0.6c-0.3,0.3-0.8,0.4-1.2,0.4C45.2,27.3,44.5,26.7,44.5,25.7z M46,24.9c-0.4,0-0.6,0.3-0.6,0.5h1.2
		C46.6,25.2,46.5,24.9,46,24.9z"/>
	<path class="st0" d="M50.5,27.2v-3.1h-1.1v-0.9h3.3v0.9h-1.1v3.1H50.5z"/>
	<path class="st0" d="M53.1,23.5c0-0.3,0.2-0.5,0.5-0.5c0.3,0,0.5,0.2,0.5,0.5c0,0.3-0.2,0.5-0.5,0.5C53.3,24,53.1,23.8,53.1,23.5z
		 M53.1,27.2v-2.9h0.9v2.9H53.1z"/>
	<path class="st0" d="M54.6,25.7c0-0.9,0.7-1.5,1.6-1.5c0.6,0,1,0.3,1.2,0.5l-0.6,0.6c-0.1-0.2-0.3-0.3-0.6-0.3
		c-0.4,0-0.7,0.3-0.7,0.7s0.3,0.7,0.7,0.7c0.2,0,0.4-0.1,0.6-0.3l0.6,0.6c-0.2,0.3-0.6,0.5-1.2,0.5C55.3,27.3,54.6,26.7,54.6,25.7z"
		/>
	<path class="st0" d="M59.7,27.2l-0.6-1l-0.3,0.3v0.7h-0.9v-4.1h0.9v2.3l0.9-1.2h1.1l-1.1,1.3l1.1,1.6H59.7z"/>
	<path class="st0" d="M60.9,25.7c0-0.9,0.6-1.5,1.6-1.5c0.9,0,1.5,0.6,1.5,1.6V26h-2.1c0.1,0.3,0.3,0.5,0.7,0.5
		c0.2,0,0.6-0.1,0.7-0.2l0.4,0.6c-0.3,0.3-0.8,0.4-1.2,0.4C61.6,27.3,60.9,26.7,60.9,25.7z M62.4,24.9c-0.4,0-0.6,0.3-0.6,0.5H63
		C63,25.2,62.9,24.9,62.4,24.9z"/>
	<path class="st0" d="M64.6,26.4v-1.3h-0.5v-0.8h0.5v-0.8h0.9v0.8h0.6v0.8h-0.6v1.1c0,0.2,0.1,0.3,0.3,0.3c0.1,0,0.2,0,0.2-0.1
		l0.2,0.7c-0.1,0.1-0.3,0.2-0.7,0.2C64.9,27.3,64.6,27,64.6,26.4z"/>
	<path class="st0" d="M66.5,23.5c0-0.3,0.2-0.5,0.5-0.5c0.3,0,0.5,0.2,0.5,0.5c0,0.3-0.2,0.5-0.5,0.5C66.8,24,66.5,23.8,66.5,23.5z
		 M66.6,27.2v-2.9h0.9v2.9H66.6z"/>
	<path class="st0" d="M70.2,27.2v-1.7c0-0.4-0.2-0.5-0.5-0.5c-0.3,0-0.5,0.2-0.6,0.3v1.9h-0.9v-2.9h0.9v0.4c0.2-0.2,0.5-0.4,1-0.4
		c0.7,0,1,0.4,1,0.9v2.1H70.2z"/>
	<path class="st0" d="M71.7,28l0.4-0.7c0.2,0.2,0.6,0.3,0.9,0.3c0.3,0,0.7-0.1,0.7-0.7v-0.2c-0.2,0.3-0.5,0.4-0.9,0.4
		c-0.7,0-1.3-0.5-1.3-1.5c0-1,0.6-1.5,1.3-1.5c0.3,0,0.6,0.1,0.9,0.4v-0.3h0.9v2.7c0,1.2-0.9,1.5-1.7,1.5
		C72.5,28.4,72.1,28.3,71.7,28z M73.8,26.1v-0.8c-0.1-0.2-0.4-0.3-0.6-0.3c-0.4,0-0.6,0.2-0.6,0.7c0,0.4,0.3,0.7,0.6,0.7
		C73.4,26.3,73.7,26.2,73.8,26.1z"/>
	<path class="st0" d="M79.4,27.2L79.1,27c-0.3,0.2-0.6,0.3-1.1,0.3c-0.8,0-1.4-0.4-1.4-1.2c0-0.6,0.4-0.9,0.9-1.1
		c-0.1-0.3-0.2-0.6-0.2-0.8c0-0.6,0.5-1,1.2-1c0.6,0,1.1,0.3,1.1,0.9c0,0.6-0.5,0.9-1,1.1c0.1,0.1,0.2,0.3,0.3,0.4
		c0.1,0.1,0.2,0.2,0.3,0.3c0.1-0.2,0.3-0.5,0.3-0.7l0.7,0.3c-0.2,0.3-0.3,0.6-0.6,0.9c0.2,0.3,0.5,0.5,0.8,0.8H79.4z M78.7,26.4
		c-0.2-0.2-0.3-0.3-0.4-0.4c-0.1-0.1-0.2-0.3-0.4-0.5c-0.1,0.1-0.2,0.3-0.2,0.5c0,0.3,0.2,0.6,0.5,0.6
		C78.4,26.6,78.5,26.5,78.7,26.4z M78.4,24.6c0.3-0.1,0.5-0.3,0.5-0.5c0-0.2-0.1-0.3-0.3-0.3c-0.2,0-0.4,0.1-0.4,0.3
		C78.2,24.2,78.3,24.4,78.4,24.6z"/>
</g>
<g class="st2">
	<path class="st0" d="M29.4,30.8c0-1.3,0.9-2.1,2.2-2.1c1,0,1.5,0.6,1.8,1.1l-0.9,0.4c-0.1-0.3-0.5-0.6-0.9-0.6
		c-0.7,0-1.1,0.5-1.1,1.2s0.5,1.2,1.1,1.2c0.4,0,0.7-0.3,0.9-0.6l0.9,0.4c-0.3,0.5-0.8,1.1-1.8,1.1C30.4,32.9,29.4,32,29.4,30.8z"/>
	<path class="st0" d="M35.5,32.8v-0.3c-0.2,0.2-0.5,0.4-0.9,0.4c-0.4,0-1-0.3-1-1c0-0.7,0.6-0.9,1-0.9c0.4,0,0.7,0.1,0.9,0.3V31
		c0-0.3-0.2-0.4-0.6-0.4c-0.3,0-0.6,0.1-0.8,0.3l-0.3-0.6c0.4-0.3,0.9-0.5,1.3-0.5c0.7,0,1.4,0.3,1.4,1.2v1.8H35.5z M35.5,32v-0.3
		c-0.1-0.1-0.3-0.2-0.5-0.2c-0.2,0-0.5,0.1-0.5,0.3c0,0.2,0.2,0.3,0.5,0.3C35.2,32.3,35.4,32.2,35.5,32z"/>
	<path class="st0" d="M36.9,32.4l0.4-0.6c0.2,0.2,0.7,0.4,1,0.4c0.3,0,0.4-0.1,0.4-0.2c0-0.1-0.2-0.2-0.5-0.2
		c-0.5-0.1-1.2-0.2-1.2-1c0-0.5,0.4-1,1.3-1c0.5,0,0.9,0.2,1.2,0.4l-0.4,0.6c-0.2-0.2-0.5-0.3-0.9-0.3c-0.2,0-0.4,0.1-0.4,0.2
		c0,0.1,0.2,0.2,0.5,0.2c0.5,0.1,1.2,0.2,1.2,1c0,0.6-0.5,1-1.3,1C37.7,32.9,37.2,32.7,36.9,32.4z"/>
	<path class="st0" d="M42.1,32.8v-1.7c0-0.4-0.2-0.5-0.5-0.5c-0.3,0-0.5,0.2-0.6,0.3v1.9h-0.9v-4.1H41v1.5c0.2-0.2,0.5-0.4,1-0.4
		c0.7,0,1,0.4,1,0.9v2.1H42.1z"/>
	<path class="st0" d="M43.7,32.8v-4.1h0.9v4.1H43.7z"/>
	<path class="st0" d="M45.1,31.3c0-0.9,0.6-1.5,1.6-1.5c0.9,0,1.5,0.6,1.5,1.6v0.2h-2.1c0.1,0.3,0.3,0.5,0.7,0.5
		c0.2,0,0.6-0.1,0.7-0.2l0.4,0.6c-0.3,0.3-0.8,0.4-1.2,0.4C45.8,32.9,45.1,32.3,45.1,31.3z M46.7,30.5c-0.4,0-0.6,0.3-0.6,0.5h1.2
		C47.3,30.8,47.1,30.5,46.7,30.5z"/>
	<path class="st0" d="M48.4,32.4l0.4-0.6c0.2,0.2,0.7,0.4,1,0.4c0.3,0,0.4-0.1,0.4-0.2c0-0.1-0.2-0.2-0.5-0.2
		c-0.5-0.1-1.2-0.2-1.2-1c0-0.5,0.4-1,1.3-1c0.5,0,0.9,0.2,1.2,0.4l-0.4,0.6c-0.2-0.2-0.5-0.3-0.9-0.3c-0.2,0-0.4,0.1-0.4,0.2
		c0,0.1,0.2,0.2,0.5,0.2c0.5,0.1,1.2,0.2,1.2,1c0,0.6-0.5,1-1.3,1C49.2,32.9,48.7,32.7,48.4,32.4z"/>
	<path class="st0" d="M51.3,32.4l0.4-0.6c0.2,0.2,0.7,0.4,1,0.4c0.3,0,0.4-0.1,0.4-0.2c0-0.1-0.2-0.2-0.5-0.2
		c-0.5-0.1-1.2-0.2-1.2-1c0-0.5,0.4-1,1.3-1c0.5,0,0.9,0.2,1.2,0.4l-0.4,0.6c-0.2-0.2-0.5-0.3-0.9-0.3c-0.2,0-0.4,0.1-0.4,0.2
		c0,0.1,0.2,0.2,0.5,0.2c0.5,0.1,1.2,0.2,1.2,1c0,0.6-0.5,1-1.3,1C52.2,32.9,51.6,32.7,51.3,32.4z"/>
	<path class="st0" d="M56.1,32.8v-4.1h3v0.9h-1.9v0.6H59v0.9h-1.9v0.7h1.9v0.9H56.1z"/>
	<path class="st0" d="M60.4,32.8l-1.2-2.9h1l0.7,1.9l0.7-1.9h1l-1.2,2.9H60.4z"/>
	<path class="st0" d="M62.6,31.3c0-0.9,0.6-1.5,1.6-1.5c0.9,0,1.5,0.6,1.5,1.6v0.2h-2.1c0.1,0.3,0.3,0.5,0.7,0.5
		c0.2,0,0.6-0.1,0.7-0.2l0.4,0.6c-0.3,0.3-0.8,0.4-1.2,0.4C63.3,32.9,62.6,32.3,62.6,31.3z M64.2,30.5c-0.4,0-0.6,0.3-0.6,0.5h1.2
		C64.8,30.8,64.6,30.5,64.2,30.5z"/>
	<path class="st0" d="M68.1,32.8v-1.7c0-0.4-0.2-0.5-0.5-0.5c-0.3,0-0.5,0.2-0.6,0.3v1.9h-0.9v-2.9h0.9v0.4c0.2-0.2,0.5-0.4,1-0.4
		c0.7,0,1,0.4,1,0.9v2.1H68.1z"/>
	<path class="st0" d="M70,32v-1.3h-0.5v-0.8H70v-0.8h0.9v0.8h0.6v0.8h-0.6v1.1c0,0.2,0.1,0.3,0.3,0.3c0.1,0,0.2,0,0.2-0.1l0.2,0.7
		c-0.1,0.1-0.3,0.2-0.7,0.2C70.3,32.9,70,32.6,70,32z"/>
	<path class="st0" d="M71.7,32.4l0.4-0.6c0.2,0.2,0.7,0.4,1,0.4c0.3,0,0.4-0.1,0.4-0.2c0-0.1-0.2-0.2-0.5-0.2
		c-0.5-0.1-1.2-0.2-1.2-1c0-0.5,0.4-1,1.3-1c0.5,0,0.9,0.2,1.2,0.4l-0.4,0.6c-0.2-0.2-0.5-0.3-0.9-0.3c-0.2,0-0.4,0.1-0.4,0.2
		c0,0.1,0.2,0.2,0.5,0.2c0.5,0.1,1.2,0.2,1.2,1c0,0.6-0.5,1-1.3,1C72.6,32.9,72,32.7,71.7,32.4z"/>
</g>
</svg>
