<?xml version="1.0" encoding="utf-8"?>
<!-- Generator: Adobe Illustrator 19.1.0, SVG Export Plug-In . SVG Version: 6.00 Build 0)  -->
<svg version="1.1" id="Layer_1" xmlns="http://www.w3.org/2000/svg" xmlns:xlink="http://www.w3.org/1999/xlink" x="0px" y="0px"
	 viewBox="-80 83.1 38.5 55" style="enable-background:new -80 83.1 38.5 55;" xml:space="preserve">
<style type="text/css">
	.st0{fill:#FFFFFF;}
</style>
<g id="_x35_sa9xk.tif">
	<g>
		<path class="st0" d="M-67.2,83.1c0.3,0,0.7,0.1,1,0.1c2,0.3,3.8,1,5.3,2.2c2.4,1.8,3.9,4.1,4.6,7c0.8,3.8,0,7.2-2.4,10.3v0.1
			c1,1,1.9,1.9,2.9,2.9c0.2-0.2,0.4-0.3,0.7-0.3c0.4-0.1,0.8,0.1,1.1,0.4c1.2,1.2,2.4,2.4,3.7,3.7c1.6,1.6,3.1,3.1,4.7,4.7
			c0.2,0.2,0.2,0.4,0,0.6c-1,1-2,2-3,2.9c-0.1,0.1-0.1,0.1-0.2,0.1c-0.4,0.1-0.6-0.1-0.8-0.3c-2.6-2.6-5.2-5.3-7.9-7.9
			c-0.5-0.5-0.7-1.3-0.1-1.9c-1-1-1.9-1.9-2.9-2.9c-0.2,0.2-0.5,0.4-0.8,0.5c-1.6,1.1-3.5,1.8-5.4,2c-5.6,0.6-10.8-2.7-12.7-8
			c-0.3-1-0.6-2-0.6-3v-0.1c0-0.6,0-1.1,0-1.7c0-0.1,0-0.1,0-0.2c0-0.3,0.1-0.6,0.1-1c0.5-2.9,1.9-5.4,4.2-7.3
			c1.7-1.4,3.7-2.3,5.9-2.7c0.3-0.1,0.7-0.1,1-0.1C-68.3,83.1-67.7,83.1-67.2,83.1z M-77.5,95.2c0,5.3,4.3,9.5,9.5,9.5
			c5.3,0,9.6-4.2,9.6-9.5c0-5.2-4.3-9.5-9.5-9.5C-73.3,85.6-77.5,89.9-77.5,95.2z"/>
	</g>
</g>
<g>
	<path class="st0" d="M-78.2,125.4c0.4,0.3,1,0.5,1.7,0.5c1,0,1.5-0.5,1.5-1.2c0-0.7-0.4-1.1-1.4-1.4c-1.2-0.4-1.9-1-1.9-2.1
		c0-1.1,0.9-2,2.3-2c0.7,0,1.3,0.2,1.6,0.4l-0.3,0.8c-0.2-0.1-0.7-0.3-1.4-0.3c-1,0-1.4,0.6-1.4,1.1c0,0.7,0.4,1,1.4,1.4
		c1.2,0.5,1.9,1.1,1.9,2.1c0,1.1-0.8,2.1-2.5,2.1c-0.7,0-1.5-0.2-1.9-0.5L-78.2,125.4z"/>
	<path class="st0" d="M-69,123.1h-2.8v2.6h3.1v0.8h-4.1v-7.3h3.9v0.8h-3v2.3h2.8V123.1z"/>
	<path class="st0" d="M-66.3,124.3l-0.8,2.3h-1l2.5-7.3h1.1l2.5,7.3h-1l-0.8-2.3H-66.3z M-63.9,123.5l-0.7-2.1
		c-0.2-0.5-0.3-0.9-0.4-1.3h0c-0.1,0.4-0.2,0.9-0.4,1.3l-0.7,2.1H-63.9z"/>
	<path class="st0" d="M-60.9,119.4c0.5-0.1,1.2-0.2,1.8-0.2c1,0,1.6,0.2,2.1,0.6c0.4,0.3,0.6,0.8,0.6,1.4c0,1-0.6,1.6-1.4,1.9v0
		c0.6,0.2,0.9,0.7,1.1,1.5c0.2,1,0.4,1.7,0.6,2h-1c-0.1-0.2-0.3-0.8-0.5-1.7c-0.2-1-0.6-1.4-1.5-1.4h-0.9v3.1h-0.9V119.4z
		 M-59.9,122.7h1c1,0,1.6-0.5,1.6-1.4c0-0.9-0.7-1.3-1.7-1.4c-0.5,0-0.8,0-0.9,0.1V122.7z"/>
	<path class="st0" d="M-50,126.3c-0.3,0.2-1,0.3-1.9,0.3c-2,0-3.6-1.3-3.6-3.7c0-2.3,1.5-3.8,3.8-3.8c0.9,0,1.5,0.2,1.7,0.3
		l-0.2,0.8c-0.4-0.2-0.9-0.3-1.5-0.3c-1.7,0-2.8,1.1-2.8,3c0,1.8,1,2.9,2.8,2.9c0.6,0,1.2-0.1,1.5-0.3L-50,126.3z"/>
	<path class="st0" d="M-47.9,119.3v3h3.5v-3h0.9v7.3h-0.9v-3.4h-3.5v3.4h-0.9v-7.3H-47.9z"/>
	<path class="st0" d="M-72.2,133H-75v2.6h3.1v0.8H-76v-7.3h3.9v0.8h-3v2.3h2.8V133z"/>
	<path class="st0" d="M-69,136.4l-2.4-7.3h1l1.1,3.6c0.3,1,0.6,1.9,0.8,2.7h0c0.2-0.8,0.5-1.8,0.8-2.7l1.2-3.6h1l-2.6,7.3H-69z"/>
	<path class="st0" d="M-60.8,133h-2.8v2.6h3.1v0.8h-4.1v-7.3h3.9v0.8h-3v2.3h2.8V133z"/>
	<path class="st0" d="M-59.3,136.4v-7.3h1l2.3,3.7c0.5,0.8,1,1.6,1.3,2.4l0,0c-0.1-1-0.1-1.8-0.1-3v-3h0.9v7.3h-0.9l-2.3-3.7
		c-0.5-0.8-1-1.6-1.4-2.4l0,0c0.1,0.9,0.1,1.8,0.1,3v3.1H-59.3z"/>
	<path class="st0" d="M-50.8,130H-53v-0.8h5.4v0.8h-2.2v6.5h-0.9V130z"/>
	<path class="st0" d="M-47,135.3c0.4,0.3,1,0.5,1.7,0.5c1,0,1.5-0.5,1.5-1.2c0-0.7-0.4-1.1-1.4-1.4c-1.2-0.4-1.9-1-1.9-2.1
		c0-1.1,0.9-2,2.3-2c0.7,0,1.3,0.2,1.6,0.4l-0.3,0.8c-0.2-0.1-0.7-0.3-1.4-0.3c-1,0-1.4,0.6-1.4,1.1c0,0.7,0.4,1,1.4,1.4
		c1.2,0.5,1.9,1.1,1.9,2.1c0,1.1-0.8,2.1-2.5,2.1c-0.7,0-1.5-0.2-1.8-0.5L-47,135.3z"/>
</g>
</svg>
