<?xml version="1.0" encoding="utf-8"?>
<!-- Generator: Adobe Illustrator 19.2.1, SVG Export Plug-In . SVG Version: 6.00 Build 0)  -->
<svg version="1.1" id="Layer_1" xmlns="http://www.w3.org/2000/svg" xmlns:xlink="http://www.w3.org/1999/xlink" x="0px" y="0px"
	 viewBox="0 0 79.5 45" style="enable-background:new 0 0 79.5 45;" xml:space="preserve">
<style type="text/css">
	.st0{fill:#F8991F;}
	.st1{fill:#CD2029;}
	.st2{fill:#FFFFFF;}
</style>
<path class="st0" d="M26.5,2c4.9,0.1,9.1,1.6,12.7,4.8c0.1,0.1,0.2,0.1,0.4,0c2.4-2.1,5.1-3.5,8.2-4.3C49,2.2,50.2,2.1,51.5,2
	c2.8-0.1,5.6,0.4,8.2,1.5c4.2,1.8,7.3,4.7,9.5,8.6c1.1,2,1.8,4.2,2.1,6.4c0.2,1.2,0.2,2.4,0.1,3.6c-0.2,3.9-1.5,7.5-3.9,10.7
	c-2.6,3.3-5.9,5.6-9.9,6.7c-1.4,0.4-2.7,0.6-4.2,0.7c-4.9,0.3-9.3-1.2-13.2-4.3c-0.2-0.1-0.4-0.3-0.5-0.5c-0.1-0.1-0.2-0.1-0.4,0
	c-1,0.9-2,1.6-3.1,2.3c-2.2,1.3-4.6,2.1-7.2,2.4c-3.2,0.4-6.4,0-9.4-1.2c-4.8-1.9-8.3-5.3-10.5-10C7.7,26,7.2,23,7.4,19.9
	c0.6-7,4-12.2,10-15.6c2.5-1.4,5.2-2.1,8-2.3C25.8,2,26.2,2,26.5,2z"/>
<g id="UI3nU1.tif">
	<g>
		<path class="st1" d="M41.6,18.8 M44.6,21.9C44.4,23,44.6,24,45,25c0,0,0,0,0,0c0.3,0.3,0.2,0.7,0.1,1.1c-0.1,0.3-0.2,0.6-0.3,0.9
			c0,0.2-0.1,0.2-0.3,0.2c-1.8,0-3.6,0-5.5,0c-1.6,0-3.2,0-4.7,0c-0.1,0-0.1,0-0.3,0c0.2,0.4,0.3,0.9,0.5,1.3
			c0.1,0.2,0.2,0.3,0.2,0.5c0.1,0.2,0.1,0.2,0.3,0.2c2.8,0,5.7,0,8.5,0c0.1,0,0.2,0,0.3,0c-0.1,0.2-0.2,0.4-0.3,0.6
			c-0.2,0.4-0.5,0.9-0.7,1.3c-0.1,0.1-0.2,0.2-0.3,0.2c-2.1,0-4.2,0-6.3,0c-0.1,0-0.1,0-0.3,0c0.1,0.2,0.2,0.4,0.4,0.6
			c0.3,0.4,0.6,0.8,0.9,1.2c0.1,0.1,0.2,0.2,0.3,0.2c1.2,0,2.3,0,3.5,0c0.1,0,0.1,0,0.2,0c-3.9,4.9-10.8,8.1-18.2,6.8
			c-9.1-1.6-14.9-9-15.8-16.6c-1-8.8,3.8-16.4,10.8-19.7C26.3,0,34.7,2.4,39.4,6.9c-0.6,0.6-1.2,1.2-1.9,1.9c0,0,0,0,0,0.1
			c0.1,0,0.1,0,0.2,0c1.1,0,2.2,0,3.2,0c0.2,0,0.3,0.1,0.4,0.2c0.4,0.6,0.8,1.1,1.2,1.6c0,0.1,0.1,0.1,0.1,0.2c-0.1,0-0.2,0-0.3,0
			c-2.1,0-4.2,0-6.3,0c-0.2,0-0.3,0-0.3,0.2c-0.3,0.6-0.6,1.1-0.9,1.7c0,0,0,0.1,0,0.1c0.1,0,0.2,0,0.2,0c2.8,0,5.7,0,8.5,0
			c0.2,0,0.3,0.1,0.3,0.2c0.2,0.5,0.4,1.1,0.6,1.6c0,0.1,0,0.1,0.1,0.2c-0.1,0-0.2,0-0.3,0c-3.4,0-6.7,0-10.1,0
			c-0.2,0-0.3,0.1-0.4,0.3c-0.1,0.6-0.3,1.1-0.5,1.7c3.9,0,7.8,0,11.8,0c0.1,0.4,0.1,0.7,0.2,1.1c-0.9-0.2-1.4,0.4-1.9,1
			c0,0,0,0,0,0c0-0.3,0.1-0.6,0.1-0.9c-0.1,0-0.1,0-0.1,0c-0.5,0-1.1,0-1.6,0c-0.1,0-0.2,0.1-0.2,0.2 M42.2,26.4
			c0-0.1,0.1-0.2,0.2-0.2c0.3,0,0.3,0,0.3-0.3c0.1-0.6,0.2-1.1,0.3-1.7c0.1-0.4,0.1-0.9,0.2-1.3c0.1-0.4,0.2-0.8,0.3-1.2 M40.1,26
			c0,0.3-0.1,0.5-0.1,0.8"/>
	</g>
</g>
<g>
	<path class="st2" d="M9.3,26c0.5-3.2,1.1-6.4,1.6-9.7c1,0,2,0,3,0c0,1.9,0.1,3.9,0.1,5.8c0,0,0,0,0,0c0.1-0.2,0.2-0.5,0.2-0.7
		c0.5-1.6,1.1-3.2,1.6-4.9c0.1-0.2,0.2-0.3,0.4-0.3c0.9,0,1.8,0,2.7,0c0.1,0,0.2,0,0.3,0c-0.5,3.2-1.1,6.5-1.6,9.7
		c-0.7,0-1.4,0-2.1,0c0.4-2.3,0.7-4.6,1.1-6.9c0,0,0,0,0,0c0,0.1-0.1,0.1-0.1,0.2c-0.8,2.2-1.6,4.3-2.3,6.5
		c-0.1,0.2-0.2,0.3-0.4,0.3c-0.4,0-0.7,0-1.1,0c-0.1-2.4-0.1-4.7-0.2-7.1c0,0,0,0,0,0c-0.1,0.4-0.1,0.7-0.2,1.1
		c-0.3,1.9-0.6,3.9-1,5.8c0,0.1-0.1,0.2-0.2,0.2C10.6,26.1,10,26.1,9.3,26C9.4,26.1,9.4,26,9.3,26z"/>
	<path class="st2" d="M56.1,21c0.1-0.9,0-1.1-0.9-1.2c-0.9-0.1-1.7,0.1-2.6,0.3c0.1-0.4,0.1-0.7,0.2-1.1c0-0.1,0-0.1,0-0.2
		c0-0.5,0-0.5,0.5-0.7c1-0.3,2.1-0.4,3.1-0.2c1.3,0.3,1.9,1.3,1.7,2.6c-0.3,1.7-0.5,3.4-0.7,5.1c0,0.2-0.1,0.3-0.3,0.3
		c-0.5,0-1,0-1.5,0c0-0.3,0-0.5,0-0.7c-0.3,0.2-0.6,0.4-1,0.6c-0.7,0.3-1.4,0.3-2.1,0c-0.5-0.3-0.8-0.8-0.9-1.4
		c-0.1-0.9,0-1.7,0.5-2.4c0.5-0.7,1.2-1,2-1.2c0.5-0.1,1,0,1.5-0.1C55.8,21,56,21,56.1,21z M55.9,22.5c-0.6-0.1-1.1,0-1.7,0.2
		c-0.4,0.2-0.6,0.6-0.5,1c0,0.3,0.2,0.6,0.5,0.6c0.4,0.1,0.8,0,1.1-0.3C55.7,23.7,55.8,23.2,55.9,22.5z"/>
	<path class="st2" d="M19.6,20.2c0.1-0.6,0.2-1.1,0.3-1.7c0,0,0.1-0.1,0.1-0.1c1.1-0.4,2.2-0.6,3.4-0.3c1.4,0.3,1.9,1.5,1.7,2.6
		c-0.2,1.5-0.4,3-0.6,4.5c0,0.2-0.1,0.4-0.1,0.6c0,0.2-0.1,0.3-0.3,0.3c-0.5,0-1,0-1.5,0c0-0.2,0-0.5,0-0.7
		c-0.1,0.1-0.2,0.1-0.2,0.2c-0.7,0.6-1.5,0.8-2.4,0.6c-0.6-0.1-1-0.5-1.2-1c-0.4-1.1-0.3-2.1,0.5-3.1c0.5-0.6,1.2-0.9,1.9-1
		C21.8,21,22.4,21,23,21c0.3-0.6,0-1.1-0.7-1.1C21.4,19.8,20.5,19.9,19.6,20.2z M22.8,22.5c-0.6-0.1-1.1,0-1.6,0.2
		c-0.3,0.1-0.4,0.3-0.5,0.6c-0.3,0.7,0.2,1.3,0.9,1.1c0.3-0.1,0.6-0.2,0.8-0.5C22.6,23.5,22.8,23.1,22.8,22.5z"/>
	<path class="st2" d="M40.4,22.8c-1.4,0-2.8,0-4.1,0c-0.2,0.5,0.1,1.1,0.6,1.4c0.5,0.3,1,0.3,1.6,0.2c0.6-0.1,1.2-0.3,1.8-0.4
		c-0.1,0.4-0.2,0.8-0.2,1.3c0,0.6-0.4,0.8-0.9,0.9c-0.9,0.1-1.8,0.2-2.7-0.1c-1.3-0.4-1.9-1.3-2.1-2.5c-0.2-1.4,0-2.8,0.9-4
		c0.5-0.7,1.1-1.3,2-1.5c1.5-0.3,3.2,0.3,3.5,2.4C40.8,21.2,40.6,22,40.4,22.8z M38.8,21.1c-0.1-0.3-0.1-0.6-0.2-0.9
		c-0.1-0.3-0.3-0.4-0.6-0.5c-0.8-0.1-1.5,0.5-1.5,1.4C37.2,21.1,38,21.1,38.8,21.1z"/>
	<path class="st2" d="M51.9,18.8c-0.1-0.1-0.3-0.1-0.4-0.2c-1.1-0.6-2.4-0.6-3.3,0.5c-0.4,0.6-0.7,1.2-0.8,2c0,0.5-0.1,1,0,1.5
		c0.2,1.3,1.2,1.9,2.5,1.6c0.4-0.1,0.7-0.2,1.1-0.4c-0.1,0.6-0.2,1.1-0.3,1.6c0,0.2,0,0.5-0.2,0.6c-0.1,0.1-0.4,0.1-0.6,0.1
		c-0.7,0.2-1.5,0.2-2.2,0c-1.3-0.3-2.1-1.3-2.4-2.6c-0.4-2.1-0.2-4,1.1-5.7c0.8-1.1,2-1.7,3.4-1.7c0.7,0,1.4,0.2,2.1,0.5
		c0.1,0,0.1,0.1,0.1,0.2C52.1,17.4,52,18.1,51.9,18.8z"/>
	<path class="st2" d="M30.5,18.1c-0.1,0.6-0.2,1.2-0.2,1.7c0,0-0.2,0.1-0.2,0.1c-0.6,0-1.1,0-1.7,0c-0.4,0-0.6,0.3-0.6,0.6
		c0,0.2,0.1,0.3,0.3,0.4c0.2,0.2,0.5,0.3,0.8,0.4c1.1,0.5,1.4,1.4,1.3,2.5C30,25.4,29,26,27.8,26.1c-0.9,0.1-1.9,0-2.8-0.2
		c-0.1,0-0.2-0.1-0.2-0.2c0.1-0.5,0.2-1.1,0.3-1.6c0.4,0.1,0.7,0.2,1.1,0.2c0.5,0,0.9,0,1.4,0c0.3,0,0.5-0.2,0.5-0.5
		c0-0.3-0.1-0.5-0.4-0.6c-0.3-0.2-0.7-0.4-1-0.6c-0.9-0.5-1.2-1.2-1.2-2.2c0.1-1.1,0.6-1.9,1.7-2.2c0.6-0.2,1.3-0.2,1.9-0.2
		C29.6,18,30,18.1,30.5,18.1z"/>
	<path class="st2" d="M33.7,17c-0.1,0.4-0.1,0.8-0.2,1.2c0.3,0,0.7,0,1,0c-0.1,0.7-0.2,1.3-0.3,1.9c-0.3,0-0.6,0-0.9,0
		c-0.2,0-0.2,0-0.3,0.2c-0.2,1.1-0.3,2.2-0.5,3.3c-0.1,0.4,0.1,0.7,0.5,0.7c0.2,0,0.5,0,0.7,0c0,0.3-0.1,0.6-0.1,0.9c0,0,0,0,0,0
		c-0.1,0.3-0.1,0.6-0.2,0.7c-0.2,0.2-0.5,0.2-0.7,0.2c-0.4,0-0.8,0.1-1.2,0c-0.7-0.1-1.2-0.7-1.2-1.6c0-0.5,0.1-1,0.2-1.6
		c0.3-1.7,0.6-3.4,0.8-5.1c0-0.3,0.1-0.6,0.2-0.8c0-0.1,0.1-0.2,0.1-0.2C32.4,17,33,17,33.7,17z"/>
	<path class="st2" d="M57.8,26.1c0.1-0.5,0.2-1,0.2-1.5c0.2-1.5,0.5-3,0.7-4.6c0.1-0.6,0.2-1.1,0.2-1.7c0-0.2,0.1-0.2,0.3-0.2
		c0.5,0,1,0,1.5,0c0.2,0,0.2,0.1,0.2,0.2c0,0.2-0.1,0.4-0.1,0.7c0.3-0.3,0.5-0.5,0.8-0.8c0.3-0.2,0.7-0.3,1.1-0.2
		c-0.3,0.8-0.5,1.6-0.8,2.4c-0.5-0.1-0.8,0-1,0.6c-0.2,0.6-0.4,1.2-0.5,1.8c-0.2,1-0.3,2.1-0.5,3.1c0,0.1-0.1,0.2-0.2,0.2
		C59.1,26.1,58.5,26.1,57.8,26.1z"/>
	<path class="st2" d="M45.6,18.1c-0.2,0.8-0.5,1.6-0.7,2.3c-0.5-0.1-0.8,0-1,0.6c-0.2,0.6-0.4,1.3-0.5,2c-0.2,0.9-0.3,1.9-0.5,2.9
		c0,0.1-0.1,0.2-0.2,0.2c-0.6,0-1.3,0-2,0c0.4-2.7,0.8-5.3,1.3-7.9c0.6,0,1.3,0,1.9,0c0,0.3-0.1,0.7-0.2,1.1
		C44.2,18.5,44.7,17.9,45.6,18.1z"/>
</g>
<g>
	<path class="st2" d="M9.3,26.1c0.5-3.2,1.1-6.4,1.6-9.7c1,0,2,0,3,0c0,1.9,0.1,3.9,0.1,5.8c0,0,0,0,0,0c0.1-0.2,0.2-0.5,0.2-0.7
		c0.5-1.6,1.1-3.2,1.6-4.9c0.1-0.2,0.2-0.3,0.4-0.3c0.9,0,1.8,0,2.7,0c0.1,0,0.2,0,0.3,0c-0.5,3.2-1.1,6.5-1.6,9.7
		c-0.7,0-1.4,0-2.1,0c0.4-2.3,0.7-4.6,1.1-6.9c0,0,0,0,0,0c0,0.1-0.1,0.1-0.1,0.2c-0.8,2.2-1.6,4.3-2.3,6.5
		c-0.1,0.2-0.2,0.3-0.4,0.3c-0.4,0-0.7,0-1.1,0c-0.1-2.4-0.1-4.7-0.2-7.1c0,0,0,0,0,0c-0.1,0.4-0.1,0.7-0.2,1.1
		c-0.3,1.9-0.6,3.9-1,5.8c0,0.1-0.1,0.2-0.2,0.2C10.5,26.1,9.9,26.1,9.3,26.1C9.3,26.1,9.3,26.1,9.3,26.1z"/>
	<path class="st2" d="M67.1,19.1c0.1-0.8,0.2-1.5,0.3-2.2c0,0,0,0,0,0c0.1-0.6,0-0.5,0.6-0.5c0.5,0,1.1,0,1.6,0
		c-0.1,0.5-0.1,0.9-0.2,1.3c-0.2,1.4-0.5,2.9-0.7,4.3c-0.2,1.3-0.4,2.6-0.6,3.9c0,0.2-0.1,0.3-0.3,0.3c-0.6,0-1.2,0-1.8,0
		c0-0.3,0-0.5,0.1-0.7c-0.1,0.1-0.3,0.2-0.4,0.3c-1.3,0.9-2.9,0.5-3.6-0.8c-0.4-0.8-0.5-1.7-0.4-2.7c0.1-1.1,0.5-2.2,1.2-3.1
		c0.8-1.1,2.3-1.6,3.5-0.7C66.7,18.6,66.9,18.9,67.1,19.1z M66.6,21.6c0-0.1,0-0.4-0.1-0.6c0-0.1-0.1-0.2-0.1-0.3
		c-0.1-0.3-0.4-0.5-0.7-0.6c-0.6-0.1-1.1,0.2-1.4,0.7c-0.4,0.8-0.5,1.6-0.4,2.5c0.1,0.5,0.4,0.9,0.8,0.9c0.5,0.1,0.9-0.1,1.2-0.5
		C66.5,23.1,66.6,22.4,66.6,21.6z"/>
	<path class="st2" d="M56.1,21c0.1-0.9,0-1.1-0.9-1.2c-0.9-0.1-1.7,0.1-2.6,0.3c0.1-0.4,0.1-0.7,0.2-1.1c0-0.1,0-0.1,0-0.2
		c0-0.5,0-0.5,0.5-0.7c1-0.3,2.1-0.4,3.1-0.2c1.3,0.3,1.9,1.3,1.7,2.6c-0.3,1.7-0.5,3.4-0.7,5.1c0,0.2-0.1,0.3-0.3,0.3
		c-0.5,0-1,0-1.5,0c0-0.3,0-0.5,0-0.7c-0.3,0.2-0.6,0.4-1,0.6c-0.7,0.3-1.4,0.3-2.1,0c-0.5-0.3-0.8-0.8-0.9-1.4
		c-0.1-0.9,0-1.7,0.5-2.4c0.5-0.7,1.2-1,2-1.2c0.5-0.1,1,0,1.5-0.1C55.8,21,55.9,21,56.1,21z M55.8,22.6c-0.6-0.1-1.1,0-1.7,0.2
		c-0.4,0.2-0.6,0.6-0.5,1c0,0.3,0.2,0.6,0.5,0.6c0.4,0.1,0.8,0,1.1-0.3C55.6,23.8,55.8,23.2,55.8,22.6z"/>
	<path class="st2" d="M19.5,20.2c0.1-0.6,0.2-1.1,0.3-1.7c0,0,0.1-0.1,0.1-0.1c1.1-0.4,2.2-0.6,3.4-0.3c1.4,0.3,1.9,1.5,1.7,2.6
		c-0.2,1.5-0.4,3-0.6,4.5c0,0.2-0.1,0.4-0.1,0.6c0,0.2-0.1,0.3-0.3,0.3c-0.5,0-1,0-1.5,0c0-0.2,0-0.5,0-0.7
		c-0.1,0.1-0.2,0.1-0.2,0.2c-0.7,0.6-1.5,0.8-2.4,0.6c-0.6-0.1-1-0.5-1.2-1c-0.4-1.1-0.3-2.1,0.5-3.1c0.5-0.6,1.2-0.9,1.9-1
		C21.7,21,22.4,21,23,21c0.3-0.6,0-1.1-0.7-1.1C21.4,19.8,20.5,19.9,19.5,20.2z M22.7,22.6c-0.6-0.1-1.1,0-1.6,0.2
		c-0.3,0.1-0.4,0.3-0.5,0.6c-0.3,0.7,0.2,1.3,0.9,1.1c0.3-0.1,0.6-0.2,0.8-0.5C22.6,23.6,22.7,23.1,22.7,22.6z"/>
	<path class="st2" d="M40.4,22.8c-1.4,0-2.8,0-4.1,0c-0.2,0.5,0.1,1.1,0.6,1.4c0.5,0.3,1,0.3,1.6,0.2c0.6-0.1,1.2-0.3,1.8-0.4
		c-0.1,0.4-0.2,0.8-0.2,1.3c0,0.6-0.4,0.8-0.9,0.9c-0.9,0.1-1.8,0.2-2.7-0.1c-1.3-0.4-1.9-1.3-2.1-2.5c-0.2-1.4,0-2.8,0.9-4
		c0.5-0.7,1.1-1.3,2-1.5c1.5-0.3,3.2,0.3,3.5,2.4C40.7,21.3,40.5,22,40.4,22.8z M38.7,21.2c-0.1-0.3-0.1-0.6-0.2-0.9
		c-0.1-0.3-0.3-0.4-0.6-0.5c-0.8-0.1-1.5,0.5-1.5,1.4C37.2,21.2,37.9,21.2,38.7,21.2z"/>
	<path class="st2" d="M51.9,18.9c-0.1-0.1-0.3-0.1-0.4-0.2c-1.1-0.6-2.4-0.6-3.3,0.5c-0.4,0.6-0.7,1.2-0.8,2c0,0.5-0.1,1,0,1.5
		c0.2,1.3,1.2,1.9,2.5,1.6c0.4-0.1,0.7-0.2,1.1-0.4c-0.1,0.6-0.2,1.1-0.3,1.6c0,0.2,0,0.5-0.2,0.6c-0.1,0.1-0.4,0.1-0.6,0.1
		c-0.7,0.2-1.5,0.2-2.2,0c-1.3-0.3-2.1-1.3-2.4-2.6c-0.4-2.1-0.2-4,1.1-5.7c0.8-1.1,2-1.7,3.4-1.7c0.7,0,1.4,0.2,2.1,0.5
		c0.1,0,0.1,0.1,0.1,0.2C52.1,17.5,52,18.1,51.9,18.9z"/>
	<path class="st2" d="M30.4,18.2c-0.1,0.6-0.2,1.2-0.2,1.7c0,0-0.2,0.1-0.2,0.1c-0.6,0-1.1,0-1.7,0c-0.4,0-0.6,0.3-0.6,0.6
		c0,0.2,0.1,0.3,0.3,0.4c0.2,0.2,0.5,0.3,0.8,0.4c1.1,0.5,1.4,1.4,1.3,2.5c-0.1,1.5-1.2,2.1-2.4,2.2c-0.9,0.1-1.9,0-2.8-0.2
		c-0.1,0-0.2-0.1-0.2-0.2c0.1-0.5,0.2-1.1,0.3-1.6c0.4,0.1,0.7,0.2,1.1,0.2c0.5,0,0.9,0,1.4,0c0.3,0,0.5-0.2,0.5-0.5
		c0-0.3-0.1-0.5-0.4-0.6c-0.3-0.2-0.7-0.4-1-0.6c-0.9-0.5-1.2-1.2-1.2-2.2c0.1-1.1,0.6-1.9,1.7-2.2c0.6-0.2,1.3-0.2,1.9-0.2
		C29.5,18.1,30,18.1,30.4,18.2z"/>
	<path class="st2" d="M33.6,17c-0.1,0.4-0.1,0.8-0.2,1.2c0.3,0,0.7,0,1,0c-0.1,0.7-0.2,1.3-0.3,1.9c-0.3,0-0.6,0-0.9,0
		c-0.2,0-0.2,0-0.3,0.2c-0.2,1.1-0.3,2.2-0.5,3.3c-0.1,0.4,0.1,0.7,0.5,0.7c0.2,0,0.5,0,0.7,0c0,0.3-0.1,0.6-0.1,0.9c0,0,0,0,0,0
		c-0.1,0.3-0.1,0.6-0.2,0.7c-0.2,0.2-0.5,0.2-0.7,0.2c-0.4,0-0.8,0.1-1.2,0c-0.7-0.1-1.2-0.7-1.2-1.6c0-0.5,0.1-1,0.2-1.6
		c0.3-1.7,0.6-3.4,0.8-5.1c0-0.3,0.1-0.6,0.2-0.8c0-0.1,0.1-0.2,0.1-0.2C32.3,17,33,17,33.6,17z"/>
	<path class="st2" d="M57.7,26.2c0.1-0.5,0.2-1,0.2-1.5c0.2-1.5,0.5-3,0.7-4.6c0.1-0.6,0.2-1.1,0.2-1.7c0-0.2,0.1-0.2,0.3-0.2
		c0.5,0,1,0,1.5,0c0.2,0,0.2,0.1,0.2,0.2c0,0.2-0.1,0.4-0.1,0.7c0.3-0.3,0.5-0.5,0.8-0.8c0.3-0.2,0.7-0.3,1.1-0.2
		c-0.3,0.8-0.5,1.6-0.8,2.4c-0.5-0.1-0.8,0-1,0.6c-0.2,0.6-0.4,1.2-0.5,1.8c-0.2,1-0.3,2.1-0.5,3.1c0,0.1-0.1,0.2-0.2,0.2
		C59,26.2,58.4,26.2,57.7,26.2z"/>
	<path class="st2" d="M45.5,18.1c-0.2,0.8-0.5,1.6-0.7,2.3c-0.5-0.1-0.8,0-1,0.6c-0.2,0.6-0.4,1.3-0.5,2C43,24,42.9,25,42.7,25.9
		c0,0.1-0.1,0.2-0.2,0.2c-0.6,0-1.3,0-2,0c0.4-2.7,0.8-5.3,1.3-7.9c0.6,0,1.3,0,1.9,0c0,0.3-0.1,0.7-0.2,1.1
		C44.1,18.6,44.6,18,45.5,18.1z"/>
</g>
</svg>
