<?xml version="1.0" encoding="utf-8"?>
<!-- Generator: Adobe Illustrator 19.2.1, SVG Export Plug-In . SVG Version: 6.00 Build 0)  -->
<svg version="1.1" id="Layer_1" xmlns="http://www.w3.org/2000/svg" xmlns:xlink="http://www.w3.org/1999/xlink" x="0px" y="0px"
	 viewBox="0 0 154 45" style="enable-background:new 0 0 154 45;" xml:space="preserve">
<style type="text/css">
	.st0{fill:url(#SVGID_1_);}
	.st1{fill:url(#SVGID_2_);}
	.st2{fill:#010101;}
	.st3{fill:url(#SVGID_3_);}
</style>
<g>
	
		<linearGradient id="SVGID_1_" gradientUnits="userSpaceOnUse" x1="132.092" y1="13.051" x2="128.8681" y2="-17.7563" gradientTransform="matrix(1 0 0 -1 0 45)">
		<stop  offset="1.650000e-02" style="stop-color:#EC2227"/>
		<stop  offset="1" style="stop-color:#BE202E"/>
	</linearGradient>
	<path class="st0" d="M141,18.2c-0.7,0.5-1.6,0.8-2.5,1.2c-0.8,0.3-1.8,0.6-2.9,0.7c-0.4,0.1-0.9,0.1-1.3,0.2l0,0l0,0
		c-4.1,0.4-7.6-0.5-9.6-2.4c0,0,0,0-0.1,0c0,0.1,0,0.1,0,0.2c0,0.9,0.3,1.6,0.9,2.3c1.6,1.9,4.7,2.9,8.4,2.9c2.4,0,4.6-0.4,6.3-1.2
		c0.8-0.4,1.6-0.9,2.1-1.5c0.5-0.6,0.9-1.4,0.9-2.3c0-0.5-0.1-1-0.4-1.5C142.4,17.2,141.8,17.7,141,18.2z M133.9,15.6
		c-3.8,0.3-7.1-0.4-9.2-2.1c0,0.8,0.4,1.5,0.9,2.1c1.6,1.9,4.7,2.9,8.4,2.9c2.4,0,4.6-0.4,6.3-1.3c0.8-0.4,1.6-0.9,2.1-1.5
		c0.5-0.6,0.9-1.4,0.9-2.3c0-0.7-0.2-1.3-0.6-1.8C142.2,12.4,140,15.1,133.9,15.6z M134,13.9c2.4,0,4.6-0.4,6.3-1.3
		c0.8-0.4,1.6-0.9,2.1-1.5c0.5-0.6,0.9-1.4,0.9-2.3c0-0.9-0.3-1.6-0.9-2.3c-1.6-1.9-4.7-2.9-8.4-2.9c-2.4,0-4.6,0.4-6.3,1.2
		c-0.8,0.4-1.6,0.9-2.1,1.5c-0.5,0.6-0.9,1.4-0.9,2.3c0,0.9,0.3,1.6,0.9,2.3C127.3,12.8,130.4,13.8,134,13.9z M127,6.8
		c0.9-1.1,3.6-2.1,6.8-2.1c2.1,0,4.1,0.5,5.4,1.1c0.7,0.3,1.1,0.7,1.4,1.1c0.3,0.4,0.4,0.6,0.4,0.9c0,0.3-0.1,0.6-0.4,0.9
		c-0.9,1.1-3.6,2.1-6.8,2.1c-2.1,0-4.1-0.5-5.4-1.1c-0.6-0.3-1.1-0.7-1.4-1c-0.3-0.4-0.4-0.6-0.4-0.9C126.6,7.5,126.7,7.2,127,6.8z"
		/>
	<g>
		<g>
			
				<linearGradient id="SVGID_2_" gradientUnits="userSpaceOnUse" x1="45.6315" y1="28.4436" x2="45.6315" y2="13.4672" gradientTransform="matrix(1 0 0 -1 0 45)">
				<stop  offset="1.650000e-02" style="stop-color:#EC2227"/>
				<stop  offset="1" style="stop-color:#BE202E"/>
			</linearGradient>
			<path class="st1" d="M44,16.3c-0.9-1-2.1-1.5-3.6-1.5h-7.2l-0.5,2.7h7.2c0.8,0,1.4,0.3,1.8,0.8c0.4,0.5,0.6,1.2,0.4,1.9l-0.1,0.5
				l0,0.3h-6.6c-1.6,0-3,0.5-4.3,1.5c-1.3,1-2.1,2.3-2.4,3.9l-0.1,0.3c-0.3,1.6-0.1,2.9,0.8,3.9c0.8,1,2.1,1.5,3.6,1.5h9.4l2.5-12.1
				C45.1,18.5,44.8,17.3,44,16.3z M40.1,29.5h-6.6c-0.8,0-1.4-0.3-1.8-0.8c-0.4-0.5-0.6-1.2-0.4-1.9l0.1-0.3
				c0.1-0.8,0.5-1.4,1.2-1.9c0.7-0.5,1.4-0.8,2.1-0.8h6.6L40.1,29.5z M60.1,14.8l-3,14.6h-6.9c-0.8,0-1.4-0.3-1.8-0.8
				c-0.4-0.5-0.6-1.2-0.4-1.9l2.5-11.9h-2.8l-2.5,11.9c-0.3,1.6-0.1,2.9,0.8,3.9c0.9,1,2.1,1.5,3.6,1.5h6.9l-0.2,1
				c-0.2,0.7-0.6,1.4-1.2,1.9c-0.7,0.5-1.4,0.8-2.1,0.8h-9.4l-0.6,2.7h9.4c1.5,0,2.9-0.5,4.2-1.6c1.3-1,2.1-2.3,2.4-3.9l3.8-18.3
				L60.1,14.8L60.1,14.8z"/>
		</g>
	</g>
	<path class="st2" d="M89,32.2h-9.4c-1.6,0-2.8-0.5-3.6-1.5c-0.8-1-1.1-2.3-0.8-3.9l0.1-0.3c0.3-1.6,1.1-2.9,2.4-3.9
		c1.3-1,2.7-1.5,4.3-1.5h6.6l0-0.3l0.1-0.5c0.1-0.8,0-1.4-0.4-1.9c-0.4-0.5-1-0.8-1.8-0.8h-7.7l0.5-2.7h7.7c1.6,0,2.8,0.5,3.6,1.5
		c0.9,1,1.1,2.3,0.8,3.8L89,32.2z M86.8,29.5l1.1-5.7h-6.6c-0.8,0-1.5,0.3-2.1,0.8c-0.7,0.5-1.1,1.2-1.2,1.9L78,26.7
		c-0.2,0.8,0,1.4,0.4,1.9c0.4,0.5,1,0.8,1.8,0.8H86.8z"/>
	<path class="st2" d="M107,27.5c-0.3,1.5-1.1,2.7-2.4,3.5c-1.2,0.8-2.5,1.2-4.1,1.2h-9.3l0.6-2.7h9.3c1.8,0,2.9-0.7,3.1-2l0.1-0.6
		c0.3-1.3-0.5-2-2.3-2h-4.2c-1.5,0-2.7-0.4-3.6-1.2c-1-0.9-1.3-2-1-3.5l0.1-0.6c0.3-1.5,1.1-2.7,2.4-3.5c1.2-0.8,2.5-1.2,4.1-1.2
		h9.3l-0.5,2.7h-9.3c-1.8,0-2.9,0.7-3.2,2l-0.1,0.6c-0.3,1.3,0.5,2,2.4,2h4.2c1.5,0,2.7,0.4,3.6,1.2c0.9,0.9,1.2,2,0.9,3.5L107,27.5
		z"/>
	<path class="st2" d="M119.6,32.1h-4.4c-1.6,0-2.8-0.5-3.6-1.5c-0.9-1-1.1-2.3-0.8-3.9l1.9-9.3H111l0.6-2.8h1.7l1.3-6.2h2.8
		l-1.3,6.2h5.8l-0.6,2.8h-5.8l-1.9,9.3c-0.2,0.8,0,1.4,0.4,1.9c0.4,0.5,1,0.8,1.8,0.8h4.4L119.6,32.1z"/>
	
		<linearGradient id="SVGID_3_" gradientUnits="userSpaceOnUse" x1="21.4238" y1="31.1123" x2="21.4238" y2="11.4665" gradientTransform="matrix(1 0 0 -1 0 45)">
		<stop  offset="1.650000e-02" style="stop-color:#EC2227"/>
		<stop  offset="1" style="stop-color:#BE202E"/>
	</linearGradient>
	<path class="st3" d="M31.5,16.4c-0.3,1.5-1.1,2.8-2.4,3.8c-1.3,1-2.7,1.5-4.2,1.5h-9.4l-2.1,10.4h-2.7l4.9-23.5h12.1
		c1.5,0,2.7,0.5,3.5,1.5c0.8,1,1.1,2.3,0.8,3.8L31.5,16.4z M28.8,16.4l0.5-2.4c0.2-0.8,0-1.4-0.4-1.9c-0.4-0.5-1-0.8-1.8-0.8h-9.4
		l-1.6,7.7h9.4c0.8,0,1.4-0.3,2.1-0.8C28.2,17.8,28.6,17.1,28.8,16.4z"/>
	<path class="st2" d="M84.2,11.1H72.8c-0.8,0-1.5,0.3-2.1,0.8c-0.7,0.5-1.1,1.2-1.2,1.9L68.4,19h7.1l-0.6,2.8h-7.1l-2.2,10.4h-2.8
		l3.8-18.4c0.3-1.6,1.1-2.9,2.4-3.9c1.3-1,2.7-1.5,4.3-1.5h11.4L84.2,11.1z"/>
</g>
</svg>
