<?xml version="1.0" encoding="utf-8"?>
<!-- Generator: Adobe Illustrator 19.2.1, SVG Export Plug-In . SVG Version: 6.00 Build 0)  -->
<svg version="1.1" id="Layer_1" xmlns="http://www.w3.org/2000/svg" xmlns:xlink="http://www.w3.org/1999/xlink" x="0px" y="0px"
	 viewBox="0 0 276 63" style="enable-background:new 0 0 276 63;" xml:space="preserve">
<style type="text/css">
	.st0{fill:#39A027;}
</style>
<g>
	<path class="st0" d="M64.6,31.4c0,3.8-2.3,6.2-5.7,6.2c-3.5,0-5.5-2.6-5.5-6c0-3.5,2.2-6.1,5.7-6.1C62.6,25.5,64.6,28.2,64.6,31.4z
		 M56.1,31.6c0,2.3,1.1,3.9,2.8,3.9c1.8,0,2.8-1.7,2.8-4c0-2.1-1-3.9-2.8-3.9C57.1,27.6,56.1,29.3,56.1,31.6z"/>
	<path class="st0" d="M66.3,37.4V25.7h3.1l2.4,4.3c0.7,1.2,1.4,2.7,1.9,4h0.1c-0.2-1.5-0.2-3.1-0.2-4.9v-3.4H76v11.7h-2.8l-2.5-4.5
		c-0.7-1.3-1.5-2.8-2-4.1h-0.1c0.1,1.5,0.1,3.2,0.1,5.1v3.5H66.3z"/>
	<path class="st0" d="M78.3,25.7H81v9.5h4.7v2.2h-7.3L78.3,25.7L78.3,25.7z"/>
	<path class="st0" d="M89.8,25.7v11.7h-2.7V25.7H89.8z"/>
	<path class="st0" d="M92.1,37.4V25.7h3.1l2.4,4.3c0.7,1.2,1.4,2.7,1.9,4h0.1c-0.2-1.5-0.2-3.1-0.2-4.9v-3.4h2.4v11.7H99l-2.5-4.5
		c-0.7-1.3-1.5-2.8-2-4.1h-0.1c0.1,1.5,0.1,3.2,0.1,5.1v3.5H92.1z"/>
	<path class="st0" d="M111,32.5h-4.3v2.8h4.8v2.2H104V25.7h7.2v2.2h-4.6v2.4h4.3L111,32.5L111,32.5z"/>
	<path class="st0" d="M116.9,34.7c0.7,0.4,1.8,0.7,2.9,0.7c1.2,0,1.9-0.5,1.9-1.3c0-0.7-0.6-1.1-2-1.6c-1.9-0.7-3.2-1.8-3.2-3.5
		c0-2,1.7-3.5,4.4-3.5c1.3,0,2.3,0.3,3,0.6l-0.6,2.1c-0.5-0.2-1.3-0.6-2.4-0.6s-1.7,0.5-1.7,1.1c0,0.7,0.7,1.1,2.2,1.6
		c2.1,0.8,3,1.8,3,3.5c0,2-1.5,3.6-4.7,3.6c-1.3,0-2.7-0.3-3.3-0.7L116.9,34.7z"/>
	<path class="st0" d="M133.2,32.5h-4.3v2.8h4.8v2.2h-7.5V25.7h7.2v2.2h-4.6v2.4h4.3v2.2H133.2z"/>
	<path class="st0" d="M144.1,37.1c-0.5,0.2-1.6,0.5-3,0.5c-4,0-6.1-2.5-6.1-5.9c0-4,2.8-6.2,6.4-6.2c1.4,0,2.4,0.3,2.9,0.5l-0.5,2.1
		c-0.5-0.2-1.3-0.4-2.2-0.4c-2.1,0-3.7,1.3-3.7,3.9c0,2.3,1.4,3.8,3.8,3.8c0.8,0,1.7-0.2,2.2-0.4L144.1,37.1z"/>
	<path class="st0" d="M148.5,25.7v6.7c0,2,0.8,3,2.1,3c1.4,0,2.2-1,2.2-3v-6.7h2.6v6.6c0,3.6-1.8,5.3-4.9,5.3c-3,0-4.7-1.6-4.7-5.4
		v-6.5C145.8,25.7,148.5,25.7,148.5,25.7z"/>
	<path class="st0" d="M157.7,25.9c0.9-0.1,2.1-0.2,3.5-0.2c1.7,0,3,0.3,3.8,0.9c0.7,0.6,1.1,1.4,1.1,2.4c0,1.5-1.1,2.5-2.1,2.9v0
		c0.8,0.3,1.3,1.1,1.6,2.2c0.4,1.3,0.7,2.8,1,3.3h-2.7c-0.2-0.3-0.5-1.3-0.8-2.7c-0.3-1.5-0.8-1.9-1.9-1.9h-0.8v4.6h-2.6V25.9H157.7
		z M160.3,30.9h1c1.3,0,2.1-0.7,2.1-1.7c0-1.1-0.7-1.6-1.9-1.6c-0.6,0-1,0.1-1.2,0.1L160.3,30.9L160.3,30.9z"/>
	<path class="st0" d="M174.9,32.5h-4.3v2.8h4.8v2.2h-7.5V25.7h7.2v2.2h-4.6v2.4h4.3v2.2H174.9z"/>
	<path class="st0" d="M180.7,25.9c0.8-0.1,2-0.2,3.6-0.2s2.8,0.3,3.6,0.9c0.7,0.6,1.3,1.6,1.3,2.7s-0.4,2.1-1.1,2.8
		c-0.9,0.9-2.2,1.2-3.8,1.2c-0.3,0-0.7,0-0.9-0.1v4.2h-2.6V25.9H180.7z M183.4,31.2c0.2,0.1,0.5,0.1,0.9,0.1c1.4,0,2.3-0.7,2.3-1.9
		c0-1.1-0.7-1.7-2.1-1.7c-0.5,0-0.9,0.1-1.1,0.1L183.4,31.2L183.4,31.2z"/>
	<path class="st0" d="M192.5,34.4l-0.8,3H189l3.6-11.7h3.5l3.6,11.7h-2.8l-0.9-3H192.5z M195.5,32.4l-0.7-2.5
		c-0.2-0.7-0.4-1.6-0.6-2.3l0,0c-0.2,0.7-0.3,1.6-0.5,2.3l-0.7,2.5H195.5z"/>
	<path class="st0" d="M202.2,37.4v-4.8l-3.7-6.9h3l1.2,2.8c0.4,0.9,0.6,1.5,0.9,2.2l0,0c0.3-0.7,0.5-1.4,0.9-2.2l1.2-2.8h3l-3.9,6.8
		v4.9C204.8,37.4,202.2,37.4,202.2,37.4z"/>
	<path class="st0" d="M219.5,32.9c-0.1-1.4-0.1-3.1-0.1-4.8h-0.1c-0.4,1.5-0.9,3.2-1.3,4.5l-1.4,4.6h-2.1l-1.2-4.5
		c-0.4-1.4-0.8-3-1.1-4.6l0,0c-0.1,1.6-0.1,3.4-0.2,4.8l-0.2,4.4h-2.4l0.7-11.7h3.5l1.1,3.9c0.4,1.4,0.7,2.8,1,4.2h0.1
		c0.3-1.4,0.7-2.9,1.1-4.2l1.3-3.9h3.5l0.6,11.7h-2.6L219.5,32.9z"/>
	<path class="st0" d="M231.3,32.5H227v2.8h4.8v2.2h-7.5V25.7h7.2v2.2h-4.6v2.4h4.3v2.2H231.3z"/>
	<path class="st0" d="M233.6,37.4V25.7h3.1l2.4,4.3c0.7,1.2,1.4,2.7,1.9,4h0.1c-0.2-1.5-0.2-3.1-0.2-4.9v-3.4h2.4v11.7h-2.8
		l-2.5-4.5c-0.7-1.3-1.5-2.8-2-4.1h-0.1c0.1,1.5,0.1,3.2,0.1,5.1v3.5H233.6z"/>
	<path class="st0" d="M247.8,27.9h-3.1v-2.2h9v2.2h-3.2v9.5h-2.7L247.8,27.9L247.8,27.9z"/>
	<path class="st0" d="M255,34.7c0.7,0.4,1.8,0.7,2.9,0.7c1.2,0,1.9-0.5,1.9-1.3c0-0.7-0.6-1.1-2-1.6c-1.9-0.7-3.2-1.8-3.2-3.5
		c0-2,1.7-3.5,4.4-3.5c1.3,0,2.3,0.3,3,0.6l-0.6,2.1c-0.5-0.2-1.3-0.6-2.4-0.6s-1.7,0.5-1.7,1.1c0,0.7,0.7,1.1,2.2,1.6
		c2.1,0.8,3,1.8,3,3.5c0,2-1.5,3.6-4.7,3.6c-1.3,0-2.7-0.3-3.3-0.7L255,34.7z"/>
</g>
<g id="KozyW7.tif">
</g>
<g>
	<g>
		<path class="st0" d="M15.1,45.4c0-6,0-12,0-18.1c0.7-1.8,2.2-1.6,3.7-1.6c0-1.3,0-2.6,0-3.8c0-4,2.6-7.4,6.4-8.5
			c0.5-0.2,1-0.3,1.5-0.4c0.7,0,1.4,0,2.1,0c0.3,0.1,0.6,0.1,0.8,0.2c4.2,1,7.1,4.5,7.1,8.9c0,1.2,0,2.4,0,3.7
			c1.5-0.1,3-0.2,3.7,1.6c0,6,0,12,0,18.1c-0.3,0.7-0.8,1.3-1.6,1.6c-7.4,0-14.9,0-22.3,0C15.9,46.6,15.4,46.1,15.1,45.4z
			 M23.2,25.7c3.1,0,6.3,0,9.4,0c0-1.3,0-2.6,0-3.8c-0.1-2.4-1.9-4.4-4.3-4.6c-2.4-0.2-4.7,1.4-5.1,3.8C23,22.5,23.2,24.1,23.2,25.7
			z M26.8,40.1c0,0.4,0,0.8,0,1.1c0,0.6,0.5,1,1,1c0.6,0,1-0.4,1.1-1c0-0.4,0-0.8,0-1.1c0-0.8,0-1.4,0.6-2.1
			c0.7-0.7,0.5-1.9-0.3-2.7s-2-0.7-2.8,0c-0.8,0.8-1.1,1.9-0.3,2.7C26.8,38.6,26.9,39.3,26.8,40.1z"/>
	</g>
</g>
</svg>
