<?xml version="1.0" encoding="utf-8"?>
<!-- Generator: Adobe Illustrator 19.2.1, SVG Export Plug-In . SVG Version: 6.00 Build 0)  -->
<svg version="1.1" id="Layer_1" xmlns="http://www.w3.org/2000/svg" xmlns:xlink="http://www.w3.org/1999/xlink" x="0px" y="0px"
	 viewBox="0 0 72 45" style="enable-background:new 0 0 72 45;" xml:space="preserve">
<style type="text/css">
	.st0{fill-rule:evenodd;clip-rule:evenodd;fill:#F29B17;}
	.st1{fill-rule:evenodd;clip-rule:evenodd;fill:#084284;}
</style>
<g>
	<path class="st0" d="M5.2,43.2c14.6-6.3,35.1-11.9,62.2-6.3l0.3-6.9c-28.6-3.1-49.2,6-62.5,12.5V43.2L5.2,43.2z"/>
	<polygon class="st1" points="20.5,25.1 26.8,4.2 32.4,4.2 26.1,25.1 20.5,25.1 	"/>
	<path class="st1" d="M17.9,4.2L12.9,13c-1.3,2.3-2,3.5-2.4,5h-0.1c0.1-1.9-0.2-4.1-0.2-5.4L9.6,4.2H0.1L0,4.7
		c2.4,0,3.9,1.2,4.3,3.7l1.9,16.6H12L23.8,4.2H17.9L17.9,4.2z"/>
	<path class="st1" d="M61.9,25.1l-0.2-3.1l-7.1,0l-1.4,3.1h-6.1L58.2,4.2h7.5l1.9,20.8H61.9L61.9,25.1z M61.2,12.7
		c-0.1-1.5-0.1-3.6,0-4.9h-0.1c-0.3,1-1.8,4.1-2.5,5.7l-2.1,4.6h5L61.2,12.7L61.2,12.7z"/>
	<path class="st1" d="M38.4,25.6c-4,0-6.6-1.3-8.5-2.4l2.7-4.1c1.7,0.9,3,2,6.1,2c1,0,1.9-0.3,2.5-1.2c0.8-1.4-0.2-2.1-2.4-3.3
		L37.6,16c-3.3-2.2-4.7-4.4-3.1-8.1c1-2.4,3.6-4.2,7.9-4.2c3,0,5.7,1.3,7.3,2.5l-3.1,3.6C45,8.6,43.7,8,42.2,8C41,8,40.1,8.4,39.8,9
		c-0.6,1.2,0.2,2,1.9,3l1.3,0.8c4,2.5,4.9,5.1,3.9,7.6C45.2,24.7,41.9,25.6,38.4,25.6L38.4,25.6z"/>
</g>
</svg>
