<?xml version="1.0" encoding="utf-8"?>
<!-- Generator: Adobe Illustrator 19.1.0, SVG Export Plug-In . SVG Version: 6.00 Build 0)  -->
<svg version="1.1" id="Layer_1" xmlns="http://www.w3.org/2000/svg" xmlns:xlink="http://www.w3.org/1999/xlink" x="0px" y="0px"
	 viewBox="-176 189 42 42" style="enable-background:new -176 189 42 42;" xml:space="preserve">
<style type="text/css">
	.st0{fill:#FFFFFF;}
	.st1{fill:#FBAA19;}
</style>
<rect x="-163.8" y="192.9" class="st0" width="17" height="33.8"/>
<path class="st1" d="M-155,189c-11.6,0-21,9.4-21,21s9.4,21,21,21s21-9.4,21-21S-143.4,189-155,189z M-152.5,205.3h4.6v4.7h-4.6
	c0,0.4-0.1,14.6-0.1,14.6c-1.4,0-5.5,0-5.5,0c0-2.3,0-7.2,0-7.2c0-2.2,0-7.3,0-7.3c-0.6,0-3.1,0-3.1,0v-4.7c0,0,3.1,0,3.1-0.1
	c0-1.6,0-4,0.1-5.7c0-0.3,0.2-0.6,0.3-0.9c0.2-0.3,0.3-0.7,0.5-1c0.6-0.7,1.3-1.2,2.1-1.6c1-0.5,2-0.4,3-0.5c1.2,0,2.4,0,3.6,0
	c0.5,0,0.5,0.1,0.5,0.6c0,1.3-0.1,4.7-0.1,4.7c-0.9,0-2.6,0-3.6,0.1c-0.6,0-1,0.4-1,1C-152.5,202.8-152.5,205.3-152.5,205.3z"/>
</svg>
