<?xml version="1.0" encoding="utf-8"?>
<!-- Generator: Adobe Illustrator 19.1.0, SVG Export Plug-In . SVG Version: 6.00 Build 0)  -->
<svg version="1.1" id="Layer_1" xmlns="http://www.w3.org/2000/svg" xmlns:xlink="http://www.w3.org/1999/xlink" x="0px" y="0px"
	 viewBox="-219 389.9 83.5 35.9" style="enable-background:new -219 389.9 83.5 35.9;" xml:space="preserve">
<style type="text/css">
	.st0{fill:#FFFFFF;}
	.st1{fill:#FAA819;}
</style>
<g>
	<g>
		<path class="st0" d="M-192,403.9c0-7.2-5.8-13-13-13s-13,5.8-13,13c0,7.2,5.8,13,13,13c0.1,0,0.2,0,0.3,0l-1.7,7l9.9-10.2l0,0
			C-193.8,410.8-192,407.8-192,403.9z M-205,412.1c-4.4,0-8.1-3.6-8.1-8.1c0-4.4,3.6-8.1,8.1-8.1c4.4,0,8.1,3.6,8.1,8.1
			C-196.9,408.4-200.5,412.1-205,412.1z"/>
		<circle class="st1" cx="-205" cy="404" r="6.3"/>
	</g>
	<g>
		<path class="st0" d="M-167,397.1c0.5,0,1,0.2,1.3,0.6c0.4,0.4,0.6,0.8,0.6,1.3c0,0.6-0.2,1-0.6,1.3c-0.3,0.3-0.8,0.5-1.4,0.5
			s-1-0.2-1.4-0.5c-0.3-0.3-0.6-0.8-0.6-1.3c0-0.5,0.2-0.9,0.6-1.3C-168,397.3-167.5,397.1-167,397.1z"/>
		<path class="st0" d="M-169.1,402.3v10.8c0,1.1,0.8,1.9,1.9,1.9h0.2c1.1,0,1.9-0.8,1.9-1.9v-10.8H-169.1z"/>
		<path class="st0" d="M-162.1,397c0.5,0,1,0.2,1.3,0.6c0.4,0.4,0.6,0.8,0.6,1.3c0,0.6-0.2,1-0.6,1.3c-0.3,0.3-0.8,0.5-1.4,0.5
			s-1-0.2-1.4-0.5c-0.3-0.3-0.6-0.8-0.6-1.3c0-0.5,0.2-0.9,0.6-1.3C-163,397.2-162.6,397-162.1,397z"/>
		<path class="st0" d="M-164.1,402.2V413c0,1.1,0.8,1.9,1.9,1.9h0.2c1.1,0,1.9-0.8,1.9-1.9v-10.8H-164.1z"/>
		<path class="st0" d="M-170.3,402.9c0-1.8-0.4-3.1-1.2-4c-0.8-0.9-1.9-1.4-3.4-1.4c-0.9,0-1.7,0.2-2.4,0.6
			c-0.7,0.4-1.2,0.9-1.8,1.8c-0.9-1.6-2.2-2.3-3.9-2.3c-1.4,0-2.6,0.4-3.5,1.4c-0.9,0.9-1.3,2.2-1.3,3.7v9.9c0,1.4,1.1,2.5,2.5,2.5
			c1.4,0,2.5-1.1,2.5-2.5c0-0.1,0-0.1,0-0.1v-8.6c0-0.9,0.2-1.3,0.7-1.3c0.3,0,0.4,0.1,0.5,0.3c0.1,0.2,0.1,0.6,0.1,1.1v8.5
			c0,0.1,0,0.1,0,0.2c0,1.4,1.1,2.5,2.5,2.5c1.4,0,2.5-1.1,2.5-2.5l0,0v-8.8c0-0.8,0.2-1.2,0.7-1.2c0.3,0,0.4,0.1,0.5,0.3
			c0.1,0.2,0.1,0.6,0.1,1.1v8.7c0,0.1,0,0.1,0,0.1c0,1.4,1.1,2.5,2.5,2.5c1.4,0,2.5-1.1,2.5-2.5v-0.1l0,0
			C-170.3,412.5-170.3,402.9-170.3,402.9z"/>
		<path class="st0" d="M-150.8,399.9c0-0.3,0.1-0.6,0.2-0.9c0.2-0.3,0.3-0.6,0.6-0.8c0.2-0.2,0.5-0.4,0.8-0.6
			c0.3-0.1,0.6-0.2,0.9-0.2h2.3c1.5,0,2.8,0.3,3.9,0.8c1.1,0.5,2.1,1.2,2.8,2c0.7,0.8,1.3,1.8,1.7,2.8c0.4,1.1,0.6,2.1,0.6,3.2
			s-0.2,2.2-0.6,3.2c-0.3,1-0.9,1.9-1.6,2.7c-0.7,0.8-1.6,1.4-2.7,1.9c-1.1,0.5-2.3,0.7-3.8,0.7h-2.7c-0.8,0-1.3-0.2-1.8-0.7
			c-0.4-0.4-0.7-1-0.7-1.8v-12.5H-150.8z M-145.5,410c0.7,0,1.2-0.1,1.7-0.3c0.5-0.2,0.9-0.6,1.2-0.9c0.3-0.4,0.6-0.8,0.7-1.3
			c0.2-0.5,0.2-0.9,0.2-1.4c0-0.4-0.1-0.9-0.2-1.4c-0.2-0.4-0.4-0.8-0.7-1.2c-0.3-0.3-0.7-0.6-1.2-0.8s-1.1-0.3-1.7-0.3h-0.4v7.7
			L-145.5,410L-145.5,410z"/>
		<g>
			<path class="st0" d="M-152.7,404.6v3.2h-5.5v-3.2H-152.7z"/>
		</g>
	</g>
</g>
</svg>
