<?xml version="1.0" encoding="utf-8"?>
<!-- Generator: Adobe Illustrator 19.1.0, SVG Export Plug-In . SVG Version: 6.00 Build 0)  -->
<svg version="1.1" id="Layer_1" xmlns="http://www.w3.org/2000/svg" xmlns:xlink="http://www.w3.org/1999/xlink" x="0px" y="0px"
	 viewBox="-112 179 138.5 62" style="enable-background:new -112 179 138.5 62;" xml:space="preserve">
<style type="text/css">
	.st0{fill:#0086CD;}
	.st1{fill:#FAA819;}
	.st2{fill:#808184;}
</style>
<g>
	<g>
		<path class="st0" d="M-67,204.9c0-11.9-9.6-21.5-21.5-21.5c-11.9,0-21.5,9.6-21.5,21.5s9.6,21.5,21.5,21.5c0.2,0,0.4,0,0.6,0
			l-2.8,11.6l16.5-17l0,0C-69.9,216.4-67,211.3-67,204.9z M-88.5,218.5c-7.4,0-13.5-6-13.5-13.5s6-13.5,13.5-13.5
			c7.4,0,13.5,6,13.5,13.5S-81.1,218.5-88.5,218.5z"/>
		<circle class="st1" cx="-88.5" cy="205.2" r="10.5"/>
	</g>
	<g>
		<path class="st2" d="M-25.5,193.6c0.9,0,1.6,0.3,2.2,0.9c0.6,0.6,0.9,1.3,0.9,2.2c0,0.9-0.3,1.6-0.9,2.2c-0.6,0.6-1.4,0.9-2.3,0.9
			c-0.9,0-1.7-0.3-2.3-0.9c-0.6-0.6-0.9-1.3-0.9-2.2c0-0.8,0.3-1.6,0.9-2.2C-27.1,193.9-26.3,193.6-25.5,193.6z"/>
		<path class="st2" d="M-28.9,202.2v17.9c0,1.7,1.4,3.1,3.1,3.1h0.3c1.7,0,3.1-1.4,3.1-3.1v-17.9H-28.9z"/>
		<path class="st2" d="M-17.2,193.5c0.9,0,1.6,0.3,2.2,0.9c0.6,0.6,0.9,1.3,0.9,2.2c0,0.9-0.3,1.6-0.9,2.2c-0.6,0.6-1.4,0.9-2.3,0.9
			c-0.9,0-1.7-0.3-2.3-0.9c-0.6-0.6-0.9-1.3-0.9-2.2c0-0.8,0.3-1.6,0.9-2.2C-18.8,193.8-18.1,193.5-17.2,193.5z"/>
		<path class="st2" d="M-20.6,202.1v17.9c0,1.7,1.4,3.1,3.1,3.1h0.3c1.7,0,3.1-1.4,3.1-3.1v-17.9H-20.6z"/>
		<path class="st2" d="M-31,203.3c0-2.9-0.7-5.2-2-6.8c-1.3-1.6-3.2-2.3-5.7-2.3c-1.6,0-2.9,0.3-3.9,0.9c-1.1,0.6-2.1,1.6-3,3
			c-1.5-2.6-3.7-3.9-6.5-3.9c-2.4,0-4.3,0.8-5.8,2.3c-1.5,1.6-2.2,3.6-2.2,6.1V219c0,2.3,1.8,4.1,4.1,4.1c2.3,0,4.1-1.8,4.1-4.1
			c0-0.1,0-0.1,0-0.2v-14.3c0-1.5,0.4-2.2,1.2-2.2c0.4,0,0.7,0.1,0.9,0.4c0.1,0.3,0.2,0.9,0.2,1.8v14.2c0,0.1,0,0.2,0,0.3
			c0,2.3,1.8,4.1,4.1,4.1c2.3,0,4.1-1.8,4.1-4.1h0v-14.6c0-1.4,0.4-2.1,1.2-2.1c0.4,0,0.7,0.1,0.9,0.4c0.1,0.3,0.2,0.9,0.2,1.8V219
			c0,0.1,0,0.1,0,0.2c0,2.3,1.8,4.1,4.1,4.1c2.3,0,4.1-1.8,4.1-4.1c0,0,0-0.1,0-0.1h0V203.3z"/>
		<path class="st2" d="M1.6,198.2c0-0.5,0.1-1,0.4-1.5c0.2-0.5,0.6-0.9,1-1.3c0.4-0.4,0.9-0.7,1.3-0.9c0.5-0.2,1-0.3,1.5-0.3h3.9
			c2.5,0,4.7,0.4,6.6,1.3c1.9,0.8,3.4,1.9,4.7,3.3c1.2,1.4,2.2,2.9,2.8,4.7c0.6,1.7,0.9,3.5,0.9,5.4c0,1.8-0.3,3.6-0.9,5.3
			c-0.6,1.7-1.5,3.2-2.7,4.5c-1.2,1.3-2.7,2.4-4.5,3.2c-1.8,0.8-3.9,1.2-6.2,1.2H5.7c-1.3,0-2.3-0.4-3-1.1c-0.8-0.7-1.1-1.7-1.1-2.9
			V198.2z M10.2,215.1c1.1,0,2-0.2,2.8-0.6c0.8-0.4,1.5-0.9,2-1.5c0.5-0.6,1-1.3,1.2-2.1c0.3-0.8,0.4-1.6,0.4-2.4
			c0-0.8-0.1-1.5-0.4-2.3c-0.3-0.7-0.7-1.4-1.2-2c-0.5-0.6-1.2-1-2-1.4c-0.8-0.4-1.8-0.5-2.9-0.5H9.5v12.7H10.2z"/>
		<g>
			<path class="st2" d="M-1.7,206.1v5.4h-9.3v-5.4H-1.7z"/>
		</g>
	</g>
</g>
</svg>
