<?xml version="1.0" encoding="utf-8"?>
<!-- Generator: Adobe Illustrator 19.1.0, SVG Export Plug-In . SVG Version: 6.00 Build 0)  -->
<svg version="1.1" id="Layer_1" xmlns="http://www.w3.org/2000/svg" xmlns:xlink="http://www.w3.org/1999/xlink" x="0px" y="0px"
	 viewBox="-119 179 157 62" style="enable-background:new -119 179 157 62;" xml:space="preserve">
<style type="text/css">
	.st0{fill:#FFFFFF;}
	.st1{fill:#FAA819;}
</style>
<g>
	<g>
		<path class="st0" d="M-66.3,202.4c0-12.9-10.5-23.4-23.4-23.4c-12.9,0-23.4,10.5-23.4,23.4s10.5,23.4,23.4,23.4c0.2,0,0.4,0,0.6,0
			l-3.1,12.6l17.9-18.4l0,0C-69.4,214.8-66.3,209.4-66.3,202.4z M-89.6,217.2c-8,0-14.6-6.5-14.6-14.6c0-8,6.5-14.6,14.6-14.6
			c8,0,14.6,6.5,14.6,14.6C-75,210.6-81.5,217.2-89.6,217.2z"/>
		<circle class="st1" cx="-89.6" cy="202.7" r="11.4"/>
	</g>
	<g>
		<path class="st0" d="M-21.2,190.2c0.9,0,1.8,0.3,2.4,1c0.7,0.7,1,1.4,1,2.3c0,1-0.3,1.8-1,2.4c-0.6,0.6-1.5,0.9-2.5,0.9
			c-1,0-1.8-0.3-2.5-0.9c-0.6-0.6-1-1.4-1-2.4c0-0.9,0.3-1.7,1-2.3C-23,190.5-22.1,190.2-21.2,190.2z"/>
		<path class="st0" d="M-24.9,199.5v19.5c0,1.9,1.5,3.4,3.4,3.4h0.3c1.9,0,3.4-1.5,3.4-3.4v-19.5H-24.9z"/>
		<path class="st0" d="M-12.3,190.1c0.9,0,1.8,0.3,2.4,1c0.7,0.7,1,1.4,1,2.3c0,1-0.3,1.8-1,2.4c-0.6,0.6-1.5,0.9-2.5,0.9
			c-1,0-1.8-0.3-2.5-0.9c-0.6-0.6-1-1.4-1-2.4c0-0.9,0.3-1.7,1-2.3C-14,190.4-13.2,190.1-12.3,190.1z"/>
		<path class="st0" d="M-15.9,199.4v19.5c0,1.9,1.5,3.4,3.4,3.4h0.3c1.9,0,3.4-1.5,3.4-3.4v-19.5H-15.9z"/>
		<path class="st0" d="M-27.2,200.7c0-3.2-0.7-5.6-2.2-7.3c-1.4-1.7-3.5-2.5-6.2-2.5c-1.7,0-3.1,0.3-4.3,1c-1.2,0.7-2.2,1.7-3.3,3.3
			c-1.7-2.8-4-4.2-7.1-4.2c-2.6,0-4.7,0.8-6.3,2.5c-1.6,1.7-2.4,3.9-2.4,6.6v17.8c0,2.5,2,4.5,4.5,4.5c2.5,0,4.5-2,4.5-4.5
			c0-0.1,0-0.1,0-0.2v-15.5c0-1.6,0.4-2.4,1.3-2.4c0.5,0,0.8,0.2,0.9,0.5c0.2,0.3,0.2,1,0.2,1.9v15.4c0,0.1,0,0.2,0,0.3
			c0,2.5,2,4.5,4.5,4.5c2.5,0,4.5-2,4.5-4.5h0v-15.8c0-1.5,0.4-2.2,1.3-2.2c0.5,0,0.8,0.2,0.9,0.5c0.2,0.3,0.2,1,0.2,1.9v15.6
			c0,0.1,0,0.1,0,0.2c0,2.5,2,4.5,4.5,4.5c2.5,0,4.5-2,4.5-4.5c0,0,0-0.1,0-0.1h0V200.7z"/>
		<path class="st0" d="M8.1,195.2c0-0.6,0.1-1.1,0.4-1.6c0.3-0.5,0.6-1,1-1.4c0.4-0.4,0.9-0.7,1.5-1c0.5-0.2,1.1-0.4,1.6-0.4h4.2
			c2.7,0,5.1,0.5,7.1,1.4c2,0.9,3.7,2.1,5,3.6c1.3,1.5,2.4,3.2,3,5.1c0.7,1.9,1,3.8,1,5.8c0,2-0.3,3.9-1,5.7
			c-0.6,1.8-1.6,3.5-2.9,4.9c-1.3,1.4-2.9,2.6-4.9,3.5c-1.9,0.9-4.2,1.3-6.8,1.3h-4.9c-1.4,0-2.4-0.4-3.3-1.2
			c-0.8-0.8-1.2-1.8-1.2-3.2V195.2z M17.5,213.4c1.2,0,2.2-0.2,3-0.6c0.9-0.4,1.6-1,2.2-1.6c0.6-0.7,1-1.4,1.3-2.3
			c0.3-0.9,0.4-1.7,0.4-2.6c0-0.8-0.1-1.7-0.4-2.5c-0.3-0.8-0.7-1.5-1.3-2.1c-0.6-0.6-1.3-1.1-2.2-1.5c-0.9-0.4-1.9-0.6-3.1-0.6
			h-0.7v13.8H17.5z"/>
		<g>
			<path class="st0" d="M4.6,203.7v5.8h-10v-5.8H4.6z"/>
		</g>
	</g>
</g>
</svg>
