<?xml version="1.0" encoding="utf-8"?>
<!-- Generator: Adobe Illustrator 19.1.0, SVG Export Plug-In . SVG Version: 6.00 Build 0)  -->
<svg version="1.1" id="Layer_1" xmlns="http://www.w3.org/2000/svg" xmlns:xlink="http://www.w3.org/1999/xlink" x="0px" y="0px"
	 viewBox="-176 189 42 42" style="enable-background:new -176 189 42 42;" xml:space="preserve">
<style type="text/css">
	.st0{fill:#FFFFFF;}
	.st1{fill:#FBAA19;}
</style>
<rect x="-169" y="198.8" class="st0" width="26.8" height="23"/>
<g id="s9A0eC.tif">
	<g>
		<path class="st1" d="M-154.1,231c-0.6,0-1.3,0-1.9,0c-0.1,0-0.2,0-0.2,0c-2.7-0.1-5.2-0.8-7.7-1.9c-8.1-3.8-13-12.6-11.9-21.5
			c0.4-3.5,1.6-6.7,3.6-9.6c4.6-6.7,13.1-10.1,21-8.6c4.7,0.9,8.7,3.2,11.8,6.8c2.8,3.2,4.5,7,5,11.3c0.1,0.5,0.1,1,0.2,1.5
			c0,0.6,0,1.3,0,1.9c0,0.1,0,0.2,0,0.3c-0.1,0.7-0.1,1.4-0.2,2.2c-1,5.4-3.6,9.9-8,13.2c-3,2.3-6.4,3.7-10.2,4.1
			C-153.1,230.9-153.6,230.9-154.1,231z M-164.5,216.6L-164.5,216.6c0.1,0.1,0.2,0.2,0.2,0.2c1.6,0.9,3.3,1.5,5.1,1.6
			c2.6,0.2,5-0.3,7.2-1.8c3.6-2.4,5.3-5.9,5.4-10.2c0-0.2,0-0.3,0.2-0.4c0.7-0.5,1.2-1.1,1.7-1.8c0-0.1,0.1-0.1,0.1-0.2
			c-0.3,0.1-0.5,0.2-0.7,0.3c-0.2,0.1-0.5,0.1-0.7,0.2c-0.2,0.1-0.5,0.1-0.7,0.1c0.8-0.6,1.3-1.3,1.6-2.2c-0.1,0.1-0.2,0.1-0.3,0.1
			c-0.7,0.3-1.4,0.5-2.1,0.8c-0.2,0.1-0.3,0-0.4-0.1c-1.2-1.1-2.6-1.5-4.2-0.9c-1.5,0.5-2.5,1.7-2.7,3.3c-0.1,0.5,0,1,0,1.5
			c-3.4-0.2-6.2-1.7-8.4-4.3c-1,2.2-0.6,4,1.2,5.5c-0.7,0-1.2-0.2-1.8-0.5c0.2,2.1,1.2,3.5,3.2,4.1v0.1c-0.6,0-1.1,0-1.7,0
			c0.7,1.8,1.9,2.7,3.8,2.9C-160.4,216.2-162.3,216.7-164.5,216.6z"/>
	</g>
</g>
</svg>
