<?xml version="1.0" encoding="utf-8"?>
<!-- Generator: Adobe Illustrator 21.1.0, SVG Export Plug-In . SVG Version: 6.00 Build 0)  -->
<svg version="1.1" id="Layer_1" xmlns="http://www.w3.org/2000/svg" xmlns:xlink="http://www.w3.org/1999/xlink" x="0px" y="0px"
	 viewBox="0 0 51 18" style="enable-background:new 0 0 51 18;" xml:space="preserve">
<style type="text/css">
	.st0{fill:#808285;}
	.st1{fill:#FBAA1A;}
	.st2{fill:#FFFFFF;}
</style>
<circle class="st0" cx="7.6" cy="10.3" r="1.8"/>
<path class="st1" d="M10.6,3.9v1.7C9.8,5,8.7,4.6,7.6,4.6C6.3,4.6,5,5.1,4,5.8C3.5,5.1,2.7,4.6,1.7,4.6v5.9c0,3.2,2.6,5.8,5.9,5.8
	s5.9-2.6,5.9-5.8V1.1C11.9,1.1,10.6,2.3,10.6,3.9z M7.6,13.5c-1.7,0-3.1-1.4-3.1-3.1s1.4-3,3.1-3s3.1,1.4,3.1,3S9.2,13.5,7.6,13.5z"
	/>
<path class="st1" d="M3.1,3.9L3.1,3.9C3.1,3.9,3.1,3.9,3.1,3.9c0.8,0,1.4-0.6,1.4-1.4S3.8,1.2,3.1,1.2S1.7,1.8,1.7,2.6l0,0l0,0
	C1.7,3.3,2.3,3.9,3.1,3.9z"/>
<path class="st2" d="M32.7,14V5.9c0-0.1,0-0.1-0.1-0.1l0,0h-2.1c-0.1,0-0.1,0-0.1,0.1l0,0v8c0,0.1,0.1,0.1,0.1,0.1h2.1
	C32.6,14.1,32.7,14.1,32.7,14z"/>
<path class="st2" d="M34.8,10.6h1.4c0.4,0,0.4-0.3,0.4-0.4V9.6c0-0.1,0-0.4-0.4-0.4h-1.4c-0.4,0-0.4,0.3-0.4,0.4v0.7
	C34.4,10.4,34.4,10.6,34.8,10.6z"/>
<path class="st2" d="M38,14.1h2.1c0.1,0,0.1-0.1,0.1-0.1l0-8c0-0.1,0-0.1-0.1-0.1l0,0H38c-0.1,0-0.1,0-0.1,0.1l0,0l0,8
	C37.8,14.1,37.9,14.1,38,14.1z"/>
<path class="st2" d="M48.6,1.9c-0.4-0.2-1-0.2-1.1-0.2v4.5c-0.6-0.3-1.2-0.4-1.8-0.4c-1,0-2,0.4-2.8,1.1l0,0c-0.9,0.9-1.4,1.9-1.4,3
	v0.3c0,1,0.4,2,1.2,2.8l0,0c0.9,0.8,1.8,1.1,2.8,1.1h0.4c0.5,0,1.1-0.1,1.6-0.4V14c0,0.1,0.1,0.1,0.1,0.1h2.1c0.1,0,0.1-0.1,0.1-0.1
	L50,4.1C50,3.1,49.4,2.3,48.6,1.9z M47.5,10c0,0.2,0,0.4-0.1,0.6c-0.4,0.7-0.9,1.1-1.7,1.1c-0.2,0-0.5,0-0.7-0.2
	c-0.7-0.4-1-0.9-1-1.5V9.9l0,0l0,0V9.8c0-0.1,0-0.3,0.1-0.4c0.4-0.8,0.9-1.3,1.8-1.3c0.3,0,0.6,0.1,0.8,0.2c0.6,0.4,0.9,0.9,0.9,1.5
	L47.5,10L47.5,10z"/>
<path class="st2" d="M29.1,14.1c0.1,0,0.1-0.1,0.1-0.1V9.8c0-0.2,0-0.5-0.1-0.9c-0.1-0.6-0.5-1.1-1-1.8l0,0
	c-0.9-0.9-1.9-1.3-2.9-1.3h-0.3c-1,0-2,0.4-2.8,1.2c-0.9-0.8-1.8-1.2-2.8-1.2h-0.3c-0.9,0-1.8,0.4-2.6,1l0,0
	c-0.9,0.9-1.4,1.8-1.4,2.8v4.4l0,0c0,0.1,0.1,0.1,0.1,0.1h0h2c0.1,0,0.1-0.1,0.1-0.1v-3.7c0-0.6,0.1-1,0.2-1.2
	c0.4-0.7,0.9-0.9,1.5-0.9c0,0,0.5,0,0.9,0.2c0.7,0.4,1,0.9,1,1.5V14c0,0.1,0.1,0.1,0.1,0.1H23c0.1,0,0.1-0.1,0.1-0.1v-4
	c0-0.4,0.1-0.7,0.2-0.9c0.4-0.6,0.9-0.9,1.5-0.9c0,0,0.4,0,0.7,0.1c0.8,0.4,1.3,0.9,1.3,1.8v4c0,0.1,0,0.1,0.1,0.1L29.1,14.1
	L29.1,14.1z"/>
<circle class="st2" cx="31.7" cy="3" r="1.2"/>
<circle class="st2" cx="39" cy="3" r="1.2"/>
</svg>
