<?xml version="1.0" encoding="utf-8"?>
<!-- Generator: Adobe Illustrator 21.1.0, SVG Export Plug-In . SVG Version: 6.00 Build 0)  -->
<svg version="1.1" id="Layer_1" xmlns="http://www.w3.org/2000/svg" xmlns:xlink="http://www.w3.org/1999/xlink" x="0px" y="0px"
	 viewBox="0 0 377 62" style="enable-background:new 0 0 377 62;" xml:space="preserve">
<style type="text/css">
	.st0{fill:#E20613;}
	.st1{fill:#FDDD99;}
	.st2{fill:#FDD67D;}
	.st3{fill:#FCD57B;}
	.st4{fill:#FBC959;}
	.st5{fill:#FCCA5D;}
	.st6{fill:#FDE5B0;}
	.st7{fill:#FBC547;}
	.st8{fill:#FABE32;}
	.st9{fill:#12100B;}
	.st10{fill:#F9B70C;}
	.st11{fill:#F9B712;}
	.st12{fill:#F8B000;}
	.st13{fill:#F6C449;}
	.st14{fill:#FDD06C;}
	.st15{fill:#F9B509;}
	.st16{fill:#F6A600;}
	.st17{fill:#FDDD96;}
	.st18{fill:#FDD77F;}
	.st19{fill:#FBCA57;}
	.st20{fill:#F5A100;}
	.st21{fill:#F7A800;}
	.st22{fill:#F39600;}
	.st23{fill:#F8B300;}
	.st24{fill:#FAC446;}
	.st25{fill:#FABE2F;}
	.st26{fill:#F9B506;}
	.st27{fill:#A37C35;}
	.st28{fill:#F6A500;}
	.st29{fill:#F08700;}
	.st30{fill:#F39700;}
	.st31{fill:#F49900;}
	.st32{fill:#F9B300;}
	.st33{fill:#EE7C00;}
	.st34{fill:#F6AA00;}
	.st35{fill:#009497;}
	.st36{fill:#BA953F;}
	.st37{fill:#F59E00;}
	.st38{fill:#ED7402;}
	.st39{fill:#ED7103;}
	.st40{fill-rule:evenodd;clip-rule:evenodd;fill:#004832;}
	.st41{fill-rule:evenodd;clip-rule:evenodd;fill:#2B2A66;}
	.st42{fill:#2C2B29;}
	.st43{fill:#004A6F;}
	.st44{fill:#FF0000;}
</style>
<path class="st0" d="M21,31.2C13.5,32,5.7,36.3,5.7,40.5c0,5,7.3,9.8,23.2,11.5C13.1,53.1-0.5,46.7-0.5,40.3
	c0-5.5,9.2-10.4,22.5-11.4L21,31.2z"/>
<circle class="st0" cx="18.5" cy="41.6" r="4.6"/>
<path class="st0" d="M38,29.3l-9.3-16.1L25,21.9l10.7,18.5c2.4,4.1,5.5,5.9,9.1,5.9c7.2,0,11.2-3.3,11.4-6.1
	C56.6,35.3,48.8,31,38,29.3z M48.2,43.4c-1.9-0.3-3.3-2.2-5.6-6.2l-3.5-6.1c8.5,1.5,14.5,5,14.2,8.9C53.1,41.7,50.9,43.3,48.2,43.4z
	"/>
<g>
	<path class="st1" d="M107.1,8.8c0.8-0.2,1.7-0.1,2.5-0.1c0.8,0,1.7,0.1,2.5,0.1c0.2,0,0.4,0,0.6,0.1c-0.8,0.2-1.6-0.1-2.4-0.1
		c0.5,0.1,0.9,0.2,1.4,0.3c0.2,0.2,0.5,0.3,0.8,0.4c0.6,0.2,1.1,0.6,1.6,1c0.6,0.4,1,1,1.4,1.5c0.4,0.5,0.7,1.1,0.9,1.7
		c0.1,0.2,0.1,0.3,0.3,0.4c0.2,0.2,0.5,0.2,0.7,0.4c-1.1-0.3-2.3-0.5-3.4-0.7c-0.2-0.3-0.4-0.6-0.8-0.6c0.1,0,0.2-0.1,0.3-0.1
		c-0.4-0.4-0.8-0.9-1.4-1.2c-0.6-0.3-1.2-0.7-1.9-0.7c-0.8-0.2-1.6-0.1-2.4,0.1c-0.4,0.2-0.9,0.4-1.3,0.6c-0.5,0.3-0.9,0.7-1.3,1.1
		c-0.2,0.3-0.5,0.5-0.7,0.8c-1,0.2-2,0.4-3,0.6c0.5-0.4,0.5-1,0.8-1.5c0.3-0.4,0.5-0.8,0.8-1.2c0.3-0.4,0.8-0.8,1.2-1.1
		c0.5-0.5,1.2-0.8,1.9-1.2c0.5-0.2,1-0.3,1.4-0.5C107.4,8.9,107.3,8.8,107.1,8.8z"/>
	<path class="st2" d="M99.4,10.8c2.4-1.1,5-1.8,7.7-2c0.2,0,0.3,0.1,0.5,0.1c-0.4,0.2-1,0.3-1.4,0.5c-0.7,0.3-1.4,0.6-1.9,1.2
		c-0.4,0.4-0.8,0.7-1.2,1.1c-0.3,0.4-0.5,0.8-0.8,1.2c-0.3,0.5-0.3,1.1-0.8,1.5c-1.4,0.4-2.8,0.8-4.2,1.4c0-0.1,0.1-0.2,0.1-0.2
		c0.4-0.2,0.8-0.3,1.2-0.5c0.2-0.5,0.1-1.1,0.4-1.6c0.2-0.4,0.2-0.9,0.5-1.3c0.2-0.4,0.4-0.8,0.6-1.2c-0.2-0.1-0.3-0.1-0.5,0
		C99.5,10.9,99.5,10.9,99.4,10.8z"/>
	<path class="st3" d="M110.2,8.9c0.8,0,1.6,0.3,2.4,0.1c0.2,0,0.3,0,0.5,0c1.8,0.3,3.5,0.8,5.2,1.5c0.3,0.1,0.6,0.2,0.8,0.4
		c-0.3,0.1-0.6,0.1-0.8,0.3c0.3,0.4,0.6,0.9,0.7,1.4c0.1,0.4,0.3,0.7,0.4,1.1c0.1,0.4,0.3,0.7,0.3,1.1c0,0.6,0.2,1.3,0.1,1.9
		c0.4,0.3,0.5,0.9,1,1.1c-0.1,0-0.2,0.1-0.2,0.1c-0.8-1.1-1.7-2.1-2.7-3.1c-0.2-0.2-0.5-0.2-0.7-0.3c-0.2-0.2-0.5-0.3-0.7-0.4
		c-0.1-0.1-0.2-0.3-0.3-0.4c-0.3-0.6-0.5-1.2-0.9-1.7c-0.5-0.5-0.9-1.1-1.4-1.5c-0.5-0.4-1-0.8-1.6-1c-0.3-0.1-0.6-0.2-0.8-0.4
		C111.2,9.1,110.7,9,110.2,8.9z"/>
	<path class="st4" d="M94.7,13.6c1.4-1.2,3-2.1,4.7-2.8c0.1,0.1,0.1,0.1,0.2,0.2c0.2-0.1,0.3,0,0.5,0c-0.2,0.4-0.4,0.8-0.6,1.2
		c-0.3,0.4-0.2,0.9-0.5,1.3c-0.3,0.5-0.2,1.1-0.4,1.6c-0.4,0.2-0.8,0.3-1.2,0.5c0,0.1-0.1,0.2-0.1,0.2c-0.7,0.3-1.4,0.6-2.1,1
		c0-0.1-0.2-0.2-0.1-0.3c0.2-0.1,0.4-0.1,0.5-0.2c0.2-0.2,0-0.4,0-0.7c0.1-0.3,0.2-0.7,0.2-1c0-0.4,0.2-0.8,0.3-1.2
		c-0.2,0-0.5-0.1-0.7-0.1C95.1,13.5,94.9,13.6,94.7,13.6z"/>
	<path class="st5" d="M119.2,10.9c0.6,0.2,1.1,0.5,1.6,0.8c0.5,0.3,1.1,0.6,1.6,1c-0.3-0.1-0.6-0.3-0.9-0.4c0,0.1-0.1,0.2-0.1,0.3
		c0.3,0.5,0.3,1,0.5,1.5c0.1,0.3,0.2,0.7,0.2,1c0,0.3,0.2,0.6,0.2,1c0,0.5-0.1,1,0.2,1.4c-0.2-0.1-0.5-0.2-0.7-0.2
		c-0.3,0.1-0.5,0.3-0.7,0.5c-0.5-0.2-0.6-0.8-1-1.1c0-0.6-0.1-1.3-0.1-1.9c0-0.4-0.2-0.7-0.3-1.1c-0.1-0.4-0.3-0.7-0.4-1.1
		c-0.1-0.5-0.5-1-0.7-1.4C118.6,11,118.9,11,119.2,10.9z"/>
	<path class="st6" d="M107.7,11.4c0.8-0.2,1.6-0.3,2.4-0.1c0.7,0,1.3,0.4,1.9,0.7c0.5,0.3,1,0.7,1.4,1.2c-0.1,0-0.2,0.1-0.3,0.1
		c0.4,0,0.6,0.3,0.8,0.6c-3.2-0.5-6.4-0.5-9.5,0c0.2-0.3,0.5-0.5,0.7-0.8c0.4-0.4,0.8-0.8,1.3-1.1C106.9,11.7,107.3,11.5,107.7,11.4
		z"/>
	<path class="st7" d="M121.5,12.3c0.3,0.2,0.6,0.4,0.9,0.4c0.6,0.3,1.1,0.7,1.6,1.1c-0.4-0.1-0.8-0.6-1.3-0.5c0,0.1,0,0.2,0,0.2
		c0.1,0,0.3,0,0.4,0c-0.1,0.1-0.1,0.2-0.2,0.4c0.1,0,0.2,0,0.2,0.1c-0.1,0.3-0.2,0.6,0,0.8c0.3,0.7,0.1,1.5,0.1,2.3
		c-0.1,0.1-0.2,0.1-0.3,0.2c0.3,0.3,0.8,0.4,1,0.7c-0.5-0.2-1.1-0.4-1.6-0.5c-0.3-0.4-0.2-1-0.2-1.4c0-0.3-0.2-0.6-0.2-1
		c0-0.4-0.1-0.7-0.2-1c-0.2-0.5-0.2-1.1-0.5-1.5C121.4,12.5,121.4,12.4,121.5,12.3z"/>
	<path class="st8" d="M94.7,13.6c0.2,0,0.4-0.2,0.6-0.3c0.2,0,0.5,0.1,0.7,0.1c-0.1,0.4-0.3,0.8-0.3,1.2c0,0.4,0,0.7-0.2,1
		c0,0.2,0.2,0.5,0,0.7c-0.2,0.1-0.4,0.1-0.5,0.2c-0.1,0.1,0,0.2,0.1,0.3l0,0c0,0,0,0.1,0,0.1c0,0.2,0.2,0.4,0.1,0.6
		c-0.3,0.2-0.7,0.3-1,0.6c-1,0.4-1.9,0.8-2.9,1.3c0-0.2,0.3-0.3,0.4-0.4c0.5-0.2,1-0.4,1.3-0.9c-0.1,0-0.2-0.1-0.2-0.1
		c0.1,0,0.2,0,0.3-0.1c-0.1,0-0.2-0.1-0.3-0.1c0-0.5,0-1,0-1.4c0-0.2,0.1-0.3,0.2-0.4c-0.1,0-0.2-0.1-0.2-0.1c0-0.2,0.1-0.3,0.1-0.5
		c-0.5,0.4-0.9,0.9-1.4,1.4c-0.1,0-0.1,0.1-0.2,0.1c0.4-0.6,1-1.1,1.5-1.6C93.4,14.7,94,14.1,94.7,13.6L94.7,13.6z"/>
	<path class="st8" d="M122.7,13.4c0.5-0.1,0.9,0.3,1.3,0.5c0.8,0.5,1.5,1.2,2.1,1.9c-0.2-0.1-0.4-0.1-0.6-0.1
		c0.2,0.7,0.1,1.5,0.1,2.3c-0.2,0.1-0.3,0.2-0.5,0.3c0.2,0,0.3,0,0.5-0.1c0,0.1-0.1,0.2-0.1,0.3c0.3,0.2,0.7,0.3,0.9,0.6
		c-0.8-0.3-1.6-0.7-2.4-1c-0.3-0.3-0.7-0.5-1-0.7c0.1-0.1,0.2-0.1,0.3-0.2c0-0.8,0.2-1.6-0.1-2.3c-0.2-0.3-0.1-0.6,0-0.8
		c-0.1,0-0.2,0-0.2-0.1c0.1-0.1,0.1-0.2,0.2-0.4c-0.1,0-0.3,0-0.4,0C122.6,13.6,122.7,13.5,122.7,13.4z"/>
	<path class="st8" d="M92.3,22.4c0.7-0.1,1.5-0.2,2.2-0.2c0.5,0.1,1,0.1,1.5,0.1c0.3,0.1,0.3,0.5,0.5,0.7c0.2,0,0.3,0.1,0.5,0.1
		c-0.3,0.2-0.6,0.4-0.8,0.5c-0.8,0.1-1.6,0.2-2.4,0.4c0.3-0.3,0.7-0.3,1.1-0.4c-0.2-0.4-0.3-0.8-0.5-1.2c-0.1,0-0.2,0.1-0.2,0.1
		C93.5,22.2,92.9,22.6,92.3,22.4z"/>
	<path class="st8" d="M104.6,29.3c0.4-0.2,0.9-0.1,1.3,0.1c0.4,0.2,0.8,0.1,1.2,0.2c0.3,0.1,0.7,0.2,1,0.2c1.1,0,2.2,0,3.2,0.4
		c1.5,1.4,2.9,2.9,4.4,4.4c-0.1,0-0.2-0.1-0.3-0.1c-0.3-0.3-0.5-0.6-0.8-0.8c-0.3-0.3-0.7-0.7-1.1-1c0,0.1,0,0.2,0,0.2
		c-0.1,0-0.1-0.1-0.2-0.1c-0.6,0.2-1.2,0.2-1.8,0.4c-0.6,0.2-1.2,0-1.8,0.1c-0.9,0.2-1.8-0.1-2.7-0.1c-0.3,0.4,0,0.8,0.1,1.2
		c0.2,0.3,0.2,0.7,0.1,1c-0.2-0.8-0.4-1.5-0.6-2.3c-1-0.1-2.1-0.2-3.2-0.1c-0.7-0.7-1.4-1.4-2.1-2.1c0.6-0.4,1.2-0.8,1.9-1
		C103.7,29.7,104.2,29.5,104.6,29.3z"/>
	<path class="st9" d="M104.4,13.9c3.2-0.5,6.4-0.5,9.5,0c1.1,0.2,2.3,0.4,3.4,0.7c0.2,0.1,0.5,0.1,0.7,0.3c1,1,1.9,2,2.7,3.1
		c0.1,0,0.2-0.1,0.2-0.1c0.2-0.2,0.5-0.4,0.7-0.5c0.2,0.1,0.5,0.1,0.7,0.2c0.5,0.2,1.1,0.4,1.6,0.5c0.8,0.3,1.6,0.6,2.4,1
		c0.5,0.2,0.9,0.5,1.4,0.7c0.7,0.4,1.4,0.8,2.1,1.2c0.7,0.5,1.5,1,2.2,1.5c0.2,0.5,0.4,0.9,0.6,1.4c-0.5-0.1-1-0.3-1.5-0.5
		c-1.1-0.3-2.2-0.6-3.3-0.8c-1.4-0.3-2.9-0.4-4.3-0.5c0.3,0.6,0.7,1.2,1,1.8c1.1,0.2,2.1,0.5,3.2,0.8c1.5,0.5,3,1,4.4,1.6
		c0.5,0.2,1,0.5,1.6,0.8c0.1,0.5,0.2,0.9,0.3,1.4c-0.4-0.1-0.9-0.2-1.3-0.3c-0.8-0.1-1.6-0.3-2.4-0.4c-1.4-0.2-2.8-0.2-4.2-0.2
		c0.2,0.6,0.4,1.2,0.6,1.8c0.7,0.1,1.4,0.3,2,0.4c1.4,0.3,2.8,0.8,4.2,1.3c0.4,0.2,0.9,0.4,1.3,0.5c0,0.3,0,0.7,0,1
		c-0.4,0-0.9-0.1-1.3-0.1c-1.1-0.1-2.2-0.1-3.2-0.1c-1.5,0-3,0.1-4.4,0.4c-0.7,0.1-1.4,0.2-2.1,0.4c-0.7-0.5-1.4-1-2.2-1.4
		c-0.1-0.1-0.1-0.1-0.2,0c-2.7,2.6-5.3,5.3-7.9,7.9c-0.5,0.5-1,1-1.5,1.5c0,0.4,0,0.8,0,1.2c0.1,1.7,0.1,3.4,0.2,5.1
		c0,1.8,0.1,3.5,0.2,5.3c-0.2,0-0.4,0.1-0.6,0.1c-1.5,0.1-3,0.1-4.6-0.1c0-1.3,0.1-2.5,0.2-3.8c0-1,0.1-2,0.1-3
		c-0.1-0.1-0.3-0.3-0.4-0.4c-1.7-1.7-3.4-3.4-5.1-5c-1.4-1.5-2.9-2.9-4.3-4.3c-1,0-1.9,0.1-2.9,0.3c-0.8,0.1-1.7,0.3-2.5,0.5
		c-0.2-0.4-0.3-0.8-0.5-1.2c0.3-0.1,0.5-0.3,0.8-0.4c1-0.5,2-0.9,3-1.3c-0.4-0.5-0.9-0.9-1.4-1.4c-0.7-0.1-1.3-0.2-2-0.3
		c-2.1-0.2-4.2-0.2-6.3-0.1c-0.4,0-0.8,0.1-1.2,0.1c0-0.3,0-0.7,0-1c0.4-0.2,0.8-0.3,1.2-0.5c1.7-0.6,3.4-1.1,5.2-1.5
		c0.8-0.2,1.7-0.3,2.5-0.4c0.7-0.1,1.5-0.2,2.2-0.2c1.3,1.3,2.7,2.6,4,4c0.1,0.1,0.2,0.2,0.3,0.2c0.7-0.1,1.3-0.2,2-0.2
		c-0.3-0.3-0.6-0.6-0.9-0.9c-1.3-1.3-2.6-2.6-3.9-3.9c-0.1-0.1-0.2-0.3-0.4-0.3c-3.5-0.4-7.2-0.3-10.7,0.4c-0.4,0.1-0.8,0.2-1.2,0.2
		c0.1-0.5,0.2-0.9,0.3-1.4c0.5-0.2,0.9-0.5,1.4-0.7c1.8-0.8,3.8-1.5,5.7-2c0.6-0.1,1.2-0.3,1.8-0.4c0.8-0.2,1.6-0.3,2.4-0.4
		c0.7-0.1,1.5-0.2,2.2-0.2c1,1,2,2,3,3c0.1-0.1,0.3-0.1,0.4-0.2c0.7-0.3,1.5-0.6,2.3-0.9c0.4-0.1,0.8-0.3,1.2-0.4
		c2.6-0.8,5.4-1.2,8.1-1.2c-0.2-0.3-0.5-0.6-0.7-0.9c-3.1-0.3-6.2,0-9.3,0.7c-0.4,0.1-0.8,0.2-1.1,0.3c0,0-0.1,0-0.2,0
		c-0.5-0.5-1-1-1.5-1.5c-0.5-0.1-1.1-0.1-1.6-0.1c-1.5-0.1-3-0.1-4.5,0c-0.7,0-1.5,0.1-2.2,0.2c-0.8,0.1-1.6,0.2-2.4,0.4
		c-0.8,0.2-1.7,0.4-2.5,0.6c-0.5,0.1-1.1,0.3-1.6,0.5c0.2-0.4,0.3-0.9,0.5-1.3c0-0.1,0.1-0.2,0.2-0.2c0.7-0.5,1.3-0.9,2-1.4
		c0.9-0.5,1.9-1.1,2.8-1.6c0.9-0.5,1.9-0.9,2.9-1.3c0.5-0.2,1.1-0.4,1.6-0.6c-0.2-0.2-0.5-0.5-0.7-0.7l0,0c0.7-0.4,1.4-0.7,2.1-1
		c1.4-0.6,2.8-1,4.2-1.4C102.4,14.2,103.4,14,104.4,13.9 M103.2,29.8c-0.7,0.3-1.2,0.7-1.9,1c0.7,0.7,1.4,1.4,2.1,2.1
		c1.1,0,2.1,0,3.2,0.1c0.2,0.7,0.4,1.5,0.6,2.3c0,0.1,0,0.2,0,0.3c0.1,0.4,0.2,0.8,0.2,1.2c1.1,1.1,2.2,2.2,3.2,3.2
		c1.8-1.8,3.6-3.6,5.4-5.4c-0.1-0.1-0.2-0.1-0.2-0.2c-1.4-1.5-2.9-2.9-4.4-4.4c-0.8-0.9-1.7-1.7-2.5-2.5
		C106.9,28.1,105,28.8,103.2,29.8 M112.1,28.9c0.7,0.7,1.4,1.4,2.1,2.1l0,0c0.7,0.7,1.4,1.5,2.2,2.1c0.2,0.2,0.4,0.4,0.6,0.6
		c0.9-0.9,1.8-1.7,2.6-2.6c-0.3-0.1-0.6-0.3-0.9-0.4c-0.6-0.3-1.2-0.5-1.8-0.7C115.3,29.5,113.7,29.1,112.1,28.9 M99.1,36.4
		c2.6,2.7,5.3,5.3,7.9,7.9c0.1-1.9,0.2-3.8,0.3-5.7c-0.4-0.4-0.7-0.8-1.2-1.1C103.8,36.8,101.5,36.5,99.1,36.4z"/>
	<path class="st10" d="M91.5,16.8c0.5-0.5,0.9-1,1.4-1.4c0,0.2-0.1,0.3-0.1,0.5c0.1,0,0.2,0.1,0.2,0.1c-0.1,0.1-0.2,0.3-0.2,0.4
		c0,0.5,0,1,0,1.4c0.1,0,0.2,0.1,0.3,0.1c-0.1,0-0.2,0-0.3,0.1c0.1,0,0.2,0.1,0.2,0.1c-0.3,0.5-0.8,0.6-1.3,0.9
		c-0.1-0.7-0.2-1.4-0.1-2.2C91.6,16.9,91.5,16.8,91.5,16.8z"/>
	<path class="st11" d="M125.5,15.7c0.2,0,0.4,0,0.6,0.1c0.4,0.3,0.7,0.7,1,1c0.2,0.3,0.5,0.5,0.7,0.8c-0.3-0.1-0.5-0.4-0.8-0.6
		c0,0-0.1,0.1-0.2,0.1c0.1,0.7-0.3,1.4,0,2c0.3,0.2,0.8,0.3,1,0.7c-0.5-0.2-0.9-0.5-1.4-0.7c-0.2-0.3-0.6-0.4-0.9-0.6
		c0-0.1,0.1-0.2,0.1-0.3c-0.2,0-0.3,0-0.5,0.1c0.2-0.1,0.3-0.2,0.5-0.3C125.6,17.2,125.7,16.4,125.5,15.7z"/>
	<path class="st12" d="M88.7,20.5c0.8-1.3,1.6-2.5,2.6-3.6c0.1,0,0.1-0.1,0.2-0.1c0,0,0.1,0.1,0.2,0.1c0,0.7,0,1.4,0.1,2.2
		c-0.2,0.1-0.4,0.1-0.4,0.4c-1,0.5-1.9,1-2.8,1.6C88.5,20.8,88.6,20.7,88.7,20.5z"/>
	<path class="st12" d="M126.8,17.1c0,0,0.1-0.1,0.2-0.1c0.2,0.3,0.4,0.5,0.8,0.6c0.1,0,0.1,0.1,0.2,0.2c0.7,0.9,1.4,1.9,1.9,2.9
		c0.1,0.1,0.1,0.2,0.1,0.4c-0.7-0.4-1.4-0.8-2.1-1.2c-0.2-0.4-0.6-0.4-1-0.7C126.5,18.4,126.9,17.7,126.8,17.1z"/>
	<path class="st13" d="M95.1,17c0,0,0-0.1,0-0.1c0.3,0.2,0.5,0.5,0.7,0.7c-0.6,0.2-1.1,0.4-1.6,0.6c0.3-0.3,0.7-0.4,1-0.6
		C95.3,17.4,95.1,17.2,95.1,17z"/>
	<path class="st13" d="M85.8,28.3c3.5-0.7,7.1-0.8,10.7-0.4c0.2,0,0.3,0.2,0.4,0.3c1.3,1.3,2.6,2.6,3.9,3.9
		c-0.2-0.1-0.3-0.2-0.5-0.3c-1.1-1.1-2.3-2.3-3.4-3.4c-0.1-0.1-0.3-0.3-0.5-0.3c-0.5-0.1-1-0.1-1.4-0.2c-1.3-0.2-2.6-0.1-3.8-0.1
		c-0.6,0-1.2,0.1-1.8,0.1c-0.9,0.1-1.8,0.2-2.7,0.3c-0.2,0-0.4,0.1-0.6,0.2c-0.3,0.4-0.1,0.9-0.3,1.4C85.6,29.3,85.8,28.8,85.8,28.3
		z"/>
	<path class="st4" d="M94.5,22.2c1.5-0.1,3-0.1,4.5,0c0.1,0.2,0.3,0.3,0.6,0.5c0.1,0.5,0.5,0.8,0.8,1.1c0.3,0.4,0.6,0.8,0.9,1.2
		c0.4,0.2,0.7,0.5,1.1,0.8c-0.2,0.1-0.5,0.3-0.6,0.5c-0.1,0.1-0.3,0.1-0.4,0.2c-1-1-2-2-3-3c-0.7,0.1-1.5,0.1-2.2,0.2
		c0.3-0.2,0.6-0.3,0.8-0.5c-0.2,0-0.3-0.1-0.5-0.1c-0.1-0.2-0.1-0.6-0.5-0.7C95.5,22.2,95,22.3,94.5,22.2z"/>
	<path class="st11" d="M123.6,22.1c1.4,0.1,2.9,0.2,4.3,0.5c-0.6,0.1-1.2-0.1-1.8,0c-0.5,0.2-0.3,0.7-0.3,1.1
		c-0.1,0-0.3,0.1-0.4,0.1c0,0,0,0.1,0,0.1c0.5,0.1,1.1,0.3,1.6,0.4c0.3,0.1,0.5,0.2,0.7,0.4c-1-0.3-2.1-0.5-3.2-0.8
		C124.2,23.4,123.9,22.8,123.6,22.1z"/>
	<path class="st14" d="M99,22.2c0.5,0,1.1,0.1,1.6,0.1c0.5,0.5,1,1,1.5,1.5c0,0,0.1,0,0.2,0c-0.1,0-0.2,0.1-0.2,0.1
		c0.3,0,0.6-0.1,0.9,0c0.4,0.4,0.9,0.7,1.4,1.1c-0.1,0.1-0.3,0.2-0.3,0.3c-0.8,0.3-1.5,0.6-2.3,0.9c0.2-0.2,0.4-0.4,0.6-0.5
		c-0.4-0.3-0.7-0.6-1.1-0.8c-0.3-0.4-0.6-0.8-0.9-1.2c-0.3-0.3-0.7-0.6-0.8-1.1C99.4,22.5,99.2,22.4,99,22.2z"/>
	<path class="st15" d="M92.3,22.4c0.6,0.2,1.2-0.2,1.8,0.1c0.1,0,0.2-0.1,0.2-0.1c0.2,0.4,0.3,0.8,0.5,1.2c-0.4,0.1-0.8,0.1-1.1,0.4
		c-0.6,0.1-1.2,0.3-1.8,0.4c0.1-0.3,0.4-0.3,0.6-0.4c0-0.5-0.4-0.9-0.6-1.4c-0.7-0.3-1.4,0.3-2.1,0C90.7,22.6,91.5,22.5,92.3,22.4z"
		/>
	<path class="st15" d="M111.5,33c0.6-0.2,1.2-0.2,1.8-0.4c0.1,0,0.1,0.1,0.2,0.1c0-0.1,0-0.2,0-0.2c0.4,0.3,0.7,0.7,1.1,1
		c-0.1,0.1-0.1,0.2-0.2,0.3c-0.1-0.2-0.3-0.4-0.5-0.3c-0.4,0.2-0.9,0.3-1.3,0.4c-0.7,0.2-1.5,0.1-2.2,0.3c-1.1,0.1-2.2,0-3.3,0
		c-0.1-0.4-0.4-0.8-0.1-1.2c0.9,0,1.8,0.2,2.7,0.1C110.3,33.1,111,33.2,111.5,33z"/>
	<path class="st16" d="M126.1,22.6c0.6-0.1,1.2,0.1,1.8,0c1.1,0.2,2.2,0.4,3.3,0.8c0.3,0.8,0.6,1.6,0.9,2.5c0.1,0.2,0.1,0.4,0.1,0.5
		c-1.4-0.6-2.9-1.2-4.4-1.6c-0.2-0.2-0.5-0.3-0.7-0.4c-0.5-0.1-1-0.3-1.6-0.4c0,0,0-0.1,0-0.1c0.1,0,0.3-0.1,0.4-0.1
		C125.8,23.4,125.7,22.8,126.1,22.6z"/>
	<path class="st16" d="M89.9,22.8c0.7,0.2,1.4-0.3,2.1,0c0.2,0.5,0.6,0.8,0.6,1.4c-0.2,0-0.5,0.1-0.6,0.4c-2,0.5-3.9,1.2-5.7,2
		c0.2-0.9,0.5-1.8,0.9-2.7c0.1-0.1,0.1-0.3,0.3-0.4C88.2,23.1,89,22.9,89.9,22.8z"/>
	<path class="st17" d="M103.4,23.5c3-0.8,6.2-1,9.3-0.7c0.2,0.3,0.5,0.6,0.7,0.9c-2.8,0-5.5,0.4-8.1,1.2c0.2-0.2,0.4-0.3,0.7-0.5
		c-0.2-0.1-0.4-0.3-0.6-0.3c-0.4-0.1-0.8-0.5-1.2-0.6C103.9,23.5,103.6,23.5,103.4,23.5z"/>
	<path class="st18" d="M102.3,23.8c0.4-0.1,0.7-0.2,1.1-0.3c0.3,0,0.5,0,0.8,0c0.4,0.2,0.7,0.5,1.2,0.6c0.2,0.1,0.4,0.2,0.6,0.3
		c-0.2,0.1-0.5,0.3-0.7,0.5c-0.4,0.1-0.8,0.3-1.2,0.4c0.1-0.2,0.2-0.2,0.3-0.3c-0.5-0.3-1-0.6-1.4-1.1c-0.3-0.1-0.6,0-0.9,0
		C102.1,23.9,102.2,23.8,102.3,23.8z"/>
	<path class="st19" d="M103.2,29.8c1.8-1,3.7-1.6,5.7-2.1c0.8,0.8,1.7,1.7,2.5,2.5c-1-0.4-2.1-0.4-3.2-0.4c-0.4,0-0.7-0.1-1-0.2
		c-0.4-0.1-0.9,0-1.2-0.2c-0.4-0.2-0.9-0.4-1.3-0.1C104.2,29.5,103.7,29.7,103.2,29.8z"/>
	<path class="st20" d="M126.1,27.7c1.4,0,2.8,0.1,4.2,0.2c-0.2,0-0.4,0-0.6,0.1c0.2,0,0.3,0.1,0.5,0.1c0,0.5-0.5,0.9-0.6,1.5
		c-0.3,0.1-0.6,0.1-0.9,0.3c-0.7-0.2-1.4-0.3-2-0.4C126.5,28.9,126.3,28.3,126.1,27.7z"/>
	<path class="st21" d="M89.3,27.9c0.6,0,1.2-0.1,1.8-0.1c1.3,0,2.6-0.1,3.8,0.1c0,0.3,0.3,0.6,0.5,0.8c0,0.1-0.1,0.1-0.1,0.2
		c-0.8,0.1-1.6,0.1-2.4,0.3c0.1,0,0.2,0.1,0.2,0.1c-0.8,0.1-1.7,0.3-2.5,0.4c-0.3-0.1-0.5-0.2-0.8-0.4c0.1,0,0.3-0.1,0.4-0.1
		c-0.1,0-0.2-0.1-0.2-0.1C90,28.7,89.5,28.4,89.3,27.9z"/>
	<path class="st22" d="M86.6,28.2c0.9-0.1,1.8-0.3,2.7-0.3c0.2,0.4,0.7,0.7,0.8,1.3c0.1,0,0.2,0.1,0.2,0.1c-0.1,0-0.3,0.1-0.4,0.1
		c0.2,0.1,0.5,0.3,0.8,0.4c-1.8,0.4-3.5,0.9-5.2,1.5c0-0.5,0-1,0.1-1.4c0.2-0.4,0.1-1,0.3-1.4C86.1,28.3,86.4,28.3,86.6,28.2z"/>
	<path class="st23" d="M94.9,27.9c0.5,0,1,0.1,1.4,0.2c0.2,0,0.3,0.2,0.5,0.3c1.1,1.1,2.3,2.3,3.4,3.4c0.1,0.1,0.3,0.2,0.5,0.3
		c0.3,0.3,0.6,0.6,0.9,0.9c-0.7,0.1-1.3,0.2-2,0.2c-0.1,0-0.2-0.1-0.3-0.2c-1.3-1.3-2.6-2.6-4-4c-0.7,0-1.5,0.1-2.2,0.2
		c-0.1,0-0.2-0.1-0.2-0.1c0.8-0.1,1.6-0.2,2.4-0.3c0-0.1,0.1-0.1,0.1-0.2C95.2,28.5,95,28.2,94.9,27.9z"/>
	<path class="st22" d="M129.6,28c0.2,0,0.4-0.1,0.6-0.1c0.8,0.1,1.6,0.2,2.4,0.4c0.2,1,0.3,1.9,0.3,2.9c-1.4-0.5-2.8-0.9-4.2-1.3
		c0.3-0.2,0.6-0.3,0.9-0.3c0.1-0.5,0.5-0.9,0.6-1.5C129.9,28.1,129.8,28,129.6,28z"/>
	<path class="st24" d="M112.1,28.9c1.6,0.2,3.3,0.6,4.8,1.2c-0.6,0-1.1-0.2-1.6-0.3c-0.4-0.1-0.8,0.1-1.1,0.3
		c-0.2,0.1-0.3,0.2-0.3,0.4c0.2,0.2,0.3,0.3,0.3,0.6C113.5,30.3,112.8,29.6,112.1,28.9z"/>
	<path class="st25" d="M114.2,30c0.3-0.2,0.7-0.4,1.1-0.3c0.5,0.1,1.1,0.4,1.6,0.3c0.6,0.2,1.2,0.4,1.8,0.7c-0.4,0-0.8-0.1-1.2-0.2
		c-0.4,0.1-0.8,0.3-1.2,0.5c-0.3,0.2-0.8,0.3-1.1,0.5c0.3,0.6,0.9,1,1.2,1.6c-0.8-0.7-1.4-1.4-2.2-2.1l0,0c0-0.2-0.2-0.4-0.3-0.6
		C113.9,30.2,114,30.1,114.2,30z"/>
	<path class="st26" d="M116.3,31.1c0.4-0.2,0.7-0.5,1.2-0.5c0.4,0.1,0.8,0.2,1.2,0.2c0.3,0.1,0.6,0.3,0.9,0.4
		c-0.9,0.9-1.7,1.8-2.6,2.6c-0.2-0.2-0.4-0.4-0.6-0.6c-0.3-0.6-0.9-1-1.2-1.6C115.5,31.4,115.9,31.3,116.3,31.1z"/>
	<path class="st27" d="M120.8,31.9c0.1-0.1,0.1-0.1,0.2,0C121,31.9,120.9,31.9,120.8,31.9z"/>
	<path class="st28" d="M112.9,39.9c2.6-2.7,5.3-5.3,7.9-7.9c0.1,0,0.2,0,0.2,0c0.8,0.4,1.5,0.9,2.2,1.4c0.7-0.2,1.4-0.3,2.1-0.4
		c0.2,0,0.3,0,0.5,0.1c-0.4,0.4-0.9,0.7-1.2,1.1c-0.6,0.5-1.2,1-1.9,1.5c-0.3,0.3-0.7,0.6-1.1,0.7c-2.3,1.5-5,2.6-7.7,3.1
		C113.5,39.5,113.3,39.9,112.9,39.9z"/>
	<path class="st29" d="M85.4,32.6c2.1-0.1,4.2-0.1,6.3,0.1c-0.7,0.1-1.4-0.1-2.1,0c-0.3,0-0.4,0.3-0.4,0.6c0.2,0.2,0.4,0.4,0.5,0.7
		c0.1,0.3,0.4,0.3,0.6,0.5c0.2,0.1,0.1,0.4,0.3,0.5c0.2,0.1,0.4,0.3,0.6,0.5c0,0,0.1,0,0.1,0c0,0.1,0,0.3,0,0.4
		c0.1-0.2,0.3-0.3,0.4-0.5c0.1,0.1,0.2,0.2,0.2,0.3c-0.3,0.1-0.5,0.3-0.8,0.4c0.2,0.4,0.3,0.8,0.5,1.2c0.8-0.2,1.7-0.4,2.5-0.5
		c0.1,0,0.2,0,0.3,0.1c-0.5,0.2-1.1,0.2-1.6,0.4c0.3,0.2,0.6,0.3,0.8,0.5c0.2,0.1,0,0.5,0.3,0.5c0.6,0.1,1.1,0.3,1.5,0.7
		c0.2,0.3,0.6,0.3,0.9,0.5c0.2,0.1,0.3,0.3,0.5,0.5c0.3,0,0.6,0,0.8,0.2c0.4,0.2,0.6,0.5,1,0.6c0.5,0.1,0.9,0.4,1.4,0.3
		c0.1,0.1,0.2,0.3,0.3,0.4c0.3,0.1,0.6,0.1,0.9,0c0.3,0.1,0.6,0.3,0.9,0.4c-0.3-0.3-0.8-0.5-0.7-1c1.7,1.7,3.4,3.4,5.1,5
		c-0.1,0.1-0.3,0.2-0.4,0.2c-0.5,0-1-0.2-1.5-0.2c-0.8-0.1-1.6-0.3-2.3-0.4c-0.8-0.1-1.5-0.5-2.3-0.7c-0.9-0.3-1.8-0.6-2.7-1
		c-1.1-0.6-2.3-1.1-3.4-1.8c-0.5-0.3-0.9-0.7-1.4-0.9c-0.4-0.2-0.6-0.5-1-0.7c-0.4-0.3-0.8-0.7-1.2-1c-0.3-0.2-0.5-0.5-0.8-0.7
		c-0.6-0.4-1-1-1.6-1.5c-0.3-0.3-0.7-0.6-1-1.1c-0.2-0.3-0.4-0.5-0.6-0.8c-0.2-0.3-0.4-0.5-0.6-0.7c-0.1,0.1-0.1,0.2-0.2,0.3
		C85.5,34.1,85.5,33.3,85.4,32.6z"/>
	<path class="st30" d="M125.3,32.9c1.5-0.2,2.9-0.3,4.4-0.4c-0.1,0.2-0.2,0.5-0.3,0.7c-0.4,0.2-0.6,0.5-0.9,0.9
		c-0.6,0.6-1.2,1.2-1.8,1.8c-0.4,0.2-0.6,0.7-0.9,0.9c-0.3,0.2-0.5,0.5-0.8,0.6c-0.3,0.2-0.6,0.4-0.9,0.6c-0.4,0.4-0.9,0.5-1.3,0.9
		c-0.5,0.4-1.1,0.7-1.7,0.9c-1,0.6-2,0.9-3.1,1.4c-0.7,0.2-1.4,0.5-2.1,0.6c-0.5,0.1-0.9,0.3-1.4,0.4c-0.9,0.1-1.8,0.3-2.8,0.4
		c-0.1,0-0.3-0.1-0.4-0.1c0-0.4,0-0.8,0-1.2c0.5-0.5,1-1,1.5-1.5c0.4,0,0.7-0.4,1.1-0.4c2.7-0.5,5.3-1.6,7.7-3.1
		c0.4-0.2,0.7-0.5,1.1-0.7c0.7-0.4,1.3-1,1.9-1.5c0.4-0.4,0.8-0.7,1.2-1.1C125.7,33,125.5,32.9,125.3,32.9z"/>
	<path class="st29" d="M129.7,32.5c1.1,0,2.2,0,3.2,0.1c0,0.7,0,1.5-0.2,2.2c-0.3,0.9-0.6,1.9-0.9,2.8c0-0.4-0.1-0.7-0.3-1
		c0,0.3,0.1,0.6-0.1,0.8c-0.1,0.1-0.2,0.2-0.3,0.4c-0.1,0-0.1-0.1-0.2-0.1c0,0.2-0.1,0.4-0.1,0.5c-0.3,0.3-0.6,0.5-1,0.5
		c0,0.1,0,0.2,0,0.4c-0.4,0.4-0.8,0.7-1.3,1c-0.4,0.4-0.9,0.9-1.3,1.3c-0.3,0.2-0.7,0.1-1,0.4c-0.2,0.2-0.4,0.4-0.5,0.7
		c-0.2,0-0.4,0-0.6,0c-0.2,0.1-0.1,0.4-0.3,0.5c-0.2,0.2-0.5,0.2-0.8,0.3c-0.4,0.5-1,0.8-1.6,0.8c-0.4,0.5-1,0.8-1.6,0.8
		c-0.4,0-0.7,0.4-1.1,0.5c-0.3,0.1-0.6,0.3-0.9,0.1c-0.1,0.1-0.2,0.3-0.4,0.3c-1,0-1.8,0.8-2.8,0.6c-0.3,0.3-0.6,0.2-0.9,0.3
		c-0.5,0.1-1.1,0.2-1.6,0.4c-0.4,0.1-0.7-0.2-1.1,0c-0.1-0.1-0.1-0.2-0.2-0.3c-0.1,0.3-0.2,0.6-0.2,1c-0.1-1.7-0.1-3.4-0.2-5.1
		c0.1,0,0.3,0.1,0.4,0.1c0.9-0.1,1.8-0.3,2.8-0.4c0.5-0.1,0.9-0.3,1.4-0.4c0.7-0.2,1.4-0.4,2.1-0.6c1-0.5,2.1-0.8,3.1-1.4
		c0.6-0.2,1.2-0.6,1.7-0.9c0.4-0.4,0.9-0.5,1.3-0.9c0.3-0.2,0.6-0.5,0.9-0.6c0.3-0.1,0.5-0.5,0.8-0.6c0.4-0.2,0.6-0.7,0.9-0.9
		c0.6-0.6,1.2-1.2,1.8-1.8c0.2-0.3,0.5-0.6,0.9-0.9C129.5,33,129.6,32.8,129.7,32.5z"/>
	<path class="st31" d="M89.2,33.3c0-0.2,0.1-0.5,0.4-0.6c0.7-0.1,1.4,0,2.1,0c0.7,0.1,1.4,0.2,2,0.3c0.5,0.5,0.9,0.9,1.4,1.4
		c-1,0.4-2,0.8-3,1.3c-0.1-0.1-0.2-0.2-0.2-0.3c-0.1,0.2-0.2,0.3-0.4,0.5c0-0.1,0-0.3,0-0.4c0,0-0.1,0-0.1,0
		c-0.2-0.2-0.4-0.3-0.6-0.5c-0.2-0.1-0.1-0.4-0.3-0.5c-0.2-0.2-0.5-0.2-0.6-0.5C89.6,33.7,89.4,33.5,89.2,33.3z"/>
	<path class="st32" d="M114,33.6c0.2-0.2,0.4,0.1,0.5,0.3c0.1-0.1,0.1-0.2,0.2-0.3c0.3,0.3,0.5,0.5,0.8,0.8c-0.5,0.2-1,0.5-1.5,0.5
		c-0.9,0.2-1.9,0.4-2.8,0.5c-1.1,0.2-2.2,0.1-3.3,0.1c-0.2,0-0.4,0.1-0.6,0.2c0-0.1,0-0.2,0-0.3c0.1-0.3,0.1-0.7-0.1-1
		c1.1,0,2.2,0.1,3.3,0c0.7-0.2,1.5-0.1,2.2-0.3C113.1,34,113.6,33.8,114,33.6z"/>
	<path class="st33" d="M85.7,34.5c0.2,0.2,0.4,0.5,0.6,0.7c0.2,0.3,0.4,0.5,0.6,0.8c0.2,0.4,0.6,0.7,1,1.1c0.5,0.5,1,1.1,1.6,1.5
		c0.3,0.2,0.5,0.5,0.8,0.7c0.5,0.3,0.8,0.7,1.2,1c0.4,0.2,0.6,0.6,1,0.7c0.5,0.2,0.9,0.7,1.4,0.9c1.1,0.7,2.3,1.2,3.4,1.8
		c0.8,0.5,1.8,0.7,2.7,1c0.8,0.2,1.5,0.6,2.3,0.7c0.8,0.2,1.5,0.4,2.3,0.4c0.5,0,1,0.2,1.5,0.2c0.2,0,0.3-0.1,0.4-0.2
		c0.1,0.1,0.3,0.3,0.4,0.4c0,1-0.1,2-0.1,3c-0.9,0.4-1.8,0-2.7-0.2c-0.9-0.1-1.8-0.3-2.7-0.5c-0.6-0.2-1.3-0.4-2-0.6
		c-0.5,0-0.9-0.3-1.3-0.4c-0.5-0.1-1-0.5-1.5-0.6c-0.5-0.3-1.1-0.5-1.6-0.7c-0.6-0.5-1.5-0.6-2-1.2c-0.4-0.1-0.7-0.4-1.1-0.5
		c-0.2-0.1-0.4-0.2-0.5-0.4c-0.2-0.2-0.5-0.2-0.7-0.4c-0.2-0.2-0.5-0.6-0.8-0.4c-1.6-2.1-2.8-4.6-3.6-7.1c-0.1-0.3-0.3-0.5-0.4-0.8
		c0-0.2-0.1-0.3-0.1-0.5c0,0-0.1,0-0.2,0c0,0,0-0.1,0.1-0.1C85.6,34.7,85.7,34.6,85.7,34.5 M85.9,35.5c0.2-0.1,0-0.4,0-0.6
		C85.7,35,85.9,35.3,85.9,35.5z"/>
	<path class="st34" d="M113.9,35c0.5-0.1,1-0.4,1.5-0.5c0.1,0,0.2,0.1,0.3,0.1c0.1,0.1,0.2,0.1,0.2,0.2c-1.8,1.8-3.6,3.6-5.4,5.4
		c-1.1-1.1-2.2-2.2-3.2-3.2c0-0.4-0.1-0.8-0.2-1.2c0.2-0.1,0.4-0.2,0.6-0.2c1.1,0.1,2.2,0.1,3.3-0.1C112.1,35.4,113,35.1,113.9,35z"
		/>
	<path class="st35" d="M84.3,34.7c0.4,0,0.8,0.1,1.2,0.2c0,0,0.1,0,0.2,0c0,0.2,0,0.3,0.1,0.5c0.1,0.3,0.3,0.5,0.4,0.8
		c0.8,2.6,2,5,3.6,7.1c2,2.7,4.5,4.9,7.4,6.6c2.9,1.7,6.2,2.7,9.5,3.1c1.5,0.2,3,0.2,4.6,0.1c1.4,0,2.8-0.3,4.1-0.6
		c0.7-0.2,1.5-0.4,2.2-0.8c3.5-1.3,6.7-3.4,9.2-6.1c2.2-2.3,3.9-5,5.1-7.9c0.4-0.9,0.6-1.9,0.9-2.8c0.5,0,0.9-0.1,1.4-0.2
		c-0.3,3.9-1.6,7.7-3.7,11c-2,3.2-4.7,5.9-7.9,7.9c-3.7,2.3-7.9,3.7-12.3,3.9c-3.7,0.2-7.4-0.5-10.8-1.9c-4.5-1.9-8.4-5.1-11.1-9.2
		C86.1,42.9,84.7,38.8,84.3,34.7z"/>
	<path class="st36" d="M85.9,35.5c0-0.2-0.2-0.5,0-0.6C85.9,35.1,86.1,35.4,85.9,35.5z"/>
	<path class="st37" d="M99.1,36.4c2.4,0.1,4.7,0.4,7,1.1c0.4,0.3,0.8,0.8,1.2,1.1c-0.1,1.9-0.1,3.8-0.3,5.7
		C104.4,41.7,101.7,39.1,99.1,36.4z"/>
	<path class="st22" d="M94.3,36.7c1-0.2,1.9-0.2,2.9-0.3c1.4,1.5,2.9,2.9,4.3,4.3c0,0.5,0.5,0.7,0.7,1c-0.3-0.1-0.6-0.2-0.9-0.4
		c-0.3,0.1-0.6,0-0.9,0c-0.1-0.1-0.2-0.3-0.3-0.4c-0.5,0.1-0.9-0.2-1.4-0.3c-0.4-0.1-0.7-0.4-1-0.6c-0.2-0.2-0.5-0.2-0.8-0.2
		c-0.1-0.2-0.3-0.4-0.5-0.5c-0.3-0.2-0.6-0.2-0.9-0.5c-0.4-0.4-0.9-0.7-1.5-0.7c-0.3,0-0.1-0.4-0.3-0.5c-0.3-0.2-0.6-0.3-0.8-0.5
		c0.5-0.2,1.1-0.3,1.6-0.4C94.5,36.8,94.3,36.7,94.3,36.7z"/>
	<path class="st38" d="M131.6,36.6c0.2,0.3,0.3,0.7,0.3,1c-1.1,2.9-2.9,5.7-5.1,7.9c-2.6,2.7-5.7,4.8-9.2,6.1
		c-0.6,0.1-1.2,0.4-1.8,0.5c-1.3,0.4-2.6,0.6-3.9,0.8c0-1.8-0.1-3.5-0.2-5.3c0-0.3,0.1-0.7,0.2-1c0.1,0.1,0.1,0.2,0.2,0.3
		c0.4-0.1,0.7,0.2,1.1,0c0.5-0.1,1.1-0.2,1.6-0.4c0.3-0.1,0.7-0.1,0.9-0.3c1,0.2,1.8-0.5,2.8-0.6c0.2,0,0.3-0.2,0.4-0.3
		c0.3,0.2,0.6,0,0.9-0.1c0.4-0.1,0.7-0.5,1.1-0.5c0.6,0,1.2-0.4,1.6-0.8c0.6,0,1.2-0.3,1.6-0.8c0.3,0,0.6-0.1,0.8-0.3
		c0.2-0.1,0.1-0.4,0.3-0.5c0.2,0,0.4,0,0.6,0c0.2-0.2,0.3-0.5,0.5-0.7c0.2-0.3,0.7-0.1,1-0.4c0.5-0.4,0.9-0.8,1.3-1.3
		c0.5-0.3,0.9-0.6,1.3-1c0-0.1,0-0.2,0-0.4c0.4,0,0.7-0.3,1-0.5c0-0.2,0.1-0.4,0.1-0.5c0.1,0,0.1,0.1,0.2,0.1
		c0.1-0.1,0.2-0.2,0.3-0.4C131.7,37.2,131.6,36.9,131.6,36.6z"/>
	<path class="st39" d="M89.8,43.3c0.4-0.2,0.6,0.2,0.8,0.4c0.2,0.2,0.5,0.2,0.7,0.4c0.2,0.2,0.3,0.3,0.5,0.4
		c0.4,0.2,0.7,0.5,1.1,0.5c0.5,0.6,1.4,0.7,2,1.2c0.6,0.2,1.1,0.5,1.6,0.7c0.5,0.1,1,0.5,1.5,0.6c0.4,0.1,0.8,0.4,1.3,0.4
		c0.7,0.2,1.3,0.3,2,0.6c0.9,0.2,1.8,0.4,2.7,0.5c0.9,0.1,1.8,0.5,2.7,0.2c0,1.3-0.1,2.5-0.2,3.8c-3.3-0.3-6.6-1.4-9.5-3.1
		C94.3,48.2,91.8,46,89.8,43.3z"/>
</g>
<g>
	<path class="st40" d="M166.5,33.7c0-5.9,2.3-11.5,6.5-15.7c4.2-4.2,9.7-6.5,15.7-6.5c5.9,0,11.5,2.3,15.7,6.5
		c4.2,4.2,6.5,9.7,6.5,15.7c0,5.9-2.3,11.5-6.5,15.7c-4.2,4.2-9.7,6.5-15.7,6.5c-5.9,0-11.5-2.3-15.7-6.5
		C168.8,45.2,166.5,39.6,166.5,33.7L166.5,33.7z M163.6,33.7c0,6.7,2.6,13,7.3,17.7c4.7,4.7,11,7.3,17.7,7.3c6.7,0,13-2.6,17.7-7.3
		c4.7-4.7,7.3-11,7.3-17.7c0-6.7-2.6-13-7.3-17.7c-4.7-4.7-11-7.3-17.7-7.3c-6.7,0-13,2.6-17.7,7.3C166.2,20.7,163.6,27,163.6,33.7
		L163.6,33.7z"/>
	<path class="st40" d="M189,23.3l7.4-5.1l7.9,5.3v20.3l-7.5,5l-7.6-4.9l-7.9,5.1l-8.4-5.1l0.1-20.5l7.8-5.4L189,23.3L189,23.3z
		 M181,20.3l-6.2,4.2l27.7,18.1l0.1-18l-5.8-3.8v9.8L181,20.3L181,20.3z M187.3,43l-6-3.9v7.8L187.3,43L187.3,43z"/>
</g>
<path class="st41" d="M280.1,12.3c-0.1-1.2-0.8-2.2-2-2.5c-3.1-0.7-9.9-2-17.8-2c-7.9,0-14.7,1.3-17.8,2c-1.1,0.2-1.8,1.2-2,2.5
	c-0.5,5-1.5,18-1,23.1c1.3,12.3,10.2,20,20.7,23.6c1.4-0.5,2.7-1,4-1.6l-17.9-35.8l-1.8-1.3c-0.3-0.2-0.4-0.5-0.4-0.9v-5.6
	c0-0.3,0.2-0.6,0.5-0.6c0.1,0,0.2,0,0.3,0.1l4.3,3.3c0.3,0.2,0.4,0.6,0.4,0.9l0,2.2c2-1.2,4.5-1.7,7-1.6c3.9,0.2,6.7,2.9,11.4,3.2
	c3.8,0.2,6.4-1.1,8.4-2.3c0.2,2.8,0.4,6,0.5,8.8l0.1,2.8c-2.1,1.8-5.7,3.4-7.7,3.4c-3.3,0-5.6-2.2-8.7-2.2c-1.5,0-2.9,0.5-4.1,1.3
	l11.1,22.3c7.1-4.2,12.4-10.9,13.3-20.2C281.6,30.2,280.5,17.3,280.1,12.3z M258.2,53.7l-1-0.5c-7.3-3.6-12.6-9.7-13.5-18.2
	c-0.2-2.3-0.1-6.6,0.1-10.9L258.2,53.7z M268.2,17.7c-4.7-0.3-7.3-2.8-11.3-3c-1.4-0.1-2.9,0.1-4.2,0.5l-3.6-2.4l0.1,0
	c3.1-0.4,6.9-0.8,11-0.8c6.7,0,12.5,1,15.8,1.6l0.2,1.9C274.4,16.7,271.8,17.9,268.2,17.7z M269,49.6l-6-12.1
	c-0.5-1-1.2-1.6-1.2-1.6c1.9,0.6,4.1,2.1,7.7,2.1c3.5,0,6.4-2.1,7.6-3.2C276.4,41.1,273.4,46,269,49.6z"/>
<g>
	<path class="st42" d="M329.1,51.3c0.9,0,1.8,0.1,2.6,0c0.4-0.1,0.9-0.4,1.3-0.7c0.7-0.6,0.7-1.7-0.1-2.2c-0.4-0.3-1-0.6-1.5-0.6
		c-1.4-0.1-2.9,0-4.4,0c0,2,0,4,0,6.1c0.6,0,1.1,0,1.7,0c0-1.8,0-3.7,0-5.5c0.5,0,1,0,1.5,0c0.8,0,1.3,0.6,1.4,1.2
		c0,0.7-0.6,1.3-1.4,1.3c-0.3,0-0.6,0-0.9,0C329.1,50.8,329,51,329.1,51.3z M346.9,50.3c0-0.7,0-1.3,0-2.1c1.2,0,2.3,0,3.5,0
		c0-0.2,0-0.4,0-0.5c-1.8,0-3.5,0-5.2,0c0,2,0,4,0,6c1.8,0,3.5,0,5.3,0c0-0.2,0-0.3-0.1-0.5c-1.2,0-2.3,0-3.5,0c0-0.8,0-1.6,0-2.4
		c1.1,0,2.2,0,3.2,0c0-0.2,0-0.3,0-0.5C349.1,50.3,348,50.3,346.9,50.3z M317.6,52.1c-1,1-2.1,1.4-3.5,1.2c-1.3-0.2-2-1-2.1-2.2
		c-0.1-1.4,0.5-2.5,1.8-2.8c1.2-0.3,2.3-0.2,3.3,0.6c0.3,0.2,0.6,0.3,0.9-0.1c-0.5-0.3-0.9-0.7-1.4-0.8c-1.6-0.6-3.2-0.5-4.7,0.3
		c-1,0.5-1.7,1.3-1.7,2.6c0,1.2,0.7,2,1.8,2.5c1.5,0.7,3.1,0.8,4.7,0.2c0.6-0.2,1.2-0.6,1.6-1.3C317.9,52.2,317.8,52.1,317.6,52.1z
		 M322.1,47.5c-1.3,2.1-2.5,4.2-3.7,6.2c0.6,0.2,0.9,0.1,1.2-0.5c0.3-0.6,0.7-1.2,1.1-1.8c0.3-0.6,0.7-1.1,1-1.7
		c0.3,0.6,0.6,1.1,1,1.7c-0.4,0-0.8,0-1.1,0c-0.4,0-0.7,0-0.8,0.5c0.1,0,0.2,0,0.3,0c0.6,0,1.4-0.2,1.8,0.1c0.5,0.3,0.7,1,1.1,1.5
		c0,0,0,0.1,0.1,0.1c0.1,0.1,0.2,0.2,0.3,0.2c0.5,0,1.1,0,1.7,0C324.7,51.7,323.4,49.7,322.1,47.5z M337.6,47.7c0,0.2,0,0.3,0,0.5
		c0.8,0,1.5,0,2.3,0c0,1.9,0,3.7,0,5.5c0.6,0,1.1,0,1.7,0c0-1.8,0-3.7,0-5.5c0.8,0,1.6,0,2.3,0c0-0.2,0-0.4,0-0.5
		C341.9,47.7,339.8,47.7,337.6,47.7z M336.4,53.8c0-2,0-4,0-6c-0.6,0-1.1,0-1.7,0c0,2,0,4,0,6C335.3,53.8,335.9,53.8,336.4,53.8z"/>
	<path class="st43" d="M318.5,44.7c-1-0.3-2-0.5-3-0.8c-7.6-2.3-12.6-8.8-12.5-16.6c0.1-6.4,4.8-12.6,11.5-15
		c1.7-0.6,3.5-0.9,5.5-1.3c0,3.1,0,5.9,0,8.6c0,1,0,1.9,0.2,2.9c0.8,3.5,3.9,5.9,7.5,6c3.9,0,7.7,0,11.6,0c4.4,0,7,2.6,7,7
		c0,3.1,0,6.1,0,9.2C337.1,44.7,327.8,44.7,318.5,44.7z"/>
	<path class="st44" d="M352.2,11.1c0.7,0.2,1.3,0.4,2,0.5c8.3,2,13.9,9,13.5,17.3c-0.3,6.5-5.2,12.5-12,14.8
		c-0.9,0.3-1.8,0.5-2.8,0.7c-0.1-0.5-0.1-0.8-0.1-1.1c0-2.5,0-5,0-7.5c0-5.3-3.3-8.6-8.6-8.6c-3.7,0-7.4,0-11,0
		c-4.2,0-6.8-2.6-6.8-6.8c0-3.1,0-6.2,0-9.3C335,11.1,343.6,11.1,352.2,11.1z"/>
	<path class="st42" d="M359.5,52.5c-0.7,0.7-1.5,1.2-2.5,1.4c-1.3,0.2-2.5,0.1-3.7-0.4c-1.1-0.5-1.8-1.3-1.8-2.6
		c0-1.2,0.7-2,1.7-2.5c1.5-0.8,3.1-0.8,4.7-0.3c0.5,0.2,0.9,0.5,1.5,0.8c-0.4,0.4-0.7,0.3-1,0.1c-1.1-0.9-2.2-1-3.5-0.5
		c-1.1,0.4-1.7,1.5-1.5,2.8c0.1,1.2,0.9,1.9,2.1,2.1c1.4,0.2,2.3,0,3.6-1.2c0.2,0.1,0.3,0.1,0.5,0.2
		C359.5,52.3,359.5,52.4,359.5,52.5z"/>
	<path class="st42" d="M311.2,58.8c0-1,0-1.9,0-2.9c0.8,0,1.6-0.1,2.3,0c0.8,0.1,0.9,0.6,0.4,1.2c0.6,0.5,0.7,0.9,0.3,1.3
		c-0.2,0.1-0.4,0.2-0.5,0.4C312.9,58.8,312,58.8,311.2,58.8z M312.1,58.5c0.4,0,0.7,0,1,0c0.3,0,0.6-0.2,0.6-0.6
		c0-0.4-0.2-0.6-0.5-0.6c-0.3,0-0.7,0-1,0C312.1,57.7,312.1,58.1,312.1,58.5z M312.1,57c0.4,0,0.7,0.1,1,0c0.2-0.1,0.5-0.3,0.5-0.5
		c0-0.2-0.3-0.4-0.4-0.5c-0.3-0.1-0.6,0-1,0C312.1,56.4,312.1,56.7,312.1,57z"/>
	<path class="st42" d="M319,58.8c0-0.9,0-1.9,0-2.9c0.5-0.1,0.9-0.1,1.3,0.3c0.5,0.5,1.1,0.9,1.7,1.5c0-0.6,0-1,0-1.5
		c0-0.1,0.1-0.2,0.2-0.3c0.1,0.1,0.2,0.2,0.2,0.3c0,0.9,0,1.7,0,2.6c-0.2,0-0.3,0-0.5,0c-0.8-0.7-1.6-1.5-2.5-2.3c0,0.9,0,1.6,0,2.3
		C319.3,58.8,319.1,58.8,319,58.8z"/>
	<path class="st42" d="M314.7,58.8c0.6-1,1.2-2,1.8-3c0.7,1,1.3,2,1.9,3c-0.3,0-0.6,0-0.9,0c-0.2-0.3-0.3-0.7-0.6-0.8
		c-0.8-0.3-1.4,0-1.8,0.8C315,58.8,314.9,58.8,314.7,58.8z M316.9,57.7c-0.2-0.3-0.4-0.6-0.6-1c-0.2,0.4-0.4,0.7-0.6,1
		C316.2,57.7,316.5,57.7,316.9,57.7z"/>
	<path class="st42" d="M323.3,58.8c0-1,0-1.9,0-2.9c0.3,0,0.5,0,0.8,0c0,1,0,1.9,0,2.9C323.9,58.8,323.6,58.8,323.3,58.8z"/>
	<path class="st42" d="M325.7,58.8c-0.5-0.5-1-0.9-1.5-1.5c0.8-0.5,1.2-1.3,2-1.5c0,0,0.1,0.1,0.1,0.1c-0.4,0.4-0.8,0.8-1.3,1.2
		c0.5,0.6,1,1.1,1.5,1.7C326.2,58.8,325.9,58.8,325.7,58.8z"/>
	<path class="st42" d="M329.1,51.3c-0.1-0.3,0-0.5,0.4-0.5c0.3,0,0.6,0,0.9,0c0.8-0.1,1.4-0.6,1.4-1.3c0-0.7-0.6-1.2-1.4-1.2
		c-0.5,0-1,0-1.5,0c0,1.9,0,3.7,0,5.5c-0.6,0-1.2,0-1.7,0c0-2,0-4,0-6.1c1.5,0,2.9-0.1,4.4,0c0.5,0,1,0.3,1.5,0.6
		c0.7,0.6,0.8,1.6,0.1,2.2c-0.3,0.3-0.8,0.6-1.3,0.7C330.9,51.4,330,51.3,329.1,51.3z"/>
	<path class="st42" d="M346.9,50.3c1.1,0,2.2,0,3.2,0c0,0.2,0,0.3,0,0.5c-1.1,0-2.1,0-3.2,0c0,0.8,0,1.6,0,2.4c1.1,0,2.3,0,3.5,0
		c0,0.2,0,0.3,0.1,0.5c-1.8,0-3.5,0-5.3,0c0-2,0-4,0-6c1.7,0,3.5,0,5.2,0c0,0.1,0,0.3,0,0.5c-1.2,0-2.3,0-3.5,0
		C346.9,49,346.9,49.6,346.9,50.3z"/>
	<path class="st42" d="M317.6,52.1c0.2,0.1,0.3,0.1,0.5,0.2c-0.4,0.6-0.9,1-1.6,1.3c-1.6,0.6-3.2,0.5-4.7-0.2
		c-1.1-0.5-1.8-1.3-1.8-2.5c0-1.2,0.7-2,1.7-2.6c1.5-0.8,3.1-0.9,4.7-0.3c0.5,0.2,0.9,0.5,1.4,0.8c-0.4,0.4-0.6,0.3-0.9,0.1
		c-1-0.9-2.1-1-3.3-0.6c-1.2,0.4-1.9,1.4-1.8,2.8c0.1,1.2,0.8,2,2.1,2.2C315.5,53.5,316.6,53.1,317.6,52.1z"/>
	<path class="st42" d="M322.1,47.5c1.3,2.1,2.6,4.2,3.9,6.3c-0.6,0-1.2,0-1.7,0c-0.1,0-0.2-0.1-0.3-0.2c0,0,0-0.1-0.1-0.1
		c-0.3-0.5-0.6-1.3-1.1-1.5c-0.5-0.3-1.2-0.1-1.8-0.1c-0.1,0-0.2,0-0.3,0c0.1-0.5,0.4-0.6,0.8-0.5c0.3,0,0.7,0,1.1,0
		c-0.3-0.6-0.6-1.1-1-1.7c-0.4,0.6-0.7,1.2-1,1.7c-0.4,0.6-0.8,1.2-1.1,1.8c-0.3,0.5-0.6,0.6-1.2,0.5
		C319.6,51.7,320.9,49.7,322.1,47.5z"/>
	<path class="st42" d="M337.6,47.7c2.2,0,4.3,0,6.4,0c0,0.2,0,0.3,0,0.5c-0.8,0-1.5,0-2.3,0c0,1.9,0,3.7,0,5.5c-0.6,0-1.1,0-1.7,0
		c0-1.8,0-3.6,0-5.5c-0.8,0-1.6,0-2.3,0C337.6,48.1,337.6,47.9,337.6,47.7z"/>
	<path class="st42" d="M336.4,53.8c-0.6,0-1.1,0-1.7,0c0-2,0-4,0-6c0.6,0,1.1,0,1.7,0C336.4,49.7,336.4,51.7,336.4,53.8z"/>
</g>
</svg>
