<?xml version="1.0" encoding="utf-8"?>
<!-- Generator: Adobe Illustrator 21.1.0, SVG Export Plug-In . SVG Version: 6.00 Build 0)  -->
<svg version="1.1" id="Layer_1" xmlns="http://www.w3.org/2000/svg" xmlns:xlink="http://www.w3.org/1999/xlink" x="0px" y="0px"
	 viewBox="0 0 660.7 176" style="enable-background:new 0 0 660.7 176;" xml:space="preserve">
<style type="text/css">
	.st0{fill:#FBAA19;}
	.st1{fill:#F28019;}
	.st2{fill:#FFFFFF;}
	.st3{stroke:#000000;stroke-width:2;stroke-miterlimit:10;}
</style>
<rect x="758.6" y="236.8" transform="matrix(6.123234e-17 -1 1 6.123234e-17 543.6629 1031.0287)" class="st0" width="57.4" height="13.9"/>
<path d="M229-93.2c-0.7-1.1-1.3-1.8-1.5-2.6c-0.1-0.3,0.7-0.9,1-1.3c0.6,0.7,1.3,1.5,1.7,2.2C230.3-94.7,229.6-94.1,229-93.2z"/>
<path d="M777.3,217.1c0,0.1-0.1,0.2-0.1,0.3c0,4.7,0,29.7,0,37c-0.1,0-0.1,0-0.2,0c0,5-0.3,9.7,0.1,14.3c0.2,3.6,3.9,6.6,7.8,6.8
	c1.7,0.1,3.3,0.1,5,0c4.5-0.2,8.2-3.6,8.2-8.3c0.1-15.8,0.1-31.7,0-47.6c0-4.3-3.4-7.8-7.6-8.3C783.5,210.5,778.8,212.6,777.3,217.1
	z M790,216.6c2.1,0.1,3,1,3,3c0,15.8,0,31.7,0,47.6c0,2.1-0.9,3.1-3,3c-0.9-0.1-1.8,0-2.7,0c-5.2,0-5.3,0-5.3-5.4c0-3,0-6.2,0-9.3
	c0,0,0,0,0.1,0c0-2.9,0-28.8,0-31.6C782.1,216.1,782.1,216.2,790,216.6z"/>
<path d="M817.8,158.1c-11.4,1.5-20.6,7-27.8,15.8c-7.4,9-9.6,19.2-9.5,30.9l-0.2,8.1h5.2v-8.1h0c0-1.9-0.1-3.6,0-5.3
	c0.6-20.9,17.2-36.7,38.4-36.5c20.5,0.2,36.8,16.8,36.8,37.4c0,28.8,0,57.7,0,86.5c0,19.2-14.6,35.2-33.7,37
	c-19.6,1.9-37.2-11.1-40.6-30.2c-0.7-4.1-0.8-8.3-1.1-12.5c0,0,0,0-0.1,0v-7.2h-4.5v8.1h0c-1,21.6,12.2,40.9,32.2,45.8
	c2,0.5,11.8,1.7,14.6,1.3c6.5-0.8,12.7-3.1,18.3-6.9c10.9-7.4,17.8-17.4,19.6-30.7c0.1-0.5,0.3-1,0.5-1.5c0-31.1,0-62.3,0-93.4
	c-1.2-6.6-3-13-6.8-18.7c-7.4-10.9-17.3-18.2-30.5-19.8C825.6,157.7,818.2,158,817.8,158.1z"/>
<path d="M799.4,179.4c-6.3,7.1-8.4,15.3-8.1,24.4l-0.1,11.2h5.3v-11.2c0,0-0.1-2.8,0-4.1c0.3-9.7,4.4-17.2,12.7-22.3
	c18.3-11.1,40.7,1.6,41,23.3c0.1,10.8,0,21.7,0,32.5c0,17.9,0.2,35.8-0.1,53.7c-0.3,14.7-10.9,25.2-25.4,26.3
	c-13.3,1-25.2-8.4-27.8-22.3c-0.5-3.2-0.3-6.5-0.5-9.9c-0.2,0,0.1-10.4,0.1-10.4h-5.1v11.8h0c0,1.3,0,2.5,0.1,3.7
	c0.1,17.4,14.6,32.1,31.7,32.2c17.2,0.2,32.2-14.4,32.3-31.9c0.2-28.8,0.1-57.5,0-86.1c-0.1-13.3-8.8-25.3-21.3-30
	C821.9,165.8,808.3,169.3,799.4,179.4z"/>
<g>
	<path d="M453.7,103.6H415c-2.5,0-4.5-2-4.5-4.5l0,0c0-2.5,2-4.5,4.5-4.5h38.7c2.5,0,4.5,2,4.5,4.5l0,0
		C458.2,101.6,456.2,103.6,453.7,103.6z"/>
	<path d="M474.9,103.6H470c-2.5,0-4.5-2-4.5-4.5l0,0c0-2.5,2-4.5,4.5-4.5h4.9c2.5,0,4.5,2,4.5,4.5l0,0
		C479.4,101.6,477.4,103.6,474.9,103.6z"/>
	<path d="M398.7,103.6h-13c-2.5,0-4.5-2-4.5-4.5l0,0c0-2.5,2-4.5,4.5-4.5h13c2.5,0,4.5,2,4.5,4.5l0,0
		C403.2,101.6,401.2,103.6,398.7,103.6z"/>
</g>
<g id="_x35_eYWNM_1_">
	<g>
		<path d="M292,142.8c-0.6-0.2-1.2-0.4-1.8-0.4c-5.9-1.6-10.2-6.9-10.6-13c-0.4-5.7-1.1-11.5-1.6-17.2c-0.6-6.4-1.2-12.8-1.9-19.3
			c-0.4-4.6-0.6-9.1-1.3-13.7c-0.9-5.7,2.9-12.2,9-14.5c1.6-0.6,3.4-0.8,5.2-1c2.3-0.2,4.6,0,7,0c0-0.6,0-1.1,0-1.6
			c0-5.7,0.2-11.4,0-17.1c-0.7-14.9,11.2-24.2,21.1-26.3c13.4-2.9,28.1,6.2,31.1,19.5c0.4,1.7,0.5,3.5,0.5,5.3
			c0.1,6.2,0,12.5,0,18.7c0,0.4,0,0.9,0,1.5c2.5,0,4.8-0.1,7.2,0c6,0.2,10.3,3.1,12.9,8.4c1.3,2.8,1.2,5.6,0.9,8.6
			c-0.8,8.3-1.6,16.5-2.4,24.8c-0.7,7.2-1.4,14.5-2.1,21.8c-0.2,1.4-0.2,2.9-0.5,4.4c-1.5,5.9-5.4,9.5-11.2,10.8
			c-0.3,0.1-0.4,0.2-0.7,0.3C332.5,142.8,312.2,142.8,292,142.8z M322.4,68.9c-2.7,0-5.4,0-8,0c-8.5,0-17,0-25.5,0
			c-5.9,0-9.3,3.7-8.7,9.5c0.8,8.6,1.6,17.2,2.5,25.8c0.8,8.7,1.6,17.5,2.5,26.1c0.4,3.3,2.5,5.9,5.7,6.7c1.4,0.4,2.9,0.4,4.4,0.4
			c8.8,0,17.6,0,26.4,0c9.8,0,19.6,0,29.4,0c4.8,0,8.3-2.9,8.7-7.2c0.6-6.8,1.2-13.5,2-20.3c1-10.1,2-20.3,2.9-30.3
			c0.2-1.5,0.3-3.1-0.1-4.6c-0.8-3.9-4-6.2-8.7-6.2C344.6,68.9,333.5,68.9,322.4,68.9z M301.2,63.7c14.1,0,28,0,42,0
			c0-0.2,0.1-0.4,0.1-0.5c0-7.2,0.1-14.4-0.1-21.6c-0.1-4-1.6-7.7-4.3-10.6c-5.6-6.4-12.8-8.7-21.1-7.1c-9.9,1.8-17,10-16.8,19.7
			c0.2,6.2,0,12.4,0,18.6C301.2,62.7,301.2,63.1,301.2,63.7z"/>
		<path d="M322.3,121.7c-1.8,0-3.7,0-5.4,0c-1.9,0-2.9-0.8-3-2.7c-0.7-5.7-1.4-11.4-2.1-17.1c-0.4-4.6,1.7-7.8,5.4-10
			c3.7-2.2,7.5-2.1,11.1,0.4c3.6,2.5,5.3,5.8,4.6,10.3c-0.7,5.2-1.3,10.4-1.9,15.5c-0.4,2.9-1,3.6-4,3.6c-0.8,0-1.6,0-2.3,0
			C323.9,121.7,323.1,121.7,322.3,121.7L322.3,121.7z M322.3,116.5L322.3,116.5c0.8-0.1,1.6-0.2,2.5-0.1s1.2-0.3,1.2-1.2
			c0.4-3.3,0.8-6.5,1.2-9.8c0.2-1.3,0.3-2.6,0.4-3.9c0.3-2.1-0.2-3.9-2.1-5.1c-2.1-1.2-4.5-1.3-6.6-0.1c-1.9,1.1-2.4,2.9-2.1,5
			c0.4,3.8,0.9,7.6,1.4,11.4c0.2,1.2-0.1,2.7,0.5,3.3C319.6,116.7,321.1,116.4,322.3,116.5z"/>
		<path class="st1" d="M322.3,116.5c-1.2-0.1-2.7,0.2-3.4-0.4c-0.6-0.6-0.4-2.1-0.5-3.3c-0.4-3.7-1-7.6-1.4-11.4
			c-0.3-2.1,0.3-3.9,2.1-5c2.1-1.2,4.5-1.2,6.6,0.1c1.9,1.2,2.3,3,2.1,5.1c-0.2,1.3-0.3,2.6-0.4,3.9c-0.4,3.3-0.8,6.5-1.2,9.8
			c-0.1,0.9-0.4,1.2-1.2,1.2C324.1,116.3,323.3,116.4,322.3,116.5C322.3,116.5,322.3,116.5,322.3,116.5z"/>
	</g>
</g>
<g>
	<path class="st0" d="M105.2,54.9c0-0.2,0.1-0.3,0-0.4c-1.8-3.4-3.5-6.7-5.3-10.1c-0.2-0.3-0.8-0.5-1.2-0.5
		c-5.7,0.5-10.8-1-15.3-4.6c-0.7-0.6-1.3-0.7-2.2-0.2C72,44.1,62.8,49,53.5,54c-0.4,0.2-0.7,0.5-1.4,0.9
		C70.1,54.9,87.7,54.9,105.2,54.9z"/>
	<g id="AmNcWF_1_">
		<g>
			<path d="M70.7,138.4c-16.2,0-32.4,0-48.6,0c-6.6,0-10.4-3.7-10.4-10.3c0-25.7,0-51.5,0-77.2c0-5.8,3.9-9.7,9.7-9.7
				c5.4,0,10.8,0,16.2,0c1.4,0,2.3-0.4,3.1-1.4c5.7-6.7,11.4-13.4,17.1-20.1c1.8-2.1,2.6-2.2,4.7-0.4c3.5,2.9,6.9,5.8,10.3,8.8
				c0.8,0.7,1.3,0.7,2.1,0.2c5.9-3.2,11.9-6.4,17.8-9.5c2.3-1.2,3.2-1,4.4,1.4c3.5,6.5,7,13.1,10.4,19.6c0.6,1.1,1.3,1.5,2.5,1.5
				c4-0.1,8,0,12,0c2,0,2.8,0.7,2.8,2.8c0,3.6,0,7.2,0,10.8c0,0.9,0.3,1.4,1,1.8c3.9,2.2,5.9,5.7,5.9,10.1c0,20,0,39.9,0,59.9
				c0,6.8-5.1,11.7-11.9,11.7C103.6,138.5,87.2,138.4,70.7,138.4z M16.2,58.4c0,0.8,0,1.3,0,1.8c0,22.8,0,45.5,0,68.3
				c0,3.7,1.8,5.5,5.5,5.5c32.7,0,65.5,0,98.2,0c4.7,0,7.6-2.9,7.7-7.6c0-4.7,0-9.5,0-14.2c0-0.5-0.1-1-0.1-1.5c-0.9,0-1.5,0-2.2,0
				c-7.1,0-14.2,0.1-21.3-0.1c-7.7-0.1-13.7-6.5-13.5-14.2C90.7,89,96.5,83,104.3,83c7.1,0,14.2,0,21.3,0c0.6,0,1.2,0,1.8,0
				c0-5.9,0.2-11.6-0.1-17.2c-0.1-2.8-1.9-4.9-4.7-5.7c-1.2-0.4-2.5-0.4-3.8-0.4c-31.2,0-62.5,0-93.7,0C22.2,59.6,19.2,60,16.2,58.4
				z M102.6,55.1c0-0.2,0.1-0.3,0-0.4c-1.8-3.4-3.5-6.7-5.3-10.1c-0.2-0.3-0.8-0.5-1.2-0.5c-5.7,0.5-10.8-1-15.3-4.6
				c-0.7-0.6-1.3-0.7-2.2-0.2c-9.2,5-18.5,9.9-27.7,14.8c-0.4,0.2-0.7,0.5-1.4,0.9C67.4,55.1,85,55.1,102.6,55.1z M35,54.7
				c0,0.1,0.1,0.3,0.1,0.4c2.1-0.1,4.3,0.4,6.3-1c1.3-0.9,2.9-1.6,4.3-2.4C56.6,46,67.4,40.2,78.3,34.4c2-1,2.5-1,4.1,0.6
				c4.1,3.9,8.9,5.4,14.5,4.4c2.3-0.4,2.7-0.1,3.8,1.9c2.2,4.1,4.4,8.2,6.5,12.3c1,1.8,1.2,1.9,3.5,1.3
				C105,44.4,99.5,33.9,93.8,23.4C74.1,33.9,54.6,44.3,35,54.7z M35.4,45.8c-5.3,0-10.4-0.1-15.5,0c-1.9,0.1-3.4,1.9-3.7,3.8
				c-0.3,1.8,0.6,4,2.4,4.8c2.2,1,4.6,1,6.9,0.2C29.9,53.2,32.6,49.6,35.4,45.8z M120.5,45.8c-3.2,0-6.3,0-9.6,0
				c1.6,3.1,3.2,6,4.7,8.8c0.1,0.2,0.4,0.4,0.6,0.4c1.4,0,2.8,0,4.3,0C120.5,51.9,120.5,48.9,120.5,45.8z"/>
			<path d="M89.7,162.7c0-0.5,0-1.3,0-2.2c0.5,0,0.9-0.1,1.2,0c0.3,0.1,0.6,0.5,0.9,0.8c-0.3,0.3-0.6,0.6-0.9,0.8
				C90.6,162.4,90.1,162.5,89.7,162.7z"/>
			<path d="M50.5,163.3c-0.2-0.7-0.3-1.1-0.3-1.2c0.6-0.4,0.9-0.6,1.2-0.9c0.3,0.5,0.6,1.1,0.9,1.7c-0.2,0.1-0.3,0.2-0.5,0.2
				c-0.2-0.3-0.3-0.5-0.6-0.9C51,162.6,50.8,162.9,50.5,163.3z"/>
			<path d="M92.5,163.2c0-0.9,0-1.7,0-2.6c0.6,0,1.1-0.1,1.7-0.1c-0.5,0.3-0.9,0.5-1.3,0.7c0.3,0.2,0.6,0.5,0.9,0.7
				c-0.2,0.1-0.6,0.3-1,0.5c0,0.1,0,0.2,0,0.4c0.5,0.1,1,0.3,1.6,0.4C93.7,163.2,93.2,163.2,92.5,163.2z"/>
			<path d="M54.2,161.1c0.3,0.6,0.6,1.2,0.8,1.8c-0.1,0.1-0.3,0.1-0.4,0.2c-0.2-0.3-0.3-0.6-0.5-0.9c-0.2,0.3-0.4,0.6-0.7,1
				c-0.2-0.6-0.3-1-0.4-1C53.5,161.8,53.8,161.6,54.2,161.1z"/>
			<path d="M48.6,161.2c0.3,0.6,0.6,1.1,0.9,1.7c-0.2,0.1-0.3,0.2-0.5,0.2c-0.2-0.3-0.3-0.5-0.5-0.9c-0.2,0.3-0.4,0.5-0.6,0.8
				C46.6,162,48.4,161.9,48.6,161.2z"/>
			<path class="st0" d="M127,105.7c0-6.3,0-12.4,0-18.5c-0.3-0.1-0.4-0.1-0.5-0.1c-7.8,0-15.5-0.1-23.3,0c-2.9,0-5.2,1.5-6.8,3.8
				c-2.2,3.1-2.5,6.4-0.7,9.8c1.8,3.3,4.6,5,8.4,5c6.1,0,12.2,0,18.4,0C123.9,105.7,125.4,105.7,127,105.7z"/>
			<path d="M103.9,90c4.1-0.1,7.1,2.6,7.3,6.5c0.1,3.9-2.7,7-6.5,7.2c-3.9,0.1-7-2.7-7.2-6.5C97.2,93.8,99.9,90,103.9,90z"/>
		</g>
	</g>
	<path class="st0" d="M69.8,32.3c-3.1-2.6-6-5.1-9-7.7c-6.4,7.5-12.7,14.9-19,22.3c0.1,0.1,0.1,0.2,0.2,0.2
		C51.2,42.2,60.4,37.3,69.8,32.3z"/>
	<path class="st2" d="M104.3,94.4c-1.3,0-2.4,1-2.4,2.3c-0.1,1.3,0.9,2.4,2.2,2.4c1.3,0.1,2.5-1,2.5-2.3
		C106.7,95.6,105.6,94.4,104.3,94.4z"/>
</g>
<path d="M256.2,101.3h-38.7c-2.5,0-4.5-2-4.5-4.5l0,0c0-2.5,2-4.5,4.5-4.5h38.7c2.5,0,4.5,2,4.5,4.5l0,0
	C260.7,99.3,258.7,101.3,256.2,101.3z"/>
<path d="M147.7,101.3h-4.9c-2.5,0-4.5-2-4.5-4.5l0,0c0-2.5,2-4.5,4.5-4.5h4.9c2.5,0,4.5,2,4.5,4.5l0,0
	C152.2,99.3,150.2,101.3,147.7,101.3z"/>
<path d="M174.6,101.3h-13c-2.5,0-4.5-2-4.5-4.5l0,0c0-2.5,2-4.5,4.5-4.5h13c2.5,0,4.5,2,4.5,4.5l0,0
	C179.1,99.3,177.1,101.3,174.6,101.3z"/>
<path d="M201.2,101.3h-13c-2.5,0-4.5-2-4.5-4.5l0,0c0-2.5,2-4.5,4.5-4.5h13c2.5,0,4.5,2,4.5,4.5l0,0
	C205.7,99.3,203.7,101.3,201.2,101.3z"/>
<g>
	<g>
		<path class="st3" d="M572.1,40.2c0.7-0.8,1.5-1.5,2.1-2.2c9.1,9.8,18.2,19.6,27.4,29.5c-0.6,0.6-1.4,1.3-2.1,2
			C590.4,59.8,581.3,50,572.1,40.2z"/>
	</g>
	<g>
		<path class="st3" d="M570.2,33.8c-0.6,0.7-1.4,1.4-2.1,2.2c-1-1.1-2-2.2-3-3.3c0.7-0.7,1.4-1.5,2.2-2.3
			C568.2,31.4,569.2,32.6,570.2,33.8z"/>
	</g>
	<path class="st3" d="M620.3,50.1c-2.3-1.2-4.8-1.1-7.4-0.6c0.7-4.2,0.3-8-2.6-11c-2.9-3.1-6.4-3.6-10.3-2.8c0.8-4.3,0.2-8-2.6-11.1
		c-2.8-3-6.4-3.6-10.2-2.7c0.1-0.4,0.1-0.7,0.1-0.9c0.5-3.4,0-6.6-2-9.4c-3.7-4.9-10-4.9-14.6-1.6c-1.8,1.3-3.4,3.1-5.2,4.9
		c-0.3-0.3-29.1,31-29.1,31c-12.7-14.2-26.9,6.6-27.9,9.6c-2.7,8.4-2.5,15.9,2.9,22.8c2.1,2.6,4.4,5,6.7,7.3
		c1.3,1.3,1.5,2.3,0.9,4.1c-6.4,18-12.8,36-19.2,54.1c-1.1,3-0.3,1.1-1.4,4.1c1.1,0.4,2,0.8,3.1,1.2c2.5-7,4.7-13.4,7-19.7l4.6,2.1
		c0.1,0.2,0.1,0.3,0.2,0.5c1.2,3.3,3.5,5.8,6.5,7.2l15.4,7.1h0c1.6,0.7,3.2,1.1,4.8,1.1c2.3,0,4.5-0.7,6.5-2l4.2,2c0,0,0,0,0,0
		c0.1,0,0.2,0.1,0.3,0.1l1.9,0.9l0-0.1c0.3,0.1,0.5,0.2,0.8,0.3c0.3-0.8,4.7-13.9,8.2-23.8c0.3-0.9,0.7-1.3,1.7-1.4
		c2.1-0.2,4.3-0.7,6.4-1.2c4.9,0.1,54.3-55.4,55.1-57.2C627.5,59.2,625.4,52.6,620.3,50.1z M536.2,143.4L536.2,143.4l-15.4-7.1
		c-2.3-1-4-3-4.9-5.5c-0.9-2.5-0.9-5.2,0.1-7.6s2.8-4.3,5.1-5.3c2.3-1,4.8-0.9,7.1,0.1l15.4,7.1c2.3,1,4,3,4.9,5.5
		c0.9,2.5,0.9,5.2-0.1,7.6C546.3,143.3,540.9,145.6,536.2,143.4z M622.1,63.3c-0.7,1.6-1.7,3.2-2.9,4.4
		c-14.4,15.5-28.8,30.9-43.3,46.4c-3.7,3.9-8.1,6-13.2,5.7c-2.7-0.1-5.3-0.7-8.1-1c-0.2,0.8-0.5,1.9-0.9,3.1
		c1.8,0.4,3.4,0.9,5.2,1.3c-1.2,3.5-2.1,6.1-2.9,8.4l-4.7-2.2c0,0,0,0,0,0c-1.2-3.3-3.5-5.8-6.5-7.2l-15.4-7.1
		c-3.8-1.8-7.9-1.3-11.2,0.8l-4.3-2c3.1-8.9,6.3-17.8,9.8-27.7c-0.6-0.5-1.1-0.9-1.6-1.4c-2.3-2.5-4.6-5-7-7.5
		c-3.4-3.5-5.3-7.7-5.8-12.7c-0.3-2.7,1.3-4.8,2.3-7.8c14.1-18.9,20-11.4,22-9.1c0.4,0.5-16,16.9-16,16.9c1,1.2,2.1,2.3,3.1,3.5
		c0.7-0.8,1.2-1.4,1.7-2c11.2-12.1,22.4-24.2,33.6-36.3c4.6-4.9,9.2-9.8,13.6-14.9c2.3-2.6,5-4.1,8.4-3.9c1.6,0.1,2.9,0.8,4,2
		c3.3,3.8,2,9.4-0.7,12.1c-1.2,1.2-2.4,2.5-3.4,3.6c0.8,1,1.6,1.8,2.3,2.8c0.7-0.8,1.4-1.6,2.1-2.3c1.5-1.8,3.2-3.4,5.5-4
		c4.3-1.2,8.3,1.3,8.9,5.8c0.5,3-0.5,5.7-2.4,7.9c-1.2,1.4-2.5,2.6-3.7,3.9c0.8,1,1.5,1.8,2.4,2.8c0.9-1.1,1.7-2.1,2.6-3
		c1.1-1,2.1-2.2,3.4-2.9c4.4-2.4,9.3-0.4,10.4,4.3c0.8,3.3-0.1,6.3-2.3,8.8c-1.2,1.3-2.4,2.5-3.6,3.7c0.9,1,1.6,1.9,2.3,2.8
		c1.3-1.4,2.4-2.6,3.6-3.8c0.6-0.6,1.3-1.2,2.1-1.7c3-1.8,6.5-1.5,8.8,0.6C622.7,56.5,623.5,59.9,622.1,63.3z"/>
	<path class="st1" d="M536.2,143.4c4.7,2.2,10.1-0.1,12.1-5.2c1-2.4,1-5.1,0.1-7.6c-0.9-2.5-2.7-4.4-4.9-5.5l-15.4-7.1
		c-2.3-1-4.8-1.1-7.1-0.1c-2.3,1-4.1,2.9-5.1,5.3c-1,2.4-1,5.1-0.1,7.6c0.9,2.5,2.7,4.4,4.9,5.5L536.2,143.4L536.2,143.4"/>
</g>
<path class="st2" d="M549.1,142.6c0.9-1.1,1.7-2.3,2.3-3.8c0.8-2,1.1-4.2,1-6.4l2.9,1.4c-1,3-2,5.9-3.4,10L549.1,142.6z"/>
<path class="st2" d="M512.3,127.8l-2.9-1.3c1.2-3.3,2.3-6.5,3.4-9.7l2.8,1.3c-1,1.1-1.8,2.4-2.4,3.8
	C512.6,123.8,512.2,125.8,512.3,127.8z"/>
</svg>
