<?xml version="1.0" encoding="utf-8"?>
<!-- Generator: Adobe Illustrator 19.2.1, SVG Export Plug-In . SVG Version: 6.00 Build 0)  -->
<svg version="1.1" id="Layer_1" xmlns="http://www.w3.org/2000/svg" xmlns:xlink="http://www.w3.org/1999/xlink" x="0px" y="0px"
	 viewBox="0 0 100 100" style="enable-background:new 0 0 100 100;" xml:space="preserve">
<style type="text/css">
	.st0{fill:#020303;stroke:#020303;stroke-width:2;stroke-miterlimit:10;}
	.st1{fill:#F89B17;}
</style>
<g>
	<g>
		<path class="st0" d="M60.9,22.7c0.4-0.5,0.9-0.9,1.3-1.3c5.5,5.9,11,11.9,16.6,17.9c-0.4,0.4-0.9,0.8-1.3,1.2
			C71.9,34.6,66.4,28.7,60.9,22.7z"/>
	</g>
	<g>
		<path class="st0" d="M59.7,18.9c-0.4,0.4-0.9,0.9-1.3,1.3c-0.6-0.7-1.2-1.3-1.8-2c0.4-0.4,0.9-0.9,1.3-1.4
			C58.6,17.4,59.1,18.1,59.7,18.9z"/>
	</g>
	<path class="st0" d="M90,28.7c-1.4-0.7-2.9-0.7-4.5-0.4c0.4-2.5,0.2-4.8-1.6-6.6c-1.8-1.9-3.9-2.2-6.2-1.7c0.5-2.6,0.1-4.8-1.6-6.7
		c-1.7-1.8-3.9-2.2-6.2-1.6c0-0.2,0-0.4,0-0.5c0.3-2,0-4-1.2-5.7c-2.2-3-6-3-8.8-1c-1.1,0.8-2,1.9-3.1,3
		c-0.2-0.2-17.6,18.8-17.6,18.8c-7.7-8.6-16.3,3.9-16.9,5.8c-1.6,5.1-1.5,9.6,1.8,13.8c1.3,1.6,2.7,3,4,4.4c0.8,0.8,0.9,1.4,0.5,2.5
		C24.8,63.5,20.9,74.4,17,85.3c-0.7,1.8-0.2,0.7-0.9,2.5c0.7,0.2,1.2,0.5,1.9,0.7c1.5-4.2,2.8-8.1,4.2-11.9l2.8,1.3
		c0,0.1,0,0.2,0.1,0.3c0.7,2,2.1,3.5,3.9,4.4l9.3,4.3l0,0c1,0.4,1.9,0.7,2.9,0.7c1.4,0,2.7-0.4,3.9-1.2l2.5,1.2l0,0c0,0,0.1,0,0.2,0
		l1.1,0.5v0c0.2,0,0.3,0.1,0.5,0.2c0.2-0.5,2.8-8.4,5-14.4c0.2-0.5,0.4-0.8,1-0.9c1.3-0.1,2.6-0.4,3.9-0.7c3,0,32.8-33.5,33.3-34.6
		C94.4,34.2,93.1,30.2,90,28.7z M39.2,85.1L39.2,85.1l-9.3-4.3c-1.4-0.6-2.4-1.8-3-3.3c-0.5-1.5-0.5-3.1,0-4.6
		c0.6-1.5,1.7-2.6,3.1-3.2s2.9-0.5,4.3,0l9.3,4.3c1.4,0.6,2.4,1.8,3,3.3s0.5,3.1,0,4.6C45.3,85,42,86.5,39.2,85.1z M91.2,36.7
		c-0.4,1-1,1.9-1.8,2.7C80.7,48.7,72,58,63.2,67.4c-2.2,2.4-4.9,3.6-8,3.5c-1.6,0-3.2-0.4-4.9-0.6c-0.1,0.5-0.3,1.1-0.5,1.9
		c1.1,0.2,2,0.5,3.1,0.8c-0.7,2.1-1.3,3.7-1.8,5.1l-2.8-1.3l0,0c-0.7-2-2.1-3.5-3.9-4.4L35.1,68c-2.3-1.1-4.8-0.8-6.8,0.5l-2.6-1.2
		c1.9-5.4,3.8-10.8,5.9-16.8c-0.4-0.3-0.7-0.5-1-0.9c-1.4-1.5-2.8-3-4.2-4.5c-2-2.1-3.2-4.7-3.5-7.7c-0.2-1.6,0.8-2.9,1.4-4.7
		c8.5-11.4,12.1-6.9,13.3-5.5c0.2,0.3-9.7,10.2-9.7,10.2c0.6,0.7,1.3,1.4,1.9,2.1c0.4-0.5,0.7-0.9,1-1.2
		c6.8-7.3,13.5-14.6,20.3-21.9c2.8-3,5.6-5.9,8.2-9c1.4-1.6,3-2.5,5.1-2.4c1,0,1.8,0.5,2.4,1.2c2,2.3,1.2,5.7-0.4,7.3
		c-0.7,0.7-1.5,1.5-2,2.2c0.5,0.6,1,1.1,1.4,1.7c0.4-0.5,0.9-1,1.3-1.4c0.9-1.1,1.9-2,3.3-2.4c2.6-0.7,5,0.8,5.4,3.5
		c0.3,1.8-0.3,3.5-1.5,4.8c-0.7,0.9-1.5,1.6-2.2,2.4c0.5,0.6,0.9,1.1,1.5,1.7c0.5-0.7,1-1.3,1.6-1.8c0.7-0.6,1.3-1.3,2-1.8
		c2.7-1.5,5.6-0.2,6.3,2.6c0.5,2,0,3.8-1.4,5.3c-0.7,0.8-1.5,1.5-2.2,2.2c0.5,0.6,1,1.1,1.4,1.7c0.8-0.9,1.5-1.6,2.2-2.3
		c0.4-0.4,0.8-0.7,1.3-1c1.8-1.1,3.9-0.9,5.3,0.4C91.5,32.5,92,34.6,91.2,36.7z"/>
	<path class="st1" d="M39.2,85.1c2.8,1.3,6.1,0,7.3-3.1c0.6-1.5,0.6-3.1,0-4.6c-0.5-1.5-1.6-2.7-3-3.3l-9.3-4.3
		c-1.4-0.6-2.9-0.7-4.3,0s-2.5,1.8-3.1,3.2c-0.6,1.5-0.6,3.1,0,4.6c0.5,1.5,1.6,2.7,3,3.3L39.2,85.1L39.2,85.1"/>
</g>
</svg>
