<?xml version="1.0" encoding="utf-8"?>
<!-- Generator: Adobe Illustrator 21.1.0, SVG Export Plug-In . SVG Version: 6.00 Build 0)  -->
<svg version="1.1" id="Layer_1" xmlns="http://www.w3.org/2000/svg" xmlns:xlink="http://www.w3.org/1999/xlink" x="0px" y="0px"
	 viewBox="0 0 287 91" style="enable-background:new 0 0 287 91;" xml:space="preserve">
<style type="text/css">
	.st0{fill:#383838;}
	.st1{fill:#FBAA1A;}
</style>
<circle class="st0" cx="45.3" cy="30" r="4.4"/>
<path class="st1" d="M52.8,14.3v4.1c-2.2-1.3-4.7-2.1-7.5-2.1c-3.2,0-6.2,1.1-8.6,2.8C35.5,17.3,33.4,16,31,16v14.4
	c0,7.8,6.4,14.2,14.3,14.2c7.9,0,14.3-6.4,14.3-14.2V7.5C55.8,7.5,52.8,10.6,52.8,14.3z M45.3,37.9c-4.1,0-7.5-3.3-7.5-7.4
	s3.3-7.4,7.5-7.4s7.5,3.3,7.5,7.4S49.4,37.9,45.3,37.9z"/>
<path class="st1" d="M30.4,14.5L30.4,14.5C30.4,14.5,30.4,14.5,30.4,14.5c1.9,0,3.4-1.5,3.4-3.4s-1.5-3.4-3.4-3.4S27,9.3,27,11.1
	c0,0,0,0,0,0c0,0,0,0,0,0C27,13,28.5,14.5,30.4,14.5z"/>
<path class="st0" d="M99.9,36.3v-17c0-0.1-0.1-0.2-0.2-0.3h0h-4.4c-0.1,0-0.2,0.1-0.3,0.2v0v17c0,0.2,0.1,0.3,0.3,0.3h4.4
	C99.7,36.6,99.9,36.4,99.9,36.3z"/>
<path class="st0" d="M104.4,29.2h3.1c0.9,0,1-0.5,1-0.7V27c0-0.2-0.1-0.7-1-0.7h-3.1c-0.9,0-1,0.5-1,0.7v1.5
	C103.4,28.7,103.5,29.2,104.4,29.2z"/>
<path class="st0" d="M111.1,36.6h4.4c0.2,0,0.3-0.1,0.3-0.3l-0.1-17c0-0.1-0.1-0.2-0.2-0.3h0H111c-0.1,0-0.2,0.1-0.3,0.2v0l0.1,17
	C110.8,36.4,110.9,36.6,111.1,36.6z"/>
<path class="st0" d="M133.5,10.8c-0.7-0.4-2.1-0.5-2.2-0.5v9.5c-1.2-0.6-2.5-0.9-3.8-0.9c-2.2,0-4.2,0.7-5.9,2.2l0,0
	c-1.9,1.9-2.9,4-2.9,6.3v0.6c0,2.1,0.9,4.2,2.6,6l0,0c1.8,1.6,3.9,2.5,5.9,2.5h0.7c1.1,0,2.2-0.3,3.4-0.9v0.6c0,0.2,0.1,0.3,0.3,0.3
	h4.4c0.2,0,0.3-0.1,0.3-0.3l0.1-20.9C136.4,13.4,135.2,11.6,133.5,10.8z M131.2,27.9c0,0.4-0.1,0.8-0.2,1.3c-0.8,1.6-2,2.4-3.5,2.4
	c-0.5,0-1-0.1-1.6-0.4c-1.5-0.9-2.2-1.9-2.2-3.3v-0.2l0,0v0v-0.2c0-0.2,0-0.5,0.1-0.9c0.7-1.8,1.9-2.7,3.7-2.7
	c0.6,0,1.2,0.1,1.7,0.4c1.3,0.8,2,1.9,2,3.2L131.2,27.9L131.2,27.9z"/>
<path class="st0" d="M92.2,36.7c0.2,0,0.3-0.1,0.3-0.3v-9c0-0.5-0.1-1.1-0.3-1.8c-0.3-1.2-1-2.5-2.1-3.7l0,0C88.3,20,86.2,19,84,19
	h-0.6c-2.1,0-4.2,0.9-6,2.6c-1.8-1.7-3.8-2.6-6-2.6h-0.6c-1.8,0-3.7,0.7-5.4,2.1l0,0c-1.9,1.8-3,3.8-3.1,6v9.2v0
	c0,0.2,0.1,0.3,0.3,0.3h0.1l4.3,0c0.2,0,0.3-0.1,0.3-0.3v-7.8c0-1.2,0.1-2.1,0.5-2.6c0.9-1.4,1.9-2,3.2-2c0,0,1.1,0,1.9,0.4
	c1.4,0.9,2.1,1.9,2.1,3.3v8.6c0,0.2,0.1,0.3,0.3,0.3h4.4c0.2,0,0.3-0.1,0.3-0.3V28c0-0.7,0.1-1.4,0.4-2c0.9-1.3,1.9-2,3.1-2
	c0,0,0.8,0,1.4,0.1c1.8,0.7,2.7,1.9,2.7,3.7v8.5c0,0.1,0.1,0.3,0.3,0.3L92.2,36.7L92.2,36.7z"/>
<circle class="st0" cx="97.7" cy="13" r="2.6"/>
<circle class="st0" cx="113.2" cy="13" r="2.6"/>
<g>
	<path d="M144.3,35.5V21.9h5.1c0.9,0,1.6,0,2.1,0.1c0.7,0.1,1.2,0.3,1.7,0.6c0.5,0.3,0.8,0.8,1.1,1.3c0.3,0.6,0.4,1.2,0.4,1.9
		c0,1.2-0.4,2.1-1.1,2.9c-0.7,0.8-2.1,1.2-4,1.2h-3.5v5.5H144.3z M146.1,28.3h3.5c1.2,0,2-0.2,2.5-0.6c0.5-0.4,0.7-1,0.7-1.8
		c0-0.6-0.1-1.1-0.4-1.5s-0.7-0.7-1.1-0.8c-0.3-0.1-0.9-0.1-1.7-0.1h-3.5V28.3z"/>
	<path d="M156.8,35.5v-9.9h1.5v1.5c0.4-0.7,0.7-1.2,1.1-1.4s0.7-0.3,1.1-0.3c0.6,0,1.1,0.2,1.7,0.5l-0.6,1.5
		c-0.4-0.2-0.8-0.4-1.2-0.4c-0.4,0-0.7,0.1-1,0.3c-0.3,0.2-0.5,0.5-0.6,0.9c-0.2,0.6-0.3,1.2-0.3,1.9v5.2H156.8z"/>
	<path d="M169.9,32.3l1.7,0.2c-0.3,1-0.8,1.8-1.5,2.3c-0.7,0.6-1.7,0.8-2.8,0.8c-1.4,0-2.6-0.4-3.4-1.3s-1.3-2.1-1.3-3.7
		c0-1.7,0.4-2.9,1.3-3.9c0.9-0.9,2-1.4,3.3-1.4c1.3,0,2.4,0.4,3.2,1.3c0.8,0.9,1.3,2.2,1.3,3.8c0,0.1,0,0.2,0,0.4h-7.3
		c0.1,1.1,0.4,1.9,0.9,2.5c0.6,0.6,1.2,0.9,2.1,0.9c0.6,0,1.1-0.2,1.6-0.5C169.3,33.5,169.6,33,169.9,32.3z M164.4,29.6h5.5
		c-0.1-0.8-0.3-1.5-0.6-1.9c-0.5-0.6-1.2-1-2.1-1c-0.8,0-1.4,0.3-1.9,0.8C164.7,28,164.4,28.7,164.4,29.6z"/>
	<path d="M173,31.4v-1.7h5.1v1.7H173z"/>
	<path d="M180.2,35.5V21.9h5.1c0.9,0,1.6,0,2.1,0.1c0.7,0.1,1.2,0.3,1.7,0.6c0.5,0.3,0.8,0.8,1.1,1.3c0.3,0.6,0.4,1.2,0.4,1.9
		c0,1.2-0.4,2.1-1.1,2.9c-0.7,0.8-2.1,1.2-4,1.2H182v5.5H180.2z M182,28.3h3.5c1.2,0,2-0.2,2.5-0.6c0.5-0.4,0.7-1,0.7-1.8
		c0-0.6-0.1-1.1-0.4-1.5s-0.7-0.7-1.1-0.8c-0.3-0.1-0.9-0.1-1.7-0.1H182V28.3z"/>
	<path d="M199.1,34.2c-0.6,0.5-1.2,0.9-1.8,1.1c-0.6,0.2-1.2,0.3-1.8,0.3c-1.1,0-1.9-0.3-2.5-0.8c-0.6-0.5-0.9-1.2-0.9-2
		c0-0.5,0.1-0.9,0.3-1.3c0.2-0.4,0.5-0.7,0.9-1c0.4-0.2,0.8-0.4,1.2-0.5c0.3-0.1,0.8-0.2,1.5-0.3c1.3-0.2,2.3-0.4,3-0.6
		c0-0.2,0-0.4,0-0.4c0-0.7-0.2-1.2-0.5-1.4c-0.4-0.4-1.1-0.6-1.9-0.6c-0.8,0-1.4,0.1-1.7,0.4c-0.4,0.3-0.7,0.8-0.8,1.5l-1.6-0.2
		c0.1-0.7,0.4-1.3,0.7-1.7c0.3-0.4,0.8-0.8,1.5-1c0.6-0.2,1.4-0.3,2.2-0.3c0.8,0,1.5,0.1,2.1,0.3c0.5,0.2,0.9,0.4,1.2,0.7
		c0.2,0.3,0.4,0.7,0.5,1.1c0.1,0.3,0.1,0.8,0.1,1.5v2.2c0,1.6,0,2.5,0.1,2.9s0.2,0.8,0.4,1.2h-1.7C199.3,35.1,199.2,34.7,199.1,34.2
		z M199,30.5c-0.6,0.2-1.5,0.5-2.7,0.6c-0.7,0.1-1.2,0.2-1.5,0.3c-0.3,0.1-0.5,0.3-0.7,0.5c-0.2,0.2-0.2,0.5-0.2,0.8
		c0,0.4,0.2,0.8,0.5,1.1c0.3,0.3,0.8,0.4,1.5,0.4c0.6,0,1.2-0.1,1.7-0.4c0.5-0.3,0.9-0.7,1.1-1.2c0.2-0.4,0.3-0.9,0.3-1.7V30.5z"/>
	<path d="M203.3,23.8v-1.9h1.7v1.9H203.3z M203.3,35.5v-9.9h1.7v9.9H203.3z"/>
	<path d="M213.9,35.5v-1.2c-0.6,1-1.5,1.5-2.8,1.5c-0.8,0-1.5-0.2-2.2-0.6s-1.2-1-1.5-1.8s-0.5-1.7-0.5-2.7c0-1,0.2-1.9,0.5-2.7
		c0.3-0.8,0.8-1.4,1.5-1.8c0.7-0.4,1.4-0.6,2.2-0.6c0.6,0,1.1,0.1,1.6,0.4c0.5,0.2,0.8,0.6,1.1,1v-4.9h1.7v13.6H213.9z M208.6,30.5
		c0,1.3,0.3,2.2,0.8,2.8c0.5,0.6,1.2,0.9,1.9,0.9c0.7,0,1.3-0.3,1.9-0.9c0.5-0.6,0.8-1.5,0.8-2.7c0-1.3-0.3-2.3-0.8-3
		s-1.2-0.9-1.9-0.9c-0.7,0-1.4,0.3-1.9,0.9C208.8,28.3,208.6,29.2,208.6,30.5z"/>
	<path d="M233.2,30.7l1.8,0.5c-0.4,1.5-1.1,2.6-2,3.4c-1,0.8-2.2,1.2-3.6,1.2c-1.5,0-2.7-0.3-3.6-0.9s-1.6-1.5-2.1-2.6
		c-0.5-1.1-0.7-2.3-0.7-3.6c0-1.4,0.3-2.7,0.8-3.7c0.5-1.1,1.3-1.9,2.3-2.4c1-0.5,2.1-0.8,3.3-0.8c1.4,0,2.5,0.3,3.4,1
		s1.6,1.7,1.9,2.9L233,26c-0.3-1-0.8-1.7-1.4-2.2c-0.6-0.5-1.4-0.7-2.3-0.7c-1,0-1.9,0.2-2.6,0.8c-0.7,0.5-1.2,1.2-1.5,2
		c-0.3,0.8-0.4,1.7-0.4,2.6c0,1.2,0.2,2.2,0.5,3c0.3,0.9,0.9,1.5,1.6,1.9c0.7,0.4,1.5,0.6,2.3,0.6c1,0,1.9-0.3,2.6-0.9
		C232.5,32.7,233,31.8,233.2,30.7z"/>
	<path d="M237,35.5v-9.9h1.5v1.5c0.4-0.7,0.7-1.2,1.1-1.4s0.7-0.3,1.1-0.3c0.6,0,1.1,0.2,1.7,0.5l-0.6,1.5c-0.4-0.2-0.8-0.4-1.2-0.4
		c-0.4,0-0.7,0.1-1,0.3c-0.3,0.2-0.5,0.5-0.6,0.9c-0.2,0.6-0.3,1.2-0.3,1.9v5.2H237z"/>
	<path d="M250.1,32.3l1.7,0.2c-0.3,1-0.8,1.8-1.5,2.3c-0.7,0.6-1.7,0.8-2.8,0.8c-1.4,0-2.6-0.4-3.4-1.3s-1.3-2.1-1.3-3.7
		c0-1.7,0.4-2.9,1.3-3.9c0.9-0.9,2-1.4,3.3-1.4c1.3,0,2.4,0.4,3.2,1.3c0.8,0.9,1.3,2.2,1.3,3.8c0,0.1,0,0.2,0,0.4h-7.3
		c0.1,1.1,0.4,1.9,0.9,2.5c0.6,0.6,1.2,0.9,2.1,0.9c0.6,0,1.1-0.2,1.6-0.5C249.5,33.5,249.9,33,250.1,32.3z M244.6,29.6h5.5
		c-0.1-0.8-0.3-1.5-0.6-1.9c-0.5-0.6-1.2-1-2.1-1c-0.8,0-1.4,0.3-1.9,0.8C245,28,244.7,28.7,244.6,29.6z"/>
	<path d="M260.3,35.5v-1.2c-0.6,1-1.5,1.5-2.8,1.5c-0.8,0-1.5-0.2-2.2-0.6s-1.2-1-1.5-1.8s-0.5-1.7-0.5-2.7c0-1,0.2-1.9,0.5-2.7
		c0.3-0.8,0.8-1.4,1.5-1.8c0.7-0.4,1.4-0.6,2.2-0.6c0.6,0,1.1,0.1,1.6,0.4c0.5,0.2,0.8,0.6,1.1,1v-4.9h1.7v13.6H260.3z M255.1,30.5
		c0,1.3,0.3,2.2,0.8,2.8c0.5,0.6,1.2,0.9,1.9,0.9c0.7,0,1.3-0.3,1.9-0.9c0.5-0.6,0.8-1.5,0.8-2.7c0-1.3-0.3-2.3-0.8-3
		s-1.2-0.9-1.9-0.9c-0.7,0-1.4,0.3-1.9,0.9C255.3,28.3,255.1,29.2,255.1,30.5z"/>
	<path d="M264.5,23.8v-1.9h1.7v1.9H264.5z M264.5,35.5v-9.9h1.7v9.9H264.5z"/>
	<path d="M272.4,34l0.2,1.5c-0.5,0.1-0.9,0.1-1.3,0.1c-0.6,0-1.1-0.1-1.4-0.3c-0.3-0.2-0.6-0.4-0.7-0.8c-0.1-0.3-0.2-1-0.2-2v-5.7
		h-1.2v-1.3h1.2v-2.4l1.7-1v3.4h1.7v1.3h-1.7v5.8c0,0.5,0,0.8,0.1,0.9c0.1,0.1,0.2,0.2,0.3,0.3c0.1,0.1,0.3,0.1,0.6,0.1
		C271.8,34,272.1,34,272.4,34z"/>
</g>
</svg>
