<?xml version="1.0" encoding="utf-8"?>
<!-- Generator: Adobe Illustrator 21.1.0, SVG Export Plug-In . SVG Version: 6.00 Build 0)  -->
<svg version="1.1" id="Layer_1" xmlns="http://www.w3.org/2000/svg" xmlns:xlink="http://www.w3.org/1999/xlink" x="0px" y="0px"
	 viewBox="0 0 660.7 176" style="enable-background:new 0 0 660.7 176;" xml:space="preserve">
<style type="text/css">
	.st0{fill:#F79916;}
	.st1{fill:#FFFFFF;}
	.st2{stroke:#000000;stroke-width:2;stroke-miterlimit:10;}
	.st3{fill:#F7931E;}
	.st4{fill:none;stroke:#000000;stroke-width:3;stroke-miterlimit:10;}
</style>
<path d="M345.9,83.2c-0.7-1.1-1.3-1.8-1.5-2.6c-0.1-0.3,0.7-0.9,1-1.3c0.6,0.7,1.3,1.5,1.7,2.2C347.2,81.7,346.5,82.3,345.9,83.2z"
	/>
<path class="st0" d="M546.3,37.5c8.1,3.9,4.2,2.1,12.3,6.2c0.4,0.2,0.8,0.4,1.2,0.6c2.2-4.6,4.5-9,6.6-13.5
	c-14.2-7-28.3-13.9-42.4-20.9c-15.9,32.4-31.8,64.7-47.7,97c4.6,2.2,21.1,10.3,25.6,12.5c0.2-0.4,0.4-0.7,0.5-0.9
	c4.3-8.6,9.2-16.7,13.5-25.3c8.8-17.9,16.8-36.2,25.6-54.1"/>
<path d="M495.4,88.3c3.6-7.3,12.4-10.4,19.7-6.9c7.2,3.4,5.5,9.9,2,17.5c-3.7,8-7.8,12.7-14.7,9.4
	C494.9,104.6,491.8,95.8,495.4,88.3z M504.6,103c4.6,2.4,10.2,0.3,12.4-4.2c2.2-4.4,0.2-10-4.1-12.2c-4.6-2.3-10.2-0.5-12.4,4.1
	C498.2,95.2,500.1,100.7,504.6,103z"/>
<g id="Cay7dE_1_">
	<g>
		<path d="M497.8,140.5c14.2,7,28.2,13.9,42.5,20.9c0.6-1.2,1.2-2.4,1.7-3.5c3.8-7.9,7.7-15.7,11.6-23.6c0.5-1.1,1.4-1.8,2.6-1.8
			c1.1-0.1,2.2,0.5,2.5,1.5c0.2,0.7,0.4,1.9,0.1,2.5c-4.8,10-9.8,20-14.7,29.9c-0.7,1.4-2.1,1.9-3.6,1.3c-0.4-0.2-0.8-0.4-1.1-0.5
			c-15.3-7.5-30.6-15-45.9-22.6c-2.3-1.1-2.7-2.3-1.6-4.7c2.3-4.7,4.6-9.3,6.9-14c0.2-0.4,0.4-0.8,0.7-1.4
			c-1.4-0.7-14.9-7.2-16.3-7.9c-3.9-1.9-7.7-3.7-11.5-5.7c-2-1-2.4-2.4-1.5-4.4c7.4-15.1,14.8-30.2,22.3-45.2
			c5.3-10.7,10.5-21.4,15.7-32c3.9-8,7.9-16,11.9-24.1c0.9-1.9,2.5-2.4,4.3-1.5c15.6,7.7,31.3,15.4,46.9,23.1
			c1.8,0.9,2.3,2.4,1.4,4.3c-2.3,4.7-4.7,9.5-7,14.3c-0.2,0.5-0.4,0.9-0.7,1.4c2,1,15.8,7.7,17.7,8.6c3.4,1.6,6.7,3.2,10,5
			c2.1,1,2.6,2.4,1.6,4.5c-7.8,16-15.7,32-23.6,48c-0.5,1.1-1.2,2.1-2.6,2.1c-2.2,0.1-3.7-2-2.7-4.1c2.3-4.8,4.8-9.6,7.1-14.4
			c5.2-10.6,10.4-21.2,15.6-31.8c0-0.1,0.1-0.2,0.1-0.4c-14.1-7-28.2-13.9-42.4-20.9C529.6,75.8,513.7,108.1,497.8,140.5z
			 M523.8,9.9c-15.9,32.4-31.8,64.7-47.7,97c4.6,2.2,21.1,10.3,25.6,12.5c0.2-0.4,0.4-0.7,0.5-0.9c4.3-8.6,8.4-17.1,12.7-25.7
			c8.8-17.9,17.6-35.8,26.4-53.7c1.2-2.4,2.4-2.8,4.8-1.7c8.1,3.9,16.3,8,24.4,12c0.4,0.2-11.3-5.5-10.9-5.3c2.2-4.6,4.5-9,6.6-13.5
			C552.1,23.8,537.9,16.8,523.8,9.9z"/>
		<path d="M517.1,121.1c3.6-7.3,12.4-10.4,19.7-6.9c7.2,3.4,10.7,12.1,7.3,19.6c-3.7,8-13,10.6-19.9,7.2
			C516.6,137.3,513.5,128.5,517.1,121.1z M526.4,135.8c4.6,2.4,10.2,0.3,12.4-4.2c2.2-4.4,0.2-10-4.1-12.2
			c-4.6-2.3-10.2-0.5-12.4,4.1C519.9,127.9,521.8,133.5,526.4,135.8z"/>
		<path d="M562.9,87c-2.5,5.1-5,10.2-7.5,15.3c-0.9,1.9-2.9,2.4-4.4,1.1c-1-0.8-1.3-2.1-0.7-3.4c2.8-5.7,5.7-11.5,8.4-17.2
			c1.6-3.3,3.2-6.5,4.8-9.8c0.8-1.6,1.6-3.3,2.6-4.7c0.9-1.3,2.3-1.3,3.6-0.4c1.1,0.7,1.5,2.1,0.8,3.5c-0.9,1.8-1.8,3.6-2.7,5.3
			C566.1,80.2,564.5,83.6,562.9,87C562.8,86.9,562.9,87,562.9,87z"/>
		<path d="M544,87.3c-2.2,4.5-4.4,9-6.6,13.5c-1.1,2.3-3.6,2.5-5,0.7c-0.8-1.1-0.6-2.2,0-3.3c1.9-3.9,3.9-7.8,5.8-11.7
			c2.4-5,4.9-9.9,7.3-14.9c0.9-1.8,2.3-2.4,3.7-1.8c1.6,0.7,2.2,2.4,1.4,4.1C548.4,78.3,546.2,82.8,544,87.3z"/>
		<path d="M560.7,126.1c-1.5-0.7-2-2.4-1.2-3.8c0.7-1.3,2.4-1.8,3.7-1.2c1.4,0.7,2,2.5,1.2,3.9C563.7,126.4,562.1,126.9,560.7,126.1
			z"/>
	</g>
</g>
<path class="st0" d="M526.3,135.8c4.6,2.4,10.2,0.3,12.4-4.2c2.2-4.4,0.2-10-4.1-12.2c-4.6-2.3-10.2-0.5-12.4,4.1
	C519.9,128,521.8,133.5,526.3,135.8z"/>
<path class="st1" d="M504.6,103c4.6,2.4,10.2,0.3,12.4-4.2c2.2-4.4,0.2-10-4.1-12.2c-4.6-2.3-10.2-0.5-12.4,4.1
	C498.2,95.2,500.1,100.8,504.6,103z"/>
<path d="M507.6,114.3L507.6,114.3c-1.4-0.7-1.9-2.3-1.3-3.7l10-20.7c0.7-1.4,2.3-1.9,3.7-1.3l0,0c1.4,0.7,1.9,2.3,1.3,3.7l-10,20.7
	C510.7,114.4,509,115,507.6,114.3z"/>
<g>
	<g>
		<g>
			<path class="st2" d="M73.6,66.3c-0.7-0.7-1.5-1.4-2.1-2c9.2-9.9,18.3-19.7,27.4-29.5c0.6,0.7,1.4,1.4,2.1,2.2
				C91.8,46.8,82.7,56.6,73.6,66.3z"/>
		</g>
		<g>
			<path class="st2" d="M105.8,27.2c0.8,0.8,1.5,1.6,2.2,2.3c-1,1.1-2,2.2-3,3.3c-0.7-0.8-1.5-1.5-2.1-2.2
				C103.9,29.4,104.9,28.2,105.8,27.2z"/>
		</g>
		<path class="st2" d="M48,61.8c0.8,1.8,50.2,57.3,55.1,57.2c2.1,0.5,4.3,1,6.4,1.2c1,0.1,1.4,0.5,1.7,1.4c3.5,9.9,7.9,23,8.2,23.8
			c0.3-0.1,0.5-0.2,0.8-0.3v0.1l1.9-0.9c0.1,0,0.2-0.1,0.3-0.1l0,0l4.2-2c2,1.3,4.2,2,6.5,2c1.6,0,3.2-0.4,4.8-1.1l0,0l15.4-7.1
			c3-1.4,5.3-3.9,6.5-7.2c0.1-0.2,0.1-0.3,0.2-0.5l4.6-2.1c2.3,6.3,4.5,12.7,7,19.7c1.1-0.4,2-0.8,3.1-1.2c-1.1-3-0.3-1.1-1.4-4.1
			c-6.4-18.1-12.8-36.1-19.2-54.1c-0.6-1.8-0.4-2.8,0.9-4.1c2.3-2.3,4.6-4.7,6.7-7.3c5.4-6.9,5.6-14.4,2.9-22.8
			c-1-3-15.2-23.8-27.9-9.6c0,0-28.8-31.3-29.1-31c-1.8-1.8-3.4-3.6-5.2-4.9c-4.6-3.3-10.9-3.3-14.6,1.6c-2,2.8-2.5,6-2,9.4
			c0,0.2,0,0.5,0.1,0.9c-3.8-0.9-7.4-0.3-10.2,2.7c-2.8,3.1-3.4,6.8-2.6,11.1c-3.9-0.8-7.4-0.3-10.3,2.8c-2.9,3-3.3,6.8-2.6,11
			c-2.6-0.5-5.1-0.6-7.4,0.6C47.7,49.4,45.6,56,48,61.8z M124.7,135c-1-2.4-1-5.1-0.1-7.6c0.9-2.5,2.6-4.5,4.9-5.5l15.4-7.1
			c2.3-1,4.8-1.1,7.1-0.1c2.3,1,4.1,2.9,5.1,5.3s1,5.1,0.1,7.6c-0.9,2.5-2.6,4.5-4.9,5.5l-15.4,7.1l0,0
			C132.2,142.4,126.8,140.1,124.7,135z M52.8,51.2c2.3-2.1,5.8-2.4,8.8-0.6c0.8,0.5,1.5,1.1,2.1,1.7c1.2,1.2,2.3,2.4,3.6,3.8
			c0.7-0.9,1.4-1.8,2.3-2.8c-1.2-1.2-2.4-2.4-3.6-3.7c-2.2-2.5-3.1-5.5-2.3-8.8c1.1-4.7,6-6.7,10.4-4.3c1.3,0.7,2.3,1.9,3.4,2.9
			c0.9,0.9,1.7,1.9,2.6,3c0.9-1,1.6-1.8,2.4-2.8c-1.2-1.3-2.5-2.5-3.7-3.9c-1.9-2.2-2.9-4.9-2.4-7.9c0.6-4.5,4.6-7,8.9-5.8
			c2.3,0.6,4,2.2,5.5,4c0.7,0.7,1.4,1.5,2.1,2.3c0.7-1,1.5-1.8,2.3-2.8c-1-1.1-2.2-2.4-3.4-3.6c-2.7-2.7-4-8.3-0.7-12.1
			c1.1-1.2,2.4-1.9,4-2c3.4-0.2,6.1,1.3,8.4,3.9c4.4,5.1,9,10,13.6,14.9c11.2,12.1,22.4,24.2,33.6,36.3c0.5,0.6,1,1.2,1.7,2
			c1-1.2,2.1-2.3,3.1-3.5c0,0-16.4-16.4-16-16.9c2-2.3,7.9-9.8,22,9.1c1,3,2.6,5.1,2.3,7.8c-0.5,5-2.4,9.2-5.8,12.7
			c-2.4,2.5-4.7,5-7,7.5c-0.5,0.5-1,0.9-1.6,1.4c3.5,9.9,6.7,18.8,9.8,27.7l-4.3,2c-3.3-2.1-7.4-2.6-11.2-0.8l-15.4,7.1
			c-3,1.4-5.3,3.9-6.5,7.2l0,0l-4.7,2.2c-0.8-2.3-1.7-4.9-2.9-8.4c1.8-0.4,3.4-0.9,5.2-1.3c-0.4-1.2-0.7-2.3-0.9-3.1
			c-2.8,0.3-5.4,0.9-8.1,1c-5.1,0.3-9.5-1.8-13.2-5.7C82.7,95.4,68.3,80,53.9,64.5c-1.2-1.2-2.2-2.8-2.9-4.4
			C49.6,56.7,50.4,53.3,52.8,51.2z"/>
		<path class="st0" d="M136.9,140.2L136.9,140.2l15.5-7.1c2.2-1.1,4-3,4.9-5.5c0.9-2.5,0.9-5.2-0.1-7.6s-2.8-4.3-5.1-5.3
			s-4.8-0.9-7.1,0.1l-15.4,7.1c-2.2,1.1-4,3-4.9,5.5s-0.9,5.2,0.1,7.6C126.8,140.1,132.2,142.4,136.9,140.2"/>
	</g>
	<path class="st1" d="M121.2,140.6c-1.4-4.1-2.4-7-3.4-10l2.9-1.4c-0.1,2.2,0.2,4.4,1,6.4c0.6,1.5,1.4,2.7,2.3,3.8L121.2,140.6z"/>
</g>
<g>
	<path class="st3" d="M370.4,19.1c7.3,3.8,11.5,8.8,12.7,14.9c0.1,0.5,1.3,13-4,31.9l-11.7-16.8c-0.6-0.9-1.6-1.4-2.7-1.4
		c-0.4,0-0.8,0.1-1.2,0.2c-0.1,0.1-13.1,5.1-24.7,5.2c-11.2-0.1-23.9-5-24.4-5.2c-1.4-0.6-3.1-0.1-4,1.2l-11.8,16.8
		c-5.4-19.7-3.8-35-3.7-35.6l1-11.9c5,1.9,14.7,3.9,27.5-1.9C334.3,11.5,355.8,11.4,370.4,19.1z"/>
	<g>
		<circle cx="325.5" cy="74.8" r="4.4"/>
		<circle cx="352.3" cy="74.8" r="4.4"/>
		<path d="M362.6,108.8c11.7-7.5,19.3-20,20.5-33.7l0,0c0.1-0.1,0.3-0.3,0.3-0.6c8.3-24.5,6.4-40.7,6.3-41.4v-0.2
			c-1.5-8.2-7.1-15-16.2-19.8c-16.9-8.9-40.6-8.4-52.9-2.9c-15.9,7.2-25.2,0.3-25.6,0.1c-1-0.8-2.3-0.9-3.4-0.4s-1.9,1.6-2,2.8
			l-1.3,16.8c-0.1,0.8-2.4,20.3,6,44.9c1,14.1,8.7,26.8,20.7,34.4c-12.6,7.3-27.6,21.4-29.7,47.2c-0.2,1.8,1.2,3.5,3.1,3.6
			c1.8,0.1,3.5-1.2,3.6-3.1c2-25.2,17.4-37.9,30-44.1c5.4,2.2,11,3.3,16.8,3.3c5.9,0,11.6-1.1,17-3.4c12.7,6.2,28.1,18.9,30.1,44.2
			c0.1,1.7,1.6,3.1,3.3,3.1c0.1,0,0.2,0,0.3,0c1.8-0.1,3.2-1.8,3.1-3.6C390.4,130.2,375.3,116.1,362.6,108.8z M370.4,19.1
			c7.3,3.8,11.5,8.8,12.7,14.9c0.1,0.5,1.3,13-4,31.9l-11.7-16.8c-0.6-0.9-1.6-1.4-2.7-1.4c-0.4,0-0.8,0.1-1.2,0.2
			c-0.1,0.1-13.1,5.1-24.7,5.2c-11.2-0.1-23.9-5-24.4-5.2c-1.4-0.6-3.1-0.1-4,1.2l-11.8,16.8c-5.4-19.7-3.8-35-3.7-35.6l1-11.9
			c5,1.9,14.7,3.9,27.5-1.9C334.3,11.5,355.8,11.4,370.4,19.1z M314.4,55.1c4.4,1.5,14.7,4.7,24.7,4.8c9.7-0.1,19.9-3.2,24.3-4.8
			l13.1,18.7c-1.3,19.8-17.9,35.3-37.8,35.3c-19.7,0-36.2-15.3-37.8-34.9L314.4,55.1z"/>
		<circle class="st4" cx="338.7" cy="92.1" r="6.8"/>
	</g>
	<g>
		<path d="M421.5,52.6c0.6-0.9,1.2-1.7,1.6-2.7c1.9-3.8,5.2-5.4,9.1-6c2-0.3,4-0.6,6.1-1c4.3-0.8,6.3-2.8,6.7-6.9
			c0.4-3.8-1.8-7.7-5.2-9.2c-4.2-1.8-8.8-0.5-11.4,3.2c-1.2,1.7-3.1,2.2-4.5,1.2c-1.5-1-1.8-3-0.7-4.7c3.7-5.3,8.9-7.6,15.2-6.6
			c6.2,0.9,10.4,4.7,12.2,10.6c1.8,5.9,0,12.2-4.3,15.6c-2,1.6-4.5,2.4-7,2.9c-2.3,0.4-4.6,0.8-6.9,1.1c-1.7,0.3-3,1.1-3.8,2.7
			c-1.4,2.4-2.9,4.8-4.4,7.1c-1.1,1.8-3,2.4-4.6,1.4s-1.9-2.9-0.7-4.7C419.8,55.3,420.7,54,421.5,52.6z"/>
		<ellipse transform="matrix(0.5278 -0.8493 0.8493 0.5278 138.5075 385.3318)" cx="415.8" cy="68.1" rx="3.2" ry="3.2"/>
	</g>
	<g>
		<path d="M214.1,72.7c-0.3-0.6-0.6-1.2-0.9-1.8c-1.5-2.3-1.2-4.6-0.3-7c0.5-1.2,1-2.4,1.5-3.6c1-2.6,0.5-4.4-1.6-6
			c-2-1.5-4.8-1.6-6.7-0.2c-2.4,1.7-3.2,4.6-2,7.3c0.5,1.2,0.2,2.4-0.8,2.9s-2.2,0-2.8-1.2c-1.7-3.8-1.2-7.4,1.4-10.5
			c2.6-3.1,6-4.1,9.9-3.2c3.8,0.9,6.7,4,7.1,7.5c0.2,1.7-0.1,3.2-0.7,4.8c-0.5,1.4-1.1,2.8-1.7,4.2c-0.4,1-0.4,2,0.2,3
			c0.9,1.6,1.7,3.2,2.5,4.8c0.6,1.2,0.3,2.4-0.8,3c-1.1,0.5-2.2,0.1-2.8-1.2C215,74.6,214.6,73.7,214.1,72.7z"/>
		<ellipse transform="matrix(0.8901 -0.4557 0.4557 0.8901 -12.6665 109.4666)" cx="220.7" cy="81" rx="2" ry="2"/>
	</g>
	<g>
		<path d="M400.6,36.5c0.1-0.5,0.3-1,0.4-1.5c0.3-2,1.6-3.3,3.3-4.2c0.9-0.5,1.8-0.9,2.7-1.4c1.9-1,2.5-2.3,2.1-4.2
			c-0.4-1.8-2-3.3-3.8-3.5c-2.2-0.2-4.2,1.1-4.8,3.2c-0.3,1-1.1,1.5-1.9,1.2c-0.8-0.2-1.3-1.1-1-2.1c0.9-3,2.9-4.9,6-5.4
			c3-0.5,5.5,0.6,7.3,3.1c1.8,2.4,1.9,5.7,0.4,7.9c-0.7,1.1-1.7,1.8-2.8,2.4c-1,0.5-2,1.1-3,1.6c-0.7,0.4-1.2,1-1.4,1.8
			c-0.3,1.3-0.6,2.7-0.9,4c-0.3,1-1,1.6-1.9,1.3c-0.9-0.2-1.3-1.1-1.1-2.1C400.2,38,400.4,37.3,400.6,36.5z"/>
		<ellipse transform="matrix(0.2344 -0.9721 0.9721 0.2344 263.079 423.3327)" cx="400.3" cy="44.6" rx="1.6" ry="1.6"/>
	</g>
	<g>
		<path d="M212,106.5c-0.6-0.6-1.2-1.1-1.8-1.7c-2.6-2-3.2-4.8-3.1-7.9c0.1-1.6,0.2-3.2,0.2-4.8c0.1-3.4-1.2-5.3-4.2-6.2
			c-2.8-0.9-6.2,0.1-7.8,2.5c-2.1,2.9-1.8,6.6,0.6,9.2c1.1,1.2,1.2,2.6,0.2,3.6c-1,1-2.5,0.9-3.7-0.2c-3.4-3.7-4.4-8-2.7-12.7
			c1.7-4.6,5.2-7.2,10-7.7c4.7-0.5,9.3,2,11.3,5.8c0.9,1.8,1.1,3.8,1.1,5.9c-0.1,1.8-0.1,3.7-0.3,5.5c-0.1,1.3,0.3,2.5,1.4,3.4
			c1.6,1.5,3.2,3,4.8,4.5c1.2,1.2,1.3,2.7,0.3,3.7c-1,1-2.5,1-3.7-0.2C213.8,108.2,212.9,107.3,212,106.5z"/>
		<ellipse transform="matrix(0.689 -0.7247 0.7247 0.689 -12.8209 196.8207)" cx="222.9" cy="113.4" rx="2.5" ry="2.5"/>
	</g>
	<g>
		<path d="M247.1,57.9c-0.5-1.1-0.9-2.1-1.4-3.3c-2.3-4.1-1.7-8.1,0.2-12.2c0.9-2,2-4.1,2.9-6.3c2-4.5,1.3-7.7-2.2-10.6
			c-3.3-2.8-8.3-3.2-11.8-0.9c-4.4,2.7-6.1,7.8-4.2,12.7c0.8,2.1,0.1,4.2-1.7,5c-1.8,0.8-3.9-0.2-4.8-2.3
			c-2.5-6.8-1.5-13.1,3.4-18.4c4.7-5.2,10.9-6.7,17.5-4.8c6.5,1.9,11.4,7.7,11.9,13.8c0.2,2.9-0.5,5.6-1.7,8.4
			c-1.1,2.3-2.1,4.8-3.4,7.2c-0.8,1.8-0.9,3.5,0,5.3c1.4,2.8,2.6,5.7,3.9,8.6c0.9,2.3,0.3,4.3-1.6,5.1s-3.9,0-4.8-2.3
			C248.6,61.1,247.9,59.4,247.1,57.9z"/>
		<ellipse transform="matrix(0.9119 -0.4105 0.4105 0.9119 -7.194 112.3229)" cx="258" cy="72.9" rx="3.6" ry="3.6"/>
	</g>
	<g>
		<path d="M418.6,90.9c1-0.4,1.9-0.7,2.8-1.3c3.7-2.1,7.3-1.5,10.9,0.1c1.8,0.9,3.6,1.7,5.6,2.6c4,1.8,6.8,1.2,9.4-1.9
			c2.5-2.9,2.8-7.4,0.9-10.5c-2.5-3.8-7-5.4-11.2-3.8c-1.9,0.7-3.8,0.1-4.4-1.5c-0.7-1.7,0.2-3.5,2.1-4.3c6-2.3,11.6-1.3,16.3,3.1
			c4.6,4.2,6,9.7,4.1,15.6c-1.8,5.9-6.8,10.1-12.3,10.5c-2.6,0.2-5.1-0.5-7.4-1.5c-2.1-1-4.3-1.9-6.3-3c-1.6-0.7-3.1-0.8-4.7,0.1
			c-2.5,1.2-5.1,2.3-7.6,3.4c-1.9,0.9-3.8,0.3-4.6-1.4c-0.8-1.7,0.1-3.5,2.1-4.3C415.6,92.2,417.1,91.6,418.6,90.9z"/>
		<ellipse transform="matrix(0.9137 -0.4065 0.4065 0.9137 -5.9 173.3555)" cx="405.1" cy="100.6" rx="3.2" ry="3.2"/>
	</g>
</g>
</svg>
