<?xml version="1.0" encoding="utf-8"?>
<!-- Generator: Adobe Illustrator 21.1.0, SVG Export Plug-In . SVG Version: 6.00 Build 0)  -->
<svg version="1.1" id="Layer_1" xmlns="http://www.w3.org/2000/svg" xmlns:xlink="http://www.w3.org/1999/xlink" x="0px" y="0px"
	 viewBox="0 0 660.7 176" style="enable-background:new 0 0 660.7 176;" xml:space="preserve">
<style type="text/css">
	.st0{fill:#F7931E;}
	.st1{fill:#FFFFFF;}
</style>
<path class="st0" d="M574.5,36.4c10.1,0,5.3,0.1,15.4,0.2c0.5,0,1,0,1.5,0c0-5.7,0.1-11.2,0.1-16.8c-17.7-0.1-35.3-0.2-52.9-0.3
	c-0.2,40.4-0.4,80.6-0.6,120.9c5.7,0,26.3,0.1,31.9,0.1c0-0.5,0.1-0.9,0.1-1.2c0.1-10.7,1.1-21.3,1.2-32c0.1-22.3-0.8-44.6-0.7-66.9
	"/>
<path d="M548.1,112.3c0-9.1,7.4-16.5,16.4-16.6c8.9-0.1,10.4,7.3,10.6,16.6c0.2,9.9-1.6,16.6-10.2,16.6
	C555.6,129,548.1,121.6,548.1,112.3z M564.6,122.6c5.8,0.2,10.4-4.7,10.4-10.3c0.1-5.5-4.7-10.2-10.1-10.3
	c-5.8-0.1-10.5,4.5-10.5,10.2C554.3,117.9,558.9,122.5,564.6,122.6z"/>
<path class="st0" d="M95.4,28.5c7.3,3.8,11.5,8.8,12.7,14.9c0.1,0.5,1.3,13-4,31.9L92.4,58.5c-0.6-0.9-1.6-1.4-2.7-1.4
	c-0.4,0-0.8,0.1-1.2,0.2c-0.1,0.1-13.1,5.1-24.7,5.2c-11.2-0.1-23.9-5-24.4-5.2c-1.4-0.6-3.1-0.1-4,1.2L23.6,75.3
	c-5.4-19.7-3.8-35-3.7-35.6l1-11.9c5,1.9,14.7,3.9,27.5-1.9C59.3,20.9,80.8,20.8,95.4,28.5z"/>
<g>
	<circle cx="50.5" cy="84.2" r="4.4"/>
	<circle cx="77.3" cy="84.2" r="4.4"/>
	<path d="M63.9,107c7.1,0,14-2.5,19.5-7.1c0.7-0.6,1.1-1.4,1.2-2.3s-0.2-1.8-0.8-2.4c-1.2-1.4-3.3-1.6-4.7-0.4l0,0
		c-8.5,7.2-21.8,7.2-30.4,0c-1.4-1.2-3.5-1-4.7,0.4c-0.6,0.7-0.9,1.5-0.8,2.4c0.1,0.9,0.5,1.7,1.2,2.3C49.8,104.5,56.8,107,63.9,107
		z"/>
	<path d="M87.6,118.2c11.7-7.5,19.3-20,20.5-33.7l0,0c0.1-0.1,0.3-0.3,0.3-0.6c8.3-24.5,6.4-40.7,6.3-41.4v-0.2
		c-1.5-8.2-7.1-15-16.2-19.8c-16.9-8.9-40.6-8.4-52.9-2.9c-15.9,7.2-25.2,0.3-25.6,0.1c-1-0.8-2.3-0.9-3.4-0.4s-1.9,1.6-2,2.8
		l-1.3,16.8c-0.1,0.8-2.4,20.3,6,44.9c1,14.1,8.7,26.8,20.7,34.4c-12.6,7.3-27.6,21.4-29.7,47.2c-0.2,1.8,1.2,3.5,3.1,3.6
		c1.8,0.1,3.5-1.2,3.6-3.1c2-25.2,17.4-37.9,30-44.1c5.4,2.2,11,3.3,16.8,3.3c5.9,0,11.6-1.1,17-3.4c12.7,6.2,28.1,18.9,30.1,44.2
		c0.1,1.7,1.6,3.1,3.3,3.1c0.1,0,0.2,0,0.3,0c1.8-0.1,3.2-1.8,3.1-3.6C115.4,139.6,100.3,125.5,87.6,118.2z M95.4,28.5
		c7.3,3.8,11.5,8.8,12.7,14.9c0.1,0.5,1.3,13-4,31.9L92.4,58.5c-0.6-0.9-1.6-1.4-2.7-1.4c-0.4,0-0.8,0.1-1.2,0.2
		c-0.1,0.1-13.1,5.1-24.7,5.2c-11.2-0.1-23.9-5-24.4-5.2c-1.4-0.6-3.1-0.1-4,1.2L23.6,75.3c-5.4-19.7-3.8-35-3.7-35.6l1-11.9
		c5,1.9,14.7,3.9,27.5-1.9C59.3,20.9,80.8,20.8,95.4,28.5z M39.4,64.5c4.4,1.5,14.7,4.7,24.7,4.8c9.7-0.1,19.9-3.2,24.3-4.8
		l13.1,18.7c-1.3,19.8-17.9,35.3-37.8,35.3c-19.7,0-36.2-15.3-37.8-34.9L39.4,64.5z"/>
	<path d="M251.2,55.4c-16.7-43.7-56-41.9-56.3-41.8h-0.5c-0.4,0-39.9-1.7-56.5,41.8c-13,33.9,11.4,71.8,15.4,77.7
		c-7.5,9.1-11.8,20.2-12.8,33c-0.2,1.8,1.2,3.5,3.1,3.6c1.9,0.1,3.5-1.3,3.6-3.1c2-25.2,17.4-37.9,30-44.2c5.4,2.2,11.1,3.4,17,3.4
		s11.6-1.1,17-3.4c12.6,6.2,28,18.9,30,44.2c0.1,1.7,1.6,3.1,3.3,3.1c0.1,0,0.2,0,0.3,0c1.8-0.1,3.2-1.8,3.1-3.6
		c-1-12.5-5.2-23.4-12.4-32.4C238.6,129,264.5,90.2,251.2,55.4z M157,73.7c17.1,1.2,48.1,0.9,68.5-13.8c4.2,6.2,6.6,13.8,6.6,21.3
		c0,20.9-17,37.9-37.9,37.9s-37.9-17-37.9-37.9C156.2,78.7,156.5,76.2,157,73.7z M238.7,81.2c0-10.2-3.6-20.2-10-28.2
		c-0.6-0.7-1.4-1.1-2.3-1.2c-0.9-0.1-1.8,0.2-2.4,0.8c-19.9,16.5-55.1,15.4-69.3,14.2c-1.6-0.2-3.1,0.8-3.5,2.4c-1.1,4-1.7,8-1.7,12
		c0,15.4,7.7,29.4,20.8,37.6c-4.6,2.7-8.7,5.7-12.3,9.2c-5.2-8-24.9-41.4-13.9-70.2c14.9-39,48.6-37.6,50.1-37.5h0.9
		c1,0,9.6-0.2,19.8,4.2c13.8,6,23.9,17.2,30.1,33.3c11.1,29.2-8.9,62.7-14.2,70.7c-3.8-3.7-8.1-7-12.8-9.7
		C231,110.6,238.7,96.6,238.7,81.2z"/>
	<circle cx="181.1" cy="84.8" r="4.4"/>
	<circle cx="207.9" cy="84.8" r="4.4"/>
	<path d="M194.5,107.6c7.1,0,14-2.5,19.5-7.1c0.7-0.6,1.1-1.4,1.2-2.3c0.1-0.9-0.2-1.8-0.8-2.4c-1.2-1.4-3.3-1.6-4.7-0.4l0,0
		c-8.5,7.2-21.8,7.2-30.4,0c-0.7-0.6-1.5-0.9-2.4-0.8c-0.9,0.1-1.7,0.5-2.3,1.2s-0.9,1.5-0.8,2.4c0.1,0.9,0.5,1.7,1.2,2.3
		C180.5,105.1,187.4,107.6,194.5,107.6z"/>
</g>
<path d="M270.4,116h-4.9c-2.5,0-4.5-2-4.5-4.5v0c0-2.5,2-4.5,4.5-4.5h4.9c2.5,0,4.5,2,4.5,4.5v0C274.9,114,272.9,116,270.4,116z"/>
<path d="M297.3,116h-13c-2.5,0-4.5-2-4.5-4.5v0c0-2.5,2-4.5,4.5-4.5h13c2.5,0,4.5,2,4.5,4.5v0C301.8,114,299.8,116,297.3,116z"/>
<path d="M323.9,116h-13c-2.5,0-4.5-2-4.5-4.5v0c0-2.5,2-4.5,4.5-4.5h13c2.5,0,4.5,2,4.5,4.5v0C328.4,114,326.4,116,323.9,116z"/>
<g id="Cay7dE_1_">
	<g>
		<path d="M576,163.7c17.7,0.1,35.2,0.2,53,0.3c0-1.5,0-3,0-4.4c0-9.8,0.1-19.6,0.1-29.4c0-1.4,0.5-2.5,1.7-3.1
			c1.1-0.6,2.4-0.6,3.3,0.3c0.6,0.6,1.3,1.7,1.3,2.5c0,12.4-0.1,24.9-0.2,37.3c0,1.8-1.2,3-3,3.1c-0.5,0-1,0-1.4,0
			c-19.1-0.1-38.1-0.2-57.2-0.3c-2.9,0-3.9-1-3.9-4c0-5.8,0.1-11.6,0.1-17.4c0-0.5,0-1,0-1.8c-1.8,0-18.5,0-20.3,0
			c-4.8,0-9.6,0-14.4-0.1c-2.5,0-3.6-1.2-3.6-3.7c0.1-18.8,0.2-37.6,0.3-56.4c0.1-13.3,0.1-26.6,0.2-39.9c0-10,0.1-20,0.2-30
			c0-2.4,1.3-3.6,3.6-3.6c19.5,0.1,39,0.2,58.5,0.3c2.3,0,3.5,1.3,3.5,3.6c0,5.9-0.1,11.9-0.1,17.8c0,0.6,0,1.1,0,1.8
			c2.5,0,19.7,0,22,0c4.2,0,8.3,0,12.5,0.1c2.6,0,3.8,1.2,3.8,3.8c-0.1,19.9-0.2,39.9-0.3,59.8c0,1.4-0.2,2.7-1.6,3.4
			c-2.2,1.2-4.7-0.2-4.7-2.8c0-6,0.1-12,0.1-17.9c0.1-13.2,0.1-26.4,0.2-39.6c0-0.1,0-0.2-0.1-0.4c-17.6-0.1-35.2-0.2-52.9-0.3
			C576.4,83,576.2,123.3,576,163.7z M538.4,19.5c-0.2,40.4-0.4,80.6-0.6,120.9c5.7,0,26.3,0.1,31.9,0.1c0-0.5,0.1-0.9,0.1-1.2
			c0.1-10.7,0.1-21.3,0.2-32c0.1-22.3,0.2-44.6,0.3-66.9c0-3,1-4,4-4c10.1,0,20.3,0.1,30.4,0.2c0.5,0-14,0-13.5,0
			c0-5.7,0.1-11.2,0.1-16.8C573.6,19.7,556,19.6,538.4,19.5z"/>
		<path d="M585.9,134.7c0-9.1,7.4-16.5,16.4-16.6c8.9-0.1,16.7,6.9,16.9,16.2c0.2,9.9-7.9,17-16.5,17
			C593.4,151.3,585.9,143.9,585.9,134.7z M602.5,145c5.8,0.2,10.4-4.7,10.4-10.3c0.1-5.5-4.7-10.2-10.1-10.3
			c-5.8-0.1-10.5,4.5-10.5,10.2C592.1,140.2,596.7,144.9,602.5,145z"/>
		<path d="M615.4,78c0,6.4-0.1,12.7-0.1,19.1c0,2.4-1.8,3.8-3.9,3.3c-1.4-0.3-2.4-1.5-2.4-3.1c0-7.1,0.1-14.3,0.1-21.4
			c0-4.1,0-8.1,0.1-12.2c0-2,0-4.1,0.3-6c0.3-1.8,1.7-2.5,3.4-2.2c1.5,0.2,2.5,1.4,2.5,3.1c0,2.2-0.1,4.5-0.1,6.7
			C615.3,69.6,615.3,73.8,615.4,78C615.3,78,615.4,78,615.4,78z"/>
		<path d="M596.5,87.6c0,5.6,0,11.2-0.1,16.8c0,2.8-2.4,4.3-4.7,3.1c-1.3-0.7-1.7-1.9-1.6-3.3c0-4.9,0.1-9.7,0.1-14.6
			c0-6.2,0.1-12.4,0.1-18.6c0-2.2,1.1-3.5,2.9-3.6c2-0.1,3.4,1.3,3.4,3.5C596.6,76.4,596.6,82,596.5,87.6z"/>
		<path d="M632.3,118.5c-1.9,0-3.2-1.4-3.1-3.2c0.1-1.7,1.5-3,3.1-3c1.8,0,3.2,1.5,3.1,3.3C635.4,117.3,634.1,118.6,632.3,118.5z"/>
	</g>
</g>
<path class="st0" d="M195,19.5c1,0,9.6-0.2,19.8,4.2c13.8,6,23.9,17.2,30.1,33.3c11.1,29.2-8.9,62.7-14.2,70.7
	c-3.8-3.7-8.1-7-12.8-9.7c13-8.3,20.8-22.2,20.8-37.6c0-10.2-3.6-20.2-10-28.2c-0.6-0.7-1.4-1.1-2.3-1.2c-0.9-0.1-1.8,0.2-2.4,0.8
	c-19.9,16.5-55.1,15.4-69.3,14.2c-1.6-0.2-3.1,0.8-3.5,2.4c-1.1,4-1.7,8-1.7,12c0,15.4,7.7,29.4,20.8,37.6
	c-4.6,2.7-8.7,5.7-12.3,9.2c-5.2-8-24.9-41.4-13.9-70.2c14.9-39,48.6-37.6,50.1-37.5H195"/>
<path d="M500.2,116.8h-38.7c-2.5,0-4.5-2-4.5-4.5v0c0-2.5,2-4.5,4.5-4.5h38.7c2.5,0,4.5,2,4.5,4.5v0
	C504.7,114.8,502.7,116.8,500.2,116.8z"/>
<path d="M521.4,116.8h-4.9c-2.5,0-4.5-2-4.5-4.5v0c0-2.5,2-4.5,4.5-4.5h4.9c2.5,0,4.5,2,4.5,4.5v0
	C525.9,114.8,523.9,116.8,521.4,116.8z"/>
<path class="st0" d="M602.4,145c5.8,0.2,10.4-4.7,10.4-10.3c0.1-5.5-4.7-10.2-10.1-10.3c-5.8-0.1-10.5,4.5-10.5,10.2
	C592.1,140.3,596.7,144.9,602.4,145z"/>
<path class="st1" d="M564.6,122.6c5.8,0.2,10.4-4.7,10.4-10.3c0.1-5.5-4.7-10.2-10.1-10.3c-5.8-0.1-10.5,4.5-10.5,10.2
	C554.3,117.9,558.9,122.6,564.6,122.6z"/>
<path d="M573.1,132.5L573.1,132.5c-1.7,0-3.1-1.4-3.1-3.1v-25.7c0-1.7,1.4-3.1,3.1-3.1l0,0c1.7,0,3.1,1.4,3.1,3.1v25.7
	C576.2,131.1,574.8,132.5,573.1,132.5z"/>
<g id="_x35_eYWNM_1_">
	<g>
		<path d="M355,159.1c-0.7-0.2-1.3-0.4-2-0.5c-6.6-1.8-11.4-7.7-11.9-14.6c-0.5-6.4-1.2-12.9-1.8-19.3c-0.7-7.2-1.4-14.4-2.1-21.6
			c-0.5-5.1-0.7-10.2-1.5-15.3c-1-6.4,3.2-13.7,10.1-16.2c1.8-0.7,3.8-0.9,5.8-1.1c2.6-0.2,5.1,0,7.9,0c0-0.7,0-1.2,0-1.8
			c0-6.4,0.2-12.8,0-19.2C358.7,32.8,372,22.4,383.1,20c15-3.3,31.5,6.9,34.9,21.9c0.4,1.9,0.6,3.9,0.6,5.9c0.1,7,0,14,0,21
			c0,0.5,0,1,0,1.7c2.8,0,5.4-0.1,8.1,0c6.7,0.2,11.5,3.5,14.5,9.4c1.5,3.1,1.3,6.3,1,9.6c-0.9,9.3-1.8,18.5-2.7,27.8
			c-0.8,8.1-1.6,16.2-2.4,24.4c-0.2,1.6-0.2,3.3-0.6,4.9c-1.7,6.6-6,10.6-12.6,12.1c-0.3,0.1-0.5,0.2-0.8,0.3
			C400.4,159.1,377.7,159.1,355,159.1z M389.1,76.3c-3,0-6,0-9,0c-9.5,0-19.1,0-28.6,0c-6.6,0-10.4,4.1-9.8,10.7
			c0.9,9.6,1.8,19.3,2.8,28.9c0.9,9.8,1.8,19.6,2.8,29.3c0.4,3.7,2.8,6.6,6.4,7.5c1.6,0.4,3.3,0.5,4.9,0.5c9.9,0,19.7,0,29.6,0
			c11,0,22,0,32.9,0c5.4,0,9.3-3.2,9.8-8.1c0.7-7.6,1.4-15.1,2.2-22.7c1.1-11.3,2.2-22.7,3.2-34c0.2-1.7,0.3-3.5-0.1-5.2
			c-0.9-4.4-4.5-6.9-9.7-6.9C414,76.3,401.6,76.3,389.1,76.3z M365.4,70.4c15.8,0,31.4,0,47.1,0c0-0.2,0.1-0.4,0.1-0.6
			c0-8.1,0.1-16.1-0.1-24.2c-0.1-4.5-1.8-8.6-4.8-11.9c-6.3-7.2-14.3-9.7-23.6-8c-11.1,2-19.1,11.2-18.8,22.1c0.2,7,0,13.9,0,20.9
			C365.4,69.3,365.4,69.8,365.4,70.4z"/>
		<path d="M389,135.4c-2,0-4.1,0-6.1,0c-2.1,0-3.2-0.9-3.4-3c-0.8-6.4-1.6-12.8-2.3-19.2c-0.5-5.1,1.9-8.7,6.1-11.2
			c4.1-2.5,8.4-2.3,12.4,0.5c4,2.8,5.9,6.5,5.2,11.5c-0.8,5.8-1.5,11.6-2.1,17.4c-0.4,3.3-1.1,4-4.5,4c-0.9,0-1.8,0-2.6,0
			C390.8,135.4,389.9,135.4,389,135.4C389,135.4,389,135.4,389,135.4z M389,129.6c0,0,0-0.1,0-0.1c0.9,0,1.8-0.1,2.8,0
			c1,0.1,1.3-0.3,1.4-1.3c0.4-3.7,0.9-7.3,1.3-11c0.2-1.5,0.3-2.9,0.5-4.4c0.3-2.3-0.2-4.4-2.3-5.7c-2.4-1.4-5-1.5-7.4-0.1
			c-2.1,1.2-2.7,3.3-2.4,5.6c0.5,4.3,1,8.5,1.6,12.8c0.2,1.3-0.1,3,0.6,3.7C386,129.8,387.7,129.5,389,129.6z"/>
		<path class="st0" d="M389,129.6c-1.3-0.1-3,0.2-3.8-0.5c-0.7-0.7-0.5-2.4-0.6-3.7c-0.5-4.2-1.1-8.5-1.6-12.8
			c-0.3-2.3,0.3-4.4,2.4-5.6c2.4-1.4,5-1.4,7.4,0.1c2.1,1.3,2.6,3.4,2.3,5.7c-0.2,1.5-0.3,2.9-0.5,4.4c-0.4,3.7-0.9,7.3-1.3,11
			c-0.1,1-0.4,1.4-1.4,1.3c-0.9-0.1-1.8,0-2.8,0C389,129.6,389,129.6,389,129.6z"/>
	</g>
</g>
</svg>
