<?xml version="1.0" encoding="utf-8"?>
<!-- Generator: Adobe Illustrator 21.1.0, SVG Export Plug-In . SVG Version: 6.00 Build 0)  -->
<svg version="1.1" id="Layer_1" xmlns="http://www.w3.org/2000/svg" xmlns:xlink="http://www.w3.org/1999/xlink" x="0px" y="0px"
	 viewBox="0 0 300 107.3" style="enable-background:new 0 0 300 107.3;" xml:space="preserve">
<style type="text/css">
	.st0{fill:#383838;}
	.st1{fill:#FBAA1A;}
</style>
<polygon class="st0" points="91.8,94 97.8,94 97.8,92.4 93.6,92.4 93.6,90.5 97.7,90.5 97.7,88.9 93.6,88.9 93.6,87.1 97.8,87.1 
	97.8,85.6 91.8,85.6 "/>
<polygon class="st0" points="101.7,92.2 100.1,87.9 98.3,87.9 100.8,94 102.5,94 105,87.9 103.3,87.9 "/>
<path class="st0" d="M108.5,87.7c-1.9,0-3.2,1.4-3.2,3.2c0,2,1.4,3.2,3.3,3.2c1,0,1.9-0.3,2.5-0.9l-0.7-1c-0.4,0.4-1.1,0.6-1.6,0.6
	c-1,0-1.7-0.6-1.8-1.4h4.6v-0.4C111.6,89.1,110.3,87.7,108.5,87.7z M107,90.4c0.1-0.6,0.5-1.4,1.5-1.4c1.1,0,1.5,0.8,1.5,1.4H107z"
	/>
<path class="st0" d="M116.5,87.7c-1,0-1.8,0.5-2.1,1v-0.8h-1.6V94h1.6v-4.1c0.3-0.4,0.8-0.7,1.4-0.7c0.7,0,1.1,0.3,1.1,1.1V94h1.6
	v-4.3C118.5,88.5,117.9,87.7,116.5,87.7z"/>
<path class="st0" d="M122.6,92.8c-0.4,0-0.6-0.3-0.6-0.7v-2.8h1.2v-1.4h-1.2v-1.7h-1.6v1.7h-1v1.4h1v3.2c0,1.1,0.6,1.7,1.7,1.7
	c0.7,0,1.1-0.2,1.3-0.4l-0.3-1.2C123.1,92.7,122.9,92.8,122.6,92.8z"/>
<polygon class="st0" points="127.2,87.1 129.7,87.1 129.7,94 131.5,94 131.5,87.1 134,87.1 134,85.6 127.2,85.6 "/>
<rect x="135.1" y="87.9" class="st0" width="1.6" height="6.1"/>
<path class="st0" d="M135.9,85.3c-0.5,0-1,0.4-1,1s0.4,1,1,1c0.5,0,1-0.4,1-1S136.4,85.3,135.9,85.3z"/>
<path class="st0" d="M141.2,89.2c0.6,0,1,0.2,1.3,0.7l1.1-1c-0.4-0.6-1.2-1.1-2.4-1.1c-1.9,0-3.3,1.3-3.3,3.2c0,1.9,1.4,3.2,3.3,3.2
	c1.3,0,2-0.5,2.4-1.1l-1.1-1c-0.3,0.4-0.7,0.7-1.3,0.7c-1,0-1.7-0.7-1.7-1.8C139.6,89.9,140.3,89.2,141.2,89.2z"/>
<polygon class="st0" points="150.6,87.9 148.6,87.9 146.3,90.6 146.3,85.6 144.6,85.6 144.6,94 146.3,94 146.3,92.5 147,91.7 
	148.6,94 150.6,94 148.1,90.7 "/>
<path class="st0" d="M154.2,87.7c-1.9,0-3.2,1.4-3.2,3.2c0,2,1.4,3.2,3.3,3.2c1,0,1.9-0.3,2.5-0.9l-0.7-1c-0.4,0.4-1.1,0.6-1.6,0.6
	c-1,0-1.7-0.6-1.8-1.4h4.6v-0.4C157.2,89.1,156,87.7,154.2,87.7z M152.6,90.4c0.1-0.6,0.5-1.4,1.5-1.4c1.1,0,1.5,0.8,1.5,1.4H152.6z
	"/>
<path class="st0" d="M160.9,92.8c-0.4,0-0.6-0.3-0.6-0.7v-2.8h1.2v-1.4h-1.2v-1.7h-1.6v1.7h-1v1.4h1v3.2c0,1.1,0.6,1.7,1.7,1.7
	c0.7,0,1.1-0.2,1.3-0.4l-0.3-1.2C161.4,92.7,161.1,92.8,160.9,92.8z"/>
<path class="st0" d="M163.5,85.3c-0.5,0-1,0.4-1,1s0.4,1,1,1c0.5,0,1-0.4,1-1S164,85.3,163.5,85.3z"/>
<rect x="162.7" y="87.9" class="st0" width="1.6" height="6.1"/>
<path class="st0" d="M169.7,87.7c-1,0-1.8,0.5-2.1,1v-0.8h-1.6V94h1.6v-4.1c0.3-0.4,0.8-0.7,1.4-0.7c0.7,0,1.1,0.3,1.1,1.1V94h1.6
	v-4.3C171.7,88.5,171,87.7,169.7,87.7z"/>
<path class="st0" d="M177.5,88.7c-0.5-0.6-1.2-0.9-1.9-0.9c-1.6,0-2.7,1.1-2.7,3.1c0,2,1.2,3.1,2.7,3.1c0.8,0,1.4-0.4,1.9-1v0.6
	c0,1.2-0.9,1.5-1.7,1.5s-1.4-0.2-1.9-0.8l-0.7,1.2c0.8,0.7,1.6,0.9,2.6,0.9c1.5,0,3.3-0.6,3.3-2.9v-5.7h-1.6V88.7z M177.5,91.9
	c-0.3,0.4-0.9,0.7-1.4,0.7c-0.9,0-1.5-0.6-1.5-1.7s0.6-1.7,1.5-1.7c0.5,0,1.1,0.3,1.4,0.7V91.9z"/>
<path class="st0" d="M190.8,90.3l-1.3-0.6c-0.2,0.5-0.4,1.1-0.8,1.6c-0.2-0.3-0.5-0.6-0.7-0.9c-0.2-0.3-0.5-0.6-0.7-0.9
	c1-0.5,2.1-1,2.1-2.3c0-1.1-1-1.8-2.2-1.8c-1.4,0-2.4,0.9-2.4,2c0,0.6,0.2,1.2,0.6,1.8c-1,0.5-1.8,1.2-1.8,2.4
	c0,1.6,1.2,2.5,2.8,2.5c0.9,0,1.7-0.3,2.3-0.8c0.2,0.3,0.5,0.5,0.6,0.6h2.1c-0.6-0.6-1.1-1.2-1.6-1.7
	C190.1,91.7,190.5,91,190.8,90.3z M187.2,86.6c0.4,0,0.8,0.3,0.8,0.7c0,0.6-0.6,1-1.3,1.3c-0.2-0.4-0.4-0.8-0.4-1.1
	C186.4,87,186.7,86.6,187.2,86.6z M186.5,92.9c-0.7,0-1.3-0.5-1.3-1.3c0-0.6,0.3-1,0.7-1.3c0.3,0.4,0.6,0.8,0.9,1.1
	c0.2,0.3,0.6,0.7,0.9,1.1C187.4,92.8,186.9,92.9,186.5,92.9z"/>
<path class="st0" d="M199.6,87c0.9,0,1.6,0.5,2,1.2l1.5-0.8c-0.6-1.1-1.7-2.1-3.5-2.1c-2.5,0-4.5,1.8-4.5,4.4c0,2.6,2,4.4,4.5,4.4
	c1.9,0,2.9-1,3.5-2.1l-1.5-0.8c-0.4,0.7-1.1,1.2-2,1.2c-1.5,0-2.7-1.2-2.7-2.8S198,87,199.6,87z"/>
<path class="st0" d="M206.8,87.7c-1,0-1.9,0.3-2.7,1l0.6,1.1c0.5-0.5,1.1-0.7,1.8-0.7c0.8,0,1.3,0.4,1.3,1v0.8
	c-0.4-0.5-1.1-0.8-1.9-0.8c-1,0-2.1,0.5-2.1,2c0,1.4,1.2,2,2.1,2c0.8,0,1.5-0.3,1.9-0.8V94h1.6v-4C209.5,88.3,208.2,87.7,206.8,87.7
	z M207.9,92.6c-0.3,0.4-0.8,0.5-1.3,0.5c-0.6,0-1.2-0.3-1.2-0.9c0-0.6,0.5-0.9,1.2-0.9c0.5,0,1,0.2,1.3,0.5V92.6z"/>
<path class="st0" d="M213.5,90.2c-0.7-0.1-1.2-0.2-1.2-0.6c0-0.3,0.4-0.6,1-0.6c0.8,0,1.4,0.3,1.8,0.7l0.6-1.1
	c-0.6-0.5-1.4-0.8-2.5-0.8c-1.6,0-2.5,0.9-2.5,1.9c0,1.5,1.4,1.7,2.4,1.9c0.7,0.1,1.2,0.2,1.2,0.7c0,0.4-0.3,0.7-1,0.7
	c-0.8,0-1.7-0.4-2.1-0.8l-0.7,1.1c0.6,0.6,1.7,1,2.7,1c1.7,0,2.7-0.9,2.7-2C216,90.7,214.5,90.4,213.5,90.2z"/>
<path class="st0" d="M220.9,87.7c-1,0-1.8,0.5-2.2,1v-3.1h-1.6V94h1.6v-4.1c0.3-0.4,0.8-0.7,1.4-0.7c0.7,0,1.1,0.3,1.1,1.1V94h1.6
	v-4.4C222.9,88.5,222.3,87.7,220.9,87.7z"/>
<rect x="224.5" y="85.6" class="st0" width="1.6" height="8.5"/>
<path class="st0" d="M230.5,87.7c-1.9,0-3.2,1.4-3.2,3.2c0,2,1.4,3.2,3.3,3.2c1,0,1.9-0.3,2.5-0.9l-0.7-1c-0.4,0.4-1.1,0.6-1.6,0.6
	c-1,0-1.7-0.6-1.8-1.4h4.6v-0.4C233.6,89.1,232.4,87.7,230.5,87.7z M229,90.4c0.1-0.6,0.5-1.4,1.5-1.4c1.1,0,1.5,0.8,1.5,1.4H229z"
	/>
<path class="st0" d="M237.2,90.2c-0.7-0.1-1.2-0.2-1.2-0.6c0-0.3,0.4-0.6,1-0.6c0.8,0,1.4,0.3,1.8,0.7l0.6-1.1
	c-0.6-0.5-1.4-0.8-2.5-0.8c-1.6,0-2.5,0.9-2.5,1.9c0,1.5,1.4,1.7,2.4,1.9c0.7,0.1,1.2,0.2,1.2,0.7c0,0.4-0.3,0.7-1,0.7
	c-0.8,0-1.7-0.4-2.1-0.8l-0.7,1.1c0.6,0.6,1.7,1,2.7,1c1.7,0,2.7-0.9,2.7-2C239.6,90.7,238.2,90.4,237.2,90.2z"/>
<path class="st0" d="M243.2,90.2c-0.7-0.1-1.2-0.2-1.2-0.6c0-0.3,0.4-0.6,1-0.6c0.8,0,1.4,0.3,1.8,0.7l0.6-1.1
	c-0.6-0.5-1.4-0.8-2.5-0.8c-1.6,0-2.5,0.9-2.5,1.9c0,1.5,1.4,1.7,2.4,1.9c0.7,0.1,1.2,0.2,1.2,0.7c0,0.4-0.3,0.7-1,0.7
	c-0.8,0-1.7-0.4-2.1-0.8l-0.7,1.1c0.6,0.6,1.7,1,2.7,1c1.7,0,2.7-0.9,2.7-2C245.7,90.7,244.3,90.4,243.2,90.2z"/>
<path class="st0" d="M253.4,88.8c-0.9-0.2-1.7-0.4-1.7-0.9c0-0.5,0.4-0.9,1.2-0.9c0.9,0,1.8,0.3,2.5,0.9l1-1.3
	c-0.8-0.8-2-1.2-3.3-1.2c-2,0-3.2,1.2-3.2,2.6c0,1.9,1.8,2.3,3.2,2.6c0.9,0.2,1.7,0.4,1.7,1c0,0.5-0.5,0.9-1.5,0.9
	c-1.2,0-2.1-0.5-2.7-1.1l-1,1.4c0.8,0.8,2,1.3,3.6,1.3c2.3,0,3.4-1.2,3.4-2.7C256.6,89.5,254.8,89.1,253.4,88.8z"/>
<path class="st0" d="M260.6,87.7c-1.9,0-3.2,1.4-3.2,3.2c0,2,1.4,3.2,3.3,3.2c1,0,1.9-0.3,2.5-0.9l-0.7-1c-0.4,0.4-1.1,0.6-1.6,0.6
	c-1,0-1.7-0.6-1.8-1.4h4.6v-0.4C263.6,89.1,262.4,87.7,260.6,87.7z M259.1,90.4c0.1-0.6,0.5-1.4,1.5-1.4c1.1,0,1.5,0.8,1.5,1.4
	H259.1z"/>
<path class="st0" d="M266.4,88.7v-0.8h-1.6V94h1.6V90c0.3-0.4,1-0.7,1.5-0.7c0.2,0,0.3,0,0.4,0v-1.6
	C267.6,87.7,266.9,88.2,266.4,88.7z"/>
<polygon class="st0" points="271.9,92.2 270.2,87.9 268.5,87.9 271,94 272.7,94 275.2,87.9 273.5,87.9 "/>
<rect x="275.9" y="87.9" class="st0" width="1.6" height="6.1"/>
<path class="st0" d="M276.7,85.3c-0.5,0-1,0.4-1,1s0.4,1,1,1c0.5,0,1-0.4,1-1S277.3,85.3,276.7,85.3z"/>
<path class="st0" d="M282.1,89.2c0.6,0,1,0.2,1.3,0.7l1.1-1c-0.4-0.6-1.2-1.1-2.4-1.1c-1.9,0-3.3,1.3-3.3,3.2c0,1.9,1.4,3.2,3.3,3.2
	c1.3,0,2-0.5,2.4-1.1l-1.1-1c-0.3,0.4-0.7,0.7-1.3,0.7c-1,0-1.7-0.7-1.7-1.8C280.4,89.9,281.1,89.2,282.1,89.2z"/>
<path class="st0" d="M288.3,87.7c-1.9,0-3.2,1.4-3.2,3.2c0,2,1.4,3.2,3.3,3.2c1,0,1.9-0.3,2.5-0.9l-0.7-1c-0.4,0.4-1.1,0.6-1.6,0.6
	c-1,0-1.7-0.6-1.8-1.4h4.6v-0.4C291.3,89.1,290.1,87.7,288.3,87.7z M286.8,90.4c0.1-0.6,0.5-1.4,1.5-1.4c1.1,0,1.5,0.8,1.5,1.4
	H286.8z"/>
<path class="st0" d="M294.9,90.2c-0.7-0.1-1.2-0.2-1.2-0.6c0-0.3,0.4-0.6,1-0.6c0.8,0,1.4,0.3,1.8,0.7l0.6-1.1
	c-0.6-0.5-1.4-0.8-2.5-0.8c-1.6,0-2.5,0.9-2.5,1.9c0,1.5,1.4,1.7,2.4,1.9c0.7,0.1,1.2,0.2,1.2,0.7c0,0.4-0.3,0.7-1,0.7
	c-0.8,0-1.7-0.4-2.1-0.8l-0.7,1.1c0.6,0.6,1.7,1,2.7,1c1.7,0,2.7-0.9,2.7-2C297.4,90.7,296,90.4,294.9,90.2z"/>
<circle class="st0" cx="43" cy="64.9" r="12.4"/>
<path class="st1" d="M64,20.6V32c-6.1-3.7-13.3-5.9-21-5.9c-9.1,0-17.4,3-24.2,8c-3.4-5.2-9.3-8.6-16-8.6v40.4
	c0,22,18,39.9,40.2,39.9c22.1,0,40.2-17.9,40.2-39.9V1.5C72.6,1.5,64,10.1,64,20.6z M43,86.9c-11.6,0-21-9.4-21-20.9
	s9.4-20.8,21-20.8s21,9.3,21,20.8S54.6,86.9,43,86.9z"/>
<path class="st1" d="M12.3,21.3C12.3,21.3,12.3,21.3,12.3,21.3c0.1,0,0.1,0,0.1,0c5.3,0,9.6-4.3,9.6-9.6s-4.3-9.6-9.6-9.6
	s-9.6,4.3-9.6,9.6c0,0,0,0,0,0.1c0,0,0,0,0,0.1C2.8,17,7.1,21.3,12.3,21.3z"/>
<path class="st0" d="M196.5,75.4V27.6c0-0.4-0.3-0.7-0.7-0.9l-0.1,0h-12.5c-0.4,0-0.7,0.3-0.9,0.7l0,0.1v47.8c0,0.5,0.4,0.9,0.9,0.9
	h12.4C196.1,76.2,196.5,75.9,196.5,75.4z"/>
<path class="st0" d="M209.1,55.6h8.7c2.4,0,2.7-1.5,2.7-2.1v-4.2c0-0.6-0.3-2.1-2.7-2.1h-8.6c-2.5,0-2.7,1.5-2.7,2.1v4.2
	C206.4,54.2,206.7,55.6,209.1,55.6z"/>
<path class="st0" d="M228,76.2h12.4c0.5,0,0.9-0.4,0.9-0.9L241,27.6c0-0.4-0.3-0.7-0.7-0.9l-0.1,0h-12.5c-0.4,0-0.7,0.3-0.9,0.7
	l0,0.1l0.3,47.8C227.1,75.9,227.5,76.2,228,76.2z"/>
<path class="st0" d="M291,3.8c-2.1-1.1-6-1.4-6.2-1.4l0,26.7c-3.3-1.6-7-2.5-10.6-2.5c-6.1,0-11.7,2.1-16.6,6.3l0,0
	c-5.4,5.3-8.2,11.3-8.2,17.6v1.8c0,6,2.5,11.7,7.4,16.9l0,0c5.1,4.6,10.9,6.9,16.6,6.9h2.1c3.1,0,6.2-0.8,9.5-2.4l0,1.7
	c0,0.5,0.4,0.9,0.9,0.9h12.4c0.5,0,0.9-0.4,0.9-0.9l0.2-58.9C299.3,11,295.7,6.1,291,3.8z M284.7,51.8c0,1-0.2,2.2-0.7,3.6
	c-2.3,4.5-5.5,6.7-9.9,6.7c-1.3,0-2.8-0.3-4.5-1c-4.1-2.4-6.1-5.4-6.1-9.2v-0.5l0,0c0,0,0-0.1,0-0.1v-0.5c0-0.7,0.1-1.5,0.4-2.5
	c2-5,5.4-7.5,10.3-7.5c1.7,0,3.3,0.4,4.9,1.2c3.7,2.3,5.6,5.3,5.6,9.1V51.8z"/>
<path class="st0" d="M174.9,76.5c0.5,0,0.9-0.4,0.9-0.9V50.3c0-1.4-0.3-3.1-0.8-5.1c-0.8-3.3-2.8-6.9-5.8-10.5l0,0
	c-5.3-5.2-11.1-7.8-17.3-7.8h-1.8c-6,0-11.7,2.5-16.9,7.4c-5.2-4.9-10.8-7.4-16.9-7.4h-1.7c-5.2,0-10.3,2-15.3,5.9l0,0
	c-5.4,5.1-8.3,10.8-8.6,16.9l0,26v0.1c0,0.5,0.4,0.9,0.9,0.9h0.3l12,0.1c0.5,0,0.9-0.4,0.9-0.9l0-21.9c0-3.4,0.4-5.9,1.3-7.2
	c2.4-3.8,5.3-5.6,8.9-5.6c0,0,3.1,0,5.4,1.1c3.9,2.4,5.8,5.4,5.8,9.2v24.3c0,0.5,0.4,0.9,0.9,0.9h12.5c0.5,0,0.9-0.4,0.9-0.9V52.2
	c0-2.1,0.4-3.9,1.2-5.6c2.5-3.7,5.4-5.5,8.8-5.5c0,0,2.3-0.1,3.8,0.4c5,2,7.5,5.4,7.5,10.4v23.8c0,0.4,0.3,0.9,0.9,0.9H174.9z"/>
<circle class="st0" cx="190.3" cy="10" r="7.2"/>
<circle class="st0" cx="234" cy="10" r="7.2"/>
</svg>
