<?xml version="1.0" encoding="utf-8"?>
<!-- Generator: Adobe Illustrator 21.1.0, SVG Export Plug-In . SVG Version: 6.00 Build 0)  -->
<svg version="1.1" id="Layer_1" xmlns="http://www.w3.org/2000/svg" xmlns:xlink="http://www.w3.org/1999/xlink" x="0px" y="0px"
	 viewBox="0 0 123.3 35.9" style="enable-background:new 0 0 123.3 35.9;" xml:space="preserve">
<style type="text/css">
	.st0{fill:#808285;}
	.st1{fill:#FBAA1A;}
	.st2{fill:#FFFFFF;}
</style>
<circle class="st0" cx="16.1" cy="23.2" r="4.1"/>
<path class="st1" d="M23.1,8.4v3.8c-2-1.2-4.4-2-7-2c-3,0-5.8,1-8.1,2.7C6.9,11.2,4.9,10,2.7,10v13.4c0,7.3,6,13.3,13.4,13.3
	c7.4,0,13.4-6,13.4-13.3V2.1C25.9,2.1,23.1,4.9,23.1,8.4z M16.1,30.5c-3.9,0-7-3.1-7-7s3.1-6.9,7-6.9s7,3.1,7,6.9
	S19.9,30.5,16.1,30.5z"/>
<path class="st1" d="M5.8,8.6L5.8,8.6C5.9,8.6,5.9,8.6,5.8,8.6c1.8,0,3.2-1.4,3.2-3.2S7.6,2.3,5.9,2.3S2.7,3.7,2.7,5.5c0,0,0,0,0,0
	c0,0,0,0,0,0C2.7,7.2,4.1,8.6,5.8,8.6z"/>
<path class="st2" d="M73.5,31.5V13.1c0-0.2-0.1-0.3-0.3-0.3h0h-4.8c-0.2,0-0.3,0.1-0.3,0.3v0v18.3c0,0.2,0.2,0.3,0.3,0.3h4.8
	C73.3,31.8,73.5,31.7,73.5,31.5z"/>
<path class="st2" d="M78.3,23.9h3.3c0.9,0,1-0.6,1-0.8v-1.6c0-0.2-0.1-0.8-1-0.8h-3.3c-1,0-1,0.6-1,0.8v1.6
	C77.3,23.3,77.4,23.9,78.3,23.9z"/>
<path class="st2" d="M85.6,31.8h4.8c0.2,0,0.3-0.2,0.3-0.3l-0.1-18.3c0-0.2-0.1-0.3-0.3-0.3h0h-4.8c-0.2,0-0.3,0.1-0.3,0.3v0
	l0.1,18.3C85.2,31.7,85.4,31.8,85.6,31.8z"/>
<path class="st2" d="M109.7,4c-0.8-0.4-2.3-0.5-2.4-0.5v10.2c-1.3-0.6-2.7-1-4.1-1c-2.3,0-4.5,0.8-6.4,2.4l0,0
	c-2.1,2-3.1,4.3-3.1,6.8v0.7c0,2.3,1,4.5,2.8,6.5l0,0c2,1.8,4.2,2.6,6.4,2.6h0.8c1.2,0,2.4-0.3,3.6-0.9v0.7c0,0.2,0.2,0.3,0.3,0.3
	h4.8c0.2,0,0.3-0.2,0.3-0.3L113,8.9C112.9,6.7,111.6,4.9,109.7,4z M107.3,22.4c0,0.4-0.1,0.8-0.3,1.4c-0.9,1.7-2.1,2.6-3.8,2.6
	c-0.5,0-1.1-0.1-1.7-0.4c-1.6-0.9-2.3-2.1-2.3-3.5v-0.2l0,0v0V22c0-0.3,0-0.6,0.2-1c0.8-1.9,2.1-2.9,4-2.9c0.7,0,1.3,0.2,1.9,0.5
	c1.4,0.9,2.1,2,2.1,3.5L107.3,22.4L107.3,22.4z"/>
<path class="st2" d="M65.2,31.9c0.2,0,0.3-0.2,0.3-0.3v-9.7c0-0.5-0.1-1.2-0.3-2c-0.3-1.3-1.1-2.6-2.2-4l0,0c-2-2-4.3-3-6.6-3h-0.7
	c-2.3,0-4.5,1-6.5,2.8c-2-1.9-4.1-2.8-6.5-2.8H42c-2,0-4,0.8-5.9,2.3l0,0c-2.1,2-3.2,4.1-3.3,6.5v10v0c0,0.2,0.2,0.3,0.3,0.3h0.1
	l4.6,0c0.2,0,0.3-0.2,0.3-0.3v-8.4c0-1.3,0.2-2.3,0.5-2.8c0.9-1.5,2-2.1,3.4-2.1c0,0,1.2,0,2.1,0.4c1.5,0.9,2.2,2.1,2.2,3.5v9.3
	c0,0.2,0.2,0.3,0.3,0.3h4.8c0.2,0,0.3-0.2,0.3-0.3v-9.1c0-0.8,0.2-1.5,0.5-2.1c1-1.4,2.1-2.1,3.4-2.1c0,0,0.9,0,1.5,0.2
	c1.9,0.8,2.9,2.1,2.9,4v9.1c0,0.2,0.1,0.3,0.3,0.3L65.2,31.9L65.2,31.9z"/>
<circle class="st2" cx="71.1" cy="6.4" r="2.8"/>
<circle class="st2" cx="87.9" cy="6.4" r="2.8"/>
</svg>
