<?xml version="1.0" encoding="utf-8"?>
<!-- Generator: Adobe Illustrator 19.2.1, SVG Export Plug-In . SVG Version: 6.00 Build 0)  -->
<svg version="1.1" id="Layer_1" xmlns="http://www.w3.org/2000/svg" xmlns:xlink="http://www.w3.org/1999/xlink" x="0px" y="0px"
	 viewBox="0 0 100 100" style="enable-background:new 0 0 100 100;" xml:space="preserve">
<style type="text/css">
	.st0{fill:#FFFFFF;}
	.st1{fill:#FAA91A;}
</style>
<g id="kxHGsD.tif">
	<g>
		<path class="st0" d="M39.1,28c-5.7,0-11.2,0.1-16.7,0c-2,0-2.5,0.8-2.5,2.7C20,42.8,20,55,19.9,67.2c0,2.2,0.7,2.9,2.8,2.9
			c17.8-0.1,35.7-0.1,53.5,0c2.1,0,2.9-0.7,2.9-2.9c-0.1-7.2,0-14.5-0.1-21.7c0-0.6-0.1-1.3-0.2-2c-1,0.1-1.7,0.1-2.8,0.2
			c0,7.9,0,15.6,0,23.4c-17.8,0-35.4,0-53,0c0-12.1,0-24,0-36.3c5.4,0,10.7,0,16,0C39.1,29.8,39.1,29,39.1,28z M89.1,17.1
			c-0.1-0.3-0.1-0.6-0.1-0.9c-0.8-0.1-1.8-0.5-2.5-0.2c-1.9,1.1-3.8,2.3-5.5,3.7c-0.5,0.4-0.5,1.4-0.8,2.1c0.8,0.1,1.7,0.5,2.3,0.2
			c1.9-1,3.6-2.2,5.4-3.5C88.4,18.2,88.7,17.6,89.1,17.1z M86.9,28.1C86.9,28.1,86.9,28.1,86.9,28.1c1.1,0,2.3,0.2,3.4,0
			c0.6-0.1,1-0.9,1.5-1.3c-0.5-0.5-0.9-1.3-1.4-1.3c-2.3-0.1-4.7-0.1-7.1,0c-0.5,0-1.1,0.8-1.3,1.4c-0.1,0.3,0.7,1.1,1.2,1.2
			C84.4,28.2,85.7,28.1,86.9,28.1z"/>
		<path d="M5.9,73.4c2.7-0.3,5.5-0.5,8.4-0.8c0-0.6,0-1.3,0-2.1c0-14.1,0-28.2,0-42.4c0-4.3,1.4-5.7,5.5-5.8c6.4,0,12.7,0,19.2,0
			c0,1,0,1.8,0,2.9c-3.3,0-6.5,0-9.8,0c-3.3,0-6.5,0.1-9.8,0c-1.7,0-2.3,0.6-2.3,2.4c0,14.2,0,28.4,0,42.6c0,1.8,0.6,2.6,2.4,2.6
			c20,0,39.9,0,59.9,0c2,0,2.5-0.9,2.5-2.8c-0.1-9.9,0-19.8,0-29.8c0-0.9,0-1.8,0-2.9c2.1,0.5,3,1.6,2.9,3.8
			c-0.1,10.4-0.1,20.8-0.1,31.3c2.8,0.3,5.6,0.6,8.4,0.8c0,1.2,0,2.3,0,3.5c-1.3,1.5-2.6,3-3.9,4.6c-26.5,0-53,0-79.5,0
			c-1.3-1.4-2.6-2.7-3.9-4C5.9,76.1,5.9,74.8,5.9,73.4z M8.9,76c0.3,2.3,1.7,2.5,3.4,2.5c24.8,0,49.7,0,74.6,0
			c0.4,0,0.9,0.1,1.2-0.1c0.8-0.6,1.4-1.3,2.1-1.9c-0.1-0.2-0.3-0.3-0.4-0.5C62.8,76,35.9,76,8.9,76z"/>
		<path d="M72.6,9.8c2.4,1.1,3.3,3,3,5.6c-0.1,1.3,0,2.7,0,4.1c2.8,1,5.2,2.6,5.5,5.7c0.2,2.1-0.8,4.3-1.2,6.4l0.1-0.1
			c-1.2,0.7-2.4,1.3-3.6,2.1c-0.4,0.3-0.7,1-0.8,1.6c-0.1,1.6,0.3,3.3-0.2,4.8c-0.4,1.3-1.5,2.9-2.7,3.3c-1.1,0.4-3.3-0.3-3.8-1.2
			c-2.3-4.8-6.8-5-10.9-6c-1.2-0.3-2.6,0-4.2,0c0,3.2-0.1,6.3,0,9.3c0.1,2.3-0.7,3.2-3,3.1c-4.9,0-4.9,0.1-4.9-5.1
			c0-1.2,0-2.3,0-3.5c0-2.1,0.5-4.3-2.4-5.2c-0.9-0.3-1.5-2.5-1.6-3.8c-0.3-2.7-0.1-5.4-0.1-8.1c0.1-3.7,1.6-5.3,5.3-5.4
			c4.4-0.1,8.8-0.1,13.2-0.5c3.4-0.3,6.7-1.3,8.3-5.1c0.4-0.9,1.6-1.3,2.5-1.9C71.7,9.8,72.1,9.8,72.6,9.8z M67.8,35.7
			c0-6,0-12,0-17.7c-3.8,0.9-7.5,1.8-11.2,2.7c0,4.1,0,8.2,0,12C60.4,33.7,64,34.7,67.8,35.7z M53.4,20.4c-2.3,0-4.5,0-6.7,0
			c-1.5,0-1.9,1-1.9,2.3c0,2.7,0,5.4,0,8c0,1.5,0.6,2.2,2,2.3c2.2,0.1,4.3,0,6.6,0C53.4,28.8,53.4,24.8,53.4,20.4z M70.9,26.7
			c0,4,0,8.1,0,12.1c0,0.6,0.6,1.1,0.9,1.7c0.3-0.6,0.9-1.1,0.9-1.7c0.1-8.1,0.1-16.1,0-24.2c0-0.6-0.6-1.2-0.9-1.7
			c-0.3,0.6-0.9,1.1-0.9,1.7C70.9,18.6,70.9,22.7,70.9,26.7z M49.7,35.8c-0.2,0.2-0.5,0.4-0.7,0.6c0,2.7,0,5.3,0,8
			c0,0.4,0.6,0.8,0.9,1.2c0.4-0.4,1.1-0.8,1.1-1.2c0.1-2.3,0.1-4.7,0-7C50.9,36.8,50.1,36.3,49.7,35.8z M75.7,30.3
			c2.1-0.8,3.2-2.1,2.8-3.9c-0.3-1.2-1.4-2.2-2.1-3.3c-0.2,0.1-0.4,0.3-0.6,0.4C75.7,25.7,75.7,27.9,75.7,30.3z"/>
		<path d="M39.1,28c0,1,0,1.8,0,2.8c-5.3,0-10.6,0-16,0c0,12.2,0,24.2,0,36.3c17.7,0,35.2,0,53,0c0-7.8,0-15.5,0-23.4
			c1-0.1,1.8-0.2,2.8-0.2c0.1,0.8,0.2,1.4,0.2,2c0,7.2-0.1,14.5,0.1,21.7c0,2.2-0.8,2.9-2.9,2.9c-17.8-0.1-35.7-0.1-53.5,0
			c-2.1,0-2.8-0.7-2.8-2.9C20,55,20,42.8,20,30.6c0-1.9,0.5-2.7,2.5-2.7C28,28.1,33.4,28,39.1,28z"/>
		<path d="M89.1,17.1c-0.4,0.5-0.7,1-1.2,1.4c-1.8,1.2-3.5,2.5-5.4,3.5c-0.6,0.3-1.6-0.1-2.3-0.2c0.2-0.7,0.3-1.7,0.8-2.1
			c1.8-1.4,3.6-2.6,5.5-3.7c0.6-0.3,1.6,0.1,2.5,0.2C89,16.5,89,16.8,89.1,17.1z"/>
		<path d="M79.9,31.6c1,0,2.2-0.3,3.1,0.1c1.8,0.9,3.5,2.1,5.1,3.4c0.4,0.3,0.7,1.4,0.5,1.7c-0.4,0.5-1.4,0.9-1.8,0.7
			c-2.2-1.3-4.3-2.7-6.4-4.2c-0.4-0.3-0.3-1.2-0.5-1.8C80,31.6,79.9,31.6,79.9,31.6z"/>
		<path d="M86.9,28.1c-1.2,0-2.5,0.1-3.6-0.1C82.7,28,82,27.1,82,26.9c0.1-0.6,0.8-1.4,1.3-1.4c2.3-0.1,4.7-0.1,7.1,0
			c0.5,0,0.9,0.9,1.4,1.3c-0.5,0.5-0.9,1.2-1.5,1.3C89.2,28.3,88,28.1,86.9,28.1C86.9,28.1,86.9,28.1,86.9,28.1z"/>
		<path class="st1" d="M53.4,20.4c0,4.4,0,8.4,0,12.7c-2.3,0-4.4,0-6.6,0c-1.4,0-2-0.8-2-2.3c0.1-2.7,0-5.3,0-8
			c0-1.4,0.4-2.3,1.9-2.3C48.9,20.4,51.1,20.4,53.4,20.4z"/>
		<path class="st1" d="M75.7,30.3c0-2.5,0-4.6,0-6.8c0.2-0.1,0.4-0.3,0.6-0.4c0.7,1.1,1.9,2.1,2.1,3.3
			C78.8,28.2,77.7,29.5,75.7,30.3z"/>
	</g>
</g>
</svg>
