<?xml version="1.0" encoding="utf-8"?>
<!-- Generator: Adobe Illustrator 19.2.1, SVG Export Plug-In . SVG Version: 6.00 Build 0)  -->
<svg version="1.1" id="Layer_1" xmlns="http://www.w3.org/2000/svg" xmlns:xlink="http://www.w3.org/1999/xlink" x="0px" y="0px"
	 viewBox="0 0 100 100" style="enable-background:new 0 0 100 100;" xml:space="preserve">
<style type="text/css">
	.st0{fill:#FBAA19;stroke:#000000;stroke-width:4;stroke-miterlimit:10;}
</style>
<g id="v7mxUd.tif">
	<g>
		<path d="M30.3,9.6c0-1.1,0-2.1,0-3c0-2.5,1.4-3.9,3.9-3.9c2.4,0,4.8,0,7.1,0c0.4,0,22.7,0,24.7,0c0.9,0,1.7,0,2.6,0
			c2.1,0,3.5,1.4,3.6,3.5c0,1.1,0,2.2,0,3.5c0.5,0,0.8,0,1.2,0c3.4,0,6.9,0,10.3,0c2.9,0,4.2,1.3,4.2,4.1c0,19.3,0,38.6,0,57.9
			c0,6.5,0,13,0,19.5c0,2.8-1.4,4.1-4.1,4.1c-21.6,0-43.2,0-64.7,0c-0.3,0-0.5,0-0.8,0c-2.3-0.1-3.7-1.5-3.7-3.8c0-12.3,0-24.6,0-37
			c0-13.3,0-26.5,0-39.8c0-0.4,0-0.8,0-1.2c0-2.4,1.4-3.8,3.8-3.8c3.6,0,7.1,0,10.7,0C29.5,9.6,29.8,9.6,30.3,9.6z M82.7,90.1
			c0-25.1,0-50.1,0-75.1c-3.5,0-7,0-10.5,0c0,1.2,0,2.2,0,3.3c-14,0-27.9,0-41.9,0c0-1.2,0-2.3,0-3.4c-3.6,0-7,0-10.4,0
			c0,25.1,0,50.1,0,75.1C40.9,90.1,61.7,90.1,82.7,90.1z"/>
	</g>
</g>
<path class="st0" d="M67.4,45.9h-9.1V36c0-1.2-1-2.2-2.2-2.2H45.7c-1.2,0-2.2,1-2.2,2.2v9.9h-9.1c-1.2,0-2.2,1-2.2,2.2v10.4
	c0,1.2,1,2.2,2.2,2.2h9.1V69c0,1.2,1,2.2,2.2,2.2h10.4c1.2,0,2.2-1,2.2-2.2v-8.3h9.1c1.2,0,2.2-1,2.2-2.2V48.1
	C69.6,46.9,68.6,45.9,67.4,45.9z"/>
<path d="M73.7,14.9c-0.4,0-0.7,0-1.2,0c0,1.1,0,2.1,0,3c0,2.5-1.4,3.9-3.9,3.9c-2.4,0-4.8,0-7.1,0c-0.4,0-22.7,0-24.7,0
	c-0.9,0-1.7,0-2.6,0c-2.1,0-3.5-1.4-3.6-3.5c0-1.1,0-2.2,0-3.5c-0.5,0-0.8,0-1.2,0"/>
</svg>
