<?xml version="1.0" encoding="utf-8"?>
<!-- Generator: Adobe Illustrator 21.1.0, SVG Export Plug-In . SVG Version: 6.00 Build 0)  -->
<svg version="1.1" id="Layer_1" xmlns="http://www.w3.org/2000/svg" xmlns:xlink="http://www.w3.org/1999/xlink" x="0px" y="0px"
	 viewBox="0 0 660.7 176" style="enable-background:new 0 0 660.7 176;" xml:space="preserve">
<style type="text/css">
	.st0{fill:#F79916;}
	.st1{fill:#FFFFFF;}
	.st2{stroke:#000000;stroke-width:2;stroke-miterlimit:10;}
</style>
<path d="M229-93.2c-0.7-1.1-1.3-1.8-1.5-2.6c-0.1-0.3,0.7-0.9,1-1.3c0.6,0.7,1.3,1.5,1.7,2.2C230.3-94.7,229.6-94.1,229-93.2z"/>
<path class="st0" d="M584.5,36c10.1,0,5.3,0.1,15.4,0.2c0.5,0,1,0,1.5,0c0-5.7,0.1-11.2,0.1-16.8c-17.7-0.1-35.3-0.2-52.9-0.3
	c-0.2,40.4-0.4,80.6-0.6,120.9c5.7,0,26.3,0.1,31.9,0.1c0-0.5,0.1-0.9,0.1-1.2c0.1-10.7,1.1-21.3,1.2-32c0.1-22.3-0.8-44.6-0.7-66.9
	"/>
<path d="M558.1,111.9c0-9.1,7.4-16.5,16.4-16.6c8.9-0.1,10.4,7.3,10.6,16.6c0.2,9.9-1.6,16.6-10.2,16.6
	C565.6,128.6,558.1,121.2,558.1,111.9z M574.6,122.2c5.8,0.2,10.4-4.7,10.4-10.3c0.1-5.5-4.7-10.2-10.1-10.3
	c-5.8-0.1-10.5,4.5-10.5,10.2C564.3,117.5,568.9,122.1,574.6,122.2z"/>
<g id="Cay7dE_1_">
	<g>
		<path d="M586,163.3c17.7,0.1,35.2,0.2,53,0.3c0-1.5,0-3,0-4.4c0-9.8,0.1-19.6,0.1-29.4c0-1.4,0.5-2.5,1.7-3.1
			c1.1-0.6,2.4-0.6,3.3,0.3c0.6,0.6,1.3,1.7,1.3,2.5c0,12.4-0.1,24.9-0.2,37.3c0,1.8-1.2,3-3,3.1c-0.5,0-1,0-1.4,0
			c-19.1-0.1-38.1-0.2-57.2-0.3c-2.9,0-3.9-1-3.9-4c0-5.8,0.1-11.6,0.1-17.4c0-0.5,0-1,0-1.8c-1.8,0-18.5,0-20.3,0
			c-4.8,0-9.6,0-14.4-0.1c-2.5,0-3.6-1.2-3.6-3.7c0.1-18.8,0.2-37.6,0.3-56.4c0.1-13.3,0.1-26.6,0.2-39.9c0-10,0.1-20,0.2-30
			c0-2.4,1.3-3.6,3.6-3.6c19.5,0.1,39,0.2,58.5,0.3c2.3,0,3.5,1.3,3.5,3.6c0,5.9-0.1,11.9-0.1,17.8c0,0.6,0,1.1,0,1.8
			c2.5,0,19.7,0,22,0c4.2,0,8.3,0,12.5,0.1c2.6,0,3.8,1.2,3.8,3.8c-0.1,19.9-0.2,39.9-0.3,59.8c0,1.4-0.2,2.7-1.6,3.4
			c-2.2,1.2-4.7-0.2-4.7-2.8c0-6,0.1-12,0.1-17.9c0.1-13.2,0.1-26.4,0.2-39.6c0-0.1,0-0.2-0.1-0.4c-17.6-0.1-35.2-0.2-52.9-0.3
			C586.4,82.6,586.2,122.9,586,163.3z M548.4,19.1c-0.2,40.4-0.4,80.6-0.6,120.9c5.7,0,26.3,0.1,31.9,0.1c0-0.5,0.1-0.9,0.1-1.2
			c0.1-10.7,0.1-21.3,0.2-32c0.1-22.3,0.2-44.6,0.3-66.9c0-3,1-4,4-4c10.1,0,20.3,0.1,30.4,0.2c0.5,0-14,0-13.5,0
			c0-5.7,0.1-11.2,0.1-16.8C583.6,19.3,566,19.2,548.4,19.1z"/>
		<path d="M595.9,134.3c0-9.1,7.4-16.5,16.4-16.6c8.9-0.1,16.7,6.9,16.9,16.2c0.2,9.9-7.9,17-16.5,17
			C603.4,150.9,595.9,143.5,595.9,134.3z M612.5,144.6c5.8,0.2,10.4-4.7,10.4-10.3c0.1-5.5-4.7-10.2-10.1-10.3
			c-5.8-0.1-10.5,4.5-10.5,10.2C602.1,139.8,606.7,144.5,612.5,144.6z"/>
		<path d="M625.4,77.6c0,6.4-0.1,12.7-0.1,19.1c0,2.4-1.8,3.8-3.9,3.3c-1.4-0.3-2.4-1.5-2.4-3.1c0-7.1,0.1-14.3,0.1-21.4
			c0-4.1,0-8.1,0.1-12.2c0-2,0-4.1,0.3-6c0.3-1.8,1.7-2.5,3.4-2.2c1.5,0.2,2.5,1.4,2.5,3.1c0,2.2-0.1,4.5-0.1,6.7
			C625.3,69.2,625.3,73.4,625.4,77.6C625.3,77.6,625.4,77.6,625.4,77.6z"/>
		<path d="M606.5,87.2c0,5.6,0,11.2-0.1,16.8c0,2.8-2.4,4.3-4.7,3.1c-1.3-0.7-1.7-1.9-1.6-3.3c0-4.9,0.1-9.7,0.1-14.6
			c0-6.2,0.1-12.4,0.1-18.6c0-2.2,1.1-3.5,2.9-3.6c2-0.1,3.4,1.3,3.4,3.5C606.6,76,606.6,81.6,606.5,87.2z"/>
		<path d="M642.3,118.1c-1.9,0-3.2-1.4-3.1-3.2c0.1-1.7,1.5-3,3.1-3c1.8,0,3.2,1.5,3.1,3.3C645.4,116.9,644.1,118.2,642.3,118.1z"/>
	</g>
</g>
<path d="M496.3,91.7h-38.7c-2.5,0-4.5-2-4.5-4.5l0,0c0-2.5,2-4.5,4.5-4.5h38.7c2.5,0,4.5,2,4.5,4.5l0,0
	C500.8,89.7,498.8,91.7,496.3,91.7z"/>
<path d="M517.5,91.7h-4.9c-2.5,0-4.5-2-4.5-4.5l0,0c0-2.5,2-4.5,4.5-4.5h4.9c2.5,0,4.5,2,4.5,4.5l0,0C522,89.7,520,91.7,517.5,91.7z
	"/>
<path class="st0" d="M612.4,144.6c5.8,0.2,10.4-4.7,10.4-10.3c0.1-5.5-4.7-10.2-10.1-10.3c-5.8-0.1-10.5,4.5-10.5,10.2
	C602.1,139.9,606.7,144.5,612.4,144.6z"/>
<path class="st1" d="M574.6,122.2c5.8,0.2,10.4-4.7,10.4-10.3c0.1-5.5-4.7-10.2-10.1-10.3c-5.8-0.1-10.5,4.5-10.5,10.2
	C564.3,117.5,568.9,122.2,574.6,122.2z"/>
<path d="M583.1,132.1L583.1,132.1c-1.7,0-3.1-1.4-3.1-3.1v-25.7c0-1.7,1.4-3.1,3.1-3.1l0,0c1.7,0,3.1,1.4,3.1,3.1V129
	C586.2,130.7,584.8,132.1,583.1,132.1z"/>
<path d="M441.3,91.7h-13c-2.5,0-4.5-2-4.5-4.5l0,0c0-2.5,2-4.5,4.5-4.5h13c2.5,0,4.5,2,4.5,4.5l0,0
	C445.8,89.7,443.8,91.7,441.3,91.7z"/>
<g>
	<path d="M257.3,92.5h-38.7c-2.5,0-4.5-2-4.5-4.5l0,0c0-2.5,2-4.5,4.5-4.5h38.7c2.5,0,4.5,2,4.5,4.5l0,0
		C261.8,90.5,259.8,92.5,257.3,92.5z"/>
	<path d="M278.5,92.5h-4.9c-2.5,0-4.5-2-4.5-4.5l0,0c0-2.5,2-4.5,4.5-4.5h4.9c2.5,0,4.5,2,4.5,4.5l0,0C283,90.5,281,92.5,278.5,92.5
		z"/>
	<path d="M175.7,92.5h-13c-2.5,0-4.5-2-4.5-4.5l0,0c0-2.5,2-4.5,4.5-4.5h13c2.5,0,4.5,2,4.5,4.5l0,0
		C180.2,90.5,178.2,92.5,175.7,92.5z"/>
	<path d="M202.3,92.5h-13c-2.5,0-4.5-2-4.5-4.5l0,0c0-2.5,2-4.5,4.5-4.5h13c2.5,0,4.5,2,4.5,4.5l0,0
		C206.8,90.5,204.8,92.5,202.3,92.5z"/>
</g>
<g>
	<g>
		<g>
			<path class="st2" d="M104.2,39.4c0.7-0.8,1.5-1.5,2.1-2.2c9.1,9.8,18.2,19.6,27.4,29.5c-0.6,0.6-1.4,1.3-2.1,2
				C122.5,59,113.4,49.2,104.2,39.4z"/>
		</g>
		<g>
			<path class="st2" d="M102.3,33c-0.6,0.7-1.4,1.4-2.1,2.2c-1-1.1-2-2.2-3-3.3c0.7-0.7,1.4-1.5,2.2-2.3
				C100.3,30.6,101.3,31.8,102.3,33z"/>
		</g>
		<path class="st2" d="M152.4,49.3c-2.3-1.2-4.8-1.1-7.4-0.6c0.7-4.2,0.3-8-2.6-11c-2.9-3.1-6.4-3.6-10.3-2.8
			c0.8-4.3,0.2-8-2.6-11.1c-2.8-3-6.4-3.6-10.2-2.7c0.1-0.4,0.1-0.7,0.1-0.9c0.5-3.4,0-6.6-2-9.4c-3.7-4.9-10-4.9-14.6-1.6
			c-1.8,1.3-3.4,3.1-5.2,4.9c-0.3-0.3-29.1,31-29.1,31c-12.7-14.2-26.9,6.6-27.9,9.6c-2.7,8.4-2.5,15.9,2.9,22.8
			c2.1,2.6,4.4,5,6.7,7.3c1.3,1.3,1.5,2.3,0.9,4.1c-6.4,18-12.8,36-19.2,54.1c-1.1,3-0.3,1.1-1.4,4.1c1.1,0.4,2,0.8,3.1,1.2
			c2.5-7,4.7-13.4,7-19.7l4.6,2.1c0.1,0.2,0.1,0.3,0.2,0.5c1.2,3.3,3.5,5.8,6.5,7.2l15.4,7.1l0,0c1.6,0.7,3.2,1.1,4.8,1.1
			c2.3,0,4.5-0.7,6.5-2l4.2,2l0,0c0.1,0,0.2,0.1,0.3,0.1l1.9,0.9v-0.1c0.3,0.1,0.5,0.2,0.8,0.3c0.3-0.8,4.7-13.9,8.2-23.8
			c0.3-0.9,0.7-1.3,1.7-1.4c2.1-0.2,4.3-0.7,6.4-1.2c4.9,0.1,54.3-55.4,55.1-57.2C159.6,58.4,157.5,51.8,152.4,49.3z M68.3,142.6
			L68.3,142.6l-15.4-7.1c-2.3-1-4-3-4.9-5.5c-0.9-2.5-0.9-5.2,0.1-7.6s2.8-4.3,5.1-5.3s4.8-0.9,7.1,0.1l15.4,7.1c2.3,1,4,3,4.9,5.5
			c0.9,2.5,0.9,5.2-0.1,7.6C78.4,142.5,73,144.8,68.3,142.6z M154.2,62.5c-0.7,1.6-1.7,3.2-2.9,4.4c-14.4,15.5-28.8,30.9-43.3,46.4
			c-3.7,3.9-8.1,6-13.2,5.7c-2.7-0.1-5.3-0.7-8.1-1c-0.2,0.8-0.5,1.9-0.9,3.1c1.8,0.4,3.4,0.9,5.2,1.3c-1.2,3.5-2.1,6.1-2.9,8.4
			l-4.7-2.2l0,0c-1.2-3.3-3.5-5.8-6.5-7.2l-15.4-7.1c-3.8-1.8-7.9-1.3-11.2,0.8l-4.3-2c3.1-8.9,6.3-17.8,9.8-27.7
			c-0.6-0.5-1.1-0.9-1.6-1.4c-2.3-2.5-4.6-5-7-7.5c-3.4-3.5-5.3-7.7-5.8-12.7c-0.3-2.7,1.3-4.8,2.3-7.8c14.1-18.9,20-11.4,22-9.1
			c0.4,0.5-16,16.9-16,16.9c1,1.2,2.1,2.3,3.1,3.5c0.7-0.8,1.2-1.4,1.7-2C65.7,53.2,76.9,41.1,88.1,29c4.6-4.9,9.2-9.8,13.6-14.9
			c2.3-2.6,5-4.1,8.4-3.9c1.6,0.1,2.9,0.8,4,2c3.3,3.8,2,9.4-0.7,12.1c-1.2,1.2-2.4,2.5-3.4,3.6c0.8,1,1.6,1.8,2.3,2.8
			c0.7-0.8,1.4-1.6,2.1-2.3c1.5-1.8,3.2-3.4,5.5-4c4.3-1.2,8.3,1.3,8.9,5.8c0.5,3-0.5,5.7-2.4,7.9c-1.2,1.4-2.5,2.6-3.7,3.9
			c0.8,1,1.5,1.8,2.4,2.8c0.9-1.1,1.7-2.1,2.6-3c1.1-1,2.1-2.2,3.4-2.9c4.4-2.4,9.3-0.4,10.4,4.3c0.8,3.3-0.1,6.3-2.3,8.8
			c-1.2,1.3-2.4,2.5-3.6,3.7c0.9,1,1.6,1.9,2.3,2.8c1.3-1.4,2.4-2.6,3.6-3.8c0.6-0.6,1.3-1.2,2.1-1.7c3-1.8,6.5-1.5,8.8,0.6
			C154.8,55.7,155.6,59.1,154.2,62.5z"/>
		<path class="st0" d="M68.3,142.6c4.7,2.2,10.1-0.1,12.1-5.2c1-2.4,1-5.1,0.1-7.6c-0.9-2.5-2.7-4.4-4.9-5.5l-15.4-7.1
			c-2.3-1-4.8-1.1-7.1-0.1S49,120,48,122.4c-1,2.4-1,5.1-0.1,7.6c0.9,2.5,2.7,4.4,4.9,5.5L68.3,142.6L68.3,142.6"/>
	</g>
	<path class="st1" d="M81.2,141.8c0.9-1.1,1.7-2.3,2.3-3.8c0.8-2,1.1-4.2,1-6.4l2.9,1.4c-1,3-2,5.9-3.4,10L81.2,141.8z"/>
</g>
<g>
	<path class="st0" d="M391.7,58.9c0-0.2,0.1-0.3,0-0.4c-1.9-3.7-3.8-7.2-5.7-10.9c-0.2-0.3-0.9-0.5-1.3-0.5
		c-6.2,0.5-11.7-1.1-16.5-5c-0.8-0.6-1.4-0.8-2.4-0.2c-9.9,5.4-19.9,10.7-29.9,16.1c-0.4,0.2-0.8,0.5-1.5,1
		C353.8,58.9,372.8,58.9,391.7,58.9z"/>
	<g id="AmNcWF_1_">
		<g>
			<path d="M354.4,149.1c-17.5,0-35,0-52.5,0c-7.1,0-11.2-4-11.2-11.1c0-27.8,0-55.6,0-83.4c0-6.3,4.2-10.5,10.5-10.5
				c5.8,0,11.7,0,17.5,0c1.5,0,2.5-0.4,3.3-1.5c6.2-7.2,12.3-14.5,18.5-21.7c1.9-2.3,2.8-2.4,5.1-0.4c3.8,3.1,7.5,6.3,11.1,9.5
				c0.9,0.8,1.4,0.8,2.3,0.2c6.4-3.5,12.9-6.9,19.2-10.3c2.5-1.3,3.5-1.1,4.8,1.5c3.8,7,7.6,14.1,11.2,21.2c0.6,1.2,1.4,1.6,2.7,1.6
				c4.3-0.1,8.6,0,13,0c2.2,0,3,0.8,3,3c0,3.9,0,7.8,0,11.7c0,1,0.3,1.5,1.1,1.9c4.2,2.4,6.4,6.2,6.4,10.9c0,21.6,0,43.1,0,64.7
				c0,7.3-5.5,12.6-12.9,12.6C390,149.2,372.2,149.1,354.4,149.1z M295.6,62.7c0,0.9,0,1.4,0,1.9c0,24.6,0,49.1,0,73.8
				c0,4,1.9,5.9,5.9,5.9c35.3,0,70.7,0,106.1,0c5.1,0,8.2-3.1,8.3-8.2c0-5.1,0-10.3,0-15.3c0-0.5-0.1-1.1-0.1-1.6c-1,0-1.6,0-2.4,0
				c-7.7,0-15.3,0.1-23-0.1c-8.3-0.1-14.8-7-14.6-15.3c0.2-8,6.5-14.5,14.9-14.5c7.7,0,15.3,0,23,0c0.6,0,1.3,0,1.9,0
				c0-6.4,0.2-12.5-0.1-18.6c-0.1-3-2.1-5.3-5.1-6.2c-1.3-0.4-2.7-0.4-4.1-0.4c-33.7,0-67.5,0-101.2,0C302,64,298.8,64.4,295.6,62.7
				z M388.9,59.1c0-0.2,0.1-0.3,0-0.4c-1.9-3.7-3.8-7.2-5.7-10.9c-0.2-0.3-0.9-0.5-1.3-0.5c-6.2,0.5-11.7-1.1-16.5-5
				c-0.8-0.6-1.4-0.8-2.4-0.2c-9.9,5.4-20,10.7-29.9,16c-0.4,0.2-0.8,0.5-1.5,1C350.9,59.1,369.9,59.1,388.9,59.1z M315.9,58.7
				c0,0.1,0.1,0.3,0.1,0.4c2.3-0.1,4.6,0.4,6.8-1.1c1.4-1,3.1-1.7,4.6-2.6c11.8-6.2,23.4-12.4,35.2-18.7c2.2-1.1,2.7-1.1,4.4,0.6
				c4.4,4.2,9.6,5.8,15.7,4.8c2.5-0.4,2.9-0.1,4.1,2.1c2.4,4.4,4.8,8.9,7,13.3c1.1,1.9,1.3,2.1,3.8,1.4c-6.2-11.3-12.1-22.7-18.3-34
				C358.1,36.2,337,47.5,315.9,58.7z M316.3,49.1c-5.7,0-11.2-0.1-16.7,0c-2.1,0.1-3.7,2.1-4,4.1c-0.3,1.9,0.6,4.3,2.6,5.2
				c2.4,1.1,5,1.1,7.5,0.2C310.4,57.1,313.3,53.2,316.3,49.1z M408.2,49.1c-3.5,0-6.8,0-10.4,0c1.7,3.3,3.5,6.5,5.1,9.5
				c0.1,0.2,0.4,0.4,0.6,0.4c1.5,0,3,0,4.6,0C408.2,55.7,408.2,52.4,408.2,49.1z"/>
			<path d="M374.9,175.4c0-0.5,0-1.4,0-2.4c0.5,0,1-0.1,1.3,0c0.3,0.1,0.6,0.5,1,0.9c-0.3,0.3-0.6,0.6-1,0.9
				C375.9,175,375.4,175.1,374.9,175.4z"/>
			<path d="M332.6,176c-0.2-0.8-0.3-1.2-0.3-1.3c0.6-0.4,1-0.6,1.3-1c0.3,0.5,0.6,1.2,1,1.8c-0.2,0.1-0.3,0.2-0.5,0.2
				c-0.2-0.3-0.3-0.5-0.6-1C333.1,175.2,332.9,175.6,332.6,176z"/>
			<path d="M378,175.9c0-1,0-1.8,0-2.8c0.6,0,1.2-0.1,1.8-0.1c-0.5,0.3-1,0.5-1.4,0.8c0.3,0.2,0.6,0.5,1,0.8
				c-0.2,0.1-0.6,0.3-1.1,0.5c0,0.1,0,0.2,0,0.4c0.5,0.1,1.1,0.3,1.7,0.4C379.3,175.9,378.7,175.9,378,175.9z"/>
			<path d="M336.6,173.6c0.3,0.6,0.6,1.3,0.9,1.9c-0.1,0.1-0.3,0.1-0.4,0.2c-0.2-0.3-0.3-0.6-0.5-1c-0.2,0.3-0.4,0.6-0.8,1.1
				c-0.2-0.6-0.3-1.1-0.4-1.1C335.8,174.4,336.2,174.2,336.6,173.6z"/>
			<path d="M330.6,173.7c0.3,0.6,0.6,1.2,1,1.8c-0.2,0.1-0.3,0.2-0.5,0.2c-0.2-0.3-0.3-0.5-0.5-1c-0.2,0.3-0.4,0.5-0.6,0.9
				C328.4,174.6,330.3,174.5,330.6,173.7z"/>
			<path class="st0" d="M415.2,113.8c0-6.8,0-13.4,0-20c-0.3-0.1-0.4-0.1-0.5-0.1c-8.4,0-16.7-0.1-25.2,0c-3.1,0-5.6,1.6-7.3,4.1
				c-2.4,3.3-2.7,6.9-0.8,10.6c1.9,3.6,5,5.4,9.1,5.4c6.6,0,13.2,0,19.9,0C411.9,113.8,413.5,113.8,415.2,113.8z"/>
			<path d="M390.3,96.8c4.4-0.1,7.7,2.8,7.9,7c0.1,4.2-2.9,7.6-7,7.8c-4.2,0.1-7.6-2.9-7.8-7C383,100.9,386,96.8,390.3,96.8z"/>
		</g>
	</g>
	<path class="st0" d="M353.5,34.5c-3.3-2.8-6.5-5.5-9.7-8.3c-6.9,8.1-13.7,16.1-20.5,24.1c0.1,0.1,0.1,0.2,0.2,0.2
		C333.4,45.2,343.3,39.9,353.5,34.5z"/>
	<path class="st1" d="M390.7,101.6c-1.4,0-2.6,1.1-2.6,2.5c-0.1,1.4,1,2.6,2.4,2.6c1.4,0.1,2.7-1.1,2.7-2.5
		C393.3,102.9,392.1,101.6,390.7,101.6z"/>
</g>
</svg>
