<?xml version="1.0" encoding="utf-8"?>
<!-- Generator: Adobe Illustrator 19.2.1, SVG Export Plug-In . SVG Version: 6.00 Build 0)  -->
<svg version="1.1" id="Layer_1" xmlns="http://www.w3.org/2000/svg" xmlns:xlink="http://www.w3.org/1999/xlink" x="0px" y="0px"
	 viewBox="0 0 100 100" style="enable-background:new 0 0 100 100;" xml:space="preserve">
<style type="text/css">
	.st0{fill:#FCB61E;stroke:#000000;stroke-width:2.5;stroke-miterlimit:10;}
	.st1{fill:none;stroke:#000000;stroke-width:3;stroke-miterlimit:10;}
</style>
<g id="v7mxUd.tif">
	<g>
		<path d="M39,20.2c0-0.6,0-1.2,0-1.8c0-1.5,0.8-2.3,2.3-2.3c1.4,0,2.8,0,4.2,0c0.2,0,13.5,0,14.6,0c0.5,0,1,0,1.5,0
			c1.2,0,2.1,0.8,2.1,2.1c0,0.7,0,1.3,0,2.1c0.3,0,0.5,0,0.7,0c2,0,4.1,0,6.1,0c1.7,0,2.5,0.8,2.5,2.5c0,11.4,0,22.9,0,34.3
			c0,3.9,0,7.7,0,11.6c0,1.6-0.8,2.4-2.5,2.4c-12.8,0-25.6,0-38.3,0c-0.2,0-0.3,0-0.5,0c-1.4,0-2.2-0.9-2.2-2.3c0-7.3,0-14.6,0-21.9
			c0-7.9,0-15.7,0-23.6c0-0.2,0-0.5,0-0.7c0-1.4,0.8-2.3,2.3-2.3c2.1,0,4.2,0,6.4,0C38.5,20.2,38.7,20.2,39,20.2z M70,67.9
			c0-14.9,0-29.7,0-44.5c-2.1,0-4.1,0-6.2,0c0,0.7,0,1.3,0,2c-8.3,0-16.5,0-24.8,0c0-0.7,0-1.3,0-2c-2.1,0-4.1,0-6.2,0
			c0,14.9,0,29.7,0,44.5C45.2,67.9,57.6,67.9,70,67.9z"/>
	</g>
</g>
<path class="st0" d="M60.9,41.7h-5.4v-5.9c0-0.7-0.6-1.3-1.3-1.3h-6.2c-0.7,0-1.3,0.6-1.3,1.3v5.9h-5.4c-0.7,0-1.3,0.6-1.3,1.3v6.2
	c0,0.7,0.6,1.3,1.3,1.3h5.4v4.9c0,0.7,0.6,1.3,1.3,1.3h6.2c0.7,0,1.3-0.6,1.3-1.3v-4.9h5.4c0.7,0,1.3-0.6,1.3-1.3V43
	C62.2,42.3,61.6,41.7,60.9,41.7z"/>
<path d="M64.7,23.3c-0.2,0-0.4,0-0.7,0c0,0.6,0,1.2,0,1.8c0,1.5-0.8,2.3-2.3,2.3c-1.4,0-2.8,0-4.2,0c-0.2,0-13.5,0-14.6,0
	c-0.5,0-1,0-1.5,0c-1.2,0-2.1-0.8-2.1-2.1c0-0.7,0-1.3,0-2.1c-0.3,0-0.5,0-0.7,0"/>
<circle class="st1" cx="49.5" cy="45.6" r="38"/>
</svg>
