<?xml version="1.0" encoding="utf-8"?>
<!-- Generator: Adobe Illustrator 23.0.3, SVG Export Plug-In . SVG Version: 6.00 Build 0)  -->
<svg version="1.1" id="Layer_1" xmlns="http://www.w3.org/2000/svg" xmlns:xlink="http://www.w3.org/1999/xlink" x="0px" y="0px"
	 viewBox="0 0 287 50" style="enable-background:new 0 0 287 50;" xml:space="preserve">
<style type="text/css">
	.st0{fill:#00579F;}
	.st1{fill:#FAA61A;}
	.st2{fill:#F9B31E;}
	.st3{fill:#E30520;}
	.st4{fill:#FFFFFF;}
	.st5{fill:none;stroke:#FFFFFF;stroke-width:0.215;}
	.st6{fill:#05498F;}
	.st7{fill:#1D1D1B;}
</style>
<g>
	<polygon class="st0" points="31.2,33.4 35.1,9.7 41.2,9.7 37.4,33.4 	"/>
	<path class="st0" d="M59.7,10.2c-1.2-0.5-3.1-1-5.5-1c-6.1,0-10.4,3.2-10.4,7.9c-0.1,3.4,3.1,5.3,5.4,6.4c2.4,1.2,3.2,1.9,3.2,3
		c0,1.6-1.9,2.3-3.7,2.3c-2.5,0-3.8-0.4-5.8-1.3l-0.8-0.4l-0.9,5.3c1.4,0.7,4.1,1.2,6.9,1.3c6.5,0,10.7-3.2,10.7-8.1
		c0-2.7-1.6-4.8-5.2-6.5c-2.2-1.1-3.5-1.8-3.5-2.9c0-1,1.1-2,3.5-2c2-0.1,3.5,0.4,4.6,0.9l0.6,0.3L59.7,10.2L59.7,10.2z"/>
	<path class="st0" d="M67.9,25c0.5-1.4,2.5-6.6,2.5-6.6c0,0.1,0.5-1.4,0.8-2.3l0.4,2c0,0,1.2,5.7,1.4,6.9C72,25,69.1,25,67.9,25
		L67.9,25z M75.5,9.7h-4.8c-1.5,0-2.6,0.4-3.2,2l-9.1,21.8h6.5c0,0,1.1-2.9,1.3-3.6c0.7,0,7,0,7.9,0c0.2,0.8,0.7,3.6,0.7,3.6h5.7
		L75.5,9.7L75.5,9.7z"/>
	<path class="st0" d="M26.1,9.7l-6,16.2l-0.7-3.3c-1.1-3.8-4.6-7.9-8.5-10l5.5,20.8h6.5l9.7-23.7L26.1,9.7L26.1,9.7z"/>
	<path class="st1" d="M14.5,9.7H4.6l-0.1,0.5c7.7,2,12.8,6.7,14.9,12.4l-2.2-10.9C16.9,10.1,15.8,9.7,14.5,9.7L14.5,9.7z"/>
</g>
<g>
	<polygon class="st2" points="138,38.4 138.8,38.3 139.7,38.3 140.5,38.2 141.3,38 142.1,37.9 142.8,37.6 143.6,37.4 144.3,37.1 
		145.1,36.8 145.8,36.4 146.4,36 147.1,35.6 147.7,35.1 148.4,34.7 148.9,34.1 149.5,33.6 150.1,33 150.6,32.5 151,31.8 151.5,31.2 
		151.9,30.5 152.3,29.9 152.7,29.2 153,28.4 153.3,27.7 153.5,27 153.8,26.2 153.9,25.4 154.1,24.6 154.2,23.8 154.3,23 154.3,22.1 
		154.3,21.3 154.2,20.5 154.1,19.7 153.9,18.9 153.8,18.1 153.5,17.3 153.3,16.6 153,15.8 152.7,15.1 152.3,14.4 151.9,13.7 
		151.5,13.1 151,12.5 150.6,11.8 150.1,11.3 149.5,10.7 148.9,10.2 148.4,9.6 147.7,9.2 147.1,8.7 146.4,8.3 145.8,7.9 145.1,7.5 
		144.3,7.2 143.6,6.9 142.8,6.7 142.1,6.5 141.3,6.3 140.5,6.1 139.7,6 138.8,6 138,5.9 137.2,6 136.3,6 135.5,6.1 134.7,6.3 
		134,6.5 133.2,6.7 132.4,6.9 131.7,7.2 131,7.5 130.3,7.9 129.6,8.3 128.9,8.7 128.3,9.2 127.7,9.6 127.1,10.2 126.5,10.7 
		126,11.3 125.5,11.8 125,12.5 124.6,13.1 124.1,13.7 123.8,14.4 123.4,15.1 123.1,15.8 122.8,16.6 122.5,17.3 122.3,18.1 
		122.1,18.9 122,19.7 121.9,20.5 121.8,21.3 121.8,22.1 121.8,23 121.9,23.8 122,24.6 122.1,25.4 122.3,26.2 122.5,27 122.8,27.7 
		123.1,28.4 123.4,29.2 123.8,29.9 124.1,30.5 124.6,31.2 125,31.8 125.5,32.5 126,33 126.5,33.6 127.1,34.1 127.7,34.7 128.3,35.1 
		128.9,35.6 129.6,36 130.3,36.4 131,36.8 131.7,37.1 132.4,37.4 133.2,37.6 134,37.9 134.7,38 135.5,38.2 136.3,38.3 137.2,38.3 	
		"/>
	<polygon class="st3" points="116.3,38.4 117.1,38.3 117.9,38.3 118.8,38.2 119.6,38 120.3,37.9 121.1,37.6 121.9,37.4 122.6,37.1 
		123.3,36.8 124,36.4 124.7,36 125.4,35.6 126,35.1 126.6,34.7 127.2,34.1 127.7,33.6 128.3,33 128.8,32.5 129.3,31.8 129.7,31.2 
		130.1,30.5 130.5,29.9 130.9,29.2 131.2,28.4 131.5,27.7 131.8,27 132,26.2 132.2,25.4 132.3,24.6 132.4,23.8 132.5,23 132.5,22.1 
		132.5,21.3 132.4,20.5 132.3,19.7 132.2,18.9 132,18.1 131.8,17.3 131.5,16.6 131.2,15.8 130.9,15.1 130.5,14.4 130.1,13.7 
		129.7,13.1 129.3,12.5 128.8,11.8 128.3,11.3 127.7,10.7 127.2,10.2 126.6,9.6 126,9.2 125.4,8.7 124.7,8.3 124,7.9 123.3,7.5 
		122.6,7.2 121.9,6.9 121.1,6.7 120.3,6.5 119.6,6.3 118.8,6.1 117.9,6 117.1,6 116.3,5.9 115.4,6 114.6,6 113.8,6.1 113,6.3 
		112.2,6.5 111.4,6.7 110.7,6.9 110,7.2 109.2,7.5 108.5,7.9 107.8,8.3 107.2,8.7 106.6,9.2 105.9,9.6 105.3,10.2 104.8,10.7 
		104.2,11.3 103.7,11.8 103.2,12.5 102.8,13.1 102.4,13.7 102,14.4 101.6,15.1 101.3,15.8 101,16.6 100.7,17.3 100.5,18.1 
		100.3,18.9 100.2,19.7 100.1,20.5 100,21.3 100,22.1 100,23 100.1,23.8 100.2,24.6 100.3,25.4 100.5,26.2 100.7,27 101,27.7 
		101.3,28.4 101.6,29.2 102,29.9 102.4,30.5 102.8,31.2 103.2,31.8 103.7,32.5 104.2,33 104.8,33.6 105.3,34.1 105.9,34.7 
		106.6,35.1 107.2,35.6 107.8,36 108.5,36.4 109.2,36.8 110,37.1 110.7,37.4 111.4,37.6 112.2,37.9 113,38 113.8,38.2 114.6,38.3 
		115.4,38.3 	"/>
	<polygon class="st2" points="125.2,12.2 133.9,12.2 133.9,11.3 126,11.3 	"/>
	<polygon class="st2" points="124,14.1 133.9,14.1 133.9,13.2 124.5,13.2 	"/>
	<polygon class="st2" points="123,16.1 133.9,16.1 133.9,15.2 123.4,15.2 	"/>
	<polygon class="st2" points="122.3,18 133.9,18 133.9,17.1 122.6,17.1 	"/>
	<polygon class="st2" points="122.7,27.5 133.9,27.5 133.9,26.6 122.4,26.6 	"/>
	<polygon class="st2" points="123.5,29.4 133.9,29.4 133.9,28.6 123.1,28.6 	"/>
	<polygon class="st2" points="124.7,31.4 133.9,31.4 133.9,30.5 124.1,30.5 	"/>
	<polygon class="st2" points="126.3,33.4 133.9,33.4 133.9,32.5 125.5,32.5 	"/>
	<polygon class="st2" points="121.9,20 133.9,20 133.9,19.1 122.1,19.1 	"/>
	<polygon class="st2" points="129.2,25.5 133.8,25.5 133.8,24.7 129.4,24.7 	"/>
	<polygon class="st2" points="129.6,23.6 133.8,23.6 133.8,22.7 129.7,22.7 	"/>
	<polygon class="st2" points="121.6,22.7 122.8,22.7 122.8,23.6 121.7,23.6 	"/>
	<polygon class="st4" points="119.4,21.6 119.4,21.6 119.3,21.6 119.2,21.6 119.1,21.6 119.1,21.6 119,21.6 118.9,21.6 118.8,21.6 
		118.8,21.5 118.7,21.5 118.6,21.5 118.5,21.5 118.4,21.5 118.2,21.5 118.1,21.5 117.9,21.6 117.8,21.6 117.7,21.6 117.6,21.6 
		117.6,21.6 117.5,21.7 117.4,21.7 117.3,21.8 117.3,21.8 117.3,21.9 117.2,22 117.2,22 117.2,22.1 117.2,22.2 117.3,22.2 
		117.3,22.3 117.4,22.4 117.5,22.5 117.6,22.6 117.8,22.6 117.9,22.7 118.1,22.7 118.3,22.8 118.5,22.9 118.6,22.9 118.8,23 
		119,23.1 119.1,23.3 119.2,23.5 119.3,23.7 119.3,23.9 119.4,24.2 119.3,24.5 119.3,24.8 119.2,25 119.2,25.2 119,25.4 118.9,25.6 
		118.8,25.7 118.6,25.8 118.5,25.9 118.3,26 118.1,26.1 117.9,26.1 117.7,26.2 117.5,26.2 117.4,26.2 117.2,26.2 117,26.3 
		116.8,26.3 116.5,26.2 116.4,26.2 116.2,26.2 116,26.2 115.9,26.2 115.7,26.2 115.6,26.2 115.5,26.2 115.4,26.2 115.3,26.1 
		115.2,26.1 115.1,26.1 115,26.1 114.9,26 114.8,26 115.1,24.8 115.1,24.8 115.2,24.8 115.3,24.8 115.4,24.9 115.5,24.9 115.6,24.9 
		115.7,24.9 115.8,25 116,25 116.1,25 116.2,25 116.4,25 116.6,25 116.7,25 116.9,25 117,25 117.2,25 117.3,25 117.4,24.9 
		117.5,24.8 117.5,24.7 117.6,24.7 117.6,24.6 117.6,24.5 117.6,24.3 117.6,24.2 117.5,24.1 117.4,24 117.2,23.9 117,23.8 
		116.8,23.8 116.6,23.7 116.4,23.6 116.2,23.5 116,23.3 115.8,23.1 115.7,22.9 115.6,22.7 115.5,22.4 115.5,22 115.5,21.8 
		115.6,21.6 115.6,21.4 115.7,21.3 115.8,21.1 115.9,21 116,20.8 116.1,20.7 116.3,20.6 116.5,20.5 116.7,20.4 116.9,20.4 
		117.1,20.3 117.4,20.3 117.7,20.3 118,20.3 118.2,20.3 118.4,20.3 118.6,20.3 118.7,20.3 118.9,20.3 119,20.3 119.1,20.3 
		119.2,20.3 119.3,20.3 119.4,20.3 119.4,20.4 119.5,20.4 119.6,20.4 119.6,20.4 119.7,20.4 119.7,20.4 	"/>
	<g>
		<g>
			<polyline class="st5" points="119.4,21.6 119.4,21.6 119.4,21.6 119.3,21.6 119.2,21.6 119.1,21.6 119.1,21.6 119,21.6 
				118.9,21.6 118.8,21.6 118.8,21.5 118.7,21.5 118.6,21.5 118.5,21.5 118.4,21.5 118.2,21.5 118.1,21.5 117.9,21.6 117.9,21.6 
				117.8,21.6 117.7,21.6 117.6,21.6 117.6,21.6 117.5,21.7 117.4,21.7 117.3,21.8 117.3,21.8 117.3,21.9 117.2,22 117.2,22 
				117.2,22.1 117.2,22.2 117.3,22.2 117.3,22.3 117.4,22.4 117.4,22.4 117.5,22.5 117.6,22.6 117.8,22.6 117.9,22.7 118.1,22.7 
				118.3,22.8 118.5,22.9 118.6,22.9 118.8,23 119,23.1 119.1,23.3 119.2,23.5 119.3,23.7 119.3,23.9 119.4,24.2 119.3,24.5 
				119.3,24.5 119.3,24.8 119.2,25 119.2,25.2 119,25.4 118.9,25.6 118.8,25.7 118.6,25.8 118.5,25.9 118.3,26 118.1,26.1 
				117.9,26.1 117.7,26.2 117.5,26.2 117.4,26.2 117.2,26.2 117,26.3 117,26.3 116.8,26.3 116.5,26.2 116.4,26.2 116.2,26.2 
				116,26.2 115.9,26.2 115.7,26.2 115.6,26.2 115.5,26.2 115.4,26.2 115.3,26.1 115.2,26.1 115.1,26.1 115,26.1 114.9,26 114.8,26 
				115.1,24.8 115.1,24.8 115.1,24.8 115.2,24.8 115.3,24.8 115.4,24.9 115.5,24.9 115.6,24.9 115.7,24.9 115.8,25 116,25 116.1,25 
				116.2,25 116.4,25 116.6,25 116.7,25 116.9,25 117,25 117,25 117.2,25 117.3,25 117.4,24.9 117.5,24.8 117.5,24.7 117.6,24.7 
				117.6,24.6 117.6,24.5 117.6,24.5 117.6,24.3 117.6,24.2 117.5,24.1 117.4,24 117.2,23.9 117,23.8 116.8,23.8 116.6,23.7 
				116.4,23.6 116.2,23.5 116,23.3 115.8,23.1 115.7,22.9 115.6,22.7 115.5,22.4 115.5,22 115.5,22 115.5,21.8 115.6,21.6 
				115.6,21.4 115.7,21.3 115.8,21.1 115.9,21 116,20.8 116.1,20.7 116.3,20.6 116.5,20.5 116.7,20.4 116.9,20.4 117.1,20.3 
				117.4,20.3 117.7,20.3 118,20.3 118,20.3 118.2,20.3 118.4,20.3 118.6,20.3 118.7,20.3 118.9,20.3 119,20.3 119.1,20.3 
				119.2,20.3 119.3,20.3 119.4,20.3 119.4,20.4 119.5,20.4 119.6,20.4 119.6,20.4 119.7,20.4 119.7,20.4 119.4,21.6 			"/>
		</g>
	</g>
	<polygon class="st4" points="120.7,19 122.2,19 122,20.4 122.9,20.4 122.7,21.6 121.8,21.6 121.2,24.6 121.2,24.7 121.3,24.8 
		121.3,24.9 121.4,25 121.5,25 121.6,25 121.7,25.1 121.9,25.1 122,25.1 122.1,25 122.2,25 122.3,25 122.3,25 122.4,25 122.4,25 
		122.4,25 122.2,26 122.2,26 122.2,26 122.1,26 122.1,26.1 122.1,26.1 122,26.1 122,26.1 121.9,26.1 121.9,26.1 121.8,26.2 
		121.7,26.2 121.7,26.2 121.6,26.2 121.5,26.2 121.4,26.2 121.3,26.2 120.9,26.2 120.7,26.2 120.5,26.2 120.3,26.2 120.2,26.1 
		120.1,26.1 120,26 119.9,25.9 119.8,25.9 119.7,25.8 119.7,25.7 119.7,25.6 119.7,25.5 119.6,25.4 119.6,25.3 119.7,25.1 119.7,25 
			"/>
	<g>
		<g>
			<polyline class="st5" points="120.7,19 122.2,19 122,20.4 122.9,20.4 122.7,21.6 121.8,21.6 121.2,24.6 121.2,24.6 121.2,24.7 
				121.3,24.8 121.3,24.9 121.4,25 121.5,25 121.6,25 121.7,25.1 121.9,25.1 121.9,25.1 122,25.1 122.1,25 122.2,25 122.3,25 
				122.3,25 122.4,25 122.4,25 122.4,25 122.2,26 122.2,26 122.2,26 122.2,26 122.1,26 122.1,26.1 122.1,26.1 122,26.1 122,26.1 
				121.9,26.1 121.9,26.1 121.8,26.2 121.7,26.2 121.7,26.2 121.6,26.2 121.5,26.2 121.4,26.2 121.3,26.2 120.9,26.2 120.9,26.2 
				120.7,26.2 120.5,26.2 120.3,26.2 120.2,26.1 120.1,26.1 120,26 119.9,25.9 119.8,25.9 119.7,25.8 119.7,25.7 119.7,25.6 
				119.7,25.5 119.6,25.4 119.6,25.3 119.7,25.1 119.7,25 120.7,19 			"/>
		</g>
	</g>
	<polygon class="st4" points="124.1,23.7 124.1,23.8 124.1,23.9 124.1,24 124.2,24.1 124.2,24.2 124.2,24.3 124.3,24.4 124.4,24.5 
		124.4,24.6 124.5,24.6 124.6,24.7 124.7,24.8 124.8,24.8 124.9,24.9 125,24.9 125.1,25 125.3,25 125.4,25 125.6,25 125.7,25 
		125.8,25 126,25 126.1,25 126.3,25 126.4,25 126.6,25 126.7,24.9 126.9,24.9 127,24.8 127.2,24.8 127.3,24.7 127.5,24.6 
		127.3,25.9 127.2,26 127.1,26 127,26 126.9,26.1 126.9,26.1 126.8,26.1 126.7,26.1 126.6,26.2 126.5,26.2 126.4,26.2 126.3,26.2 
		126.1,26.2 126,26.2 125.8,26.2 125.7,26.2 125.5,26.2 125.2,26.2 125,26.2 124.7,26.2 124.4,26.1 124.1,26 123.9,25.9 123.6,25.8 
		123.4,25.6 123.2,25.4 123,25.2 122.8,24.9 122.7,24.7 122.6,24.3 122.6,24 122.5,23.6 122.6,23.1 122.6,22.9 122.6,22.7 
		122.7,22.5 122.7,22.3 122.8,22.1 122.9,21.8 123,21.6 123.2,21.4 123.4,21.1 123.6,20.9 123.8,20.7 124.1,20.6 124.4,20.4 
		124.8,20.3 125.2,20.3 125.6,20.3 125.8,20.3 126,20.3 126.3,20.3 126.5,20.4 126.7,20.5 126.9,20.6 127.1,20.7 127.3,20.8 
		127.5,21 127.6,21.2 127.7,21.5 127.8,21.8 127.8,22.1 127.8,22.5 127.8,22.9 127.7,23.4 127.7,23.7 123.7,23.7 124,22.6 
		126.4,22.6 126.4,22.5 126.4,22.3 126.3,22.2 126.3,22.1 126.3,22 126.2,21.9 126.2,21.8 126.1,21.8 126.1,21.7 126,21.6 
		125.9,21.6 125.8,21.6 125.8,21.5 125.7,21.5 125.6,21.5 125.5,21.5 125.4,21.5 125.3,21.5 125.2,21.5 125.1,21.5 125,21.6 
		124.9,21.6 124.8,21.7 124.8,21.8 124.7,21.8 124.6,21.9 124.6,22 124.5,22.1 124.5,22.2 124.4,22.3 124.4,22.4 124.4,22.5 	"/>
	<g>
		<g>
			<polyline class="st5" points="124.1,23.7 124.1,23.7 124.1,23.8 124.1,23.9 124.1,24 124.2,24.1 124.2,24.2 124.2,24.3 
				124.3,24.4 124.4,24.5 124.4,24.6 124.5,24.6 124.6,24.7 124.7,24.8 124.8,24.8 124.9,24.9 125,24.9 125.1,25 125.1,25 125.3,25 
				125.4,25 125.6,25 125.7,25 125.8,25 126,25 126.1,25 126.3,25 126.4,25 126.6,25 126.7,24.9 126.9,24.9 127,24.8 127.2,24.8 
				127.3,24.7 127.5,24.6 127.3,25.9 127.3,25.9 127.2,26 127.1,26 127,26 126.9,26.1 126.9,26.1 126.8,26.1 126.7,26.1 126.6,26.2 
				126.5,26.2 126.4,26.2 126.3,26.2 126.1,26.2 126,26.2 125.8,26.2 125.7,26.2 125.5,26.2 125.5,26.2 125.2,26.2 125,26.2 
				124.7,26.2 124.4,26.1 124.1,26 123.9,25.9 123.6,25.8 123.4,25.6 123.2,25.4 123,25.2 122.8,24.9 122.7,24.7 122.6,24.3 
				122.6,24 122.5,23.6 122.6,23.1 122.6,23.1 122.6,22.9 122.6,22.7 122.7,22.5 122.7,22.3 122.8,22.1 122.9,21.8 123,21.6 
				123.2,21.4 123.4,21.1 123.6,20.9 123.8,20.7 124.1,20.6 124.4,20.4 124.8,20.3 125.2,20.3 125.6,20.3 125.6,20.3 125.8,20.3 
				126,20.3 126.3,20.3 126.5,20.4 126.7,20.5 126.9,20.6 127.1,20.7 127.3,20.8 127.5,21 127.6,21.2 127.7,21.5 127.8,21.8 
				127.8,22.1 127.8,22.5 127.8,22.9 127.7,23.4 127.7,23.7 123.7,23.7 124,22.6 126.4,22.6 126.4,22.6 126.4,22.5 126.4,22.3 
				126.3,22.2 126.3,22.1 126.3,22 126.2,21.9 126.2,21.8 126.1,21.8 126.1,21.7 126,21.6 125.9,21.6 125.8,21.6 125.8,21.5 
				125.7,21.5 125.6,21.5 125.5,21.5 125.5,21.5 125.4,21.5 125.3,21.5 125.2,21.5 125.1,21.5 125,21.6 124.9,21.6 124.8,21.7 
				124.8,21.8 124.7,21.8 124.6,21.9 124.6,22 124.5,22.1 124.5,22.2 124.4,22.3 124.4,22.4 124.4,22.5 124.1,23.7 			"/>
		</g>
	</g>
	<polygon class="st4" points="137.2,20.7 137.1,20.7 137.1,20.6 137,20.6 136.9,20.5 136.8,20.5 136.7,20.5 136.6,20.5 136.5,20.4 
		136.4,20.4 136.3,20.4 136.2,20.3 136.1,20.3 136,20.3 135.9,20.3 135.7,20.3 135.6,20.3 135.4,20.3 135.3,20.3 135.2,20.3 
		135,20.4 134.8,20.4 134.7,20.5 134.5,20.5 134.4,20.6 134.2,20.8 134.1,20.9 134,21.1 133.8,21.3 133.7,21.5 133.6,21.8 
		133.5,22.1 133.4,22.5 133.4,22.6 133.3,22.8 133.3,23 133.3,23.2 133.4,23.4 133.4,23.6 133.4,23.7 133.5,23.9 133.6,24.1 
		133.7,24.2 133.8,24.3 133.9,24.4 134.1,24.5 134.3,24.6 134.4,24.7 134.6,24.7 134.7,24.8 134.8,24.8 134.9,24.8 135,24.8 
		135.1,24.8 135.3,24.8 135.4,24.8 135.5,24.8 135.7,24.8 135.8,24.7 135.9,24.7 136.1,24.7 136.2,24.6 136.3,24.5 136.5,24.4 
		136.6,24.3 136.3,25.8 136.3,25.8 136.3,25.9 136.2,25.9 136.2,25.9 136.1,26 136,26 135.9,26.1 135.8,26.1 135.7,26.1 135.6,26.2 
		135.4,26.2 135.2,26.2 135,26.2 134.8,26.2 134.5,26.2 134.2,26.2 133.9,26.2 133.7,26.1 133.4,26 133.2,25.9 132.9,25.8 
		132.7,25.6 132.5,25.4 132.3,25.2 132.1,25 131.9,24.7 131.8,24.4 131.7,24.1 131.6,23.7 131.6,23.3 131.6,22.9 131.7,22.4 
		131.7,22.2 131.8,22 131.8,21.8 131.9,21.6 132,21.4 132,21.2 132.1,21 132.2,20.8 132.3,20.7 132.3,20.5 132.4,20.4 132.5,20.2 
		132.6,20.1 132.7,19.9 132.8,19.8 133,19.7 133.1,19.6 133.2,19.5 133.3,19.4 133.5,19.3 133.6,19.2 133.8,19.2 133.9,19.1 
		134.1,19 134.3,19 134.4,18.9 134.6,18.9 134.8,18.9 135,18.8 135.2,18.8 135.4,18.8 135.6,18.8 135.8,18.8 135.9,18.8 136.1,18.8 
		136.3,18.9 136.4,18.9 136.6,18.9 136.7,18.9 136.8,19 137,19 137.1,19 137.2,19.1 137.3,19.1 137.3,19.1 137.4,19.2 137.5,19.2 
		137.5,19.2 	"/>
	<g>
		<g>
			<polyline class="st5" points="137.2,20.7 137.2,20.7 137.1,20.7 137.1,20.6 137,20.6 136.9,20.5 136.8,20.5 136.7,20.5 
				136.6,20.5 136.5,20.4 136.4,20.4 136.3,20.4 136.2,20.3 136.1,20.3 136,20.3 135.9,20.3 135.7,20.3 135.6,20.3 135.6,20.3 
				135.4,20.3 135.3,20.3 135.2,20.3 135,20.4 134.8,20.4 134.7,20.5 134.5,20.5 134.4,20.6 134.2,20.8 134.1,20.9 134,21.1 
				133.8,21.3 133.7,21.5 133.6,21.8 133.5,22.1 133.4,22.5 133.4,22.5 133.4,22.6 133.3,22.8 133.3,23 133.3,23.2 133.4,23.4 
				133.4,23.6 133.4,23.7 133.5,23.9 133.6,24.1 133.7,24.2 133.8,24.3 133.9,24.4 134.1,24.5 134.3,24.6 134.4,24.7 134.6,24.7 
				134.6,24.7 134.7,24.8 134.8,24.8 134.9,24.8 135,24.8 135.1,24.8 135.3,24.8 135.4,24.8 135.5,24.8 135.7,24.8 135.8,24.7 
				135.9,24.7 136.1,24.7 136.2,24.6 136.3,24.5 136.5,24.4 136.6,24.3 136.3,25.8 136.3,25.8 136.3,25.8 136.3,25.9 136.2,25.9 
				136.2,25.9 136.1,26 136,26 135.9,26.1 135.8,26.1 135.7,26.1 135.6,26.2 135.4,26.2 135.2,26.2 135,26.2 134.8,26.2 134.5,26.2 
				134.2,26.2 134.2,26.2 133.9,26.2 133.7,26.1 133.4,26 133.2,25.9 132.9,25.8 132.7,25.6 132.5,25.4 132.3,25.2 132.1,25 
				131.9,24.7 131.8,24.4 131.7,24.1 131.6,23.7 131.6,23.3 131.6,22.9 131.7,22.4 131.7,22.4 131.7,22.2 131.8,22 131.8,21.8 
				131.9,21.6 132,21.4 132,21.2 132.1,21 132.2,20.8 132.3,20.7 132.3,20.5 132.4,20.4 132.5,20.2 132.6,20.1 132.7,19.9 
				132.8,19.8 133,19.7 133.1,19.6 133.2,19.5 133.3,19.4 133.5,19.3 133.6,19.2 133.8,19.2 133.9,19.1 134.1,19 134.3,19 
				134.4,18.9 134.6,18.9 134.8,18.9 135,18.8 135.2,18.8 135.4,18.8 135.6,18.8 135.6,18.8 135.8,18.8 135.9,18.8 136.1,18.8 
				136.3,18.9 136.4,18.9 136.6,18.9 136.7,18.9 136.8,19 137,19 137.1,19 137.2,19.1 137.3,19.1 137.3,19.1 137.4,19.2 137.5,19.2 
				137.5,19.2 137.2,20.7 			"/>
		</g>
	</g>
	<polygon class="st4" points="150.7,26.2 149.2,26.2 149.3,25.6 149.3,25.6 149.2,25.7 149.1,25.8 149,25.9 148.9,25.9 148.8,26 
		148.7,26.1 148.6,26.1 148.5,26.2 148.4,26.2 148.3,26.2 148.2,26.3 148.1,26.3 148,26.3 147.9,26.3 147.8,26.3 147.7,26.3 
		147.4,26.3 147.1,26.2 146.9,26.1 146.7,26 146.5,25.8 146.3,25.7 146.1,25.5 146,25.2 145.9,25 145.8,24.7 145.7,24.5 145.7,24.2 
		145.7,23.9 145.7,23.6 145.7,23.3 145.8,23.1 145.8,22.7 145.9,22.4 146.1,22.2 146.2,21.9 146.3,21.6 146.5,21.4 146.7,21.2 
		146.8,21 147,20.9 147.2,20.8 147.5,20.6 147.7,20.5 147.9,20.5 148.1,20.4 148.3,20.4 148.5,20.4 148.7,20.4 148.9,20.4 149,20.4 
		149.1,20.5 149.3,20.5 149.4,20.5 149.5,20.6 149.6,20.7 149.7,20.7 149.7,20.8 149.8,20.9 149.9,20.9 149.9,21 150,21.1 150,21.2 
		150.1,21.2 150.1,21.2 150.4,19.1 151.9,19.1 	"/>
	<g>
		<g>
			<polyline class="st5" points="150.7,26.2 149.2,26.2 149.3,25.6 149.3,25.6 149.3,25.6 149.2,25.7 149.1,25.8 149,25.9 
				148.9,25.9 148.8,26 148.7,26.1 148.6,26.1 148.5,26.2 148.4,26.2 148.3,26.2 148.2,26.3 148.1,26.3 148,26.3 147.9,26.3 
				147.8,26.3 147.7,26.3 147.7,26.3 147.4,26.3 147.1,26.2 146.9,26.1 146.7,26 146.5,25.8 146.3,25.7 146.1,25.5 146,25.2 
				145.9,25 145.8,24.7 145.7,24.5 145.7,24.2 145.7,23.9 145.7,23.6 145.7,23.3 145.8,23.1 145.8,23.1 145.8,22.7 145.9,22.4 
				146.1,22.2 146.2,21.9 146.3,21.6 146.5,21.4 146.7,21.2 146.8,21 147,20.9 147.2,20.8 147.5,20.6 147.7,20.5 147.9,20.5 
				148.1,20.4 148.3,20.4 148.5,20.4 148.5,20.4 148.7,20.4 148.9,20.4 149,20.4 149.1,20.5 149.3,20.5 149.4,20.5 149.5,20.6 
				149.6,20.7 149.7,20.7 149.7,20.8 149.8,20.9 149.9,20.9 149.9,21 150,21.1 150,21.2 150.1,21.2 150.1,21.2 150.4,19.1 
				151.9,19.1 150.7,26.2 			"/>
		</g>
	</g>
	<polygon class="st2" points="148.2,24.9 148.4,24.9 148.5,24.9 148.6,24.8 148.8,24.8 148.9,24.7 149,24.6 149.1,24.5 149.2,24.4 
		149.3,24.3 149.3,24.2 149.4,24.1 149.5,23.9 149.5,23.8 149.6,23.7 149.6,23.5 149.6,23.4 149.7,23.2 149.7,23 149.7,22.9 
		149.7,22.7 149.7,22.6 149.6,22.5 149.6,22.3 149.6,22.2 149.5,22.1 149.4,22 149.4,21.9 149.3,21.8 149.2,21.8 149.1,21.7 
		149,21.7 148.9,21.7 148.7,21.7 148.6,21.7 148.5,21.8 148.3,21.8 148.2,21.9 148.1,22 148,22.1 147.9,22.2 147.9,22.3 147.8,22.4 
		147.7,22.6 147.6,22.7 147.6,22.8 147.5,23 147.5,23.1 147.5,23.3 147.4,23.5 147.5,23.8 147.5,24.1 147.6,24.3 147.7,24.6 
		147.8,24.7 148,24.9 	"/>
	<polygon class="st4" points="114.6,25 114.4,26.2 113,26.2 113,26 113,25.8 113.1,25.6 113.1,25.6 113,25.7 112.9,25.7 112.8,25.8 
		112.7,25.9 112.6,26 112.4,26 112.3,26.1 112.1,26.2 112,26.2 111.8,26.2 111.7,26.3 111.5,26.3 111.3,26.3 111.2,26.3 111,26.3 
		110.9,26.3 110.7,26.2 110.5,26.2 110.4,26.1 110.2,26 110.1,25.9 110,25.8 109.9,25.7 109.8,25.6 109.8,25.5 109.7,25.4 
		109.7,25.3 109.6,25.1 109.6,25 109.6,24.9 109.6,24.8 109.6,24.7 109.6,24.4 109.6,24.2 109.7,24 109.8,23.9 109.8,23.7 
		109.9,23.5 110.1,23.4 110.2,23.2 110.3,23.1 110.5,23 110.6,22.9 110.8,22.8 111,22.7 111.2,22.7 111.3,22.6 111.5,22.6 
		111.6,22.6 111.6,22.6 111.6,22.6 111.7,22.6 111.7,22.6 111.8,22.6 111.9,22.5 112,22.5 112.1,22.5 112.2,22.5 112.3,22.5 
		112.4,22.5 112.5,22.5 112.5,22.5 112.6,22.5 112.7,22.5 112.8,22.5 112.9,22.5 113.1,22.5 113.2,22.5 113.3,22.5 113.3,22.5 
		113.4,22.5 113.4,22.5 113.4,22.5 113.5,22.4 113.5,22.3 113.5,22.2 113.5,22 113.4,21.9 113.4,21.8 113.3,21.7 113.2,21.7 
		113.1,21.6 112.9,21.6 112.8,21.6 112.6,21.6 112.5,21.6 112.3,21.6 112.1,21.6 111.9,21.6 111.8,21.6 111.6,21.6 111.4,21.6 
		111.3,21.7 111.1,21.7 111,21.7 110.8,21.7 110.7,21.8 110.6,21.8 110.5,21.8 110.5,21.9 110.9,20.6 111,20.5 111.1,20.5 
		111.2,20.4 111.4,20.4 111.5,20.4 111.6,20.4 111.8,20.3 111.9,20.3 112.1,20.3 112.2,20.3 112.4,20.3 112.6,20.3 112.7,20.3 
		112.9,20.3 113.1,20.3 113.3,20.3 113.5,20.3 113.6,20.3 113.8,20.4 114,20.4 114.1,20.5 114.3,20.6 114.5,20.7 114.6,20.8 
		114.8,20.9 114.9,21 115,21.2 115.1,21.3 115.1,21.5 115.2,21.7 115.2,21.9 115.1,22.1 	"/>
	<g>
		<g>
			<polyline class="st5" points="114.6,25 114.4,26.2 113,26.2 113,26.2 113,26 113,25.8 113.1,25.6 113.1,25.6 113.1,25.6 
				113,25.7 112.9,25.7 112.8,25.8 112.7,25.9 112.6,26 112.4,26 112.3,26.1 112.1,26.2 112,26.2 111.8,26.2 111.7,26.3 111.5,26.3 
				111.3,26.3 111.2,26.3 111,26.3 110.9,26.3 110.9,26.3 110.7,26.2 110.5,26.2 110.4,26.1 110.2,26 110.1,25.9 110,25.8 
				109.9,25.7 109.8,25.6 109.8,25.5 109.7,25.4 109.7,25.3 109.6,25.1 109.6,25 109.6,24.9 109.6,24.8 109.6,24.7 109.6,24.7 
				109.6,24.4 109.6,24.2 109.7,24 109.8,23.9 109.8,23.7 109.9,23.5 110.1,23.4 110.2,23.2 110.3,23.1 110.5,23 110.6,22.9 
				110.8,22.8 111,22.7 111.2,22.7 111.3,22.6 111.5,22.6 111.5,22.6 111.6,22.6 111.6,22.6 111.6,22.6 111.7,22.6 111.7,22.6 
				111.8,22.6 111.9,22.5 112,22.5 112.1,22.5 112.2,22.5 112.3,22.5 112.4,22.5 112.5,22.5 112.5,22.5 112.6,22.5 112.7,22.5 
				112.7,22.5 112.8,22.5 112.9,22.5 113.1,22.5 113.2,22.5 113.3,22.5 113.3,22.5 113.4,22.5 113.4,22.5 113.4,22.5 113.4,22.5 
				113.5,22.4 113.5,22.3 113.5,22.2 113.5,22.2 113.5,22 113.4,21.9 113.4,21.8 113.3,21.7 113.2,21.7 113.1,21.6 112.9,21.6 
				112.8,21.6 112.8,21.6 112.6,21.6 112.5,21.6 112.3,21.6 112.1,21.6 111.9,21.6 111.8,21.6 111.6,21.6 111.4,21.6 111.3,21.7 
				111.1,21.7 111,21.7 110.8,21.7 110.7,21.8 110.6,21.8 110.5,21.8 110.5,21.9 110.9,20.6 110.9,20.6 111,20.5 111.1,20.5 
				111.2,20.4 111.4,20.4 111.5,20.4 111.6,20.4 111.8,20.3 111.9,20.3 112.1,20.3 112.2,20.3 112.4,20.3 112.6,20.3 112.7,20.3 
				112.9,20.3 113.1,20.3 113.3,20.3 113.3,20.3 113.5,20.3 113.6,20.3 113.8,20.4 114,20.4 114.1,20.5 114.3,20.6 114.5,20.7 
				114.6,20.8 114.8,20.9 114.9,21 115,21.2 115.1,21.3 115.1,21.5 115.2,21.7 115.2,21.9 115.1,22.1 114.6,25 			"/>
		</g>
	</g>
	<polygon class="st3" points="113.3,23.6 113.3,23.6 113.2,23.5 113.2,23.5 113.1,23.5 113.1,23.5 113,23.5 112.9,23.5 112.8,23.5 
		112.8,23.5 112.7,23.5 112.6,23.5 112.5,23.5 112.4,23.5 112.3,23.6 112.3,23.6 112.2,23.6 112.2,23.6 112.1,23.6 112.1,23.6 
		112,23.7 111.9,23.7 111.9,23.7 111.8,23.8 111.7,23.8 111.6,23.9 111.6,23.9 111.5,24 111.4,24.1 111.4,24.1 111.3,24.2 
		111.3,24.3 111.3,24.4 111.3,24.6 111.3,24.7 111.4,24.8 111.4,24.9 111.5,25 111.6,25 111.7,25 111.8,25 112,25 112.1,25 
		112.2,25 112.4,24.9 112.5,24.9 112.6,24.8 112.7,24.8 112.8,24.7 112.8,24.7 112.9,24.6 113,24.6 113,24.5 113,24.4 113.1,24.4 
		113.1,24.3 113.1,24.2 113.2,24.1 113.2,23.9 113.2,23.7 	"/>
	<polygon class="st4" points="103.1,26.2 101.6,26.2 102.8,19 105.4,19 105.6,23.3 107.4,19 110.1,19 108.9,26.2 107.4,26.2 
		108.3,20.9 108.3,20.9 106,26.2 104.3,26.2 104.3,26 104.3,25.4 104.3,24.6 104.2,23.6 104.1,22.6 104.1,21.7 104.1,21.1 104,20.9 
		104,20.9 104,20.9 104,20.9 104,20.9 	"/>
	<g>
		<g>
			<polyline class="st5" points="103.1,26.2 101.6,26.2 102.8,19 105.4,19 105.6,23.3 107.4,19 110.1,19 108.9,26.2 107.4,26.2 
				108.3,20.9 108.3,20.9 106,26.2 104.3,26.2 104.3,26.2 104.3,26 104.3,25.4 104.3,24.6 104.2,23.6 104.1,22.6 104.1,21.7 
				104.1,21.1 104,20.9 104,20.9 104,20.9 104,20.9 104,20.9 104,20.9 103.1,26.2 			"/>
		</g>
	</g>
	<polygon class="st4" points="141.8,25 141.5,26.2 140.2,26.2 140.2,26 140.2,25.8 140.2,25.7 140.2,25.6 140.1,25.7 140,25.8 
		139.9,25.8 139.8,25.9 139.7,26 139.6,26 139.4,26.1 139.3,26.2 139.2,26.2 139,26.3 138.9,26.3 138.7,26.3 138.5,26.3 138.4,26.3 
		138.2,26.3 138.1,26.3 137.9,26.2 137.7,26.2 137.6,26.1 137.4,26 137.3,25.9 137.2,25.8 137.1,25.7 137,25.6 137,25.5 136.9,25.4 
		136.9,25.3 136.8,25.1 136.8,25 136.8,24.9 136.8,24.8 136.8,24.7 136.8,24.4 136.8,24.2 136.9,24 137,23.9 137,23.7 137.1,23.5 
		137.3,23.4 137.4,23.2 137.5,23.1 137.7,23 137.8,22.9 138,22.8 138.2,22.7 138.4,22.7 138.5,22.6 138.7,22.6 138.7,22.6 
		138.8,22.6 138.8,22.6 138.9,22.6 138.9,22.6 139,22.6 139.1,22.5 139.2,22.5 139.3,22.5 139.4,22.5 139.5,22.5 139.6,22.5 
		139.6,22.5 139.7,22.5 139.8,22.5 139.9,22.5 140,22.5 140.1,22.5 140.2,22.5 140.4,22.5 140.5,22.5 140.6,22.5 140.6,22.5 
		140.6,22.5 140.6,22.5 140.7,22.4 140.7,22.3 140.7,22.2 140.7,22 140.6,21.9 140.5,21.8 140.5,21.7 140.4,21.7 140.2,21.6 
		140.1,21.6 140,21.6 139.8,21.6 139.7,21.6 139.5,21.6 139.3,21.6 139.2,21.6 139,21.6 138.8,21.6 138.6,21.6 138.5,21.7 
		138.3,21.7 138.2,21.7 138,21.7 137.9,21.8 137.8,21.8 137.7,21.8 137.7,21.9 138.1,20.6 138.2,20.5 138.3,20.5 138.4,20.4 
		138.6,20.4 138.7,20.4 138.8,20.4 139,20.3 139.1,20.3 139.3,20.3 139.4,20.3 139.6,20.3 139.8,20.3 139.9,20.3 140.1,20.3 
		140.3,20.3 140.5,20.3 140.6,20.3 140.8,20.3 141,20.4 141.2,20.4 141.3,20.5 141.5,20.6 141.7,20.7 141.8,20.8 141.9,20.9 
		142.1,21 142.2,21.2 142.3,21.3 142.3,21.5 142.4,21.7 142.4,21.9 142.3,22.1 	"/>
	<polygon class="st4" points="141.5,26.3 141.6,26.2 141.8,25 141.7,25 141.5,26.2 141.5,26.2 141.5,26.3 141.6,26.3 141.6,26.2 	
		"/>
	<polygon class="st4" points="140.1,26.2 140.2,26.3 141.5,26.3 141.5,26.2 140.2,26.2 140.2,26.2 140.1,26.2 140.1,26.3 
		140.2,26.3 	"/>
	<polygon class="st4" points="140.2,25.6 140.2,25.6 140.1,25.7 140.1,25.8 140.1,26 140.1,26.2 140.2,26.2 140.2,26 140.2,25.8 
		140.2,25.7 	"/>
	<polygon class="st4" points="138.1,26.3 138.1,26.3 138.2,26.3 138.4,26.3 138.5,26.3 138.7,26.3 138.9,26.3 139,26.3 139.2,26.2 
		139.3,26.2 139.5,26.1 139.6,26.1 139.7,26 139.8,25.9 140,25.9 140.1,25.8 140.1,25.7 140.2,25.6 140.2,25.6 140.1,25.7 140,25.7 
		139.9,25.8 139.8,25.9 139.7,25.9 139.6,26 139.4,26.1 139.3,26.1 139.2,26.2 139,26.2 138.8,26.2 138.7,26.3 138.5,26.3 
		138.4,26.3 138.2,26.3 138.1,26.2 138.1,26.2 	"/>
	<polygon class="st4" points="136.8,24.7 136.8,24.7 136.8,24.8 136.8,24.9 136.8,25 136.8,25.2 136.8,25.3 136.9,25.4 136.9,25.5 
		137,25.6 137.1,25.8 137.2,25.9 137.3,26 137.4,26 137.5,26.1 137.7,26.2 137.9,26.3 138.1,26.3 138.1,26.2 137.9,26.2 137.7,26.1 
		137.6,26.1 137.4,26 137.3,25.9 137.2,25.8 137.1,25.7 137.1,25.6 137,25.5 137,25.4 136.9,25.3 136.9,25.1 136.9,25 136.8,24.9 
		136.8,24.8 	"/>
	<polygon class="st4" points="138.7,22.6 138.7,22.6 138.5,22.6 138.3,22.6 138.2,22.7 138,22.8 137.8,22.9 137.7,23 137.5,23.1 
		137.4,23.2 137.2,23.4 137.1,23.5 137,23.7 136.9,23.9 136.9,24 136.8,24.2 136.8,24.4 136.8,24.7 136.8,24.7 136.8,24.4 
		136.9,24.2 136.9,24.1 137,23.9 137.1,23.7 137.2,23.6 137.3,23.4 137.4,23.3 137.6,23.1 137.7,23 137.9,22.9 138,22.8 138.2,22.8 
		138.4,22.7 138.5,22.7 	"/>
	<polygon class="st4" points="139.9,22.4 139.9,22.4 139.8,22.4 139.7,22.5 139.6,22.5 139.6,22.5 139.5,22.5 139.4,22.5 
		139.3,22.5 139.2,22.5 139.1,22.5 139,22.5 138.9,22.5 138.9,22.5 138.8,22.5 138.8,22.6 138.7,22.6 138.7,22.6 138.7,22.6 
		138.7,22.6 138.8,22.6 138.8,22.6 138.9,22.6 138.9,22.6 139,22.6 139.1,22.6 139.2,22.6 139.3,22.6 139.4,22.5 139.5,22.5 
		139.6,22.5 139.6,22.5 139.7,22.5 139.8,22.5 139.9,22.5 139.9,22.5 	"/>
	<polygon class="st4" points="140.6,22.5 140.6,22.5 140.6,22.5 140.6,22.5 140.5,22.5 140.4,22.5 140.2,22.5 140.1,22.5 140,22.4 
		139.9,22.4 139.9,22.5 140,22.5 140.1,22.5 140.2,22.5 140.4,22.5 140.5,22.5 140.6,22.5 140.6,22.5 140.6,22.5 140.7,22.5 
		140.6,22.5 140.7,22.5 140.7,22.5 	"/>
	<polygon class="st4" points="140.6,22.2 140.6,22.2 140.6,22.3 140.6,22.4 140.6,22.5 140.6,22.5 140.7,22.5 140.7,22.5 
		140.7,22.4 140.7,22.3 140.7,22.2 140.7,22.2 	"/>
	<polygon class="st4" points="140,21.6 140,21.6 140.1,21.6 140.2,21.7 140.3,21.7 140.4,21.8 140.5,21.8 140.6,21.9 140.6,22 
		140.6,22.2 140.7,22.2 140.7,22 140.6,21.9 140.6,21.8 140.5,21.7 140.4,21.6 140.3,21.6 140.1,21.6 140,21.5 140,21.5 	"/>
	<polygon class="st4" points="137.6,21.9 137.7,21.9 137.8,21.9 137.8,21.8 137.9,21.8 138,21.8 138.2,21.7 138.3,21.7 138.5,21.7 
		138.6,21.7 138.8,21.6 139,21.6 139.2,21.6 139.3,21.6 139.5,21.6 139.7,21.6 139.8,21.6 140,21.6 140,21.5 139.8,21.5 139.7,21.5 
		139.5,21.5 139.3,21.5 139.2,21.6 139,21.6 138.8,21.6 138.6,21.6 138.5,21.6 138.3,21.7 138.2,21.7 138,21.7 137.9,21.7 
		137.8,21.8 137.7,21.8 137.7,21.9 137.7,21.9 	"/>
	<polygon class="st4" points="138.1,20.5 138,20.6 137.6,21.9 137.7,21.9 138.1,20.6 138.1,20.6 138.1,20.5 138,20.5 138,20.6 	"/>
	<polygon class="st4" points="140.5,20.3 140.5,20.3 140.3,20.3 140.1,20.3 139.9,20.3 139.8,20.3 139.6,20.3 139.4,20.3 
		139.3,20.3 139.1,20.3 139,20.3 138.8,20.3 138.7,20.3 138.6,20.4 138.4,20.4 138.3,20.4 138.2,20.5 138.1,20.5 138.1,20.6 
		138.2,20.5 138.3,20.5 138.4,20.5 138.6,20.4 138.7,20.4 138.8,20.4 139,20.4 139.1,20.4 139.3,20.3 139.4,20.3 139.6,20.3 
		139.8,20.3 139.9,20.3 140.1,20.3 140.3,20.3 	"/>
	<polygon class="st4" points="142.4,22.1 142.4,22.1 142.4,21.9 142.4,21.7 142.4,21.5 142.3,21.3 142.2,21.2 142.1,21 142,20.9 
		141.8,20.7 141.7,20.6 141.5,20.5 141.3,20.5 141.2,20.4 141,20.4 140.8,20.3 140.6,20.3 140.5,20.3 140.5,20.3 140.6,20.4 
		140.8,20.4 141,20.4 141.1,20.5 141.3,20.5 141.5,20.6 141.6,20.7 141.8,20.8 141.9,20.9 142,21 142.2,21.2 142.2,21.3 142.3,21.5 
		142.3,21.7 142.3,21.9 142.3,22.1 142.3,22.1 	"/>
	<polygon class="st4" points="141.8,25 141.8,25 142.4,22.1 142.3,22.1 141.7,25 141.7,25 	"/>
	<polygon class="st2" points="140.4,23.6 140.4,23.6 140.4,23.5 140.4,23.5 140.3,23.5 140.2,23.5 140.2,23.5 140.1,23.5 140,23.5 
		139.9,23.5 139.8,23.5 139.8,23.5 139.7,23.5 139.6,23.5 139.5,23.6 139.4,23.6 139.4,23.6 139.4,23.6 139.3,23.6 139.3,23.6 
		139.2,23.6 139.1,23.7 139.1,23.7 139,23.7 138.9,23.8 138.8,23.8 138.8,23.9 138.7,24 138.6,24 138.6,24.1 138.6,24.2 138.5,24.3 
		138.5,24.4 138.5,24.6 138.5,24.7 138.6,24.8 138.6,24.9 138.7,25 138.8,25 138.9,25 139,25 139.2,25 139.3,25 139.5,25 
		139.6,24.9 139.7,24.9 139.8,24.8 139.9,24.8 140,24.7 140.1,24.6 140.1,24.6 140.2,24.5 140.2,24.4 140.3,24.4 140.3,24.3 
		140.3,24.2 140.4,24.2 140.4,24 140.4,23.9 140.4,23.7 	"/>
	<g>
		<g>
			<polygon class="st4" points="151.7,25.5 151.7,25.3 151.8,25.2 151.9,25.1 151.9,25 152.1,24.9 152.2,24.8 152.3,24.8 
				152.5,24.7 152.6,24.8 152.8,24.8 152.9,24.9 153,25 153.1,25.1 153.2,25.2 153.2,25.3 153.3,25.5 153.1,25.5 153.1,25.4 
				153.1,25.3 153,25.1 152.9,25.1 152.8,25 152.7,24.9 152.6,24.9 152.5,24.9 152.4,24.9 152.2,24.9 152.1,25 152,25.1 152,25.1 
				151.9,25.3 151.9,25.4 151.9,25.5 			"/>
			<polygon class="st4" points="152.2,25.5 152.2,25.1 152.5,25.1 152.6,25.2 152.6,25.2 152.7,25.2 152.7,25.2 152.7,25.2 
				152.8,25.3 152.8,25.3 152.8,25.3 152.8,25.4 152.8,25.4 152.8,25.5 152.7,25.5 152.5,25.5 152.5,25.5 152.6,25.5 152.6,25.5 
				152.6,25.4 152.7,25.4 152.7,25.4 152.7,25.4 152.7,25.3 152.7,25.3 152.7,25.3 152.6,25.3 152.6,25.3 152.6,25.3 152.6,25.3 
				152.5,25.3 152.5,25.3 152.3,25.3 152.3,25.5 			"/>
			<polygon class="st4" points="151.7,25.5 151.7,25.5 151.7,25.7 151.8,25.8 151.9,25.9 151.9,26.1 152.1,26.1 152.2,26.2 
				152.3,26.3 152.5,26.3 152.6,26.3 152.8,26.2 152.9,26.1 153,26.1 153.1,25.9 153.2,25.8 153.2,25.7 153.3,25.5 153.3,25.5 
				153.1,25.5 153.1,25.5 153.1,25.6 153.1,25.8 153,25.9 152.9,26 152.8,26 152.7,26.1 152.6,26.1 152.5,26.1 152.4,26.1 
				152.2,26.1 152.1,26 152,26 152,25.9 151.9,25.8 151.9,25.6 151.9,25.5 151.9,25.5 			"/>
			<polygon class="st4" points="152.2,25.5 152.2,25.8 152.3,25.8 152.3,25.5 152.5,25.5 152.7,25.8 152.8,25.8 152.6,25.5 
				152.6,25.5 152.7,25.5 152.7,25.5 152.7,25.5 152.7,25.5 152.5,25.5 152.5,25.5 152.3,25.5 152.3,25.5 			"/>
		</g>
	</g>
	<g>
		<g>
			<polyline class="st5" points="151.7,25.5 151.7,25.5 151.7,25.3 151.8,25.2 151.9,25.1 151.9,25 152.1,24.9 152.2,24.8 
				152.3,24.8 152.5,24.7 152.5,24.7 152.6,24.8 152.8,24.8 152.9,24.9 153,25 153.1,25.1 153.2,25.2 153.2,25.3 153.3,25.5 
				153.3,25.5 153.2,25.7 153.2,25.8 153.1,25.9 153,26.1 152.9,26.1 152.8,26.2 152.6,26.3 152.5,26.3 152.5,26.3 152.3,26.3 
				152.2,26.2 152.1,26.1 151.9,26.1 151.9,25.9 151.8,25.8 151.7,25.7 151.7,25.5 			"/>
		</g>
	</g>
	<g>
		<g>
			<polyline class="st5" points="152.3,25.8 152.2,25.8 152.2,25.1 152.5,25.1 152.5,25.1 152.6,25.2 152.6,25.2 152.7,25.2 
				152.7,25.2 152.7,25.2 152.8,25.3 152.8,25.3 152.8,25.3 152.8,25.3 152.8,25.4 152.8,25.4 152.8,25.5 152.7,25.5 152.7,25.5 
				152.7,25.5 152.6,25.5 152.6,25.5 152.8,25.8 152.7,25.8 152.5,25.5 152.3,25.5 152.3,25.8 			"/>
		</g>
	</g>
	<g>
		<g>
			<polyline class="st5" points="152.5,25.5 152.5,25.5 152.5,25.5 152.6,25.5 152.6,25.5 152.6,25.4 152.7,25.4 152.7,25.4 
				152.7,25.4 152.7,25.3 152.7,25.3 152.7,25.3 152.7,25.3 152.6,25.3 152.6,25.3 152.6,25.3 152.6,25.3 152.5,25.3 152.5,25.3 
				152.3,25.3 152.3,25.5 152.5,25.5 			"/>
		</g>
	</g>
	<g>
		<g>
			<polyline class="st5" points="152.5,26.1 152.5,26.1 152.6,26.1 152.7,26.1 152.8,26 152.9,26 153,25.9 153.1,25.8 153.1,25.6 
				153.1,25.5 153.1,25.5 153.1,25.4 153.1,25.3 153,25.1 152.9,25.1 152.8,25 152.7,24.9 152.6,24.9 152.5,24.9 152.5,24.9 
				152.4,24.9 152.2,24.9 152.1,25 152,25.1 152,25.1 151.9,25.3 151.9,25.4 151.9,25.5 151.9,25.5 151.9,25.6 151.9,25.8 152,25.9 
				152,26 152.1,26 152.2,26.1 152.4,26.1 152.5,26.1 			"/>
		</g>
	</g>
	<polygon class="st4" points="142.2,26.2 143.7,26.2 143.7,26.2 144.3,23.1 144.3,23 144.3,22.9 144.4,22.8 144.4,22.6 144.5,22.5 
		144.5,22.4 144.6,22.3 144.7,22.2 144.8,22.1 144.9,22 145,21.9 145.2,21.9 145.3,21.8 145.5,21.8 145.7,21.7 145.9,21.7 146,21.7 
		146,21.7 146,21.7 146,21.7 146.3,20.3 146.1,20.3 146,20.3 145.8,20.4 145.7,20.4 145.6,20.4 145.5,20.5 145.4,20.6 145.3,20.6 
		145.2,20.7 145.1,20.8 145,20.9 144.9,21 144.8,21 144.7,21.2 144.6,21.2 144.6,21.4 144.7,20.4 143.2,20.4 	"/>
	<g>
		<g>
			<polyline class="st5" points="142.2,26.2 143.7,26.2 143.7,26.2 144.3,23.1 144.3,23.1 144.3,23 144.3,22.9 144.4,22.8 
				144.4,22.6 144.5,22.5 144.5,22.4 144.6,22.3 144.7,22.2 144.8,22.1 144.9,22 145,21.9 145.2,21.9 145.3,21.8 145.5,21.8 
				145.7,21.7 145.9,21.7 145.9,21.7 146,21.7 146,21.7 146,21.7 146,21.7 146.3,20.3 146.3,20.3 146.1,20.3 146,20.3 145.8,20.4 
				145.7,20.4 145.6,20.4 145.5,20.5 145.4,20.6 145.3,20.6 145.2,20.7 145.1,20.8 145,20.9 144.9,21 144.8,21 144.7,21.2 
				144.6,21.2 144.6,21.4 144.7,20.4 143.2,20.4 142.2,26.2 142.2,26.2 			"/>
		</g>
	</g>
	<polygon class="st4" points="127.7,26.2 129.2,26.2 129.2,26.2 129.8,23.1 129.8,23 129.8,22.9 129.8,22.8 129.9,22.7 129.9,22.5 
		130,22.4 130,22.3 130.1,22.2 130.2,22.2 130.3,22.1 130.4,22 130.6,22 130.7,21.9 130.9,21.9 131.1,21.8 131.3,21.8 131.3,21.8 
		131.3,21.8 131.3,21.8 131.4,21.8 131.4,21.8 131.4,21.8 131.4,21.9 131.4,21.9 131.5,21.8 131.5,21.8 131.5,21.7 131.5,21.5 
		131.6,21.4 131.6,21.2 131.6,21.1 131.7,20.9 131.7,20.8 131.8,20.7 131.8,20.6 131.9,20.5 132,20.5 132,20.4 132,20.4 132,20.3 
		132,20.3 132,20.3 132,20.3 131.9,20.3 131.9,20.3 131.9,20.3 131.8,20.3 131.8,20.3 131.6,20.3 131.5,20.3 131.3,20.4 131.2,20.4 
		131.1,20.4 130.9,20.5 130.8,20.5 130.7,20.6 130.6,20.7 130.6,20.8 130.5,20.9 130.4,20.9 130.3,21 130.2,21.1 130.1,21.2 
		130.1,21.4 130.3,20.4 128.7,20.4 	"/>
	<g>
		<g>
			<polyline class="st5" points="127.7,26.2 129.2,26.2 129.2,26.2 129.8,23.1 129.8,23.1 129.8,23 129.8,22.9 129.8,22.8 
				129.9,22.7 129.9,22.5 130,22.4 130,22.3 130.1,22.2 130.2,22.2 130.3,22.1 130.4,22 130.6,22 130.7,21.9 130.9,21.9 131.1,21.8 
				131.3,21.8 131.3,21.8 131.3,21.8 131.3,21.8 131.3,21.8 131.4,21.8 131.4,21.8 131.4,21.8 131.4,21.9 131.4,21.9 131.4,21.9 
				131.5,21.8 131.5,21.8 131.5,21.7 131.5,21.5 131.6,21.4 131.6,21.2 131.6,21.1 131.7,20.9 131.7,20.9 131.7,20.8 131.8,20.7 
				131.8,20.6 131.9,20.5 132,20.5 132,20.4 132,20.4 132,20.3 132,20.3 132,20.3 132,20.3 132,20.3 131.9,20.3 131.9,20.3 
				131.9,20.3 131.8,20.3 131.8,20.3 131.8,20.3 131.6,20.3 131.5,20.3 131.3,20.4 131.2,20.4 131.1,20.4 130.9,20.5 130.8,20.5 
				130.7,20.6 130.6,20.7 130.6,20.8 130.5,20.9 130.4,20.9 130.3,21 130.2,21.1 130.1,21.2 130.1,21.4 130.3,20.4 128.7,20.4 
				127.7,26.2 127.7,26.2 			"/>
		</g>
	</g>
	<g>
		<g>
			<polygon class="st2" points="151.7,32 151.7,32 151.8,31.8 151.9,31.7 151.9,31.6 152.1,31.5 152.2,31.4 152.3,31.4 152.5,31.4 
				152.6,31.4 152.8,31.4 152.9,31.5 153,31.6 153.1,31.7 153.2,31.8 153.2,32 153.2,32 153.1,32 153.1,31.9 153,31.8 152.9,31.7 
				152.8,31.6 152.7,31.5 152.6,31.5 152.5,31.5 152.4,31.5 152.2,31.5 152.1,31.6 152,31.7 152,31.8 151.9,31.9 151.9,32 			"/>
			<polygon class="st2" points="152.2,32 152.2,31.8 152.5,31.8 152.6,31.8 152.6,31.8 152.7,31.8 152.7,31.8 152.7,31.9 
				152.8,31.9 152.8,31.9 152.8,32 152.7,32 152.7,31.9 152.7,31.9 152.7,31.9 152.6,31.9 152.6,31.9 152.6,31.9 152.6,31.9 
				152.5,31.9 152.5,31.9 152.3,31.9 152.3,32 			"/>
			<polygon class="st2" points="151.7,32.1 151.7,32 151.9,32 151.9,32 151.9,32.1 			"/>
			<polygon class="st2" points="152.2,32.1 152.2,32 152.3,32 152.3,32.1 152.5,32.1 152.5,32.1 152.6,32.1 152.6,32.1 152.6,32 
				152.7,32 152.7,32 152.7,32 152.7,32 152.8,32 152.8,32 152.8,32 152.8,32 152.8,32.1 152.7,32.1 			"/>
			<polygon class="st2" points="153.1,32.1 153.1,32 153.1,32 153.2,32 153.3,32.1 			"/>
			<polygon class="st2" points="151.7,32.1 151.7,32.1 151.7,32.3 151.8,32.4 151.9,32.5 151.9,32.7 152.1,32.8 152.2,32.8 
				152.3,32.9 152.5,32.9 152.6,32.9 152.8,32.8 152.9,32.8 153,32.7 153.1,32.5 153.2,32.4 153.2,32.3 153.3,32.1 153.3,32.1 
				153.1,32.1 153.1,32.1 153.1,32.2 153.1,32.4 153,32.5 152.9,32.6 152.8,32.6 152.7,32.7 152.6,32.7 152.5,32.7 152.4,32.7 
				152.2,32.7 152.1,32.6 152,32.6 152,32.5 151.9,32.4 151.9,32.2 151.9,32.1 151.9,32.1 			"/>
			<polygon class="st2" points="152.2,32.1 152.2,32.4 152.3,32.4 152.3,32.1 152.5,32.1 152.7,32.4 152.8,32.4 152.6,32.1 
				152.6,32.1 152.7,32.1 152.7,32.1 152.7,32.1 152.7,32.1 			"/>
		</g>
	</g>
</g>
<g>
	<g>
		<polygon class="st6" points="231.3,10.4 217.4,10.4 217.4,11.7 231.1,11.7 		"/>
		<polygon class="st6" points="230.7,14.1 208.7,14.1 208.7,15.4 230.5,15.4 		"/>
		<polygon class="st6" points="230.1,17.8 199.6,17.8 199.6,19.1 229.9,19.1 		"/>
	</g>
	<path class="st6" d="M234.1,9.3c0-0.2,0.3-0.4,0.5-0.4h12.1c0.2,0,0.3,0.2,0.3,0.4l-1,6.1c0,0.2-0.2,0.3-0.4,0.3h-5.7
		c-0.1,0-0.3,0.1-0.3,0.2l-0.3,1.9c0,0.1,0.1,0.2,0.2,0.2h2.7c0.1,0,0.2,0.1,0.2,0.2l-1,6.2c0,0.2-0.2,0.3-0.3,0.3h-2.8
		c-0.1,0-0.3,0.1-0.3,0.3l-0.3,2c0,0.1,0.1,0.2,0.2,0.2h5.9c0.2,0,0.3,0.2,0.3,0.3l-1,6.3c0,0.2-0.2,0.4-0.4,0.4h-12.2
		c-0.2,0-0.3-0.2-0.3-0.4L234.1,9.3z"/>
	<path class="st6" d="M248.4,9.3c0-0.2,0.2-0.5,0.5-0.5h12.3c0.2,0,0.4,0.2,0.3,0.4l-1,5.9c0,0.2-0.3,0.4-0.5,0.4h-5.5
		c-0.2,0-0.4,0.1-0.4,0.4l-0.3,2c0,0.2,0.1,0.3,0.3,0.3h2.6c0.2,0,0.3,0.2,0.3,0.3l-1,6.2c0,0.2-0.2,0.4-0.5,0.4h-2.6
		c-0.2,0-0.4,0.2-0.4,0.4l-1.3,8.3c0,0.3-0.2,0.5-0.5,0.5h-5.9c-0.2,0-0.3-0.2-0.3-0.4L248.4,9.3z"/>
	<path class="st6" d="M263.2,34.4c-0.2,0-0.4-0.2-0.4-0.5l2.9-17.8c0-0.2-0.1-0.4-0.4-0.4h-3.4c-0.2,0-0.4-0.3-0.4-0.5l1-6.1
		c0-0.2,0.2-0.3,0.4-0.3h14.6c0.2,0,0.4,0.1,0.4,0.4l-1,6c0,0.3-0.3,0.5-0.6,0.5h-3.4c-0.2,0-0.4,0.2-0.5,0.5L269.6,34
		c0,0.2-0.3,0.4-0.5,0.4H263.2z"/>
	<path class="st7" d="M169,21.5c0,0.5-0.1,0.9-0.3,1.1s-0.6,0.3-1.2,0.3c-0.6,0-1-0.1-1.2-0.3c-0.2-0.2-0.3-0.5-0.3-1
		s0.1-0.9,0.3-1.1s0.6-0.3,1.2-0.3c0.6,0,1,0.1,1.2,0.3C168.9,20.7,169,21,169,21.5 M168.8,33.9c0,0.1,0,0.1-0.1,0.2
		c0,0.1-0.1,0.1-0.2,0.1c-0.1,0-0.2,0.1-0.4,0.1s-0.4,0-0.6,0c-0.3,0-0.5,0-0.6,0c-0.2,0-0.3,0-0.4-0.1c-0.1,0-0.2-0.1-0.2-0.1
		c0-0.1-0.1-0.1-0.1-0.2v-9.2c0-0.1,0-0.1,0.1-0.2c0-0.1,0.1-0.1,0.2-0.1c0.1,0,0.2-0.1,0.4-0.1s0.4,0,0.6,0c0.3,0,0.5,0,0.6,0
		c0.2,0,0.3,0.1,0.4,0.1c0.1,0,0.2,0.1,0.2,0.1c0,0.1,0.1,0.1,0.1,0.2V33.9z"/>
	<path class="st7" d="M180.1,33.9c0,0.1,0,0.1-0.1,0.2c0,0.1-0.1,0.1-0.2,0.1c-0.1,0-0.2,0.1-0.4,0.1s-0.4,0-0.6,0
		c-0.3,0-0.5,0-0.6,0c-0.2,0-0.3,0-0.4-0.1c-0.1,0-0.2-0.1-0.2-0.1c0-0.1-0.1-0.1-0.1-0.2v-5.3c0-0.4,0-0.8-0.1-1.1
		c-0.1-0.3-0.2-0.5-0.3-0.7s-0.3-0.3-0.5-0.4s-0.4-0.1-0.7-0.1s-0.7,0.1-1,0.4c-0.3,0.2-0.7,0.6-1.1,1.1v6.1c0,0.1,0,0.1-0.1,0.2
		c0,0.1-0.1,0.1-0.2,0.1c-0.1,0-0.2,0.1-0.4,0.1s-0.4,0-0.6,0c-0.3,0-0.5,0-0.6,0c-0.2,0-0.3,0-0.4-0.1c-0.1,0-0.2-0.1-0.2-0.1
		c0-0.1-0.1-0.1-0.1-0.2v-9.2c0-0.1,0-0.1,0.1-0.2c0-0.1,0.1-0.1,0.2-0.1c0.1,0,0.2-0.1,0.3-0.1s0.3,0,0.5,0s0.4,0,0.5,0
		s0.3,0,0.3,0.1c0.1,0,0.1,0.1,0.2,0.1c0,0.1,0.1,0.1,0.1,0.2v1.1c0.5-0.6,1-1,1.6-1.2c0.5-0.3,1.1-0.4,1.6-0.4
		c0.6,0,1.2,0.1,1.6,0.3s0.8,0.5,1,0.8c0.3,0.4,0.5,0.8,0.6,1.2c0.1,0.5,0.2,1,0.2,1.7L180.1,33.9L180.1,33.9z"/>
	<path class="st7" d="M189.2,31.3c0,0.5-0.1,1-0.3,1.4s-0.5,0.7-0.8,1c-0.4,0.3-0.8,0.5-1.3,0.6s-1,0.2-1.6,0.2c-0.3,0-0.7,0-1-0.1
		s-0.6-0.1-0.8-0.2c-0.2-0.1-0.5-0.2-0.6-0.2c-0.2-0.1-0.3-0.2-0.4-0.2c-0.1-0.1-0.1-0.2-0.2-0.3c0-0.2-0.1-0.4-0.1-0.7
		c0-0.2,0-0.4,0-0.5s0-0.2,0.1-0.3c0-0.1,0.1-0.1,0.1-0.1s0.1,0,0.2,0c0.1,0,0.2,0,0.3,0.1c0.1,0.1,0.3,0.2,0.6,0.3
		c0.2,0.1,0.5,0.2,0.8,0.3s0.6,0.1,1,0.1c0.2,0,0.4,0,0.6-0.1c0.2,0,0.3-0.1,0.5-0.2c0.1-0.1,0.2-0.2,0.3-0.3
		c0.1-0.1,0.1-0.3,0.1-0.5s-0.1-0.4-0.2-0.5c-0.1-0.1-0.3-0.3-0.5-0.4s-0.4-0.2-0.7-0.3c-0.3-0.1-0.5-0.2-0.8-0.3
		c-0.3-0.1-0.6-0.3-0.8-0.4c-0.3-0.2-0.5-0.3-0.7-0.6c-0.2-0.2-0.4-0.5-0.5-0.8s-0.2-0.7-0.2-1.1s0.1-0.8,0.3-1.2
		c0.2-0.4,0.4-0.7,0.7-0.9c0.3-0.3,0.7-0.5,1.2-0.6s1-0.2,1.6-0.2c0.3,0,0.6,0,0.8,0.1c0.3,0,0.5,0.1,0.7,0.2s0.4,0.1,0.6,0.2
		c0.2,0.1,0.3,0.1,0.3,0.2c0.1,0.1,0.1,0.1,0.1,0.2s0,0.1,0.1,0.2c0,0.1,0,0.2,0,0.3c0,0.1,0,0.2,0,0.4c0,0.2,0,0.3,0,0.5
		c0,0.1,0,0.2-0.1,0.3c0,0.1-0.1,0.1-0.1,0.1h-0.1c-0.1,0-0.2,0-0.3-0.1s-0.3-0.1-0.5-0.2s-0.4-0.2-0.7-0.2
		c-0.3-0.1-0.6-0.1-0.9-0.1c-0.2,0-0.4,0-0.6,0.1c-0.2,0-0.3,0.1-0.4,0.2c-0.1,0.1-0.2,0.2-0.2,0.3c-0.1,0.1-0.1,0.2-0.1,0.4
		c0,0.2,0.1,0.4,0.2,0.5c0.1,0.1,0.3,0.3,0.5,0.4s0.5,0.2,0.7,0.3c0.3,0.1,0.5,0.2,0.8,0.3c0.3,0.1,0.6,0.2,0.8,0.4
		c0.3,0.2,0.5,0.3,0.7,0.6c0.2,0.2,0.4,0.5,0.5,0.8C189.1,30.5,189.2,30.8,189.2,31.3"/>
	<path class="st7" d="M196.3,32.9c0,0.3,0,0.5-0.1,0.7c0,0.2-0.1,0.3-0.1,0.3c-0.1,0.1-0.2,0.1-0.3,0.2c-0.1,0.1-0.3,0.1-0.4,0.1
		c-0.2,0-0.3,0.1-0.5,0.1s-0.4,0-0.6,0c-0.5,0-1-0.1-1.3-0.2c-0.4-0.1-0.7-0.3-0.9-0.6s-0.4-0.6-0.5-1s-0.2-0.9-0.2-1.5v-4.7h-1.1
		c-0.1,0-0.2-0.1-0.3-0.2c-0.1-0.2-0.1-0.4-0.1-0.8c0-0.2,0-0.4,0-0.5s0-0.2,0.1-0.3c0-0.1,0.1-0.1,0.1-0.2c0.1,0,0.1-0.1,0.2-0.1
		h1.1v-2.1c0-0.1,0-0.1,0.1-0.2c0-0.1,0.1-0.1,0.2-0.1c0.1,0,0.2-0.1,0.4-0.1s0.4,0,0.6,0c0.3,0,0.5,0,0.6,0c0.2,0,0.3,0,0.4,0.1
		c0.1,0,0.2,0.1,0.2,0.1c0,0.1,0.1,0.1,0.1,0.2v2.1h2c0.1,0,0.1,0,0.2,0.1c0.1,0,0.1,0.1,0.1,0.2s0.1,0.2,0.1,0.3c0,0.1,0,0.3,0,0.5
		c0,0.4,0,0.6-0.1,0.8c-0.1,0.2-0.2,0.2-0.3,0.2h-2v4.3c0,0.5,0.1,0.9,0.2,1.1c0.2,0.3,0.4,0.4,0.8,0.4c0.1,0,0.3,0,0.4,0
		c0.1,0,0.2-0.1,0.3-0.1s0.2-0.1,0.2-0.1c0.1,0,0.1,0,0.2,0h0.1l0.1,0.1c0,0.1,0,0.2,0.1,0.3C196.3,32.6,196.3,32.8,196.3,32.9"/>
	<path class="st7" d="M205.8,33.9c0,0.1,0,0.2-0.1,0.2c-0.1,0.1-0.2,0.1-0.3,0.1s-0.4,0-0.7,0s-0.5,0-0.7,0c-0.1,0-0.2-0.1-0.3-0.1
		c-0.1-0.1-0.1-0.1-0.1-0.2v-0.7c-0.4,0.4-0.8,0.7-1.3,0.9s-1,0.3-1.6,0.3c-0.5,0-0.9-0.1-1.3-0.2c-0.4-0.1-0.8-0.3-1.1-0.6
		s-0.5-0.6-0.7-0.9c-0.2-0.4-0.2-0.8-0.2-1.3s0.1-1,0.3-1.4s0.5-0.7,0.9-1s0.9-0.4,1.6-0.6c0.6-0.1,1.3-0.2,2.2-0.2h0.9v-0.6
		c0-0.3,0-0.5-0.1-0.8c-0.1-0.2-0.2-0.4-0.3-0.5s-0.3-0.3-0.5-0.3c-0.2-0.1-0.5-0.1-0.8-0.1c-0.4,0-0.8,0-1.2,0.1
		c-0.3,0.1-0.6,0.2-0.9,0.3c-0.3,0.1-0.5,0.2-0.7,0.3c-0.2,0.1-0.3,0.1-0.4,0.1c-0.1,0-0.1,0-0.2-0.1c-0.1,0-0.1-0.1-0.1-0.2
		s-0.1-0.2-0.1-0.3c0-0.1,0-0.3,0-0.4c0-0.2,0-0.4,0.1-0.5c0-0.1,0.1-0.2,0.2-0.3c0.1-0.1,0.3-0.2,0.5-0.3c0.2-0.1,0.5-0.2,0.8-0.3
		c0.3-0.1,0.7-0.2,1.1-0.3c0.4-0.1,0.8-0.1,1.2-0.1c0.7,0,1.3,0.1,1.9,0.2c0.5,0.1,0.9,0.4,1.3,0.7c0.3,0.3,0.6,0.7,0.7,1.1
		c0.2,0.5,0.2,1,0.2,1.6v6.4C206,33.9,205.8,33.9,205.8,33.9z M203.3,29.9h-1c-0.4,0-0.8,0-1.1,0.1s-0.5,0.2-0.7,0.3
		c-0.2,0.1-0.3,0.3-0.4,0.4c-0.1,0.2-0.1,0.4-0.1,0.6c0,0.4,0.1,0.7,0.4,0.9c0.2,0.2,0.6,0.3,1,0.3s0.7-0.1,1-0.3s0.6-0.5,0.9-0.8
		L203.3,29.9L203.3,29.9z"/>
	<path class="st7" d="M217.2,33.9c0,0.1,0,0.1-0.1,0.2c0,0.1-0.1,0.1-0.2,0.1c-0.1,0-0.2,0.1-0.4,0.1s-0.4,0-0.6,0
		c-0.3,0-0.5,0-0.6,0c-0.2,0-0.3,0-0.4-0.1c-0.1,0-0.2-0.1-0.2-0.1c0-0.1-0.1-0.1-0.1-0.2v-5.3c0-0.4,0-0.8-0.1-1.1
		c-0.1-0.3-0.2-0.5-0.3-0.7s-0.3-0.3-0.5-0.4s-0.4-0.1-0.7-0.1s-0.7,0.1-1,0.4c-0.3,0.2-0.7,0.6-1.1,1.1v6.1c0,0.1,0,0.1-0.1,0.2
		c0,0.1-0.1,0.1-0.2,0.1c-0.1,0-0.2,0.1-0.4,0.1s-0.4,0-0.6,0c-0.3,0-0.5,0-0.6,0c-0.2,0-0.3,0-0.4-0.1c-0.1,0-0.2-0.1-0.2-0.1
		c0-0.1-0.1-0.1-0.1-0.2v-9.2c0-0.1,0-0.1,0.1-0.2c0-0.1,0.1-0.1,0.2-0.1c0.1,0,0.2-0.1,0.3-0.1s0.3,0,0.5,0s0.4,0,0.5,0
		s0.3,0,0.3,0.1c0.1,0,0.1,0.1,0.2,0.1c0,0.1,0.1,0.1,0.1,0.2v1.1c0.5-0.6,1-1,1.6-1.2c0.5-0.3,1.1-0.4,1.6-0.4
		c0.6,0,1.2,0.1,1.6,0.3s0.8,0.5,1,0.8c0.3,0.4,0.5,0.8,0.6,1.2c0.1,0.5,0.2,1,0.2,1.7L217.2,33.9L217.2,33.9z"/>
	<path class="st7" d="M225,32.9c0,0.3,0,0.5-0.1,0.7c0,0.2-0.1,0.3-0.1,0.3c-0.1,0.1-0.2,0.1-0.3,0.2c-0.1,0.1-0.3,0.1-0.4,0.1
		c-0.2,0-0.3,0.1-0.5,0.1s-0.4,0-0.6,0c-0.5,0-1-0.1-1.3-0.2c-0.4-0.1-0.7-0.3-0.9-0.6s-0.4-0.6-0.5-1s-0.2-0.9-0.2-1.5v-4.7H219
		c-0.1,0-0.2-0.1-0.3-0.2c-0.1-0.2-0.1-0.4-0.1-0.8c0-0.2,0-0.4,0-0.5s0-0.2,0.1-0.3c0-0.1,0.1-0.1,0.1-0.2c0.1,0,0.1-0.1,0.2-0.1
		h1.1v-2.1c0-0.1,0-0.1,0.1-0.2c0-0.1,0.1-0.1,0.2-0.1c0.1,0,0.2-0.1,0.4-0.1s0.4,0,0.6,0c0.3,0,0.5,0,0.6,0c0.2,0,0.3,0,0.4,0.1
		c0.1,0,0.2,0.1,0.2,0.1c0,0.1,0.1,0.1,0.1,0.2v2.1h2c0.1,0,0.1,0,0.2,0.1c0.1,0,0.1,0.1,0.1,0.2s0.1,0.2,0.1,0.3c0,0.1,0,0.3,0,0.5
		c0,0.4,0,0.6-0.1,0.8c-0.1,0.2-0.2,0.2-0.3,0.2h-2v4.3c0,0.5,0.1,0.9,0.2,1.1c0.2,0.3,0.4,0.4,0.8,0.4c0.1,0,0.3,0,0.4,0
		c0.1,0,0.2-0.1,0.3-0.1s0.2-0.1,0.2-0.1c0.1,0,0.1,0,0.2,0h0.1L225,32c0,0.1,0,0.2,0.1,0.3C225,32.6,225,32.8,225,32.9"/>
</g>
</svg>
