<?xml version="1.0" encoding="utf-8"?>
<!-- Generator: Adobe Illustrator 19.2.1, SVG Export Plug-In . SVG Version: 6.00 Build 0)  -->
<svg version="1.1" id="Layer_1" xmlns="http://www.w3.org/2000/svg" xmlns:xlink="http://www.w3.org/1999/xlink" x="0px" y="0px"
	 viewBox="0 0 100 100" style="enable-background:new 0 0 100 100;" xml:space="preserve">
<style type="text/css">
	.st0{fill:#F28019;}
</style>
<g id="_x35_eYWNM_1_">
	<g>
		<path d="M27.6,98.3c-0.5-0.2-0.9-0.3-1.4-0.3c-4.5-1.2-7.8-5.3-8.1-10c-0.3-4.4-0.8-8.8-1.2-13.2c-0.5-4.9-0.9-9.8-1.5-14.8
			c-0.3-3.5-0.5-7-1-10.5c-0.7-4.4,2.2-9.4,6.9-11.1c1.2-0.5,2.6-0.6,4-0.8c1.8-0.2,3.5,0,5.4,0c0-0.5,0-0.8,0-1.2
			c0-4.4,0.2-8.7,0-13.1C30.1,11.8,39.2,4.7,46.8,3.1c10.3-2.2,21.6,4.8,23.9,15c0.3,1.3,0.4,2.7,0.4,4.1c0.1,4.8,0,9.6,0,14.4
			c0,0.3,0,0.7,0,1.2c1.9,0,3.7-0.1,5.5,0c4.6,0.2,7.9,2.4,9.9,6.4c1,2.1,0.9,4.3,0.7,6.6c-0.6,6.4-1.2,12.7-1.8,19
			c-0.5,5.5-1.1,11.1-1.6,16.7c-0.2,1.1-0.2,2.2-0.4,3.4c-1.2,4.5-4.1,7.3-8.6,8.3c-0.2,0.1-0.3,0.2-0.5,0.2
			C58.6,98.3,43.1,98.3,27.6,98.3z M50.9,41.6c-2.1,0-4.1,0-6.1,0c-6.5,0-13,0-19.6,0c-4.5,0-7.1,2.8-6.7,7.3
			c0.6,6.6,1.2,13.2,1.9,19.8c0.6,6.7,1.2,13.4,1.9,20c0.3,2.5,1.9,4.5,4.4,5.1c1.1,0.3,2.2,0.3,3.4,0.3c6.8,0,13.5,0,20.3,0
			c7.5,0,15,0,22.6,0c3.7,0,6.4-2.2,6.7-5.5c0.5-5.2,0.9-10.4,1.5-15.6c0.8-7.8,1.5-15.6,2.2-23.3c0.2-1.2,0.2-2.4-0.1-3.5
			c-0.6-3-3.1-4.8-6.7-4.8C67.9,41.6,59.4,41.6,50.9,41.6z M34.6,37.6c10.8,0,21.5,0,32.2,0c0-0.2,0.1-0.3,0.1-0.4
			c0-5.5,0.1-11.1-0.1-16.6c-0.1-3.1-1.2-5.9-3.3-8.1c-4.3-4.9-9.8-6.7-16.2-5.4c-7.6,1.4-13,7.7-12.9,15.1c0.2,4.8,0,9.5,0,14.3
			C34.6,36.9,34.6,37.2,34.6,37.6z"/>
		<path d="M50.8,82.1c-1.4,0-2.8,0-4.1,0c-1.5,0-2.2-0.6-2.3-2.1c-0.5-4.4-1.1-8.7-1.6-13.1c-0.3-3.5,1.3-6,4.1-7.7
			c2.8-1.7,5.8-1.6,8.5,0.3c2.8,1.9,4.1,4.5,3.5,7.9c-0.5,4-1,8-1.5,11.9c-0.3,2.2-0.8,2.8-3.1,2.8c-0.6,0-1.2,0-1.8,0
			C52,82.1,51.4,82.1,50.8,82.1L50.8,82.1z M50.8,78.1L50.8,78.1c0.6-0.1,1.2-0.2,1.9-0.1c0.7,0.1,0.9-0.2,0.9-0.9
			c0.3-2.5,0.6-5,0.9-7.5c0.2-1,0.2-2,0.3-3c0.2-1.6-0.2-3-1.6-3.9c-1.6-0.9-3.5-1-5.1-0.1c-1.5,0.8-1.8,2.2-1.6,3.8
			c0.3,2.9,0.7,5.8,1.1,8.7c0.2,0.9-0.1,2.1,0.4,2.5C48.7,78.3,49.9,78.1,50.8,78.1z"/>
		<path class="st0" d="M50.8,78.1c-0.9-0.1-2.1,0.2-2.6-0.3c-0.5-0.5-0.3-1.6-0.4-2.5c-0.3-2.8-0.8-5.8-1.1-8.7
			c-0.2-1.6,0.2-3,1.6-3.8c1.6-0.9,3.5-0.9,5.1,0.1c1.5,0.9,1.8,2.3,1.6,3.9c-0.2,1-0.2,2-0.3,3c-0.3,2.5-0.6,5-0.9,7.5
			c-0.1,0.7-0.3,0.9-0.9,0.9C52.2,78,51.6,78.1,50.8,78.1L50.8,78.1z"/>
	</g>
</g>
</svg>
