<?xml version="1.0" encoding="utf-8"?>
<!-- Generator: Adobe Illustrator 19.2.1, SVG Export Plug-In . SVG Version: 6.00 Build 0)  -->
<svg version="1.1" id="Layer_1" xmlns="http://www.w3.org/2000/svg" xmlns:xlink="http://www.w3.org/1999/xlink" x="0px" y="0px"
	 viewBox="0 0 100 100" style="enable-background:new 0 0 100 100;" xml:space="preserve">
<style type="text/css">
	.st0{fill:#231F20;}
	.st1{fill:#FAAA1B;}
</style>
<g>
	<g>
		<g>
			<path class="st0" d="M95.8,92.2c-0.2-2.8-0.1-5.8-0.1-8.6c0-0.6,0-1.3,0-1.9c0-1.5-0.5-2.8-1.5-3.9c-0.3-0.4-0.6-0.7-0.9-1.1
				l-1.6-2.4c-2.3-3.5-4.6-7.1-6.8-10.7c-0.8-1.2-1.7-1.7-3.1-1.7c-4,0-8.2,0-13.8,0c-0.4,0-0.9-0.1-1-0.2c-0.6-1.9-1.2-3.9-1.8-5.9
				c-0.1-0.5-0.3-0.9-0.4-1.4h1.2c1.7,0,3.3,0,5,0c3.8,0,7.7,0,11.6,0c4.1,0,6-1.6,6.7-5.5c0.1-0.5,0.1-0.9,0.1-1.4l0-0.2
				c0-12.2,0-24.4,0-36.5l0-1.9c0-0.3,0-0.6,0-0.9C89.1,4.1,87,2,83.6,2C61.3,2,39.4,2,20.9,2c-2.3,0-4.2,1.3-4.9,3.4
				c-0.3,0.8-0.4,1.8-0.5,2.7c0,2.6,0,5.2,0,7.9c0,0.8,0,30.4,0,32.6c0,3.1,1.8,5.1,4.7,5.4c1.6,0.2,6.6,0.2,10.9,0.2
				c2.3,0,4.4,0,5.7,0c0,0.2-0.1,0.3-0.1,0.5c-0.3,1-0.6,2.1-0.9,3.1c-0.3,1-0.7,2.1-0.9,3.1c-0.2,0.8-0.5,1-1.5,1
				c-2.4,0-4.8,0-7.2,0c-2.6,0-5.4,0-8,0c-1.6,0-2.5,0.5-3.2,1.8c-0.7,1.3-1.5,2.5-2.3,3.7l-0.2,0.3c-0.8,1.2-1.6,2.4-2.4,3.5
				c-1.6,2.4-3.3,4.9-4.9,7.4c-0.6,0.9-1,2.1-1,3.1c-0.1,3.5-0.1,7.1,0,11.1c0.1,3.1,2.2,5.1,5.3,5.2c1,0,2,0,3.1,0l1.2,0
				c5.9,0,11.8,0,17.7,0c19.1,0,38.9,0,58.4,0.1c0,0,0,0,0,0c1.7,0,3.2-0.6,4.3-1.8C95.4,95.2,95.9,93.7,95.8,92.2z M32.9,65.2
				c-0.4,1.4-1.2,4-1.6,5.3c-0.4,1.2-0.5,2.2,0,2.8c0.5,0.7,1.5,0.8,2.6,0.8c11.3,0,22.7,0,34,0c1,0,2.1-0.1,2.6-0.8
				c0.5-0.7,0.3-1.7,0-2.7c-0.4-1.3-1.2-3.9-1.6-5.3l-0.4-1.5l6.7,0c2.2,0,4.6,0,6.8,0c0.5,0,0.9,0.2,1,0.3c2,3,7.6,12.4,7.6,12.4
				h-81c0,0,6.5-10.7,7.3-11.9c0.3-0.4,0.7-0.7,0.9-0.7c4.2,0,8.4,0,12.9,0l2.8,0L32.9,65.2z M9.4,94.8c-2.6,0-2.9-0.4-2.9-2.9
				l0-2.7c0-2.4,0-4.8,0-7.2c0-1.8,0.5-2.3,2.3-2.3c10.3,0,70.6,0,81.9,0c2.7,0,3,0.2,3,3c0,3,0,6,0,9c0,2.9-0.3,3.1-3.1,3.1
				C76,94.8,14.9,94.8,9.4,94.8z M20.8,51.3c-2.3,0-2.8-0.6-2.8-2.9c0-13.5,0-27,0-40.6c0-2.5,0.5-3.1,3.1-3.1l62.2,0
				c3.1,0,3.6,0.4,3.6,3.6c0,13.2,0,26.3,0,39.5c0,0.6-0.1,1.2-0.1,1.8c-0.1,1-0.7,1.5-1.7,1.6c-0.6,0-1.3,0.1-2.1,0.1
				C73.9,51.3,23,51.3,20.8,51.3z M39,55.4c0-0.2,0.5-0.5,0.7-0.5c7.9-0.1,15.3,0,22.5,0c0.2,0,0.7,0.4,0.8,0.6
				c1.3,4.2,2.6,8.4,3.9,12.8l0.8,2.7H34.1l0.8-2.6C36.3,64,37.6,59.7,39,55.4z"/>
		</g>
		<g>
			<path class="st0" d="M62.7,7.4L62.7,7.4l-41.8,0v41.2h63.2V7.4H62.7z M81,45.2H24.4V11h38.3v0.1H81V45.2z"/>
		</g>
		<g>
			<rect x="12.5" y="85.9" class="st0" width="76.6" height="3.3"/>
		</g>
	</g>
	<g>
		<polyline class="st1" points="63.1,10.4 82.2,10.4 82.2,45.8 23.3,45.8 23.3,10.3 63.1,10.3 		"/>
	</g>
	<g id="tmGB7c.tif">
		<g>
			<g>
				<path d="M65.5,27.2c-0.9,0.6-1.7,1.2-2.6,1.7c-0.3,0.2-0.7,0.2-1-0.1c-0.2-0.2-0.3-0.6-0.2-0.9c0.1-0.1,0.2-0.3,0.3-0.4
					c1.3-0.8,2.5-1.7,3.8-2.5c0.4-0.3,0.7-0.2,1.1,0.1c1.1,1,2.1,2,3.2,3.1c0.4,0.4,0.5,0.8,0.1,1.2c-0.3,0.3-0.8,0.3-1.2-0.1
					c-0.6-0.5-1.1-1.1-1.7-1.6c-0.1-0.1-0.2-0.2-0.3-0.3c-0.1,0.6-0.1,1.2-0.2,1.8c-0.8,4.8-3.4,8.4-7.7,10.7
					c-2.5,1.4-5.2,1.9-8.1,1.6c-5.7-0.4-10.8-4.4-12.6-9.9c-0.2-0.5,0-0.9,0.4-1.1c0.4-0.2,0.8,0,1,0.6c0.6,1.7,1.5,3.3,2.7,4.6
					c2.1,2.3,4.8,3.7,7.9,4.1C57.6,41,64,36.5,65.3,29.6c0.2-0.8,0.2-1.6,0.3-2.4C65.6,27.2,65.5,27.2,65.5,27.2z"/>
			</g>
			<g>
				<path d="M39.4,27.1c0.8-0.6,1.7-1.2,2.5-1.7c0.4-0.3,1-0.2,1.2,0.3c0.2,0.3,0.1,0.7-0.3,1c-1.3,0.9-2.6,1.8-3.8,2.7
					c-0.3,0.2-0.7,0.2-1-0.1c-1.1-1-2.3-2-3.4-3.1c-0.4-0.4-0.4-0.8-0.1-1.1c0.3-0.3,0.7-0.3,1.1,0c0.7,0.6,1.4,1.2,2.1,1.9
					c0-0.5,0.1-0.9,0.1-1.3c0.6-6.1,5.4-11.3,11.5-12.6c7.2-1.5,14.4,2.5,16.9,9.4c0.1,0.2,0.1,0.4,0.1,0.6c0,0.4-0.3,0.6-0.7,0.7
					c-0.3,0-0.6-0.1-0.8-0.5c-0.2-0.4-0.3-0.8-0.5-1.3c-2-4.2-5.3-6.8-9.9-7.6c-7-1.1-13.5,3.5-14.9,10.4c-0.2,0.8-0.2,1.6-0.3,2.4
					C39.3,27.1,39.4,27.1,39.4,27.1z"/>
			</g>
		</g>
	</g>
</g>
</svg>
