<?xml version="1.0" encoding="utf-8"?>
<!-- Generator: Adobe Illustrator 19.2.1, SVG Export Plug-In . SVG Version: 6.00 Build 0)  -->
<svg version="1.1" id="Layer_1" xmlns="http://www.w3.org/2000/svg" xmlns:xlink="http://www.w3.org/1999/xlink" x="0px" y="0px"
	 viewBox="0 0 100 100" style="enable-background:new 0 0 100 100;" xml:space="preserve">
<style type="text/css">
	.st0{fill:#FAA91A;}
</style>
<g id="RWed5t.tif">
	<g>
		<path d="M97.1,79.3c-0.1,0.2-0.1,0.3-0.2,0.5c-0.9,4.1-4.4,6.5-8.7,6.4c-5.1-0.2-10.1,0-15.2,0c-15,0-30.1,0-45.1,0
			c-5.4,0-10.8,0-16.2,0c-4.8,0-8.3-3.5-8.3-8.3c0-16.4,0-32.8,0-49.2c0-4.5,2.4-7.6,6.8-8.7c0.1,0,0.2-0.1,0.3-0.2
			c26.5,0,52.9,0,79.4,0c0.2,0.1,0.4,0.1,0.6,0.2c3,0.8,5,2.5,6.1,5.5c0.2,0.5,0.3,1.1,0.5,1.6C97.1,44.5,97.1,61.9,97.1,79.3z
			 M50.3,82.2L50.3,82.2c12.9,0,25.8,0,38.8,0c1.1,0,2-0.4,2.9-1.2c0.9-0.9,1.1-1.9,1.1-3.2c0-9.4,0-18.8,0-28.2
			c0-7.1,0-14.3,0-21.4c0-1.3-0.4-2.3-1.3-3.3c-1-1.1-2.4-1.3-3.8-1.3c-3.8,0-7.6,0-11.3,0c-16.1,0-32.3,0-48.5,0
			c-5.4,0-10.7,0-16.1,0c-3,0-4.8,1.7-4.8,4.5c0,16.7,0,33.4,0,50c0,2.3,1.6,3.9,4,3.9C24.4,82.2,37.4,82.2,50.3,82.2z"/>
		<path d="M73.6,33.7c6.4,0,11.6,5.6,11.6,11.6c0,6.1-5.4,11.7-11.6,11.7c-6.2,0-11.7-5.4-11.7-11.5C61.9,39.1,67.4,33.7,73.6,33.7z
			 M75.4,37.8c-4.6-1-8.5,1.5-9.4,5.8c-0.9,4.4,1.6,8.4,5.9,9.2c3.9,0.8,8.2-1.5,8.8-4.7c-1.2-0.1-2.4-0.3-3.6-0.4
			c-1.2-0.2-2.5-0.3-3.7-0.5c-1.4-0.2-2.1-1.5-1.5-2.9c0.2-0.3,0.3-0.6,0.5-1C73.4,41.6,74.4,39.7,75.4,37.8z M79,39.5
			c-0.8,1.5-1.5,2.8-2.2,4.2c1.6,0.2,3,0.4,4.5,0.6C81.1,42.4,80.3,40.9,79,39.5z"/>
		<path d="M54.1,55c0,5.7,0,11.4,0,17.1c0,1.6-1.1,2.5-2.4,2.2c-1-0.2-1.6-1-1.6-2.3c0-3.7,0-7.3,0-11c0-7.7,0-15.4,0-23
			c0-0.2,0-0.4,0-0.6c0.1-1.2,0.9-2.1,2-2.1c1.1,0,1.9,0.9,2,2.1c0,2.8,0,5.6,0,8.4C54.1,48.9,54.1,52,54.1,55
			C54.1,55,54.1,55,54.1,55z"/>
		<path d="M46.2,60.8c0,3.8,0,7.7,0,11.5c0,1.6-1.4,2.5-2.7,1.9c-0.9-0.4-1.2-1.1-1.2-2.1c0-5,0-9.9,0-14.9c0-2.7,0-5.5,0-8.2
			c0-1,0.6-1.7,1.5-1.9c0.8-0.2,1.7,0.2,2.1,0.9c0.2,0.4,0.3,0.8,0.3,1.2C46.2,53.1,46.2,57,46.2,60.8L46.2,60.8z"/>
		<path d="M30.7,62.7c0,3.1,0,6.2,0,9.3c0,1.4-0.8,2.3-2,2.3c-1.2,0-2-0.9-2-2.4c0-6.2,0-12.5,0-18.7c0-1.4,0.8-2.4,2-2.3
			c1.2,0,2,0.9,2,2.4C30.7,56.5,30.7,59.6,30.7,62.7z"/>
		<path d="M73.5,66.6c-3.1,0-6.2,0-9.3,0c-1.4,0-2.3-0.8-2.3-2c0-1.2,0.9-2,2.4-2c6.2,0,12.5,0,18.7,0c1.5,0,2.3,0.7,2.3,2
			c0,1.2-0.9,2-2.3,2C79.8,66.6,76.6,66.6,73.5,66.6z"/>
		<path d="M73.6,70.5c3.1,0,6.2,0,9.3,0c1.4,0,2.2,0.7,2.3,1.9c0,1.2-0.8,2-2.2,2c-6.3,0-12.6,0-18.9,0c-1.4,0-2.3-0.8-2.3-2
			c0-1.2,0.9-2,2.3-2C67.3,70.5,70.5,70.5,73.6,70.5z"/>
		<path d="M34.5,64.7c0-2.5,0-5.1,0-7.6c0-1.3,0.7-2.2,1.9-2.2c1.2,0,2,0.8,2,2.2c0,5.1,0,10.1,0,15.2c0,1.3-0.9,2.2-2,2.2
			c-1.2,0-1.9-0.9-1.9-2.2C34.5,69.7,34.5,67.2,34.5,64.7z"/>
		<path d="M18.9,68.5c0-1.3,0-2.5,0-3.8c0-1.2,0.9-2.1,2-2c1.1,0,1.9,0.8,1.9,2c0,2.5,0,5.1,0,7.7c0,1.2-0.8,2.1-2,2
			c-1.1,0-1.9-0.8-1.9-2C18.9,71.1,18.9,69.8,18.9,68.5z"/>
		<path class="st0" d="M75.4,37.8c-1,1.9-2,3.8-3,5.6c-0.2,0.3-0.4,0.6-0.5,1c-0.6,1.3,0.1,2.7,1.5,2.9c1.2,0.2,2.5,0.3,3.7,0.5
			c1.2,0.2,2.4,0.3,3.6,0.4c-0.6,3.2-4.9,5.5-8.8,4.7c-4.2-0.8-6.8-4.9-5.9-9.2C66.9,39.3,70.8,36.8,75.4,37.8z"/>
	</g>
</g>
</svg>
