<?xml version="1.0" encoding="utf-8"?>
<!-- Generator: Adobe Illustrator 19.2.1, SVG Export Plug-In . SVG Version: 6.00 Build 0)  -->
<svg version="1.1" id="Layer_1" xmlns="http://www.w3.org/2000/svg" xmlns:xlink="http://www.w3.org/1999/xlink" x="0px" y="0px"
	 viewBox="0 0 100 100" style="enable-background:new 0 0 100 100;" xml:space="preserve">
<style type="text/css">
	.st0{stroke:#000000;stroke-width:2;stroke-miterlimit:10;}
	.st1{fill:#F28019;}
	.st2{fill:#FFFFFF;}
</style>
<g>
	<g>
		<path class="st0" d="M58.2,24.9c0.5-0.6,1-1,1.4-1.5c6.3,6.8,12.6,13.5,18.9,20.3c-0.4,0.4-1,0.9-1.4,1.4
			C70.9,38.4,64.6,31.6,58.2,24.9z"/>
	</g>
	<g>
		<path class="st0" d="M56.9,20.5c-0.4,0.5-1,1-1.4,1.5c-0.7-0.8-1.4-1.5-2.1-2.3c0.5-0.5,1-1,1.5-1.6
			C55.6,18.8,56.2,19.6,56.9,20.5z"/>
	</g>
	<path class="st0" d="M91.5,31.7c-1.6-0.8-3.3-0.8-5.1-0.4c0.5-2.9,0.2-5.5-1.8-7.6c-2-2.1-4.4-2.5-7.1-1.9c0.6-3,0.1-5.5-1.8-7.7
		c-1.9-2.1-4.4-2.5-7-1.9c0.1-0.3,0.1-0.5,0.1-0.6c0.3-2.3,0-4.6-1.4-6.5c-2.6-3.4-6.9-3.4-10.1-1.1C56,5,54.9,6.2,53.7,7.4
		c-0.2-0.2-20.1,21.4-20.1,21.4c-8.8-9.8-18.6,4.6-19.2,6.6c-1.9,5.8-1.7,11,2,15.7c1.4,1.8,3,3.4,4.6,5c0.9,0.9,1,1.6,0.6,2.8
		c-4.4,12.4-8.8,24.8-13.2,37.3c-0.8,2.1-0.2,0.8-1,2.8c0.8,0.3,1.4,0.6,2.1,0.8c1.7-4.8,3.2-9.2,4.8-13.6l3.2,1.4
		c0.1,0.1,0.1,0.2,0.1,0.3c0.8,2.3,2.4,4,4.5,5l10.6,4.9l0,0c1.1,0.5,2.2,0.8,3.3,0.8c1.6,0,3.1-0.5,4.5-1.4l2.9,1.4l0,0
		c0.1,0,0.1,0.1,0.2,0.1l1.3,0.6v-0.1c0.2,0.1,0.3,0.1,0.6,0.2c0.2-0.6,3.2-9.6,5.7-16.4c0.2-0.6,0.5-0.9,1.2-1
		c1.4-0.1,3-0.5,4.4-0.8c3.4,0.1,37.5-38.2,38-39.5C96.5,38,95,33.4,91.5,31.7z M33.5,96.1L33.5,96.1l-10.6-4.9
		c-1.6-0.7-2.8-2.1-3.4-3.8c-0.6-1.7-0.6-3.6,0.1-5.2c0.7-1.7,1.9-3,3.5-3.7c1.6-0.7,3.3-0.6,4.9,0.1l10.6,4.9
		c1.6,0.7,2.8,2.1,3.4,3.8s0.6,3.6-0.1,5.2C40.4,96,36.7,97.6,33.5,96.1z M92.7,40.8c-0.5,1.1-1.2,2.2-2,3
		c-9.9,10.7-19.9,21.3-29.9,32c-2.6,2.7-5.6,4.1-9.1,3.9c-1.9-0.1-3.7-0.5-5.6-0.7c-0.1,0.6-0.3,1.3-0.6,2.1
		c1.2,0.3,2.3,0.6,3.6,0.9c-0.8,2.4-1.4,4.2-2,5.8l-3.2-1.5l0,0c-0.8-2.3-2.4-4-4.5-5l-10.6-4.9c-2.6-1.2-5.4-0.9-7.7,0.6l-3-1.4
		c2.1-6.1,4.3-12.3,6.8-19.1c-0.4-0.3-0.8-0.6-1.1-1c-1.6-1.7-3.2-3.4-4.8-5.2c-2.3-2.4-3.7-5.3-4-8.8c-0.2-1.9,0.9-3.3,1.6-5.4
		c9.7-13,13.8-7.9,15.2-6.3c0.3,0.3-11,11.7-11,11.7c0.7,0.8,1.4,1.6,2.1,2.4c0.5-0.6,0.8-1,1.2-1.4c7.7-8.3,15.4-16.7,23.2-25
		c3.2-3.4,6.3-6.8,9.4-10.3c1.6-1.8,3.4-2.8,5.8-2.7c1.1,0.1,2,0.6,2.8,1.4c2.3,2.6,1.4,6.5-0.5,8.3c-0.8,0.8-1.7,1.7-2.3,2.5
		c0.6,0.7,1.1,1.2,1.6,1.9c0.5-0.6,1-1.1,1.4-1.6c1-1.2,2.2-2.3,3.8-2.8c3-0.8,5.7,0.9,6.1,4c0.3,2.1-0.3,3.9-1.7,5.4
		c-0.8,1-1.7,1.8-2.6,2.7c0.6,0.7,1,1.2,1.7,1.9c0.6-0.8,1.2-1.4,1.8-2.1c0.8-0.7,1.4-1.5,2.3-2c3-1.7,6.4-0.3,7.2,3
		c0.6,2.3-0.1,4.3-1.6,6.1c-0.8,0.9-1.7,1.7-2.5,2.6c0.6,0.7,1.1,1.3,1.6,1.9c0.9-1,1.7-1.8,2.5-2.6c0.4-0.4,0.9-0.8,1.4-1.2
		c2.1-1.2,4.5-1,6.1,0.4C93.1,36.1,93.7,38.5,92.7,40.8z"/>
	<path class="st1" d="M33.5,96.1c3.2,1.5,7-0.1,8.3-3.6c0.7-1.7,0.7-3.5,0.1-5.2c-0.6-1.7-1.9-3-3.4-3.8l-10.6-4.9
		c-1.6-0.7-3.3-0.8-4.9-0.1c-1.6,0.7-2.8,2-3.5,3.7c-0.7,1.7-0.7,3.5-0.1,5.2s1.9,3,3.4,3.8L33.5,96.1L33.5,96.1"/>
</g>
<path class="st2" d="M42.4,95.5c0.6-0.8,1.2-1.6,1.6-2.6c0.6-1.4,0.8-2.9,0.7-4.4l2,1c-0.7,2.1-1.4,4.1-2.3,6.9L42.4,95.5z"/>
<path class="st2" d="M17,85.3l-2-0.9c0.8-2.3,1.6-4.5,2.3-6.7l1.9,0.9c-0.7,0.8-1.2,1.7-1.7,2.6C17.2,82.5,16.9,83.9,17,85.3z"/>
</svg>
