<?xml version="1.0" encoding="utf-8"?>
<!-- Generator: Adobe Illustrator 19.2.1, SVG Export Plug-In . SVG Version: 6.00 Build 0)  -->
<svg version="1.1" id="Layer_1" xmlns="http://www.w3.org/2000/svg" xmlns:xlink="http://www.w3.org/1999/xlink" x="0px" y="0px"
	 viewBox="0 0 100 100" style="enable-background:new 0 0 100 100;" xml:space="preserve">
<style type="text/css">
	.st0{fill:#FAAA1B;}
	.st1{fill:#231F20;}
	.st2{font-family:'ArialRoundedMTBold';}
	.st3{font-size:23.9866px;}
</style>
<path d="M100,60.6c0,3,0,6,0,9c0,1.7-0.7,2.4-2.4,2.4c-2.5,0-5,0-7.5,0c-1,0-1.5,0.3-1.8,1.3c-2,6.4-6.1,10.9-12.4,13.3
	c-0.9,0.4-1.4,0.8-1.6,1.8c-0.8,3.3-1.6,6.5-2.4,9.7c-0.4,1.4-1,1.9-2.5,1.9c-3.9,0-7.9,0-11.8,0c-1.4,0-1.9-0.4-2.4-1.8
	c-0.7-2.1-1.4-4.2-2.1-6.3c-0.3-1-0.8-1.3-1.8-1.3c-2.3,0.1-4.6,0-6.9,0c-0.9,0-1.3,0.3-1.6,1.2c-0.7,2.1-1.4,4.3-2.1,6.4
	c-0.5,1.4-1,1.8-2.5,1.8c-3.9,0-7.9,0-11.8,0c-1.4,0-2.1-0.5-2.4-1.9c-0.9-3.6-1.7-7.1-2.6-10.7c-0.1-0.4-0.5-0.8-0.9-1
	c-3.4-1.8-6.4-4.1-9-7c-4.7-5.1-7.8-11.1-8.8-18C0.9,49.1,4.7,38.6,13.8,30c1.5-1.4,3.2-2.5,4.9-3.7c1.1-0.7,2.3-0.5,2.9,0.5
	c0.7,1.1,0.5,2.3-0.7,3c-3.7,2.3-6.8,5.3-9.3,8.9c-2.6,3.8-4.3,8.1-4.9,12.6c-0.9,6.7,0.1,13,3.3,19c3.1,5.7,7.4,10,13.2,13
	c1.1,0.5,1.8,1.3,2,2.5c0.7,3,1.5,6,2.2,9c0.2,0.8,0.6,1.2,1.5,1.2c2.3,0,4.6,0,7,0c0.8,0,1.3-0.3,1.5-1.1c0.7-2.1,1.4-4.1,2.1-6.2
	c0.5-1.7,1.1-2.1,2.8-2.1c3.7,0,7.5,0,11.2,0c1.8,0,2.3,0.4,2.8,2c0.7,2.1,1.4,4.2,2.1,6.3c0.2,0.7,0.6,1,1.4,1c2.4,0,4.8,0,7.2,0
	c0.8,0,1.2-0.3,1.4-1.1c0.7-2.9,1.5-5.8,2.2-8.8c0.3-1.5,1.1-2.4,2.6-2.9c6.5-2.1,10.3-6.6,11.5-13.3c0.3-1.5,1-2.2,2.6-2.2
	c2.4,0,4.7,0,7.1,0c1.1,0,1.4-0.3,1.4-1.4c0-3.9,0-7.8,0-11.7c0-1.1-0.3-1.4-1.4-1.4c-1.5,0-3,0-4.5,0c-1.3,0-1.9-0.5-2.2-1.8
	c-0.6-2.5-1-5.1-1.8-7.6c-1.7-5.6-5-9.8-10.4-12.4c-1.4-0.7-1.8-1.6-1.2-3.1c1.3-3.4,2.7-6.7,4-10.1c0.1-0.3,0.3-0.7,0.4-1
	c0.3-0.9-0.1-1.5-1-1.4c-2.5,0.1-4.9,0.6-6.9,2.2c-0.8,0.7-1.4,1.6-2,2.6c-0.7,1.3-1.8,1.9-3,1.3c-1.1-0.5-1.4-1.7-0.9-3
	c1.3-3.2,3.9-5.1,7.1-6.3c3.4-1.2,6.8-1.3,10.3-1c1.7,0.1,2.4,1.4,1.8,3c-1.6,4.1-3.2,8.2-4.9,12.4c-0.4,0.9-0.2,1.5,0.7,2.1
	c5.3,3.3,8.5,8.3,10.3,14.2c0.4,1.5,0.8,3,1.1,4.5c0.2,0.9,0.6,1.2,1.5,1.2c1.5,0,3,0,4.5,0c2.1,0,2.7,0.7,2.7,2.7
	C100,54.8,100,57.7,100,60.6C100,60.6,100,60.6,100,60.6z"/>
<path class="st0" d="M43.3,30.4c6.6,0,12-5.3,12-11.9c0-6.5-5.4-12-11.9-12c-6.5,0-11.9,5.3-12,11.7C31.4,25.1,36.6,30.4,43.3,30.4z
	"/>
<path d="M43.3,34.5c-8.9,0-16-7.2-16-16.3c0-8.8,7.3-16,16.1-15.9c8.9,0.1,16.2,7.3,16.1,16.1C59.4,27.4,52.2,34.6,43.3,34.5z
	 M43.3,30.4c6.6,0,12-5.3,12-11.9c0-6.5-5.4-12-11.9-12c-6.5,0-11.9,5.3-12,11.7C31.4,25.1,36.6,30.3,43.3,30.4z"/>
<text transform="matrix(1 0 0 1 34.5921 26.4371)" class="st1 st2 st3">R</text>
</svg>
