<?xml version="1.0" encoding="utf-8"?>
<!-- Generator: Adobe Illustrator 21.1.0, SVG Export Plug-In . SVG Version: 6.00 Build 0)  -->
<svg version="1.1" id="Layer_1" xmlns="http://www.w3.org/2000/svg" xmlns:xlink="http://www.w3.org/1999/xlink" x="0px" y="0px"
	 viewBox="0 0 578.5 176" style="enable-background:new 0 0 578.5 176;" xml:space="preserve">
<style type="text/css">
	.st0{fill:#FBAA19;}
	.st1{fill:#FFFFFF;}
</style>
<path class="st0" d="M349,46.2c-17.6,3.9-35.1,7.9-52.7,11.9l-16.1,3.6c-0.2,0.1-0.5,0.1-0.8,0.1V37.4l70.8-15.2v6.6
	c0,5.2,0,10.5,0,15.8C350.3,45.6,350.1,46,349,46.2z"/>
<path class="st0" d="M316.2,140.1c-2.3-1.3-4-3.2-4.7-5.6c-0.7-2.3-0.3-4.8,0.9-7.1c0.7-1.3,1.5-2.3,2.2-3
	c4.9-4.5,10.4-6.7,16.3-6.7c1.7,0,3.5,0.2,5.3,0.6c4.5,1,7.2,3.7,7.8,8c0.4,2.6-0.3,5-2.2,7.5c-2.9,3.7-7,6-12.9,7.4
	c-1.2,0.3-2.4,0.4-3.6,0.6c-0.6,0.1-1.1,0.1-1.6,0.2C320.7,141.8,318.3,141.3,316.2,140.1z"/>
<g id="pE7VkW_1_">
	<g>
		<path d="M80.6,119.2c-25.5,17.2-55.5,8.4-70.4-11.8C-5,86.8-3,59,15.2,40.8c18.1-18.2,45.9-20.3,66.6-5.2
			c20.6,15.1,29,45.4,11.9,70.6c0.4,0.3,1,0.6,1.4,1c10.9,10.9,21.8,21.7,32.6,32.6c4.7,4.7,3.5,12.9-2.3,15.4
			c-3.8,1.6-8.2,0.8-11.1-2.2c-10.9-10.9-21.8-21.8-32.7-32.7C81.2,120,80.9,119.6,80.6,119.2z M51.4,122.8
			c25.3,0.2,45.7-19.9,46-45.3c0.2-26-19.6-46.3-45.7-46.5C26.2,30.8,5.8,50.8,5.6,76.4C5.3,102.4,25.3,122.6,51.4,122.8z
			 M84.8,116.2c0.3,0.2,0.8,0.5,1.2,0.8c7,7,14,14,21.1,21.1c3.8,3.8,7.6,7.6,11.5,11.4c1,1,2.2,1.8,3.7,1.2
			c3.2-1.1,4.1-4.3,1.7-6.8c-0.2-0.2-0.4-0.4-0.5-0.6c-10.7-10.7-21.4-21.4-32.1-32.1c-0.3-0.3-0.6-0.6-0.8-0.7
			C88.6,112.3,86.9,114.1,84.8,116.2z"/>
		<path class="st1" d="M21.1,77.1c0.1-1,0.2-2.3,0.4-3.6C23.2,60.7,34,49.2,46.7,46.9c2.5-0.5,5.1-0.5,7.7-0.7
			c1.2-0.1,2.3-0.4,2.6-1.5c0.3-0.8,0.2-1.9-0.1-2.7c-0.5-1.2-1.7-1.3-2.9-1.4C37.3,40.4,22.4,51.1,17.4,67
			c-1.3,4.1-1.9,8.3-1.8,12.6c0,1.7,1.2,2.9,2.8,2.9s2.7-1.1,2.8-2.8C21.1,78.9,21.1,78.1,21.1,77.1z"/>
		<path class="st0" d="M84.8,116.2c2.1-2.1,3.8-3.8,5.6-5.7c0.2,0.2,0.5,0.4,0.8,0.7c10.7,10.7,21.4,21.4,32.1,32.1
			c0.2,0.2,0.4,0.4,0.5,0.6c2.4,2.4,1.5,5.7-1.7,6.8c-1.5,0.5-2.7-0.2-3.7-1.2c-3.8-3.8-7.6-7.6-11.5-11.4c-7-7-14-14-21.1-21.1
			C85.6,116.6,85.1,116.4,84.8,116.2z"/>
		<path d="M21.1,77.1c0,1.1,0,1.8,0,2.6c-0.1,1.7-1.2,2.8-2.8,2.8s-2.7-1.2-2.8-2.9c-0.1-4.3,0.5-8.5,1.8-12.6
			c5-15.9,19.9-26.6,36.6-26.3c1.2,0,2.4,0.2,2.9,1.4c0.3,0.8,0.4,1.9,0.1,2.7c-0.4,1.1-1.5,1.5-2.6,1.5c-2.6,0.2-5.1,0.2-7.7,0.7
			c-12.7,2.3-23.5,13.8-25.2,26.6C21.3,74.8,21.2,76.1,21.1,77.1z"/>
	</g>
</g>
<g id="beHwbb_1_">
	<path d="M347.8,16.6L347.8,16.6h-1.6c-0.8,0.2-1.5,0.4-2.3,0.5c-1.7,0.4-3.3,0.8-5,1.1c-10.2,2.2-20.5,4.4-30.7,6.6
		c-10.8,2.3-21.6,4.6-32.4,7c-3,0.7-3.7,1.5-3.7,4.5v30.2c0,20,0,39.9,0,59.9c0,0.2,0,0.4,0,0.7c-4.9-2.7-9.9-3.7-15.3-3
		c-8.7,1.2-15.2,5.4-19.3,12.5c-2.2,3.8-2.8,7.9-1.6,11.5c1.1,3.6,3.8,6.6,7.7,8.4c3.8,1.8,7.6,2.8,11.4,2.8c5.5,0,10.9-2,16.1-5.9
		c4.5-3.3,7.1-7.4,7.8-12.1c0.2-1.5,0.1-3.1,0-4.6c-0.1-0.8-0.1-1.6-0.1-2.4c0-18.1,0-36.2,0-54.3V67.3l64.8-14.7v62.5
		c-0.1,0-0.2-0.1-0.3-0.1c-3.6-2.2-7.6-3.3-11.9-3.3c-9.9,0-17.5,4.1-22.6,12.1c-2,3-2.8,6.2-2.4,9.5c0.5,4.7,3,8.2,7.4,10.6
		c7.8,4.2,15.9,4.2,24.1-0.1c6.4-3.3,10.4-8.1,11.8-14.1c0.5-2.1,0.5-4.3,0.5-6.4V123c0-14.3,0-28.6,0-42.8c0-19.7,0-39.4,0-59.1
		C350.3,19.5,350,17.7,347.8,16.6z M342.4,46.2c-16.1,3.6-32.1,7.2-48.2,10.9l-14.7,3.3c-0.2,0.1-0.5,0.1-0.7,0.1V38l64.8-13.9v6
		c0,4.7,0,9.6,0,14.5C343.6,45.6,343.5,45.9,342.4,46.2z M317.5,139c-2.2-1.2-3.7-3-4.3-5.2c-0.6-2.1-0.3-4.5,0.9-6.6
		c0.7-1.2,1.4-2.1,2.1-2.8c4.6-4.2,9.7-6.2,15.2-6.2c1.6,0,3.3,0.2,4.9,0.5c4.1,0.9,6.7,3.5,7.3,7.4c0.4,2.4-0.3,4.7-2.1,7
		c-2.7,3.4-6.5,5.6-12,6.9c-1.1,0.3-2.2,0.4-3.3,0.5c-0.5,0.1-1,0.1-1.5,0.2C321.7,140.7,319.5,140.1,317.5,139z M271.8,142.9
		c-0.7,1.5-1.4,2.6-2.3,3.4c-5.8,5.5-12.6,7.5-20.2,6c-4.9-1-7.9-4.8-7.4-9.5c0.2-2.4,1.4-4.5,3.6-6.6c3-2.8,6.8-4.6,11.6-5.5
		c0.9-0.2,1.8-0.2,2.6-0.3c0.4,0,0.8-0.1,1.2-0.1c3.1,0.1,5.5,0.7,7.6,2.1C272.2,134.7,273.5,139,271.8,142.9z"/>
	<path class="st0" d="M517.3,38.8c10.1,0,5.3,0.1,15.4,0.2c0.5,0,1,0,1.5,0c0-5.7,0.1-11.2,0.1-16.8c-17.7-0.1-35.3-0.2-52.9-0.3
		c-0.2,40.4-0.4,80.6-0.6,120.9c5.7,0,26.3,0.1,31.9,0.1c0-0.5,0.1-0.9,0.1-1.2c0.1-10.7,1.1-21.3,1.2-32
		c0.1-22.3-0.8-44.6-0.7-66.9"/>
	<path d="M490.9,114.7c0-9.1,7.4-16.5,16.4-16.6c8.9-0.1,10.4,7.3,10.6,16.6c0.2,9.9-1.6,16.6-10.2,16.6
		C498.4,131.4,490.9,124,490.9,114.7z M507.4,125c5.8,0.2,10.4-4.7,10.4-10.3c0.1-5.5-4.7-10.2-10.1-10.3
		c-5.8-0.1-10.5,4.5-10.5,10.2C497.1,120.3,501.7,124.9,507.4,125z"/>
	<g id="Cay7dE_1_">
		<g>
			<path d="M518.8,166.1c17.7,0.1,35.2,0.2,53,0.3c0-1.5,0-3,0-4.4c0-9.8,0.1-19.6,0.1-29.4c0-1.4,0.5-2.5,1.7-3.1
				c1.1-0.6,2.4-0.6,3.3,0.3c0.6,0.6,1.3,1.7,1.3,2.5c0,12.4-0.1,24.9-0.2,37.3c0,1.8-1.2,3-3,3.1c-0.5,0-1,0-1.4,0
				c-19.1-0.1-38.1-0.2-57.2-0.3c-2.9,0-3.9-1-3.9-4c0-5.8,0.1-11.6,0.1-17.4c0-0.5,0-1,0-1.8c-1.8,0-18.5,0-20.3,0
				c-4.8,0-9.6,0-14.4-0.1c-2.5,0-3.6-1.2-3.6-3.7c0.1-18.8,0.2-37.6,0.3-56.4c0.1-13.3,0.1-26.6,0.2-39.9c0-10,0.1-20,0.2-30
				c0-2.4,1.3-3.6,3.6-3.6c19.5,0.1,39,0.2,58.5,0.3c2.3,0,3.5,1.3,3.5,3.6c0,5.9-0.1,11.9-0.1,17.8c0,0.6,0,1.1,0,1.8
				c2.5,0,19.7,0,22,0c4.2,0,8.3,0,12.5,0.1c2.6,0,3.8,1.2,3.8,3.8c-0.1,19.9-0.2,39.9-0.3,59.8c0,1.4-0.2,2.7-1.6,3.4
				c-2.2,1.2-4.7-0.2-4.7-2.8c0-6,0.1-12,0.1-17.9c0.1-13.2,0.1-26.4,0.2-39.6c0-0.1,0-0.2-0.1-0.4c-17.6-0.1-35.2-0.2-52.9-0.3
				C519.2,85.4,519,125.7,518.8,166.1z M481.2,21.9c-0.2,40.4-0.4,80.6-0.6,120.9c5.7,0,26.3,0.1,31.9,0.1c0-0.5,0.1-0.9,0.1-1.2
				c0.1-10.7,0.1-21.3,0.2-32c0.1-22.3,0.2-44.6,0.3-66.9c0-3,1-4,4-4c10.1,0,20.3,0.1,30.4,0.2c0.5,0-14,0-13.5,0
				c0-5.7,0.1-11.2,0.1-16.8C516.4,22.1,498.8,22,481.2,21.9z"/>
			<path d="M528.7,137.1c0-9.1,7.4-16.5,16.4-16.6c8.9-0.1,16.7,6.9,16.9,16.2c0.2,9.9-7.9,17-16.5,17
				C536.2,153.7,528.7,146.3,528.7,137.1z M545.3,147.4c5.8,0.2,10.4-4.7,10.4-10.3c0.1-5.5-4.7-10.2-10.1-10.3
				c-5.8-0.1-10.5,4.5-10.5,10.2C534.9,142.6,539.5,147.3,545.3,147.4z"/>
			<path d="M558.2,80.4c0,6.4-0.1,12.7-0.1,19.1c0,2.4-1.8,3.8-3.9,3.3c-1.4-0.3-2.4-1.5-2.4-3.1c0-7.1,0.1-14.3,0.1-21.4
				c0-4.1,0-8.1,0.1-12.2c0-2,0-4.1,0.3-6c0.3-1.8,1.7-2.5,3.4-2.2c1.5,0.2,2.5,1.4,2.5,3.1c0,2.2-0.1,4.5-0.1,6.7
				C558.1,72,558.1,76.2,558.2,80.4C558.1,80.4,558.2,80.4,558.2,80.4z"/>
			<path d="M539.3,90c0,5.6,0,11.2-0.1,16.8c0,2.8-2.4,4.3-4.7,3.1c-1.3-0.7-1.7-1.9-1.6-3.3c0-4.9,0.1-9.7,0.1-14.6
				c0-6.2,0.1-12.4,0.1-18.6c0-2.2,1.1-3.5,2.9-3.6c2-0.1,3.4,1.3,3.4,3.5C539.4,78.8,539.4,84.4,539.3,90z"/>
			<path d="M575.1,120.9c-1.9,0-3.2-1.4-3.1-3.2c0.1-1.7,1.5-3,3.1-3c1.8,0,3.2,1.5,3.1,3.3C578.2,119.7,576.9,121,575.1,120.9z"/>
		</g>
	</g>
	<path d="M429.1,94.5h-38.7c-2.5,0-4.5-2-4.5-4.5l0,0c0-2.5,2-4.5,4.5-4.5h38.7c2.5,0,4.5,2,4.5,4.5l0,0
		C433.6,92.5,431.6,94.5,429.1,94.5z"/>
	<path d="M450.3,94.5h-4.9c-2.5,0-4.5-2-4.5-4.5l0,0c0-2.5,2-4.5,4.5-4.5h4.9c2.5,0,4.5,2,4.5,4.5l0,0
		C454.8,92.5,452.8,94.5,450.3,94.5z"/>
	<path class="st0" d="M545.2,147.4c5.8,0.2,10.4-4.7,10.4-10.3c0.1-5.5-4.7-10.2-10.1-10.3c-5.8-0.1-10.5,4.5-10.5,10.2
		C534.9,142.7,539.5,147.3,545.2,147.4z"/>
	<path class="st1" d="M507.4,125c5.8,0.2,10.4-4.7,10.4-10.3c0.1-5.5-4.7-10.2-10.1-10.3c-5.8-0.1-10.5,4.5-10.5,10.2
		C497.1,120.3,501.7,125,507.4,125z"/>
	<path d="M515.9,134.9L515.9,134.9c-1.7,0-3.1-1.4-3.1-3.1v-25.7c0-1.7,1.4-3.1,3.1-3.1l0,0c1.7,0,3.1,1.4,3.1,3.1v25.7
		C519,133.5,517.6,134.9,515.9,134.9z"/>
	<path d="M374.1,94.5h-13c-2.5,0-4.5-2-4.5-4.5l0,0c0-2.5,2-4.5,4.5-4.5h13c2.5,0,4.5,2,4.5,4.5l0,0
		C378.6,92.5,376.6,94.5,374.1,94.5z"/>
	<path d="M238.5,92.5h-38.7c-2.5,0-4.5-2-4.5-4.5l0,0c0-2.5,2-4.5,4.5-4.5h38.7c2.5,0,4.5,2,4.5,4.5l0,0
		C243,90.5,241,92.5,238.5,92.5z"/>
	<path d="M259.7,92.5h-4.9c-2.5,0-4.5-2-4.5-4.5l0,0c0-2.5,2-4.5,4.5-4.5h4.9c2.5,0,4.5,2,4.5,4.5l0,0
		C264.2,90.5,262.2,92.5,259.7,92.5z"/>
	<path d="M130,92.5h-4.9c-2.5,0-4.5-2-4.5-4.5l0,0c0-2.5,2-4.5,4.5-4.5h4.9c2.5,0,4.5,2,4.5,4.5l0,0C134.5,90.5,132.5,92.5,130,92.5
		z"/>
	<path d="M156.9,92.5h-13c-2.5,0-4.5-2-4.5-4.5l0,0c0-2.5,2-4.5,4.5-4.5h13c2.5,0,4.5,2,4.5,4.5l0,0
		C161.4,90.5,159.4,92.5,156.9,92.5z"/>
	<path d="M183.5,92.5h-13c-2.5,0-4.5-2-4.5-4.5l0,0c0-2.5,2-4.5,4.5-4.5h13c2.5,0,4.5,2,4.5,4.5l0,0C188,90.5,186,92.5,183.5,92.5z"
		/>
</g>
<path class="st0" d="M246.5,151.5c-2.2-1.2-3.7-3-4.3-5.2c-0.6-2.1-0.3-4.5,0.9-6.6c0.7-1.2,1.4-2.1,2.1-2.8
	c4.6-4.2,9.7-6.2,15.2-6.2c1.6,0,3.3,0.2,4.9,0.5c4.1,0.9,6.7,3.5,7.3,7.4c0.4,2.4-0.3,4.7-2.1,7c-2.7,3.4-6.5,5.6-12,6.9
	c-1.1,0.3-2.2,0.4-3.3,0.5c-0.5,0.1-1,0.1-1.5,0.2C250.7,153.1,248.5,152.6,246.5,151.5z"/>
</svg>
