<?xml version="1.0" encoding="utf-8"?>
<!-- Generator: Adobe Illustrator 21.1.0, SVG Export Plug-In . SVG Version: 6.00 Build 0)  -->
<svg version="1.1" id="Layer_1" xmlns="http://www.w3.org/2000/svg" xmlns:xlink="http://www.w3.org/1999/xlink" x="0px" y="0px"
	 viewBox="0 0 660.7 83.6" style="enable-background:new 0 0 660.7 83.6;" xml:space="preserve">
<style type="text/css">
	.st0{fill:#2A2A2A;}
	.st1{fill:#F79916;}
</style>
<path d="M229-93.2c-0.7-1.1-1.3-1.8-1.5-2.6c-0.1-0.3,0.7-0.9,1-1.3c0.6,0.7,1.3,1.5,1.7,2.2C230.3-94.7,229.6-94.1,229-93.2z"/>
<circle class="st0" cx="50.1" cy="49.6" r="7.4"/>
<path class="st1" d="M62.7,23.3v6.9c-3.7-2.2-7.9-3.5-12.6-3.5c-5.4,0-10.4,1.8-14.4,4.7c-2-3-5.5-5.2-9.5-5.2v24.1
	C26.2,63.3,36.9,74,50.1,74s23.9-10.7,23.9-23.8V11.9C67.7,11.9,62.7,17.1,62.7,23.3z M50.1,62.8c-6.9,0-12.6-5.5-12.6-12.4
	s5.5-12.4,12.6-12.4s12.6,5.5,12.6,12.4S57,62.8,50.1,62.8z"/>
<path class="st1" d="M25.2,23.7L25.2,23.7L25.2,23.7c3.2,0,5.7-2.5,5.7-5.7s-2.5-5.7-5.7-5.7S19.5,15,19.5,18l0,0l0,0
	C19.5,21.2,22,23.7,25.2,23.7z"/>
<path class="st0" d="M141.5,60.2V31.7c0-0.2-0.2-0.3-0.3-0.5l0,0h-7.4c-0.2,0-0.3,0.2-0.5,0.3l0,0V60c0,0.3,0.2,0.5,0.5,0.5h7.4
	C141.2,60.7,141.5,60.3,141.5,60.2z"/>
<path class="st0" d="M149,48.3h5.2c1.5,0,1.7-0.8,1.7-1.2v-2.5c0-0.3-0.2-1.2-1.7-1.2H149c-1.5,0-1.7,0.8-1.7,1.2v2.5
	C147.4,47.4,147.5,48.3,149,48.3z"/>
<path class="st0" d="M160.3,60.7h7.4c0.3,0,0.5-0.2,0.5-0.5L168,31.7c0-0.2-0.2-0.3-0.3-0.5l0,0h-7.5c-0.2,0-0.3,0.2-0.5,0.3l0,0
	l0.2,28.5C159.8,60.3,159.9,60.7,160.3,60.7z"/>
<path class="st0" d="M197.8,17.5c-1.2-0.7-3.5-0.8-3.7-0.8v15.9c-2-1-4.2-1.5-6.4-1.5c-3.7,0-7,1.2-9.9,3.7l0,0
	c-3.2,3.2-4.9,6.7-4.9,10.5v1c0,3.5,1.5,7,4.4,10l0,0c3,2.7,6.5,4.2,9.9,4.2h1.2c1.8,0,3.7-0.5,5.7-1.5v1c0,0.3,0.2,0.5,0.5,0.5h7.4
	c0.3,0,0.5-0.2,0.5-0.5l0.2-35C202.6,21.8,200.6,18.8,197.8,17.5z M193.9,46.1c0,0.7-0.2,1.3-0.3,2.2c-1.3,2.7-3.3,4-5.9,4
	c-0.8,0-1.7-0.2-2.7-0.7c-2.5-1.5-3.7-3.2-3.7-5.5v-0.3l0,0l0,0v-0.3c0-0.3,0-0.8,0.2-1.5c1.2-3,3.2-4.5,6.2-4.5c1,0,2,0.2,2.8,0.7
	c2.2,1.3,3.3,3.2,3.3,5.4V46.1L193.9,46.1z"/>
<path class="st0" d="M128.6,60.8c0.3,0,0.5-0.2,0.5-0.5V45.3c0-0.8-0.2-1.8-0.5-3c-0.5-2-1.7-4.2-3.5-6.2l0,0
	c-3-3.2-6.5-4.9-10.2-4.9h-1c-3.5,0-7,1.5-10,4.4c-3-2.8-6.4-4.4-10-4.4h-1c-3,0-6.2,1.2-9,3.5l0,0c-3.2,3-5,6.4-5.2,10v15.4l0,0
	c0,0.3,0.2,0.5,0.5,0.5h0.2h7.2c0.3,0,0.5-0.2,0.5-0.5V47.1c0-2,0.2-3.5,0.8-4.4c1.5-2.3,3.2-3.3,5.4-3.3c0,0,1.8,0,3.2,0.7
	c2.3,1.5,3.5,3.2,3.5,5.5V60c0,0.3,0.2,0.5,0.5,0.5h7.4c0.3,0,0.5-0.2,0.5-0.5V46.3c0-1.2,0.2-2.3,0.7-3.3c1.5-2.2,3.2-3.3,5.2-3.3
	c0,0,1.3,0,2.3,0.2c3,1.2,4.5,3.2,4.5,6.2v14.2c0,0.2,0.2,0.5,0.5,0.5L128.6,60.8L128.6,60.8z"/>
<circle class="st0" cx="137.8" cy="21.2" r="4.4"/>
<circle class="st0" cx="163.8" cy="21.2" r="4.4"/>
<g>
	<path d="M215.8,58.8V36.1h8.5c1.5,0,2.7,0,3.5,0.2c1.2,0.2,2,0.5,2.8,1c0.8,0.5,1.3,1.3,1.8,2.2c0.5,1,0.7,2,0.7,3.2
		c0,2-0.7,3.5-1.8,4.9c-1.2,1.3-3.5,2-6.7,2h-5.9v9.2h-3V58.8z M218.8,46.8h5.9c2,0,3.3-0.3,4.2-1c0.8-0.7,1.2-1.7,1.2-3
		c0-1-0.2-1.8-0.7-2.5c-0.5-0.7-1.2-1.2-1.8-1.3c-0.5-0.2-1.5-0.2-2.8-0.2h-5.9V46.8z"/>
	<path d="M236.8,58.8V42.2h2.5v2.5c0.7-1.2,1.2-2,1.8-2.3c0.7-0.3,1.2-0.5,1.8-0.5c1,0,1.8,0.3,2.8,0.8l-1,2.5
		c-0.7-0.3-1.3-0.7-2-0.7s-1.2,0.2-1.7,0.5c-0.5,0.3-0.8,0.8-1,1.5c-0.3,1-0.5,2-0.5,3.2v8.7h-2.8V58.8z"/>
	<path d="M258.7,53.5l2.8,0.3c-0.5,1.7-1.3,3-2.5,3.8c-1.2,1-2.8,1.3-4.7,1.3c-2.3,0-4.4-0.7-5.7-2.2c-1.3-1.5-2.2-3.5-2.2-6.2
		c0-2.8,0.7-4.9,2.2-6.5c1.5-1.5,3.3-2.3,5.5-2.3s4,0.7,5.4,2.2c1.3,1.5,2.2,3.7,2.2,6.4c0,0.2,0,0.3,0,0.7h-12.2
		c0.2,1.8,0.7,3.2,1.5,4.2c1,1,2,1.5,3.5,1.5c1,0,1.8-0.3,2.7-0.8C257.7,55.5,258.2,54.6,258.7,53.5z M249.5,48.9h9.2
		c-0.2-1.3-0.5-2.5-1-3.2c-0.8-1-2-1.7-3.5-1.7c-1.3,0-2.3,0.5-3.2,1.3C250,46.3,249.5,47.4,249.5,48.9z"/>
	<path d="M263.9,52v-2.8h8.5V52H263.9z"/>
	<path d="M275.9,58.8V36.1h8.5c1.5,0,2.7,0,3.5,0.2c1.2,0.2,2,0.5,2.8,1c0.8,0.5,1.3,1.3,1.8,2.2c0.5,1,0.7,2,0.7,3.2
		c0,2-0.7,3.5-1.8,4.9s-3.5,2-6.7,2h-5.9v9.2h-3V58.8z M278.9,46.8h5.9c2,0,3.3-0.3,4.2-1c0.8-0.7,1.2-1.7,1.2-3
		c0-1-0.2-1.8-0.7-2.5c-0.5-0.7-1.2-1.2-1.8-1.3c-0.5-0.2-1.5-0.2-2.8-0.2h-5.9V46.8z"/>
	<path d="M307.6,56.6c-1,0.8-2,1.5-3,1.8c-1,0.3-2,0.5-3,0.5c-1.8,0-3.2-0.5-4.2-1.3c-1-0.8-1.5-2-1.5-3.3c0-0.8,0.2-1.5,0.5-2.2
		c0.3-0.7,0.8-1.2,1.5-1.7c0.7-0.3,1.3-0.7,2-0.8c0.5-0.2,1.3-0.3,2.5-0.5c2.2-0.3,3.8-0.7,5-1c0-0.3,0-0.7,0-0.7
		c0-1.2-0.3-2-0.8-2.3c-0.7-0.7-1.8-1-3.2-1c-1.3,0-2.3,0.2-2.8,0.7c-0.7,0.5-1.2,1.3-1.3,2.5l-2.7-0.3c0.2-1.2,0.7-2.2,1.2-2.8
		c0.5-0.7,1.3-1.3,2.5-1.7c1-0.3,2.3-0.5,3.7-0.5c1.3,0,2.5,0.2,3.5,0.5c0.8,0.3,1.5,0.7,2,1.2c0.3,0.5,0.7,1.2,0.8,1.8
		c0.2,0.5,0.2,1.3,0.2,2.5v3.7c0,2.7,0,4.2,0.2,4.9s0.3,1.3,0.7,2h-2.8C307.9,58.1,307.7,57.5,307.6,56.6z M307.4,50.4
		c-1,0.3-2.5,0.8-4.5,1c-1.2,0.2-2,0.3-2.5,0.5c-0.5,0.2-0.8,0.5-1.2,0.8c-0.3,0.3-0.3,0.8-0.3,1.3c0,0.7,0.3,1.3,0.8,1.8
		s1.3,0.7,2.5,0.7c1,0,2-0.2,2.8-0.7c0.8-0.5,1.5-1.2,1.8-2c0.3-0.7,0.5-1.5,0.5-2.8L307.4,50.4L307.4,50.4z"/>
	<path d="M314.6,39.2v-3.2h2.8v3.2H314.6z M314.6,58.8V42.2h2.8v16.6H314.6z"/>
	<path d="M332.3,58.8v-2c-1,1.7-2.5,2.5-4.7,2.5c-1.3,0-2.5-0.3-3.7-1c-1.2-0.7-2-1.7-2.5-3c-0.5-1.3-0.8-2.8-0.8-4.5
		s0.3-3.2,0.8-4.5s1.3-2.3,2.5-3c1.2-0.7,2.3-1,3.7-1c1,0,1.8,0.2,2.7,0.7c0.8,0.3,1.3,1,1.8,1.7v-8.2h2.8v22.8h-2.7V58.8z
		 M323.5,50.4c0,2.2,0.5,3.7,1.3,4.7c0.8,1,2,1.5,3.2,1.5c1.2,0,2.2-0.5,3.2-1.5c0.8-1,1.3-2.5,1.3-4.5c0-2.2-0.5-3.8-1.3-5
		c-0.8-1.2-2-1.5-3.2-1.5c-1.2,0-2.3,0.5-3.2,1.5C323.8,46.8,323.5,48.3,323.5,50.4z"/>
	<path d="M364.6,50.8l3,0.8c-0.7,2.5-1.8,4.4-3.3,5.7c-1.7,1.3-3.7,2-6,2c-2.5,0-4.5-0.5-6-1.5c-1.5-1-2.7-2.5-3.5-4.4
		c-0.8-1.8-1.2-3.8-1.2-6c0-2.3,0.5-4.5,1.3-6.2c0.8-1.8,2.2-3.2,3.8-4c1.7-0.8,3.5-1.3,5.5-1.3c2.3,0,4.2,0.5,5.7,1.7
		s2.7,2.8,3.2,4.9l-2.8,0.5c-0.5-1.7-1.3-2.8-2.3-3.7c-1-0.8-2.3-1.2-3.8-1.2c-1.7,0-3.2,0.3-4.4,1.3c-1.2,0.8-2,2-2.5,3.3
		c-0.5,1.3-0.7,2.8-0.7,4.4c0,2,0.3,3.7,0.8,5c0.5,1.5,1.5,2.5,2.7,3.2c1.2,0.7,2.5,1,3.8,1c1.7,0,3.2-0.5,4.4-1.5
		C363.5,54.1,364.3,52.6,364.6,50.8z"/>
	<path d="M371,58.8V42.2h2.5v2.5c0.7-1.2,1.2-2,1.8-2.3s1.2-0.5,1.8-0.5c1,0,1.8,0.3,2.8,0.8l-1,2.5c-0.7-0.3-1.3-0.7-2-0.7
		c-0.7,0-1.2,0.2-1.7,0.5c-0.5,0.3-0.8,0.8-1,1.5c-0.3,1-0.5,2-0.5,3.2v8.7H371V58.8z"/>
	<path d="M392.9,53.5l2.8,0.3c-0.5,1.7-1.3,3-2.5,3.8c-1.2,1-2.8,1.3-4.7,1.3c-2.3,0-4.4-0.7-5.7-2.2c-1.3-1.5-2.2-3.5-2.2-6.2
		c0-2.8,0.7-4.9,2.2-6.5c1.5-1.5,3.3-2.3,5.5-2.3c2.2,0,4,0.7,5.4,2.2c1.3,1.5,2.2,3.7,2.2,6.4c0,0.2,0,0.3,0,0.7h-12.2
		c0.2,1.8,0.7,3.2,1.5,4.2c1,1,2,1.5,3.5,1.5c1,0,1.8-0.3,2.7-0.8C391.9,55.5,392.6,54.6,392.9,53.5z M383.7,48.9h9.2
		c-0.2-1.3-0.5-2.5-1-3.2c-0.8-1-2-1.7-3.5-1.7c-1.3,0-2.3,0.5-3.2,1.3C384.4,46.3,383.9,47.4,383.7,48.9z"/>
	<path d="M410,58.8v-2c-1,1.7-2.5,2.5-4.7,2.5c-1.3,0-2.5-0.3-3.7-1c-1.2-0.7-2-1.7-2.5-3c-0.5-1.3-0.8-2.8-0.8-4.5s0.3-3.2,0.8-4.5
		c0.5-1.3,1.3-2.3,2.5-3c1.2-0.7,2.3-1,3.7-1c1,0,1.8,0.2,2.7,0.7c0.8,0.3,1.3,1,1.8,1.7v-8.2h2.8v22.8H410V58.8z M401.3,50.4
		c0,2.2,0.5,3.7,1.3,4.7c0.8,1,2,1.5,3.2,1.5c1.2,0,2.2-0.5,3.2-1.5c0.8-1,1.3-2.5,1.3-4.5c0-2.2-0.5-3.8-1.3-5
		c-0.8-1.2-2-1.5-3.2-1.5c-1.2,0-2.3,0.5-3.2,1.5C401.6,46.8,401.3,48.3,401.3,50.4z"/>
	<path d="M417,39.2v-3.2h2.8v3.2H417z M417,58.8V42.2h2.8v16.6H417z"/>
	<path d="M430.2,56.3l0.3,2.5c-0.8,0.2-1.5,0.2-2.2,0.2c-1,0-1.8-0.2-2.3-0.5s-1-0.7-1.2-1.3c-0.2-0.5-0.3-1.7-0.3-3.3v-9.5h-2v-2.2
		h2v-4l2.8-1.7v5.7h2.8v2.2h-2.8V54c0,0.8,0,1.3,0.2,1.5c0.2,0.2,0.3,0.3,0.5,0.5c0.2,0.2,0.5,0.2,1,0.2
		C429.2,56.3,429.7,56.3,430.2,56.3z"/>
</g>
</svg>
