<?xml version="1.0" encoding="utf-8"?>
<!-- Generator: Adobe Illustrator 21.1.0, SVG Export Plug-In . SVG Version: 6.00 Build 0)  -->
<svg version="1.1" id="Layer_1" xmlns="http://www.w3.org/2000/svg" xmlns:xlink="http://www.w3.org/1999/xlink" x="0px" y="0px"
	 viewBox="0 0 660.7 83.6" style="enable-background:new 0 0 660.7 83.6;" xml:space="preserve">
<style type="text/css">
	.st0{fill:url(#SVGID_1_);}
	.st1{fill:url(#SVGID_2_);}
	.st2{fill:#030303;}
	.st3{fill:url(#SVGID_3_);}
	.st4{fill:#08428C;}
	.st5{fill:#F69516;}
	.st6{fill:#F5A419;}
	.st7{fill:#D80019;}
	.st8{fill:#FFFFFF;}
	.st9{fill:none;stroke:#FFFFFF;stroke-width:0.215;}
	.st10{fill:#0A367C;}
	.st11{fill:#161615;}
</style>
<path d="M229-93.2c-0.7-1.1-1.3-1.8-1.5-2.6c-0.1-0.3,0.7-0.9,1-1.3c0.6,0.7,1.3,1.5,1.7,2.2C230.3-94.7,229.6-94.1,229-93.2z"/>
<g>
	
		<linearGradient id="SVGID_1_" gradientUnits="userSpaceOnUse" x1="208.6316" y1="-34.5091" x2="203.3806" y2="-84.6866" gradientTransform="matrix(1 0 0 -1 0 23)">
		<stop  offset="1.650000e-02" style="stop-color:#E3001E"/>
		<stop  offset="1" style="stop-color:#AD0C23"/>
	</linearGradient>
	<path class="st0" d="M223.3,35.1c-1.1,0.8-2.6,1.3-4.1,2c-1.3,0.5-2.9,1-4.7,1.1c-0.7,0.2-1.5,0.2-2.1,0.3l0,0l0,0
		c-6.7,0.7-12.4-0.8-15.6-3.9c0,0,0,0-0.2,0c0,0.2,0,0.2,0,0.3c0,1.5,0.5,2.6,1.5,3.7c2.6,3.1,7.7,4.7,13.7,4.7
		c3.9,0,7.5-0.7,10.3-2c1.3-0.7,2.6-1.5,3.4-2.4c0.8-1,1.5-2.3,1.5-3.7c0-0.8-0.2-1.6-0.7-2.4C225.5,33.5,224.7,34.3,223.3,35.1z
		 M211.7,30.9c-6.2,0.5-11.6-0.7-15-3.4c0,1.3,0.7,2.4,1.5,3.4c2.6,3.1,7.7,4.7,13.7,4.7c3.9,0,7.5-0.7,10.3-2.1
		c1.3-0.7,2.6-1.5,3.4-2.4s1.5-2.3,1.5-3.7c0-1.1-0.3-2.1-1-2.9C225.2,25.7,221.6,30.1,211.7,30.9z M211.9,28.1
		c3.9,0,7.5-0.7,10.3-2.1c1.3-0.7,2.6-1.5,3.4-2.4s1.5-2.3,1.5-3.7c0-1.5-0.5-2.6-1.5-3.7c-2.6-3.1-7.7-4.7-13.7-4.7
		c-3.9,0-7.5,0.7-10.3,2c-1.3,0.7-2.6,1.5-3.4,2.4s-1.5,2.3-1.5,3.7c0,1.5,0.5,2.6,1.5,3.7C201.1,26.3,206,28,211.9,28.1z
		 M200.5,16.6c1.5-1.8,5.9-3.4,11.1-3.4c3.4,0,6.7,0.8,8.8,1.8c1.1,0.5,1.8,1.1,2.3,1.8c0.5,0.7,0.7,1,0.7,1.5s-0.2,1-0.7,1.5
		c-1.5,1.8-5.9,3.4-11.1,3.4c-3.4,0-6.7-0.8-8.8-1.8c-1-0.5-1.8-1.1-2.3-1.6c-0.5-0.7-0.7-1-0.7-1.5S200,17.2,200.5,16.6z"/>
	<g>
		<g>
			
				<linearGradient id="SVGID_2_" gradientUnits="userSpaceOnUse" x1="67.9393" y1="-9.46" x2="67.9393" y2="-33.8528" gradientTransform="matrix(1 0 0 -1 0 23)">
				<stop  offset="1.650000e-02" style="stop-color:#E3001E"/>
				<stop  offset="1" style="stop-color:#AD0C23"/>
			</linearGradient>
			<path class="st1" d="M65.3,32c-1.5-1.6-3.4-2.4-5.9-2.4H47.7L46.9,34h11.7c1.3,0,2.3,0.5,2.9,1.3c0.7,0.8,1,2,0.7,3.1L62,39.2
				v0.5H51.3c-2.6,0-4.9,0.8-7,2.4c-2.1,1.6-3.4,3.7-3.9,6.4L40.2,49c-0.5,2.6-0.2,4.7,1.3,6.4c1.3,1.6,3.4,2.4,5.9,2.4h15.3
				l4.1-19.7C67.1,35.6,66.6,33.7,65.3,32z M58.9,53.5H48.2c-1.3,0-2.3-0.5-2.9-1.3c-0.7-0.8-1-2-0.7-3.1l0.2-0.5
				c0.2-1.3,0.8-2.3,2-3.1c1.1-0.8,2.3-1.3,3.4-1.3h10.7L58.9,53.5z M91.5,29.6l-4.9,23.8H75.4c-1.3,0-2.3-0.5-2.9-1.3
				c-0.7-0.8-1-2-0.7-3.1l4.1-19.4h-4.6L67.2,49c-0.5,2.6-0.2,4.7,1.3,6.4c1.5,1.6,3.4,2.4,5.9,2.4h11.2l-0.3,1.6
				c-0.3,1.1-1,2.3-2,3.1c-1.1,0.8-2.3,1.3-3.4,1.3H64.6l-1,4.4H79c2.4,0,4.7-0.8,6.8-2.6c2.1-1.6,3.4-3.7,3.9-6.4l6.2-29.8
				L91.5,29.6L91.5,29.6z"/>
		</g>
	</g>
	<path class="st2" d="M138.6,57.9h-15.3c-2.6,0-4.6-0.8-5.9-2.4c-1.3-1.6-1.8-3.7-1.3-6.4l0.2-0.5c0.5-2.6,1.8-4.7,3.9-6.4
		c2.1-1.6,4.4-2.4,7-2.4h10.7v-0.5l0.2-0.8c0.2-1.3,0-2.3-0.7-3.1c-0.7-0.8-1.6-1.3-2.9-1.3H122l0.8-4.4h12.5c2.6,0,4.6,0.8,5.9,2.4
		c1.5,1.6,1.8,3.7,1.3,6.2L138.6,57.9z M135.1,53.5l1.8-9.3h-10.7c-1.3,0-2.4,0.5-3.4,1.3c-1.1,0.8-1.8,2-2,3.1V49
		c-0.3,1.3,0,2.3,0.7,3.1c0.7,0.8,1.6,1.3,2.9,1.3L135.1,53.5L135.1,53.5z"/>
	<path class="st2" d="M167.9,50.3c-0.5,2.4-1.8,4.4-3.9,5.7c-2,1.3-4.1,2-6.7,2h-15.1l1-4.4h15.1c2.9,0,4.7-1.1,5-3.3l0.2-1
		c0.5-2.1-0.8-3.3-3.7-3.3h-6.8c-2.4,0-4.4-0.7-5.9-2c-1.6-1.5-2.1-3.3-1.6-5.7l0.2-1c0.5-2.4,1.8-4.4,3.9-5.7c2-1.3,4.1-2,6.7-2
		h15.1l-0.8,4.4h-15.1c-2.9,0-4.7,1.1-5.2,3.3l-0.2,1c-0.5,2.1,0.8,3.3,3.9,3.3h6.8c2.4,0,4.4,0.7,5.9,2c1.5,1.5,2,3.3,1.5,5.7
		L167.9,50.3z"/>
	<path class="st2" d="M188.4,57.8h-7.2c-2.6,0-4.6-0.8-5.9-2.4c-1.5-1.6-1.8-3.7-1.3-6.4l3.1-15.1h-2.8l1-4.6h2.8l2.1-10.1h4.6
		l-2.1,10.1h9.4l-1,4.6h-9.4L178.6,49c-0.3,1.3,0,2.3,0.7,3.1c0.7,0.8,1.6,1.3,2.9,1.3h7.2L188.4,57.8z"/>
	
		<linearGradient id="SVGID_3_" gradientUnits="userSpaceOnUse" x1="28.641" y1="-5.1134" x2="28.641" y2="-37.1115" gradientTransform="matrix(1 0 0 -1 0 23)">
		<stop  offset="1.650000e-02" style="stop-color:#E3001E"/>
		<stop  offset="1" style="stop-color:#AD0C23"/>
	</linearGradient>
	<path class="st3" d="M45.1,32.2c-0.5,2.4-1.8,4.6-3.9,6.2c-2.1,1.6-4.4,2.4-6.8,2.4H19l-3.4,16.9h-4.4l8-38.3h19.7
		c2.4,0,4.4,0.8,5.7,2.4c1.3,1.6,1.8,3.7,1.3,6.2L45.1,32.2z M40.5,32.2l0.8-3.9c0.3-1.3,0-2.3-0.7-3.1c-0.7-0.8-1.6-1.3-2.9-1.3
		H22.4l-2.6,12.5h15.3c1.3,0,2.3-0.5,3.4-1.3C39.5,34.5,40.2,33.3,40.5,32.2z"/>
	<path class="st2" d="M130.8,23.6h-18.6c-1.3,0-2.4,0.5-3.4,1.3c-1.1,0.8-1.8,2-2,3.1l-1.8,8.5h11.6l-1,4.6H104l-3.6,16.9h-4.6
		l6.2-30c0.5-2.6,1.8-4.7,3.9-6.4c2.1-1.6,4.4-2.4,7-2.4h18.7L130.8,23.6z"/>
</g>
<g>
	<polygon class="st4" points="289,55.1 294.2,23.4 302.4,23.4 297.3,55.1 	"/>
	<path class="st4" d="M327.2,24c-1.6-0.7-4.2-1.3-7.4-1.3c-8.2,0-13.9,4.3-13.9,10.6c-0.1,4.6,4.2,7.1,7.2,8.6
		c3.2,1.6,4.3,2.5,4.3,4c0,2.1-2.5,3.1-5,3.1c-3.4,0-5.1-0.5-7.8-1.7l-1.1-0.5l-1.2,7.1c1.9,0.9,5.5,1.6,9.3,1.7
		c8.7,0,14.3-4.3,14.3-10.9c0-3.6-2.1-6.4-7-8.7c-2.9-1.5-4.7-2.4-4.7-3.9c0-1.3,1.5-2.7,4.7-2.7c2.7-0.1,4.7,0.5,6.2,1.2L326,31
		L327.2,24L327.2,24z"/>
	<path class="st4" d="M338.2,43.9c0.7-1.9,3.4-8.8,3.4-8.8c0,0.1,0.7-1.9,1.1-3.1l0.5,2.7c0,0,1.6,7.6,1.9,9.3
		C343.7,43.9,339.8,43.9,338.2,43.9L338.2,43.9z M348.4,23.4H342c-2,0-3.5,0.5-4.3,2.7l-12.2,29.2h8.7c0,0,1.5-3.9,1.7-4.8
		c0.9,0,9.4,0,10.6,0c0.3,1.1,0.9,4.8,0.9,4.8h7.6L348.4,23.4L348.4,23.4z"/>
	<path class="st4" d="M282.2,23.4l-8,21.7l-0.9-4.4c-1.5-5.1-6.2-10.6-11.4-13.4l7.4,27.9h8.7l13-31.8L282.2,23.4L282.2,23.4z"/>
	<path class="st5" d="M266.6,23.4h-13.3l-0.1,0.7c10.3,2.7,17.2,9,20,16.6L270.2,26C269.8,23.9,268.4,23.4,266.6,23.4L266.6,23.4z"
		/>
</g>
<g>
	<polygon class="st6" points="432.2,61.8 433.3,61.7 434.5,61.7 435.5,61.6 436.6,61.3 437.7,61.2 438.6,60.8 439.7,60.5 
		440.6,60.1 441.7,59.7 442.6,59.2 443.5,58.6 444.4,58.1 445.2,57.4 446.1,56.9 446.8,56.1 447.6,55.4 448.4,54.6 449.1,53.9 
		449.6,53 450.3,52.2 450.8,51.2 451.4,50.4 451.9,49.5 452.3,48.4 452.7,47.5 453,46.5 453.4,45.5 453.5,44.4 453.8,43.3 
		453.9,42.3 454,41.2 454,40 454,38.9 453.9,37.8 453.8,36.8 453.5,35.7 453.4,34.6 453,33.5 452.7,32.6 452.3,31.5 451.9,30.6 
		451.4,29.7 450.8,28.7 450.3,27.9 449.6,27.1 449.1,26.2 448.4,25.5 447.6,24.7 446.8,24 446.1,23.2 445.2,22.7 444.4,22 
		443.5,21.5 442.6,20.9 441.7,20.4 440.6,20 439.7,19.6 438.6,19.3 437.7,19.1 436.6,18.8 435.5,18.5 434.5,18.4 433.3,18.4 
		432.2,18.3 431.1,18.4 429.9,18.4 428.8,18.5 427.8,18.8 426.8,19.1 425.8,19.3 424.7,19.6 423.7,20 422.8,20.4 421.9,20.9 
		420.9,21.5 420,22 419.2,22.7 418.4,23.2 417.6,24 416.8,24.7 416.1,25.5 415.4,26.2 414.8,27.1 414.2,27.9 413.6,28.7 413.2,29.7 
		412.6,30.6 412.2,31.5 411.8,32.6 411.4,33.5 411.1,34.6 410.9,35.7 410.7,36.8 410.6,37.8 410.5,38.9 410.5,40 410.5,41.2 
		410.6,42.3 410.7,43.3 410.9,44.4 411.1,45.5 411.4,46.5 411.8,47.5 412.2,48.4 412.6,49.5 413.2,50.4 413.6,51.2 414.2,52.2 
		414.8,53 415.4,53.9 416.1,54.6 416.8,55.4 417.6,56.1 418.4,56.9 419.2,57.4 420,58.1 420.9,58.6 421.9,59.2 422.8,59.7 
		423.7,60.1 424.7,60.5 425.8,60.8 426.8,61.2 427.8,61.3 428.8,61.6 429.9,61.7 431.1,61.7 	"/>
	<polygon class="st7" points="403.1,61.8 404.2,61.7 405.2,61.7 406.4,61.6 407.5,61.3 408.5,61.2 409.5,60.8 410.6,60.5 
		411.5,60.1 412.5,59.7 413.4,59.2 414.4,58.6 415.3,58.1 416.1,57.4 416.9,56.9 417.7,56.1 418.4,55.4 419.2,54.6 419.9,53.9 
		420.5,53 421.1,52.2 421.6,51.2 422.1,50.4 422.7,49.5 423.1,48.4 423.5,47.5 423.9,46.5 424.1,45.5 424.4,44.4 424.5,43.3 
		424.7,42.3 424.8,41.2 424.8,40 424.8,38.9 424.7,37.8 424.5,36.8 424.4,35.7 424.1,34.6 423.9,33.5 423.5,32.6 423.1,31.5 
		422.7,30.6 422.1,29.7 421.6,28.7 421.1,27.9 420.5,27.1 419.9,26.2 419.2,25.5 418.4,24.7 417.7,24 416.9,23.2 416.1,22.7 
		415.3,22 414.4,21.5 413.4,20.9 412.5,20.4 411.5,20 410.6,19.6 409.5,19.3 408.5,19.1 407.5,18.8 406.4,18.5 405.2,18.4 
		404.2,18.4 403.1,18.3 401.9,18.4 400.8,18.4 399.7,18.5 398.7,18.8 397.6,19.1 396.5,19.3 395.6,19.6 394.7,20 393.6,20.4 
		392.6,20.9 391.7,21.5 390.9,22 390.1,22.7 389.2,23.2 388.4,24 387.7,24.7 386.9,25.5 386.2,26.2 385.5,27.1 385,27.9 384.5,28.7 
		383.9,29.7 383.4,30.6 383,31.5 382.6,32.6 382.2,33.5 381.9,34.6 381.6,35.7 381.5,36.8 381.4,37.8 381.2,38.9 381.2,40 
		381.2,41.2 381.4,42.3 381.5,43.3 381.6,44.4 381.9,45.5 382.2,46.5 382.6,47.5 383,48.4 383.4,49.5 383.9,50.4 384.5,51.2 
		385,52.2 385.5,53 386.2,53.9 386.9,54.6 387.7,55.4 388.4,56.1 389.2,56.9 390.1,57.4 390.9,58.1 391.7,58.6 392.6,59.2 
		393.6,59.7 394.7,60.1 395.6,60.5 396.5,60.8 397.6,61.2 398.7,61.3 399.7,61.6 400.8,61.7 401.9,61.7 	"/>
	<polygon class="st6" points="415,26.7 426.7,26.7 426.7,25.5 416.1,25.5 	"/>
	<polygon class="st6" points="413.4,29.3 426.7,29.3 426.7,28 414.1,28 	"/>
	<polygon class="st6" points="412.1,31.9 426.7,31.9 426.7,30.7 412.6,30.7 	"/>
	<polygon class="st6" points="411.1,34.5 426.7,34.5 426.7,33.3 411.5,33.3 	"/>
	<polygon class="st6" points="411.7,47.2 426.7,47.2 426.7,46 411.3,46 	"/>
	<polygon class="st6" points="412.7,49.8 426.7,49.8 426.7,48.7 412.2,48.7 	"/>
	<polygon class="st6" points="414.4,52.4 426.7,52.4 426.7,51.2 413.6,51.2 	"/>
	<polygon class="st6" points="416.5,55.1 426.7,55.1 426.7,53.9 415.4,53.9 	"/>
	<polygon class="st6" points="410.6,37.2 426.7,37.2 426.7,36 410.9,36 	"/>
	<polygon class="st6" points="420.4,44.5 426.6,44.5 426.6,43.5 420.7,43.5 	"/>
	<polygon class="st6" points="420.9,42 426.6,42 426.6,40.8 421.1,40.8 	"/>
	<polygon class="st6" points="410.2,40.8 411.8,40.8 411.8,42 410.3,42 	"/>
	<polygon class="st8" points="407.3,39.3 407.3,39.3 407.1,39.3 407,39.3 406.9,39.3 406.9,39.3 406.7,39.3 406.6,39.3 406.4,39.3 
		406.4,39.2 406.3,39.2 406.2,39.2 406,39.2 405.9,39.2 405.6,39.2 405.5,39.2 405.2,39.3 405.1,39.3 405,39.3 404.8,39.3 
		404.8,39.3 404.7,39.4 404.6,39.4 404.4,39.6 404.4,39.6 404.4,39.7 404.3,39.8 404.3,39.8 404.3,40 404.3,40.1 404.4,40.1 
		404.4,40.2 404.6,40.4 404.7,40.5 404.8,40.7 405.1,40.7 405.2,40.8 405.5,40.8 405.8,40.9 406,41.1 406.2,41.1 406.4,41.2 
		406.7,41.3 406.9,41.6 407,41.9 407.1,42.1 407.1,42.4 407.3,42.8 407.1,43.2 407.1,43.6 407,43.9 407,44.1 406.7,44.4 406.6,44.7 
		406.4,44.8 406.2,44.9 406,45.1 405.8,45.2 405.5,45.3 405.2,45.3 405,45.5 404.7,45.5 404.6,45.5 404.3,45.5 404,45.6 403.8,45.6 
		403.4,45.5 403.2,45.5 403,45.5 402.7,45.5 402.6,45.5 402.3,45.5 402.2,45.5 402,45.5 401.9,45.5 401.8,45.3 401.6,45.3 
		401.5,45.3 401.4,45.3 401.2,45.2 401.1,45.2 401.5,43.6 401.5,43.6 401.6,43.6 401.8,43.6 401.9,43.7 402,43.7 402.2,43.7 
		402.3,43.7 402.4,43.9 402.7,43.9 402.8,43.9 403,43.9 403.2,43.9 403.5,43.9 403.6,43.9 403.9,43.9 404,43.9 404.3,43.9 
		404.4,43.9 404.6,43.7 404.7,43.6 404.7,43.5 404.8,43.5 404.8,43.3 404.8,43.2 404.8,42.9 404.8,42.8 404.7,42.7 404.6,42.5 
		404.3,42.4 404,42.3 403.8,42.3 403.5,42.1 403.2,42 403,41.9 402.7,41.6 402.4,41.3 402.3,41.1 402.2,40.8 402,40.4 402,39.8 
		402,39.6 402.2,39.3 402.2,39 402.3,38.9 402.4,38.6 402.6,38.5 402.7,38.2 402.8,38.1 403.1,38 403.4,37.8 403.6,37.7 403.9,37.7 
		404.2,37.6 404.6,37.6 405,37.6 405.4,37.6 405.6,37.6 405.9,37.6 406.2,37.6 406.3,37.6 406.6,37.6 406.7,37.6 406.9,37.6 
		407,37.6 407.1,37.6 407.3,37.6 407.3,37.7 407.4,37.7 407.5,37.7 407.5,37.7 407.7,37.7 407.7,37.7 	"/>
	<g>
		<g>
			<polyline class="st9" points="407.3,39.3 407.3,39.3 407.3,39.3 407.1,39.3 407,39.3 406.9,39.3 406.9,39.3 406.7,39.3 
				406.6,39.3 406.4,39.3 406.4,39.2 406.3,39.2 406.2,39.2 406,39.2 405.9,39.2 405.6,39.2 405.5,39.2 405.2,39.3 405.2,39.3 
				405.1,39.3 405,39.3 404.8,39.3 404.8,39.3 404.7,39.4 404.6,39.4 404.4,39.6 404.4,39.6 404.4,39.7 404.3,39.8 404.3,39.8 
				404.3,40 404.3,40.1 404.4,40.1 404.4,40.2 404.6,40.4 404.6,40.4 404.7,40.5 404.8,40.7 405.1,40.7 405.2,40.8 405.5,40.8 
				405.8,40.9 406,41.1 406.2,41.1 406.4,41.2 406.7,41.3 406.9,41.6 407,41.9 407.1,42.1 407.1,42.4 407.3,42.8 407.1,43.2 
				407.1,43.2 407.1,43.6 407,43.9 407,44.1 406.7,44.4 406.6,44.7 406.4,44.8 406.2,44.9 406,45.1 405.8,45.2 405.5,45.3 
				405.2,45.3 405,45.5 404.7,45.5 404.6,45.5 404.3,45.5 404,45.6 404,45.6 403.8,45.6 403.4,45.5 403.2,45.5 403,45.5 402.7,45.5 
				402.6,45.5 402.3,45.5 402.2,45.5 402,45.5 401.9,45.5 401.8,45.3 401.6,45.3 401.5,45.3 401.4,45.3 401.2,45.2 401.1,45.2 
				401.5,43.6 401.5,43.6 401.5,43.6 401.6,43.6 401.8,43.6 401.9,43.7 402,43.7 402.2,43.7 402.3,43.7 402.4,43.9 402.7,43.9 
				402.8,43.9 403,43.9 403.2,43.9 403.5,43.9 403.6,43.9 403.9,43.9 404,43.9 404,43.9 404.3,43.9 404.4,43.9 404.6,43.7 
				404.7,43.6 404.7,43.5 404.8,43.5 404.8,43.3 404.8,43.2 404.8,43.2 404.8,42.9 404.8,42.8 404.7,42.7 404.6,42.5 404.3,42.4 
				404,42.3 403.8,42.3 403.5,42.1 403.2,42 403,41.9 402.7,41.6 402.4,41.3 402.3,41.1 402.2,40.8 402,40.4 402,39.8 402,39.8 
				402,39.6 402.2,39.3 402.2,39 402.3,38.9 402.4,38.6 402.6,38.5 402.7,38.2 402.8,38.1 403.1,38 403.4,37.8 403.6,37.7 
				403.9,37.7 404.2,37.6 404.6,37.6 405,37.6 405.4,37.6 405.4,37.6 405.6,37.6 405.9,37.6 406.2,37.6 406.3,37.6 406.6,37.6 
				406.7,37.6 406.9,37.6 407,37.6 407.1,37.6 407.3,37.6 407.3,37.7 407.4,37.7 407.5,37.7 407.5,37.7 407.7,37.7 407.7,37.7 
				407.3,39.3 			"/>
		</g>
	</g>
	<polygon class="st8" points="409,35.8 411,35.8 410.7,37.7 411.9,37.7 411.7,39.3 410.5,39.3 409.7,43.3 409.7,43.5 409.8,43.6 
		409.8,43.7 409.9,43.9 410.1,43.9 410.2,43.9 410.3,44 410.6,44 410.7,44 410.9,43.9 411,43.9 411.1,43.9 411.1,43.9 411.3,43.9 
		411.3,43.9 411.3,43.9 411,45.2 411,45.2 411,45.2 410.9,45.2 410.9,45.3 410.9,45.3 410.7,45.3 410.7,45.3 410.6,45.3 410.6,45.3 
		410.5,45.5 410.3,45.5 410.3,45.5 410.2,45.5 410.1,45.5 409.9,45.5 409.8,45.5 409.3,45.5 409,45.5 408.7,45.5 408.5,45.5 
		408.3,45.3 408.2,45.3 408.1,45.2 407.9,45.1 407.8,45.1 407.7,44.9 407.7,44.8 407.7,44.7 407.7,44.5 407.5,44.4 407.5,44.3 
		407.7,44 407.7,43.9 	"/>
	<g>
		<g>
			<polyline class="st9" points="409,35.8 411,35.8 410.7,37.7 411.9,37.7 411.7,39.3 410.5,39.3 409.7,43.3 409.7,43.3 409.7,43.5 
				409.8,43.6 409.8,43.7 409.9,43.9 410.1,43.9 410.2,43.9 410.3,44 410.6,44 410.6,44 410.7,44 410.9,43.9 411,43.9 411.1,43.9 
				411.1,43.9 411.3,43.9 411.3,43.9 411.3,43.9 411,45.2 411,45.2 411,45.2 411,45.2 410.9,45.2 410.9,45.3 410.9,45.3 410.7,45.3 
				410.7,45.3 410.6,45.3 410.6,45.3 410.5,45.5 410.3,45.5 410.3,45.5 410.2,45.5 410.1,45.5 409.9,45.5 409.8,45.5 409.3,45.5 
				409.3,45.5 409,45.5 408.7,45.5 408.5,45.5 408.3,45.3 408.2,45.3 408.1,45.2 407.9,45.1 407.8,45.1 407.7,44.9 407.7,44.8 
				407.7,44.7 407.7,44.5 407.5,44.4 407.5,44.3 407.7,44 407.7,43.9 409,35.8 			"/>
		</g>
	</g>
	<polygon class="st8" points="413.6,42.1 413.6,42.3 413.6,42.4 413.6,42.5 413.7,42.7 413.7,42.8 413.7,42.9 413.8,43.1 414,43.2 
		414,43.3 414.1,43.3 414.2,43.5 414.4,43.6 414.5,43.6 414.6,43.7 414.8,43.7 414.9,43.9 415.2,43.9 415.3,43.9 415.6,43.9 
		415.7,43.9 415.8,43.9 416.1,43.9 416.2,43.9 416.5,43.9 416.6,43.9 416.9,43.9 417,43.7 417.3,43.7 417.4,43.6 417.7,43.6 
		417.8,43.5 418.1,43.3 417.8,45.1 417.7,45.2 417.6,45.2 417.4,45.2 417.3,45.3 417.3,45.3 417.2,45.3 417,45.3 416.9,45.5 
		416.8,45.5 416.6,45.5 416.5,45.5 416.2,45.5 416.1,45.5 415.8,45.5 415.7,45.5 415.4,45.5 415,45.5 414.8,45.5 414.4,45.5 
		414,45.3 413.6,45.2 413.3,45.1 412.9,44.9 412.6,44.7 412.3,44.4 412.1,44.1 411.8,43.7 411.7,43.5 411.5,42.9 411.5,42.5 
		411.4,42 411.5,41.3 411.5,41.1 411.5,40.8 411.7,40.5 411.7,40.2 411.8,40 411.9,39.6 412.1,39.3 412.3,39 412.6,38.6 412.9,38.4 
		413.2,38.1 413.6,38 414,37.7 414.5,37.6 415,37.6 415.6,37.6 415.8,37.6 416.1,37.6 416.5,37.6 416.8,37.7 417,37.8 417.3,38 
		417.6,38.1 417.8,38.2 418.1,38.5 418.2,38.8 418.4,39.2 418.5,39.6 418.5,40 418.5,40.5 418.5,41.1 418.4,41.7 418.4,42.1 
		413,42.1 413.4,40.7 416.6,40.7 416.6,40.5 416.6,40.2 416.5,40.1 416.5,40 416.5,39.8 416.4,39.7 416.4,39.6 416.2,39.6 
		416.2,39.4 416.1,39.3 416,39.3 415.8,39.3 415.8,39.2 415.7,39.2 415.6,39.2 415.4,39.2 415.3,39.2 415.2,39.2 415,39.2 
		414.9,39.2 414.8,39.3 414.6,39.3 414.5,39.4 414.5,39.6 414.4,39.6 414.2,39.7 414.2,39.8 414.1,40 414.1,40.1 414,40.2 414,40.4 
		414,40.5 	"/>
	<g>
		<g>
			<polyline class="st9" points="413.6,42.1 413.6,42.1 413.6,42.3 413.6,42.4 413.6,42.5 413.7,42.7 413.7,42.8 413.7,42.9 
				413.8,43.1 414,43.2 414,43.3 414.1,43.3 414.2,43.5 414.4,43.6 414.5,43.6 414.6,43.7 414.8,43.7 414.9,43.9 414.9,43.9 
				415.2,43.9 415.3,43.9 415.6,43.9 415.7,43.9 415.8,43.9 416.1,43.9 416.2,43.9 416.5,43.9 416.6,43.9 416.9,43.9 417,43.7 
				417.3,43.7 417.4,43.6 417.7,43.6 417.8,43.5 418.1,43.3 417.8,45.1 417.8,45.1 417.7,45.2 417.6,45.2 417.4,45.2 417.3,45.3 
				417.3,45.3 417.2,45.3 417,45.3 416.9,45.5 416.8,45.5 416.6,45.5 416.5,45.5 416.2,45.5 416.1,45.5 415.8,45.5 415.7,45.5 
				415.4,45.5 415.4,45.5 415,45.5 414.8,45.5 414.4,45.5 414,45.3 413.6,45.2 413.3,45.1 412.9,44.9 412.6,44.7 412.3,44.4 
				412.1,44.1 411.8,43.7 411.7,43.5 411.5,42.9 411.5,42.5 411.4,42 411.5,41.3 411.5,41.3 411.5,41.1 411.5,40.8 411.7,40.5 
				411.7,40.2 411.8,40 411.9,39.6 412.1,39.3 412.3,39 412.6,38.6 412.9,38.4 413.2,38.1 413.6,38 414,37.7 414.5,37.6 415,37.6 
				415.6,37.6 415.6,37.6 415.8,37.6 416.1,37.6 416.5,37.6 416.8,37.7 417,37.8 417.3,38 417.6,38.1 417.8,38.2 418.1,38.5 
				418.2,38.8 418.4,39.2 418.5,39.6 418.5,40 418.5,40.5 418.5,41.1 418.4,41.7 418.4,42.1 413,42.1 413.4,40.7 416.6,40.7 
				416.6,40.7 416.6,40.5 416.6,40.2 416.5,40.1 416.5,40 416.5,39.8 416.4,39.7 416.4,39.6 416.2,39.6 416.2,39.4 416.1,39.3 
				416,39.3 415.8,39.3 415.8,39.2 415.7,39.2 415.6,39.2 415.4,39.2 415.4,39.2 415.3,39.2 415.2,39.2 415,39.2 414.9,39.2 
				414.8,39.3 414.6,39.3 414.5,39.4 414.5,39.6 414.4,39.6 414.2,39.7 414.2,39.8 414.1,40 414.1,40.1 414,40.2 414,40.4 414,40.5 
				413.6,42.1 			"/>
		</g>
	</g>
	<polygon class="st8" points="431.1,38.1 431,38.1 431,38 430.8,38 430.7,37.8 430.6,37.8 430.4,37.8 430.3,37.8 430.2,37.7 
		430,37.7 429.9,37.7 429.8,37.6 429.6,37.6 429.5,37.6 429.4,37.6 429.1,37.6 429,37.6 428.7,37.6 428.6,37.6 428.4,37.6 
		428.2,37.7 427.9,37.7 427.8,37.8 427.5,37.8 427.4,38 427.1,38.2 427,38.4 426.8,38.6 426.6,38.9 426.4,39.2 426.3,39.6 426.2,40 
		426,40.5 426,40.7 425.9,40.9 425.9,41.2 425.9,41.5 426,41.7 426,42 426,42.1 426.2,42.4 426.3,42.7 426.4,42.8 426.6,42.9 
		426.7,43.1 427,43.2 427.2,43.3 427.4,43.5 427.6,43.5 427.8,43.6 427.9,43.6 428,43.6 428.2,43.6 428.3,43.6 428.6,43.6 
		428.7,43.6 428.8,43.6 429.1,43.6 429.2,43.5 429.4,43.5 429.6,43.5 429.8,43.3 429.9,43.2 430.2,43.1 430.3,42.9 429.9,44.9 
		429.9,44.9 429.9,45.1 429.8,45.1 429.8,45.1 429.6,45.2 429.5,45.2 429.4,45.3 429.2,45.3 429.1,45.3 429,45.5 428.7,45.5 
		428.4,45.5 428.2,45.5 427.9,45.5 427.5,45.5 427.1,45.5 426.7,45.5 426.4,45.3 426,45.2 425.8,45.1 425.4,44.9 425.1,44.7 
		424.8,44.4 424.5,44.1 424.3,43.9 424,43.5 423.9,43.1 423.7,42.7 423.6,42.1 423.6,41.6 423.6,41.1 423.7,40.4 423.7,40.1 
		423.9,39.8 423.9,39.6 424,39.3 424.1,39 424.1,38.8 424.3,38.5 424.4,38.2 424.5,38.1 424.5,37.8 424.7,37.7 424.8,37.4 
		424.9,37.3 425.1,37 425.2,36.9 425.5,36.8 425.6,36.6 425.8,36.5 425.9,36.4 426.2,36.2 426.3,36.1 426.6,36.1 426.7,36 427,35.8 
		427.2,35.8 427.4,35.7 427.6,35.7 427.9,35.7 428.2,35.6 428.4,35.6 428.7,35.6 429,35.6 429.2,35.6 429.4,35.6 429.6,35.6 
		429.9,35.7 430,35.7 430.3,35.7 430.4,35.7 430.6,35.8 430.8,35.8 431,35.8 431.1,36 431.3,36 431.3,36 431.4,36.1 431.5,36.1 
		431.5,36.1 	"/>
	<g>
		<g>
			<polyline class="st9" points="431.1,38.1 431.1,38.1 431,38.1 431,38 430.8,38 430.7,37.8 430.6,37.8 430.4,37.8 430.3,37.8 
				430.2,37.7 430,37.7 429.9,37.7 429.8,37.6 429.6,37.6 429.5,37.6 429.4,37.6 429.1,37.6 429,37.6 429,37.6 428.7,37.6 
				428.6,37.6 428.4,37.6 428.2,37.7 427.9,37.7 427.8,37.8 427.5,37.8 427.4,38 427.1,38.2 427,38.4 426.8,38.6 426.6,38.9 
				426.4,39.2 426.3,39.6 426.2,40 426,40.5 426,40.5 426,40.7 425.9,40.9 425.9,41.2 425.9,41.5 426,41.7 426,42 426,42.1 
				426.2,42.4 426.3,42.7 426.4,42.8 426.6,42.9 426.7,43.1 427,43.2 427.2,43.3 427.4,43.5 427.6,43.5 427.6,43.5 427.8,43.6 
				427.9,43.6 428,43.6 428.2,43.6 428.3,43.6 428.6,43.6 428.7,43.6 428.8,43.6 429.1,43.6 429.2,43.5 429.4,43.5 429.6,43.5 
				429.8,43.3 429.9,43.2 430.2,43.1 430.3,42.9 429.9,44.9 429.9,44.9 429.9,44.9 429.9,45.1 429.8,45.1 429.8,45.1 429.6,45.2 
				429.5,45.2 429.4,45.3 429.2,45.3 429.1,45.3 429,45.5 428.7,45.5 428.4,45.5 428.2,45.5 427.9,45.5 427.5,45.5 427.1,45.5 
				427.1,45.5 426.7,45.5 426.4,45.3 426,45.2 425.8,45.1 425.4,44.9 425.1,44.7 424.8,44.4 424.5,44.1 424.3,43.9 424,43.5 
				423.9,43.1 423.7,42.7 423.6,42.1 423.6,41.6 423.6,41.1 423.7,40.4 423.7,40.4 423.7,40.1 423.9,39.8 423.9,39.6 424,39.3 
				424.1,39 424.1,38.8 424.3,38.5 424.4,38.2 424.5,38.1 424.5,37.8 424.7,37.7 424.8,37.4 424.9,37.3 425.1,37 425.2,36.9 
				425.5,36.8 425.6,36.6 425.8,36.5 425.9,36.4 426.2,36.2 426.3,36.1 426.6,36.1 426.7,36 427,35.8 427.2,35.8 427.4,35.7 
				427.6,35.7 427.9,35.7 428.2,35.6 428.4,35.6 428.7,35.6 429,35.6 429,35.6 429.2,35.6 429.4,35.6 429.6,35.6 429.9,35.7 
				430,35.7 430.3,35.7 430.4,35.7 430.6,35.8 430.8,35.8 431,35.8 431.1,36 431.3,36 431.3,36 431.4,36.1 431.5,36.1 431.5,36.1 
				431.1,38.1 			"/>
		</g>
	</g>
	<polygon class="st8" points="449.2,45.5 447.2,45.5 447.3,44.7 447.3,44.7 447.2,44.8 447.1,44.9 446.9,45.1 446.8,45.1 
		446.7,45.2 446.5,45.3 446.4,45.3 446.3,45.5 446.1,45.5 446,45.5 445.9,45.6 445.7,45.6 445.6,45.6 445.5,45.6 445.3,45.6 
		445.2,45.6 444.8,45.6 444.4,45.5 444.1,45.3 443.9,45.2 443.6,44.9 443.3,44.8 443,44.5 442.9,44.1 442.8,43.9 442.6,43.5 
		442.5,43.2 442.5,42.8 442.5,42.4 442.5,42 442.5,41.6 442.6,41.3 442.6,40.8 442.8,40.4 443,40.1 443.2,39.7 443.3,39.3 443.6,39 
		443.9,38.8 444,38.5 444.3,38.4 444.5,38.2 444.9,38 445.2,37.8 445.5,37.8 445.7,37.7 446,37.7 446.3,37.7 446.5,37.7 446.8,37.7 
		446.9,37.7 447.1,37.8 447.3,37.8 447.5,37.8 447.6,38 447.7,38.1 447.9,38.1 447.9,38.2 448,38.4 448.1,38.4 448.1,38.5 
		448.3,38.6 448.3,38.8 448.4,38.8 448.4,38.8 448.8,36 450.8,36 	"/>
	<g>
		<g>
			<polyline class="st9" points="449.2,45.5 447.2,45.5 447.3,44.7 447.3,44.7 447.3,44.7 447.2,44.8 447.1,44.9 446.9,45.1 
				446.8,45.1 446.7,45.2 446.5,45.3 446.4,45.3 446.3,45.5 446.1,45.5 446,45.5 445.9,45.6 445.7,45.6 445.6,45.6 445.5,45.6 
				445.3,45.6 445.2,45.6 445.2,45.6 444.8,45.6 444.4,45.5 444.1,45.3 443.9,45.2 443.6,44.9 443.3,44.8 443,44.5 442.9,44.1 
				442.8,43.9 442.6,43.5 442.5,43.2 442.5,42.8 442.5,42.4 442.5,42 442.5,41.6 442.6,41.3 442.6,41.3 442.6,40.8 442.8,40.4 
				443,40.1 443.2,39.7 443.3,39.3 443.6,39 443.9,38.8 444,38.5 444.3,38.4 444.5,38.2 444.9,38 445.2,37.8 445.5,37.8 445.7,37.7 
				446,37.7 446.3,37.7 446.3,37.7 446.5,37.7 446.8,37.7 446.9,37.7 447.1,37.8 447.3,37.8 447.5,37.8 447.6,38 447.7,38.1 
				447.9,38.1 447.9,38.2 448,38.4 448.1,38.4 448.1,38.5 448.3,38.6 448.3,38.8 448.4,38.8 448.4,38.8 448.8,36 450.8,36 
				449.2,45.5 			"/>
		</g>
	</g>
	<polygon class="st6" points="445.9,43.7 446.1,43.7 446.3,43.7 446.4,43.6 446.7,43.6 446.8,43.5 446.9,43.3 447.1,43.2 
		447.2,43.1 447.3,42.9 447.3,42.8 447.5,42.7 447.6,42.4 447.6,42.3 447.7,42.1 447.7,41.9 447.7,41.7 447.9,41.5 447.9,41.2 
		447.9,41.1 447.9,40.8 447.9,40.7 447.7,40.5 447.7,40.2 447.7,40.1 447.6,40 447.5,39.8 447.5,39.7 447.3,39.6 447.2,39.6 
		447.1,39.4 446.9,39.4 446.8,39.4 446.5,39.4 446.4,39.4 446.3,39.6 446,39.6 445.9,39.7 445.7,39.8 445.6,40 445.5,40.1 
		445.5,40.2 445.3,40.4 445.2,40.7 445.1,40.8 445.1,40.9 444.9,41.2 444.9,41.3 444.9,41.6 444.8,41.9 444.9,42.3 444.9,42.7 
		445.1,42.9 445.2,43.3 445.3,43.5 445.6,43.7 	"/>
	<polygon class="st8" points="400.8,43.9 400.6,45.5 398.7,45.5 398.7,45.2 398.7,44.9 398.8,44.7 398.8,44.7 398.7,44.8 
		398.5,44.8 398.4,44.9 398.3,45.1 398.1,45.2 397.9,45.2 397.7,45.3 397.5,45.5 397.3,45.5 397.1,45.5 396.9,45.6 396.7,45.6 
		396.4,45.6 396.3,45.6 396,45.6 395.9,45.6 395.6,45.5 395.3,45.5 395.2,45.3 394.9,45.2 394.8,45.1 394.7,44.9 394.5,44.8 
		394.4,44.7 394.4,44.5 394.2,44.4 394.2,44.3 394.1,44 394.1,43.9 394.1,43.7 394.1,43.6 394.1,43.5 394.1,43.1 394.1,42.8 
		394.2,42.5 394.4,42.4 394.4,42.1 394.5,41.9 394.8,41.7 394.9,41.5 395.1,41.3 395.3,41.2 395.5,41.1 395.7,40.9 396,40.8 
		396.3,40.8 396.4,40.7 396.7,40.7 396.8,40.7 396.8,40.7 396.8,40.7 396.9,40.7 396.9,40.7 397.1,40.7 397.2,40.5 397.3,40.5 
		397.5,40.5 397.6,40.5 397.7,40.5 397.9,40.5 398,40.5 398,40.5 398.1,40.5 398.3,40.5 398.4,40.5 398.5,40.5 398.8,40.5 
		398.9,40.5 399.1,40.5 399.1,40.5 399.2,40.5 399.2,40.5 399.2,40.5 399.3,40.4 399.3,40.2 399.3,40.1 399.3,39.8 399.2,39.7 
		399.2,39.6 399.1,39.4 398.9,39.4 398.8,39.3 398.5,39.3 398.4,39.3 398.1,39.3 398,39.3 397.7,39.3 397.5,39.3 397.2,39.3 
		397.1,39.3 396.8,39.3 396.5,39.3 396.4,39.4 396.1,39.4 396,39.4 395.7,39.4 395.6,39.6 395.5,39.6 395.3,39.6 395.3,39.7 
		395.9,38 396,37.8 396.1,37.8 396.3,37.7 396.5,37.7 396.7,37.7 396.8,37.7 397.1,37.6 397.2,37.6 397.5,37.6 397.6,37.6 
		397.9,37.6 398.1,37.6 398.3,37.6 398.5,37.6 398.8,37.6 399.1,37.6 399.3,37.6 399.5,37.6 399.7,37.7 400,37.7 400.1,37.8 
		400.4,38 400.7,38.1 400.8,38.2 401.1,38.4 401.2,38.5 401.4,38.8 401.5,38.9 401.5,39.2 401.6,39.4 401.6,39.7 401.5,40 	"/>
	<g>
		<g>
			<polyline class="st9" points="400.8,43.9 400.6,45.5 398.7,45.5 398.7,45.5 398.7,45.2 398.7,44.9 398.8,44.7 398.8,44.7 
				398.8,44.7 398.7,44.8 398.5,44.8 398.4,44.9 398.3,45.1 398.1,45.2 397.9,45.2 397.7,45.3 397.5,45.5 397.3,45.5 397.1,45.5 
				396.9,45.6 396.7,45.6 396.4,45.6 396.3,45.6 396,45.6 395.9,45.6 395.9,45.6 395.6,45.5 395.3,45.5 395.2,45.3 394.9,45.2 
				394.8,45.1 394.7,44.9 394.5,44.8 394.4,44.7 394.4,44.5 394.2,44.4 394.2,44.3 394.1,44 394.1,43.9 394.1,43.7 394.1,43.6 
				394.1,43.5 394.1,43.5 394.1,43.1 394.1,42.8 394.2,42.5 394.4,42.4 394.4,42.1 394.5,41.9 394.8,41.7 394.9,41.5 395.1,41.3 
				395.3,41.2 395.5,41.1 395.7,40.9 396,40.8 396.3,40.8 396.4,40.7 396.7,40.7 396.7,40.7 396.8,40.7 396.8,40.7 396.8,40.7 
				396.9,40.7 396.9,40.7 397.1,40.7 397.2,40.5 397.3,40.5 397.5,40.5 397.6,40.5 397.7,40.5 397.9,40.5 398,40.5 398,40.5 
				398.1,40.5 398.3,40.5 398.3,40.5 398.4,40.5 398.5,40.5 398.8,40.5 398.9,40.5 399.1,40.5 399.1,40.5 399.2,40.5 399.2,40.5 
				399.2,40.5 399.2,40.5 399.3,40.4 399.3,40.2 399.3,40.1 399.3,40.1 399.3,39.8 399.2,39.7 399.2,39.6 399.1,39.4 398.9,39.4 
				398.8,39.3 398.5,39.3 398.4,39.3 398.4,39.3 398.1,39.3 398,39.3 397.7,39.3 397.5,39.3 397.2,39.3 397.1,39.3 396.8,39.3 
				396.5,39.3 396.4,39.4 396.1,39.4 396,39.4 395.7,39.4 395.6,39.6 395.5,39.6 395.3,39.6 395.3,39.7 395.9,38 395.9,38 396,37.8 
				396.1,37.8 396.3,37.7 396.5,37.7 396.7,37.7 396.8,37.7 397.1,37.6 397.2,37.6 397.5,37.6 397.6,37.6 397.9,37.6 398.1,37.6 
				398.3,37.6 398.5,37.6 398.8,37.6 399.1,37.6 399.1,37.6 399.3,37.6 399.5,37.6 399.7,37.7 400,37.7 400.1,37.8 400.4,38 
				400.7,38.1 400.8,38.2 401.1,38.4 401.2,38.5 401.4,38.8 401.5,38.9 401.5,39.2 401.6,39.4 401.6,39.7 401.5,40 400.8,43.9 			
				"/>
		</g>
	</g>
	<polygon class="st7" points="399.1,42 399.1,42 398.9,41.9 398.9,41.9 398.8,41.9 398.8,41.9 398.7,41.9 398.5,41.9 398.4,41.9 
		398.4,41.9 398.3,41.9 398.1,41.9 398,41.9 397.9,41.9 397.7,42 397.7,42 397.6,42 397.6,42 397.5,42 397.5,42 397.3,42.1 
		397.2,42.1 397.2,42.1 397.1,42.3 396.9,42.3 396.8,42.4 396.8,42.4 396.7,42.5 396.5,42.7 396.5,42.7 396.4,42.8 396.4,42.9 
		396.4,43.1 396.4,43.3 396.4,43.5 396.5,43.6 396.5,43.7 396.7,43.9 396.8,43.9 396.9,43.9 397.1,43.9 397.3,43.9 397.5,43.9 
		397.6,43.9 397.9,43.7 398,43.7 398.1,43.6 398.3,43.6 398.4,43.5 398.4,43.5 398.5,43.3 398.7,43.3 398.7,43.2 398.7,43.1 
		398.8,43.1 398.8,42.9 398.8,42.8 398.9,42.7 398.9,42.4 398.9,42.1 	"/>
	<polygon class="st8" points="385.4,45.5 383.4,45.5 385,35.8 388.5,35.8 388.8,41.6 391.2,35.8 394.8,35.8 393.2,45.5 391.2,45.5 
		392.4,38.4 392.4,38.4 389.3,45.5 387,45.5 387,45.2 387,44.4 387,43.3 386.9,42 386.7,40.7 386.7,39.4 386.7,38.6 386.6,38.4 
		386.6,38.4 386.6,38.4 386.6,38.4 386.6,38.4 	"/>
	<g>
		<g>
			<polyline class="st9" points="385.4,45.5 383.4,45.5 385,35.8 388.5,35.8 388.8,41.6 391.2,35.8 394.8,35.8 393.2,45.5 
				391.2,45.5 392.4,38.4 392.4,38.4 389.3,45.5 387,45.5 387,45.5 387,45.2 387,44.4 387,43.3 386.9,42 386.7,40.7 386.7,39.4 
				386.7,38.6 386.6,38.4 386.6,38.4 386.6,38.4 386.6,38.4 386.6,38.4 386.6,38.4 385.4,45.5 			"/>
		</g>
	</g>
	<polygon class="st8" points="437.3,43.9 436.9,45.5 435.1,45.5 435.1,45.2 435.1,44.9 435.1,44.8 435.1,44.7 435,44.8 434.9,44.9 
		434.7,44.9 434.6,45.1 434.5,45.2 434.3,45.2 434.1,45.3 433.9,45.5 433.8,45.5 433.5,45.6 433.4,45.6 433.1,45.6 432.9,45.6 
		432.7,45.6 432.5,45.6 432.3,45.6 432.1,45.5 431.8,45.5 431.7,45.3 431.4,45.2 431.3,45.1 431.1,44.9 431,44.8 430.8,44.7 
		430.8,44.5 430.7,44.4 430.7,44.3 430.6,44 430.6,43.9 430.6,43.7 430.6,43.6 430.6,43.5 430.6,43.1 430.6,42.8 430.7,42.5 
		430.8,42.4 430.8,42.1 431,41.9 431.3,41.7 431.4,41.5 431.5,41.3 431.8,41.2 431.9,41.1 432.2,40.9 432.5,40.8 432.7,40.8 
		432.9,40.7 433.1,40.7 433.1,40.7 433.3,40.7 433.3,40.7 433.4,40.7 433.4,40.7 433.5,40.7 433.7,40.5 433.8,40.5 433.9,40.5 
		434.1,40.5 434.2,40.5 434.3,40.5 434.3,40.5 434.5,40.5 434.6,40.5 434.7,40.5 434.9,40.5 435,40.5 435.1,40.5 435.4,40.5 
		435.5,40.5 435.7,40.5 435.7,40.5 435.7,40.5 435.7,40.5 435.8,40.4 435.8,40.2 435.8,40.1 435.8,39.8 435.7,39.7 435.5,39.6 
		435.5,39.4 435.4,39.4 435.1,39.3 435,39.3 434.9,39.3 434.6,39.3 434.5,39.3 434.2,39.3 433.9,39.3 433.8,39.3 433.5,39.3 
		433.3,39.3 433,39.3 432.9,39.4 432.6,39.4 432.5,39.4 432.2,39.4 432.1,39.6 431.9,39.6 431.8,39.6 431.8,39.7 432.3,38 
		432.5,37.8 432.6,37.8 432.7,37.7 433,37.7 433.1,37.7 433.3,37.7 433.5,37.6 433.7,37.6 433.9,37.6 434.1,37.6 434.3,37.6 
		434.6,37.6 434.7,37.6 435,37.6 435.3,37.6 435.5,37.6 435.7,37.6 435.9,37.6 436.2,37.7 436.5,37.7 436.6,37.8 436.9,38 
		437.1,38.1 437.3,38.2 437.4,38.4 437.7,38.5 437.8,38.8 438,38.9 438,39.2 438.1,39.4 438.1,39.7 438,40 	"/>
	<polygon class="st8" points="436.9,45.6 437,45.5 437.3,43.9 437.1,43.9 436.9,45.5 436.9,45.5 436.9,45.6 437,45.6 437,45.5 	"/>
	<polygon class="st8" points="435,45.5 435.1,45.6 436.9,45.6 436.9,45.5 435.1,45.5 435.1,45.5 435,45.5 435,45.6 435.1,45.6 	"/>
	<polygon class="st8" points="435.1,44.7 435.1,44.7 435,44.8 435,44.9 435,45.2 435,45.5 435.1,45.5 435.1,45.2 435.1,44.9 
		435.1,44.8 	"/>
	<polygon class="st8" points="432.3,45.6 432.3,45.6 432.5,45.6 432.7,45.6 432.9,45.6 433.1,45.6 433.4,45.6 433.5,45.6 
		433.8,45.5 433.9,45.5 434.2,45.3 434.3,45.3 434.5,45.2 434.6,45.1 434.9,45.1 435,44.9 435,44.8 435.1,44.7 435.1,44.7 435,44.8 
		434.9,44.8 434.7,44.9 434.6,45.1 434.5,45.1 434.3,45.2 434.1,45.3 433.9,45.3 433.8,45.5 433.5,45.5 433.3,45.5 433.1,45.6 
		432.9,45.6 432.7,45.6 432.5,45.6 432.3,45.5 432.3,45.5 	"/>
	<polygon class="st8" points="430.6,43.5 430.6,43.5 430.6,43.6 430.6,43.7 430.6,43.9 430.6,44.1 430.6,44.3 430.7,44.4 
		430.7,44.5 430.8,44.7 431,44.9 431.1,45.1 431.3,45.2 431.4,45.2 431.5,45.3 431.8,45.5 432.1,45.6 432.3,45.6 432.3,45.5 
		432.1,45.5 431.8,45.3 431.7,45.3 431.4,45.2 431.3,45.1 431.1,44.9 431,44.8 431,44.7 430.8,44.5 430.8,44.4 430.7,44.3 430.7,44 
		430.7,43.9 430.6,43.7 430.6,43.6 	"/>
	<polygon class="st8" points="433.1,40.7 433.1,40.7 432.9,40.7 432.6,40.7 432.5,40.8 432.2,40.9 431.9,41.1 431.8,41.2 
		431.5,41.3 431.4,41.5 431.1,41.7 431,41.9 430.8,42.1 430.7,42.4 430.7,42.5 430.6,42.8 430.6,43.1 430.6,43.5 430.6,43.5 
		430.6,43.1 430.7,42.8 430.7,42.7 430.8,42.4 431,42.1 431.1,42 431.3,41.7 431.4,41.6 431.7,41.3 431.8,41.2 432.1,41.1 
		432.2,40.9 432.5,40.9 432.7,40.8 432.9,40.8 	"/>
	<polygon class="st8" points="434.7,40.4 434.7,40.4 434.6,40.4 434.5,40.5 434.3,40.5 434.3,40.5 434.2,40.5 434.1,40.5 
		433.9,40.5 433.8,40.5 433.7,40.5 433.5,40.5 433.4,40.5 433.4,40.5 433.3,40.5 433.3,40.7 433.1,40.7 433.1,40.7 433.1,40.7 
		433.1,40.7 433.3,40.7 433.3,40.7 433.4,40.7 433.4,40.7 433.5,40.7 433.7,40.7 433.8,40.7 433.9,40.7 434.1,40.5 434.2,40.5 
		434.3,40.5 434.3,40.5 434.5,40.5 434.6,40.5 434.7,40.5 434.7,40.5 	"/>
	<polygon class="st8" points="435.7,40.5 435.7,40.5 435.7,40.5 435.7,40.5 435.5,40.5 435.4,40.5 435.1,40.5 435,40.5 434.9,40.4 
		434.7,40.4 434.7,40.5 434.9,40.5 435,40.5 435.1,40.5 435.4,40.5 435.5,40.5 435.7,40.5 435.7,40.5 435.7,40.5 435.8,40.5 
		435.7,40.5 435.8,40.5 435.8,40.5 	"/>
	<polygon class="st8" points="435.7,40.1 435.7,40.1 435.7,40.2 435.7,40.4 435.7,40.5 435.7,40.5 435.8,40.5 435.8,40.5 
		435.8,40.4 435.8,40.2 435.8,40.1 435.8,40.1 	"/>
	<polygon class="st8" points="434.9,39.3 434.9,39.3 435,39.3 435.1,39.4 435.3,39.4 435.4,39.6 435.5,39.6 435.7,39.7 435.7,39.8 
		435.7,40.1 435.8,40.1 435.8,39.8 435.7,39.7 435.7,39.6 435.5,39.4 435.4,39.3 435.3,39.3 435,39.3 434.9,39.2 434.9,39.2 	"/>
	<polygon class="st8" points="431.7,39.7 431.8,39.7 431.9,39.7 431.9,39.6 432.1,39.6 432.2,39.6 432.5,39.4 432.6,39.4 
		432.9,39.4 433,39.4 433.3,39.3 433.5,39.3 433.8,39.3 433.9,39.3 434.2,39.3 434.5,39.3 434.6,39.3 434.9,39.3 434.9,39.2 
		434.6,39.2 434.5,39.2 434.2,39.2 433.9,39.2 433.8,39.3 433.5,39.3 433.3,39.3 433,39.3 432.9,39.3 432.6,39.4 432.5,39.4 
		432.2,39.4 432.1,39.4 431.9,39.6 431.8,39.6 431.8,39.7 431.8,39.7 	"/>
	<polygon class="st8" points="432.3,37.8 432.2,38 431.7,39.7 431.8,39.7 432.3,38 432.3,38 432.3,37.8 432.2,37.8 432.2,38 	"/>
	<polygon class="st8" points="435.5,37.6 435.5,37.6 435.3,37.6 435,37.6 434.7,37.6 434.6,37.6 434.3,37.6 434.1,37.6 433.9,37.6 
		433.7,37.6 433.5,37.6 433.3,37.6 433.1,37.6 433,37.7 432.7,37.7 432.6,37.7 432.5,37.8 432.3,37.8 432.3,38 432.5,37.8 
		432.6,37.8 432.7,37.8 433,37.7 433.1,37.7 433.3,37.7 433.5,37.7 433.7,37.7 433.9,37.6 434.1,37.6 434.3,37.6 434.6,37.6 
		434.7,37.6 435,37.6 435.3,37.6 	"/>
	<polygon class="st8" points="438.1,40 438.1,40 438.1,39.7 438.1,39.4 438.1,39.2 438,38.9 437.8,38.8 437.7,38.5 437.6,38.4 
		437.3,38.1 437.1,38 436.9,37.8 436.6,37.8 436.5,37.7 436.2,37.7 435.9,37.6 435.7,37.6 435.5,37.6 435.5,37.6 435.7,37.7 
		435.9,37.7 436.2,37.7 436.3,37.8 436.6,37.8 436.9,38 437,38.1 437.3,38.2 437.4,38.4 437.6,38.5 437.8,38.8 437.8,38.9 438,39.2 
		438,39.4 438,39.7 438,40 438,40 	"/>
	<polygon class="st8" points="437.3,43.9 437.3,43.9 438.1,40 438,40 437.1,43.9 437.1,43.9 	"/>
	<polygon class="st6" points="435.4,42 435.4,42 435.4,41.9 435.4,41.9 435.3,41.9 435.1,41.9 435.1,41.9 435,41.9 434.9,41.9 
		434.7,41.9 434.6,41.9 434.6,41.9 434.5,41.9 434.3,41.9 434.2,42 434.1,42 434.1,42 434.1,42 433.9,42 433.9,42 433.8,42 
		433.7,42.1 433.7,42.1 433.5,42.1 433.4,42.3 433.3,42.3 433.3,42.4 433.1,42.5 433,42.5 433,42.7 433,42.8 432.9,42.9 432.9,43.1 
		432.9,43.3 432.9,43.5 433,43.6 433,43.7 433.1,43.9 433.3,43.9 433.4,43.9 433.5,43.9 433.8,43.9 433.9,43.9 434.2,43.9 
		434.3,43.7 434.5,43.7 434.6,43.6 434.7,43.6 434.9,43.5 435,43.3 435,43.3 435.1,43.2 435.1,43.1 435.3,43.1 435.3,42.9 
		435.3,42.8 435.4,42.8 435.4,42.5 435.4,42.4 435.4,42.1 	"/>
	<g>
		<g>
			<polygon class="st8" points="450.6,44.5 450.6,44.3 450.7,44.1 450.8,44 450.8,43.9 451.1,43.7 451.2,43.6 451.4,43.6 
				451.6,43.5 451.8,43.6 452,43.6 452.2,43.7 452.3,43.9 452.4,44 452.6,44.1 452.6,44.3 452.7,44.5 452.4,44.5 452.4,44.4 
				452.4,44.3 452.3,44 452.2,44 452,43.9 451.9,43.7 451.8,43.7 451.6,43.7 451.5,43.7 451.2,43.7 451.1,43.9 451,44 451,44 
				450.8,44.3 450.8,44.4 450.8,44.5 			"/>
			<polygon class="st8" points="451.2,44.5 451.2,44 451.6,44 451.8,44.1 451.8,44.1 451.9,44.1 451.9,44.1 451.9,44.1 452,44.3 
				452,44.3 452,44.3 452,44.4 452,44.4 452,44.5 451.9,44.5 451.6,44.5 451.6,44.5 451.8,44.5 451.8,44.5 451.8,44.4 451.9,44.4 
				451.9,44.4 451.9,44.4 451.9,44.3 451.9,44.3 451.9,44.3 451.8,44.3 451.8,44.3 451.8,44.3 451.8,44.3 451.6,44.3 451.6,44.3 
				451.4,44.3 451.4,44.5 			"/>
			<polygon class="st8" points="450.6,44.5 450.6,44.5 450.6,44.8 450.7,44.9 450.8,45.1 450.8,45.3 451.1,45.3 451.2,45.5 
				451.4,45.6 451.6,45.6 451.8,45.6 452,45.5 452.2,45.3 452.3,45.3 452.4,45.1 452.6,44.9 452.6,44.8 452.7,44.5 452.7,44.5 
				452.4,44.5 452.4,44.5 452.4,44.7 452.4,44.9 452.3,45.1 452.2,45.2 452,45.2 451.9,45.3 451.8,45.3 451.6,45.3 451.5,45.3 
				451.2,45.3 451.1,45.2 451,45.2 451,45.1 450.8,44.9 450.8,44.7 450.8,44.5 450.8,44.5 			"/>
			<polygon class="st8" points="451.2,44.5 451.2,44.9 451.4,44.9 451.4,44.5 451.6,44.5 451.9,44.9 452,44.9 451.8,44.5 
				451.8,44.5 451.9,44.5 451.9,44.5 451.9,44.5 451.9,44.5 451.6,44.5 451.6,44.5 451.4,44.5 451.4,44.5 			"/>
		</g>
	</g>
	<g>
		<g>
			<polyline class="st9" points="450.6,44.5 450.6,44.5 450.6,44.3 450.7,44.1 450.8,44 450.8,43.9 451.1,43.7 451.2,43.6 
				451.4,43.6 451.6,43.5 451.6,43.5 451.8,43.6 452,43.6 452.2,43.7 452.3,43.9 452.4,44 452.6,44.1 452.6,44.3 452.7,44.5 
				452.7,44.5 452.6,44.8 452.6,44.9 452.4,45.1 452.3,45.3 452.2,45.3 452,45.5 451.8,45.6 451.6,45.6 451.6,45.6 451.4,45.6 
				451.2,45.5 451.1,45.3 450.8,45.3 450.8,45.1 450.7,44.9 450.6,44.8 450.6,44.5 			"/>
		</g>
	</g>
	<g>
		<g>
			<polyline class="st9" points="451.4,44.9 451.2,44.9 451.2,44 451.6,44 451.6,44 451.8,44.1 451.8,44.1 451.9,44.1 451.9,44.1 
				451.9,44.1 452,44.3 452,44.3 452,44.3 452,44.3 452,44.4 452,44.4 452,44.5 451.9,44.5 451.9,44.5 451.9,44.5 451.8,44.5 
				451.8,44.5 452,44.9 451.9,44.9 451.6,44.5 451.4,44.5 451.4,44.9 			"/>
		</g>
	</g>
	<g>
		<g>
			<polyline class="st9" points="451.6,44.5 451.6,44.5 451.6,44.5 451.8,44.5 451.8,44.5 451.8,44.4 451.9,44.4 451.9,44.4 
				451.9,44.4 451.9,44.3 451.9,44.3 451.9,44.3 451.9,44.3 451.8,44.3 451.8,44.3 451.8,44.3 451.8,44.3 451.6,44.3 451.6,44.3 
				451.4,44.3 451.4,44.5 451.6,44.5 			"/>
		</g>
	</g>
	<g>
		<g>
			<polyline class="st9" points="451.6,45.3 451.6,45.3 451.8,45.3 451.9,45.3 452,45.2 452.2,45.2 452.3,45.1 452.4,44.9 
				452.4,44.7 452.4,44.5 452.4,44.5 452.4,44.4 452.4,44.3 452.3,44 452.2,44 452,43.9 451.9,43.7 451.8,43.7 451.6,43.7 
				451.6,43.7 451.5,43.7 451.2,43.7 451.1,43.9 451,44 451,44 450.8,44.3 450.8,44.4 450.8,44.5 450.8,44.5 450.8,44.7 450.8,44.9 
				451,45.1 451,45.2 451.1,45.2 451.2,45.3 451.5,45.3 451.6,45.3 			"/>
		</g>
	</g>
	<polygon class="st8" points="437.8,45.5 439.8,45.5 439.8,45.5 440.6,41.3 440.6,41.2 440.6,41.1 440.8,40.9 440.8,40.7 
		440.9,40.5 440.9,40.4 441,40.2 441.2,40.1 441.3,40 441.4,39.8 441.6,39.7 441.8,39.7 442,39.6 442.2,39.6 442.5,39.4 442.8,39.4 
		442.9,39.4 442.9,39.4 442.9,39.4 442.9,39.4 443.3,37.6 443,37.6 442.9,37.6 442.6,37.7 442.5,37.7 442.4,37.7 442.2,37.8 
		442.1,38 442,38 441.8,38.1 441.7,38.2 441.6,38.4 441.4,38.5 441.3,38.5 441.2,38.8 441,38.8 441,39 441.2,37.7 439.2,37.7 	"/>
	<g>
		<g>
			<polyline class="st9" points="437.8,45.5 439.8,45.5 439.8,45.5 440.6,41.3 440.6,41.3 440.6,41.2 440.6,41.1 440.8,40.9 
				440.8,40.7 440.9,40.5 440.9,40.4 441,40.2 441.2,40.1 441.3,40 441.4,39.8 441.6,39.7 441.8,39.7 442,39.6 442.2,39.6 
				442.5,39.4 442.8,39.4 442.8,39.4 442.9,39.4 442.9,39.4 442.9,39.4 442.9,39.4 443.3,37.6 443.3,37.6 443,37.6 442.9,37.6 
				442.6,37.7 442.5,37.7 442.4,37.7 442.2,37.8 442.1,38 442,38 441.8,38.1 441.7,38.2 441.6,38.4 441.4,38.5 441.3,38.5 
				441.2,38.8 441,38.8 441,39 441.2,37.7 439.2,37.7 437.8,45.5 437.8,45.5 			"/>
		</g>
	</g>
	<polygon class="st8" points="418.4,45.5 420.4,45.5 420.4,45.5 421.2,41.3 421.2,41.2 421.2,41.1 421.2,40.9 421.3,40.8 
		421.3,40.5 421.5,40.4 421.5,40.2 421.6,40.1 421.7,40.1 421.9,40 422,39.8 422.3,39.8 422.4,39.7 422.7,39.7 422.9,39.6 
		423.2,39.6 423.2,39.6 423.2,39.6 423.2,39.6 423.3,39.6 423.3,39.6 423.3,39.6 423.3,39.7 423.3,39.7 423.5,39.6 423.5,39.6 
		423.5,39.4 423.5,39.2 423.6,39 423.6,38.8 423.6,38.6 423.7,38.4 423.7,38.2 423.9,38.1 423.9,38 424,37.8 424.1,37.8 424.1,37.7 
		424.1,37.7 424.1,37.6 424.1,37.6 424.1,37.6 424.1,37.6 424,37.6 424,37.6 424,37.6 423.9,37.6 423.9,37.6 423.6,37.6 423.5,37.6 
		423.2,37.7 423.1,37.7 422.9,37.7 422.7,37.8 422.5,37.8 422.4,38 422.3,38.1 422.3,38.2 422.1,38.4 422,38.4 421.9,38.5 
		421.7,38.6 421.6,38.8 421.6,39 421.9,37.7 419.7,37.7 	"/>
	<g>
		<g>
			<polyline class="st9" points="418.4,45.5 420.4,45.5 420.4,45.5 421.2,41.3 421.2,41.3 421.2,41.2 421.2,41.1 421.2,40.9 
				421.3,40.8 421.3,40.5 421.5,40.4 421.5,40.2 421.6,40.1 421.7,40.1 421.9,40 422,39.8 422.3,39.8 422.4,39.7 422.7,39.7 
				422.9,39.6 423.2,39.6 423.2,39.6 423.2,39.6 423.2,39.6 423.2,39.6 423.3,39.6 423.3,39.6 423.3,39.6 423.3,39.7 423.3,39.7 
				423.3,39.7 423.5,39.6 423.5,39.6 423.5,39.4 423.5,39.2 423.6,39 423.6,38.8 423.6,38.6 423.7,38.4 423.7,38.4 423.7,38.2 
				423.9,38.1 423.9,38 424,37.8 424.1,37.8 424.1,37.7 424.1,37.7 424.1,37.6 424.1,37.6 424.1,37.6 424.1,37.6 424.1,37.6 
				424,37.6 424,37.6 424,37.6 423.9,37.6 423.9,37.6 423.9,37.6 423.6,37.6 423.5,37.6 423.2,37.7 423.1,37.7 422.9,37.7 
				422.7,37.8 422.5,37.8 422.4,38 422.3,38.1 422.3,38.2 422.1,38.4 422,38.4 421.9,38.5 421.7,38.6 421.6,38.8 421.6,39 
				421.9,37.7 419.7,37.7 418.4,45.5 418.4,45.5 			"/>
		</g>
	</g>
	<g>
		<g>
			<polygon class="st6" points="450.6,53.3 450.6,53.3 450.7,53 450.8,52.9 450.8,52.7 451.1,52.6 451.2,52.4 451.4,52.4 
				451.6,52.4 451.8,52.4 452,52.4 452.2,52.6 452.3,52.7 452.4,52.9 452.6,53 452.6,53.3 452.6,53.3 452.4,53.3 452.4,53.1 
				452.3,53 452.2,52.9 452,52.7 451.9,52.6 451.8,52.6 451.6,52.6 451.5,52.6 451.2,52.6 451.1,52.7 451,52.9 451,53 450.8,53.1 
				450.8,53.3 			"/>
			<polygon class="st6" points="451.2,53.3 451.2,53 451.6,53 451.8,53 451.8,53 451.9,53 451.9,53 451.9,53.1 452,53.1 452,53.1 
				452,53.3 451.9,53.3 451.9,53.1 451.9,53.1 451.9,53.1 451.8,53.1 451.8,53.1 451.8,53.1 451.8,53.1 451.6,53.1 451.6,53.1 
				451.4,53.1 451.4,53.3 			"/>
			<polygon class="st6" points="450.6,53.4 450.6,53.3 450.8,53.3 450.8,53.3 450.8,53.4 			"/>
			<polygon class="st6" points="451.2,53.4 451.2,53.3 451.4,53.3 451.4,53.4 451.6,53.4 451.6,53.4 451.8,53.4 451.8,53.4 
				451.8,53.3 451.9,53.3 451.9,53.3 451.9,53.3 451.9,53.3 452,53.3 452,53.3 452,53.3 452,53.3 452,53.4 451.9,53.4 			"/>
			<polygon class="st6" points="452.4,53.4 452.4,53.3 452.4,53.3 452.6,53.3 452.7,53.4 			"/>
			<polygon class="st6" points="450.6,53.4 450.6,53.4 450.6,53.7 450.7,53.8 450.8,53.9 450.8,54.2 451.1,54.3 451.2,54.3 
				451.4,54.5 451.6,54.5 451.8,54.5 452,54.3 452.2,54.3 452.3,54.2 452.4,53.9 452.6,53.8 452.6,53.7 452.7,53.4 452.7,53.4 
				452.4,53.4 452.4,53.4 452.4,53.5 452.4,53.8 452.3,53.9 452.2,54.1 452,54.1 451.9,54.2 451.8,54.2 451.6,54.2 451.5,54.2 
				451.2,54.2 451.1,54.1 451,54.1 451,53.9 450.8,53.8 450.8,53.5 450.8,53.4 450.8,53.4 			"/>
			<polygon class="st6" points="451.2,53.4 451.2,53.8 451.4,53.8 451.4,53.4 451.6,53.4 451.9,53.8 452,53.8 451.8,53.4 
				451.8,53.4 451.9,53.4 451.9,53.4 451.9,53.4 451.9,53.4 			"/>
		</g>
	</g>
</g>
<g>
	<g>
		<polygon class="st10" points="557.3,24.3 538.6,24.3 538.6,26 557,26 		"/>
		<polygon class="st10" points="556.5,29.3 527,29.3 527,31 556.2,31 		"/>
		<polygon class="st10" points="555.7,34.2 514.8,34.2 514.8,36 555.4,36 		"/>
	</g>
	<path class="st10" d="M561,22.8c0-0.3,0.4-0.5,0.7-0.5h16.2c0.3,0,0.4,0.3,0.4,0.5L577,31c0,0.3-0.3,0.4-0.5,0.4h-7.6
		c-0.1,0-0.4,0.1-0.4,0.3l-0.4,2.5c0,0.1,0.1,0.3,0.3,0.3h3.6c0.1,0,0.3,0.1,0.3,0.3l-1.3,8.3c0,0.3-0.3,0.4-0.4,0.4h-3.8
		c-0.1,0-0.4,0.1-0.4,0.4l-0.4,2.7c0,0.1,0.1,0.3,0.3,0.3h7.9c0.3,0,0.4,0.3,0.4,0.4l-1.3,8.4c0,0.3-0.3,0.5-0.5,0.5h-16.4
		c-0.3,0-0.4-0.3-0.4-0.5L561,22.8z"/>
	<path class="st10" d="M580.2,22.8c0-0.3,0.3-0.7,0.7-0.7h16.5c0.3,0,0.5,0.3,0.4,0.5l-1.3,7.9c0,0.3-0.4,0.5-0.7,0.5h-7.4
		c-0.3,0-0.5,0.1-0.5,0.5l-0.4,2.7c0,0.3,0.1,0.4,0.4,0.4h3.5c0.3,0,0.4,0.3,0.4,0.4l-1.3,8.3c0,0.3-0.3,0.5-0.7,0.5h-3.5
		c-0.3,0-0.5,0.3-0.5,0.5l-1.7,11.1c0,0.4-0.3,0.7-0.7,0.7h-7.9c-0.3,0-0.4-0.3-0.4-0.5L580.2,22.8z"/>
	<path class="st10" d="M600,56.5c-0.3,0-0.5-0.3-0.5-0.7l3.9-23.9c0-0.3-0.1-0.5-0.5-0.5h-4.6c-0.3,0-0.5-0.4-0.5-0.7l1.3-8.2
		c0-0.3,0.3-0.4,0.5-0.4h19.6c0.3,0,0.5,0.1,0.5,0.5l-1.3,8c0,0.4-0.4,0.7-0.8,0.7H613c-0.3,0-0.5,0.3-0.7,0.7l-3.8,23.9
		c0,0.3-0.4,0.5-0.7,0.5H600z"/>
	<path class="st11" d="M473.7,39.2c0,0.7-0.1,1.2-0.4,1.5c-0.3,0.3-0.8,0.4-1.6,0.4c-0.8,0-1.3-0.1-1.6-0.4
		c-0.3-0.3-0.4-0.7-0.4-1.3c0-0.7,0.1-1.2,0.4-1.5c0.3-0.3,0.8-0.4,1.6-0.4c0.8,0,1.3,0.1,1.6,0.4C473.6,38.1,473.7,38.5,473.7,39.2
		 M473.5,55.8c0,0.1,0,0.1-0.1,0.3c0,0.1-0.1,0.1-0.3,0.1s-0.3,0.1-0.5,0.1c-0.3,0-0.5,0-0.8,0c-0.4,0-0.7,0-0.8,0
		c-0.3,0-0.4,0-0.5-0.1c-0.1,0-0.3-0.1-0.3-0.1c0-0.1-0.1-0.1-0.1-0.3V43.5c0-0.1,0-0.1,0.1-0.3c0-0.1,0.1-0.1,0.3-0.1
		c0.1,0,0.3-0.1,0.5-0.1c0.3,0,0.5,0,0.8,0c0.4,0,0.7,0,0.8,0c0.3,0,0.4,0.1,0.5,0.1s0.3,0.1,0.3,0.1c0,0.1,0.1,0.1,0.1,0.3V55.8z"
		/>
	<path class="st11" d="M488.6,55.8c0,0.1,0,0.1-0.1,0.3c0,0.1-0.1,0.1-0.3,0.1s-0.3,0.1-0.5,0.1s-0.5,0-0.8,0c-0.4,0-0.7,0-0.8,0
		c-0.3,0-0.4,0-0.5-0.1c-0.1,0-0.3-0.1-0.3-0.1c0-0.1-0.1-0.1-0.1-0.3v-7.1c0-0.5,0-1.1-0.1-1.5c-0.1-0.4-0.3-0.7-0.4-0.9
		c-0.1-0.3-0.4-0.4-0.7-0.5s-0.5-0.1-0.9-0.1s-0.9,0.1-1.3,0.5c-0.4,0.3-0.9,0.8-1.5,1.5v8.2c0,0.1,0,0.1-0.1,0.3
		c0,0.1-0.1,0.1-0.3,0.1s-0.3,0.1-0.5,0.1s-0.5,0-0.8,0c-0.4,0-0.7,0-0.8,0c-0.3,0-0.4,0-0.5-0.1c-0.1,0-0.3-0.1-0.3-0.1
		c0-0.1-0.1-0.1-0.1-0.3V43.5c0-0.1,0-0.1,0.1-0.3c0-0.1,0.1-0.1,0.3-0.1s0.3-0.1,0.4-0.1c0.1,0,0.4,0,0.7,0s0.5,0,0.7,0
		s0.4,0,0.4,0.1c0.1,0,0.1,0.1,0.3,0.1c0,0.1,0.1,0.1,0.1,0.3v1.5c0.7-0.8,1.3-1.3,2.1-1.6c0.7-0.4,1.5-0.5,2.1-0.5
		c0.8,0,1.6,0.1,2.1,0.4c0.5,0.3,1.1,0.7,1.3,1.1c0.4,0.5,0.7,1.1,0.8,1.6c0.1,0.7,0.3,1.3,0.3,2.3L488.6,55.8L488.6,55.8z"/>
	<path class="st11" d="M500.8,52.3c0,0.7-0.1,1.3-0.4,1.9c-0.3,0.5-0.7,0.9-1.1,1.3c-0.5,0.4-1.1,0.7-1.7,0.8
		c-0.7,0.1-1.3,0.3-2.1,0.3c-0.4,0-0.9,0-1.3-0.1s-0.8-0.1-1.1-0.3c-0.3-0.1-0.7-0.3-0.8-0.3c-0.3-0.1-0.4-0.3-0.5-0.3
		c-0.1-0.1-0.1-0.3-0.3-0.4c0-0.3-0.1-0.5-0.1-0.9c0-0.3,0-0.5,0-0.7s0-0.3,0.1-0.4c0-0.1,0.1-0.1,0.1-0.1s0.1,0,0.3,0
		s0.3,0,0.4,0.1c0.1,0.1,0.4,0.3,0.8,0.4c0.3,0.1,0.7,0.3,1.1,0.4c0.4,0.1,0.8,0.1,1.3,0.1c0.3,0,0.5,0,0.8-0.1
		c0.3,0,0.4-0.1,0.7-0.3c0.1-0.1,0.3-0.3,0.4-0.4c0.1-0.1,0.1-0.4,0.1-0.7c0-0.3-0.1-0.5-0.3-0.7c-0.1-0.1-0.4-0.4-0.7-0.5
		c-0.3-0.1-0.5-0.3-0.9-0.4s-0.7-0.3-1.1-0.4c-0.4-0.1-0.8-0.4-1.1-0.5c-0.4-0.3-0.7-0.4-0.9-0.8c-0.3-0.3-0.5-0.7-0.7-1.1
		c-0.1-0.4-0.3-0.9-0.3-1.5s0.1-1.1,0.4-1.6c0.3-0.5,0.5-0.9,0.9-1.2c0.4-0.4,0.9-0.7,1.6-0.8c0.7-0.1,1.3-0.3,2.1-0.3
		c0.4,0,0.8,0,1.1,0.1c0.4,0,0.7,0.1,0.9,0.3c0.3,0.1,0.5,0.1,0.8,0.3c0.3,0.1,0.4,0.1,0.4,0.3C500,44,500,44,500,44.1
		c0,0.1,0,0.1,0.1,0.3c0,0.1,0,0.3,0,0.4s0,0.3,0,0.5s0,0.4,0,0.7c0,0.1,0,0.3-0.1,0.4c0,0.1-0.1,0.1-0.1,0.1h-0.1
		c-0.1,0-0.3,0-0.4-0.1c-0.1-0.1-0.4-0.1-0.7-0.3c-0.3-0.1-0.5-0.3-0.9-0.3c-0.4-0.1-0.8-0.1-1.2-0.1c-0.3,0-0.5,0-0.8,0.1
		c-0.3,0-0.4,0.1-0.5,0.3c-0.1,0.1-0.3,0.3-0.3,0.4c-0.1,0.1-0.1,0.3-0.1,0.5s0.1,0.5,0.3,0.7c0.1,0.1,0.4,0.4,0.7,0.5
		c0.3,0.1,0.7,0.3,0.9,0.4c0.4,0.1,0.7,0.3,1.1,0.4c0.4,0.1,0.8,0.3,1.1,0.5c0.4,0.3,0.7,0.4,0.9,0.8c0.3,0.3,0.5,0.7,0.7,1.1
		C500.7,51.2,500.8,51.6,500.8,52.3"/>
	<path class="st11" d="M510.3,54.5c0,0.4,0,0.7-0.1,0.9c0,0.3-0.1,0.4-0.1,0.4c-0.1,0.1-0.3,0.1-0.4,0.3c-0.1,0.1-0.4,0.1-0.5,0.1
		c-0.3,0-0.4,0.1-0.7,0.1s-0.5,0-0.8,0c-0.7,0-1.3-0.1-1.7-0.3c-0.5-0.1-0.9-0.4-1.2-0.8c-0.3-0.4-0.5-0.8-0.7-1.3
		c-0.1-0.5-0.3-1.2-0.3-2v-6.3h-1.5c-0.1,0-0.3-0.1-0.4-0.3c-0.1-0.3-0.1-0.5-0.1-1.1c0-0.3,0-0.5,0-0.7s0-0.3,0.1-0.4
		c0-0.1,0.1-0.1,0.1-0.3c0.1,0,0.1-0.1,0.3-0.1h1.5V40c0-0.1,0-0.1,0.1-0.3c0-0.1,0.1-0.1,0.3-0.1c0.1,0,0.3-0.1,0.5-0.1
		c0.3,0,0.5,0,0.8,0c0.4,0,0.7,0,0.8,0c0.3,0,0.4,0,0.5,0.1c0.1,0,0.3,0.1,0.3,0.1c0,0.1,0.1,0.1,0.1,0.3v2.8h2.7
		c0.1,0,0.1,0,0.3,0.1c0.1,0,0.1,0.1,0.1,0.3c0,0.1,0.1,0.3,0.1,0.4c0,0.1,0,0.4,0,0.7c0,0.5,0,0.8-0.1,1.1
		c-0.1,0.3-0.3,0.3-0.4,0.3h-2.7v5.8c0,0.7,0.1,1.2,0.3,1.5c0.3,0.4,0.5,0.5,1.1,0.5c0.1,0,0.4,0,0.5,0s0.3-0.1,0.4-0.1
		s0.3-0.1,0.3-0.1c0.1,0,0.1,0,0.3,0h0.1l0.1,0.1c0,0.1,0,0.3,0.1,0.4C510.3,54.1,510.3,54.3,510.3,54.5"/>
	<path class="st11" d="M523.1,55.8c0,0.1,0,0.3-0.1,0.3c-0.1,0.1-0.3,0.1-0.4,0.1c-0.1,0-0.5,0-0.9,0c-0.4,0-0.7,0-0.9,0
		c-0.1,0-0.3-0.1-0.4-0.1c-0.1-0.1-0.1-0.1-0.1-0.3v-0.9c-0.5,0.5-1.1,0.9-1.7,1.2c-0.7,0.3-1.3,0.4-2.1,0.4c-0.7,0-1.2-0.1-1.7-0.3
		c-0.5-0.1-1.1-0.4-1.5-0.8c-0.4-0.4-0.7-0.8-0.9-1.2c-0.3-0.5-0.3-1.1-0.3-1.7c0-0.7,0.1-1.3,0.4-1.9s0.7-0.9,1.2-1.3
		s1.2-0.5,2.1-0.8c0.8-0.1,1.7-0.3,2.9-0.3h1.2v-0.8c0-0.4,0-0.7-0.1-1.1c-0.1-0.3-0.3-0.5-0.4-0.7c-0.1-0.1-0.4-0.4-0.7-0.4
		c-0.3-0.1-0.7-0.1-1.1-0.1c-0.5,0-1.1,0-1.6,0.1c-0.4,0.1-0.8,0.3-1.2,0.4c-0.4,0.1-0.7,0.3-0.9,0.4s-0.4,0.1-0.5,0.1
		s-0.1,0-0.3-0.1c-0.1,0-0.1-0.1-0.1-0.3c0-0.1-0.1-0.3-0.1-0.4c0-0.1,0-0.4,0-0.5c0-0.3,0-0.5,0.1-0.7c0-0.1,0.1-0.3,0.3-0.4
		c0.1-0.1,0.4-0.3,0.7-0.4c0.3-0.1,0.7-0.3,1.1-0.4c0.4-0.1,0.9-0.3,1.5-0.4s1.1-0.1,1.6-0.1c0.9,0,1.7,0.1,2.5,0.3
		c0.7,0.1,1.2,0.5,1.7,0.9c0.4,0.4,0.8,0.9,0.9,1.5c0.3,0.7,0.3,1.3,0.3,2.1v8.6C523.4,55.8,523.1,55.8,523.1,55.8z M519.7,50.4
		h-1.3c-0.5,0-1.1,0-1.5,0.1c-0.4,0.1-0.7,0.3-0.9,0.4c-0.3,0.1-0.4,0.4-0.5,0.5c-0.1,0.3-0.1,0.5-0.1,0.8c0,0.5,0.1,0.9,0.5,1.2
		c0.3,0.3,0.8,0.4,1.3,0.4c0.5,0,0.9-0.1,1.3-0.4c0.4-0.3,0.8-0.7,1.2-1.1L519.7,50.4L519.7,50.4z"/>
	<path class="st11" d="M538.4,55.8c0,0.1,0,0.1-0.1,0.3c0,0.1-0.1,0.1-0.3,0.1c-0.1,0-0.3,0.1-0.5,0.1s-0.5,0-0.8,0
		c-0.4,0-0.7,0-0.8,0c-0.3,0-0.4,0-0.5-0.1c-0.1,0-0.3-0.1-0.3-0.1c0-0.1-0.1-0.1-0.1-0.3v-7.1c0-0.5,0-1.1-0.1-1.5
		c-0.1-0.4-0.3-0.7-0.4-0.9c-0.1-0.3-0.4-0.4-0.7-0.5s-0.5-0.1-0.9-0.1c-0.4,0-0.9,0.1-1.3,0.5c-0.4,0.3-0.9,0.8-1.5,1.5v8.2
		c0,0.1,0,0.1-0.1,0.3c0,0.1-0.1,0.1-0.3,0.1c-0.1,0-0.3,0.1-0.5,0.1s-0.5,0-0.8,0c-0.4,0-0.7,0-0.8,0c-0.3,0-0.4,0-0.5-0.1
		c-0.1,0-0.3-0.1-0.3-0.1c0-0.1-0.1-0.1-0.1-0.3V43.5c0-0.1,0-0.1,0.1-0.3c0-0.1,0.1-0.1,0.3-0.1c0.1,0,0.3-0.1,0.4-0.1
		c0.1,0,0.4,0,0.7,0s0.5,0,0.7,0c0.1,0,0.4,0,0.4,0.1c0.1,0,0.1,0.1,0.3,0.1c0,0.1,0.1,0.1,0.1,0.3v1.5c0.7-0.8,1.3-1.3,2.1-1.6
		c0.7-0.4,1.5-0.5,2.1-0.5c0.8,0,1.6,0.1,2.1,0.4c0.5,0.3,1.1,0.7,1.3,1.1c0.4,0.5,0.7,1.1,0.8,1.6c0.1,0.7,0.3,1.3,0.3,2.3
		L538.4,55.8L538.4,55.8z"/>
	<path class="st11" d="M548.8,54.5c0,0.4,0,0.7-0.1,0.9c0,0.3-0.1,0.4-0.1,0.4c-0.1,0.1-0.3,0.1-0.4,0.3c-0.1,0.1-0.4,0.1-0.5,0.1
		c-0.3,0-0.4,0.1-0.7,0.1s-0.5,0-0.8,0c-0.7,0-1.3-0.1-1.7-0.3c-0.5-0.1-0.9-0.4-1.2-0.8s-0.5-0.8-0.7-1.3c-0.1-0.5-0.3-1.2-0.3-2
		v-6.3h-1.5c-0.1,0-0.3-0.1-0.4-0.3c-0.1-0.3-0.1-0.5-0.1-1.1c0-0.3,0-0.5,0-0.7s0-0.3,0.1-0.4c0-0.1,0.1-0.1,0.1-0.3
		c0.1,0,0.1-0.1,0.3-0.1h1.5V40c0-0.1,0-0.1,0.1-0.3c0-0.1,0.1-0.1,0.3-0.1c0.1,0,0.3-0.1,0.5-0.1s0.5,0,0.8,0c0.4,0,0.7,0,0.8,0
		c0.3,0,0.4,0,0.5,0.1c0.1,0,0.3,0.1,0.3,0.1c0,0.1,0.1,0.1,0.1,0.3v2.8h2.7c0.1,0,0.1,0,0.3,0.1c0.1,0,0.1,0.1,0.1,0.3
		c0,0.1,0.1,0.3,0.1,0.4c0,0.1,0,0.4,0,0.7c0,0.5,0,0.8-0.1,1.1c-0.1,0.3-0.3,0.3-0.4,0.3h-2.7v5.8c0,0.7,0.1,1.2,0.3,1.5
		c0.3,0.4,0.5,0.5,1.1,0.5c0.1,0,0.4,0,0.5,0c0.1,0,0.3-0.1,0.4-0.1c0.1,0,0.3-0.1,0.3-0.1c0.1,0,0.1,0,0.3,0h0.1l0.1,0.1
		c0,0.1,0,0.3,0.1,0.4C548.8,54.1,548.8,54.3,548.8,54.5"/>
</g>
</svg>
