<?xml version="1.0" encoding="utf-8"?>
<!-- Generator: Adobe Illustrator 19.2.1, SVG Export Plug-In . SVG Version: 6.00 Build 0)  -->
<svg version="1.1" id="Layer_1" xmlns="http://www.w3.org/2000/svg" xmlns:xlink="http://www.w3.org/1999/xlink" x="0px" y="0px"
	 viewBox="0 0 100 100" style="enable-background:new 0 0 100 100;" xml:space="preserve">
<style type="text/css">
	.st0{fill:#010101;}
	.st1{fill:#FBAA1B;}
</style>
<g>
	<g>
		<g>
			<path class="st0" d="M7.1,98.2c-1.2,0-2.1-1-2.1-2.1V5.3c0-1.2,1-2.1,2.1-2.1c1.2,0,2.1,1,2.1,2.1v90.7
				C9.3,97.2,8.3,98.2,7.1,98.2z"/>
		</g>
		<g>
			<path class="st0" d="M97.9,98.2h-91c-1.2,0-2.1-1.2-1.9-2.5c0.1-1.1,1-1.8,2-1.8h91c1.2,0,2.1,1.2,1.9,2.5
				C99.8,97.5,98.9,98.2,97.9,98.2z"/>
		</g>
		<g>
			<path class="st0" d="M28.7,76.6c-5.9,0-10.8-4.8-10.8-10.8c0-5.9,4.8-10.8,10.8-10.8s10.8,4.8,10.8,10.8
				C39.5,71.8,34.7,76.6,28.7,76.6z M28.7,59.3c-3.6,0-6.5,2.9-6.5,6.5s2.9,6.5,6.5,6.5s6.5-2.9,6.5-6.5
				C35.2,62.2,32.3,59.3,28.7,59.3z"/>
		</g>
		<g>
			<path class="st0" d="M54.6,50.7c-5.9,0-10.8-4.8-10.8-10.8s4.8-10.8,10.8-10.8s10.8,4.8,10.8,10.8S60.6,50.7,54.6,50.7z
				 M54.6,33.4c-3.6,0-6.5,2.9-6.5,6.5c0,3.6,2.9,6.5,6.5,6.5c3.6,0,6.5-2.9,6.5-6.5C61.1,36.3,58.2,33.4,54.6,33.4z"/>
		</g>
		<g>
			<path class="st0" d="M84.9,33.4c-5.9,0-10.8-4.8-10.8-10.8s4.8-10.8,10.8-10.8c5.9,0,10.8,4.8,10.8,10.8S90.8,33.4,84.9,33.4z
				 M84.9,16.1c-3.6,0-6.5,2.9-6.5,6.5s2.9,6.5,6.5,6.5s6.5-2.9,6.5-6.5C91.4,19,88.4,16.1,84.9,16.1z"/>
		</g>
	</g>
	<g>
		<path class="st0" d="M28.7,89.5c-1.2,0-2.1-1-2.1-2.1v-4.3c0-1.2,1-2.1,2.1-2.1c1.2,0,2.1,1,2.1,2.1v4.3
			C30.9,88.6,29.9,89.5,28.7,89.5z"/>
	</g>
	<g>
		<path class="st0" d="M54.6,89.5c-1.2,0-2.1-1-2.1-2.1V57.2c0-1.2,1-2.1,2.1-2.1s2.1,1,2.1,2.1v30.2C56.8,88.6,55.8,89.5,54.6,89.5
			z"/>
	</g>
	<g>
		<path class="st0" d="M84.9,89.5c-1.2,0-2.1-1-2.1-2.1V39.9c0-1.2,1-2.1,2.1-2.1c1.2,0,2.1,1,2.1,2.1v47.5
			C87,88.6,86.1,89.5,84.9,89.5z"/>
	</g>
	<g>
		<path class="st0" d="M35.2,61.5c-0.5,0-1.1-0.2-1.5-0.6c-0.8-0.8-0.8-2.2,0-3.1l13-13c0.8-0.8,2.2-0.8,3.1,0
			c0.8,0.8,0.8,2.2,0,3.1l-13,12.9C36.3,61.3,35.8,61.5,35.2,61.5z"/>
	</g>
	<g>
		<path class="st0" d="M63.3,37.7c-0.7,0-1.4-0.3-1.8-0.9c-0.7-1-0.4-2.3,0.6-3l13-8.6c1-0.7,2.3-0.4,3,0.6c0.7,1,0.4,2.3-0.6,3
			l-13,8.6C64.1,37.6,63.7,37.7,63.3,37.7z"/>
	</g>
</g>
<circle class="st1" cx="54.6" cy="39.5" r="7.2"/>
<circle class="st1" cx="84.9" cy="22.6" r="7.2"/>
<circle class="st1" cx="28.7" cy="65.8" r="7.2"/>
</svg>
