<?xml version="1.0" encoding="utf-8"?>
<!-- Generator: Adobe Illustrator 19.2.1, SVG Export Plug-In . SVG Version: 6.00 Build 0)  -->
<svg version="1.1" id="Layer_1" xmlns="http://www.w3.org/2000/svg" xmlns:xlink="http://www.w3.org/1999/xlink" x="0px" y="0px"
	 viewBox="0 0 100 100" style="enable-background:new 0 0 100 100;" xml:space="preserve">
<style type="text/css">
	.st0{fill:#F89B17;}
</style>
<g id="ciBfP0.tif">
	<g>
		<path d="M34.5,4c1.4,0,2.7,0,4.1,0c1.9,0,3.3,1.4,3.3,3.3c0,0.9,0,1.8,0,2.8c0,0.5,0.2,0.7,0.6,0.8c2,0.8,3.9,1.6,5.8,2.4
			c0.4,0.2,0.6,0.2,0.9-0.1c0.6-0.6,1.2-1.2,1.9-1.9c1.5-1.5,3.5-1.6,5-0.1c1.9,1.9,3.9,3.9,5.8,5.8c1.2,1.2,1.1,3.4-0.2,4.7
			c-0.7,0.6-1.3,1.3-2,1.9c-0.3,0.3-0.4,0.5-0.1,0.9c1,1.9,1.9,3.9,2.4,5.9c0.1,0.4,0.4,0.5,0.7,0.5c0.9,0,1.9,0,2.8,0
			c1.9,0,3.3,1.4,3.3,3.3c0,2.8,0,5.6,0,8.3c0,1.8-1.5,3.2-3.3,3.2c-0.9,0-1.9,0-2.8,0c-0.5,0-0.7,0.2-0.8,0.6
			c-0.8,1.9-1.6,3.9-2.4,5.8c-0.2,0.4-0.2,0.7,0.1,1c0.7,0.7,1.3,1.4,2,2c1.3,1.4,1.4,3.3,0,4.7c-1.9,2-3.9,3.9-5.8,5.9
			c-1.4,1.3-3.6,1.2-4.8-0.2c-0.6-0.7-1.2-1.3-1.9-1.9c-0.2-0.2-0.6-0.2-0.8-0.1c-1.9,1-3.9,1.9-6,2.5c-0.2,0.1-0.5,0.5-0.5,0.7
			c-0.1,0.9,0,1.9,0,2.8c0,1.9-1.5,3.3-3.3,3.3c-2.7,0-5.4,0-8.2,0c-1.9,0-3.4-1.6-3.4-3.5c0-0.9,0-1.8,0-2.7c0-0.4-0.2-0.7-0.6-0.8
			c-1.6-0.6-3.2-1.2-4.7-1.8c-0.4-0.2-0.7-0.3-1-0.5c-0.5-0.3-0.7-0.1-1.1,0.2c-0.7,0.7-1.4,1.5-2.2,2.2c-1.4,1.1-3.2,1-4.5-0.3
			c-1.9-1.8-3.7-3.7-5.6-5.5c-1.5-1.5-1.5-3.8,0-5.1c0.6-0.6,1.2-1.2,1.8-1.8c0.3-0.3,0.3-0.6,0.2-1c-0.8-1.9-1.6-3.9-2.4-5.8
			c-0.2-0.4-0.4-0.6-0.8-0.6c-0.9,0-1.9,0-2.8,0c-1.9,0-3.3-1.4-3.3-3.3c0-2.7,0.1-5.4,0-8C0,32.4,1.7,31,3.4,31
			c0.8,0,1.7-0.1,2.5,0c0.7,0.1,0.9-0.3,1.2-0.9c0.7-1.8,1.4-3.5,2.2-5.3c0.3-0.6,0.3-1-0.3-1.4c-0.7-0.6-1.3-1.2-1.9-1.9
			c-1.2-1.3-1.1-3.4,0.1-4.7c2-1.9,3.9-3.9,5.9-5.8c1.1-1.1,3.1-1.2,4.3-0.2c0.8,0.7,1.6,1.5,2.4,2.3c0.3,0.3,0.5,0.3,0.9,0.1
			c1.9-0.8,3.9-1.7,5.8-2.4c0.4-0.2,0.6-0.4,0.6-0.8c0-0.9,0-1.9,0-2.8c0-1.9,1.5-3.3,3.4-3.4C31.7,4,33.1,4,34.5,4z M59.5,19.5
			c-2-2-4-4-6.1-6.1c-0.7,0.8-1.4,1.6-2.1,2.3c-1.2,1.2-2.9,1.4-4.4,0.6c-1.8-1-3.7-1.8-5.7-2.3c-0.8-0.2-1.4-0.7-1.9-1.4
			c-0.5-0.7-0.7-1.5-0.7-2.3c0-1,0-2,0-3c-2.9,0-5.6,0-8.4,0c0,1.1,0,2.1,0,3.1c0,1.7-1,3-2.5,3.5c-2,0.6-3.9,1.4-5.8,2.4
			c-1.4,0.8-3.1,0.5-4.3-0.6c-0.8-0.7-1.5-1.6-2.1-2.3c-2.1,2.1-4.1,4-6,6c0.6,0.6,1.2,1.2,1.8,1.8c1.6,1.5,1.8,3.2,0.8,5.2
			c-0.8,1.5-1.4,3-1.9,4.6c-0.8,2.4-1.9,3.3-4.3,3.3c-0.9,0-1.7,0-2.6,0c0,2.9,0,5.6,0,8.4c1.1,0,2.1,0,3,0c1.9,0,3.2,1.1,3.8,2.9
			c0.6,1.7,1.2,3.4,2.1,5c1,2,0.8,3.6-0.8,5.2c-0.6,0.6-1.3,1.2-2,1.9c2,2,3.9,3.9,5.8,5.7c0.1,0.1,0.4,0.1,0.5,0
			c0.6-0.5,1.1-1.1,1.7-1.7c1.4-1.5,3.1-1.7,5-0.8c1.6,0.8,3.4,1.5,5.1,2.1c1.7,0.6,2.8,1.9,2.8,3.6c0,0.9,0,1.8,0,2.7
			c0,0.2,0,0.4,0.1,0.5c2.8,0,5.6,0,8.4,0c0-1.1,0-2.1,0-3.1c0-1.8,1.1-3.1,2.9-3.7c1.7-0.6,3.4-1.2,5-2c1.8-1,3.9-0.8,5.4,0.9
			c0.5,0.6,1.1,1.1,1.8,1.7c2-2,3.9-4,5.9-6c-0.7-0.6-1.3-1.3-2-1.9c-1.5-1.4-1.7-3.1-0.8-4.9c0.8-1.6,1.6-3.3,2.1-5
			c0.6-1.9,2.1-3.2,4.1-3.1c0.9,0.1,1.8,0,2.7,0c0-2.9,0-5.6,0-8.4c-1.1,0-2.1,0-3.1,0c-1.7,0-3-1-3.5-2.6c-0.6-2-1.4-3.9-2.4-5.8
			c-0.7-1.4-0.5-3.1,0.6-4.2C57.9,20.9,58.7,20.2,59.5,19.5z"/>
		<path d="M93.3,83.7c-0.8,1-1.6,1.9-2.4,2.8c-0.1,0.2-0.2,0.5-0.1,0.6c0.2,0.4,0.4,0.8,0.6,1.2c0.7,1.4,0.2,3-1.2,3.7
			c-1.5,0.8-3,1.6-4.5,2.3c-1.3,0.7-2.7,0.3-3.5-0.7c-0.5-0.6-0.7-1.3-1.1-1.9c-1.4,0.1-2.7,0.3-4.1,0.4c-0.2,0.5-0.3,1-0.5,1.6
			c-0.6,1.6-1.9,2.2-3.5,1.8c-1.7-0.5-3.3-1-4.9-1.6c-1.4-0.5-2.2-1.9-1.8-3.3c0.1-0.4,0.2-0.8,0.3-1.1c0.2-0.4,0.1-0.7-0.3-1
			c-0.7-0.6-1.5-1.2-2.1-1.8c-0.4-0.4-0.7-0.4-1.1-0.1c-0.8,0.5-1.5,0.9-2.5,0.8c-0.9-0.1-1.6-0.6-2-1.3c-0.9-1.6-1.7-3.1-2.5-4.7
			c-0.7-1.5-0.2-3,1.2-3.7c1.5-0.8,1.5-0.8,1.2-2.4c-0.1-0.6-0.1-1.3-0.1-1.9c0-0.3-0.1-0.5-0.4-0.6c-0.5-0.1-0.9-0.3-1.4-0.4
			c-1.5-0.5-2.2-2-1.7-3.5c0.5-1.5,1-3,1.4-4.5c0.6-2,2.4-2.7,3.9-2.1c1.3,0.5,1.3,0.4,2.1-0.7c0.4-0.6,0.9-1.1,1.4-1.6
			c0.3-0.3,0.4-0.5,0.2-0.9c-0.3-0.4-0.4-0.8-0.6-1.2c-0.6-1.3-0.1-2.8,1.2-3.5c1.5-0.8,3.1-1.6,4.6-2.4c1.4-0.7,3-0.2,3.7,1.2
			c0.3,0.5,0.4,1.1,0.8,1.4c0.4,0.2,1,0,1.6-0.1c0.7-0.1,1.3-0.1,2-0.1c0.4,0,0.6-0.1,0.6-0.5c0.1-0.5,0.3-0.9,0.4-1.4
			c0.5-1.4,2-2.1,3.5-1.7c1.6,0.5,3.2,1,4.7,1.5c1.6,0.5,2.3,1.9,1.9,3.5c-0.2,0.6-0.3,1.1-0.5,1.6c1,0.8,1.9,1.7,2.8,2.4
			c0.1,0.1,0.4,0.1,0.6,0.1c0.5-0.2,0.9-0.5,1.3-0.7c1.4-0.6,2.9-0.1,3.6,1.3c0.7,1.4,1.4,2.8,2.2,4.2c1,1.8,0.5,3.4-1.4,4.3
			c-1.1,0.6-1.1,0.6-0.9,1.8c0.1,0.9,0.1,1.8,0.2,2.9c0.4,0.1,0.9,0.3,1.4,0.4c1.7,0.5,2.5,1.9,2,3.6c-0.5,1.7-1,3.3-1.6,5
			c-0.5,1.4-1.9,2.1-3.3,1.7C94.4,84.1,93.8,83.9,93.3,83.7z M88.3,89.4c-0.3-0.5-0.5-0.9-0.7-1.3c-0.6-1.2-0.3-2.5,0.5-3.5
			c0.9-1,1.7-2,2.5-3c0.7-0.9,1.7-1.4,2.9-1.2c0.6,0.1,1.2,0.3,1.8,0.5c0.4-1.3,0.8-2.6,1.2-4c-0.4-0.1-0.8-0.2-1.1-0.4
			c-1.7-0.6-2.3-1.5-2.3-3.3c0-1.1-0.2-2.2-0.3-3.3c-0.2-1.5,0.3-2.7,1.6-3.4c0.4-0.2,0.7-0.4,1.1-0.6c-0.7-1.2-1.3-2.5-1.9-3.7
			c-0.4,0.2-0.8,0.4-1.1,0.5c-1.2,0.7-2.8,0.5-3.8-0.5c-0.8-0.8-1.8-1.6-2.7-2.3c-1.1-0.8-1.6-2.1-1.2-3.4c0.1-0.5,0.3-0.9,0.4-1.4
			c-1.4-0.4-2.7-0.8-4-1.2c-0.1,0.4-0.3,0.8-0.4,1.2c-0.5,1.5-1.6,2.2-3.1,2.2c-1.1,0-2.3,0.1-3.4,0.3c-1.6,0.3-2.7-0.2-3.4-1.6
			c-0.2-0.4-0.4-0.8-0.6-1.1c-1.2,0.7-2.5,1.3-3.7,1.9c0.2,0.4,0.4,0.7,0.5,1c0.8,1.4,0.6,2.8-0.5,3.9c-0.8,0.8-1.6,1.8-2.2,2.7
			c-0.8,1.1-2,1.6-3.3,1.2c-0.5-0.1-0.9-0.3-1.5-0.4c-0.4,1.1-0.7,2.2-1,3.3c-0.2,0.6-0.2,0.8,0.5,0.9c1.8,0.3,2.7,1.6,2.8,3.4
			c0,1.1,0.2,2.3,0.3,3.4c0.2,1.2-0.4,2.5-1.4,3.1c-0.4,0.3-0.9,0.5-1.4,0.7c0.7,1.2,1.3,2.5,1.9,3.7c0.5-0.3,0.9-0.5,1.4-0.7
			c1.1-0.5,2.4-0.3,3.2,0.4c1,0.9,2,1.8,3,2.6c1.1,0.9,1.5,2,1.1,3.4c-0.1,0.4-0.3,0.9-0.4,1.4c1.3,0.4,2.6,0.8,4,1.2
			c0.1-0.4,0.3-0.8,0.4-1.2c0.4-1.4,1.5-2.2,3-2.2c1.2-0.1,2.3-0.2,3.5-0.3c1.5-0.2,2.6,0.2,3.4,1.5c0.3,0.4,0.5,0.9,0.7,1.3
			C85.8,90.7,87,90.1,88.3,89.4z"/>
		<path d="M48.3,38.5c0,7.6-6.2,13.8-13.8,13.8s-13.9-6.2-13.9-13.8c0-7.6,6.2-13.9,13.8-13.9C42,24.6,48.3,30.9,48.3,38.5z
			 M45.1,38.5c0-5.9-4.8-10.6-10.6-10.6c-5.9,0-10.7,4.8-10.6,10.7c0,5.8,4.8,10.6,10.6,10.6C40.3,49.1,45.1,44.3,45.1,38.5z"/>
		<path d="M77.4,82.6c-5.2,0-9.4-4.3-9.4-9.5c0-5.2,4.3-9.5,9.5-9.4c5.4,0.1,9.5,4.5,9.4,9.5C86.9,78.5,82.7,82.6,77.4,82.6z
			 M71.3,73.3c0,3.5,2.8,6.2,6.3,6.1c3.5,0,6.1-2.8,6.1-6.4c0-3.3-2.8-6-6.2-6C73.9,67,71.2,69.8,71.3,73.3z"/>
		<path class="st0" d="M45.1,38.5c0,5.9-4.8,10.6-10.6,10.6c-5.8,0-10.6-4.8-10.6-10.6c0-5.9,4.8-10.7,10.6-10.7
			C40.3,27.8,45,32.6,45.1,38.5z"/>
		<path class="st0" d="M71.3,73.3c0-3.5,2.7-6.2,6.2-6.2c3.4,0,6.2,2.7,6.2,6c0,3.5-2.7,6.3-6.1,6.4C74.1,79.4,71.3,76.7,71.3,73.3z
			"/>
	</g>
</g>
</svg>
