<?xml version="1.0" encoding="utf-8"?>
<!-- Generator: Adobe Illustrator 19.2.1, SVG Export Plug-In . SVG Version: 6.00 Build 0)  -->
<svg version="1.1" id="Layer_1" xmlns="http://www.w3.org/2000/svg" xmlns:xlink="http://www.w3.org/1999/xlink" x="0px" y="0px"
	 viewBox="0 0 100 100" style="enable-background:new 0 0 100 100;" xml:space="preserve">
<style type="text/css">
	.st0{fill:#FBAA19;}
	.st1{fill:#FFFFFF;}
</style>
<path class="st0" d="M8.4,39.5h14.1c0.5,0.2,1,0.3,1.7,0.3c2,0,2.6,0.7,2.6,2.5c0,9.3,0,18.4,0,27.7c0,6.3,0,12.6,0,18.9
	c0,0.4,0.1,0.9,0.3,1.4H8.4V39.5z"/>
<path d="M95.7,61.9c0-2.8-1.4-5.4-3.8-6.9c2.2-1.6,3.6-4.1,3.6-6.9c0-4.7-3.9-8.5-8.5-8.5h-8.8c-1.6,0-3.3,0.5-4.7,1.4
	c-0.5,0-1.4,0-2.2,0c-1.6,0-3.5,0-4.5,0v-0.2c0-0.4,0.1-0.6,0.1-0.9l0.6-7.1c0.6-6.4,1.1-12.8,1.6-19.2c0.5-5.4-1.7-9.1-6.5-10.9
	h-3.9h-0.2c-4.5,1.8-6.6,5.1-6.6,10.6c-0.1,6.9-2.9,13-8,17.5c-3,2.6-6.4,4.8-9.5,7c-1.3,0.9-2.4,1.6-3.7,2.5v-1
	c0-1.9-1.5-3.5-3.5-3.5h-2.8c-0.2,0-0.3,0-0.5,0l0,0c-0.1,0-0.2,0-0.4,0H8.4c-1.9,0-3.5,1.5-3.5,3.5v50.9c0,1.9,1.5,3.5,3.5,3.5
	h18.9c1.9,0,3.5-1.5,3.5-3.5V86c0.3,0.2,0.5,0.5,0.8,0.7c5.1,4.6,10.7,7.3,16.6,8c3.4,0.4,7.8,0.4,11.7,0.5c1.2,0,2.3,0,3.4,0
	c1.6,1.9,4,3.1,6.5,3.1h8.8c4.7,0,8.5-3.9,8.5-8.5c0-2-0.7-3.9-1.9-5.4c4.4-0.3,7.9-4,7.9-8.5c0-2.3-1-4.4-2.6-6.1
	C93.7,68.5,95.7,65.4,95.7,61.9z M74,44.8h0.3v-0.3c1.1-1.2,2.5-1.8,4-1.8h8.8c3,0,5.4,2.4,5.4,5.4c0,3-2.4,5.4-5.4,5.4h-8.8
	c-3,0-5.4-2.4-5.4-5.4C72.9,46.9,73.3,45.7,74,44.8z M8.4,39.6h14.1c0.5,0.2,1,0.3,1.7,0.3c2,0,2.6,0.7,2.6,2.5c0,9.3,0,18.4,0,27.7
	c0,6.3,0,12.6,0,18.9c0,0.4,0.1,0.9,0.3,1.4H8.4V39.6z M61.3,89.7c0,0.6,0.1,1.1,0.2,1.7c-9.9,0.4-19.4,0.1-27.4-7.4
	c-1.8-1.7-2.9-3.4-3.3-5.4v-31c0-0.9,0.4-2,1.1-2.6l0.8-0.7c2.2-2,4.6-4.2,7.2-5.7c10.3-6.3,15.6-14.9,15.9-26.8
	c0.1-3.5,1.8-5.5,4.8-5.5l0,0c2.9,0,4.7,2,4.8,5.5c0.3,9.5-0.9,18.7-2.2,28.9c-0.7,4.9-1,10-1.2,14.6c-0.5,8.2-5.1,13.2-13.2,14.2
	c-0.5,0.1-0.6,0.4-0.6,0.5c-0.2,0.9,2.1,2.1,2.2,2.2c0.9,0.5,2,0.4,2.9,0.1c6.6-1.8,11.8-8.2,12.2-15.1l1-12.4h4
	c-0.5,1.1-0.7,2.1-0.7,3.3c0,2.8,1.4,5.4,3.8,6.9c-2.2,1.6-3.6,4.1-3.6,6.9c0,2.3,1,4.4,2.6,6.1c-3.2,1.4-5.3,4.3-5.3,7.8
	c0,2,0.7,3.9,1.9,5.4C64.8,81.5,61.3,85.2,61.3,89.7z M84.6,81.2h-6.5v3.1h0.4c3,0,5.4,2.4,5.4,5.4s-2.4,5.4-5.4,5.4h-8.8
	c-3,0-5.4-2.4-5.4-5.4s2.4-5.4,5.4-5.4h6.5v-3.1h-0.4c-3,0-5.4-2.4-5.4-5.4s2.4-5.4,5.4-5.4h8.9c2.9,0.1,5.3,2.4,5.3,5.4
	S87.5,81.2,84.6,81.2z M87.3,67.3h-2.7h-6.3c-2.9-0.1-5.3-2.4-5.3-5.4s2.4-5.4,5.4-5.4h8.8c3,0,5.4,2.4,5.4,5.4
	C92.7,64.9,90.2,67.3,87.3,67.3z"/>
<g>
	<path d="M17.9,55.6c-3.7,0-6.6-3-6.6-6.6s3-6.6,6.6-6.6s6.6,3,6.6,6.6S21.5,55.6,17.9,55.6z M17.9,45.8c-1.7,0-3.1,1.4-3.1,3.1
		s1.4,3.1,3.1,3.1c1.7,0,3.1-1.4,3.1-3.1S19.6,45.8,17.9,45.8z"/>
</g>
<circle class="st1" cx="17.9" cy="48.7" r="3.1"/>
</svg>
