<?xml version="1.0" encoding="utf-8"?>
<!-- Generator: Adobe Illustrator 19.2.1, SVG Export Plug-In . SVG Version: 6.00 Build 0)  -->
<svg version="1.1" id="Layer_1" xmlns="http://www.w3.org/2000/svg" xmlns:xlink="http://www.w3.org/1999/xlink" x="0px" y="0px"
	 viewBox="0 0 147.6 108.1" style="enable-background:new 0 0 147.6 108.1;" xml:space="preserve">
<style type="text/css">
	.st0{fill:#FBAA19;}
	.st1{fill:#FFFFFF;}
</style>
<path class="st0" d="M26,39.3h14.6c0.5,0.2,1,0.3,1.8,0.3c2.1,0,2.7,0.7,2.7,2.6c0,9.6,0,19.1,0,28.7c0,6.5,0,13.1,0,19.6
	c0,0.4,0.1,0.9,0.3,1.4H26V39.3z"/>
<path d="M116.6,62.6c0-2.9-1.5-5.6-3.9-7.2c2.3-1.7,3.7-4.3,3.7-7.2c0-4.9-4-8.8-8.8-8.8h-9.1c-1.7,0-3.4,0.5-4.9,1.5
	c-0.5,0-1.4,0-2.3,0c-1.7,0-3.6,0-4.7,0l0-0.2c0-0.4,0.1-0.6,0.1-0.9l0.6-7.4c0.6-6.6,1.1-13.3,1.7-19.9c0.5-5.6-1.8-9.4-6.7-11.3
	l-4,0l-0.2,0c-4.7,1.9-6.8,5.3-6.8,11c-0.1,7.2-3,13.5-8.3,18.1c-3.1,2.7-6.6,5-9.9,7.3c-1.3,0.9-2.5,1.7-3.8,2.6v-1
	c0-2-1.6-3.6-3.6-3.6h-2.9c-0.2,0-0.3,0-0.5,0c0,0,0,0,0,0c-0.1,0-0.2,0-0.4,0H26c-2,0-3.6,1.6-3.6,3.6V92c0,2,1.6,3.6,3.6,3.6h19.6
	c2,0,3.6-1.6,3.6-3.6v-4.5c0.3,0.2,0.5,0.5,0.8,0.7c5.3,4.8,11.1,7.6,17.2,8.3c3.5,0.4,8.1,0.4,12.1,0.5c1.2,0,2.4,0,3.5,0
	c1.7,2,4.1,3.2,6.7,3.2h9.1c4.9,0,8.8-4,8.8-8.8c0-2.1-0.7-4-2-5.6c4.6-0.3,8.2-4.1,8.2-8.8c0-2.4-1-4.6-2.7-6.3
	C114.5,69.4,116.6,66.2,116.6,62.6z M94.1,44.8l0.3,0v-0.3c1.1-1.2,2.6-1.9,4.1-1.9h9.1c3.1,0,5.6,2.5,5.6,5.6
	c0,3.1-2.5,5.6-5.6,5.6h-9.1c-3.1,0-5.6-2.5-5.6-5.6C92.9,47,93.3,45.8,94.1,44.8z M26,39.4h14.6c0.5,0.2,1,0.3,1.8,0.3
	c2.1,0,2.7,0.7,2.7,2.6c0,9.6,0,19.1,0,28.7c0,6.5,0,13.1,0,19.6c0,0.4,0.1,0.9,0.3,1.4H26V39.4z M80.9,91.4c0,0.6,0.1,1.1,0.2,1.8
	c-10.3,0.4-20.1,0.1-28.4-7.7c-1.9-1.8-3-3.5-3.4-5.6V47.8c0-0.9,0.4-2.1,1.1-2.7l0.8-0.7c2.3-2.1,4.8-4.4,7.5-5.9
	C69.4,32,74.9,23,75.2,10.7c0.1-3.6,1.9-5.7,5-5.7c0,0,0,0,0,0c3,0,4.9,2.1,5,5.7c0.3,9.8-0.9,19.4-2.3,30c-0.7,5.1-1,10.4-1.2,15.1
	c-0.5,8.5-5.3,13.7-13.7,14.7c-0.5,0.1-0.6,0.4-0.6,0.5c-0.2,0.9,2.2,2.2,2.3,2.3c0.9,0.5,2.1,0.4,3,0.1c6.8-1.9,12.2-8.5,12.7-15.7
	l1-12.9h4.1c-0.5,1.1-0.7,2.2-0.7,3.4c0,2.9,1.5,5.6,3.9,7.2c-2.3,1.7-3.7,4.3-3.7,7.2c0,2.4,1,4.6,2.7,6.3
	c-3.3,1.4-5.5,4.5-5.5,8.1c0,2.1,0.7,4,2,5.6C84.5,82.9,80.9,86.7,80.9,91.4z M105,82.6h-6.7v3.2h0.4c3.1,0,5.6,2.5,5.6,5.6
	s-2.5,5.6-5.6,5.6h-9.1c-3.1,0-5.6-2.5-5.6-5.6s2.5-5.6,5.6-5.6h6.7v-3.2h-0.4c-3.1,0-5.6-2.5-5.6-5.6c0-3.1,2.5-5.6,5.6-5.6l9.2,0
	c3,0.1,5.5,2.5,5.5,5.6C110.6,80.1,108.1,82.6,105,82.6z M107.8,68.2l-2.8,0h-6.5c-3-0.1-5.5-2.5-5.5-5.6c0-3.1,2.5-5.6,5.6-5.6h9.1
	c3.1,0,5.6,2.5,5.6,5.6C113.4,65.7,110.9,68.2,107.8,68.2z"/>
<g>
	<path d="M35.9,56c-3.8,0-6.8-3.1-6.8-6.8s3.1-6.8,6.8-6.8s6.8,3.1,6.8,6.8S39.6,56,35.9,56z M35.9,45.9c-1.8,0-3.2,1.4-3.2,3.2
		s1.4,3.2,3.2,3.2c1.8,0,3.2-1.4,3.2-3.2S37.6,45.9,35.9,45.9z"/>
</g>
<circle class="st1" cx="35.9" cy="48.9" r="3.2"/>
</svg>
