<?xml version="1.0" encoding="utf-8"?>
<!-- Generator: Adobe Illustrator 21.1.0, SVG Export Plug-In . SVG Version: 6.00 Build 0)  -->
<svg version="1.1" id="Layer_1" xmlns="http://www.w3.org/2000/svg" xmlns:xlink="http://www.w3.org/1999/xlink" x="0px" y="0px"
	 viewBox="0 0 660.7 176" style="enable-background:new 0 0 660.7 176;" xml:space="preserve">
<style type="text/css">
	.st0{fill:#FBAA19;}
	.st1{fill:#FFFFFF;}
</style>
<path class="st0" d="M482.1,30.1c10.1,0,5.3,0.1,15.4,0.2c0.5,0,1,0,1.5,0c0-5.7,0.1-11.2,0.1-16.8c-17.7-0.1-35.3-0.2-52.9-0.3
	c-0.2,40.4-0.4,80.6-0.6,120.9c5.7,0,26.3,0.1,31.9,0.1c0-0.5,0.1-0.9,0.1-1.2c0.1-10.7,1.1-21.3,1.2-32c0.1-22.3-0.8-44.6-0.7-66.9
	"/>
<path d="M455.7,106c0-9.1,7.4-16.5,16.4-16.6c8.9-0.1,10.4,7.3,10.6,16.6c0.2,9.9-1.6,16.6-10.2,16.6
	C463.2,122.7,455.7,115.3,455.7,106z M472.2,116.3c5.8,0.2,10.4-4.7,10.4-10.3c0.1-5.5-4.7-10.2-10.1-10.3
	c-5.8-0.1-10.5,4.5-10.5,10.2C461.9,111.6,466.5,116.2,472.2,116.3z"/>
<g id="Cay7dE_1_">
	<g>
		<path d="M483.6,157.4c17.7,0.1,35.2,0.2,53,0.3c0-1.5,0-3,0-4.4c0-9.8,0.1-19.6,0.1-29.4c0-1.4,0.5-2.5,1.7-3.1
			c1.1-0.6,2.4-0.6,3.3,0.3c0.6,0.6,1.3,1.7,1.3,2.5c0,12.4-0.1,24.9-0.2,37.3c0,1.8-1.2,3-3,3.1c-0.5,0-1,0-1.4,0
			c-19.1-0.1-38.1-0.2-57.2-0.3c-2.9,0-3.9-1-3.9-4c0-5.8,0.1-11.6,0.1-17.4c0-0.5,0-1,0-1.8c-1.8,0-18.5,0-20.3,0
			c-4.8,0-9.6,0-14.4-0.1c-2.5,0-3.6-1.2-3.6-3.7c0.1-18.8,0.2-37.6,0.3-56.4c0.1-13.3,0.1-26.6,0.2-39.9c0-10,0.1-20,0.2-30
			c0-2.4,1.3-3.6,3.6-3.6c19.5,0.1,39,0.2,58.5,0.3c2.3,0,3.5,1.3,3.5,3.6c0,5.9-0.1,11.9-0.1,17.8c0,0.6,0,1.1,0,1.8
			c2.5,0,19.7,0,22,0c4.2,0,8.3,0,12.5,0.1c2.6,0,3.8,1.2,3.8,3.8c-0.1,19.9-0.2,39.9-0.3,59.8c0,1.4-0.2,2.7-1.6,3.4
			c-2.2,1.2-4.7-0.2-4.7-2.8c0-6,0.1-12,0.1-17.9c0.1-13.2,0.1-26.4,0.2-39.6c0-0.1,0-0.2-0.1-0.4c-17.6-0.1-35.2-0.2-52.9-0.3
			C484,76.7,483.8,117,483.6,157.4z M446,13.2c-0.2,40.4-0.4,80.6-0.6,120.9c5.7,0,26.3,0.1,31.9,0.1c0-0.5,0.1-0.9,0.1-1.2
			c0.1-10.7,0.1-21.3,0.2-32c0.1-22.3,0.2-44.6,0.3-66.9c0-3,1-4,4-4c10.1,0,20.3,0.1,30.4,0.2c0.5,0-14,0-13.5,0
			c0-5.7,0.1-11.2,0.1-16.8C481.2,13.4,463.6,13.3,446,13.2z"/>
		<path d="M493.5,128.4c0-9.1,7.4-16.5,16.4-16.6c8.9-0.1,16.7,6.9,16.9,16.2c0.2,9.9-7.9,17-16.5,17
			C501,145,493.5,137.6,493.5,128.4z M510.1,138.7c5.8,0.2,10.4-4.7,10.4-10.3c0.1-5.5-4.7-10.2-10.1-10.3
			c-5.8-0.1-10.5,4.5-10.5,10.2C499.7,133.9,504.3,138.6,510.1,138.7z"/>
		<path d="M523,71.7c0,6.4-0.1,12.7-0.1,19.1c0,2.4-1.8,3.8-3.9,3.3c-1.4-0.3-2.4-1.5-2.4-3.1c0-7.1,0.1-14.3,0.1-21.4
			c0-4.1,0-8.1,0.1-12.2c0-2,0-4.1,0.3-6c0.3-1.8,1.7-2.5,3.4-2.2c1.5,0.2,2.5,1.4,2.5,3.1c0,2.2-0.1,4.5-0.1,6.7
			C522.9,63.3,522.9,67.5,523,71.7C522.9,71.7,523,71.7,523,71.7z"/>
		<path d="M504.1,81.3c0,5.6,0,11.2-0.1,16.8c0,2.8-2.4,4.3-4.7,3.1c-1.3-0.7-1.7-1.9-1.6-3.3c0-4.9,0.1-9.7,0.1-14.6
			c0-6.2,0.1-12.4,0.1-18.6c0-2.2,1.1-3.5,2.9-3.6c2-0.1,3.4,1.3,3.4,3.5C504.2,70.1,504.2,75.7,504.1,81.3z"/>
		<path d="M539.9,112.2c-1.9,0-3.2-1.4-3.1-3.2c0.1-1.7,1.5-3,3.1-3c1.8,0,3.2,1.5,3.1,3.3C543,111,541.7,112.3,539.9,112.2z"/>
	</g>
</g>
<path class="st0" d="M510,134.7c5.8,0.2,10.4-4.7,10.4-10.3c0.1-5.5-4.7-10.2-10.1-10.3c-5.8-0.1-10.5,4.5-10.5,10.2
	C499.7,130,504.3,134.6,510,134.7z"/>
<path class="st1" d="M472.2,116.3c5.8,0.2,10.4-4.7,10.4-10.3c0.1-5.5-4.7-10.2-10.1-10.3c-5.8-0.1-10.5,4.5-10.5,10.2
	C461.9,111.6,466.5,116.3,472.2,116.3z"/>
<path d="M480.7,122.2L480.7,122.2c-1.7,0-3.1-1.4-3.1-3.1V93.4c0-1.7,1.4-3.1,3.1-3.1l0,0c1.7,0,3.1,1.4,3.1,3.1v25.7
	C483.8,120.8,482.4,122.2,480.7,122.2z"/>
<path d="M376.6,46.4c0-1.3,0.8-2.3,1.9-2.4c1.2-0.2,2.3,0.6,2.7,1.8c1,3.7,2,7.4,3,11.2c1.3,4.7,2.5,9.4,3.7,14.1
	c0.9,3.5,1.9,7,2.9,10.6c0.9,3.4,1.8,6.8,2.7,10.2c1.2,4.6,2.5,9.1,3.7,13.7c1.4,5.1,2.7,10.2,4.1,15.3c1.2,4.4,2.4,8.9,3.5,13.3
	c1.2,4.5,2.4,9,3.6,13.5c0.4,1.4-0.4,2.6-1.7,2.9c-1.1,0.3-2.3-0.5-2.6-1.8c-1.4-5.1-2.7-10.2-4.1-15.2c-1.1-4.2-2.3-8.3-3.4-12.5
	c-1.4-5.1-2.7-10.2-4.1-15.3c-1.4-5.4-2.9-10.9-4.3-16.3c-1.2-4.4-2.4-8.9-3.6-13.3c-1.4-5-2.7-10.1-4.1-15.2
	c-1.3-4.7-2.5-9.4-3.8-14.1C376.6,46.8,376.6,46.5,376.6,46.4z"/>
<path d="M359.3,150.8c-0.1-4.4,3.5-8.1,8-8.1c4.4-0.1,8,3.6,8,8.1c0,4.5-3.6,8.1-8.1,8.1C362.9,158.8,359.2,155.2,359.3,150.8z
	 M363.9,150.8c0,1.9,1.6,3.5,3.5,3.5c1.9,0,3.5-1.7,3.5-3.6c0-1.9-1.7-3.5-3.5-3.5C365.4,147.3,363.9,148.9,363.9,150.8z"/>
<path d="M406.3,76.2c-0.5-0.3-1.2-0.4-1.6-0.8c-5-5-10-10-15-15.1c-0.4-0.4-0.8-0.8-1.2-1.2c-0.8-0.8-0.8-2.3-0.1-3.2
	c0.7-0.9,2.1-1.1,3-0.3c1.4,1.2,2.6,2.5,3.9,3.8c4.2,4.2,8.4,8.4,12.5,12.5c0.8,0.8,1.1,1.6,0.7,2.7
	C408.2,75.6,407.4,76.1,406.3,76.2z"/>
<path d="M349.2,18.7c0-1,0.5-1.7,1.4-2c0.9-0.4,1.9-0.2,2.6,0.6c1.5,1.5,3,3,4.5,4.5c3.9,3.9,7.7,7.7,11.6,11.6
	c1.1,1.1,1.1,2.5,0.2,3.4c-1,0.9-2.3,0.8-3.4-0.2c-5.3-5.3-10.7-10.7-16-16c-0.5-0.5-0.7-1.2-1-1.7C349,18.8,349.1,18.7,349.2,18.7z
	"/>
<path d="M339,56.4c0-1,0.7-1.9,1.7-2.2c3.6-1,7.3-2,10.9-3c3.8-1,7.6-2.1,11.4-3c1.2-0.3,2.5,0.5,2.8,1.7c0.3,1.1-0.5,2.5-1.7,2.8
	c-3.7,1-7.4,2-11.1,3c-3.8,1-7.6,2-11.3,3C340.5,59,339,57.8,339,56.4z"/>
<path d="M368.9,86.2c-1.5,0-2.6-1.5-2.2-2.9c1.2-4.3,2.3-8.6,3.5-13c0.8-3.1,1.7-6.3,2.5-9.4c0.3-1.1,1.7-1.9,2.8-1.6
	c1.2,0.4,1.9,1.7,1.6,2.9c-1.3,4.8-2.6,9.6-3.9,14.3c-0.7,2.7-1.4,5.3-2.1,8C370.8,85.5,369.9,86.2,368.9,86.2z"/>
<path d="M416.8,34.3c-0.2,0.1-0.4,0.1-0.6,0.2c-0.2,0.1-0.4,0.3-0.5,0.5c0.2,0.1,0.5,0.3,0.7,0.3c0.5-0.2,1-0.5,1.5-0.9
	c0.6,0.3,1.1,1.1,1,2c-0.1,0.8-0.8,1.8-1.6,2c-4.5,1.2-9.1,2.4-13.6,3.6c-2.9,0.8-5.8,1.6-8.7,2.4c-1.2,0.3-2.6-0.4-2.9-1.6
	c-0.3-1.3,0.5-2.5,1.8-2.9c3-0.8,6-1.6,9-2.4c2.8-0.7,5.5-1.4,8.3-2.2c1.6-0.4,3.2-0.9,4.8-1.3c0.3-0.1,0.6,0,0.9,0
	C416.8,34.1,416.8,34.2,416.8,34.3z"/>
<path d="M351,135.5c-1.8,0.7-3.3-0.3-3.3-2.3c0-1,0-2.1,0-3.3c-1.2,0-2.2,0-3.3,0c-1.5,0-2.4-0.9-2.4-2.2c0-1.4,1-2.3,2.4-2.3
	c1,0,2,0,3,0c0.1,0,0.1-0.1,0.2-0.1c0-1.1,0-2.2,0-3.3c0-1.1,0.7-2,1.7-2.2c1.2-0.3,2.2,0.2,2.7,1.2c0.2,0.4,0.2,0.8,0.2,1.2
	c0,1,0,2,0,3.2c1.2,0,2.3,0,3.4,0c1.2,0,2,0.7,2.3,1.7c0.3,1.1-0.1,2.1-1.2,2.6c-0.3,0.2-0.7,0.2-1.1,0.2c-1.1,0-2.2,0-3.3,0
	c-0.3,1.6,0.2,3.2-0.4,4.8c-0.3-0.2-0.5-0.3-0.9-0.5C351.1,134.7,351,135.1,351,135.5z"/>
<path d="M371.8,17.6c1.1,0,2,0.7,2.3,1.8c0.8,3,1.6,6.1,2.5,9.1c0.2,0.7,0.4,1.4,0.5,2c0.3,1.2-0.6,2.5-1.7,2.7
	c-1.2,0.3-2.5-0.5-2.8-1.7c-0.8-3-1.6-6-2.4-9c-0.2-0.7-0.4-1.4-0.5-2C369.2,19,370.3,17.6,371.8,17.6z"/>
<path d="M359.6,68.1c-1-0.2-1.9-0.7-2.2-1.6c-0.3-0.9-0.1-1.8,0.6-2.6c1.3-1.4,2.7-2.7,4-4c1.3-1.3,2.6-2.6,3.9-3.9
	c1-1,2.4-1.1,3.4-0.1c0.9,0.9,0.9,2.3-0.1,3.3c-2.7,2.7-5.3,5.4-8,8C360.8,67.6,360.2,67.8,359.6,68.1z"/>
<path d="M363.5,44.5c-0.7-0.2-1.5-0.3-2.4-0.6c-3.1-0.8-6.1-1.7-9.2-2.5c-1.2-0.3-2-1.6-1.7-2.8c0.3-1.2,1.7-1.9,2.9-1.6
	c3.7,1,7.4,2,11.1,3c1.1,0.3,1.9,1.4,1.7,2.6C365.8,43.6,364.8,44.5,363.5,44.5z"/>
<path d="M405.1,55.7c-0.7-0.2-1.5-0.3-2.3-0.6c-3.1-0.8-6.1-1.7-9.2-2.5c-1.2-0.3-2-1.6-1.7-2.8c0.3-1.2,1.7-2,2.8-1.7
	c3.7,1,7.4,2,11.1,3c1.1,0.3,1.8,1.5,1.7,2.6C407.4,54.8,406.4,55.7,405.1,55.7z"/>
<path d="M387.6,35c0.3-0.5,0.5-1.2,0.9-1.6c2.6-2.7,5.3-5.3,7.9-7.9c1-1,2.5-1.1,3.4-0.2c0.9,0.9,0.9,2.4-0.1,3.4
	c-2.6,2.7-5.3,5.3-7.9,7.9c-0.7,0.7-1.7,1-2.5,0.6C388.3,36.9,387.8,36.2,387.6,35z"/>
<path d="M343.6,154.5c0,1.3-1,2.3-2.3,2.4c-1.2,0-2.3-1.1-2.3-2.3c0-1.3,0.9-2.2,2.2-2.2C342.6,152.2,343.6,153.1,343.6,154.5z"/>
<path d="M229-93.2c-0.7-1.1-1.3-1.8-1.5-2.6c-0.1-0.3,0.7-0.9,1-1.3c0.6,0.7,1.3,1.5,1.7,2.2C230.3-94.7,229.6-94.1,229-93.2z"/>
<path class="st0" d="M363.9,150.8c0-1.9,1.5-3.5,3.4-3.6c1.8,0,3.5,1.6,3.5,3.5c0,1.9-1.6,3.5-3.5,3.6
	C365.5,154.3,363.9,152.8,363.9,150.8z"/>
<path d="M383.8,31.1c-1.5,0-2.6-1.5-2.2-2.9c1.2-4.3,2.3-8.6,3.5-13c0.8-3.1,1.7-6.3,2.5-9.4c0.3-1.1,1.7-1.9,2.8-1.6
	c1.2,0.4,1.9,1.7,1.6,2.9c-1.3,4.8-2.6,9.6-3.9,14.3c-0.7,2.7-1.4,5.3-2.1,8C385.8,30.3,384.8,31.1,383.8,31.1z"/>
<g>
	<path d="M610.3,37.3c-0.2,0.8-0.4,1.9-0.7,2.9c-1.6,6.1-3.3,12.2-4.9,18.3c-1.2,4.3-2.3,8.5-3.5,12.8c-1.3,4.9-2.6,9.9-3.9,14.9
		c-1.1,4.2-2.3,8.4-3.4,12.7c-1.3,5-2.6,10-4,15c-0.9,3.3-1.8,6.6-2.7,9.9c-1.2,4.4-2.3,8.7-3.5,13.1c-0.7,2.5-1.4,5-2,7.5
		c-1,3.7-1.9,7.3-2.9,11c-0.6,2.2-1.2,4.5-1.9,6.7c-0.4,1.3-2.1,2.1-3.3,1.7c-1.4-0.5-2.3-1.9-2-3.3c1.1-4.1,2.2-8.3,3.3-12.4
		c1.5-5.7,3-11.5,4.6-17.2c0.9-3.4,1.8-6.7,2.7-10.1c1.4-5.1,2.7-10.2,4.1-15.3c1.1-4.1,2.2-8.2,3.3-12.3c1.2-4.4,2.3-8.7,3.5-13.1
		c0.9-3.3,1.8-6.5,2.7-9.8c1-3.6,1.9-7.3,2.9-10.9c0.7-2.5,1.4-5,2-7.5c1-3.6,1.9-7.3,2.9-10.9c0.4-1.6,0.8-3.3,1.3-4.9
		c0.4-1.3,1.8-2.2,3.1-2C609.3,34.4,610.4,35.7,610.3,37.3z"/>
	<path d="M628.8,117.1c-0.2-0.3-0.3-0.6-0.5-1c-0.2,0.4-0.5,0.5-0.5,0.7c0.2,1.5-1.1,1.7-2,2c-4.6,1.5-9.2-0.1-11.7-4.3
		c-3-4.9-0.9-11,3.8-13.6c5.2-2.8,11.3-0.4,13.6,4.5C633.2,109.3,632.4,113.9,628.8,117.1z M622.6,105.3c-2.3,0-4.3,2-4.3,4.2
		c0,2.2,2.1,4.3,4.3,4.3s4.2-2,4.2-4.3C626.8,107.3,624.9,105.3,622.6,105.3z"/>
	<path d="M571.2,70.3c0.4-0.7,0.6-1.4,1.1-2c6.5-6.6,13.1-13.1,19.6-19.7c1-1,2.1-1.2,3.2-0.6c1.2,0.6,1.8,1.6,1.6,2.9
		c-0.1,0.6-0.4,1.3-0.9,1.7c-6.2,6.2-12.3,12.4-18.5,18.6c-0.5,0.5-1,0.9-1.5,1.4c-0.9,0.8-2,0.8-3,0.3
		C571.9,72.5,571.3,71.7,571.2,70.3z"/>
	<path d="M619.8,85.5c-1.3,0-2.3-0.8-2.7-2.1c-1.2-4.4-2.4-8.7-3.5-13.1c-1.3-4.7-2.5-9.3-3.7-14c-0.4-1.5,0.6-3.2,2.2-3.5
		c1.4-0.3,2.9,0.8,3.3,2.3c0.9,3.6,1.9,7.1,2.9,10.7c0.9,3.4,1.8,6.9,2.7,10.3c0.5,2,1.1,3.9,1.6,5.8
		C623,83.8,621.7,85.5,619.8,85.5z"/>
	<path d="M656.1,49.3c0,1.9-1.8,3.2-3.6,2.7c-6.1-1.6-12.2-3.3-18.2-4.9c-3-0.8-5.9-1.6-8.9-2.4c-1.4-0.4-2.3-2-1.9-3.4
		c0.4-1.4,2.1-2.3,3.5-2c5.3,1.4,10.6,2.8,15.8,4.2c3.8,1,7.5,2,11.3,3C655.1,46.9,656,48.1,656.1,49.3z"/>
	<path d="M605.4,18.2c0,1.6-1,2.9-2.3,3c-1.5,0.2-2.9-0.7-3.2-2.1c-1.4-5.3-2.8-10.6-4.3-15.8c-1-3.8-2-7.6-3-11.4
		c-0.4-1.4,0.6-2.9,2.1-3.3c1.2-0.4,2.9,0.6,3.3,1.8c1.3,4.7,2.5,9.5,3.8,14.2c0.9,3.5,1.9,7.1,2.9,10.6
		C604.9,16.3,605.2,17.3,605.4,18.2z"/>
	<path d="M588.7,34.8c-0.8-0.2-1.9-0.4-2.9-0.7c-6.1-1.6-12.2-3.3-18.3-4.9c-2.1-0.6-4.3-1.2-6.4-1.8c-1.3-0.4-2.2-2-1.9-3.2
		c0.4-1.4,1.8-2.4,3.2-2.1c2.3,0.6,4.6,1.2,6.9,1.8c4.4,1.2,8.9,2.4,13.4,3.6c2.4,0.6,4.8,1.2,7.1,1.9c1.4,0.4,2.3,1.9,2,3.3
		C591.5,33.9,590.3,34.8,588.7,34.8z"/>
	<path d="M630.9,63.5c-0.7-0.4-1.4-0.6-2-1.1c-3.2-3.2-6.4-6.4-9.6-9.6c-1.2-1.2-1.3-2.9-0.2-4.1c1.1-1.2,2.8-1.1,4.1,0.1
		c3.2,3.2,6.4,6.4,9.7,9.7c0.9,0.9,1.2,1.9,0.7,3.1C633.3,62.7,632.3,63.3,630.9,63.5z"/>
	<path d="M593.9,26.4c-0.7-0.4-1.4-0.6-2-1.1c-3.3-3.2-6.5-6.4-9.7-9.7c-1.2-1.2-1.2-3-0.1-4.1c1.1-1.1,2.8-1.1,4,0.1
		c3.3,3.2,6.5,6.5,9.7,9.7c0.9,0.9,1.2,1.9,0.7,3.1C596.1,25.6,595.2,26.2,593.9,26.4z"/>
	<path d="M612.6,21.2c-1.9,0-3.2-1.8-2.7-3.6c1.2-4.5,2.4-9,3.6-13.5c0.4-1.4,2-2.4,3.4-2c1.5,0.4,2.5,2,2,3.5
		c-1.2,4.5-2.4,9-3.6,13.5C614.9,20.4,613.8,21.2,612.6,21.2z"/>
	<path d="M626.3,34.8c-1.6,0-2.8-1.1-3-2.4c-0.1-1.5,0.8-2.8,2.2-3.2c4.5-1.2,8.9-2.4,13.4-3.6c1.4-0.4,3.1,0.5,3.5,2
		c0.4,1.4-0.6,3-2,3.4c-4.4,1.2-8.8,2.4-13.3,3.6C626.8,34.8,626.5,34.8,626.3,34.8z"/>
	<path d="M575.7,48.4c-1.6,0-2.9-1.1-3-2.4c-0.2-1.5,0.8-2.8,2.2-3.2c4.4-1.2,8.9-2.4,13.4-3.6c1.4-0.4,3.1,0.5,3.5,1.9
		c0.4,1.4-0.6,3-2,3.4c-4.4,1.2-8.8,2.4-13.3,3.6C576.2,48.4,575.8,48.4,575.7,48.4z"/>
	<path d="M629.6,132.5c1.6,0,2.8,1.2,2.8,2.8c0,1.4-1.3,2.7-2.8,2.8c-1.5,0-2.8-1.3-2.8-2.8C626.8,133.6,628,132.5,629.6,132.5z"/>
	<path class="st0" d="M622.6,105.3c2.3,0,4.2,2,4.3,4.2c0,2.3-2,4.3-4.2,4.3s-4.4-2.1-4.3-4.3C618.3,107.3,620.3,105.3,622.6,105.3z
		"/>
	<path d="M618.4,24.3c0.4-0.7,0.6-1.4,1.1-2c6.5-6.6,13.1-13.1,19.6-19.7c1-1,2.1-1.2,3.2-0.6c1.2,0.6,1.8,1.6,1.6,2.9
		c-0.1,0.6-0.4,1.3-0.9,1.7c-6.2,6.2-12.3,12.4-18.5,18.6c-0.5,0.5-1,0.9-1.5,1.4c-0.9,0.8-2,0.8-3,0.3
		C619.1,26.5,618.5,25.6,618.4,24.3z"/>
</g>
</svg>
