<?xml version="1.0" encoding="utf-8"?>
<!-- Generator: Adobe Illustrator 21.1.0, SVG Export Plug-In . SVG Version: 6.00 Build 0)  -->
<svg version="1.1" id="Layer_1" xmlns="http://www.w3.org/2000/svg" xmlns:xlink="http://www.w3.org/1999/xlink" x="0px" y="0px"
	 viewBox="0 0 202.7 124.8" style="enable-background:new 0 0 202.7 124.8;" xml:space="preserve">
<style type="text/css">
	.st0{fill:#FBAA19;}
	.st1{fill:#FFFFFF;}
</style>
<path class="st0" d="M95.4,33.8c6,0,3.1,0.1,9.1,0.1c0.3,0,0.6,0,0.9,0c0-3.4,0.1-6.6,0.1-9.9c-10.4-0.1-20.8-0.1-31.2-0.2
	c-0.1,23.8-0.2,47.6-0.4,71.3c3.4,0,15.5,0.1,18.8,0.1c0-0.3,0.1-0.5,0.1-0.7c0.1-6.3,0.6-12.6,0.7-18.9c0.1-13.2-0.5-26.3-0.4-39.5
	"/>
<path d="M79.9,78.6c0-5.4,4.4-9.7,9.7-9.8c5.3-0.1,6.1,4.3,6.3,9.8c0.1,5.8-0.9,9.8-6,9.8C84.3,88.4,79.9,84.1,79.9,78.6z
	 M89.6,84.7c3.4,0.1,6.1-2.8,6.1-6.1c0.1-3.2-2.8-6-6-6.1c-3.4-0.1-6.2,2.7-6.2,6C83.5,81.9,86.2,84.6,89.6,84.7z"/>
<g id="Cay7dE_1_">
	<g>
		<path d="M96.3,108.9c10.4,0.1,20.8,0.1,31.3,0.2c0-0.9,0-1.8,0-2.6c0-5.8,0.1-11.6,0.1-17.3c0-0.8,0.3-1.5,1-1.8
			c0.6-0.4,1.4-0.4,1.9,0.2c0.4,0.4,0.8,1,0.8,1.5c0,7.3-0.1,14.7-0.1,22c0,1.1-0.7,1.8-1.8,1.8c-0.3,0-0.6,0-0.8,0
			c-11.3-0.1-22.5-0.1-33.8-0.2c-1.7,0-2.3-0.6-2.3-2.4c0-3.4,0.1-6.8,0.1-10.3c0-0.3,0-0.6,0-1.1c-1.1,0-10.9,0-12,0
			c-2.8,0-5.7,0-8.5-0.1c-1.5,0-2.1-0.7-2.1-2.2c0.1-11.1,0.1-22.2,0.2-33.3c0.1-7.8,0.1-15.7,0.1-23.5c0-5.9,0.1-11.8,0.1-17.7
			c0-1.4,0.8-2.1,2.1-2.1c11.5,0.1,23,0.1,34.5,0.2c1.4,0,2.1,0.8,2.1,2.1c0,3.5-0.1,7-0.1,10.5c0,0.4,0,0.6,0,1.1
			c1.5,0,11.6,0,13,0c2.5,0,4.9,0,7.4,0.1c1.5,0,2.2,0.7,2.2,2.2c-0.1,11.7-0.1,23.5-0.2,35.3c0,0.8-0.1,1.6-0.9,2
			c-1.3,0.7-2.8-0.1-2.8-1.7c0-3.5,0.1-7.1,0.1-10.6c0.1-7.8,0.1-15.6,0.1-23.4c0-0.1,0-0.1-0.1-0.2c-10.4-0.1-20.8-0.1-31.2-0.2
			C96.6,61.3,96.4,85.1,96.3,108.9z M74.1,23.8c-0.1,23.8-0.2,47.6-0.4,71.3c3.4,0,15.5,0.1,18.8,0.1c0-0.3,0.1-0.5,0.1-0.7
			c0.1-6.3,0.1-12.6,0.1-18.9c0.1-13.2,0.1-26.3,0.2-39.5c0-1.8,0.6-2.4,2.4-2.4c6,0,12,0.1,17.9,0.1c0.3,0-8.3,0-8,0
			c0-3.4,0.1-6.6,0.1-9.9C94.9,23.9,84.5,23.9,74.1,23.8z"/>
		<path d="M102.2,91.8c0-5.4,4.4-9.7,9.7-9.8c5.3-0.1,9.9,4.1,10,9.6c0.1,5.8-4.7,10-9.7,10C106.6,101.6,102.2,97.2,102.2,91.8z
			 M112,97.9c3.4,0.1,6.1-2.8,6.1-6.1c0.1-3.2-2.8-6-6-6.1c-3.4-0.1-6.2,2.7-6.2,6C105.8,95,108.5,97.8,112,97.9z"/>
		<path d="M119.6,58.3c0,3.8-0.1,7.5-0.1,11.3c0,1.4-1.1,2.2-2.3,1.9c-0.8-0.2-1.4-0.9-1.4-1.8c0-4.2,0.1-8.4,0.1-12.6
			c0-2.4,0-4.8,0.1-7.2c0-1.2,0-2.4,0.2-3.5c0.2-1.1,1-1.5,2-1.3c0.9,0.1,1.5,0.8,1.5,1.8c0,1.3-0.1,2.7-0.1,4
			C119.5,53.4,119.5,55.9,119.6,58.3C119.5,58.3,119.6,58.3,119.6,58.3z"/>
		<path d="M108.4,64c0,3.3,0,6.6-0.1,9.9c0,1.7-1.4,2.5-2.8,1.8c-0.8-0.4-1-1.1-0.9-1.9c0-2.9,0.1-5.7,0.1-8.6c0-3.7,0.1-7.3,0.1-11
			c0-1.3,0.6-2.1,1.7-2.1c1.2-0.1,2,0.8,2,2.1C108.5,57.4,108.5,60.7,108.4,64z"/>
		<path d="M129.5,82.2c-1.1,0-1.9-0.8-1.8-1.9c0.1-1,0.9-1.8,1.8-1.8c1.1,0,1.9,0.9,1.8,1.9C131.4,81.5,130.6,82.3,129.5,82.2z"/>
	</g>
</g>
<path class="st0" d="M111.9,95.5c3.4,0.1,6.1-2.8,6.1-6.1c0.1-3.2-2.8-6-6-6.1c-3.4-0.1-6.2,2.7-6.2,6
	C105.8,92.7,108.5,95.5,111.9,95.5z"/>
<path class="st1" d="M89.6,84.7c3.4,0.1,6.1-2.8,6.1-6.1c0.1-3.2-2.8-6-6-6.1c-3.4-0.1-6.2,2.7-6.2,6C83.5,81.9,86.2,84.7,89.6,84.7
	z"/>
<path d="M94.6,88.1L94.6,88.1c-1,0-1.8-0.8-1.8-1.8V71.1c0-1,0.8-1.8,1.8-1.8l0,0c1,0,1.8,0.8,1.8,1.8v15.2
	C96.4,87.3,95.6,88.1,94.6,88.1z"/>
<path d="M33.2,43.4c0-0.8,0.5-1.4,1.1-1.4c0.7-0.1,1.4,0.4,1.6,1.1c0.6,2.2,1.2,4.4,1.8,6.6c0.8,2.8,1.5,5.5,2.2,8.3
	c0.5,2.1,1.1,4.1,1.7,6.3c0.5,2,1.1,4,1.6,6c0.7,2.7,1.5,5.4,2.2,8.1c0.8,3,1.6,6,2.4,9c0.7,2.6,1.4,5.3,2.1,7.8
	c0.7,2.7,1.4,5.3,2.1,8c0.2,0.8-0.2,1.5-1,1.7c-0.6,0.2-1.4-0.3-1.5-1.1c-0.8-3-1.6-6-2.4-9c-0.6-2.5-1.4-4.9-2-7.4
	c-0.8-3-1.6-6-2.4-9c-0.8-3.2-1.7-6.4-2.5-9.6c-0.7-2.6-1.4-5.3-2.1-7.8c-0.8-3-1.6-6-2.4-9c-0.8-2.8-1.5-5.5-2.2-8.3
	C33.2,43.6,33.2,43.5,33.2,43.4z"/>
<path d="M23,105c-0.1-2.6,2.1-4.8,4.7-4.8c2.6-0.1,4.7,2.1,4.7,4.8c0,2.7-2.1,4.8-4.8,4.8C25.1,109.7,22.9,107.6,23,105z M25.7,105
	c0,1.1,0.9,2.1,2.1,2.1c1.1,0,2.1-1,2.1-2.1c0-1.1-1-2.1-2.1-2.1C26.6,102.9,25.7,103.9,25.7,105z"/>
<path d="M50.7,61c-0.3-0.2-0.7-0.2-0.9-0.5c-3-3-5.9-5.9-8.9-8.9c-0.2-0.2-0.5-0.5-0.7-0.7c-0.5-0.5-0.5-1.4-0.1-1.9
	c0.4-0.5,1.2-0.6,1.8-0.2c0.8,0.7,1.5,1.5,2.3,2.2c2.5,2.5,5,5,7.4,7.4c0.5,0.5,0.6,0.9,0.4,1.6C51.8,60.6,51.4,60.9,50.7,61z"/>
<path d="M17,27.1c0-0.6,0.3-1,0.8-1.2c0.5-0.2,1.1-0.1,1.5,0.4c0.9,0.9,1.8,1.8,2.7,2.7c2.3,2.3,4.5,4.5,6.8,6.8
	c0.6,0.6,0.6,1.5,0.1,2c-0.6,0.5-1.4,0.5-2-0.1c-3.1-3.1-6.3-6.3-9.4-9.4c-0.3-0.3-0.4-0.7-0.6-1C16.9,27.1,17,27.1,17,27.1z"/>
<path d="M11,49.3c0-0.6,0.4-1.1,1-1.3c2.1-0.6,4.3-1.2,6.4-1.8c2.2-0.6,4.5-1.2,6.7-1.8c0.7-0.2,1.5,0.3,1.7,1
	c0.2,0.6-0.3,1.5-1,1.7c-2.2,0.6-4.4,1.2-6.5,1.8c-2.2,0.6-4.5,1.2-6.7,1.8C11.9,50.8,11,50.1,11,49.3z"/>
<path d="M28.6,66.9c-0.9,0-1.5-0.9-1.3-1.7c0.7-2.5,1.4-5.1,2.1-7.7c0.5-1.8,1-3.7,1.5-5.5c0.2-0.6,1-1.1,1.7-0.9
	c0.7,0.2,1.1,1,0.9,1.7c-0.8,2.8-1.5,5.7-2.3,8.4c-0.4,1.6-0.8,3.1-1.2,4.7C29.8,66.5,29.2,66.9,28.6,66.9z"/>
<path d="M56.9,36.3c-0.1,0.1-0.2,0.1-0.4,0.1c-0.1,0.1-0.2,0.2-0.3,0.3c0.1,0.1,0.3,0.2,0.4,0.2c0.3-0.1,0.6-0.3,0.9-0.5
	c0.4,0.2,0.6,0.6,0.6,1.2c-0.1,0.5-0.5,1.1-0.9,1.2c-2.7,0.7-5.4,1.4-8,2.1c-1.7,0.5-3.4,0.9-5.1,1.4c-0.7,0.2-1.5-0.2-1.7-0.9
	c-0.2-0.8,0.3-1.5,1.1-1.7c1.8-0.5,3.5-0.9,5.3-1.4c1.7-0.4,3.2-0.8,4.9-1.3c0.9-0.2,1.9-0.5,2.8-0.8c0.2-0.1,0.4,0,0.5,0
	C56.9,36.2,56.9,36.2,56.9,36.3z"/>
<path d="M18.1,96c-1.1,0.4-1.9-0.2-1.9-1.4c0-0.6,0-1.2,0-1.9c-0.7,0-1.3,0-1.9,0c-0.9,0-1.4-0.5-1.4-1.3c0-0.8,0.6-1.4,1.4-1.4
	c0.6,0,1.2,0,1.8,0C16,90,16,90,16.1,90c0-0.6,0-1.3,0-1.9c0-0.6,0.4-1.2,1-1.3c0.7-0.2,1.3,0.1,1.6,0.7c0.1,0.2,0.1,0.5,0.1,0.7
	c0,0.6,0,1.2,0,1.9c0.7,0,1.4,0,2,0c0.7,0,1.2,0.4,1.4,1c0.2,0.6-0.1,1.2-0.7,1.5c-0.2,0.1-0.4,0.1-0.6,0.1c-0.6,0-1.3,0-1.9,0
	c-0.2,0.9,0.1,1.9-0.2,2.8c-0.2-0.1-0.3-0.2-0.5-0.3C18.1,95.5,18.1,95.7,18.1,96z"/>
<path d="M30.4,26.4c0.6,0,1.2,0.4,1.4,1.1c0.5,1.8,0.9,3.6,1.5,5.4c0.1,0.4,0.2,0.8,0.3,1.2c0.2,0.7-0.4,1.5-1,1.6
	c-0.7,0.2-1.5-0.3-1.7-1c-0.5-1.8-0.9-3.5-1.4-5.3c-0.1-0.4-0.2-0.8-0.3-1.2C28.8,27.2,29.5,26.4,30.4,26.4z"/>
<path d="M23.2,56.2c-0.6-0.1-1.1-0.4-1.3-0.9c-0.2-0.5-0.1-1.1,0.4-1.5c0.8-0.8,1.6-1.6,2.4-2.4c0.8-0.8,1.5-1.5,2.3-2.3
	c0.6-0.6,1.4-0.6,2-0.1c0.5,0.5,0.5,1.4-0.1,1.9c-1.6,1.6-3.1,3.2-4.7,4.7C23.9,55.9,23.5,56,23.2,56.2z"/>
<path d="M25.5,42.3c-0.4-0.1-0.9-0.2-1.4-0.4c-1.8-0.5-3.6-1-5.4-1.5c-0.7-0.2-1.2-0.9-1-1.7c0.2-0.7,1-1.1,1.7-0.9
	c2.2,0.6,4.4,1.2,6.5,1.8c0.6,0.2,1.1,0.8,1,1.5C26.8,41.8,26.2,42.3,25.5,42.3z"/>
<path d="M50,48.9c-0.4-0.1-0.9-0.2-1.4-0.4c-1.8-0.5-3.6-1-5.4-1.5c-0.7-0.2-1.2-0.9-1-1.7c0.2-0.7,1-1.2,1.7-1
	c2.2,0.6,4.4,1.2,6.5,1.8c0.6,0.2,1.1,0.9,1,1.5C51.4,48.4,50.8,48.9,50,48.9z"/>
<path d="M39.7,36.7c0.2-0.3,0.3-0.7,0.5-0.9c1.5-1.6,3.1-3.1,4.7-4.7c0.6-0.6,1.5-0.6,2-0.1s0.5,1.4-0.1,2c-1.5,1.6-3.1,3.1-4.7,4.7
	c-0.4,0.4-1,0.6-1.5,0.4C40.1,37.8,39.8,37.4,39.7,36.7z"/>
<path d="M-114.4,103.3c0,1.3-1,2.3-2.3,2.4c-1.2,0-2.3-1.1-2.3-2.3c0-1.3,0.9-2.2,2.2-2.2C-115.4,101-114.4,101.9-114.4,103.3z"/>
<path d="M-229-144.4c-0.7-1.1-1.3-1.8-1.5-2.6c-0.1-0.3,0.7-0.9,1-1.3c0.6,0.7,1.3,1.5,1.7,2.2C-227.7-145.9-228.4-145.3-229-144.4z
	"/>
<path class="st0" d="M25.7,105c0-1.1,0.9-2.1,2-2.1c1.1,0,2.1,0.9,2.1,2.1c0,1.1-0.9,2.1-2.1,2.1C26.6,107.1,25.7,106.2,25.7,105z"
	/>
<path d="M37.4,34.4c-0.9,0-1.5-0.9-1.3-1.7c0.7-2.5,1.4-5.1,2.1-7.7c0.5-1.8,1-3.7,1.5-5.5c0.2-0.6,1-1.1,1.7-0.9
	c0.7,0.2,1.1,1,0.9,1.7c-0.8,2.8-1.5,5.7-2.3,8.4c-0.4,1.6-0.8,3.1-1.2,4.7C38.6,33.9,38,34.4,37.4,34.4z"/>
<g>
	<path d="M171.1,38c-0.1,0.5-0.2,1.1-0.4,1.7c-0.9,3.6-1.9,7.2-2.9,10.8c-0.7,2.5-1.4,5-2.1,7.6c-0.8,2.9-1.5,5.8-2.3,8.8
		c-0.6,2.5-1.4,5-2,7.5c-0.8,3-1.5,5.9-2.4,8.9c-0.5,1.9-1.1,3.9-1.6,5.8c-0.7,2.6-1.4,5.1-2.1,7.7c-0.4,1.5-0.8,3-1.2,4.4
		c-0.6,2.2-1.1,4.3-1.7,6.5c-0.4,1.3-0.7,2.7-1.1,4c-0.2,0.8-1.2,1.2-1.9,1c-0.8-0.3-1.4-1.1-1.2-1.9c0.6-2.4,1.3-4.9,1.9-7.3
		c0.9-3.4,1.8-6.8,2.7-10.1c0.5-2,1.1-4,1.6-6c0.8-3,1.6-6,2.4-9c0.6-2.4,1.3-4.8,1.9-7.3c0.7-2.6,1.4-5.1,2.1-7.7
		c0.5-1.9,1.1-3.8,1.6-5.8c0.6-2.1,1.1-4.3,1.7-6.4c0.4-1.5,0.8-3,1.2-4.4c0.6-2.1,1.1-4.3,1.7-6.4c0.2-0.9,0.5-1.9,0.8-2.9
		c0.2-0.8,1.1-1.3,1.8-1.2C170.5,36.3,171.1,37.1,171.1,38z"/>
	<path d="M182,85.1c-0.1-0.2-0.2-0.4-0.3-0.6c-0.1,0.2-0.3,0.3-0.3,0.4c0.1,0.9-0.6,1-1.2,1.2c-2.7,0.9-5.4-0.1-6.9-2.5
		c-1.8-2.9-0.5-6.5,2.2-8c3.1-1.7,6.7-0.2,8,2.7C184.6,80.5,184.1,83.2,182,85.1z M178.3,78.2c-1.4,0-2.5,1.2-2.5,2.5
		s1.2,2.5,2.5,2.5c1.3,0,2.5-1.2,2.5-2.5C180.8,79.3,179.7,78.2,178.3,78.2z"/>
	<path d="M148,57.5c0.2-0.4,0.4-0.8,0.6-1.2c3.8-3.9,7.7-7.7,11.6-11.6c0.6-0.6,1.2-0.7,1.9-0.4c0.7,0.4,1.1,0.9,0.9,1.7
		c-0.1,0.4-0.2,0.8-0.5,1c-3.7,3.7-7.3,7.3-10.9,11c-0.3,0.3-0.6,0.5-0.9,0.8c-0.5,0.5-1.2,0.5-1.8,0.2
		C148.4,58.8,148.1,58.3,148,57.5z"/>
	<path d="M176.7,66.5c-0.8,0-1.4-0.5-1.6-1.2c-0.7-2.6-1.4-5.1-2.1-7.7c-0.8-2.8-1.5-5.5-2.2-8.3c-0.2-0.9,0.4-1.9,1.3-2.1
		c0.8-0.2,1.7,0.5,1.9,1.4c0.5,2.1,1.1,4.2,1.7,6.3c0.5,2,1.1,4.1,1.6,6.1c0.3,1.2,0.6,2.3,0.9,3.4
		C178.6,65.5,177.8,66.5,176.7,66.5z"/>
	<path d="M198.1,45.1c0,1.1-1.1,1.9-2.1,1.6c-3.6-0.9-7.2-1.9-10.7-2.9c-1.8-0.5-3.5-0.9-5.3-1.4c-0.8-0.2-1.4-1.2-1.1-2
		c0.2-0.8,1.2-1.4,2.1-1.2c3.1,0.8,6.3,1.7,9.3,2.5c2.2,0.6,4.4,1.2,6.7,1.8C197.5,43.7,198,44.4,198.1,45.1z"/>
	<path d="M168.2,26.8c0,0.9-0.6,1.7-1.4,1.8c-0.9,0.1-1.7-0.4-1.9-1.2c-0.8-3.1-1.7-6.3-2.5-9.3c-0.6-2.2-1.2-4.5-1.8-6.7
		c-0.2-0.8,0.4-1.7,1.2-1.9c0.7-0.2,1.7,0.4,1.9,1.1c0.8,2.8,1.5,5.6,2.2,8.4c0.5,2.1,1.1,4.2,1.7,6.3
		C167.9,25.7,168.1,26.2,168.2,26.8z"/>
	<path d="M158.3,36.6c-0.5-0.1-1.1-0.2-1.7-0.4c-3.6-0.9-7.2-1.9-10.8-2.9c-1.2-0.4-2.5-0.7-3.8-1.1c-0.8-0.2-1.3-1.2-1.1-1.9
		c0.2-0.8,1.1-1.4,1.9-1.2c1.4,0.4,2.7,0.7,4.1,1.1c2.6,0.7,5.3,1.4,7.9,2.1c1.4,0.4,2.8,0.7,4.2,1.1c0.8,0.2,1.4,1.1,1.2,1.9
		C160,36,159.3,36.6,158.3,36.6z"/>
	<path d="M183.2,53.5c-0.4-0.2-0.8-0.4-1.2-0.6c-1.9-1.9-3.8-3.8-5.7-5.7c-0.7-0.7-0.8-1.7-0.1-2.4s1.7-0.6,2.4,0.1
		c1.9,1.9,3.8,3.8,5.7,5.7c0.5,0.5,0.7,1.1,0.4,1.8C184.6,53,184.1,53.4,183.2,53.5z"/>
	<path d="M161.4,31.6c-0.4-0.2-0.8-0.4-1.2-0.6c-1.9-1.9-3.8-3.8-5.7-5.7c-0.7-0.7-0.7-1.8-0.1-2.4c0.6-0.6,1.7-0.6,2.4,0.1
		c1.9,1.9,3.8,3.8,5.7,5.7c0.5,0.5,0.7,1.1,0.4,1.8C162.7,31.1,162.2,31.5,161.4,31.6z"/>
	<path d="M172.4,28.5c-1.1,0-1.9-1.1-1.6-2.1c0.7-2.7,1.4-5.3,2.1-8c0.2-0.8,1.2-1.4,2-1.2c0.9,0.2,1.5,1.2,1.2,2.1
		c-0.7,2.7-1.4,5.3-2.1,8C173.8,28.1,173.1,28.5,172.4,28.5z"/>
	<path d="M180.5,36.6c-0.9,0-1.7-0.6-1.8-1.4c-0.1-0.9,0.5-1.7,1.3-1.9c2.7-0.7,5.3-1.4,7.9-2.1c0.8-0.2,1.8,0.3,2.1,1.2
		c0.2,0.8-0.4,1.8-1.2,2c-2.6,0.7-5.2,1.4-7.8,2.1C180.8,36.6,180.6,36.6,180.5,36.6z"/>
	<path d="M150.7,44.6c-0.9,0-1.7-0.6-1.8-1.4c-0.1-0.9,0.5-1.7,1.3-1.9c2.6-0.7,5.3-1.4,7.9-2.1c0.8-0.2,1.8,0.3,2.1,1.1
		c0.2,0.8-0.4,1.8-1.2,2c-2.6,0.7-5.2,1.4-7.8,2.1C151,44.6,150.7,44.6,150.7,44.6z"/>
	<path d="M182.5,94.2c0.9,0,1.7,0.7,1.7,1.7c0,0.8-0.8,1.6-1.7,1.7c-0.9,0-1.7-0.8-1.7-1.7C180.8,94.9,181.5,94.2,182.5,94.2z"/>
	<path class="st0" d="M178.3,78.2c1.4,0,2.5,1.2,2.5,2.5c0,1.4-1.2,2.5-2.5,2.5c-1.3,0-2.6-1.2-2.5-2.5
		C175.8,79.3,177,78.2,178.3,78.2z"/>
	<path d="M175.9,30.4c0.2-0.4,0.4-0.8,0.6-1.2c3.8-3.9,7.7-7.7,11.6-11.6c0.6-0.6,1.2-0.7,1.9-0.4c0.7,0.4,1.1,0.9,0.9,1.7
		c-0.1,0.4-0.2,0.8-0.5,1c-3.7,3.7-7.3,7.3-10.9,11c-0.3,0.3-0.6,0.5-0.9,0.8c-0.5,0.5-1.2,0.5-1.8,0.2
		C176.3,31.7,175.9,31.1,175.9,30.4z"/>
</g>
</svg>
