<?xml version="1.0" encoding="utf-8"?>
<!-- Generator: Adobe Illustrator 21.1.0, SVG Export Plug-In . SVG Version: 6.00 Build 0)  -->
<svg version="1.1" id="Layer_1" xmlns="http://www.w3.org/2000/svg" xmlns:xlink="http://www.w3.org/1999/xlink" x="0px" y="0px"
	 viewBox="0 0 199.7 176" style="enable-background:new 0 0 199.7 176;" xml:space="preserve">
<style type="text/css">
	.st0{fill:#F79916;}
	.st1{fill:#FFFFFF;}
</style>
<path class="st0" d="M119.4,37.5c8.1,3.9,4.2,2.1,12.3,6.2c0.4,0.2,0.8,0.4,1.2,0.6c2.2-4.6,4.5-9,6.6-13.5
	c-14.2-7-28.3-13.9-42.4-20.9c-15.9,32.4-31.8,64.7-47.7,97c4.6,2.2,21.1,10.3,25.6,12.5c0.2-0.4,0.4-0.7,0.5-0.9
	c4.3-8.6,9.2-16.7,13.5-25.3c8.8-17.9,16.8-36.2,25.6-54.1"/>
<path d="M68.5,88.3c3.6-7.3,12.4-10.4,19.7-6.9c7.2,3.4,5.5,9.9,2,17.5c-3.7,8-7.8,12.7-14.7,9.4C68,104.6,64.9,95.8,68.5,88.3z
	 M77.7,103c4.6,2.4,10.2,0.3,12.4-4.2c2.2-4.4,0.2-10-4.1-12.2c-4.6-2.3-10.2-0.5-12.4,4.1C71.3,95.2,73.2,100.7,77.7,103z"/>
<g id="Cay7dE_1_">
	<g>
		<path d="M70.9,140.5c14.2,7,28.2,13.9,42.5,20.9c0.6-1.2,1.2-2.4,1.7-3.5c3.8-7.9,7.7-15.7,11.6-23.6c0.5-1.1,1.4-1.8,2.6-1.8
			c1.1-0.1,2.2,0.5,2.5,1.5c0.2,0.7,0.4,1.9,0.1,2.5c-4.8,10-9.8,20-14.7,29.9c-0.7,1.4-2.1,1.9-3.6,1.3c-0.4-0.2-0.8-0.4-1.1-0.5
			c-15.3-7.5-30.6-15-45.9-22.6c-2.3-1.1-2.7-2.3-1.6-4.7c2.3-4.7,4.6-9.3,6.9-14c0.2-0.4,0.4-0.8,0.7-1.4
			c-1.4-0.7-14.9-7.2-16.3-7.9c-3.9-1.9-7.7-3.7-11.5-5.7c-2-1-2.4-2.4-1.5-4.4c7.4-15.1,14.8-30.2,22.3-45.2
			c5.3-10.7,10.5-21.4,15.7-32c3.9-8,7.9-16,11.9-24.1c0.9-1.9,2.5-2.4,4.3-1.5c15.6,7.7,31.3,15.4,46.9,23.1
			c1.8,0.9,2.3,2.4,1.4,4.3c-2.3,4.7-4.7,9.5-7,14.3c-0.2,0.5-0.4,0.9-0.7,1.4c2,1,15.8,7.7,17.7,8.6c3.4,1.6,6.7,3.2,10,5
			c2.1,1,2.6,2.4,1.6,4.5c-7.8,16-15.7,32-23.6,48c-0.5,1.1-1.2,2.1-2.6,2.1c-2.2,0.1-3.7-2-2.7-4.1c2.3-4.8,4.8-9.6,7.1-14.4
			c5.2-10.6,10.4-21.2,15.6-31.8c0-0.1,0.1-0.2,0.1-0.4c-14.1-7-28.2-13.9-42.4-20.9C102.7,75.8,86.8,108.1,70.9,140.5z M96.9,9.9
			c-15.9,32.4-31.8,64.7-47.7,97c4.6,2.2,21.1,10.3,25.6,12.5c0.2-0.4,0.4-0.7,0.5-0.9c4.3-8.6,8.4-17.1,12.7-25.7
			c8.8-17.9,17.6-35.8,26.4-53.7c1.2-2.4,2.4-2.8,4.8-1.7c8.1,3.9,16.3,8,24.4,12c0.4,0.2-11.3-5.5-10.9-5.3c2.2-4.6,4.5-9,6.6-13.5
			C125.2,23.8,111,16.8,96.9,9.9z"/>
		<path d="M90.2,121.1c3.6-7.3,12.4-10.4,19.7-6.9c7.2,3.4,10.7,12.1,7.3,19.6c-3.7,8-13,10.6-19.9,7.2
			C89.7,137.3,86.6,128.5,90.2,121.1z M99.5,135.8c4.6,2.4,10.2,0.3,12.4-4.2c2.2-4.4,0.2-10-4.1-12.2c-4.6-2.3-10.2-0.5-12.4,4.1
			C93,127.9,94.9,133.5,99.5,135.8z"/>
		<path d="M136,87c-2.5,5.1-5,10.2-7.5,15.3c-0.9,1.9-2.9,2.4-4.4,1.1c-1-0.8-1.3-2.1-0.7-3.4c2.8-5.7,5.7-11.5,8.4-17.2
			c1.6-3.3,3.2-6.5,4.8-9.8c0.8-1.6,1.6-3.3,2.6-4.7c0.9-1.3,2.3-1.3,3.6-0.4c1.1,0.7,1.5,2.1,0.8,3.5c-0.9,1.8-1.8,3.6-2.7,5.3
			C139.2,80.2,137.6,83.6,136,87C135.9,86.9,136,87,136,87z"/>
		<path d="M117.1,87.3c-2.2,4.5-4.4,9-6.6,13.5c-1.1,2.3-3.6,2.5-5,0.7c-0.8-1.1-0.6-2.2,0-3.3c1.9-3.9,3.9-7.8,5.8-11.7
			c2.4-5,4.9-9.9,7.3-14.9c0.9-1.8,2.3-2.4,3.7-1.8c1.6,0.7,2.2,2.4,1.4,4.1C121.5,78.3,119.3,82.8,117.1,87.3z"/>
		<path d="M133.8,126.1c-1.5-0.7-2-2.4-1.2-3.8c0.7-1.3,2.4-1.8,3.7-1.2c1.4,0.7,2,2.5,1.2,3.9C136.8,126.4,135.2,126.9,133.8,126.1
			z"/>
	</g>
</g>
<path class="st0" d="M99.4,135.8c4.6,2.4,10.2,0.3,12.4-4.2c2.2-4.4,0.2-10-4.1-12.2c-4.6-2.3-10.2-0.5-12.4,4.1
	C93,128,94.9,133.5,99.4,135.8z"/>
<path class="st1" d="M77.7,103c4.6,2.4,10.2,0.3,12.4-4.2c2.2-4.4,0.2-10-4.1-12.2c-4.6-2.3-10.2-0.5-12.4,4.1
	C71.3,95.2,73.2,100.8,77.7,103z"/>
<path d="M80.7,114.3L80.7,114.3c-1.4-0.7-1.9-2.3-1.3-3.7l10-20.7c0.7-1.4,2.3-1.9,3.7-1.3l0,0c1.4,0.7,1.9,2.3,1.3,3.7l-10,20.7
	C83.8,114.4,82.1,115,80.7,114.3z"/>
</svg>
