<?xml version="1.0" encoding="utf-8"?>
<!-- Generator: Adobe Illustrator 19.2.1, SVG Export Plug-In . SVG Version: 6.00 Build 0)  -->
<svg version="1.1" id="Layer_1" xmlns="http://www.w3.org/2000/svg" xmlns:xlink="http://www.w3.org/1999/xlink" x="0px" y="0px"
	 viewBox="0 0 100 100" style="enable-background:new 0 0 100 100;" xml:space="preserve">
<style type="text/css">
	.st0{fill:#F89B17;}
	.st1{fill:#020303;}
	.st2{fill:#FFFFFF;}
</style>
<path class="st0" d="M41.8,17.7c6.1,0,3.2,0,9.2,0.1c0.3,0,0.6,0,0.9,0c0-3.4,0-6.7,0-10.1c-10.6,0-21.2-0.1-31.7-0.2
	c-0.1,24.2-0.2,48.3-0.4,72.5c3.4,0,15.8,0,19.1,0c0-0.3,0-0.5,0-0.7c0-6.4,0.7-12.8,0.7-19.2c0-13.4-0.5-26.8-0.4-40.1"/>
<path class="st1" d="M25.9,63.3c0-5.5,4.4-9.9,9.8-10c5.3,0,6.2,4.4,6.3,10c0.1,5.9-1,10-6.1,10C30.4,73.3,25.9,68.8,25.9,63.3z
	 M35.8,69.4c3.5,0.1,6.2-2.8,6.2-6.2c0-3.3-2.8-6.1-6.1-6.2c-3.5,0-6.3,2.7-6.3,6.1C29.6,66.6,32.4,69.4,35.8,69.4z"/>
<g id="Cay7dE_1_">
	<g>
		<path class="st1" d="M42.7,94.1c10.6,0,21.1,0.1,31.8,0.2c0-0.9,0-1.8,0-2.6c0-5.9,0-11.7,0-17.6c0-0.8,0.3-1.5,1-1.9
			c0.7-0.4,1.4-0.4,2,0.2c0.4,0.4,0.8,1,0.8,1.5c0,7.4,0,14.9-0.1,22.4c0,1.1-0.7,1.8-1.8,1.9c-0.3,0-0.6,0-0.8,0
			c-11.4,0-22.8-0.1-34.3-0.2c-1.7,0-2.3-0.6-2.3-2.4c0-3.5,0-7,0-10.4c0-0.3,0-0.6,0-1.1c-1.1,0-11.1,0-12.2,0c-2.9,0-5.8,0-8.6,0
			c-1.5,0-2.1-0.7-2.1-2.2c0-11.3,0.1-22.6,0.2-33.8c0-8,0-15.9,0.1-23.9c0-6,0-12,0.1-18c0-1.4,0.8-2.1,2.1-2.1
			c11.7,0,23.4,0.1,35.1,0.2c1.4,0,2.1,0.8,2.1,2.1c0,3.5,0,7.1,0,10.7c0,0.4,0,0.7,0,1.1c1.5,0,11.8,0,13.2,0c2.5,0,5,0,7.5,0
			c1.6,0,2.3,0.7,2.3,2.3c0,11.9-0.1,23.9-0.2,35.9c0,0.8-0.1,1.6-1,2.1c-1.3,0.7-2.8-0.1-2.8-1.7c0-3.6,0-7.2,0-10.7
			c0-7.9,0-15.8,0.1-23.8c0,0,0-0.1,0-0.2c-10.5,0-21.1-0.1-31.7-0.2C42.9,45.7,42.8,69.9,42.7,94.1z M20.1,7.6
			c-0.1,24.2-0.2,48.3-0.4,72.5c3.4,0,15.8,0,19.1,0c0-0.3,0-0.5,0-0.7c0-6.4,0-12.8,0.1-19.2c0-13.4,0.1-26.8,0.2-40.1
			c0-1.8,0.6-2.4,2.4-2.4c6.1,0,12.2,0,18.2,0.1c0.3,0-8.4,0-8.1,0c0-3.4,0-6.7,0-10.1C41.2,7.7,30.6,7.7,20.1,7.6z"/>
		<path class="st1" d="M48.6,76.7c0-5.5,4.4-9.9,9.8-10c5.3,0,10,4.1,10.1,9.7c0.1,5.9-4.7,10.2-9.9,10.2
			C53.1,86.6,48.6,82.2,48.6,76.7z M58.6,82.9c3.5,0.1,6.2-2.8,6.2-6.2c0-3.3-2.8-6.1-6.1-6.2c-3.5,0-6.3,2.7-6.3,6.1
			C52.3,80,55.1,82.8,58.6,82.9z"/>
		<path class="st1" d="M66.3,42.7c0,3.8,0,7.6,0,11.4c0,1.4-1.1,2.3-2.3,2c-0.8-0.2-1.4-0.9-1.4-1.9c0-4.2,0-8.6,0-12.8
			c0-2.5,0-4.9,0-7.3c0-1.2,0-2.5,0.2-3.6c0.2-1.1,1-1.5,2.1-1.3c0.9,0.1,1.5,0.8,1.5,1.9c0,1.3,0,2.7,0,4
			C66.2,37.7,66.2,40.2,66.3,42.7C66.2,42.7,66.3,42.7,66.3,42.7z"/>
		<path class="st1" d="M54.9,48.4c0,3.4,0,6.7,0,10.1c0,1.7-1.4,2.6-2.8,1.9c-0.8-0.4-1-1.1-1-2c0-2.9,0-5.8,0-8.8
			c0-3.7,0-7.4,0-11.2c0-1.3,0.7-2.1,1.7-2.1c1.2,0,2.1,0.8,2.1,2.1C55,41.7,55,45.1,54.9,48.4z"/>
		<path class="st1" d="M76.4,67c-1.1,0-1.9-0.8-1.9-1.9c0-1,0.9-1.8,1.9-1.8c1.1,0,1.9,0.9,1.9,2C78.3,66.2,77.5,67,76.4,67z"/>
	</g>
</g>
<path class="st0" d="M58.5,82.9c3.5,0.1,6.2-2.8,6.2-6.2c0-3.3-2.8-6.1-6.1-6.2c-3.5,0-6.3,2.7-6.3,6.1C52.3,80,55.1,82.8,58.5,82.9
	z"/>
<path class="st2" d="M35.8,69.4c3.5,0.1,6.2-2.8,6.2-6.2c0-3.3-2.8-6.1-6.1-6.2c-3.5,0-6.3,2.7-6.3,6.1
	C29.6,66.6,32.4,69.4,35.8,69.4z"/>
<path class="st1" d="M40.9,73L40.9,73c-1,0-1.9-0.8-1.9-1.9V55.7c0-1,0.8-1.9,1.9-1.9l0,0c1,0,1.9,0.8,1.9,1.9v15.4
	C42.8,72.1,41.9,73,40.9,73z"/>
</svg>
