<?xml version="1.0" encoding="utf-8"?>
<!-- Generator: Adobe Illustrator 19.2.1, SVG Export Plug-In . SVG Version: 6.00 Build 0)  -->
<svg version="1.1" id="Layer_1" xmlns="http://www.w3.org/2000/svg" xmlns:xlink="http://www.w3.org/1999/xlink" x="0px" y="0px"
	 viewBox="0 0 147.6 108.1" style="enable-background:new 0 0 147.6 108.1;" xml:space="preserve">
<style type="text/css">
	.st0{fill:#FFFFFF;}
	.st1{fill:#FBAA19;}
</style>
<path class="st0" d="M64.6,105l-2-0.9c0.8-2.3,1.6-4.5,2.3-6.7l1.9,0.9c-0.7,0.8-1.2,1.7-1.7,2.6C64.8,102.2,64.5,103.6,64.6,105z"
	/>
<path class="st1" d="M51.6,18.2c4.4,2.3,7,5.3,7.7,9c0.1,0.3,0.8,7.9-2.4,19.3l-7.1-10.2c-0.4-0.5-1-0.8-1.6-0.8
	c-0.2,0-0.5,0.1-0.7,0.1c-0.1,0.1-7.9,3.1-15,3.1c-6.8-0.1-14.5-3-14.8-3.1c-0.8-0.4-1.9-0.1-2.4,0.7L8.1,46.6
	C4.8,34.7,5.8,25.4,5.8,25l0.6-7.2c3,1.2,8.9,2.4,16.7-1.2C29.7,13.6,42.7,13.6,51.6,18.2z"/>
<g>
	<circle cx="24.4" cy="52" r="2.7"/>
	<circle cx="40.6" cy="52" r="2.7"/>
	<path d="M32.5,65.8c4.3,0,8.5-1.5,11.8-4.3c0.4-0.4,0.7-0.8,0.7-1.4c0.1-0.5-0.1-1.1-0.5-1.5c-0.7-0.8-2-1-2.8-0.2l0,0
		c-5.1,4.4-13.2,4.4-18.4,0c-0.8-0.7-2.1-0.6-2.8,0.2c-0.4,0.4-0.5,0.9-0.5,1.5c0.1,0.5,0.3,1,0.7,1.4
		C23.9,64.3,28.2,65.8,32.5,65.8z"/>
	<path d="M46.8,72.6c7.1-4.5,11.7-12.1,12.4-20.4l0,0c0.1-0.1,0.2-0.2,0.2-0.4c5-14.8,3.9-24.7,3.8-25.1v-0.1c-0.9-5-4.3-9.1-9.8-12
		c-10.2-5.4-24.6-5.1-32-1.8C11.8,17.2,6.1,13,5.9,12.9c-0.6-0.5-1.4-0.5-2.1-0.2s-1.2,1-1.2,1.7L1.8,24.5C1.8,25,0.4,36.8,5.5,51.7
		C6.1,60.3,10.7,68,18,72.6c-7.6,4.4-16.7,13-18,28.6c-0.1,1.1,0.7,2.1,1.9,2.2c1.1,0.1,2.1-0.7,2.2-1.9c1.2-15.3,10.5-23,18.2-26.7
		c3.3,1.3,6.7,2,10.2,2c3.6,0,7-0.7,10.3-2.1c7.7,3.8,17,11.4,18.2,26.8c0.1,1,1,1.9,2,1.9c0.1,0,0.1,0,0.2,0
		c1.1-0.1,1.9-1.1,1.9-2.2C63.7,85.5,54.5,77,46.8,72.6z M51.6,18.2c4.4,2.3,7,5.3,7.7,9c0.1,0.3,0.8,7.9-2.4,19.3l-7.1-10.2
		c-0.4-0.5-1-0.8-1.6-0.8c-0.2,0-0.5,0.1-0.7,0.1c-0.1,0.1-7.9,3.1-15,3.1c-6.8-0.1-14.5-3-14.8-3.1c-0.8-0.4-1.9-0.1-2.4,0.7
		L8.1,46.6C4.8,34.7,5.8,25.4,5.8,25l0.6-7.2c3,1.2,8.9,2.4,16.7-1.2C29.7,13.6,42.7,13.6,51.6,18.2z M17.6,40
		c2.7,0.9,8.9,2.8,15,2.9c5.9-0.1,12.1-1.9,14.7-2.9l7.9,11.3c-0.8,12-10.8,21.4-22.9,21.4c-11.9,0-21.9-9.3-22.9-21.1L17.6,40z"/>
	<path d="M145.9,34.5C135.8,8.1,112,9.2,111.8,9.2h-0.3c-0.2,0-24.2-1-34.2,25.3c-7.9,20.5,6.9,43.5,9.3,47.1
		c-4.5,5.5-7.1,12.2-7.8,20c-0.1,1.1,0.7,2.1,1.9,2.2c1.2,0.1,2.1-0.8,2.2-1.9c1.2-15.3,10.5-23,18.2-26.8c3.3,1.3,6.7,2.1,10.3,2.1
		c3.6,0,7-0.7,10.3-2.1c7.6,3.8,17,11.4,18.2,26.8c0.1,1,1,1.9,2,1.9c0.1,0,0.1,0,0.2,0c1.1-0.1,1.9-1.1,1.9-2.2
		c-0.6-7.6-3.1-14.2-7.5-19.6C138.3,79.1,154,55.6,145.9,34.5z M88.9,45.6c10.4,0.7,29.1,0.5,41.5-8.4c2.5,3.8,4,8.4,4,12.9
		c0,12.7-10.3,23-23,23s-23-10.3-23-23C88.4,48.6,88.6,47.1,88.9,45.6z M138.4,50.2c0-6.2-2.2-12.2-6.1-17.1
		c-0.4-0.4-0.8-0.7-1.4-0.7c-0.5-0.1-1.1,0.1-1.5,0.5c-12.1,10-33.4,9.3-42,8.6c-1-0.1-1.9,0.5-2.1,1.5c-0.7,2.4-1,4.8-1,7.3
		c0,9.3,4.7,17.8,12.6,22.8c-2.8,1.6-5.3,3.5-7.5,5.6c-3.1-4.8-15.1-25.1-8.4-42.5c9-23.6,29.4-22.8,30.3-22.7h0.5
		c0.6,0,5.8-0.1,12,2.5c8.4,3.6,14.5,10.4,18.2,20.2c6.7,17.7-5.4,38-8.6,42.8c-2.3-2.2-4.9-4.2-7.8-5.9
		C133.7,68,138.4,59.5,138.4,50.2z"/>
	<circle cx="103.5" cy="52.3" r="2.7"/>
	<circle cx="119.7" cy="52.3" r="2.7"/>
	<path d="M111.6,66.2c4.3,0,8.5-1.5,11.8-4.3c0.4-0.4,0.7-0.8,0.7-1.4c0.1-0.5-0.1-1.1-0.5-1.5c-0.7-0.8-2-1-2.8-0.2l0,0
		c-5.1,4.4-13.2,4.4-18.4,0c-0.4-0.4-0.9-0.5-1.5-0.5c-0.5,0.1-1,0.3-1.4,0.7c-0.4,0.4-0.5,0.9-0.5,1.5c0.1,0.5,0.3,1,0.7,1.4
		C103.1,64.6,107.3,66.2,111.6,66.2z"/>
</g>
<path class="st1" d="M111.9,12.8c0.6,0,5.8-0.1,12,2.5c8.4,3.6,14.5,10.4,18.2,20.2c6.7,17.7-5.4,38-8.6,42.8
	c-2.3-2.2-4.9-4.2-7.8-5.9c7.9-5,12.6-13.4,12.6-22.8c0-6.2-2.2-12.2-6.1-17.1c-0.4-0.4-0.8-0.7-1.4-0.7c-0.5-0.1-1.1,0.1-1.5,0.5
	c-12.1,10-33.4,9.3-42,8.6c-1-0.1-1.9,0.5-2.1,1.5c-0.7,2.4-1,4.8-1,7.3c0,9.3,4.7,17.8,12.6,22.8c-2.8,1.6-5.3,3.5-7.5,5.6
	c-3.1-4.8-15.1-25.1-8.4-42.5c9-23.6,29.4-22.8,30.3-22.7H111.9"/>
</svg>
