<?xml version="1.0" encoding="utf-8"?>
<!-- Generator: Adobe Illustrator 21.1.0, SVG Export Plug-In . SVG Version: 6.00 Build 0)  -->
<svg version="1.1" id="Layer_1" xmlns="http://www.w3.org/2000/svg" xmlns:xlink="http://www.w3.org/1999/xlink" x="0px" y="0px"
	 viewBox="0 0 199.7 176" style="enable-background:new 0 0 199.7 176;" xml:space="preserve">
<style type="text/css">
	.st0{stroke:#000000;stroke-width:2;stroke-miterlimit:10;}
	.st1{fill:#F28019;}
	.st2{fill:#FFFFFF;}
</style>
<g>
	<g>
		<path class="st0" d="M109.8,41.9c0.7-0.8,1.5-1.5,2.1-2.2c9.1,9.8,18.2,19.6,27.4,29.5c-0.6,0.6-1.4,1.3-2.1,2
			C128,61.5,118.9,51.7,109.8,41.9z"/>
	</g>
	<g>
		<path class="st0" d="M107.8,35.5c-0.6,0.7-1.4,1.4-2.1,2.2c-1-1.1-2-2.2-3-3.3c0.7-0.7,1.4-1.5,2.2-2.3
			C105.9,33.1,106.8,34.2,107.8,35.5z"/>
	</g>
	<path class="st0" d="M157.9,51.7c-2.3-1.2-4.8-1.1-7.4-0.6c0.7-4.2,0.3-8-2.6-11c-2.9-3.1-6.4-3.6-10.3-2.8c0.8-4.3,0.2-8-2.6-11.1
		c-2.8-3-6.4-3.6-10.2-2.7c0.1-0.4,0.1-0.7,0.1-0.9c0.5-3.4,0-6.6-2-9.4c-3.7-4.9-10-4.9-14.6-1.6c-1.8,1.3-3.4,3.1-5.2,4.9
		c-0.3-0.3-29.1,31-29.1,31C61.3,33.2,47.1,54,46.1,57.1C43.4,65.5,43.6,73,49,79.9c2.1,2.6,4.4,5,6.7,7.3c1.3,1.3,1.5,2.3,0.9,4.1
		c-6.4,18-12.8,36-19.2,54.1c-1.1,3-0.3,1.1-1.4,4.1c1.1,0.4,2,0.8,3.1,1.2c2.5-7,4.7-13.4,7-19.7l4.6,2.1c0.1,0.2,0.1,0.3,0.2,0.5
		c1.2,3.3,3.5,5.8,6.5,7.2l15.4,7.1l0,0c1.6,0.7,3.2,1.1,4.8,1.1c2.3,0,4.5-0.7,6.5-2l4.2,2l0,0c0.1,0,0.2,0.1,0.3,0.1l1.9,0.9v-0.1
		c0.3,0.1,0.5,0.2,0.8,0.3c0.3-0.8,4.7-13.9,8.2-23.8c0.3-0.9,0.7-1.3,1.7-1.4c2.1-0.2,4.3-0.7,6.4-1.2c4.9,0.1,54.3-55.4,55.1-57.2
		C165.2,60.9,163,54.3,157.9,51.7z M73.9,145.1L73.9,145.1L58.5,138c-2.3-1-4-3-4.9-5.5s-0.9-5.2,0.1-7.6s2.8-4.3,5.1-5.3
		c2.3-1,4.8-0.9,7.1,0.1l15.4,7.1c2.3,1,4,3,4.9,5.5s0.9,5.2-0.1,7.6C84,144.9,78.5,147.3,73.9,145.1z M159.8,65
		c-0.7,1.6-1.7,3.2-2.9,4.4c-14.4,15.5-28.8,30.9-43.3,46.4c-3.7,3.9-8.1,6-13.2,5.7c-2.7-0.1-5.3-0.7-8.1-1
		c-0.2,0.8-0.5,1.9-0.9,3.1c1.8,0.4,3.4,0.9,5.2,1.3c-1.2,3.5-2.1,6.1-2.9,8.4l-4.7-2.2l0,0c-1.2-3.3-3.5-5.8-6.5-7.2l-15.4-7.1
		c-3.8-1.8-7.9-1.3-11.2,0.8l-4.3-2c3.1-8.9,6.3-17.8,9.8-27.7c-0.6-0.5-1.1-0.9-1.6-1.4c-2.3-2.5-4.6-5-7-7.5
		c-3.4-3.5-5.3-7.7-5.8-12.7c-0.3-2.7,1.3-4.8,2.3-7.8c14.1-18.9,20-11.4,22-9.1c0.4,0.5-16,16.9-16,16.9c1,1.2,2.1,2.3,3.1,3.5
		c0.7-0.8,1.2-1.4,1.7-2c11.2-12.1,22.4-24.2,33.6-36.3c4.6-4.9,9.2-9.8,13.6-14.9c2.3-2.6,5-4.1,8.4-3.9c1.6,0.1,2.9,0.8,4,2
		c3.3,3.8,2,9.4-0.7,12.1c-1.2,1.2-2.4,2.5-3.4,3.6c0.8,1,1.6,1.8,2.3,2.8c0.7-0.8,1.4-1.6,2.1-2.3c1.5-1.8,3.2-3.4,5.5-4
		c4.3-1.2,8.3,1.3,8.9,5.8c0.5,3-0.5,5.7-2.4,7.9c-1.2,1.4-2.5,2.6-3.7,3.9c0.8,1,1.5,1.8,2.4,2.8c0.9-1.1,1.7-2.1,2.6-3
		c1.1-1,2.1-2.2,3.4-2.9c4.4-2.4,9.3-0.4,10.4,4.3c0.8,3.3-0.1,6.3-2.3,8.8c-1.2,1.3-2.4,2.5-3.6,3.7c0.9,1,1.6,1.9,2.3,2.8
		c1.3-1.4,2.4-2.6,3.6-3.8c0.6-0.6,1.3-1.2,2.1-1.7c3-1.8,6.5-1.5,8.8,0.6C160.4,58.1,161.1,61.6,159.8,65z"/>
	<path class="st1" d="M73.9,145.1c4.7,2.2,10.1-0.1,12.1-5.2c1-2.4,1-5.1,0.1-7.6s-2.7-4.4-4.9-5.5l-15.4-7.1
		c-2.3-1-4.8-1.1-7.1-0.1c-2.3,1-4.1,2.9-5.1,5.3c-1,2.4-1,5.1-0.1,7.6s2.7,4.4,4.9,5.5L73.9,145.1L73.9,145.1"/>
</g>
<path class="st2" d="M86.8,144.3c0.9-1.1,1.7-2.3,2.3-3.8c0.8-2,1.1-4.2,1-6.4l2.9,1.4c-1,3-2,5.9-3.4,10L86.8,144.3z"/>
<path class="st2" d="M50,129.5l-2.9-1.3c1.2-3.3,2.3-6.5,3.4-9.7l2.8,1.3c-1,1.1-1.8,2.4-2.4,3.8C50.2,125.4,49.9,127.5,50,129.5z"
	/>
</svg>
