<?xml version="1.0" encoding="utf-8"?>
<!-- Generator: Adobe Illustrator 21.1.0, SVG Export Plug-In . SVG Version: 6.00 Build 0)  -->
<svg version="1.1" id="Layer_1" xmlns="http://www.w3.org/2000/svg" xmlns:xlink="http://www.w3.org/1999/xlink" x="0px" y="0px"
	 viewBox="0 0 660.7 176" style="enable-background:new 0 0 660.7 176;" xml:space="preserve">
<style type="text/css">
	.st0{fill:#F7931E;}
	.st1{fill:none;stroke:#000000;stroke-width:3;stroke-miterlimit:10;}
</style>
<path class="st0" d="M361.8,24.2c7.3,3.8,11.5,8.8,12.7,14.9c0.1,0.5,1.3,13-4,31.9l-11.7-16.8c-0.6-0.9-1.6-1.4-2.7-1.4
	c-0.4,0-0.8,0.1-1.2,0.2c-0.1,0.1-13.1,5.1-24.7,5.2c-11.2-0.1-23.9-5-24.4-5.2c-1.4-0.6-3.1-0.1-4,1.2L290,71
	c-5.4-19.7-3.8-35-3.7-35.6l1-11.9c5,1.9,14.7,3.9,27.5-1.9C325.7,16.6,347.2,16.5,361.8,24.2z"/>
<g>
	<circle cx="316.9" cy="79.9" r="4.4"/>
	<circle cx="343.7" cy="79.9" r="4.4"/>
	<path d="M354,113.9c11.7-7.5,19.3-20,20.5-33.7l0,0c0.1-0.1,0.3-0.3,0.3-0.6c8.3-24.5,6.4-40.7,6.3-41.4V38
		c-1.5-8.2-7.1-15-16.2-19.8C348,9.3,324.3,9.8,312,15.3c-15.9,7.2-25.2,0.3-25.6,0.1c-1-0.8-2.3-0.9-3.4-0.4s-1.9,1.6-2,2.8
		l-1.3,16.8c-0.1,0.8-2.4,20.3,6,44.9c1,14.1,8.7,26.8,20.7,34.4c-12.6,7.3-27.6,21.4-29.7,47.2c-0.2,1.8,1.2,3.5,3.1,3.6
		c1.8,0.1,3.5-1.2,3.6-3.1c2-25.2,17.4-37.9,30-44.1c5.4,2.2,11,3.3,16.8,3.3c5.9,0,11.6-1.1,17-3.4c12.7,6.2,28.1,18.9,30.1,44.2
		c0.1,1.7,1.6,3.1,3.3,3.1c0.1,0,0.2,0,0.3,0c1.8-0.1,3.2-1.8,3.1-3.6C381.8,135.3,366.7,121.2,354,113.9z M361.8,24.2
		c7.3,3.8,11.5,8.8,12.7,14.9c0.1,0.5,1.3,13-4,31.9l-11.7-16.8c-0.6-0.9-1.6-1.4-2.7-1.4c-0.4,0-0.8,0.1-1.2,0.2
		c-0.1,0.1-13.1,5.1-24.7,5.2c-11.2-0.1-23.9-5-24.4-5.2c-1.4-0.6-3.1-0.1-4,1.2L290,71c-5.4-19.7-3.8-35-3.7-35.6l1-11.9
		c5,1.9,14.7,3.9,27.5-1.9C325.7,16.6,347.2,16.5,361.8,24.2z M305.8,60.2c4.4,1.5,14.7,4.7,24.7,4.8c9.7-0.1,19.9-3.2,24.3-4.8
		l13.1,18.7c-1.3,19.8-17.9,35.3-37.8,35.3c-19.7,0-36.2-15.3-37.8-34.9L305.8,60.2z"/>
	<circle class="st1" cx="330.1" cy="97.2" r="6.8"/>
</g>
<g>
	<path d="M407.6,52.3c0.6-0.9,1.2-1.7,1.6-2.7c1.9-3.8,5.2-5.4,9.1-6c2-0.3,4-0.6,6.1-1c4.3-0.8,6.3-2.8,6.7-6.9
		c0.4-3.8-1.8-7.7-5.2-9.2c-4.2-1.8-8.8-0.5-11.4,3.2c-1.2,1.7-3.1,2.2-4.5,1.2c-1.5-1-1.8-3-0.7-4.7c3.7-5.3,8.9-7.6,15.2-6.6
		c6.2,0.9,10.4,4.7,12.2,10.6c1.8,5.9,0,12.2-4.3,15.6c-2,1.6-4.5,2.4-7,2.9c-2.3,0.4-4.6,0.8-6.9,1.1c-1.7,0.3-3,1.1-3.8,2.7
		c-1.4,2.4-2.9,4.8-4.4,7.1c-1.1,1.8-3,2.4-4.6,1.4c-1.6-1-1.9-2.9-0.7-4.7C405.9,55,406.8,53.7,407.6,52.3z"/>
	<ellipse transform="matrix(0.5278 -0.8493 0.8493 0.5278 132.1707 373.3865)" cx="401.9" cy="67.8" rx="3.2" ry="3.2"/>
</g>
<g>
	<path d="M259.3,34.8c-0.3-0.6-0.6-1.2-0.9-1.8c-1.5-2.3-1.2-4.6-0.3-7c0.5-1.2,1-2.4,1.5-3.6c1-2.6,0.5-4.4-1.6-6
		c-2-1.5-4.8-1.6-6.7-0.2c-2.4,1.7-3.2,4.6-2,7.3c0.5,1.2,0.2,2.4-0.8,2.9c-1,0.5-2.2,0-2.8-1.2c-1.7-3.8-1.2-7.4,1.4-10.5
		c2.6-3.1,6-4.1,9.9-3.2c3.8,0.9,6.7,4,7.1,7.5c0.2,1.7-0.1,3.2-0.7,4.8c-0.5,1.4-1.1,2.8-1.7,4.2c-0.4,1-0.4,2,0.2,3
		c0.9,1.6,1.7,3.2,2.5,4.8c0.6,1.2,0.3,2.4-0.8,3c-1.1,0.5-2.2,0.1-2.8-1.2C260.2,36.7,259.8,35.8,259.3,34.8z"/>
	<ellipse transform="matrix(0.8901 -0.4557 0.4557 0.8901 9.5731 125.9132)" cx="265.9" cy="43.1" rx="2" ry="2"/>
</g>
<g>
	<path d="M392,22.2c0.1-0.5,0.3-1,0.4-1.5c0.3-2,1.6-3.3,3.3-4.2c0.9-0.5,1.8-0.9,2.7-1.4c1.9-1,2.5-2.3,2.1-4.2
		c-0.4-1.8-2-3.3-3.8-3.5c-2.2-0.2-4.2,1.1-4.8,3.2c-0.3,1-1.1,1.5-1.9,1.2c-0.8-0.2-1.3-1.1-1-2.1c0.9-3,2.9-4.9,6-5.4
		c3-0.5,5.5,0.6,7.3,3.1c1.8,2.4,1.9,5.7,0.4,7.9c-0.7,1.1-1.7,1.8-2.8,2.4c-1,0.5-2,1.1-3,1.6c-0.7,0.4-1.2,1-1.4,1.8
		c-0.3,1.3-0.6,2.7-0.9,4c-0.3,1-1,1.6-1.9,1.3c-0.9-0.2-1.3-1.1-1.1-2.1C391.6,23.7,391.8,23,392,22.2z"/>
	<ellipse transform="matrix(0.2344 -0.9721 0.9721 0.2344 270.4564 403.9755)" cx="391.7" cy="30.3" rx="1.6" ry="1.6"/>
</g>
<g>
	<path d="M251,72.4c-0.3-0.8-0.6-1.5-0.9-2.3c-1.5-2.9-1-5.7,0.4-8.5c0.7-1.4,1.5-2.8,2.2-4.3c1.5-3.1,1.1-5.3-1.3-7.4
		c-2.2-2-5.7-2.4-8.2-0.9c-3.1,1.8-4.4,5.3-3.2,8.7c0.5,1.5,0,2.9-1.3,3.4c-1.3,0.5-2.7-0.2-3.3-1.7c-1.6-4.8-0.7-9.1,2.8-12.7
		c3.4-3.5,7.7-4.4,12.3-2.9c4.5,1.5,7.7,5.6,7.9,9.9c0.1,2-0.5,3.9-1.4,5.8c-0.8,1.6-1.6,3.3-2.5,4.9c-0.6,1.2-0.7,2.4-0.1,3.7
		c0.9,2,1.7,4,2.5,6.1c0.6,1.6,0.1,3-1.2,3.5c-1.3,0.5-2.7-0.1-3.3-1.7C252,74.7,251.5,73.5,251,72.4z"/>
	<ellipse transform="matrix(0.9256 -0.3786 0.3786 0.9256 -12.2417 103.9447)" cx="258.2" cy="83.1" rx="2.5" ry="2.5"/>
</g>
</svg>
