<?xml version="1.0" encoding="utf-8"?>
<!-- Generator: Adobe Illustrator 21.1.0, SVG Export Plug-In . SVG Version: 6.00 Build 0)  -->
<svg version="1.1" id="Layer_1" xmlns="http://www.w3.org/2000/svg" xmlns:xlink="http://www.w3.org/1999/xlink" x="0px" y="0px"
	 viewBox="0 0 660.7 83.6" style="enable-background:new 0 0 660.7 83.6;" xml:space="preserve">
<style type="text/css">
	.st0{fill:#25569D;}
	.st1{fill:#CB5A26;}
	.st2{fill:#252626;}
	.st3{fill:#FFFFFF;}
	.st4{fill:#CB5C22;}
</style>
<path d="M229-93.2c-0.7-1.1-1.3-1.8-1.5-2.6c-0.1-0.3,0.7-0.9,1-1.3c0.6,0.7,1.3,1.5,1.7,2.2C230.3-94.7,229.6-94.1,229-93.2z"/>
<g>
	<path class="st0" d="M49,29.5c5.4-3.7,11.1-5.1,15.9-4.4v-8.6H24.2v41.1h13.9c-0.2-0.3-0.3-0.6-0.5-0.9
		C33.8,48.6,38.9,36.4,49,29.5L49,29.5z"/>
	<path class="st1" d="M64.7,29.8c-10.7,0-19.4,8.7-19.4,19.4c0,1.2,0.1,2.4,0.3,3.6c0.5,2.1,1.6,2.8,2.6,3.2c0.5,0.2,1,0.3,1.2,0.3
		c2.1,0.2,4.2-0.4,6.2-1.6c2.8-1.7,4.8-4.5,5.9-7.7c-3.3,0.4-6.6,0.9-9.9,1.5l0.1-6.1L73.5,41l-0.2,20.6l-6.6,0.4c0,0,0,0,0,0
		l0.1-0.6c0.4-2.8,0.7-5.6,0.9-8.4C67,54.1,66,55.1,65,56.1c-1.6,1.4-3.4,2.7-5.3,3.6c-1.4,0.7-3,1.3-4.5,1.7
		c-1.2,0.3-3.4,0.5-5.2,0.5c3.7,4.3,9.1,6.8,14.7,6.8c10.7,0,19.4-8.7,19.4-19.4C84.1,38.5,75.4,29.8,64.7,29.8L64.7,29.8z"/>
	<path class="st2" d="M114.9,42.8c-0.7-3.1-3.4-3.9-6.1-3.9c-6.4,0-8.7,5.6-8.6,10.5c0.3,6.7,2.3,10.3,9.8,10.5
		c1.8,0,3.5-0.3,5.2-0.8v-7.4h-5.9v-3.1h9.5v12.9c-3,0.9-6,1.5-9,1.5c-3.7,0-6.7-0.5-9.5-3c-2.9-2.5-3.9-6.9-3.9-10.6
		c0-2.7,0.9-5.7,2.2-8c2.3-4,6.1-5.6,10.6-5.6c4.4,0,9.3,2,9.5,7L114.9,42.8L114.9,42.8z M126,54c-0.3,3.2,1,6.5,4.6,6.5
		c2.7,0,4-1,4.4-3.7h3.6c-0.5,4.1-3.7,6.2-8.1,6.2c-5.8,0-8.1-4.1-8.1-9.5c0-5.3,2.7-9.8,8.4-9.8c5.4,0.1,8,3.5,8,8.6V54L126,54
		L126,54z M135.2,51.6c0.1-3-1.3-5.4-4.6-5.4c-2.9,0-4.6,2.4-4.6,5.4H135.2z M159.3,53.3c0,5.6-3.1,9.6-9,9.6c-6,0-9-4-9-9.6
		s3.1-9.6,9-9.6C156.3,43.7,159.3,47.7,159.3,53.3z M150.3,60.5c4.1,0,5.4-3.3,5.4-7.1c0-3.9-1.3-7.1-5.4-7.1
		c-4.1,0-5.4,3.3-5.4,7.1C144.9,57.2,146.2,60.5,150.3,60.5z"/>
	<path class="st2" d="M163.2,41.4h-8v-5.1h23.4v5.1h-8.2v21h-7.2V41.4z"/>
	<path class="st2" d="M182.4,47.7L182.4,47.7c0.9-3,3.1-4,6.1-3.9v5.8c-0.5,0-1,0-1.4,0c-3.6,0-4.8,2.2-4.7,5.6v7.3h-6.9V48.9
		c0-1.6-0.1-3.1-0.2-4.7h7L182.4,47.7L182.4,47.7z M204.1,60.4c-1.6,1.8-3.4,2.5-5.7,2.5c-3.9,0-6.8-2.5-6.8-6.5V44.3h6.9v10.7
		c0.1,1.8,0.5,3.7,2.6,3.7c3.4,0,3-3.7,3-3.9V44.3h6.9v13.5c0,1.6,0,2.7,0.2,4.7h-7L204.1,60.4z M225.3,49.9c0-0.6-0.1-1.2-0.4-1.5
		c-0.4-0.4-0.9-0.7-1.9-0.7c-1,0-1.6,0.6-1.6,1.6c0,1.3,2.8,1.3,7.1,2.6c2.2,0.7,3.7,2,3.7,5c0,4.8-4.5,6-8.7,6
		c-4.4,0-8.8-0.9-8.8-6.4h6.5c-0.1,0.5,0.1,1.2,0.5,1.6c0.4,0.5,1,0.8,1.6,0.8c1.3,0,2.3-0.5,2.3-1.7c0-3.2-10.7-1.3-10.7-7.9
		c0-4.5,4.8-5.7,8.4-5.7c4.3,0,8.3,1.1,8.6,6.1L225.3,49.9L225.3,49.9L225.3,49.9z M237.4,44.3v-2.7l6.9-2.6v5.4h4v4.3h-4v7.2
		c0,0.5-0.3,2.8,1.3,2.8c0.9,0,1.8,0,2.6-0.1v4.1c-1.6,0.3-2.7,0.4-3.7,0.4c-4.7,0-7.5-0.7-7.1-6.2v-8.1h-3.5v-4.3L237.4,44.3
		L237.4,44.3L237.4,44.3z M256.6,46.1c0,0.7-0.2,1.3-0.7,1.8c-0.5,0.5-1.1,0.7-1.8,0.7c-0.7,0-1.3-0.3-1.8-0.7
		c-0.5-0.5-0.7-1.1-0.7-1.8c0-0.7,0.2-1.3,0.7-1.8c0.5-0.5,1.1-0.7,1.8-0.7c0.7,0,1.3,0.2,1.8,0.7C256.4,44.8,256.6,45.4,256.6,46.1
		z M256,46.1c0-0.5-0.2-1-0.6-1.4c-0.3-0.4-0.8-0.6-1.3-0.6c-0.5,0-1,0.2-1.3,0.6c-0.4,0.4-0.6,0.9-0.6,1.4c0,0.5,0.2,1,0.6,1.4
		c0.4,0.4,0.8,0.6,1.3,0.6c0.5,0,1-0.2,1.3-0.6C255.9,47.1,256,46.6,256,46.1z M254.4,47.4V47c0-0.2,0-0.3-0.1-0.5
		c-0.1-0.1-0.2-0.2-0.3-0.2h-0.2v1.2h-0.6v-2.7h1c0.3,0,0.5,0.1,0.6,0.2c0.1,0.1,0.2,0.3,0.2,0.4v0.2c0,0.3-0.2,0.5-0.4,0.5
		c0.2,0.1,0.3,0.2,0.4,0.4c0.1,0.2,0.1,0.3,0.1,0.5v0.4L254.4,47.4L254.4,47.4L254.4,47.4z M254.5,45.6L254.5,45.6v-0.1
		c0-0.1,0-0.2-0.1-0.2c0-0.1-0.1-0.1-0.2-0.1h-0.4v0.7h0.4c0.1,0,0.2,0,0.2-0.1C254.5,45.8,254.5,45.7,254.5,45.6z"/>
	<path class="st3" d="M91.5,50.3c0,12.2-11.4,22.1-25.5,22.1s-25.5-9.9-25.5-22.1c0-12.2,11.4-22.1,25.5-22.1S91.5,38.1,91.5,50.3z"
		/>
	<path class="st4" d="M64.8,29.8c-10.7,0-19.4,8.7-19.4,19.4c0,1.2,0.1,2.4,0.3,3.6c0.5,2.1,1.6,2.8,2.6,3.2c0.5,0.2,1,0.3,1.2,0.3
		c2.1,0.2,4.2-0.4,6.2-1.6c2.8-1.7,4.8-4.5,5.9-7.7c-3.3,0.4-6.6,0.9-9.9,1.5l0.1-6.1L73.7,41l-0.2,20.6l-6.6,0.4c0,0,0,0,0,0
		l0.1-0.6c0.4-2.8,0.7-5.6,0.9-8.4c-0.9,1.1-1.8,2.1-2.8,3.1c-2.8,2.5-6.2,4.4-9.9,5.3c-1.2,0.3-3.4,0.5-5.2,0.5
		c3.7,4.3,9.1,6.8,14.7,6.8c10.7,0,19.4-8.7,19.4-19.4C84.2,38.5,75.5,29.8,64.8,29.8L64.8,29.8z"/>
</g>
<g>
	<path d="M97.7,25.6l1.8-0.2l0,0.5c0,0.5,0.1,1,0.4,1.4c0.2,0.4,0.6,0.8,1.2,1c0.5,0.2,1.2,0.4,2,0.4c1.1,0,1.9-0.2,2.5-0.7
		c0.6-0.5,0.8-1,0.8-1.6c0-0.4-0.1-0.8-0.4-1.2c-0.3-0.3-1.1-0.8-2.5-1.4c-1.1-0.5-1.8-0.8-2.2-1.1c-0.6-0.4-1-0.8-1.3-1.3
		c-0.3-0.5-0.4-1-0.4-1.6c0-0.7,0.2-1.3,0.6-1.9c0.4-0.6,0.9-1,1.7-1.3c0.7-0.3,1.6-0.4,2.5-0.4c1.1,0,2,0.2,2.8,0.5
		c0.8,0.4,1.3,0.9,1.6,1.5c0.3,0.6,0.5,1.2,0.5,1.7c0,0.1,0,0.1,0,0.3l-1.7,0.1c0-0.4,0-0.7-0.1-0.9c-0.1-0.4-0.3-0.7-0.6-0.9
		c-0.3-0.3-0.6-0.5-1.1-0.6c-0.4-0.2-1-0.2-1.5-0.2c-1,0-1.7,0.2-2.3,0.7c-0.4,0.3-0.6,0.8-0.6,1.3c0,0.3,0.1,0.6,0.3,0.9
		c0.2,0.3,0.5,0.5,0.9,0.8c0.3,0.2,1.1,0.5,2.3,1.1c1,0.4,1.6,0.8,2,1c0.5,0.3,0.9,0.7,1.1,1.2s0.4,1,0.4,1.6c0,0.7-0.2,1.4-0.7,2
		c-0.4,0.6-1.1,1.1-1.8,1.4c-0.8,0.3-1.7,0.5-2.7,0.5c-1.5,0-2.8-0.3-3.7-1C98.2,28.5,97.7,27.3,97.7,25.6z"/>
	<path d="M116.6,26.7l1.6,0.2c-0.2,0.8-0.8,1.6-1.6,2.3c-0.8,0.7-1.8,1.1-3,1.1c-0.7,0-1.4-0.2-2-0.5c-0.6-0.3-1.1-0.8-1.4-1.5
		c-0.3-0.6-0.5-1.4-0.5-2.2c0-1.1,0.2-2.1,0.7-3.1c0.5-1,1.1-1.7,1.9-2.2c0.8-0.5,1.6-0.7,2.5-0.7c1.2,0,2.1,0.4,2.8,1.1
		c0.7,0.7,1,1.7,1,2.9c0,0.5,0,1-0.1,1.5h-7.2c0,0.2,0,0.4,0,0.5c0,0.9,0.2,1.6,0.6,2.1c0.4,0.5,0.9,0.7,1.5,0.7
		c0.6,0,1.1-0.2,1.7-0.6C115.9,27.9,116.3,27.4,116.6,26.7z M111.8,24.2h5.5c0-0.2,0-0.3,0-0.4c0-0.8-0.2-1.5-0.6-1.9
		c-0.4-0.4-0.9-0.7-1.6-0.7c-0.7,0-1.4,0.2-1.9,0.7C112.5,22.5,112.1,23.3,111.8,24.2z"/>
	<path d="M126.6,26.4l1.7,0.2c-0.4,1.2-1,2.1-1.8,2.7c-0.8,0.6-1.6,0.9-2.6,0.9c-1.1,0-1.9-0.3-2.6-1c-0.7-0.7-1-1.6-1-2.9
		c0-1.1,0.2-2.1,0.6-3.1c0.4-1,1-1.8,1.8-2.3c0.8-0.5,1.7-0.8,2.7-0.8c1,0,1.9,0.3,2.5,0.9c0.6,0.6,0.9,1.4,0.9,2.3l-1.6,0.1
		c0-0.6-0.2-1.1-0.5-1.4c-0.4-0.3-0.8-0.5-1.4-0.5c-0.7,0-1.2,0.2-1.7,0.6c-0.5,0.4-0.9,1.1-1.1,1.9c-0.3,0.9-0.4,1.7-0.4,2.5
		c0,0.8,0.2,1.5,0.5,1.9c0.4,0.4,0.8,0.6,1.4,0.6s1.1-0.2,1.5-0.6C125.9,27.9,126.3,27.3,126.6,26.4z"/>
	<path d="M135.9,28.2c-1.2,1.3-2.4,2-3.6,2c-0.8,0-1.4-0.2-1.8-0.6c-0.5-0.4-0.7-1-0.7-1.6c0-0.4,0.1-1.1,0.3-2.1l1.2-5.6h1.7
		l-1.3,6.2c-0.1,0.5-0.2,0.9-0.2,1.2c0,0.4,0.1,0.7,0.3,0.9c0.2,0.2,0.6,0.3,1,0.3c0.5,0,0.9-0.1,1.4-0.3c0.4-0.2,0.8-0.5,1.1-0.9
		c0.3-0.4,0.6-0.8,0.8-1.4c0.1-0.3,0.3-0.9,0.5-1.8l0.9-4.2h1.7l-2,9.7h-1.5L135.9,28.2z"/>
	<path d="M139.7,30l2-9.7h1.5l-0.4,2c0.5-0.8,1-1.3,1.5-1.7c0.5-0.4,1-0.5,1.5-0.5c0.3,0,0.7,0.1,1.2,0.4l-0.7,1.5
		c-0.3-0.2-0.6-0.3-0.9-0.3c-0.6,0-1.2,0.3-1.8,1c-0.6,0.6-1.1,1.8-1.4,3.5l-0.8,3.9H139.7z"/>
	<path d="M153.1,26.7l1.6,0.2c-0.2,0.8-0.8,1.6-1.6,2.3c-0.8,0.7-1.8,1.1-3,1.1c-0.7,0-1.4-0.2-2-0.5c-0.6-0.3-1.1-0.8-1.4-1.5
		c-0.3-0.6-0.5-1.4-0.5-2.2c0-1.1,0.2-2.1,0.7-3.1c0.5-1,1.1-1.7,1.9-2.2c0.8-0.5,1.6-0.7,2.5-0.7c1.2,0,2.1,0.4,2.8,1.1
		c0.7,0.7,1,1.7,1,2.9c0,0.5,0,1-0.1,1.5H148c0,0.2,0,0.4,0,0.5c0,0.9,0.2,1.6,0.6,2.1c0.4,0.5,0.9,0.7,1.5,0.7
		c0.6,0,1.1-0.2,1.7-0.6C152.3,27.9,152.8,27.4,153.1,26.7z M148.3,24.2h5.5c0-0.2,0-0.3,0-0.4c0-0.8-0.2-1.5-0.6-1.9
		c-0.4-0.4-0.9-0.7-1.6-0.7c-0.7,0-1.4,0.2-1.9,0.7C149,22.5,148.5,23.3,148.3,24.2z"/>
	<path d="M162.9,28.5c-0.9,1.1-1.9,1.6-3,1.6c-0.9,0-1.7-0.3-2.3-1c-0.6-0.7-0.9-1.7-0.9-3c0-1.2,0.2-2.3,0.7-3.2
		c0.5-1,1.1-1.7,1.8-2.2c0.7-0.5,1.5-0.7,2.2-0.7c1.2,0,2.1,0.6,2.7,1.7l1.1-5.2h1.6L164.1,30h-1.5L162.9,28.5z M158.4,25.9
		c0,0.7,0.1,1.2,0.2,1.6c0.1,0.4,0.4,0.7,0.7,1c0.3,0.3,0.7,0.4,1.2,0.4c0.8,0,1.4-0.4,2-1.2c0.8-1,1.2-2.3,1.2-3.8
		c0-0.8-0.2-1.4-0.6-1.8c-0.4-0.4-0.9-0.6-1.5-0.6c-0.4,0-0.8,0.1-1.1,0.3c-0.3,0.2-0.6,0.5-1,0.9c-0.3,0.4-0.6,1-0.8,1.6
		C158.5,24.8,158.4,25.4,158.4,25.9z"/>
	<path d="M172,30l2.8-13.4h1.7l-1,4.8c0.5-0.5,1-0.8,1.4-1c0.4-0.2,0.9-0.3,1.3-0.3c0.9,0,1.7,0.3,2.3,1c0.6,0.7,0.9,1.7,0.9,3
		c0,0.9-0.1,1.6-0.4,2.4c-0.2,0.7-0.5,1.3-0.9,1.8c-0.4,0.5-0.7,0.9-1.1,1.2c-0.4,0.3-0.8,0.5-1.2,0.6c-0.4,0.1-0.8,0.2-1.2,0.2
		c-0.6,0-1.2-0.2-1.7-0.5c-0.5-0.3-0.9-0.9-1.1-1.6l-0.4,1.8H172z M174.4,26l0,0.3c0,0.8,0.2,1.5,0.6,1.9c0.4,0.4,0.9,0.6,1.5,0.6
		c0.6,0,1.1-0.2,1.6-0.6c0.5-0.4,0.9-1,1.2-1.9c0.3-0.9,0.5-1.7,0.5-2.4c0-0.8-0.2-1.5-0.6-1.9c-0.4-0.5-0.9-0.7-1.5-0.7
		c-0.6,0-1.1,0.2-1.6,0.7c-0.5,0.5-0.9,1.2-1.3,2.1C174.6,24.9,174.4,25.5,174.4,26z"/>
	<path d="M181.8,33.7l0.1-1.6c0.3,0.1,0.7,0.1,1,0.1c0.3,0,0.6-0.1,0.8-0.2c0.3-0.2,0.6-0.6,0.9-1.1l0.5-1l-1.6-9.7h1.6l0.7,4.9
		c0.1,1,0.3,1.9,0.4,2.9l4.3-7.8h1.7l-6.2,11c-0.6,1.1-1.1,1.8-1.6,2.1c-0.5,0.3-1,0.5-1.6,0.5C182.5,33.9,182.2,33.8,181.8,33.7z"
		/>
</g>
<g>
	<path d="M347.8,45.3l2.4-0.2c0.1,1,0.4,1.7,0.8,2.4c0.4,0.6,1.1,1.1,1.9,1.5s1.9,0.6,2.9,0.6c1,0,1.8-0.1,2.6-0.4
		c0.7-0.3,1.3-0.7,1.7-1.2c0.4-0.5,0.5-1,0.5-1.6c0-0.6-0.2-1.1-0.5-1.6c-0.3-0.4-0.9-0.8-1.7-1.1c-0.5-0.2-1.7-0.5-3.4-0.9
		c-1.8-0.4-3-0.8-3.7-1.2c-0.9-0.5-1.6-1.1-2-1.8s-0.7-1.5-0.7-2.4c0-1,0.3-1.9,0.8-2.7c0.5-0.8,1.4-1.5,2.4-1.9
		c1.1-0.4,2.2-0.7,3.5-0.7c1.4,0,2.7,0.2,3.8,0.7s1.9,1.1,2.5,2c0.6,0.9,0.9,1.9,0.9,3l-2.4,0.2c-0.1-1.2-0.6-2.1-1.3-2.7
		c-0.8-0.6-1.9-0.9-3.3-0.9c-1.5,0-2.7,0.3-3.4,0.8c-0.7,0.6-1.1,1.2-1.1,2c0,0.7,0.2,1.3,0.7,1.7c0.5,0.4,1.8,0.9,3.8,1.4
		s3.5,0.9,4.2,1.2c1.1,0.5,1.9,1.2,2.5,2s0.8,1.7,0.8,2.7c0,1-0.3,2-0.9,2.9c-0.6,0.9-1.4,1.6-2.5,2.1s-2.3,0.8-3.7,0.8
		c-1.7,0-3.2-0.3-4.4-0.8c-1.2-0.5-2.1-1.3-2.8-2.3C348.1,47.8,347.8,46.6,347.8,45.3z"/>
	<path d="M365.6,45.3l2.4-0.2c0.1,1,0.4,1.7,0.8,2.4c0.4,0.6,1.1,1.1,1.9,1.5s1.9,0.6,2.9,0.6c1,0,1.8-0.1,2.6-0.4
		c0.7-0.3,1.3-0.7,1.7-1.2c0.4-0.5,0.5-1,0.5-1.6c0-0.6-0.2-1.1-0.5-1.6c-0.3-0.4-0.9-0.8-1.7-1.1c-0.5-0.2-1.7-0.5-3.4-0.9
		c-1.8-0.4-3-0.8-3.7-1.2c-0.9-0.5-1.6-1.1-2-1.8s-0.7-1.5-0.7-2.4c0-1,0.3-1.9,0.8-2.7c0.5-0.8,1.4-1.5,2.4-1.9
		c1.1-0.4,2.2-0.7,3.5-0.7c1.4,0,2.7,0.2,3.8,0.7s1.9,1.1,2.5,2c0.6,0.9,0.9,1.9,0.9,3l-2.4,0.2c-0.1-1.2-0.6-2.1-1.3-2.7
		c-0.8-0.6-1.9-0.9-3.3-0.9c-1.5,0-2.7,0.3-3.4,0.8c-0.7,0.6-1.1,1.2-1.1,2c0,0.7,0.2,1.3,0.7,1.7c0.5,0.4,1.8,0.9,3.8,1.4
		s3.5,0.9,4.2,1.2c1.1,0.5,1.9,1.2,2.5,2s0.8,1.7,0.8,2.7c0,1-0.3,2-0.9,2.9c-0.6,0.9-1.4,1.6-2.5,2.1s-2.3,0.8-3.7,0.8
		c-1.7,0-3.2-0.3-4.4-0.8c-1.2-0.5-2.1-1.3-2.8-2.3C366,47.8,365.7,46.6,365.6,45.3z"/>
	<path d="M384.3,51.5V32.3h2.5v16.9h9.4v2.3H384.3z"/>
	<path d="M417.1,49.2v2.3h-12.7c0-0.6,0.1-1.1,0.3-1.6c0.3-0.9,0.8-1.7,1.6-2.6s1.7-1.8,3.1-2.9c2.1-1.7,3.5-3.1,4.2-4.1
		c0.7-1,1.1-1.9,1.1-2.8c0-0.9-0.3-1.7-1-2.4c-0.7-0.6-1.5-1-2.6-1c-1.1,0-2,0.3-2.7,1c-0.7,0.7-1,1.6-1,2.8l-2.4-0.2
		c0.2-1.8,0.8-3.2,1.9-4.1c1.1-0.9,2.5-1.4,4.4-1.4c1.8,0,3.3,0.5,4.4,1.5c1.1,1,1.6,2.3,1.6,3.8c0,0.8-0.2,1.5-0.5,2.3
		c-0.3,0.7-0.8,1.5-1.6,2.3c-0.7,0.8-1.9,1.9-3.6,3.4c-1.4,1.2-2.3,2-2.7,2.4c-0.4,0.4-0.7,0.8-1,1.3H417.1z"/>
	<path d="M419.7,46.5l2.5-0.2c0.2,1.2,0.6,2.1,1.3,2.7s1.5,0.9,2.4,0.9c1.1,0,2.1-0.4,2.9-1.3s1.2-2,1.2-3.4c0-1.3-0.4-2.4-1.1-3.2
		s-1.7-1.2-3-1.2c-0.8,0-1.4,0.2-2.1,0.5c-0.6,0.3-1.1,0.8-1.4,1.3l-2.2-0.3l1.9-9.9h9.5v2.3h-7.7l-1,5.2c1.2-0.8,2.4-1.2,3.6-1.2
		c1.7,0,3.1,0.6,4.2,1.7s1.7,2.7,1.7,4.5c0,1.7-0.5,3.2-1.5,4.5c-1.2,1.6-2.9,2.3-5,2.3c-1.7,0-3.2-0.5-4.3-1.5
		C420.5,49.4,419.8,48.1,419.7,46.5z"/>
	<path d="M446.8,37l-2.3,0.2c-0.2-0.9-0.5-1.6-0.9-2c-0.6-0.7-1.4-1-2.4-1c-0.8,0-1.4,0.2-2,0.6c-0.7,0.5-1.3,1.3-1.8,2.4
		c-0.4,1-0.7,2.5-0.7,4.4c0.6-0.9,1.3-1.5,2.1-1.9c0.8-0.4,1.7-0.6,2.6-0.6c1.6,0,2.9,0.6,4,1.7c1.1,1.2,1.7,2.6,1.7,4.5
		c0,1.2-0.3,2.3-0.8,3.4c-0.5,1-1.2,1.8-2.1,2.4c-0.9,0.5-1.9,0.8-3.1,0.8c-2,0-3.6-0.7-4.8-2.2c-1.2-1.4-1.9-3.8-1.9-7.1
		c0-3.7,0.7-6.4,2.1-8.1c1.2-1.5,2.8-2.2,4.8-2.2c1.5,0,2.7,0.4,3.7,1.3S446.6,35.5,446.8,37z M437.2,45.3c0,0.8,0.2,1.6,0.5,2.3
		c0.3,0.7,0.8,1.3,1.4,1.7c0.6,0.4,1.3,0.6,1.9,0.6c1,0,1.8-0.4,2.6-1.2c0.7-0.8,1.1-1.9,1.1-3.3c0-1.3-0.4-2.4-1.1-3.1
		c-0.7-0.8-1.6-1.1-2.7-1.1c-1.1,0-2,0.4-2.7,1.1C437.6,43,437.2,44,437.2,45.3z"/>
	<path d="M459.8,51.5h-2.2V32.3h2.4v6.8c1-1.2,2.3-1.9,3.8-1.9c0.9,0,1.7,0.2,2.4,0.5c0.8,0.3,1.4,0.8,1.9,1.5s0.9,1.4,1.2,2.3
		c0.3,0.9,0.4,1.8,0.4,2.8c0,2.4-0.6,4.2-1.8,5.5s-2.6,1.9-4.2,1.9c-1.6,0-2.9-0.7-3.9-2.1V51.5z M459.7,44.4c0,1.7,0.2,2.9,0.7,3.6
		c0.7,1.2,1.7,1.8,3,1.8c1,0,1.9-0.4,2.7-1.3s1.1-2.2,1.1-4c0-1.8-0.4-3.2-1.1-4s-1.6-1.3-2.6-1.3c-1,0-1.9,0.4-2.7,1.3
		S459.7,42.8,459.7,44.4z"/>
	<path d="M472.5,35v-2.7h2.4V35H472.5z M472.5,51.5V37.6h2.4v13.9H472.5z"/>
	<path d="M483.6,49.4l0.3,2.1c-0.7,0.1-1.3,0.2-1.8,0.2c-0.9,0-1.5-0.1-2-0.4c-0.5-0.3-0.8-0.6-1-1.1c-0.2-0.4-0.3-1.4-0.3-2.8v-8
		h-1.7v-1.8h1.7v-3.4l2.3-1.4v4.9h2.4v1.8h-2.4v8.1c0,0.7,0,1.1,0.1,1.3c0.1,0.2,0.2,0.3,0.4,0.5c0.2,0.1,0.5,0.2,0.8,0.2
		C482.8,49.5,483.2,49.5,483.6,49.4z"/>
	<path d="M502.8,47l2.4,0.3c-0.4,1.4-1.1,2.5-2.1,3.3s-2.4,1.2-4,1.2c-2,0-3.6-0.6-4.8-1.9c-1.2-1.3-1.8-3-1.8-5.3
		c0-2.3,0.6-4.2,1.8-5.4s2.8-1.9,4.7-1.9c1.9,0,3.4,0.6,4.6,1.9c1.2,1.3,1.8,3,1.8,5.3c0,0.1,0,0.3,0,0.6H495
		c0.1,1.5,0.5,2.7,1.3,3.5c0.8,0.8,1.7,1.2,2.9,1.2c0.9,0,1.6-0.2,2.2-0.7C502,48.7,502.5,48,502.8,47z M495.1,43.2h7.8
		c-0.1-1.2-0.4-2-0.9-2.6c-0.8-0.9-1.7-1.4-2.9-1.4c-1.1,0-2,0.4-2.7,1.1S495.2,42,495.1,43.2z"/>
	<path d="M508.2,51.5V37.6h2.1v2c1-1.5,2.5-2.3,4.4-2.3c0.8,0,1.6,0.2,2.3,0.5s1.2,0.7,1.6,1.2c0.3,0.5,0.6,1.1,0.7,1.7
		c0.1,0.4,0.1,1.2,0.1,2.3v8.5h-2.4V43c0-1-0.1-1.7-0.3-2.2c-0.2-0.5-0.5-0.9-1-1.1c-0.5-0.3-1-0.4-1.6-0.4c-1,0-1.9,0.3-2.6,1
		c-0.7,0.6-1.1,1.8-1.1,3.6v7.6H508.2z"/>
	<path d="M532.2,46.4l2.3,0.3c-0.3,1.6-0.9,2.8-1.9,3.7c-1,0.9-2.3,1.4-3.8,1.4c-1.9,0-3.4-0.6-4.6-1.9c-1.2-1.2-1.7-3-1.7-5.3
		c0-1.5,0.2-2.8,0.7-3.9c0.5-1.1,1.3-2,2.3-2.5c1-0.6,2.1-0.8,3.3-0.8c1.5,0,2.7,0.4,3.7,1.1c1,0.8,1.6,1.8,1.8,3.3L532,42
		c-0.2-0.9-0.6-1.6-1.2-2.1s-1.2-0.7-2-0.7c-1.2,0-2.2,0.4-2.9,1.3s-1.1,2.2-1.1,4c0,1.9,0.4,3.2,1.1,4.1c0.7,0.8,1.6,1.3,2.8,1.3
		c0.9,0,1.7-0.3,2.3-0.9S532,47.6,532.2,46.4z"/>
	<path d="M536.5,51.5V37.6h2.1v2.1c0.5-1,1-1.6,1.5-1.9s1-0.5,1.5-0.5c0.8,0,1.6,0.3,2.4,0.8l-0.8,2.2c-0.6-0.3-1.2-0.5-1.7-0.5
		c-0.5,0-1,0.2-1.4,0.5c-0.4,0.3-0.7,0.7-0.9,1.3c-0.3,0.8-0.4,1.8-0.4,2.7v7.3H536.5z"/>
	<path d="M545.4,56.9l-0.3-2.2c0.5,0.1,1,0.2,1.3,0.2c0.5,0,0.9-0.1,1.3-0.3c0.3-0.2,0.6-0.4,0.8-0.7c0.1-0.2,0.4-0.8,0.7-1.8
		c0-0.1,0.1-0.3,0.2-0.6l-5.3-13.9h2.5l2.9,8c0.4,1,0.7,2.1,1,3.2c0.3-1.1,0.6-2.1,1-3.2l3-8.1h2.4l-5.3,14.1
		c-0.6,1.5-1,2.6-1.3,3.2c-0.4,0.8-0.9,1.3-1.4,1.7c-0.5,0.4-1.2,0.5-1.9,0.5C546.4,57.1,545.9,57,545.4,56.9z"/>
	<path d="M558.9,56.8V37.6h2.1v1.8c0.5-0.7,1.1-1.2,1.7-1.6c0.6-0.4,1.4-0.5,2.3-0.5c1.2,0,2.2,0.3,3.1,0.9c0.9,0.6,1.6,1.5,2.1,2.6
		c0.5,1.1,0.7,2.3,0.7,3.7c0,1.4-0.3,2.7-0.8,3.8c-0.5,1.1-1.3,2-2.2,2.6c-1,0.6-2,0.9-3.1,0.9c-0.8,0-1.5-0.2-2.1-0.5
		c-0.6-0.3-1.1-0.8-1.5-1.3v6.8H558.9z M561,44.6c0,1.8,0.4,3.1,1.1,4c0.7,0.9,1.6,1.3,2.6,1.3c1,0,1.9-0.4,2.7-1.3
		c0.7-0.9,1.1-2.3,1.1-4.1c0-1.8-0.4-3.1-1.1-4c-0.7-0.9-1.6-1.3-2.6-1.3c-1,0-1.9,0.5-2.7,1.4C561.4,41.5,561,42.8,561,44.6z"/>
	<path d="M578.9,49.4l0.3,2.1c-0.7,0.1-1.3,0.2-1.8,0.2c-0.9,0-1.5-0.1-2-0.4c-0.5-0.3-0.8-0.6-1-1.1c-0.2-0.4-0.3-1.4-0.3-2.8v-8
		h-1.7v-1.8h1.7v-3.4l2.3-1.4v4.9h2.4v1.8h-2.4v8.1c0,0.7,0,1.1,0.1,1.3c0.1,0.2,0.2,0.3,0.4,0.5c0.2,0.1,0.5,0.2,0.8,0.2
		C578.1,49.5,578.5,49.5,578.9,49.4z"/>
	<path d="M581.2,35v-2.7h2.4V35H581.2z M581.2,51.5V37.6h2.4v13.9H581.2z"/>
	<path d="M586.3,44.6c0-2.6,0.7-4.5,2.1-5.7c1.2-1,2.7-1.5,4.4-1.5c1.9,0,3.5,0.6,4.7,1.9c1.2,1.3,1.8,3,1.8,5.2
		c0,1.8-0.3,3.2-0.8,4.2c-0.5,1-1.3,1.8-2.3,2.4c-1,0.6-2.1,0.9-3.4,0.9c-1.9,0-3.5-0.6-4.7-1.9C586.9,48.7,586.3,46.9,586.3,44.6z
		 M588.7,44.6c0,1.8,0.4,3.1,1.2,4c0.8,0.9,1.8,1.3,2.9,1.3c1.2,0,2.1-0.4,2.9-1.3c0.8-0.9,1.2-2.2,1.2-4.1c0-1.7-0.4-3-1.2-3.9
		c-0.8-0.9-1.8-1.3-2.9-1.3c-1.2,0-2.2,0.4-2.9,1.3C589.1,41.4,588.7,42.8,588.7,44.6z"/>
	<path d="M602.1,51.5V37.6h2.1v2c1-1.5,2.5-2.3,4.4-2.3c0.8,0,1.6,0.2,2.3,0.5s1.2,0.7,1.6,1.2c0.3,0.5,0.6,1.1,0.7,1.7
		c0.1,0.4,0.1,1.2,0.1,2.3v8.5H611V43c0-1-0.1-1.7-0.3-2.2c-0.2-0.5-0.5-0.9-1-1.1c-0.5-0.3-1-0.4-1.6-0.4c-1,0-1.9,0.3-2.6,1
		c-0.7,0.6-1.1,1.8-1.1,3.6v7.6H602.1z"/>
</g>
<g id="MZQSfU_1_">
	<g>
		<path d="M327,61.6c-8.1,0-16.3,0-24.4,0c-1.4-0.7-2.4-1.6-2.4-3.3c0-5.8,0-11.5,0-17.3c0-1.9,1.4-3.2,3.2-3.2c0.4,0,0.8,0,1.3,0
			c0-0.5,0-0.8,0-1.2c0-2.2,0-4.5,0-6.7c0-3.2,1.4-5.6,4.1-7.3c3.2-2,6.6-2.2,10.1-0.9c3.9,1.5,5.9,4.4,5.9,8.6c0,2.1,0,4.2,0,6.3
			c0,0.4,0,0.7,0,1.1c0.3,0,0.4,0.1,0.6,0.1c3,0.1,4,1.2,4,4.2c0,5.1-0.1,10.2,0,15.4C329.5,59.3,328.9,60.8,327,61.6z M309.1,37.7
			c3.9,0,7.6,0,11.5,0c0-2.6-0.1-5.1,0-7.6c0.1-2.1-1-3.5-2.8-4.3c-2.3-1-4.6-0.9-6.8,0.5c-1,0.6-1.8,1.5-1.9,2.8
			C309.1,32,309.1,34.8,309.1,37.7z M317.5,55.8c0-0.2,0.1-0.2,0.1-0.2c-0.3-1.6-0.6-3.2-0.9-4.8c-0.1-0.6-0.1-1.1,0.4-1.6
			c1.4-1.3,1.3-3.4,0-4.6c-1.3-1.2-3.3-1.2-4.6,0c-1.3,1.3-1.3,3.3,0,4.6c0.6,0.5,0.6,1,0.5,1.7c-0.3,1.6-0.6,3.2-0.9,4.9
			C313.9,55.8,315.7,55.8,317.5,55.8z"/>
	</g>
</g>
</svg>
