<?xml version="1.0" encoding="utf-8"?>
<!-- Generator: Adobe Illustrator 19.2.1, SVG Export Plug-In . SVG Version: 6.00 Build 0)  -->
<svg version="1.1" id="artwork" xmlns="http://www.w3.org/2000/svg" xmlns:xlink="http://www.w3.org/1999/xlink" x="0px" y="0px"
	 viewBox="0 0 135.7 44" style="enable-background:new 0 0 135.7 44;" xml:space="preserve">
<style type="text/css">
	.st0{fill:#FFFFFF;fill-opacity:0;}
	.st1{fill:#FFFFFF;stroke:#FFFFFF;stroke-width:0.2;stroke-miterlimit:10;}
	.st2{fill:#FFFFFF;}
	.st3{fill:url(#SVGID_1_);}
	.st4{fill:url(#SVGID_2_);}
	.st5{fill:url(#SVGID_3_);}
	.st6{fill:url(#SVGID_4_);}
	.st7{opacity:0.2;enable-background:new    ;}
	.st8{opacity:0.12;enable-background:new    ;}
	.st9{opacity:0.25;fill:#FFFFFF;enable-background:new    ;}
</style>
<g>
	<rect x="-9" y="-7" class="st0" width="155" height="60"/>
	<g>
		<path d="M130.3,42.8H5.3c-2.7,0-5-2.2-5-5v-30c0-2.8,2.2-5,5-5h125c2.8,0,5,2.2,5,5v30C135.3,40.6,133.1,42.8,130.3,42.8z"/>
	</g>
	<g>
		<path class="st1" d="M47.8,13.1c0,0.8-0.2,1.5-0.7,2c-0.6,0.6-1.3,0.9-2.2,0.9c-0.9,0-1.6-0.3-2.2-0.9c-0.6-0.6-0.9-1.3-0.9-2.2
			c0-0.9,0.3-1.6,0.9-2.2c0.6-0.6,1.3-0.9,2.2-0.9c0.4,0,0.8,0.1,1.2,0.3c0.4,0.2,0.7,0.4,0.9,0.7l-0.5,0.5
			c-0.4-0.5-0.9-0.7-1.6-0.7c-0.6,0-1.2,0.2-1.6,0.7c-0.5,0.4-0.7,1-0.7,1.7c0,0.7,0.2,1.3,0.7,1.7c0.5,0.4,1,0.7,1.6,0.7
			c0.7,0,1.2-0.2,1.7-0.7c0.3-0.3,0.5-0.7,0.5-1.2h-2.2v-0.7h2.9C47.7,12.8,47.8,12.9,47.8,13.1z"/>
		<path class="st1" d="M52.4,10.6h-2.7v1.9h2.5v0.7h-2.5v1.9h2.7v0.7h-3.5v-6h3.5V10.6z"/>
		<path class="st1" d="M55.6,15.8h-0.8v-5.3h-1.7V9.8h4.1v0.7h-1.7V15.8z"/>
		<path class="st1" d="M60.3,15.8v-6H61v6H60.3z"/>
		<path class="st1" d="M64.5,15.8h-0.8v-5.3H62V9.8h4.1v0.7h-1.7V15.8z"/>
		<path class="st1" d="M73.9,15.1c-0.6,0.6-1.3,0.9-2.2,0.9c-0.9,0-1.6-0.3-2.2-0.9c-0.6-0.6-0.9-1.3-0.9-2.2s0.3-1.6,0.9-2.2
			c0.6-0.6,1.3-0.9,2.2-0.9c0.9,0,1.6,0.3,2.2,0.9c0.6,0.6,0.9,1.3,0.9,2.2C74.8,13.7,74.5,14.5,73.9,15.1z M70.1,14.6
			c0.4,0.4,1,0.7,1.6,0.7s1.2-0.2,1.6-0.7c0.4-0.4,0.7-1,0.7-1.7c0-0.7-0.2-1.3-0.7-1.7c-0.4-0.4-1-0.7-1.6-0.7s-1.2,0.2-1.6,0.7
			c-0.4,0.4-0.7,1-0.7,1.7C69.4,13.5,69.7,14.1,70.1,14.6z"/>
		<path class="st1" d="M75.9,15.8v-6h0.9l2.9,4.7h0l0-1.2V9.8h0.8v6h-0.8l-3.1-4.9h0l0,1.2v3.7H75.9z"/>
	</g>
	<path class="st2" d="M68.5,24.6c-2.4,0-4.3,1.8-4.3,4.3c0,2.4,1.9,4.3,4.3,4.3c2.4,0,4.3-1.8,4.3-4.3
		C72.7,26.4,70.8,24.6,68.5,24.6z M68.5,31.4c-1.3,0-2.4-1.1-2.4-2.6c0-1.5,1.1-2.6,2.4-2.6c1.3,0,2.4,1,2.4,2.6
		C70.9,30.4,69.8,31.4,68.5,31.4z M59.2,24.6c-2.4,0-4.3,1.8-4.3,4.3c0,2.4,1.9,4.3,4.3,4.3c2.4,0,4.3-1.8,4.3-4.3
		C63.4,26.4,61.5,24.6,59.2,24.6z M59.2,31.4c-1.3,0-2.4-1.1-2.4-2.6c0-1.5,1.1-2.6,2.4-2.6c1.3,0,2.4,1,2.4,2.6
		C61.6,30.4,60.4,31.4,59.2,31.4z M48.1,25.9v1.8h4.3c-0.1,1-0.5,1.8-1,2.3c-0.6,0.6-1.6,1.3-3.3,1.3c-2.7,0-4.7-2.1-4.7-4.8
		s2.1-4.8,4.7-4.8c1.4,0,2.5,0.6,3.3,1.3l1.3-1.3c-1.1-1-2.5-1.8-4.5-1.8c-3.6,0-6.7,3-6.7,6.6c0,3.6,3.1,6.6,6.7,6.6
		c2,0,3.4-0.6,4.6-1.9c1.2-1.2,1.6-2.9,1.6-4.2c0-0.4,0-0.8-0.1-1.1H48.1z M93.4,27.3c-0.4-1-1.4-2.7-3.6-2.7c-2.2,0-4,1.7-4,4.3
		c0,2.4,1.8,4.3,4.2,4.3c1.9,0,3.1-1.2,3.5-1.9l-1.4-1c-0.5,0.7-1.1,1.2-2.1,1.2c-1,0-1.6-0.4-2.1-1.3l5.7-2.4L93.4,27.3z
		 M87.6,28.7c0-1.6,1.3-2.5,2.2-2.5c0.7,0,1.4,0.4,1.6,0.9L87.6,28.7z M83,32.8h1.9V20.3H83V32.8z M79.9,25.5L79.9,25.5
		c-0.5-0.5-1.3-1-2.3-1c-2.1,0-4.1,1.9-4.1,4.3c0,2.4,1.9,4.2,4.1,4.2c1,0,1.8-0.5,2.2-1h0.1v0.6c0,1.6-0.9,2.5-2.3,2.5
		c-1.1,0-1.9-0.8-2.1-1.5l-1.6,0.7c0.5,1.1,1.7,2.5,3.8,2.5c2.2,0,4-1.3,4-4.4v-7.6h-1.8V25.5z M77.8,31.4c-1.3,0-2.4-1.1-2.4-2.6
		c0-1.5,1.1-2.6,2.4-2.6c1.3,0,2.3,1.1,2.3,2.6C80,30.3,79,31.4,77.8,31.4z M102.1,20.3h-4.5v12.5h1.9v-4.7h2.6
		c2.1,0,4.1-1.5,4.1-3.9S104.2,20.3,102.1,20.3z M102.2,26.4h-2.7v-4.3h2.7c1.4,0,2.2,1.2,2.2,2.1C104.4,25.2,103.6,26.4,102.2,26.4
		z M113.7,24.6c-1.4,0-2.8,0.6-3.3,1.9l1.7,0.7c0.4-0.7,1-0.9,1.7-0.9c1,0,1.9,0.6,2,1.6V28c-0.3-0.2-1.1-0.5-1.9-0.5
		c-1.8,0-3.6,1-3.6,2.8c0,1.7,1.5,2.8,3.1,2.8c1.3,0,1.9-0.6,2.4-1.2h0.1v1h1.8V28C117.5,25.8,115.9,24.6,113.7,24.6z M113.5,31.4
		c-0.6,0-1.5-0.3-1.5-1.1c0-1,1.1-1.3,2-1.3c0.8,0,1.2,0.2,1.7,0.4C115.6,30.6,114.6,31.4,113.5,31.4z M124.1,24.8l-2.1,5.4h-0.1
		l-2.2-5.4h-2l3.3,7.6l-1.9,4.2h1.9l5.1-11.8H124.1z M107.3,32.8h1.9V20.3h-1.9V32.8z"/>
	<g>
		
			<linearGradient id="SVGID_1_" gradientUnits="userSpaceOnUse" x1="22.1331" y1="176.1236" x2="5.3507" y2="159.3412" gradientTransform="matrix(1 0 0 -1 0 187.6667)">
			<stop  offset="0" style="stop-color:#00A0FF"/>
			<stop  offset="6.574450e-03" style="stop-color:#00A1FF"/>
			<stop  offset="0.2601" style="stop-color:#00BEFF"/>
			<stop  offset="0.5122" style="stop-color:#00D2FF"/>
			<stop  offset="0.7604" style="stop-color:#00DFFF"/>
			<stop  offset="1" style="stop-color:#00E3FF"/>
		</linearGradient>
		<path class="st3" d="M10.8,10.4c-0.3,0.3-0.5,0.8-0.5,1.4v22.1c0,0.6,0.2,1.1,0.5,1.4l0.1,0.1L23.2,23v-0.1v-0.1L10.8,10.4
			L10.8,10.4z"/>
		
			<linearGradient id="SVGID_2_" gradientUnits="userSpaceOnUse" x1="34.1677" y1="164.8319" x2="9.9708" y2="164.8319" gradientTransform="matrix(1 0 0 -1 0 187.6667)">
			<stop  offset="0" style="stop-color:#FFE000"/>
			<stop  offset="0.4087" style="stop-color:#FFBD00"/>
			<stop  offset="0.7754" style="stop-color:#FFA500"/>
			<stop  offset="1" style="stop-color:#FF9C00"/>
		</linearGradient>
		<path class="st4" d="M27.4,27.1L23.2,23v-0.1v-0.1l4.1-4.1l0.1,0.1l4.9,2.8c1.4,0.8,1.4,2.1,0,2.9L27.4,27.1L27.4,27.1z"/>
		
			<linearGradient id="SVGID_3_" gradientUnits="userSpaceOnUse" x1="25.1603" y1="162.5372" x2="2.402" y2="139.779" gradientTransform="matrix(1 0 0 -1 0 187.6667)">
			<stop  offset="0" style="stop-color:#FF3A44"/>
			<stop  offset="1" style="stop-color:#C31162"/>
		</linearGradient>
		<path class="st5" d="M27.5,27.1l-4.2-4.2L10.8,35.3c0.5,0.5,1.2,0.5,2.1,0.1L27.5,27.1"/>
		
			<linearGradient id="SVGID_4_" gradientUnits="userSpaceOnUse" x1="7.6307" y1="184.6572" x2="17.7932" y2="174.4946" gradientTransform="matrix(1 0 0 -1 0 187.6667)">
			<stop  offset="0" style="stop-color:#32A071"/>
			<stop  offset="6.850000e-02" style="stop-color:#2DA771"/>
			<stop  offset="0.4762" style="stop-color:#15CF74"/>
			<stop  offset="0.8009" style="stop-color:#06E775"/>
			<stop  offset="1" style="stop-color:#00F076"/>
		</linearGradient>
		<path class="st6" d="M27.5,18.6l-14.6-8.3c-0.9-0.5-1.6-0.4-2.1,0.1l12.5,12.5L27.5,18.6z"/>
		<g>
			<path class="st7" d="M27.4,27l-14.5,8.2c-0.8,0.5-1.5,0.4-2,0l0,0l-0.1,0.1l0,0l0.1,0.1l0,0c0.5,0.4,1.2,0.5,2,0L27.4,27L27.4,27
				z"/>
			<path class="st8" d="M10.8,35.2c-0.3-0.3-0.5-0.8-0.5-1.4v0.1c0,0.6,0.2,1.1,0.5,1.4V35.2L10.8,35.2z"/>
		</g>
		<path class="st8" d="M32.3,24.1l-5,2.8l0.1,0.1l4.9-2.8c0.7-0.4,1-0.9,1-1.4l0,0C33.3,23.3,33,23.8,32.3,24.1z"/>
		<path class="st9" d="M12.8,10.5l19.5,11.1c0.6,0.4,1,0.8,1,1.3l0,0c0-0.5-0.3-1-1-1.4L12.8,10.3c-1.4-0.8-2.5-0.1-2.5,1.5v0.1
			C10.3,10.3,11.4,9.7,12.8,10.5z"/>
	</g>
</g>
</svg>
