<?xml version="1.0" encoding="utf-8"?>
<!-- Generator: Adobe Illustrator 19.2.1, SVG Export Plug-In . SVG Version: 6.00 Build 0)  -->
<svg version="1.1" id="Layer_1" xmlns="http://www.w3.org/2000/svg" xmlns:xlink="http://www.w3.org/1999/xlink" x="0px" y="0px"
	 viewBox="0 0 169.3 35.9" style="enable-background:new 0 0 169.3 35.9;" xml:space="preserve">
<style type="text/css">
	.st0{fill-rule:evenodd;clip-rule:evenodd;fill:#FFFFFF;}
	.st1{fill-rule:evenodd;clip-rule:evenodd;fill:#3D899F;}
	.st2{fill-rule:evenodd;clip-rule:evenodd;fill:#145468;}
	.st3{fill:#FFFFFF;}
</style>
<g>
	<path class="st0" d="M37.6,3.4l0.2,0.1c0.2,0,0.4,0.1,0.6,0.1c0.2,0,0.3,0.1,0.4,0.3c0.2,0.5,0.5,1,0.8,1.5
		c0.1,0.1,0.1,0.2,0.3,0.2c0.8,0.3,1.5,0.6,2.3,0.9c0.1,0.1,0.2,0.1,0.2,0.2c0.4,1.4,0.8,2.9,1.2,4.3c0,0.2,0,0.2-0.1,0.3
		c-2.6,0.7-5.1,1.3-7.7,2c-0.1,0-0.3,0-0.4,0c-1.5-0.1-3-0.1-4.5-0.2c-1.5-0.1-3-0.1-4.4-0.2c-0.9,0-1.8-0.1-2.8-0.1
		c-1.8,0.1-3.5,0.1-5.3,0.2c-0.8,0-1.6,0-2.3,0l0.1-0.1c4.2-2.4,8.4-4.8,12.6-7.2l0.3-0.1c1.2,0,2.3-0.1,3.5-0.1
		c0.7,0,1.3-0.1,2-0.1l0.2-0.1c0.9-0.7,1.7-1.3,2.6-2L37.6,3.4z M36.4,6.4c-1-0.1-2,0.9-2,2.1c0,1.1,0.9,2,2,2c1.1,0,2-0.9,2-2.1
		C38.4,7.2,37.5,6.3,36.4,6.4"/>
	<path class="st0" d="M13.6,29.9c-1.1,0.4-2.3,0.8-3.4,1.2c-0.3,0.1-0.6,0.1-1,0c-1.4-0.5-2.8-1-4.3-1.5c-0.2-0.1-0.2-0.1-0.2-0.3
		c0.1-1.4,0.2-2.8,0.3-4.2c0-0.3,0.1-0.6,0.1-0.9c0-0.2,0.1-0.2,0.2-0.3c1.4-1.1,2.9-2.2,4.3-3.3c0.3-0.2,0.5-0.5,0.7-0.8
		c0.6-1.2,1.2-2.4,1.8-3.6l0.2-0.1c1.7,0.5,3.3,1,5,1.5c0.1,0,0.1,0.1,0.1,0.2c-1,1.8-1.9,3.6-2.9,5.5l-0.3,0.2
		c-2.3,0.9-4.7,1.8-7,2.7c-0.2,0.1-0.2,0.1-0.1,0.3c0.4,1,0.8,1.9,1.1,2.9c0.1,0.2,0.1,0.2,0.3,0.2c1.2,0.1,2.5,0.1,3.7,0.2
		C12.7,29.8,13.2,29.8,13.6,29.9L13.6,29.9z"/>
	<path class="st0" d="M21.2,13.6c1.4,0,2.7,0,4-0.1c0.1,0,0.2,0.1,0.2,0.2c0.9,1.6,1.8,3.1,2.7,4.7c0.1,0.2,0.2,0.2,0.4,0.2
		c2-0.3,4-0.6,6-0.9c0.1,0,0.2,0,0.2,0.1c0.3,1.5,0.6,2.9,1,4.4c0,0.1,0,0.2-0.1,0.3c-1.2,0.5-2.3,1.1-3.5,1.6
		c-0.1,0.1-0.2,0-0.3-0.1c-0.6-0.9-1.2-1.7-1.8-2.6c-0.1-0.1-0.2-0.2-0.3-0.1c-1,0.2-2.1,0.4-3.1,0.6l-0.2-0.1
		c-1.7-2.7-3.4-5.4-5.1-8.1L21.2,13.6z"/>
	<path class="st0" d="M40.7,12.7c-0.3,0.2-0.6,0.4-1,0.6c-1.8,1-3.6,2.1-5.4,3.1c-0.3,0.2-0.7,0.2-1,0.2c-1.7,0.2-3.5,0.3-5.2,0.5
		L27.8,17c-0.6-1.1-1.2-2.1-1.8-3.2l0-0.1c1.4,0.1,2.8,0.1,4.1,0.1c1.1,0,2.2,0.1,3.3,0.1c0.6,0,1.2,0,1.8,0.1
		c0.3,0,0.6-0.1,0.9-0.1c1.5-0.4,2.9-0.8,4.4-1.1L40.7,12.7L40.7,12.7z"/>
	<path class="st0" d="M22.8,17c-0.4,0-0.9,0.1-1.3,0.1c-1.1,0.1-2.3,0.2-3.4,0.3l-0.2,0c-2-0.7-4-1.3-6-2l-0.1-0.1
		c0.4-0.2,0.7-0.4,1.1-0.6c0.3-0.1,0.5-0.3,0.8-0.4c0.4-0.3,0.9-0.3,1.4-0.3c1.9-0.1,3.7-0.2,5.6-0.4c0.2,0,0.3,0,0.4,0.2
		c0.5,1,1.1,2,1.6,2.9L22.8,17z"/>
	<polygon class="st0" points="40.7,12.7 40.8,12.7 40.8,12.7 40.7,12.7 	"/>
	<path class="st1" d="M36.4,6.4c1-0.1,2,0.9,2,2c0,1.2-0.9,2.1-2,2.1c-1,0-2-0.9-2-2C34.4,7.2,35.4,6.3,36.4,6.4"/>
	<path class="st2" d="M35.9,7.3c0.2,0.8,0.5,1.5,1,2.2C36.7,8.7,36.4,8,35.9,7.3"/>
</g>
<path class="st3" d="M53.2,3.5h4.9v17c0,2.7-0.2,4.6-0.6,5.7c-0.4,1.1-1.1,2-2.1,2.6c-1,0.6-2.2,1-3.6,1c-2.8,0-5.2-1.2-7.2-3.7
	l3.5-3.3c0.8,0.9,1.4,1.5,2,1.8c0.5,0.3,1.1,0.5,1.6,0.5c0.5,0,0.9-0.2,1.2-0.7c0.3-0.4,0.4-1.4,0.4-2.9V3.5z"/>
<path class="st3" d="M64.2,3.5h4.9V20c0,1.4,0.1,2.4,0.4,3c0.2,0.6,0.7,1.1,1.2,1.4c0.6,0.4,1.3,0.5,2.1,0.5c0.9,0,1.6-0.2,2.2-0.6
	c0.6-0.4,1.1-0.9,1.3-1.5c0.2-0.6,0.4-1.8,0.4-3.5v-16h4.9v15.3c0,2.6-0.1,4.4-0.4,5.4c-0.3,1-0.8,2-1.7,2.9
	c-0.8,0.9-1.8,1.6-2.8,2.1c-1.1,0.4-2.3,0.7-3.7,0.7c-1.9,0-3.5-0.4-4.8-1.3c-1.4-0.9-2.4-1.9-3-3.2c-0.6-1.3-0.9-3.4-0.9-6.5V3.5z"
	/>
<polygon class="st3" points="90,3.5 94.8,3.5 100.7,21.3 106.7,3.5 111.4,3.5 115.7,29.1 111,29.1 108.3,12.9 102.8,29.1 98.5,29.1 
	93.1,12.9 90.3,29.1 85.6,29.1 "/>
<path class="st3" d="M120,3.5h5.2c2.8,0,4.8,0.3,6.1,0.8c1.2,0.5,2.2,1.4,2.9,2.5c0.7,1.2,1.1,2.5,1.1,4.2c0,1.8-0.5,3.3-1.4,4.5
	c-0.9,1.2-2.2,2-3.8,2.5c-0.9,0.3-2.6,0.4-5.1,0.4v10.8H120V3.5z M124.8,13.5h1.6c1.2,0,2.1-0.1,2.5-0.3c0.5-0.2,0.9-0.5,1.1-0.9
	c0.3-0.4,0.4-0.9,0.4-1.5c0-1-0.4-1.7-1.1-2.2c-0.6-0.3-1.6-0.5-3.1-0.5h-1.4V13.5z"/>
<path class="st3" d="M162.3,25.3l4.5,5.8H161l-2.3-2.9c-1.9,1-4,1.5-6.3,1.5c-3.8,0-7-1.3-9.6-4c-2.5-2.7-3.8-5.8-3.8-9.5
	c0-2.4,0.6-4.7,1.8-6.7c1.2-2,2.8-3.7,4.9-4.9c2.1-1.2,4.3-1.8,6.7-1.8c3.6,0,6.8,1.3,9.4,3.9c2.6,2.6,3.9,5.8,3.9,9.6
	C165.7,19.8,164.5,22.8,162.3,25.3 M159.2,21.4c1-1.5,1.5-3.2,1.5-5.1c0-2.4-0.8-4.5-2.5-6.2c-1.6-1.7-3.6-2.5-5.9-2.5
	c-2.4,0-4.4,0.8-6,2.5c-1.6,1.6-2.4,3.7-2.4,6.3c0,2.8,1,5.1,3.1,6.7c1.6,1.3,3.4,1.9,5.4,1.9c1.2,0,2.3-0.2,3.3-0.7l-4.6-5.9h5.8
	L159.2,21.4z"/>
</svg>
