<?xml version="1.0" encoding="utf-8"?>
<!-- Generator: Adobe Illustrator 19.2.1, SVG Export Plug-In . SVG Version: 6.00 Build 0)  -->
<svg version="1.1" id="Layer_1" xmlns="http://www.w3.org/2000/svg" xmlns:xlink="http://www.w3.org/1999/xlink" x="0px" y="0px"
	 viewBox="0 0 147 176" style="enable-background:new 0 0 147 176;" xml:space="preserve">
<style type="text/css">
	.st0{fill:#FFFFFF;}
	.st1{fill:#7AB5C5;}
</style>
<g id="C4qiY9.tif">
	<g>
		<path class="st0" d="M102,46.8c0.2,6.8,5.1,11.5,11.8,11.3c6.3-0.2,11-5.2,10.9-11.6c-0.2-6-5.8-11.2-12-11
			C106.6,35.7,101.8,40.8,102,46.8z"/>
		<path d="M3.9,142.4c0.7-2.7,1.3-5.5,2.2-8.1c0.4-1.2,1.1-2.3,2-3.2c15.2-15.3,30.5-30.5,45.7-45.7c0.4-0.4,0.8-0.7,1.4-1.2
			c-1.1-1.2-2-2.3-3.1-3.3c-1.9-1.9-2.3-4.1-1.4-6.5c1-2.5,2.6-4.2,5.5-4.5c1.9-0.2,3.9-0.4,5.9-0.7c-0.4-2.3-0.9-4.4-1.1-6.6
			c-2.4-19.5,7.9-37.2,28.1-42.9c15-4.2,28.2-0.1,39.8,9.9c7.6,6.6,12.4,14.9,14.4,24.8c0.3,1.5,0.5,3,0.7,4.6c0,1.7,0,3.5,0,5.2
			c-0.4,2.5-0.7,5-1.4,7.5c-4.4,16.1-14.6,26.1-31.2,29c-6.5,1.1-13.1,0.5-19.5-1.3c-0.2-0.1-0.4-0.1-0.8-0.2
			c-0.6,2.4-1.3,4.7-1.9,7c-0.5,2.2-1.4,4.1-3.8,4.6c-2.4,0.6-4.6-0.2-6.4-1.9c-1.7-1.6-3.3-3.2-5.1-4.9c-1.4,1.4-2.8,3-4.2,4.5
			c-0.3,0.3-0.3,0.9-0.4,1.4c-0.1,2.3-0.1,4.6-0.1,6.8c0,1.6-2.3,3.8-3.9,3.8c-3.2,0-6.4,0-10,0c0,2.5-0.1,5,0,7.3
			c0.1,2.2-0.6,4-2.3,5.4c-1.4,1.2-2.7,2.5-4.1,3.5c-0.6,0.4-1.5,0.5-2.2,0.5c-2.9,0.1-5.9,0-8.9,0c-0.1,1.6-0.2,2.9-0.3,4.3
			c-0.1,1.9-0.7,3.4-2.2,4.6c-1.5,1.3-2.8,2.7-4.4,3.9c-0.9,0.7-2,1.3-3,1.3c-2.9,0.2-5.8,0.2-8.7,0.3c-0.2,0-0.3-0.1-0.6-0.1
			c0-1.8,0-3.5,0-5.4c2.5-0.1,5-0.1,7.6-0.3c0.7,0,1.4-0.4,2-0.8c3-1.9,4.4-4.6,4-8.1c-0.3-2.3,1-3.8,2.7-4.9
			c0.4-0.3,0.9-0.3,1.4-0.3c3.1,0,6.3,0,9.4,0c1.4,0,3.9-2.4,4-3.8c0.1-3,0.2-5.9,0.2-8.9c0-1.9,2.1-4,4.1-4c3.1,0,6.3,0,9.8,0
			c0-2,0.1-3.8,0-5.7c-0.1-1.9,0.6-3.5,2-4.9c1.8-1.8,3.5-3.6,5.2-5.5c0.8-0.9,1.6-1.1,2.7-1.2c1.8-0.2,3.1,0.4,4.3,1.7
			c1.8,2,3.9,3.7,5.9,5.6c0.5-1.7,1-3.5,1.4-5.3c0.2-0.8,0.5-1.6,0.6-2.4c0.3-2.1,1.3-3.4,3.3-4.1c0.9-0.3,1.5-0.4,2.4-0.1
			c9.8,3.5,19.6,3.8,29-1.2c10.7-5.7,16.6-14.8,17.8-26.9c1.7-17.3-11-36.9-31.6-40.8c-13.8-2.6-27.9,3.1-35.1,14.5
			c-6.1,9.6-6.8,19.9-3.3,30.5c0.3,1,0.4,1.8-0.3,2.6c-0.1,0.1-0.2,0.3-0.3,0.5c-0.6,1.6-1.8,2.2-3.5,2.3c-2.7,0.1-5.4,0.6-8.1,0.9
			c-0.1,0-0.2,0.1-0.5,0.2c0.3,0.4,0.5,0.7,0.7,1c1.3,1.5,2.7,3,4.1,4.4c0.7,0.7,0.8,1.4,0.9,2.3c0.2,1.9-0.6,3.2-1.9,4.5
			c-15,14.9-30,30-45.1,44.8c-2.8,2.7-3.9,5.9-4.5,9.5c-0.2,1.2,0,2.4,0,4c11.5-11.4,22.8-22.6,34.1-33.7
			c11.3-11.2,22.6-22.3,34-33.5c1.3,1.4,2.5,2.7,3.9,4c-0.2,0.2-0.6,0.6-0.9,1c-22.5,22.2-44.9,44.4-67.4,66.6
			c-2.1,2.1-5.4,2.3-7.5,0.3c-0.9-0.8-1.1-2.3-1.6-3.5c-0.1-0.4-0.2-0.8-0.3-1.2C3.9,144.9,3.9,143.7,3.9,142.4z"/>
		<path d="M102,46.8c-0.2-6,4.6-11.1,10.7-11.4c6.2-0.2,11.8,4.9,12,11c0.2,6.4-4.5,11.4-10.9,11.6C107.1,58.3,102.2,53.7,102,46.8z
			 M119.1,47.1c0-3.5-2.5-6.1-5.9-6c-3.3,0-5.9,2.7-5.8,6c0.1,2.9,2.9,5.8,5.9,5.7C116.4,52.7,119.1,50.1,119.1,47.1z"/>
		<path class="st1" d="M119.1,47.1c0,3-2.7,5.7-5.8,5.7c-2.9,0-5.8-2.8-5.9-5.7c-0.1-3.3,2.6-5.9,5.8-6
			C116.6,41,119.1,43.5,119.1,47.1z"/>
	</g>
</g>
</svg>
