<?xml version="1.0" encoding="utf-8"?>
<!-- Generator: Adobe Illustrator 19.2.1, SVG Export Plug-In . SVG Version: 6.00 Build 0)  -->
<svg version="1.1" id="Layer_1" xmlns="http://www.w3.org/2000/svg" xmlns:xlink="http://www.w3.org/1999/xlink" x="0px" y="0px"
	 viewBox="0 0 147 176" style="enable-background:new 0 0 147 176;" xml:space="preserve">
<style type="text/css">
	.st0{stroke:#000000;stroke-width:2;stroke-miterlimit:10;}
	.st1{fill:#4C899A;}
</style>
<g id="_x35_eYWNM_1_">
	<g>
		<path class="st0" d="M34.8,162.1c-0.8-0.2-1.4-0.4-2.2-0.5c-7.3-2-12.5-8.5-13.1-16.1c-0.5-7-1.3-14.2-2-21.2
			c-0.8-7.9-1.5-15.8-2.3-23.7c-0.5-5.6-0.8-11.2-1.6-16.8c-1.1-7,3.5-15.1,11.1-17.8c2-0.8,4.2-1,6.4-1.2c2.9-0.2,5.6,0,8.7,0
			c0-0.8,0-1.3,0-2c0-7,0.2-14.1,0-21.1C38.9,23.2,53.5,11.8,65.7,9.2c16.5-3.6,34.6,7.6,38.4,24.1c0.4,2.1,0.7,4.3,0.7,6.5
			c0.1,7.7,0,15.4,0,23.1c0,0.5,0,1.1,0,1.9c3.1,0,5.9-0.1,8.9,0c7.4,0.2,12.6,3.8,15.9,10.3c1.6,3.4,1.4,6.9,1.1,10.6
			c-1,10.2-2,20.3-3,30.6c-0.9,8.9-1.8,17.8-2.6,26.8c-0.2,1.8-0.2,3.6-0.7,5.4c-1.9,7.3-6.6,11.7-13.9,13.3
			c-0.3,0.1-0.5,0.2-0.9,0.3C84.7,162.1,59.8,162.1,34.8,162.1z M72.3,71.1c-3.3,0-6.6,0-9.9,0c-10.4,0-21,0-31.4,0
			c-7.3,0-11.4,4.5-10.8,11.8c1,10.6,2,21.2,3.1,31.8c1,10.8,2,21.5,3.1,32.2c0.4,4.1,3.1,7.3,7,8.2c1.8,0.4,3.6,0.5,5.4,0.5
			c10.9,0,21.7,0,32.5,0c12.1,0,24.2,0,36.2,0c5.9,0,10.2-3.5,10.8-8.9c0.8-8.4,1.5-16.6,2.4-25c1.2-12.4,2.4-25,3.5-37.4
			c0.2-1.9,0.3-3.8-0.1-5.7c-1-4.8-4.9-7.6-10.7-7.6C99.7,71.1,86.1,71.1,72.3,71.1z M46.3,64.6c17.4,0,34.5,0,51.8,0
			c0-0.2,0.1-0.4,0.1-0.7c0-8.9,0.1-17.7-0.1-26.6c-0.1-4.9-2-9.5-5.3-13.1c-6.9-7.9-15.7-10.7-25.9-8.8
			c-12.2,2.2-21,12.3-20.7,24.3c0.2,7.7,0,15.3,0,23C46.3,63.4,46.3,63.9,46.3,64.6z"/>
		<path d="M72.2,136c-2.2,0-4.5,0-6.7,0c-2.3,0-3.5-1-3.7-3.3c-0.9-7-1.8-14.1-2.5-21.1c-0.5-5.6,2.1-9.6,6.7-12.3
			c4.5-2.7,9.2-2.5,13.6,0.5c4.4,3.1,6.5,7.1,5.7,12.6c-0.9,6.4-1.6,12.8-2.3,19.1c-0.4,3.6-1.2,4.4-4.9,4.4c-1,0-2,0-2.9,0
			C74.2,136,73.2,136,72.2,136L72.2,136z M72.2,129.7v-0.1c1,0,2-0.1,3.1,0c1.1,0.1,1.4-0.3,1.5-1.4c0.4-4.1,1-8,1.4-12.1
			c0.2-1.6,0.3-3.2,0.5-4.8c0.3-2.5-0.2-4.8-2.5-6.3c-2.6-1.5-5.5-1.6-8.1-0.1c-2.3,1.3-3,3.6-2.6,6.2c0.5,4.7,1.1,9.3,1.8,14.1
			c0.2,1.4-0.1,3.3,0.7,4.1C68.9,129.9,70.8,129.6,72.2,129.7z"/>
		<path class="st1" d="M72.2,129.7c-1.4-0.1-3.3,0.2-4.2-0.5c-0.8-0.8-0.5-2.6-0.7-4.1c-0.5-4.6-1.2-9.3-1.8-14.1
			c-0.3-2.5,0.3-4.8,2.6-6.2c2.6-1.5,5.5-1.5,8.1,0.1c2.3,1.4,2.9,3.7,2.5,6.3c-0.2,1.6-0.3,3.2-0.5,4.8c-0.4,4.1-1,8-1.4,12.1
			c-0.1,1.1-0.4,1.5-1.5,1.4c-1-0.1-2,0-3.1,0C72.2,129.7,72.2,129.7,72.2,129.7z"/>
	</g>
</g>
</svg>
