<?xml version="1.0" encoding="utf-8"?>
<!-- Generator: Adobe Illustrator 19.2.1, SVG Export Plug-In . SVG Version: 6.00 Build 0)  -->
<svg version="1.1" id="Layer_1" xmlns="http://www.w3.org/2000/svg" xmlns:xlink="http://www.w3.org/1999/xlink" x="0px" y="0px"
	 viewBox="0 0 111 34.6" style="enable-background:new 0 0 111 34.6;" xml:space="preserve">
<style type="text/css">
	.st0{fill:#808285;}
	.st1{fill:#FBAA19;}
	.st2{fill:#FFFFFF;}
</style>
<circle class="st0" cx="13.4" cy="21.1" r="4.1"/>
<path class="st1" d="M20.4,6.3v3.8c-2-1.2-4.4-2-7-2c-3,0-5.8,1-8.1,2.7C4.2,9.1,2.2,7.9,0,7.9v13.4c0,7.3,6,13.3,13.4,13.3
	s13.4-6,13.4-13.3V0C23.2,0,20.4,2.8,20.4,6.3z M13.4,28.4c-3.9,0-7-3.1-7-7s3.1-6.9,7-6.9s7,3.1,7,6.9S17.2,28.4,13.4,28.4z"/>
<path class="st2" d="M3.1,6.5L3.1,6.5C3.2,6.5,3.2,6.5,3.1,6.5c1.8,0,3.2-1.4,3.2-3.2S4.9,0.2,3.2,0.2S0,1.6,0,3.4l0,0l0,0
	C0,5.1,1.4,6.5,3.1,6.5z"/>
<path class="st2" d="M70.8,29.4V11c0-0.2-0.1-0.3-0.3-0.3l0,0h-4.8c-0.2,0-0.3,0.1-0.3,0.3l0,0v18.3c0,0.2,0.2,0.3,0.3,0.3h4.8
	C70.6,29.7,70.8,29.6,70.8,29.4z"/>
<path class="st2" d="M82.9,29.7h4.8c0.2,0,0.3-0.2,0.3-0.3l-0.1-18.3c0-0.2-0.1-0.3-0.3-0.3l0,0h-4.8c-0.2,0-0.3,0.1-0.3,0.3l0,0
	l0.1,18.3C82.5,29.6,82.7,29.7,82.9,29.7z"/>
<path class="st2" d="M107,1.9c-0.8-0.4-2.3-0.5-2.4-0.5v10.2c-1.3-0.6-2.7-1-4.1-1c-2.3,0-4.5,0.8-6.4,2.4l0,0
	C92,15,91,17.3,91,19.8v0.7c0,2.3,1,4.5,2.8,6.5l0,0c2,1.8,4.2,2.6,6.4,2.6h0.8c1.2,0,2.4-0.3,3.6-0.9v0.7c0,0.2,0.2,0.3,0.3,0.3
	h4.8c0.2,0,0.3-0.2,0.3-0.3l0.3-22.6C110.2,4.6,108.9,2.8,107,1.9z M104.6,20.3c0,0.4-0.1,0.8-0.3,1.4c-0.9,1.7-2.1,2.6-3.8,2.6
	c-0.5,0-1.1-0.1-1.7-0.4c-1.6-0.9-2.3-2.1-2.3-3.5v-0.2l0,0l0,0v-0.3c0-0.3,0-0.6,0.2-1c0.8-1.9,2.1-2.9,4-2.9
	c0.7,0,1.3,0.2,1.9,0.5c1.4,0.9,2.1,2,2.1,3.5L104.6,20.3L104.6,20.3z"/>
<path class="st2" d="M62.5,29.8c0.2,0,0.3-0.2,0.3-0.3v-9.7c0-0.5-0.1-1.2-0.3-2c-0.3-1.3-1.1-2.6-2.2-4l0,0c-2-2-4.3-3-6.6-3H53
	c-2.3,0-4.5,1-6.5,2.8c-2-1.9-4.1-2.8-6.5-2.8h-0.7c-2,0-4,0.8-5.9,2.3l0,0c-2.1,2-3.2,4.1-3.3,6.5v10l0,0c0,0.2,0.2,0.3,0.3,0.3
	h0.1h4.6c0.2,0,0.3-0.2,0.3-0.3v-8.4c0-1.3,0.2-2.3,0.5-2.8c0.9-1.5,2-2.1,3.4-2.1c0,0,1.2,0,2.1,0.4c1.5,0.9,2.2,2.1,2.2,3.5v9.3
	c0,0.2,0.2,0.3,0.3,0.3h4.8c0.2,0,0.3-0.2,0.3-0.3v-9.1c0-0.8,0.2-1.5,0.5-2.1c1-1.4,2.1-2.1,3.4-2.1c0,0,0.9,0,1.5,0.2
	c1.9,0.8,2.9,2.1,2.9,4v9.1c0,0.2,0.1,0.3,0.3,0.3H62.5L62.5,29.8z"/>
<circle class="st2" cx="68.4" cy="4.3" r="2.8"/>
<circle class="st2" cx="85.2" cy="4.3" r="2.8"/>
<path class="st2" d="M73.5,21.8H80c0.1,0,0.1-0.1,0.1-0.3l0,0v-4.8c0-0.2,0-0.3-0.1-0.3l0,0h-6.4c-0.1,0-0.1,0.2-0.1,0.3v4.8
	C73.4,21.6,73.4,21.8,73.5,21.8z"/>
</svg>
