<?xml version="1.0" encoding="utf-8"?>
<!-- Generator: Adobe Illustrator 19.2.1, SVG Export Plug-In . SVG Version: 6.00 Build 0)  -->
<svg version="1.1" id="Layer_1" xmlns="http://www.w3.org/2000/svg" xmlns:xlink="http://www.w3.org/1999/xlink" x="0px" y="0px"
	 viewBox="0 0 929 180.8" style="enable-background:new 0 0 929 180.8;" xml:space="preserve">
<style type="text/css">
	.st0{fill:#F79916;}
	.st1{fill:#FBAA19;}
	.st2{fill:#FFFFFF;}
	.st3{fill:none;}
</style>
<path class="st0" d="M72.3,16.4c-15.9,32.4-31.8,64.7-47.7,97c4.6,2.2,21.1,10.3,25.6,12.5c0.2-0.4,0.4-0.7,0.5-0.9
	c2.5-5,5.2-9.8,7.8-14.6c-1.9,0.3-3.8,0.1-5.6-0.9c-4.5-2.2-6.4-7.8-4.1-12.3c2.2-4.6,7.8-6.4,12.4-4.1c1.8,0.9,3.3,2.5,4.1,4.3
	c8.4-17.2,16.1-34.7,24.5-51.8l4.8-1.6c8.1,3.9,4.2,2.1,12.3,6.2c0.4,0.2,0.8,0.4,1.2,0.6c2.2-4.6,4.5-9,6.6-13.5
	C100.5,30.3,86.4,23.4,72.3,16.4z"/>
<g>
	<g>
		<path d="M871.6,34.1c0.7-0.8,1.5-1.5,2.1-2.2c9.1,9.8,18.2,19.6,27.4,29.5c-0.6,0.6-1.4,1.3-2.1,2
			C889.9,53.7,880.8,43.9,871.6,34.1z"/>
	</g>
	<g>
		<path d="M869.7,27.7c-0.6,0.7-1.4,1.4-2.1,2.2c-1-1.1-2-2.2-3-3.3c0.7-0.7,1.4-1.5,2.2-2.3C867.7,25.3,868.7,26.5,869.7,27.7z"/>
	</g>
	<path class="st1" d="M835.7,137.3c4.7,2.2,10.1-0.1,12.1-5.2c1-2.4,1-5.1,0.1-7.6s-2.7-4.4-4.9-5.5l-15.4-7.1
		c-2.3-1-4.8-1.1-7.1-0.1s-4.1,2.9-5.1,5.3s-1,5.1-0.1,7.6s2.7,4.4,4.9,5.5L835.7,137.3L835.7,137.3"/>
</g>
<path d="M43.7,94.8c3.6-7.3,12.4-10.4,19.7-6.9c7.2,3.4,5.5,9.9,2,17.5c-3.7,8-7.8,12.7-14.7,9.4C43.2,111.1,40.1,102.3,43.7,94.8
	 M52.9,109.5c4.6,2.4,10.2,0.3,12.4-4.2c2.2-4.4,0.2-10-4.1-12.2c-4.6-2.3-10.2-0.5-12.4,4.1C46.5,101.7,48.4,107.2,52.9,109.5"/>
<path d="M46.1,147c14.2,7,28.2,13.9,42.5,20.9c0.6-1.2,1.2-2.4,1.7-3.5c3.8-7.9,7.7-15.7,11.6-23.6c0.5-1.1,1.4-1.8,2.6-1.8
	c1.1-0.1,2.2,0.5,2.5,1.5c0.2,0.7,0.4,1.9,0.1,2.5c-4.8,10-9.8,20-14.7,29.9c-0.7,1.4-2.1,1.9-3.6,1.3c-0.4-0.2-0.8-0.4-1.1-0.5
	c-15.3-7.5-30.6-15-45.9-22.6c-2.3-1.1-2.7-2.3-1.6-4.7c2.3-4.7,4.6-9.3,6.9-14c0.2-0.4,0.4-0.8,0.7-1.4c-1.4-0.7-14.9-7.2-16.3-7.9
	c-3.9-1.9-7.7-3.7-11.5-5.7c-2-1-2.4-2.4-1.5-4.4c7.4-15.1,14.8-30.2,22.3-45.2c5.3-10.7,10.5-21.4,15.7-32c3.9-8,7.9-16,11.9-24.1
	c0.9-1.9,2.5-2.4,4.3-1.5c15.6,7.7,31.3,15.4,46.9,23.1c1.8,0.9,2.3,2.4,1.4,4.3c-2.3,4.7-4.7,9.5-7,14.3c-0.2,0.5-0.4,0.9-0.7,1.4
	c2,1,15.8,7.7,17.7,8.6c3.4,1.6,6.7,3.2,10,5c2.1,1,2.6,2.4,1.6,4.5c-7.8,16-15.7,32-23.6,48c-0.5,1.1-1.2,2.1-2.6,2.1
	c-2.2,0.1-3.7-2-2.7-4.1c2.3-4.8,4.8-9.6,7.1-14.4c5.2-10.6,10.4-21.2,15.6-31.8c0-0.1,0.1-0.2,0.1-0.4c-14.1-7-28.2-13.9-42.4-20.9
	C77.9,82.3,62,114.6,46.1,147 M72.1,16.4c-15.9,32.4-31.8,64.7-47.7,97c4.6,2.2,21.1,10.3,25.6,12.5c0.2-0.4,0.4-0.7,0.5-0.9
	c4.3-8.6,8.4-17.1,12.7-25.7C72,81.4,80.8,63.5,89.6,45.6c1.2-2.4,2.4-2.8,4.8-1.7c8.1,3.9,16.3,8,24.4,12
	c0.4,0.2-11.3-5.5-10.9-5.3c2.2-4.6,4.5-9,6.6-13.5C100.4,30.3,86.2,23.3,72.1,16.4"/>
<path d="M65.4,127.6c3.6-7.3,12.4-10.4,19.7-6.9c7.2,3.4,10.7,12.1,7.3,19.6c-3.7,8-13,10.6-19.9,7.2
	C64.9,143.8,61.8,135,65.4,127.6 M74.7,142.3c4.6,2.4,10.2,0.3,12.4-4.2c2.2-4.4,0.2-10-4.1-12.2c-4.6-2.3-10.2-0.5-12.4,4.1
	C68.2,134.4,70.1,140,74.7,142.3"/>
<path d="M111.2,93.5c-2.5,5.1-5,10.2-7.5,15.3c-0.9,1.9-2.9,2.4-4.4,1.1c-1-0.8-1.3-2.1-0.7-3.4c2.8-5.7,5.7-11.5,8.4-17.2
	c1.6-3.3,3.2-6.5,4.8-9.8c0.8-1.6,1.6-3.3,2.6-4.7c0.9-1.3,2.3-1.3,3.6-0.4c1.1,0.7,1.5,2.1,0.8,3.5c-0.9,1.8-1.8,3.6-2.7,5.3
	C114.4,86.7,112.8,90.1,111.2,93.5C111.1,93.4,111.2,93.5,111.2,93.5"/>
<path d="M92.3,93.8c-2.2,4.5-4.4,9-6.6,13.5c-1.1,2.3-3.6,2.5-5,0.7c-0.8-1.1-0.6-2.2,0-3.3c1.9-3.9,3.9-7.8,5.8-11.7
	c2.4-5,4.9-9.9,7.3-14.9c0.9-1.8,2.3-2.4,3.7-1.8c1.6,0.7,2.2,2.4,1.4,4.1C96.7,84.8,94.5,89.3,92.3,93.8"/>
<path class="st2" d="M109,132.6c-1.5-0.7-2-2.4-1.2-3.8c0.7-1.3,2.4-1.8,3.7-1.2c1.4,0.7,2,2.5,1.2,3.9
	C112,132.9,110.4,133.4,109,132.6"/>
<path class="st0" d="M74.6,142.3c4.6,2.4,10.2,0.3,12.4-4.2c2.2-4.4,0.2-10-4.1-12.2c-4.6-2.3-10.2-0.5-12.4,4.1
	C68.2,134.5,70.1,140,74.6,142.3"/>
<path class="st2" d="M55.9,120.8L55.9,120.8c-1.4-0.7-1.9-2.3-1.3-3.7l10-20.7c0.7-1.4,2.3-1.9,3.7-1.3c1.4,0.7,1.9,2.3,1.3,3.7
	l-10,20.7C59,120.9,57.3,121.5,55.9,120.8"/>
<rect x="18" y="9.8" class="st3" width="125.1" height="164.7"/>
<path class="st1" d="M526.3,80c-1-4.8-4.9-7.6-10.7-7.6c-13.9,0.1-27.5,0.1-41.1,0.1c-3.3,0-6.6,0-9.8,0c-10.4,0-20.9,0-31.3,0
	c-7.2,0-11.4,4.5-10.7,11.7c1,10.6,2,21.1,3.1,31.7c1,10.7,2,21.5,3.1,32c0.5,4.1,3.1,7.2,7,8.2c1.5,0.4,3.2,0.5,4.8,0.5l0,0
	c10.5,0,21,0,31.5,0c11.7,0,23.4,0,35.1,0c5.7,0,9.9-3.5,10.4-8.6c0.7-8.1,1.4-16.1,2.4-24.2c1.2-12,2.4-24.2,3.5-36.1
	c0.2-1.6,0.3-3.4,0-5L526.3,80z M479.6,113.4c-0.2,1.6-0.4,3.1-0.5,4.7c-0.5,3.9-1,7.8-1.4,11.7c-0.1,1.1-0.5,1.4-1.4,1.4
	c-1.1-0.2-2-0.1-3.2,0c-1.4-0.1-3.2,0.2-4.1-0.5c-0.7-0.7-0.5-2.5-0.6-3.9c-0.5-4.4-1.2-9.1-1.7-13.6c-0.4-2.5,0.4-4.7,2.5-6
	c2.5-1.4,5.4-1.4,7.9,0.1C479.3,108.7,479.8,110.9,479.6,113.4z"/>
<path d="M436.9,162.5c-0.7-0.2-1.4-0.5-2.1-0.5c-7-1.9-12.2-8.2-12.6-15.5c-0.5-6.8-1.3-13.7-1.9-20.5c-0.7-7.6-1.4-15.3-2.3-23
	c-0.5-5.5-0.7-10.9-1.6-16.3c-1.1-6.8,3.5-14.5,10.7-17.3c1.9-0.7,4.1-1,6.2-1.2c2.7-0.2,5.5,0,8.3,0c0-0.7,0-1.3,0-1.9
	c0-6.8,0.2-13.6,0-20.4C440.8,28.1,455,17,466.8,14.5c16-3.5,33.5,7.4,37.1,23.3c0.5,2,0.6,4.2,0.6,6.3c0.1,7.4,0,14.9,0,22.3
	c0,0.5,0,1.1,0,1.8c3,0,5.7-0.1,8.6,0c7.2,0.2,12.3,3.7,15.4,10c1.6,3.3,1.4,6.7,1.1,10.3c-1,9.9-1.9,19.7-2.9,29.6
	c-0.8,8.6-1.7,17.3-2.5,26c-0.2,1.7-0.2,3.5-0.6,5.2c-1.8,7-6.4,11.3-13.4,12.9c-0.4,0.1-0.5,0.2-0.8,0.4
	C485.2,162.5,461,162.5,436.9,162.5z M473.1,74.4c-3.2,0-6.4,0-9.5,0c-10.1,0-20.3,0-30.4,0c-7,0-11.1,4.4-10.4,11.3
	c1,10.3,1.9,20.5,3,30.8c1,10.4,1.9,20.9,3,31.1c0.5,3.9,3,7,6.8,8c1.7,0.5,3.5,0.5,5.2,0.5c10.5,0,21,0,31.5,0
	c11.7,0,23.4,0,35.1,0c5.7,0,9.9-3.5,10.4-8.6c0.7-8.1,1.4-16.1,2.4-24.2c1.2-12,2.4-24.2,3.5-36.1c0.2-1.8,0.4-3.7-0.1-5.5
	c-1-4.7-4.8-7.4-10.4-7.4C499.6,74.4,486.4,74.4,473.1,74.4z M447.8,68.2c16.8,0,33.4,0,50.1,0c0-0.2,0.1-0.5,0.1-0.6
	c0-8.6,0.1-17.2-0.1-25.8c-0.1-4.8-1.9-9.2-5.1-12.6c-6.7-7.6-15.3-10.4-25.2-8.5c-11.8,2.1-20.3,11.9-20,23.5
	c0.2,7.4,0,14.8,0,22.2C447.8,67,447.8,67.5,447.8,68.2z"/>
<path d="M473,137.3c-2.1,0-4.4,0-6.4,0c-2.3,0-3.5-1-3.6-3.2c-0.8-6.8-1.7-13.6-2.5-20.4c-0.5-5.5,2-9.3,6.4-11.9
	c4.4-2.6,8.9-2.5,13.2,0.5c4.3,3,6.3,6.9,5.5,12.3c-0.8,6.2-1.6,12.4-2.3,18.5c-0.5,3.5-1.2,4.3-4.8,4.3c-1,0-1.9,0-2.7,0
	C474.9,137.3,474,137.3,473,137.3L473,137.3z M473,131.1L473,131.1c1-0.1,1.9-0.2,3-0.1c1.1,0.1,1.4-0.4,1.4-1.4
	c0.5-3.9,1-7.8,1.4-11.7c0.2-1.6,0.4-3.1,0.5-4.7c0.4-2.5-0.2-4.7-2.5-6.1c-2.5-1.4-5.4-1.6-7.9-0.1c-2.3,1.3-2.9,3.5-2.5,6
	c0.5,4.5,1.1,9.1,1.7,13.6c0.2,1.4-0.1,3.2,0.6,3.9C469.8,131.4,471.6,131,473,131.1z"/>
<path d="M271.2,102.1h-38.7c-2.5,0-4.5-2-4.5-4.5l0,0c0-2.5,2-4.5,4.5-4.5h38.7c2.5,0,4.5,2,4.5,4.5l0,0
	C275.7,100.1,273.7,102.1,271.2,102.1z"/>
<path d="M162.7,102.1h-4.9c-2.5,0-4.5-2-4.5-4.5l0,0c0-2.5,2-4.5,4.5-4.5h4.9c2.5,0,4.5,2,4.5,4.5l0,0
	C167.2,100.1,165.2,102.1,162.7,102.1z"/>
<path d="M189.6,102.1h-13c-2.5,0-4.5-2-4.5-4.5l0,0c0-2.5,2-4.5,4.5-4.5h13c2.5,0,4.5,2,4.5,4.5l0,0
	C194.1,100.1,192.1,102.1,189.6,102.1z"/>
<path d="M216.2,102.1h-13c-2.5,0-4.5-2-4.5-4.5l0,0c0-2.5,2-4.5,4.5-4.5h13c2.5,0,4.5,2,4.5,4.5l0,0
	C220.7,100.1,218.7,102.1,216.2,102.1z"/>
<path d="M404.1,102.1H301.9c-6.6,0-6.9-2-6.9-4.5l0,0c0-2.5,0.3-4.5,6.9-4.5h102.2c6.6,0,7.9,2,7.9,4.5l0,0
	C412,100.1,410.7,102.1,404.1,102.1z"/>
<path d="M679.9,101.1h38.7c2.5,0,4.5-2,4.5-4.5l0,0c0-2.5-2-4.5-4.5-4.5h-38.7c-2.5,0-4.5,2-4.5,4.5l0,0
	C675.4,99.1,677.4,101.1,679.9,101.1z"/>
<path d="M761.5,101.1h13c2.5,0,4.5-2,4.5-4.5l0,0c0-2.5-2-4.5-4.5-4.5h-13c-2.5,0-4.5,2-4.5,4.5l0,0C757,99.1,759,101.1,761.5,101.1
	z"/>
<path d="M734.9,101.1h13c2.5,0,4.5-2,4.5-4.5l0,0c0-2.5-2-4.5-4.5-4.5h-13c-2.5,0-4.5,2-4.5,4.5l0,0
	C730.4,99.1,732.4,101.1,734.9,101.1z"/>
<path d="M547,101.1h102.2c6.6,0,6.9-2,6.9-4.5l0,0c0-2.5-0.3-4.5-6.9-4.5H547c-6.6,0-7.9,2-7.9,4.5l0,0
	C539.1,99.1,540.4,101.1,547,101.1z"/>
<path d="M920.3,43.1c-2.3-1.2-4.6-1.2-6.7-0.9c0.5-4.5-0.5-7.8-3-10.5c-2.6-2.7-5.8-3.8-9.8-3.3c0.5-4.3-0.5-7.7-3.1-10.6
	c-2.5-2.7-5.9-3.8-9.8-3.3c0.4-3.7-0.3-6.9-2.3-9.7c-4.3-5.7-11.3-5.2-16-1.8c-1.5,1.1-2.8,2.4-4.1,3.8c-0.4,0.4-0.8,0.8-1.2,1.2
	l0,0c-1.4,1.2-6.5,6.4-28.4,30.2c-3.6-3.7-7.7-5.1-12.1-4.2c-8.7,1.8-15.9,12.4-16.7,14.9c-3.1,9.6-2.1,17.1,3.1,23.7
	c2.3,2.8,4.7,5.3,6.8,7.4c1,1,1.1,1.6,0.7,3.1c-6.4,18-12.8,36-19.2,54.1c-0.6,1.5-2.4,6.6-4.2,11.6c-1.8,5-3.6,10.1-4.2,11.6
	l-0.1,0.4c0,0,0,0.1,0,0.1c0,0,0,0.1,0,0.1l-0.1,0.3l0,0c-0.3,1.4,0.3,2.8,1.5,3.3c1.2,0.5,2.6-0.2,3.3-1.4l0.1,0l0.3-0.9
	c2.4-6.8,10.9-30.2,13.6-37.8l3.2,1.5c0,0,0,0.1,0.1,0.1c1.3,3.5,3.8,6.2,7,7.7l15.4,7.1c4.3,1.9,8.2,1.5,11.8-0.7l2.9,1.4
	c-0.7,2.2-2.9,8.4-4.8,14c-1.3,3.7-2.6,7.4-3.5,10.2c-1.1,3.1-1.5,4.4-1.6,4.9c-0.3,1.3,0.2,2.6,1.4,3c1.2,0.5,2.6-0.2,3.2-1.5l0,0
	c0.1-0.3,2.1-6.1,5.7-16.4c4.6-13.2,10.9-31.2,13-37.1c0.2-0.6,0.3-0.7,0.8-0.7c2.1-0.2,4.3-0.7,6.4-1.2c1.1,0,4.6-1.1,29.7-28.2
	C911.3,76,925,60.5,925.5,59.3C928.1,53,925.8,45.8,920.3,43.1z M847,131.7L847,131.7c-1,2.3-2.7,4.1-4.8,4.9c-2,0.8-4.1,0.7-6-0.2
	l-15.4-7.1c-2-0.9-3.5-2.6-4.4-4.9c-0.8-2.3-0.8-4.8,0.1-6.9c0.9-2.2,2.5-3.9,4.6-4.8c1-0.4,2-0.6,3-0.6c1.1,0,2.2,0.2,3.3,0.7
	l15.4,7.1c2,0.9,3.5,2.6,4.4,4.9C847.9,127.1,847.9,129.6,847,131.7z M920.7,56.8c-0.7,1.6-1.7,3.1-2.7,4.1
	c-14.2,15.3-28.6,30.7-43.3,46.4c-3.7,3.8-7.8,5.7-12.4,5.4c-1.6-0.1-3.1-0.3-4.8-0.5c-1.1-0.2-2.1-0.3-3.3-0.4l-0.9-0.1l-0.2,0.8
	c-0.2,0.7-0.5,1.8-0.9,3l-0.3,1.1l1.1,0.2c0.9,0.2,1.7,0.4,2.6,0.6c0.5,0.1,1,0.3,1.6,0.4c-0.9,2.5-1.6,4.5-2.2,6.3l-3.3-1.6
	c-1.3-3.3-3.7-5.9-6.9-7.4l-15.4-7.1c-3.8-1.8-8-1.6-11.7,0.6l-3-1.4c1.9-5.4,3.8-10.9,5.9-16.6c1.2-3.3,2.4-6.7,3.6-10.3l0.2-0.7
	l-0.8-0.7c-0.5-0.4-0.9-0.7-1.2-1.1c-2.3-2.5-4.6-5-7-7.5c-3.2-3.3-5-7.3-5.5-12.1c-0.2-1.6,0.4-2.9,1.2-4.7c0.3-0.8,0.7-1.6,1-2.5
	c5.8-7.7,10.9-11.8,14.8-12c2.5-0.1,4,1.4,5,2.5c-1.8,2.2-10.2,10.8-15.5,16.1l-0.6,0.6l0.6,0.7c0.5,0.6,1,1.2,1.6,1.8
	c0.5,0.6,1,1.1,1.5,1.7l0.8,0.9l0.8-0.9c0.7-0.8,1.2-1.4,1.7-2l33.6-36.3c4.5-4.8,9.2-9.8,13.6-14.9c2.3-2.6,4.8-3.7,7.6-3.6
	c1.3,0.1,2.4,0.6,3.3,1.7c3,3.5,1.5,8.6-0.7,10.7c-1.3,1.3-2.5,2.6-3.4,3.6l-0.6,0.6l0.5,0.7c0.3,0.4,0.6,0.8,1,1.1
	c0.5,0.5,0.9,1.1,1.3,1.6l0.8,1l0.8-1c0.7-0.8,1.4-1.5,2.1-2.3c1.2-1.5,2.8-3.1,5-3.7c1.8-0.5,3.6-0.3,5.1,0.7
	c1.4,0.9,2.3,2.5,2.6,4.3c0.4,2.5-0.3,5-2.2,7.1c-0.7,0.8-1.4,1.6-2.2,2.3c-0.5,0.5-1,1-1.5,1.6l-0.6,0.6l0.5,0.7
	c0.8,1,1.5,1.8,2.4,2.8l0.8,0.9l1-1.2c0.8-0.9,1.5-1.8,2.2-2.6c0.3-0.3,0.6-0.6,0.9-0.9c0.8-0.7,1.5-1.4,2.3-1.9
	c1.9-1,4-1.2,5.7-0.4c1.6,0.7,2.8,2.2,3.2,4.1c0.7,2.9,0,5.5-2.1,7.9c-1.2,1.3-2.4,2.5-3.6,3.7l-0.7,0.7l0.6,0.7
	c0.9,1,1.5,1.8,2.3,2.7l0.7,0.9l1.2-1.3c1.1-1.2,2.1-2.2,3.1-3.3c0.6-0.6,1.3-1.2,1.9-1.5c2.6-1.5,5.6-1.3,7.6,0.5
	C921.3,50.9,921.9,53.9,920.7,56.8z"/>
</svg>
