<?xml version="1.0" encoding="utf-8"?>
<!-- Generator: Adobe Illustrator 23.0.1, SVG Export Plug-In . SVG Version: 6.00 Build 0)  -->
<svg version="1.1" id="Layer_1" xmlns="http://www.w3.org/2000/svg" xmlns:xlink="http://www.w3.org/1999/xlink" x="0px" y="0px"
	 viewBox="0 0 564 112" style="enable-background:new 0 0 564 112;" xml:space="preserve">
<style type="text/css">
	.st0{fill:#EC872A;}
	.st1{fill:#EDB81E;}
	.st2{fill:#FFFFFF;}
</style>
<path class="st0" d="M97.73,96.51c2.47,4.48,4.84,8.77,7.38,13.37c-2.31-0.56-4.33-1.01-6.32-1.55c-7.52-2.05-15.02-4.16-22.55-6.19
	c-1.22-0.33-2.52-0.52-3.78-0.49c-9.81,0.27-19.4-0.95-28.67-4.22c-10.84-3.82-20.27-9.73-27.52-18.86
	C4.92,64.26,4.86,45.02,16.17,30.65C23.3,21.6,32.56,15.6,43.31,11.86C60.19,6,77.2,5.88,94.18,11.4
	c10.62,3.45,19.93,9.06,27.2,17.69c6.7,7.96,10.29,17.1,9.7,27.6c-0.48,8.67-3.88,16.26-9.37,22.92
	c-6.11,7.43-13.88,12.57-22.66,16.3C98.66,96.09,98.27,96.27,97.73,96.51z M72.52,90.49c8.52,0.01,15.27-0.95,21.83-3.09
	c9.19-3,17.34-7.68,23.54-15.24c7.36-8.96,9.95-19.08,6.3-30.29c-2.94-9.04-9.09-15.69-17.09-20.48
	C90.7,11.55,73.17,9.97,54.98,15.28c-10.35,3.02-19.27,8.44-25.73,17.27c-6.32,8.65-8.3,18.2-4.87,28.5
	c2.99,8.97,9.14,15.48,17.01,20.42C51.4,87.74,62.43,90.38,72.52,90.49z"/>
<path class="st0" d="M182.48,42.07c-3.98-2.1-8.02-2.84-12.23-2.93c-8.53-0.19-15.08,5.94-14.25,15.92c0.26,3.13,1.1,6.05,3.33,8.41
	c3.17,3.36,7.21,4.1,11.55,3.68c3.71-0.36,3.7-0.44,3.7-4.11c0-1.59,0-3.18,0-4.92c-2.97,0-5.82,0-8.75,0c0-2.68,0-5.21,0-7.82
	c6.18,0,12.32,0,18.58,0c0.02,0.37,0.06,0.75,0.06,1.13c0,6.44-0.01,12.88,0.02,19.32c0,0.79-0.24,1.21-0.95,1.56
	c-3.98,1.96-8.23,2.8-12.61,3.02c-4.54,0.23-9.04-0.05-13.3-1.86c-7.46-3.17-11.32-8.95-12.02-16.92
	c-0.57-6.53,0.68-12.57,5.12-17.66c3.86-4.43,8.81-6.82,14.55-7.57c5.41-0.71,10.76-0.33,16.03,1.18c0.86,0.25,1.21,0.61,1.19,1.56
	C182.43,36.66,182.48,39.25,182.48,42.07z"/>
<path class="st0" d="M247.49,29.39c3.21,0,6.35,0,9.61,0c0,6.32,0,12.58,0,19.08c0.32-0.29,0.47-0.4,0.57-0.53
	c3.47-4.46,8.12-5.42,13.32-4.27c5.1,1.13,7.6,4.88,8.67,9.67c0.95,4.29,0.81,8.6-0.69,12.76c-2.88,7.97-9.89,10.5-16.52,8.78
	c-1.02-0.26-2-0.81-2.89-1.4c-0.84-0.56-1.52-1.35-2.43-2.18c0,1.17,0,2.18,0,3.27c-3.28,0-6.42,0-9.66,0
	C247.49,59.57,247.49,44.53,247.49,29.39z M256.76,59.66c0.07,0.01,0.13,0.02,0.2,0.02c0,0.68-0.02,1.36,0,2.04
	c0.15,3.4,2.3,5.99,5.34,6.45c3.21,0.48,5.99-1.29,7.15-4.54c0.81-2.27,0.94-4.63,0.63-6.98c-0.37-2.81-1.51-5.18-4.55-5.98
	c-3.58-0.95-7.04,0.94-8.1,4.53C257.01,56.62,256.98,58.16,256.76,59.66z"/>
<path class="st1" d="M446.55,57.79c2.37-3.55,4.93-7,7.04-10.7c1.43-2.51,3.14-3.49,5.99-3.18c2.44,0.26,4.94,0.05,7.71,0.05
	c-3.87,4.91-7.59,9.63-11.38,14.43c4.04,5.37,8.06,10.72,12.22,16.26c-3.15,0-6.06-0.17-8.95,0.06c-2.09,0.17-3.21-0.62-4.27-2.32
	c-2.5-4-5.21-7.86-7.84-11.77c-0.19-0.28-0.4-0.55-0.81-1.11c0,5.22,0,10.1,0,15.06c-3.28,0-6.42,0-9.66,0c0-15.01,0-30.05,0-45.17
	c3.14,0,6.28,0,9.59,0c0,9.43,0,18.87,0,28.31C446.32,57.74,446.43,57.76,446.55,57.79z"/>
<path class="st0" d="M224.98,75.45c-3.75-0.06-7.35-0.69-10.5-2.83c-5.3-3.62-6.77-8.92-6.34-14.98c0.63-8.98,7.18-13.98,15.9-14.36
	c3.8-0.17,7.52,0.23,10.89,2.18c4.32,2.5,6.77,6.32,7.09,11.27c0.16,2.55,0.02,5.22-0.59,7.69c-1.45,5.89-6.5,9.96-12.75,10.72
	C227.45,75.28,226.21,75.35,224.98,75.45z M217.62,59.21c0.49,1.99,0.7,3.77,1.36,5.36c1.26,3.02,3.91,3.74,6.91,3.63
	c2.72-0.1,4.76-1.59,5.65-4.22c0.99-2.91,1.03-5.89,0.23-8.85c-0.75-2.76-2.61-4.34-5.46-4.64c-2.9-0.3-5.56,0.38-6.97,3.12
	C218.45,55.37,218.15,57.43,217.62,59.21z"/>
<path class="st0" d="M311.11,74.59c-2.94,0-5.89,0-8.94,0c0-1.34,0-2.68,0-4.39c-0.66,0.79-1.08,1.33-1.53,1.84
	c-3.46,3.96-10.79,4.5-14.88,1.24c-4.2-3.34-4.51-12.68,1.93-15.8c2.65-1.28,5.5-1.61,8.34-1.98c2.01-0.26,4.02-0.53,6-0.79
	c0.28-2.97-1.63-4.88-4.86-4.99c-3.53-0.12-6.8,0.78-9.85,2.51c-0.42,0.23-0.83,0.47-1.48,0.85c0-1.65,0-3.14,0-4.62
	c0-2.79-0.01-2.82,2.69-3.64c4.48-1.35,9.03-2.11,13.7-1.12c5.31,1.13,8.65,4.59,8.87,10.01c0.29,6.82,0.11,13.67,0.13,20.5
	C311.23,74.31,311.17,74.42,311.11,74.59z M302.1,60.19c-2.36,0.33-4.58,0.6-6.78,0.96c-0.65,0.11-1.31,0.39-1.88,0.73
	c-1.44,0.84-1.94,2.18-1.69,3.79c0.23,1.5,1.21,2.39,2.62,2.8c2.87,0.84,5.81-0.49,7.14-3.18C302.29,63.72,302.2,62.06,302.1,60.19z
	"/>
<path class="st1" d="M496.16,66.28c0,2.23,0.03,4.26-0.03,6.29c-0.01,0.31-0.43,0.79-0.75,0.88c-2.5,0.66-4.99,1.45-7.53,1.78
	c-3.17,0.42-6.39,0.27-9.49-0.76c-5.08-1.68-8.17-5.16-9.21-10.38c-0.92-4.59-0.68-9.13,1.72-13.25c2.83-4.86,7.23-7.36,12.83-7.53
	c1.89-0.06,3.86,0.12,5.69,0.58c5.48,1.38,9.04,6.01,9.44,12.06c0.13,1.94,0.02,3.9,0.02,5.95c-6.83,0-13.57,0-20.3,0
	c-0.31,2.6,1.32,5.18,3.97,6.05c4.32,1.43,8.51,0.81,12.56-1.12C495.37,66.7,495.65,66.55,496.16,66.28z M478.39,56.15
	c3.81,0,7.62,0,11.43,0c0.21-3.79-1.6-6.21-4.76-6.43C481.61,49.49,478.63,52.35,478.39,56.15z"/>
<path class="st1" d="M362.13,39.6c-4.25,0-8.31,0-12.45,0c0-2.63,0-5.17,0-7.79c11.64,0,23.25,0,34.94,0c0,2.58,0,5.12,0,7.78
	c-4.13,0-8.23,0-12.43,0c0,11.71,0,23.29,0,34.97c-3.39,0-6.67,0-10.06,0C362.13,62.94,362.13,51.36,362.13,39.6z"/>
<path class="st1" d="M546.93,51.85c-2.82-1.45-5.56-2.26-8.49-2.1c-0.94,0.05-1.92,0.25-2.78,0.62c-1.84,0.79-2.04,2.61-0.4,3.74
	c0.9,0.62,1.98,1,3.01,1.41c1.96,0.79,3.97,1.45,5.9,2.31c6.49,2.93,5.9,11.7,0.77,14.95c-2.65,1.68-5.59,2.33-8.64,2.54
	c-3.57,0.25-7.1-0.1-10.54-1.14c-0.78-0.24-1.18-0.55-1.15-1.48c0.08-2.15,0.03-4.3,0.03-6.64c0.79,0.4,1.45,0.73,2.11,1.05
	c3.1,1.49,6.32,2.23,9.76,1.6c0.2-0.04,0.4-0.06,0.58-0.12c1.11-0.37,2.25-0.73,2.41-2.16c0.16-1.45-0.85-2.08-1.93-2.57
	c-1.01-0.46-2.1-0.76-3.14-1.16c-1.64-0.63-3.29-1.21-4.89-1.94c-3.28-1.5-4.9-4.13-4.89-7.71c0.01-3.57,1.7-6.18,4.82-7.84
	c3.63-1.93,7.56-2.18,11.55-1.84c1.7,0.15,3.39,0.54,5.06,0.9c0.32,0.07,0.8,0.5,0.81,0.78C546.96,47.25,546.93,49.44,546.93,51.85z
	"/>
<path class="st1" d="M505.78,50.91c-1.76,0-3.35,0-5.04,0c0-2.33,0-4.57,0-6.95c1.35,0,2.66-0.05,3.97,0.02
	c0.86,0.04,1.11-0.29,1.08-1.1c-0.05-1.56-0.05-3.12,0.02-4.68c0.02-0.37,0.33-0.95,0.63-1.04c2.94-0.88,5.9-1.68,9-2.54
	c0,3.12,0,6.14,0,9.32c2.4,0,4.7,0,7.06,0c0,2.38,0,4.6,0,6.92c-2.31,0-4.58,0-6.99,0c-0.02,0.52-0.06,0.94-0.06,1.36
	c0,3.68-0.01,7.36,0,11.04c0,4.4,2.42,5.98,6.51,4.27c0.14-0.06,0.28-0.1,0.6-0.21c0,2.22,0.03,4.32-0.03,6.42
	c-0.01,0.27-0.44,0.66-0.74,0.76c-3.93,1.27-7.88,1.48-11.66-0.38c-2.91-1.43-4.11-4.13-4.22-7.19c-0.17-4.83-0.09-9.67-0.11-14.51
	C505.78,51.93,505.78,51.46,505.78,50.91z"/>
<path class="st0" d="M190.86,29.36c3.15,0,6.22,0,9.45,0c0.02,0.53,0.07,1.03,0.07,1.53c0,10.88,0,21.75,0.01,32.63
	c0,0.6,0.03,1.2,0.13,1.79c0.3,1.84,1.51,2.9,3.39,2.88c1.02-0.01,2.04-0.2,3.19-0.33c0,2.02,0.02,4.01-0.02,6
	c0,0.22-0.3,0.58-0.52,0.63c-2.93,0.71-5.9,1.22-8.9,0.75c-4.11-0.65-6.83-3.74-6.86-8c-0.08-12.48-0.03-24.95-0.02-37.43
	C190.76,29.69,190.81,29.58,190.86,29.36z"/>
<path class="st0" d="M334.05,67.86c0,2.03,0.02,4.06-0.03,6.08c0,0.2-0.37,0.55-0.6,0.57c-2.85,0.29-5.73,0.91-8.55,0.71
	c-4.22-0.3-7.1-3.62-7.13-7.96c-0.08-12.52-0.02-25.03-0.02-37.55c0-0.07,0.04-0.15,0.09-0.31c3.1,0,6.23,0,9.52,0
	c0,0.55,0,1.06,0,1.56c0,10.84,0,21.67,0.01,32.51c0,0.6,0.03,1.2,0.12,1.79c0.29,1.86,1.5,2.93,3.36,2.91
	C331.85,68.17,332.88,67.98,334.05,67.86z"/>
<path class="st1" d="M431.36,52.22c-1.83-0.59-3.52-1.39-5.29-1.65c-3.65-0.52-6.95,0.28-9.18,3.55c-1.98,2.9-1.91,8.04,0.15,10.79
	c2.22,2.97,5.36,3.66,8.77,3.13c1.85-0.29,3.63-1.09,5.55-1.69c0,2.17,0.03,4.47-0.04,6.76c-0.01,0.29-0.5,0.74-0.84,0.83
	c-1.88,0.49-3.77,1.08-5.69,1.29c-3.61,0.4-7.19,0.18-10.58-1.34c-5.97-2.68-9.18-8.79-8.6-15.6c0.83-9.75,8.06-14.97,16.86-14.99
	c2.6-0.01,5.21,0.54,7.81,0.87c0.83,0.11,1.13,0.64,1.11,1.53C431.31,47.91,431.36,50.11,431.36,52.22z"/>
<path class="st1" d="M388.41,44c3.11,0,6.19,0,9.41,0c0.02,0.49,0.07,0.94,0.07,1.4c0,6,0,12,0,17.99c0,0.36-0.01,0.72,0.01,1.08
	c0.18,2.77,1.82,4.08,4.58,3.68c0.66-0.1,1.32-0.22,2.12-0.36c0,2.08,0.02,4.07-0.03,6.06c-0.01,0.24-0.37,0.61-0.63,0.67
	c-2.97,0.67-5.97,1.21-9.02,0.67c-3.89-0.69-6.55-3.69-6.62-7.83c-0.12-7.67-0.03-15.35-0.02-23.03
	C388.29,44.25,388.34,44.18,388.41,44z"/>
<path d="M249.2,85.13c2.48,0.13,4.88,0.09,7.24,0.42c2.14,0.3,3.55,1.72,4.15,3.85c0.59,2.09,0.6,4.18,0,6.26
	c-0.87,3.02-3.12,4.35-6.05,4.61c-1.74,0.16-3.51,0.03-5.34,0.03C249.2,95.31,249.2,90.37,249.2,85.13z M252.13,97.88
	c3.12,0.38,4.99-0.64,5.49-3.06c0.21-1,0.26-2.08,0.16-3.09c-0.35-3.42-2.21-4.69-5.65-3.94C252.13,91.12,252.13,94.46,252.13,97.88
	z"/>
<path d="M158.67,85.33c2.15,0,4.24-0.19,6.28,0.04c3,0.34,4.46,2.02,4.47,4.65c0.01,2.83-1.68,4.82-4.54,5.27
	c-1.06,0.17-2.13,0.19-3.36,0.3c0,1.53,0,3.07,0,4.67c-1.02,0-1.88,0-2.86,0C158.67,95.33,158.67,90.37,158.67,85.33z M161.6,93.13
	c1.69,0.05,3.35,0.25,4.35-1.39c0.59-0.97,0.64-2.11-0.08-3.04c-1.11-1.45-2.71-1.13-4.27-1.07C161.6,89.52,161.6,91.29,161.6,93.13
	z"/>
<path class="st1" d="M393.07,39.22c-1.26-0.53-2.67-0.84-3.73-1.63c-2.64-1.95-2.21-5.94,0.68-7.51c1.47-0.8,3.06-0.92,4.66-0.61
	c2.77,0.53,4.26,2.4,4.11,5.03c-0.13,2.33-2.13,4.19-4.75,4.39c-0.28,0.02-0.56,0-0.84,0C393.16,38.99,393.11,39.1,393.07,39.22z"/>
<path d="M191.02,100.27c-1.07,0-1.93,0-2.94,0c0-1.24,0.1-2.43-0.03-3.6c-0.11-1.04-0.31-2.12-0.76-3.05
	c-1.33-2.75-2.81-5.44-4.34-8.37c1.08,0,1.98-0.06,2.86,0.03c0.29,0.03,0.63,0.41,0.79,0.72c0.99,1.94,1.94,3.91,2.98,6.02
	c0.96-1.89,1.92-3.61,2.72-5.4c0.49-1.1,1.16-1.6,2.36-1.4c0.42,0.07,0.87,0.01,1.52,0.01c-0.24,0.5-0.41,0.87-0.6,1.23
	c-1.19,2.26-2.34,4.54-3.6,6.75c-0.72,1.26-1.08,2.53-0.97,3.98C191.08,98.19,191.02,99.18,191.02,100.27z"/>
<path d="M243.45,100.27c-1.05,0-1.95,0-3,0c0-4.16,0-8.33,0-12.68c-1.51,0-2.88,0-4.31,0c0-0.84,0-1.5,0-2.26c3.83,0,7.64,0,11.45,0
	c0.05,0.08,0.12,0.14,0.13,0.21c0.17,2.02,0.17,2.02-1.88,2.02c-0.75,0-1.5,0-2.39,0C243.45,91.86,243.45,96.03,243.45,100.27z"/>
<path d="M178.22,100.28c-1.13,0-2.03,0-3.08,0c0-4.22,0-8.39,0-12.69c-1.48,0-2.82,0-4.24,0c0-0.82,0-1.51,0-2.28
	c3.84,0,7.65,0,11.5,0c0.04,0.22,0.08,0.37,0.08,0.52c0.09,1.73,0.09,1.73-1.61,1.73c-0.76,0-1.52,0.01-2.28,0.02
	c-0.08,0-0.15,0.04-0.37,0.1C178.22,91.81,178.22,95.98,178.22,100.28z"/>
<path d="M152.98,83.09c0.46,0.52,0.93,1.05,1.46,1.67c-2.66,2.46-4.59,5.38-4.57,9.27c0.02,3.87,1.8,6.87,4.66,9.47
	c-0.62,0.52-1.22,1.01-1.83,1.52C145.16,99.55,144.86,89.1,152.98,83.09z"/>
<path d="M198.92,84.85c0.55-0.62,1.04-1.18,1.52-1.73c7.83,5.18,7.82,16.73-0.09,22.07c-0.41-0.55-0.83-1.11-1.32-1.76
	c2.56-2.38,4.5-5.34,4.45-9.28C203.43,90.29,201.63,87.3,198.92,84.85z"/>
<path d="M233.88,97.96c0,0.86,0,1.53,0,2.29c-3.16,0-6.29,0-9.49,0c0-4.96,0-9.9,0-14.92c0.91,0,1.8,0,2.88,0c0,4.19,0,8.36,0,12.63
	C229.55,97.96,231.66,97.96,233.88,97.96z"/>
<path class="st2" d="M72.52,90.49c-10.09-0.11-21.12-2.75-31.13-9.03c-7.88-4.94-14.02-11.45-17.01-20.42
	c-3.43-10.3-1.46-19.85,4.87-28.5c6.46-8.84,15.38-14.25,25.73-17.27c18.19-5.31,35.72-3.73,52.13,6.11
	c8,4.8,14.15,11.45,17.09,20.48c3.65,11.22,1.05,21.33-6.3,30.29c-6.2,7.56-14.35,12.24-23.54,15.24
	C87.79,89.54,81.04,90.5,72.52,90.49z M33.92,43.1c0.11,0.08,0.23,0.15,0.34,0.23c0.12-0.08,0.25-0.15,0.36-0.24
	c2.64-2.37,5.12-4.96,7.96-7.06c7.55-5.57,16.11-8.48,25.52-8.44c8.7,0.04,16.84,2.49,24.3,6.88c3.91,2.3,7.04,5.65,9.69,9.36
	c4.86,6.81,5.95,14.1,2.52,21.87c-2.95,6.7-7.84,11.8-13.54,16.21c-0.37,0.28-0.75,0.56-1.12,0.83c0.39,0.1,0.69,0.04,0.96-0.1
	c2.44-1.2,4.93-2.3,7.29-3.63c6.23-3.51,11.8-7.82,15.75-13.92c2.27-3.51,3.97-7.31,3.62-11.58c-0.23-2.8-0.69-5.67-1.59-8.32
	c-2.92-8.6-8.8-14.85-16.43-19.49c-8.33-5.07-17.45-7.16-27.16-6.38c-5.06,0.41-10.06,1.29-14.87,3.05
	c-7.84,2.85-14.65,7.15-19.57,14.03C36.43,38.51,35.25,40.86,33.92,43.1z M81.39,69.8c0.06-0.01,0.21-0.01,0.34-0.06
	c4.98-1.84,9.34-4.56,12.52-8.9c3.86-5.27,4.02-12.27,0.43-17.15c-2.11-2.87-4.66-5.27-7.67-7.16c-5.78-3.63-12.1-5.05-18.88-4.63
	c-8.39,0.51-15.91,3.09-21.77,9.41c-1.22,1.31-2.17,2.87-3.25,4.31c0.12,0.11,0.25,0.22,0.37,0.33c0.4-0.34,0.79-0.69,1.2-1.02
	c1.52-1.23,2.96-2.58,4.58-3.65c5.97-3.95,12.5-5.41,19.65-4.44C75,37.66,80.76,39.2,85.6,43.18c2.55,2.1,4.5,4.68,5.07,8.05
	c0.92,5.47-0.96,10.09-4.52,14.1C84.69,66.95,82.97,68.33,81.39,69.8z"/>
<path class="st2" d="M252.13,97.88c0-3.42,0-6.76,0-10.1c3.43-0.75,5.3,0.53,5.65,3.94c0.1,1.02,0.05,2.09-0.16,3.09
	C257.12,97.24,255.25,98.26,252.13,97.88z"/>
<path class="st2" d="M161.6,93.13c0-1.84,0-3.61,0-5.5c1.56-0.06,3.16-0.37,4.27,1.07c0.72,0.93,0.67,2.07,0.08,3.04
	C164.94,93.38,163.29,93.18,161.6,93.13z"/>
<path class="st1" d="M33.92,43.1c1.33-2.24,2.51-4.59,4.02-6.7c4.92-6.88,11.73-11.18,19.57-14.03c4.81-1.75,9.81-2.64,14.87-3.05
	c9.71-0.78,18.83,1.32,27.16,6.38c7.63,4.64,13.51,10.89,16.43,19.49c0.9,2.65,1.36,5.52,1.59,8.32c0.34,4.27-1.36,8.06-3.62,11.58
	c-3.94,6.1-9.51,10.41-15.75,13.92c-2.36,1.33-4.86,2.44-7.29,3.63c-0.27,0.13-0.57,0.19-0.96,0.1c0.37-0.28,0.75-0.55,1.12-0.83
	c5.7-4.41,10.58-9.51,13.54-16.21c3.43-7.77,2.34-15.06-2.52-21.87c-2.65-3.71-5.78-7.06-9.69-9.36c-7.46-4.39-15.6-6.84-24.3-6.88
	c-9.41-0.04-17.96,2.86-25.52,8.44c-2.84,2.1-5.31,4.69-7.96,7.06c-0.11,0.1-0.24,0.16-0.36,0.24
	C34.14,43.25,34.03,43.18,33.92,43.1z"/>
<path class="st1" d="M81.39,69.8c1.58-1.47,3.3-2.85,4.75-4.47c3.57-4,5.45-8.63,4.52-14.1c-0.57-3.37-2.51-5.94-5.07-8.05
	c-4.83-3.99-10.6-5.52-16.69-6.34c-7.15-0.97-13.68,0.49-19.65,4.44c-1.62,1.07-3.06,2.42-4.58,3.65c-0.41,0.33-0.8,0.68-1.2,1.02
	c-0.12-0.11-0.25-0.22-0.37-0.33c1.08-1.44,2.03-3,3.25-4.31c5.86-6.32,13.38-8.89,21.77-9.41c6.77-0.41,13.1,1,18.88,4.63
	c3.01,1.9,5.57,4.3,7.67,7.16c3.59,4.88,3.43,11.88-0.43,17.15c-3.18,4.34-7.54,7.07-12.52,8.9C81.6,69.79,81.45,69.79,81.39,69.8z"
	/>
</svg>
