<?xml version="1.0" standalone="no"?>
<!DOCTYPE svg PUBLIC "-//W3C//DTD SVG 20010904//EN"
 "http://www.w3.org/TR/2001/REC-SVG-20010904/DTD/svg10.dtd">
<svg version="1.0" xmlns="http://www.w3.org/2000/svg"
 width="85.000000pt" height="85.000000pt" viewBox="0 0 85.000000 85.000000"
 preserveAspectRatio="xMidYMid meet">
<metadata>
Created by potrace 1.11, written by Peter Selinger 2001-2013
</metadata>
<g transform="translate(0.000000,85.000000) scale(0.100000,-0.100000)"
fill="#000000" stroke="none">
<path d="M299 831 c-232 -74 -337 -347 -215 -555 32 -55 112 -127 170 -154 40
-19 269 -64 394 -78 l47 -5 -48 46 -49 46 39 26 c99 65 156 180 157 313 0 76
-4 94 -33 155 -82 177 -279 265 -462 206z m191 -85 c147 -32 248 -215 200
-361 -53 -160 -219 -243 -372 -186 -181 69 -244 292 -126 445 70 92 176 128
298 102z"/>
<path d="M448 685 c-7 -8 -74 -17 -112 -16 -33 1 -37 -1 -26 -14 13 -16 35
-21 26 -6 -3 5 5 8 19 7 16 0 23 -6 20 -13 -2 -7 1 -13 8 -14 7 0 25 -2 42 -2
26 -2 30 -6 32 -38 4 -45 -19 -75 -64 -84 -30 -6 -33 -5 -33 19 0 33 -1 36
-11 65 -7 16 -5 28 3 39 12 14 10 14 -11 3 -19 -10 -25 -10 -31 -1 -5 7 -13 9
-21 5 -9 -6 -11 -4 -6 8 4 11 0 15 -12 14 -11 -1 -17 -7 -16 -17 2 -8 4 -15 5
-15 1 0 3 -34 5 -75 3 -83 11 -134 25 -160 5 -9 6 -26 3 -38 -3 -12 -2 -43 2
-68 l7 -47 90 6 c109 8 131 23 118 82 -1 6 -1 20 0 33 1 12 -2 22 -7 22 -5 0
-13 -10 -18 -22 -6 -13 -25 -28 -43 -34 -18 -5 -30 -13 -27 -16 3 -3 -5 -3
-17 -1 -21 4 -23 11 -25 64 -2 58 -1 59 25 60 15 0 39 3 54 5 19 3 30 -1 37
-14 6 -11 8 -22 5 -25 -3 -3 3 -3 15 0 13 3 21 1 21 -6 0 -7 5 -9 12 -5 8 5 9
2 5 -10 -4 -10 -3 -15 3 -11 6 3 10 0 10 -7 0 -7 9 1 20 17 11 17 15 32 10 33
-6 2 -10 12 -10 21 0 21 -55 72 -66 63 -5 -4 -3 0 4 10 10 13 10 17 0 21 -9 4
-8 6 3 6 9 1 20 8 23 17 3 8 10 13 14 10 20 -12 -2 66 -26 95 -17 19 -42 26
-42 11 0 -5 -7 -9 -15 -9 -10 0 -12 4 -5 12 7 9 6 14 -4 18 -8 3 -16 4 -18 2z
m62 -67 c0 -11 -12 -10 -30 2 -12 7 -10 9 8 7 12 0 22 -5 22 -9z m-206 -16 c2
-4 -4 -9 -15 -9 -11 -1 -17 2 -14 8 7 11 22 12 29 1z m234 -170 c5 -16 -10
-15 -33 1 -17 13 -16 14 5 12 13 -1 26 -7 28 -13z m-228 -27 c0 -8 5 -15 11
-15 5 0 7 -5 4 -10 -4 -6 -10 -8 -14 -5 -13 7 -21 45 -10 45 5 0 9 -7 9 -15z
m43 -16 c6 -21 5 -21 -12 -3 -10 11 -16 22 -14 27 7 11 20 0 26 -24z m227 5
c0 -7 -6 -16 -12 -20 -7 -4 -10 -4 -6 1 4 4 3 13 -2 20 -7 8 -5 12 5 12 8 0
15 -6 15 -13z"/>
<path d="M535 310 c-3 -6 1 -7 9 -4 18 7 21 14 7 14 -6 0 -13 -4 -16 -10z"/>
</g>
</svg>
