<?xml version="1.0" encoding="utf-8"?>
<!-- Generator: Adobe Illustrator 23.0.1, SVG Export Plug-In . SVG Version: 6.00 Build 0)  -->
<svg version="1.1" id="Layer_1" xmlns="http://www.w3.org/2000/svg" xmlns:xlink="http://www.w3.org/1999/xlink" x="0px" y="0px"
	 viewBox="0 0 83.7 83.8" style="enable-background:new 0 0 83.7 83.8;" xml:space="preserve">
<style type="text/css">
	.st0{fill:#F2F2F2;}
	.st1{fill:#FFFFFF;}
	.st2{fill:#3F4A5A;}
	.st3{fill:#F67656;}
	.st4{fill:#333C49;}
</style>
<g>
	<g>
		<rect x="28.6" y="65.5" class="st0" width="21.4" height="9.4"/>
		<rect x="23.5" y="74.9" class="st1" width="31.7" height="2.6"/>
		<path class="st2" d="M2.9,56.9V10.2c0-0.7,0.3-1.3,0.8-1.8c0.5-0.5,1.2-0.8,1.8-0.8h67.6c0.7,0,1.3,0.3,1.8,0.8
			c0.5,0.5,0.8,1.2,0.8,1.8v46.7H2.9z"/>
		<rect x="7.7" y="12.3" class="st1" width="63.4" height="39.9"/>
		<path class="st1" d="M75.7,62.9c0,0.7-0.3,1.3-0.8,1.8c-0.5,0.5-1.2,0.8-1.8,0.8H5.5c-0.7,0-1.3-0.3-1.8-0.8
			c-0.5-0.5-0.8-1.2-0.8-1.8v-6h72.8V62.9z"/>
		<g>
			<g>
				<rect x="10.2" y="14.9" class="st3" width="17.7" height="6"/>
				<rect x="30.5" y="14.9" class="st3" width="17.7" height="6"/>
				<rect x="50.7" y="14.9" class="st3" width="17.7" height="6"/>
			</g>
			<g>
				<rect x="10.2" y="23.5" class="st3" width="17.7" height="11.8"/>
				<rect x="30.5" y="23.5" class="st3" width="17.7" height="11.8"/>
				<rect x="50.7" y="23.5" class="st3" width="17.7" height="11.8"/>
			</g>
			<rect x="10.2" y="37.8" class="st3" width="58.2" height="11.8"/>
		</g>
	</g>
	<g>
		<path class="st2" d="M79,37.8H63c-1.5,0-2.8,1.2-2.8,2.8v34.1c0,1.5,1.2,2.8,2.8,2.8h16c1.5,0,2.8-1.2,2.8-2.8V40.6
			C81.8,39.1,80.5,37.8,79,37.8z"/>
		<rect x="61.8" y="43.8" class="st1" width="18.4" height="27.7"/>
		<path class="st4" d="M69.3,75.1c-0.3,0-0.6-0.3-0.6-0.6v-0.2c0-0.3,0.3-0.6,0.6-0.6h3.4c0.3,0,0.6,0.3,0.6,0.6v0.2
			c0,0.3-0.3,0.6-0.6,0.6H69.3z"/>
		<g>
			<path class="st4" d="M71.8,40.8c0,0.4-0.3,0.8-0.8,0.8c-0.4,0-0.8-0.3-0.8-0.8c0-0.4,0.3-0.8,0.8-0.8
				C71.4,40.1,71.8,40.4,71.8,40.8z"/>
			<path class="st2" d="M71.3,40.8c0,0.2-0.1,0.3-0.3,0.3c-0.2,0-0.3-0.1-0.3-0.3c0-0.2,0.1-0.3,0.3-0.3
				C71.2,40.6,71.3,40.7,71.3,40.8z"/>
		</g>
		<g>
			<rect x="63.2" y="45.2" class="st3" width="15.6" height="4.7"/>
			<rect x="63.2" y="51.3" class="st3" width="15.6" height="8.7"/>
			<rect x="63.2" y="61.4" class="st3" width="15.6" height="8.7"/>
		</g>
	</g>
</g>
</svg>
