<?xml version="1.0" encoding="utf-8"?>
<!-- Generator: Adobe Illustrator 23.0.1, SVG Export Plug-In . SVG Version: 6.00 Build 0)  -->
<svg version="1.1" id="Layer_1" xmlns="http://www.w3.org/2000/svg" xmlns:xlink="http://www.w3.org/1999/xlink" x="0px" y="0px"
	 viewBox="0 0 83.7 83.8" style="enable-background:new 0 0 83.7 83.8;" xml:space="preserve">
<style type="text/css">
	.st0{fill:#9DE8F7;}
	.st1{fill:#FFFFFF;}
	.st2{fill:#6BC7D9;}
	.st3{fill:#3F4A5A;}
	.st4{fill:#E66847;}
	.st5{fill:#F8C963;}
	.st6{fill:#81CF9B;}
</style>
<g>
	<g>
		<g>
			<path class="st0" d="M79.6,70.7c0,0.7-0.3,1.4-0.8,1.9c-0.5,0.5-1.2,0.8-1.9,0.8H6.1c-0.7,0-1.4-0.3-1.9-0.8
				c-0.5-0.5-0.8-1.2-0.8-1.9V26.1h76.2V70.7z"/>
			<path class="st1" d="M79.6,26.1H3.4v-11c0-0.7,0.3-1.4,0.8-1.9c0.5-0.5,1.2-0.8,1.9-0.8h70.8c0.7,0,1.4,0.3,1.9,0.8
				c0.5,0.5,0.8,1.2,0.8,1.9V26.1z"/>
		</g>
		<path class="st2" d="M4.2,72.6c0.5,0.5,1.2,0.8,1.9,0.8h13V26.1H3.4v44.6C3.4,71.4,3.7,72.1,4.2,72.6z"/>
		<g>
			<rect x="6.8" y="49.9" class="st1" width="9" height="2"/>
			<rect x="6.8" y="45.9" class="st1" width="9" height="2"/>
			<rect x="6.8" y="41.9" class="st1" width="9" height="2"/>
			<rect x="6.8" y="37.9" class="st1" width="9" height="2"/>
			<rect x="6.8" y="33.9" class="st3" width="9" height="2"/>
		</g>
		<g>
			<rect x="24.5" y="33.9" class="st2" width="49.8" height="13.7"/>
			<g>
				<rect x="24.5" y="51.9" class="st2" width="13.7" height="13.7"/>
				<rect x="42.5" y="51.9" class="st2" width="13.7" height="13.7"/>
				<rect x="60.5" y="51.9" class="st2" width="13.7" height="13.7"/>
			</g>
		</g>
		<g>
			<circle class="st4" cx="10.1" cy="19.3" r="2.2"/>
			<circle class="st5" cx="16.9" cy="19.3" r="2.2"/>
			<circle class="st6" cx="23.6" cy="19.3" r="2.2"/>
		</g>
	</g>
</g>
</svg>
