<?xml version="1.0" encoding="utf-8"?>
<!-- Generator: Adobe Illustrator 23.0.1, SVG Export Plug-In . SVG Version: 6.00 Build 0)  -->
<svg version="1.1" id="Layer_1" xmlns="http://www.w3.org/2000/svg" xmlns:xlink="http://www.w3.org/1999/xlink" x="0px" y="0px"
	 viewBox="0 0 83.7 83.8" style="enable-background:new 0 0 83.7 83.8;" xml:space="preserve">
<style type="text/css">
	.st0{fill:#9DE8F7;}
	.st1{fill:#FFFFFF;}
	.st2{fill:#6BC7D9;}
	.st3{fill:#E66847;}
	.st4{fill:#F8C963;}
	.st5{fill:#81CF9B;}
</style>
<g>
	<g>
		<path class="st0" d="M82.4,71.3c0,0.7-0.3,1.5-0.8,2c-0.6,0.6-1.3,0.8-2,0.8H4.3c-0.7,0-1.5-0.3-2-0.8c-0.6-0.6-0.8-1.3-0.8-2V24
			h81V71.3z"/>
		<path class="st1" d="M82.4,24h-81V12.2c0-0.7,0.3-1.5,0.8-2c0.6-0.6,1.3-0.8,2-0.8h75.3c0.7,0,1.5,0.3,2,0.8
			c0.6,0.6,0.8,1.3,0.8,2V24z"/>
	</g>
	<g>
		<g>
			<rect x="25.9" y="55.8" class="st2" width="13.6" height="9.7"/>
			<rect x="43.8" y="55.8" class="st2" width="13.6" height="9.7"/>
			<rect x="61.7" y="55.8" class="st2" width="13.6" height="9.7"/>
			<rect x="8.5" y="55.9" class="st2" width="13.6" height="9.7"/>
			<g>
				<rect x="25.7" y="43" class="st2" width="13.6" height="9.7"/>
				<rect x="43.6" y="43" class="st2" width="13.6" height="9.7"/>
				<rect x="61.5" y="43" class="st2" width="13.6" height="9.7"/>
				<rect x="8.3" y="43.1" class="st2" width="13.6" height="9.7"/>
			</g>
			<g>
				<rect x="25.3" y="30.4" class="st2" width="13.6" height="9.7"/>
				<rect x="43.2" y="30.4" class="st2" width="13.6" height="9.7"/>
				<rect x="61.1" y="30.4" class="st2" width="13.6" height="9.7"/>
				<rect x="8" y="30.5" class="st2" width="13.6" height="9.7"/>
			</g>
		</g>
	</g>
	<g>
		<circle class="st3" cx="8.6" cy="16.7" r="2.4"/>
		<circle class="st4" cx="15.7" cy="16.7" r="2.4"/>
		<circle class="st5" cx="22.9" cy="16.7" r="2.4"/>
	</g>
</g>
</svg>
