<?xml version="1.0" encoding="utf-8"?>
<!-- Generator: Adobe Illustrator 23.0.1, SVG Export Plug-In . SVG Version: 6.00 Build 0)  -->
<svg version="1.1" id="Layer_1" xmlns="http://www.w3.org/2000/svg" xmlns:xlink="http://www.w3.org/1999/xlink" x="0px" y="0px"
	 viewBox="0 0 83.7 83.8" style="enable-background:new 0 0 83.7 83.8;" xml:space="preserve">
<style type="text/css">
	.st0{fill:#E6E5E5;}
	.st1{fill:#FFFFFF;}
	.st2{fill:#3F4A5A;}
	.st3{fill:#71BF8C;}
	.st4{fill:#81CF9B;}
	.st5{fill:#90DEA9;}
	.st6{clip-path:url(#SVGID_2_);}
</style>
<g>
	<g>
		<rect x="33.4" y="59.3" class="st0" width="18.2" height="8.1"/>
		<rect x="29" y="67.3" class="st1" width="27" height="2.2"/>
		<path class="st2" d="M11.5,51.9v-40c0-0.6,0.2-1.1,0.7-1.6c0.4-0.4,1-0.7,1.5-0.7h57.6c0.5,0,1.1,0.2,1.6,0.7
			c0.4,0.4,0.7,1,0.7,1.6V52L11.5,51.9L11.5,51.9z"/>
		<rect x="15.6" y="13.7" class="st1" width="54" height="34.2"/>
		<path class="st1" d="M73.6,57c0,0.6-0.2,1.1-0.7,1.6c-0.4,0.4-1,0.7-1.6,0.7H13.7c-0.5,0-1.1-0.2-1.6-0.7s-0.7-1-0.7-1.6v-5.2h62
			L73.6,57L73.6,57z"/>
	</g>
	<g>
		<g>
			<path class="st3" d="M58.4,27.7c0-0.3-0.1-0.6-0.3-0.8c-0.2-0.2-0.5-0.3-0.8-0.3H30.4c-0.3,0-0.6,0.1-0.8,0.3
				c-0.2,0.2-0.3,0.5-0.3,0.8v11.8c0,0.3,0.1,0.6,0.3,0.8c0.2,0.2,0.5,0.3,0.8,0.3h26.9c0.3,0,0.6-0.1,0.8-0.3
				c0.2-0.2,0.3-0.5,0.3-0.8V27.7z"/>
			<path class="st4" d="M58.4,26.7c0-0.3-0.1-0.6-0.3-0.8c-0.2-0.1-0.5-0.3-0.8-0.3H30.4c-0.3,0-0.6,0.1-0.8,0.3s-0.3,0.5-0.3,0.8
				v11.8c0,0.3,0.1,0.6,0.3,0.8c0.2,0.2,0.5,0.3,0.8,0.3h26.9c0.3,0,0.6-0.1,0.8-0.3c0.2-0.2,0.3-0.5,0.3-0.8V26.7z"/>
			<path class="st3" d="M58.4,25.7c0-0.3-0.1-0.6-0.3-0.8c-0.2-0.2-0.5-0.3-0.8-0.3H30.4c-0.3,0-0.6,0.1-0.8,0.3s-0.3,0.5-0.3,0.8
				v11.8c0,0.3,0.1,0.6,0.3,0.8c0.2,0.2,0.5,0.3,0.8,0.3h26.9c0.3,0,0.6-0.1,0.8-0.3c0.2-0.2,0.3-0.5,0.3-0.8V25.7z"/>
			<path class="st4" d="M58.4,24.8c0-0.3-0.1-0.6-0.3-0.8c-0.2-0.2-0.5-0.3-0.8-0.3H30.4c-0.3,0-0.6,0.1-0.8,0.3
				c-0.2,0.2-0.3,0.5-0.3,0.8v11.8c0,0.3,0.1,0.6,0.3,0.8c0.2,0.2,0.5,0.3,0.8,0.3h26.9c0.3,0,0.6-0.1,0.8-0.3
				c0.2-0.2,0.3-0.5,0.3-0.8V24.8z"/>
			<path class="st3" d="M58.4,23.8c0-0.3-0.1-0.6-0.3-0.8c-0.2-0.2-0.5-0.3-0.8-0.3H30.4c-0.3,0-0.6,0.1-0.8,0.3s-0.3,0.5-0.3,0.8
				v11.8c0,0.3,0.1,0.6,0.3,0.8c0.2,0.2,0.5,0.3,0.8,0.3h26.9c0.3,0,0.6-0.1,0.8-0.3c0.2-0.2,0.3-0.5,0.3-0.8V23.8z"/>
			<path class="st4" d="M58.4,22.8c0-0.3-0.1-0.6-0.3-0.8c-0.2-0.2-0.5-0.3-0.8-0.3H30.4c-0.3,0-0.6,0.1-0.8,0.3s-0.3,0.5-0.3,0.8
				v11.8c0,0.3,0.1,0.6,0.3,0.8c0.2,0.2,0.5,0.3,0.8,0.3h26.9c0.3,0,0.6-0.1,0.8-0.3c0.2-0.2,0.3-0.5,0.3-0.8V22.8z"/>
			<path class="st3" d="M58.4,21.8c0-0.3-0.1-0.6-0.3-0.8c-0.2-0.2-0.5-0.3-0.8-0.3H30.4c-0.3,0-0.6,0.1-0.8,0.3
				c-0.2,0.2-0.3,0.5-0.3,0.8v11.8c0,0.3,0.1,0.6,0.3,0.8c0.2,0.2,0.5,0.3,0.8,0.3h26.9c0.3,0,0.6-0.1,0.8-0.3
				c0.2-0.2,0.3-0.5,0.3-0.8V21.8z"/>
			<path class="st4" d="M58.4,20.8c0-0.3-0.1-0.6-0.3-0.8c-0.2-0.2-0.5-0.3-0.8-0.3H30.4c-0.3,0-0.6,0.1-0.8,0.3s-0.3,0.5-0.3,0.8
				v11.8c0,0.3,0.1,0.6,0.3,0.8c0.2,0.2,0.5,0.3,0.8,0.3h26.9c0.3,0,0.6-0.1,0.8-0.3c0.2-0.2,0.3-0.5,0.3-0.8V20.8z"/>
			<g>
				<path class="st3" d="M58.4,19.8c0-0.3-0.1-0.6-0.3-0.8c-0.2-0.2-0.5-0.3-0.8-0.3H30.4c-0.3,0-0.6,0.1-0.8,0.3s-0.3,0.5-0.3,0.8
					v11.8c0,0.3,0.1,0.6,0.3,0.8c0.2,0.2,0.5,0.3,0.8,0.3h26.9c0.3,0,0.6-0.1,0.8-0.3c0.2-0.2,0.3-0.5,0.3-0.8V19.8z"/>
				<path class="st5" d="M56.9,29.6c-0.9,0-1.6,0.7-1.6,1.6H32.5c0-0.9-0.7-1.6-1.6-1.6v-7.8c0.9,0,1.6-0.7,1.6-1.6h22.8
					c0,0.9,0.7,1.6,1.6,1.6V29.6z"/>
				<g>
					<path class="st3" d="M43.9,30.1c-2.4,0-4.3-1.9-4.3-4.3s1.9-4.3,4.3-4.3s4.3,1.9,4.3,4.3C48.2,28.1,46.2,30.1,43.9,30.1z"/>
					<g>
						<rect x="49.4" y="25.3" class="st3" width="3.7" height="1"/>
						<rect x="34.5" y="25.3" class="st3" width="3.7" height="1"/>
					</g>
				</g>
			</g>
		</g>
		<g>
			<rect x="41.3" y="18.7" class="st1" width="5.2" height="14.1"/>
			<rect x="41.3" y="32.8" class="st0" width="5.2" height="7.8"/>
		</g>
	</g>
</g>
<g>
	<path class="st1" d="M53.1,57.6c0,0.4-0.3,0.7-0.7,0.7H32.8c-0.4,0-0.7-0.3-0.7-0.7v-4.7c0-0.4,0.3-0.7,0.7-0.7h19.6
		c0.4,0,0.7,0.3,0.7,0.7V57.6z"/>
	<rect x="35.8" y="54.4" class="st2" width="13.6" height="1.7"/>
	<g>
		<g>
			<defs>
				<rect id="SVGID_1_" x="35.8" y="55.3" width="13.6" height="10.8"/>
			</defs>
			<clipPath id="SVGID_2_">
				<use xlink:href="#SVGID_1_"  style="overflow:visible;"/>
			</clipPath>
			<g class="st6">
				<path class="st3" d="M38.2,44.5c-0.2,0-0.4,0.1-0.6,0.2s-0.2,0.4-0.2,0.6v19.9c0,0.2,0.1,0.4,0.2,0.6c0.1,0.1,0.4,0.2,0.6,0.2
					H47c0.2,0,0.4-0.1,0.6-0.2c0.1-0.1,0.2-0.4,0.2-0.6V45.3c0-0.2-0.1-0.4-0.2-0.6c-0.1-0.1-0.4-0.2-0.6-0.2
					C47,44.5,38.2,44.5,38.2,44.5z"/>
				<path class="st5" d="M45.4,45.7c0,0.7,0.5,1.2,1.2,1.2v16.8c-0.7,0-1.2,0.5-1.2,1.2h-5.8c0-0.7-0.5-1.2-1.2-1.2V46.9
					c0.7,0,1.2-0.5,1.2-1.2H45.4z"/>
				<g>
					<path class="st3" d="M45.8,55.3c0,1.7-1.4,3.2-3.2,3.2s-3.2-1.4-3.2-3.2c0-1.7,1.4-3.2,3.2-3.2S45.8,53.5,45.8,55.3z
						 M40.1,55.3c0,1.3,1.1,2.5,2.5,2.5s2.5-1.1,2.5-2.5s-1.1-2.5-2.5-2.5S40.1,53.9,40.1,55.3z"/>
					<g>
						<rect x="42.2" y="48.3" class="st3" width="0.7" height="4.2"/>
						<rect x="42.2" y="58.1" class="st3" width="0.7" height="4.2"/>
					</g>
					<g>
						<rect x="40.7" y="50.8" class="st3" width="0.7" height="2.1"/>
						<rect x="40.7" y="57.6" class="st3" width="0.7" height="2.1"/>
					</g>
					<g>
						<rect x="43.8" y="50.8" class="st3" width="0.7" height="2.2"/>
						<rect x="43.8" y="57.6" class="st3" width="0.7" height="2.1"/>
					</g>
				</g>
			</g>
		</g>
	</g>
	<g>
		<rect x="40.8" y="42.3" class="st2" width="3.4" height="1.7"/>
		<polygon class="st2" points="39.3,44.1 42.6,47.4 45.9,44.1 		"/>
	</g>
</g>
</svg>
