<?xml version="1.0" encoding="utf-8"?>
<!-- Generator: Adobe Illustrator 23.0.1, SVG Export Plug-In . SVG Version: 6.00 Build 0)  -->
<svg version="1.1" id="Layer_1" xmlns="http://www.w3.org/2000/svg" xmlns:xlink="http://www.w3.org/1999/xlink" x="0px" y="0px"
	 viewBox="0 0 83.7 83.8" style="enable-background:new 0 0 83.7 83.8;" xml:space="preserve">
<style type="text/css">
	.st0{fill:#FFFFFF;}
	.st1{fill:#FAD97F;}
	.st2{fill:#F5B947;}
	.st3{fill:#3F4A5A;}
</style>
<g>
	<g>
		<rect x="40.7" y="2.9" class="st0" width="1.6" height="4.3"/>
		<rect x="34.1" y="3.6" transform="matrix(0.9783 -0.2071 0.2071 0.9783 -0.4329 7.3558)" class="st0" width="1.6" height="4.2"/>
		<rect x="27.9" y="5.7" transform="matrix(0.9124 -0.4093 0.4093 0.9124 -0.6754 12.4059)" class="st0" width="1.6" height="4.3"/>
		<polygon class="st0" points="21.1,9.8 22.3,8.9 24.8,12.3 23.5,13.3 		"/>
		<polygon class="st0" points="15.9,14.7 17,13.5 20.1,16.3 19.1,17.5 		"/>
		
			<rect x="13.4" y="18.7" transform="matrix(0.5002 -0.8659 0.8659 0.5002 -10.9527 22.6677)" class="st0" width="1.6" height="4.3"/>
		
			<rect x="10.7" y="24.7" transform="matrix(0.3048 -0.9524 0.9524 0.3048 -17.588 29.5934)" class="st0" width="1.6" height="4.2"/>
		<polygon class="st0" points="7.9,33.9 8.1,32.3 12.3,32.7 12.1,34.3 		"/>
		<polygon class="st0" points="7.9,39.3 12.1,38.9 12.3,40.4 8.1,40.9 		"/>
		<polygon class="st0" points="9.2,46.2 13.3,44.9 13.7,46.4 9.7,47.7 		"/>
		<rect x="12" y="51.6" transform="matrix(0.8661 -0.4998 0.4998 0.8661 -24.2737 14.0862)" class="st0" width="4.3" height="1.6"/>
		<polygon class="st0" points="15.9,58.5 19.1,55.7 20.1,56.8 17,59.7 		"/>
		<polygon class="st0" points="21.1,63.4 23.5,59.9 24.8,60.8 22.3,64.3 		"/>
		<polygon class="st0" points="58.1,60.8 59.4,59.9 61.9,63.4 60.6,64.3 		"/>
		<polygon class="st0" points="62.8,56.8 63.8,55.7 67,58.5 66,59.7 		"/>
		<polygon class="st0" points="66.5,52 67.3,50.6 71,52.7 70.2,54.1 		"/>
		<polygon class="st0" points="69.2,46.4 69.7,44.9 73.7,46.2 73.2,47.7 		"/>
		<polygon class="st0" points="70.6,40.4 70.8,38.9 75,39.3 74.9,40.9 		"/>
		<polygon class="st0" points="70.6,32.7 74.9,32.3 75,33.9 70.8,34.3 		"/>
		
			<rect x="69.3" y="26.1" transform="matrix(0.9512 -0.3086 0.3086 0.9512 -4.7964 23.3576)" class="st0" width="4.2" height="1.6"/>
		<polygon class="st0" points="66.5,21.2 70.2,19.1 71,20.4 67.3,22.6 		"/>
		<polygon class="st0" points="62.8,16.3 66,13.5 67,14.7 63.8,17.5 		"/>
		<polygon class="st0" points="58.1,12.3 60.6,8.9 61.9,9.8 59.4,13.3 		"/>
		<polygon class="st0" points="52.7,9.4 54.4,5.5 55.9,6.2 54.1,10 		"/>
		<rect x="45.9" y="5" transform="matrix(0.206 -0.9786 0.9786 0.206 32.5096 51.5554)" class="st0" width="4.2" height="1.6"/>
	</g>
	<g>
		<path class="st1" d="M62.8,36.6c0,11.8-9.6,21.3-21.4,21.3c-11.8,0-21.4-9.6-21.4-21.3c0-11.8,9.6-21.4,21.4-21.4
			C53.3,15.2,62.8,24.8,62.8,36.6z"/>
		<path class="st2" d="M58.5,36.6c0,9.4-7.6,17.1-17.1,17.1c-9.4,0-17.1-7.6-17.1-17.1c0-9.4,7.6-17.1,17.1-17.1
			C50.9,19.5,58.5,27.1,58.5,36.6z"/>
		<g>
			<path class="st1" d="M43.3,38h-3.6c-1.5,0-2.9-0.6-4-1.6c-1-1-1.6-2.5-1.6-4c0-1.5,0.6-2.9,1.6-4c1-1,2.4-1.6,4-1.6h7.8v2.8h-7.8
				c-0.8,0-1.5,0.3-2,0.8c-0.5,0.5-0.8,1.2-0.8,2c0,0.7,0.3,1.4,0.8,1.9c0.5,0.5,1.2,0.8,2,0.8h3.6V38z"/>
			<path class="st1" d="M43.3,46.4h-7.8v-2.8h7.8c0.7,0,1.4-0.3,2-0.8c0.5-0.5,0.8-1.2,0.8-2c0-0.8-0.3-1.4-0.8-2
				c-0.5-0.5-1.2-0.8-2-0.8h-3.6v-2.8h3.6c1.5,0,2.9,0.6,4,1.6c1.1,1,1.6,2.4,1.6,4c0,1.5-0.6,2.9-1.6,4
				C46.2,45.8,44.7,46.4,43.3,46.4z"/>
			<rect x="40.1" y="25.8" class="st1" width="2.8" height="21.5"/>
		</g>
	</g>
	<g>
		<path class="st0" d="M50.9,73.7c0,3.8-3.1,6.9-6.9,6.9h-5c-3.8,0-6.9-3.1-6.9-6.9V55.9c0-3.8,3.1-6.9,6.9-6.9h5
			c3.8,0,6.9,3.1,6.9,6.9V73.7z"/>
		<path class="st3" d="M43,56.2c0,0.9-0.7,1.6-1.6,1.6c-0.9,0-1.6-0.7-1.6-1.6c0-0.9,0.7-1.6,1.6-1.6C42.3,54.6,43,55.3,43,56.2z"/>
	</g>
</g>
</svg>
