<?xml version="1.0" encoding="utf-8"?>
<!-- Generator: Adobe Illustrator 23.0.1, SVG Export Plug-In . SVG Version: 6.00 Build 0)  -->
<svg version="1.1" id="Layer_1" xmlns="http://www.w3.org/2000/svg" xmlns:xlink="http://www.w3.org/1999/xlink" x="0px" y="0px"
	 viewBox="0 0 83.7 83.8" style="enable-background:new 0 0 83.7 83.8;" xml:space="preserve">
<style type="text/css">
	.st0{fill:#E6E5E5;}
	.st1{fill:#FFFFFF;}
	.st2{fill:#3F4A5A;}
	.st3{fill:#F67656;}
</style>
<g>
	<g>
		<rect x="30.1" y="68.1" class="st0" width="24.4" height="10.8"/>
		<rect x="24.2" y="78.8" class="st1" width="36.1" height="2.9"/>
		<path class="st2" d="M0.8,58.2V4.7c0-0.8,0.3-1.5,0.9-2.1C2.2,2,3,1.7,3.7,1.7h77.1c0.7,0,1.5,0.3,2.1,0.9s0.9,1.3,0.9,2.1v53.6
			L0.8,58.2L0.8,58.2z"/>
		<rect x="6.2" y="7.1" class="st1" width="72.3" height="45.7"/>
		<path class="st1" d="M83.8,65.1c0,0.8-0.3,1.5-0.9,2.1s-1.3,0.9-2.1,0.9H3.7c-0.7,0-1.5-0.3-2.1-0.9s-0.9-1.3-0.9-2.1v-6.9h83v6.9
			H83.8z"/>
	</g>
</g>
<g>
	<path class="st1" d="M56.4,65.9c0,0.5-0.4,1-1,1H29.2c-0.5,0-1-0.4-1-1v-6.3c0-0.5,0.4-1,1-1h26.2c0.5,0,1,0.4,1,1V65.9z"/>
	<rect x="33.2" y="61.6" class="st2" width="18.2" height="2.3"/>
	<g>
		<rect x="40" y="45.4" class="st2" width="4.6" height="2.3"/>
		<polygon class="st2" points="37.9,47.8 42.3,52.2 46.8,47.8 		"/>
	</g>
	<path class="st3" d="M61.2,31.3v-3.5c0,0,0,0-0.1,0c-1.4,0-2.6-1.2-2.6-2.6c0-1.4,1.2-2.6,2.6-2.6c0,0,0,0,0.1,0v-2.9
		c-3.3,0-5.9-2.7-5.9-5.9H31.8c0,0.1,0,0.1,0,0.2c0,2.8-2.3,5.1-5.1,5.1c-0.2,0-0.4,0-0.7,0v3.6c1.3,0,2.4,1.1,2.4,2.4
		c0,1.3-1.1,2.4-2.4,2.4v3.5c0.1,0,0.3,0,0.4,0c2.8,0,5.1,2.3,5.1,5.1c0,0.3,0,0.6-0.1,0.9h23.7C55.2,33.9,57.9,31.3,61.2,31.3z"/>
	<g>
		<rect x="33.2" y="18.6" class="st1" width="19.4" height="13.6"/>
		<g>
			<rect x="36.1" y="21.5" class="st2" width="13.7" height="1.6"/>
			<rect x="36.1" y="24.7" class="st2" width="13.7" height="1.6"/>
			<rect x="36.1" y="27.9" class="st2" width="6.9" height="1.6"/>
		</g>
	</g>
	<g>
		<path class="st3" d="M37.4,61.6v6.7c1.5,0,2.7,1.2,2.7,2.7h1.6c0,0,0,0,0,0c0-0.6,0.5-1.2,1.2-1.2c0.6,0,1.2,0.5,1.2,1.2
			c0,0,0,0,0,0h1.3c0-1.5,1.2-2.7,2.7-2.7v-6.7H37.4z"/>
		<rect x="39.6" y="61.6" class="st1" width="6.2" height="5.5"/>
		<rect x="44" y="61.6" class="st2" width="0.7" height="4.3"/>
		<polygon class="st2" points="42.5,61.6 42.5,65.8 43.2,65.8 43.2,61.6 		"/>
		<rect x="40.9" y="61.6" class="st2" width="0.7" height="4.3"/>
	</g>
</g>
</svg>
