<?xml version="1.0" encoding="utf-8"?>
<!-- Generator: Adobe Illustrator 23.0.1, SVG Export Plug-In . SVG Version: 6.00 Build 0)  -->
<svg version="1.1" id="Layer_1" xmlns="http://www.w3.org/2000/svg" xmlns:xlink="http://www.w3.org/1999/xlink" x="0px" y="0px"
	 viewBox="0 0 83.7 83.8" style="enable-background:new 0 0 83.7 83.8;" xml:space="preserve">
<style type="text/css">
	.st0{fill:#FAD97F;}
	.st1{fill:#F5B947;}
	.st2{fill:#FFFFFF;}
	.st3{fill:#D9D8D7;}
</style>
<g>
	<g>
		
			<ellipse transform="matrix(1 -4.273689e-03 4.273689e-03 1 -0.1093 0.1055)" class="st0" cx="24.6" cy="25.6" rx="20.7" ry="20.7"/>
		<path class="st1" d="M39.5,25.6c0,8.2-6.7,14.9-14.9,14.9c-8.2,0-14.9-6.7-14.9-14.9c0-8.2,6.7-14.9,14.9-14.9
			C32.8,10.8,39.5,17.4,39.5,25.6z"/>
	</g>
	<g>
		<path class="st2" d="M78.1,58.4c0,11.4-9.3,20.7-20.7,20.7c-11.5,0-20.7-9.3-20.7-20.7c0-11.4,9.3-20.7,20.7-20.7
			C68.8,37.6,78.1,46.9,78.1,58.4z"/>
		<path class="st3" d="M72.2,58.4c0,8.2-6.7,14.9-14.9,14.9c-8.2,0-14.9-6.7-14.9-14.9c0-8.2,6.7-14.9,14.9-14.9
			C65.6,43.5,72.2,50.1,72.2,58.4z"/>
	</g>
	<g>
		<path class="st2" d="M78.1,29.9h-6.6v-5.2c0-3.5-1.4-6.9-3.9-9.4c-2.5-2.5-5.8-3.9-9.4-3.9h-8.5V4.9h8.5c5.3,0,10.3,2.1,14,5.8
			c3.7,3.7,5.8,8.7,5.8,14V29.9z"/>
		<path class="st2" d="M66.6,29.9c-0.2,0-0.4,0.1-0.5,0.3c-0.1,0.2,0,0.4,0.1,0.6l7.8,7.8c0.2,0.2,0.5,0.3,0.8,0.3
			c0.3,0,0.6-0.1,0.8-0.3l7.8-7.8c0.2-0.2,0.2-0.4,0.1-0.6c-0.1-0.2-0.3-0.3-0.5-0.3H66.6z"/>
	</g>
	<g>
		<path class="st2" d="M32.2,79.1h-8.5c-5.3,0-10.3-2.1-14-5.8c-3.7-3.8-5.8-8.7-5.8-14v-5.2h6.6v5.2c0,3.5,1.4,6.9,3.9,9.4
			c2.5,2.5,5.8,3.9,9.4,3.9h8.5V79.1z"/>
		<path class="st2" d="M15.4,54.1c0.2,0,0.4-0.1,0.5-0.3c0.1-0.2,0-0.4-0.1-0.6L8,45.4C7.8,45.2,7.5,45,7.2,45
			c-0.3,0-0.6,0.1-0.8,0.3l-7.8,7.8c-0.2,0.2-0.2,0.4-0.1,0.6c0.1,0.2,0.3,0.3,0.5,0.3H15.4z"/>
	</g>
</g>
</svg>
