<?xml version="1.0" encoding="utf-8"?>
<!-- Generator: Adobe Illustrator 23.0.1, SVG Export Plug-In . SVG Version: 6.00 Build 0)  -->
<svg version="1.1" id="Layer_1" xmlns="http://www.w3.org/2000/svg" xmlns:xlink="http://www.w3.org/1999/xlink" x="0px" y="0px"
	 viewBox="0 0 83.7 83.8" style="enable-background:new 0 0 83.7 83.8;" xml:space="preserve">
<style type="text/css">
	.st0{fill:#FFFFFF;}
	.st1{fill:#D65A38;}
	.st2{fill:#F67656;}
</style>
<g>
	<g>
		<path class="st0" d="M61,58.2c0,11.5-9.4,20.9-20.9,20.9c-11.5,0-20.9-9.4-20.9-20.9c0-11.5,9.4-20.9,20.9-20.9
			C51.7,37.3,61,46.6,61,58.2z"/>
		<rect x="34.9" y="23.2" class="st0" width="10.4" height="14.8"/>
		<path class="st0" d="M47.7,20.8c0-0.6-0.2-1.2-0.7-1.7c-0.5-0.5-1.1-0.7-1.7-0.7H34.9c-0.6,0-1.2,0.2-1.7,0.7
			c-0.5,0.5-0.7,1.1-0.7,1.7l0,0c0,0.6,0.2,1.2,0.7,1.7c0.5,0.5,1.1,0.7,1.7,0.7h10.4c0.6,0,1.2-0.2,1.7-0.7
			C47.5,22,47.7,21.4,47.7,20.8L47.7,20.8z"/>
		<g>
			
				<rect x="53.7" y="38.6" transform="matrix(0.7073 -0.7069 0.7069 0.7073 -12.7439 52.2802)" class="st0" width="6.1" height="5.8"/>
			<path class="st0" d="M62.9,41.5c0.2-0.2,0.4-0.6,0.4-1c0-0.4-0.2-0.7-0.4-1l-4.1-4.1c-0.2-0.2-0.6-0.4-1-0.4
				c-0.4,0-0.7,0.2-1,0.4h0c-0.2,0.2-0.4,0.6-0.4,1c0,0.4,0.2,0.7,0.4,1l4.1,4.1c0.2,0.2,0.6,0.4,1,0.4
				C62.3,41.8,62.7,41.7,62.9,41.5L62.9,41.5z"/>
		</g>
	</g>
	<g>
		<path class="st0" d="M67.7,37.9c0,0.5-0.4,0.9-0.9,0.9c-0.5,0-0.9-0.4-0.9-0.9c0-0.5,0.4-0.9,0.9-0.9
			C67.3,37.1,67.7,37.5,67.7,37.9z"/>
		<g>
			<path class="st0" d="M67.7,29c0,1.5-1.2,2.7-2.7,2.7c-1.5,0-2.7-1.2-2.7-2.7c0-1.5,1.2-2.7,2.7-2.7C66.4,26.3,67.7,27.5,67.7,29z
				"/>
		</g>
	</g>
	<g>
		<path class="st1" d="M57.6,58.4c0,1.3-0.2,2.7-0.5,3.9H35.8v-3.9c0.6-0.6,1.4-1.2,2.5-1.7c2.3-1.1,5.7-1.9,10.6-1.9
			C53.7,54.7,57.6,56.4,57.6,58.4z"/>
		<path class="st2" d="M48.9,61.8c-2.9-0.2-6.3-1.2-8.7-3.6c-4.8-4.8-12.6-4.8-17.5,0c0,9.6,7.8,17.5,17.5,17.5
			c9.6,0,17.4-7.7,17.5-17.3C57.4,60.4,54,62.2,48.9,61.8z"/>
	</g>
	<g>
		<path class="st2" d="M39.7,33.3c0,0.6-0.5,1.1-1.1,1.1c-0.6,0-1.1-0.5-1.1-1.1c0-0.6,0.5-1.1,1.1-1.1
			C39.2,32.2,39.7,32.7,39.7,33.3z"/>
		<path class="st2" d="M44.1,41.8c0,1.4-1.2,2.6-2.6,2.6c-1.4,0-2.6-1.2-2.6-2.6c0-1.4,1.2-2.6,2.6-2.6C43,39.2,44.1,40.4,44.1,41.8
			z"/>
		<path class="st2" d="M29.7,51.6c0,0.8-0.6,1.4-1.4,1.4c-0.8,0-1.4-0.6-1.4-1.4c0-0.8,0.6-1.4,1.4-1.4
			C29.1,50.2,29.7,50.8,29.7,51.6z"/>
	</g>
	<g>
		<path class="st0" d="M35.3,65.3c0,1.1-0.9,2-2,2c-1.1,0-2-0.9-2-2c0-1.1,0.9-2.1,2-2.1C34.4,63.2,35.3,64.1,35.3,65.3z"/>
		<path class="st0" d="M44.1,71c0,0.5-0.4,0.9-0.9,0.9c-0.5,0-0.9-0.4-0.9-0.9c0-0.5,0.4-0.9,0.9-0.9C43.7,70.2,44.1,70.6,44.1,71z"
			/>
		<path class="st0" d="M49.9,67.7c0,0.8-0.6,1.4-1.4,1.4c-0.8,0-1.4-0.6-1.4-1.4c0-0.8,0.6-1.4,1.4-1.4C49.3,66.4,49.9,67,49.9,67.7
			z"/>
	</g>
	<g>
		<path class="st0" d="M35.6,5.4C35.6,6.8,34.4,8,33,8c-1.4,0-2.6-1.1-2.6-2.6c0-1.4,1.1-2.6,2.6-2.6C34.4,2.8,35.6,4,35.6,5.4z"/>
		<path class="st0" d="M41.5,14c0,0.8-0.7,1.5-1.5,1.5c-0.8,0-1.5-0.7-1.5-1.5c0-0.8,0.7-1.5,1.5-1.5C40.9,12.5,41.5,13.2,41.5,14z"
			/>
		<path class="st0" d="M48.6,9.1c0,0.6-0.5,1.1-1.1,1.1c-0.6,0-1.1-0.5-1.1-1.1c0-0.6,0.5-1.1,1.1-1.1C48.1,8,48.6,8.5,48.6,9.1z"/>
	</g>
</g>
</svg>
