<?xml version="1.0" encoding="utf-8"?>
<!-- Generator: Adobe Illustrator 23.0.1, SVG Export Plug-In . SVG Version: 6.00 Build 0)  -->
<svg version="1.1" id="Layer_1" xmlns="http://www.w3.org/2000/svg" xmlns:xlink="http://www.w3.org/1999/xlink" x="0px" y="0px"
	 viewBox="0 0 83.7 83.8" style="enable-background:new 0 0 83.7 83.8;" xml:space="preserve">
<style type="text/css">
	.st0{fill:#81CF9B;}
	.st1{fill:#90DEA9;}
	.st2{fill:#3F4A5A;}
	.st3{fill:#FFFFFF;}
	.st4{font-family:'ProximaNova-Extrabld';}
	.st5{font-size:34.517px;}
</style>
<g>
	<path class="st0" d="M67.4,29.1c0-1.4-1.2-2.6-2.6-2.6H19.5c-1.4,0-2.6,1.2-2.6,2.6v30.2c0,1.4,1.2,2.6,2.6,2.6h45.4
		c1.4,0,2.6-1.2,2.6-2.6V29.1z"/>
	<rect x="24.5" y="26.5" class="st1" width="35.4" height="35.4"/>
	<g>
		<circle class="st2" cx="42.1" cy="41.3" r="4.7"/>
		<rect x="40.2" y="45.1" class="st2" width="4" height="6.8"/>
	</g>
	<path class="st3" d="M59.8,26.5h-6.6V20c0-3-1.2-5.8-3.3-7.9c-2.1-2.1-4.9-3.3-7.9-3.3c-3,0-5.8,1.2-7.9,3.3C32.2,14.2,31,17,31,20
		v6.6h-6.6V20c0-4.7,1.8-9.2,5.2-12.5c3.3-3.3,7.8-5.2,12.5-5.2c4.7,0,9.2,1.8,12.5,5.2c3.3,3.3,5.2,7.8,5.2,12.5V26.5z"/>
	<text transform="matrix(1 0 0 1 24.1001 92.0258)" class="st2 st4 st5">***</text>
</g>
</svg>
