<?xml version="1.0" encoding="utf-8"?>
<!-- Generator: Adobe Illustrator 23.0.1, SVG Export Plug-In . SVG Version: 6.00 Build 0)  -->
<svg version="1.1" id="Layer_1" xmlns="http://www.w3.org/2000/svg" xmlns:xlink="http://www.w3.org/1999/xlink" x="0px" y="0px"
	 viewBox="0 0 83.7 83.8" style="enable-background:new 0 0 83.7 83.8;" xml:space="preserve">
<style type="text/css">
	.st0{fill:#3F4A5A;}
	.st1{fill:#F67656;}
</style>
<g>
	<g>
		<g>
			<rect x="11.6" y="34.2" class="st0" width="2.9" height="2.9"/>
			<rect x="11.6" y="40" class="st0" width="2.9" height="5.8"/>
			<rect x="14.5" y="37.1" class="st0" width="2.9" height="2.9"/>
			<rect x="14.5" y="42.9" class="st0" width="2.9" height="2.9"/>
			<rect x="17.4" y="37.1" class="st0" width="2.9" height="2.9"/>
			<rect x="17.4" y="45.8" class="st0" width="2.9" height="2.9"/>
			<rect x="20.3" y="34.2" class="st0" width="2.9" height="5.8"/>
			<rect x="20.3" y="42.9" class="st0" width="2.9" height="2.9"/>
			<rect x="23.2" y="34.2" class="st0" width="2.9" height="8.8"/>
			<rect x="26.2" y="34.2" class="st0" width="2.9" height="8.8"/>
			<rect x="26.2" y="45.8" class="st0" width="2.9" height="2.9"/>
			<rect x="29.1" y="34.2" class="st0" width="2.9" height="2.9"/>
			<rect x="29.1" y="40" class="st0" width="2.9" height="2.9"/>
			<rect x="29.1" y="45.8" class="st0" width="2.9" height="2.9"/>
			<rect x="32" y="34.2" class="st0" width="2.9" height="11.7"/>
			<rect x="34.9" y="10.8" class="st0" width="2.9" height="8.8"/>
			<rect x="34.9" y="22.5" class="st0" width="2.9" height="2.9"/>
			<rect x="34.9" y="28.3" class="st0" width="2.9" height="2.9"/>
			<rect x="34.9" y="34.2" class="st0" width="2.9" height="2.9"/>
			<rect x="34.9" y="42.9" class="st0" width="2.9" height="2.9"/>
			<rect x="34.9" y="48.8" class="st0" width="2.9" height="14.6"/>
			<rect x="34.9" y="69.2" class="st0" width="2.9" height="2.9"/>
			<rect x="37.9" y="13.7" class="st0" width="2.9" height="5.8"/>
			<rect x="37.9" y="22.5" class="st0" width="2.9" height="2.9"/>
			<rect x="37.9" y="31.2" class="st0" width="2.9" height="2.9"/>
			<rect x="37.9" y="37.1" class="st0" width="2.9" height="5.8"/>
			<rect x="37.9" y="48.8" class="st0" width="2.9" height="5.8"/>
			<rect x="40.8" y="10.8" class="st0" width="2.9" height="2.9"/>
			<rect x="40.8" y="22.5" class="st0" width="2.9" height="2.9"/>
			<rect x="40.8" y="28.3" class="st0" width="2.9" height="8.8"/>
			<rect x="40.8" y="51.7" class="st0" width="2.9" height="2.9"/>
			<rect x="40.8" y="57.5" class="st0" width="2.9" height="5.8"/>
			<rect x="40.8" y="66.3" class="st0" width="2.9" height="5.8"/>
			<rect x="43.7" y="13.7" class="st0" width="2.9" height="8.8"/>
			<rect x="43.7" y="25.4" class="st0" width="2.9" height="2.9"/>
			<rect x="43.7" y="31.2" class="st0" width="2.9" height="2.9"/>
			<rect x="43.7" y="42.9" class="st0" width="2.9" height="2.9"/>
			<rect x="43.7" y="48.8" class="st0" width="2.9" height="2.9"/>
			<rect x="43.7" y="54.6" class="st0" width="2.9" height="8.8"/>
			<rect x="43.7" y="69.2" class="st0" width="2.9" height="2.9"/>
			<rect x="46.6" y="10.8" class="st0" width="2.9" height="5.8"/>
			<rect x="46.6" y="22.5" class="st0" width="2.9" height="17.5"/>
			<rect x="46.6" y="48.8" class="st0" width="2.9" height="14.6"/>
			<rect x="49.5" y="34.2" class="st0" width="2.9" height="2.9"/>
			<rect x="49.5" y="40" class="st0" width="2.9" height="2.9"/>
			<rect x="49.5" y="51.7" class="st0" width="2.9" height="5.8"/>
			<rect x="49.5" y="66.3" class="st0" width="2.9" height="2.9"/>
			<rect x="52.5" y="37.1" class="st0" width="2.9" height="5.8"/>
			<rect x="52.5" y="45.8" class="st0" width="2.9" height="2.9"/>
			<rect x="52.5" y="51.7" class="st0" width="2.9" height="2.9"/>
			<rect x="52.5" y="57.5" class="st0" width="2.9" height="2.9"/>
			<rect x="52.5" y="63.4" class="st0" width="2.9" height="5.8"/>
			<rect x="55.4" y="48.8" class="st0" width="2.9" height="11.7"/>
			<rect x="58.3" y="34.2" class="st0" width="2.9" height="8.8"/>
			<rect x="58.3" y="51.7" class="st0" width="2.9" height="5.8"/>
			<rect x="58.3" y="60.5" class="st0" width="2.9" height="2.9"/>
			<rect x="58.3" y="66.3" class="st0" width="2.9" height="2.9"/>
			<rect x="61.2" y="40" class="st0" width="2.9" height="2.9"/>
			<rect x="61.2" y="45.8" class="st0" width="2.9" height="14.6"/>
			<rect x="64.2" y="34.2" class="st0" width="2.9" height="5.8"/>
			<rect x="64.2" y="42.9" class="st0" width="2.9" height="2.9"/>
			<rect x="64.2" y="48.8" class="st0" width="2.9" height="8.8"/>
			<rect x="64.2" y="60.5" class="st0" width="2.9" height="11.7"/>
			<rect x="67.1" y="34.2" class="st0" width="2.9" height="8.8"/>
			<rect x="67.1" y="48.8" class="st0" width="2.9" height="2.9"/>
			<rect x="67.1" y="57.5" class="st0" width="2.9" height="2.9"/>
			<rect x="67.1" y="63.4" class="st0" width="2.9" height="5.8"/>
			<g>
				<rect x="58.3" y="16.6" class="st1" width="8.8" height="8.8"/>
				<path class="st1" d="M52.5,10.8v20.5H73V10.8H52.5z M70,28.3H55.4V13.7H70V28.3z"/>
			</g>
			<rect x="70" y="34.2" class="st0" width="2.9" height="2.9"/>
			<rect x="70" y="40" class="st0" width="2.9" height="8.8"/>
			<rect x="70" y="54.6" class="st0" width="2.9" height="5.8"/>
			<rect x="70" y="63.4" class="st0" width="2.9" height="5.8"/>
			<g>
				<rect x="17.4" y="16.6" class="st1" width="8.8" height="8.8"/>
				<path class="st1" d="M11.6,10.8v20.5H32V10.8H11.6z M29.1,28.3H14.5V13.7h14.6V28.3z"/>
			</g>
			<g>
				<rect x="17.4" y="57.5" class="st1" width="8.8" height="8.8"/>
				<path class="st1" d="M11.6,51.7v20.5H32V51.7H11.6z M29.1,69.2H14.5V54.6h14.6V69.2z"/>
			</g>
		</g>
		<g>
			<g>
				<polygon class="st0" points="70,7.8 75.8,7.8 75.8,13.7 78.8,13.7 78.8,4.9 70,4.9 				"/>
			</g>
			<g>
				<polygon class="st0" points="8.6,13.7 8.6,7.8 14.5,7.8 14.5,4.9 5.7,4.9 5.7,13.7 				"/>
			</g>
			<g>
				<polygon class="st0" points="70,75.1 75.8,75.1 75.8,69.2 78.8,69.2 78.8,78 70,78 				"/>
			</g>
			<g>
				<polygon class="st0" points="8.6,69.2 8.6,75.1 14.5,75.1 14.5,78 5.7,78 5.7,69.2 				"/>
			</g>
		</g>
	</g>
</g>
</svg>
