<?xml version="1.0" encoding="utf-8"?>
<!-- Generator: Adobe Illustrator 23.0.1, SVG Export Plug-In . SVG Version: 6.00 Build 0)  -->
<svg version="1.1" id="Layer_1" xmlns="http://www.w3.org/2000/svg" xmlns:xlink="http://www.w3.org/1999/xlink" x="0px" y="0px"
	 viewBox="0 0 83.7 83.8" style="enable-background:new 0 0 83.7 83.8;" xml:space="preserve">
<style type="text/css">
	.st0{fill:#FFFFFF;}
	.st1{fill:#F5B947;}
	.st2{fill:#333C49;}
</style>
<g>
	<g>
		<g>
			<rect x="38" y="40.4" class="st0" width="1.9" height="1"/>
			<path class="st0" d="M39.9,38.6H38v-1.8h1.9V38.6z M39.9,34.9H38v-1.8h1.9V34.9z M39.9,31.2H38v-1.8h1.9V31.2z M39.9,27.6H38
				v-1.8h1.9V27.6z M39.9,23.9H38V22h1.9V23.9z M39.9,20.2H38v-1.8h1.9V20.2z M39.9,16.5H38v-1.8h1.9V16.5z"/>
		</g>
		<g>
			<rect x="38" y="41.4" class="st0" width="1.9" height="1"/>
			<path class="st0" d="M39.9,68.1H38v-1.8h1.9V68.1z M39.9,64.5H38v-1.8h1.9V64.5z M39.9,60.8H38v-1.8h1.9V60.8z M39.9,57.1H38
				v-1.8h1.9V57.1z M39.9,53.4H38v-1.8h1.9V53.4z M39.9,49.7H38v-1.8h1.9V49.7z M39.9,46.1H38v-1.8h1.9V46.1z"/>
		</g>
		<g>
			<path class="st0" d="M16.3,55.6l-1-1.7l1.6-0.9l1,1.7L16.3,55.6z M19.5,53.8l-1-1.7l1.6-0.9l1,1.7L19.5,53.8z M22.7,51.9l-1-1.7
				l1.6-0.9l1,1.7L22.7,51.9z M25.9,50.1l-1-1.7l1.6-0.9l1,1.7L25.9,50.1z M29.1,48.3l-1-1.7l1.6-0.9l1,1.7L29.1,48.3z M32.2,46.4
				l-1-1.7l1.6-0.9l1,1.7L32.2,46.4z M35.4,44.6l-1-1.7l1.6-0.9l1,1.7L35.4,44.6z"/>
			<polygon class="st0" points="38.6,42.7 38.3,42.1 37.7,41.8 37.9,41.4 37.7,41.1 38.3,40.7 38.6,40.1 40.9,41.4 			"/>
			<path class="st0" d="M36.1,40.8l-1.6-0.9l1-1.7l1.6,0.9L36.1,40.8z M32.9,39l-1.6-0.9l1-1.7l1.6,0.9L32.9,39z M29.7,37.2
				l-1.6-0.9l1-1.7l1.6,0.9L29.7,37.2z M26.5,35.3l-1.6-0.9l1-1.7l1.6,0.9L26.5,35.3z M23.3,33.5l-1.6-0.9l1-1.7l1.6,0.9L23.3,33.5z
				 M20.1,31.6l-1.6-0.9l1-1.7l1.6,0.9L20.1,31.6z M16.9,29.8l-1.6-0.9l1-1.7l1.6,0.9L16.9,29.8z"/>
		</g>
		<g>
			<path class="st0" d="M41.9,40.8l-1-1.7l1.6-0.9l1,1.7L41.9,40.8z M45.1,39l-1-1.7l1.6-0.9l1,1.7L45.1,39z M48.3,37.2l-1-1.7
				l1.6-0.9l1,1.7L48.3,37.2z M51.5,35.3l-1-1.7l1.6-0.9l1,1.7L51.5,35.3z M54.6,33.5l-1-1.7l1.6-0.9l1,1.7L54.6,33.5z M57.8,31.6
				l-1-1.7l1.6-0.9l1,1.7L57.8,31.6z M61,29.8l-1-1.7l1.6-0.9l1,1.7L61,29.8z"/>
			<polygon class="st0" points="39.3,42.7 37,41.4 39.3,40.1 39.7,40.7 40.3,41.1 40.1,41.4 40.3,41.8 39.7,42.1 			"/>
			<path class="st0" d="M61.7,55.6l-1.6-0.9l1-1.7l1.6,0.9L61.7,55.6z M58.5,53.8l-1.6-0.9l1-1.7l1.6,0.9L58.5,53.8z M55.3,51.9
				L53.7,51l1-1.7l1.6,0.9L55.3,51.9z M52.1,50.1l-1.6-0.9l1-1.7l1.6,0.9L52.1,50.1z M48.9,48.3l-1.6-0.9l1-1.7l1.6,0.9L48.9,48.3z
				 M45.7,46.4l-1.6-0.9l1-1.7l1.6,0.9L45.7,46.4z M42.5,44.6l-1.6-0.9l1-1.7l1.6,0.9L42.5,44.6z"/>
		</g>
		<g>
			<path class="st0" d="M32.9,72.2l-1.6-0.9l1-1.7l1.6,0.9L32.9,72.2z M29.7,70.4l-1.6-0.9l1-1.7l1.6,0.9L29.7,70.4z M26.5,68.6
				l-1.6-0.9l1-1.7l1.6,0.9L26.5,68.6z M23.3,66.7l-1.6-0.9l1-1.7l1.6,0.9L23.3,66.7z M20.1,64.9l-1.6-0.9l1-1.7l1.6,0.9L20.1,64.9z
				 M16.9,63l-1.6-0.9l1-1.7l1.6,0.9L16.9,63z"/>
			<path class="st0" d="M11.2,51.5H9.2v-1.8h1.9V51.5z M11.2,47.9H9.2V46h1.9V47.9z M11.2,44.2H9.2v-1.8h1.9V44.2z M11.2,40.5H9.2
				v-1.8h1.9V40.5z M11.2,36.8H9.2V35h1.9V36.8z M11.2,33.1H9.2v-1.8h1.9V33.1z"/>
			<path class="st0" d="M16.3,22.4l-1-1.7l1.6-0.9l1,1.7L16.3,22.4z M19.5,20.5l-1-1.7l1.6-0.9l1,1.7L19.5,20.5z M22.7,18.7l-1-1.7
				l1.6-0.9l1,1.7L22.7,18.7z M25.9,16.9l-1-1.7l1.6-0.9l1,1.7L25.9,16.9z M29.1,15l-1-1.7l1.6-0.9l1,1.7L29.1,15z M32.2,13.2
				l-1-1.7l1.6-0.9l1,1.7L32.2,13.2z"/>
			<path class="st0" d="M61.7,22.4l-1.6-0.9l1-1.7l1.6,0.9L61.7,22.4z M58.5,20.5l-1.6-0.9l1-1.7l1.6,0.9L58.5,20.5z M55.3,18.7
				l-1.6-0.9l1-1.7l1.6,0.9L55.3,18.7z M52.1,16.9l-1.6-0.9l1-1.7l1.6,0.9L52.1,16.9z M48.9,15l-1.6-0.9l1-1.7l1.6,0.9L48.9,15z
				 M45.7,13.2l-1.6-0.9l1-1.7l1.6,0.9L45.7,13.2z"/>
			<path class="st0" d="M68.7,51.5h-1.9v-1.8h1.9V51.5z M68.7,47.9h-1.9V46h1.9V47.9z M68.7,44.2h-1.9v-1.8h1.9V44.2z M68.7,40.5
				h-1.9v-1.8h1.9V40.5z M68.7,36.8h-1.9V35h1.9V36.8z M68.7,33.1h-1.9v-1.8h1.9V33.1z"/>
			<path class="st0" d="M45.1,72.2l-1-1.7l1.6-0.9l1,1.7L45.1,72.2z M48.3,70.4l-1-1.7l1.6-0.9l1,1.7L48.3,70.4z M51.5,68.6l-1-1.7
				l1.6-0.9l1,1.7L51.5,68.6z M54.6,66.7l-1-1.7l1.6-0.9l1,1.7L54.6,66.7z M57.8,64.9l-1-1.7l1.6-0.9l1,1.7L57.8,64.9z M61,63
				l-1-1.7l1.6-0.9l1,1.7L61,63z"/>
		</g>
	</g>
	<path class="st1" d="M55.2,41.4c0,9-7.3,16.3-16.3,16.3c-9,0-16.3-7.3-16.3-16.3c0-9,7.3-16.3,16.3-16.3
		C48,25.2,55.2,32.4,55.2,41.4z"/>
	<g>
		<path class="st2" d="M14.2,22.5c1.3,2.2,0.5,5.1-1.7,6.3c-2.2,1.3-5.1,0.5-6.3-1.7c-1.3-2.2-0.5-5.1,1.7-6.3
			C10.1,19.5,12.9,20.2,14.2,22.5z"/>
		<path class="st0" d="M43,5.9c1.3,2.2,0.5,5.1-1.7,6.3c-2.2,1.3-5.1,0.5-6.3-1.7c-1.3-2.2-0.5-5.1,1.7-6.3
			C38.9,2.9,41.7,3.6,43,5.9z"/>
		<path class="st2" d="M71.8,22.5c1.3,2.2,0.5,5.1-1.7,6.3c-2.2,1.3-5.1,0.5-6.3-1.7c-1.3-2.2-0.5-5.1,1.7-6.3
			C67.7,19.5,70.5,20.3,71.8,22.5z"/>
		<path class="st0" d="M71.8,55.7c1.3,2.2,0.5,5.1-1.7,6.3c-2.2,1.3-5.1,0.5-6.3-1.7c-1.3-2.2-0.5-5.1,1.7-6.3
			C67.7,52.7,70.5,53.5,71.8,55.7z"/>
		<path class="st2" d="M43,72.3c1.3,2.2,0.5,5.1-1.7,6.3c-2.2,1.3-5.1,0.5-6.3-1.7c-1.3-2.2-0.5-5.1,1.7-6.3
			C38.9,69.3,41.7,70.1,43,72.3z"/>
		<path class="st0" d="M14.2,55.7c1.3,2.2,0.5,5.1-1.7,6.3c-2.2,1.3-5.1,0.5-6.3-1.7c-1.3-2.2-0.5-5.1,1.7-6.3
			C10.1,52.7,12.9,53.5,14.2,55.7z"/>
	</g>
</g>
</svg>
