<?xml version="1.0" encoding="utf-8"?>
<!-- Generator: Adobe Illustrator 23.0.1, SVG Export Plug-In . SVG Version: 6.00 Build 0)  -->
<svg version="1.1" id="Layer_1" xmlns="http://www.w3.org/2000/svg" xmlns:xlink="http://www.w3.org/1999/xlink" x="0px" y="0px"
	 viewBox="0 0 83.7 83.8" style="enable-background:new 0 0 83.7 83.8;" xml:space="preserve">
<style type="text/css">
	.st0{fill:#FFFFFF;}
	.st1{fill:#FAD97F;}
	.st2{fill:#F5B947;}
	.st3{fill:#3F4A5A;}
</style>
<g>
	<g>
		<rect x="41" y="1.4" class="st0" width="1.6" height="4.4"/>
		<rect x="34.2" y="2.2" transform="matrix(0.9783 -0.2071 0.2071 0.9783 -0.1439 7.3471)" class="st0" width="1.6" height="4.4"/>
		<rect x="27.7" y="4.3" transform="matrix(0.9124 -0.4093 0.4093 0.9124 -0.1557 12.2326)" class="st0" width="1.6" height="4.4"/>
		<polygon class="st0" points="20.6,8.6 21.9,7.6 24.5,11.2 23.2,12.2 		"/>
		<polygon class="st0" points="15.3,13.6 16.4,12.4 19.6,15.4 18.6,16.6 		"/>
		
			<rect x="12.6" y="17.8" transform="matrix(0.5002 -0.8659 0.8659 0.5002 -10.6477 21.6507)" class="st0" width="1.6" height="4.4"/>
		
			<rect x="9.8" y="24.1" transform="matrix(0.3048 -0.9524 0.9524 0.3048 -17.6668 28.4213)" class="st0" width="1.6" height="4.4"/>
		<polygon class="st0" points="6.9,33.6 7.1,32 11.5,32.4 11.3,34.1 		"/>
		<polygon class="st0" points="6.9,39.3 11.3,38.8 11.5,40.5 7.1,40.9 		"/>
		<polygon class="st0" points="8.3,46.5 12.5,45.1 13,46.7 8.8,48 		"/>
		<rect x="11.2" y="52" transform="matrix(0.8661 -0.4998 0.4998 0.8661 -24.6215 13.7886)" class="st0" width="4.4" height="1.6"/>
		<polygon class="st0" points="15.3,59.3 18.6,56.3 19.6,57.5 16.4,60.5 		"/>
		<polygon class="st0" points="20.6,64.3 23.2,60.7 24.5,61.7 21.9,65.3 		"/>
		<polygon class="st0" points="59.2,61.7 60.5,60.7 63.1,64.3 61.8,65.3 		"/>
		<polygon class="st0" points="64,57.5 65.1,56.3 68.4,59.3 67.3,60.5 		"/>
		<polygon class="st0" points="67.9,52.5 68.7,51 72.6,53.2 71.8,54.7 		"/>
		<polygon class="st0" points="70.7,46.7 71.2,45.1 75.4,46.5 74.9,48 		"/>
		<polygon class="st0" points="72.2,40.5 72.3,38.8 76.7,39.3 76.6,40.9 		"/>
		<polygon class="st0" points="72.2,32.4 76.6,32 76.7,33.6 72.3,34.1 		"/>
		
			<rect x="70.8" y="25.5" transform="matrix(0.9512 -0.3086 0.3086 0.9512 -4.5532 23.8237)" class="st0" width="4.4" height="1.6"/>
		<polygon class="st0" points="67.9,20.4 71.8,18.2 72.6,19.6 68.7,21.9 		"/>
		<polygon class="st0" points="64,15.4 67.3,12.4 68.4,13.6 65.1,16.6 		"/>
		<polygon class="st0" points="59.2,11.2 61.8,7.6 63.1,8.6 60.5,12.2 		"/>
		<polygon class="st0" points="53.5,8.2 55.3,4.1 56.8,4.8 55,8.8 		"/>
		<polygon class="st0" points="47.4,6.3 48.3,2 49.9,2.4 49,6.7 		"/>
	</g>
	<g>
		<path class="st1" d="M64.1,36.5c0,12.3-10,22.2-22.2,22.2s-22.2-10-22.2-22.2c0-12.3,9.9-22.2,22.2-22.2
			C54.1,14.2,64.1,24.2,64.1,36.5z"/>
		<path class="st2" d="M59.6,36.5c0,9.8-8,17.8-17.8,17.8s-17.8-8-17.8-17.8c0-9.8,8-17.8,17.8-17.8C51.7,18.7,59.6,26.6,59.6,36.5z
			"/>
		<g>
			<path class="st1" d="M43.7,37.9H40c-1.6,0-3-0.6-4.1-1.7c-1.1-1.1-1.7-2.5-1.7-4.1c0-1.6,0.6-3,1.7-4.1c1.1-1.1,2.5-1.7,4.1-1.7
				h8.1v2.9H40c-0.8,0-1.5,0.3-2,0.8c-0.5,0.5-0.8,1.3-0.8,2.1c0,0.8,0.3,1.5,0.8,2c0.6,0.6,1.3,0.9,2,0.9h3.7V37.9z"/>
			<path class="st1" d="M43.7,46.6h-8.1v-2.9h8.1c0.8,0,1.5-0.3,2-0.8c0.5-0.5,0.8-1.3,0.8-2c0-0.8-0.3-1.5-0.8-2
				c-0.5-0.6-1.3-0.9-2-0.9H40V35h3.7c1.5,0,3,0.6,4.1,1.7c1.1,1.1,1.7,2.5,1.7,4.1c0,1.6-0.6,3-1.7,4.1
				C46.7,46,45.2,46.6,43.7,46.6z"/>
			<rect x="40.4" y="25.3" class="st1" width="2.9" height="22.4"/>
		</g>
	</g>
	<g>
		<path class="st0" d="M51.6,75.1c0,3.9-3.2,7.2-7.2,7.2h-5.2c-4,0-7.2-3.2-7.2-7.2V56.5c0-3.9,3.2-7.2,7.2-7.2h5.2
			c3.9,0,7.2,3.2,7.2,7.2V75.1z"/>
		<path class="st3" d="M43.5,56.8c0,0.9-0.7,1.6-1.6,1.6s-1.6-0.7-1.6-1.6c0-0.9,0.7-1.6,1.6-1.6C42.7,55.2,43.5,55.9,43.5,56.8z"/>
	</g>
</g>
</svg>
