<?xml version="1.0" encoding="utf-8"?>
<!-- Generator: Adobe Illustrator 23.0.1, SVG Export Plug-In . SVG Version: 6.00 Build 0)  -->
<svg version="1.1" id="Layer_1" xmlns="http://www.w3.org/2000/svg" xmlns:xlink="http://www.w3.org/1999/xlink" x="0px" y="0px"
	 viewBox="0 0 83.7 83.8" style="enable-background:new 0 0 83.7 83.8;" xml:space="preserve">
<style type="text/css">
	.st0{fill:#FFFFFF;}
	.st1{fill:#3F4A5A;}
	.st2{fill:#D9D8D7;}
	.st3{fill:#FAD97F;}
</style>
<g>
	<g>
		<path class="st0" d="M79.7,44.7c0,16.1-15.6,29.1-34.9,29.1c-19.3,0-34.9-13-34.9-29.1c0-16.1,15.6-29.1,34.9-29.1
			C64.1,15.6,79.7,28.6,79.7,44.7z"/>
		<path class="st0" d="M12,53.4H5.6c-0.7,0-1.5-0.3-2-0.8c-0.6-0.6-0.8-1.3-0.8-2V38.8c0-0.7,0.3-1.5,0.8-2c0.6-0.6,1.3-0.8,2-0.8
			H12V53.4z"/>
		<path class="st1" d="M28.2,37.3c-0.8,0-1.5-0.7-1.5-1.5c0-1-0.8-1.7-1.7-1.7c-1,0-1.7,0.8-1.7,1.7c0,0.8-0.7,1.5-1.5,1.5
			s-1.5-0.7-1.5-1.5c0-2.6,2.1-4.7,4.7-4.7c2.6,0,4.7,2.1,4.7,4.7C29.7,36.6,29,37.3,28.2,37.3z"/>
		<path class="st0" d="M25,23.5h11.5v-2.3c0-2.9-1.1-5.9-3.4-8.1c-2.2-2.2-5.2-3.4-8.1-3.4l0,0V23.5z"/>
		<path class="st0" d="M84.4,44.7c0-0.8-0.3-1.6-0.9-2.2c-0.6-0.6-1.4-0.9-2.2-0.9h-2.2v6.1h2.2c0.8,0,1.6-0.3,2.2-0.9
			C84.1,46.2,84.4,45.5,84.4,44.7L84.4,44.7z"/>
		<path class="st0" d="M36.5,68.1H25v6.6c0,0.7,0.3,1.5,0.8,2c0.6,0.6,1.3,0.8,2,0.8h5.7c0.7,0,1.5-0.3,2-0.8c0.6-0.6,0.8-1.3,0.8-2
			V68.1z"/>
		<path class="st0" d="M64.6,68.1H53.1v6.6c0,0.7,0.3,1.5,0.8,2c0.6,0.6,1.3,0.8,2,0.8h5.7c0.7,0,1.5-0.3,2-0.8
			c0.6-0.6,0.8-1.3,0.8-2V68.1z"/>
		<path class="st2" d="M34.6,23.7c-0.6,0-1.2-0.4-1.4-1c-0.2-0.8,0.2-1.6,1-1.8c6.8-2,14.4-2,21.2,0c0.8,0.2,1.2,1,1,1.8
			c-0.2,0.8-1,1.2-1.8,1c-6.3-1.8-13.3-1.8-19.5,0C34.9,23.7,34.8,23.7,34.6,23.7z"/>
	</g>
	<polygon class="st1" points="48.3,9.4 48.3,4.8 41.4,4.8 41.4,9.4 36.7,9.4 44.8,17.5 53,9.4 	"/>
	<g>
		<path class="st3" d="M54.7,44.7c0,5.5-4.4,9.9-9.9,9.9c-5.5,0-9.9-4.4-9.9-9.9c0-5.5,4.4-9.9,9.9-9.9
			C50.3,34.8,54.7,39.2,54.7,44.7z"/>
		<g>
			<path class="st0" d="M45.8,45.6h-2.1c-0.9,0-1.7-0.3-2.4-1c-0.6-0.6-1-1.5-1-2.4c0-0.9,0.3-1.7,1-2.4c0.6-0.6,1.5-1,2.4-1h4.5
				v1.8h-4.5c-0.4,0-0.8,0.2-1.1,0.4c-0.3,0.3-0.4,0.7-0.4,1.1c0,0.4,0.2,0.8,0.4,1.1c0.3,0.3,0.7,0.4,1.1,0.4h2.1V45.6z"/>
			<path class="st0" d="M45.8,50.5h-4.5v-1.8h4.5c0.4,0,0.8-0.2,1.1-0.4c0.3-0.3,0.4-0.7,0.4-1.1c0-0.4-0.2-0.8-0.4-1.1
				c-0.3-0.3-0.7-0.4-1.1-0.4h-2.1v-1.8h2.1c0.9,0,1.7,0.3,2.4,1c0.6,0.6,1,1.5,1,2.4c0,0.9-0.3,1.7-1,2.4
				C47.6,50.1,46.7,50.5,45.8,50.5z"/>
			<rect x="43.9" y="38.4" class="st0" width="1.8" height="12.5"/>
		</g>
	</g>
</g>
</svg>
