<?xml version="1.0" encoding="utf-8"?>
<!-- Generator: Adobe Illustrator 23.0.1, SVG Export Plug-In . SVG Version: 6.00 Build 0)  -->
<svg version="1.1" id="Layer_1" xmlns="http://www.w3.org/2000/svg" xmlns:xlink="http://www.w3.org/1999/xlink" x="0px" y="0px"
	 viewBox="0 0 83.7 83.8" style="enable-background:new 0 0 83.7 83.8;" xml:space="preserve">
<style type="text/css">
	.st0{fill:#FFFFFF;}
	.st1{fill:#3F4A5A;}
	.st2{fill:#FAD97F;}
	.st3{fill:#333C49;}
</style>
<g>
	<g>
		<path class="st0" d="M9.6,19.4l-1.4-1c0.4-0.6,0.9-1.1,1.6-1.4l0.8,1.6C10.2,18.8,9.8,19.1,9.6,19.4z"/>
		<path class="st0" d="M75.6,63.7c-0.3-0.9-0.8-2-1.5-3.1l1.5-0.9c0.7,1.2,1.2,2.3,1.6,3.4L75.6,63.7z M72.3,57.7
			c-0.6-0.9-1.3-1.8-2.1-2.8l1.3-1.2c0.8,1,1.5,1.9,2.2,2.9L72.3,57.7z M67.9,52.3c-0.7-0.8-1.5-1.7-2.4-2.6l1.2-1.3
			c0.8,0.9,1.7,1.8,2.4,2.6L67.9,52.3z M63.1,47.3c-0.8-0.8-1.7-1.6-2.5-2.4l1.1-1.4c0.9,0.8,1.7,1.6,2.6,2.4L63.1,47.3z M58,42.5
			c-0.9-0.8-1.7-1.5-2.6-2.3l1.1-1.4c0.9,0.8,1.8,1.5,2.7,2.3L58,42.5z M52.7,38.1c-0.9-0.7-1.8-1.4-2.7-2.1l1-1.5
			c0.9,0.7,1.9,1.4,2.8,2.1L52.7,38.1z M47.1,33.9c-0.9-0.7-1.9-1.3-2.8-2l0.9-1.5c1,0.7,1.9,1.3,2.9,2L47.1,33.9z M41.4,30
			c-1-0.6-2-1.3-2.9-1.8l0.9-1.6c1,0.6,2,1.2,3,1.9L41.4,30z M35.5,26.4c-1-0.6-2-1.1-3-1.7l0.8-1.6c1,0.5,2,1.1,3,1.7L35.5,26.4z
			 M29.5,23.1c-1.1-0.5-2.1-1-3.1-1.5L27,20c1,0.5,2.1,1,3.2,1.5L29.5,23.1z M23.2,20.4c-1.1-0.4-2.2-0.8-3.2-1.1l0.5-1.7
			c1,0.3,2.2,0.7,3.3,1.2L23.2,20.4z M16.8,18.4c-1.2-0.2-2.3-0.4-3.2-0.4l0-1.8c1.1,0,2.2,0.1,3.6,0.4L16.8,18.4z"/>
		<path class="st0" d="M77.1,69.2l-1.4-1c0.2-0.4,0.4-0.8,0.4-1.3l1.7,0.2C77.8,67.8,77.5,68.6,77.1,69.2z"/>
	</g>
	<path class="st0" d="M8.2,69.2c-4.5-6.7,10.9-23.4,27.6-35.7c16.7-12.3,36.9-21.8,41.3-15.1l-1.4,1c-2.8-4.2-19.4,1.2-38.9,15.5
		c-19.5,14.3-30,29-27.2,33.2L8.2,69.2z"/>
	<g>
		<path class="st1" d="M57.4,2.6H27.9c-2.8,0-5.1,2.4-5.1,5.4v66.1c0,3,2.3,5.4,5.1,5.4h29.5c2.8,0,5.1-2.4,5.1-5.4V8
			C62.5,5.1,60.2,2.6,57.4,2.6z"/>
		<rect x="25.7" y="14.3" class="st2" width="34" height="53.6"/>
		<path class="st3" d="M39.5,74.9c-0.6,0-1-0.5-1-1.1v-0.3c0-0.6,0.5-1.1,1-1.1h6.2c0.6,0,1,0.5,1,1.1v0.3c0,0.6-0.5,1.1-1,1.1H39.5
			z"/>
		<g>
			<path class="st3" d="M44.1,8.5c0,0.8-0.6,1.5-1.4,1.5c-0.8,0-1.4-0.7-1.4-1.5c0-0.8,0.6-1.5,1.4-1.5C43.4,7,44.1,7.7,44.1,8.5z"
				/>
			<path class="st1" d="M43.2,8.5c0,0.3-0.2,0.5-0.5,0.5c-0.3,0-0.5-0.2-0.5-0.5c0-0.3,0.2-0.5,0.5-0.5C42.9,7.9,43.2,8.2,43.2,8.5z
				"/>
		</g>
	</g>
	<path class="st0" d="M71.8,71.4c-8.2,0-23.1-7.8-36-17.3C19.1,41.8,3.7,25.1,8.2,18.4l1.4,1c-2.8,4.2,7.7,18.8,27.2,33.2
		c19.5,14.3,36.1,19.7,38.9,15.5l1.4,1C76.1,70.7,74.3,71.4,71.8,71.4z"/>
	<g>
		<path class="st0" d="M76.1,20.7c-0.1-0.5-0.2-0.9-0.4-1.3l1.4-1c0.4,0.6,0.6,1.3,0.7,2.1L76.1,20.7z"/>
		<path class="st0" d="M13.6,71.3l0-1.8c1,0,2-0.1,3.2-0.4l0.3,1.8C15.8,71.2,14.6,71.3,13.6,71.3z M20.5,70L20,68.3
			c1-0.3,2.1-0.7,3.2-1.1l0.6,1.7C22.7,69.3,21.6,69.7,20.5,70z M27.1,67.5l-0.7-1.7c1-0.4,2-0.9,3.1-1.5l0.7,1.6
			C29.1,66.6,28.1,67.1,27.1,67.5z M33.3,64.4l-0.8-1.6c1-0.5,2-1.1,3-1.7l0.8,1.6C35.3,63.3,34.3,63.9,33.3,64.4z M39.4,60.9
			l-0.9-1.6c1-0.6,1.9-1.2,2.9-1.8l0.9,1.5C41.3,59.7,40.3,60.3,39.4,60.9z M45.2,57.1l-0.9-1.5c0.9-0.6,1.9-1.3,2.8-2l1,1.5
			C47.1,55.8,46.2,56.5,45.2,57.1z M50.9,53l-1-1.5c0.9-0.7,1.8-1.4,2.7-2.1l1,1.4C52.8,51.6,51.9,52.3,50.9,53z M56.4,48.7
			l-1.1-1.4c0.9-0.8,1.8-1.5,2.6-2.3l1.1,1.4C58.2,47.1,57.3,47.9,56.4,48.7z M61.7,44l-1.1-1.4c0.9-0.8,1.7-1.6,2.5-2.4l1.2,1.3
			C63.5,42.4,62.6,43.2,61.7,44z M66.8,39.1l-1.2-1.3c0.8-0.9,1.6-1.7,2.4-2.6l1.3,1.2C68.4,37.3,67.6,38.2,66.8,39.1z M71.5,33.7
			l-1.3-1.2c0.8-1,1.5-1.9,2.1-2.8l1.4,1.1C73,31.8,72.3,32.7,71.5,33.7z M75.6,27.8l-1.5-0.9c0.6-1.1,1.1-2.1,1.5-3.1l1.6,0.6
			C76.8,25.5,76.3,26.6,75.6,27.8z"/>
		<path class="st0" d="M9.8,70.6c-0.7-0.4-1.2-0.8-1.6-1.4l1.4-1c0.2,0.4,0.6,0.6,1,0.9L9.8,70.6z"/>
	</g>
</g>
</svg>
