<?xml version="1.0" encoding="utf-8"?>
<!-- Generator: Adobe Illustrator 23.0.1, SVG Export Plug-In . SVG Version: 6.00 Build 0)  -->
<svg version="1.1" id="Layer_1" xmlns="http://www.w3.org/2000/svg" xmlns:xlink="http://www.w3.org/1999/xlink" x="0px" y="0px"
	 viewBox="0 0 83.7 83.8" style="enable-background:new 0 0 83.7 83.8;" xml:space="preserve">
<style type="text/css">
	.st0{fill:#333C49;}
	.st1{fill:#FFFFFF;}
	.st2{fill:#3F4A5A;}
	.st3{fill:#6BC7D9;}
</style>
<g>
	<path class="st0" d="M27.9,42.4c0,0.5-0.4,0.9-0.9,0.9h-2.3c-0.5,0-0.9-0.4-0.9-0.9v-0.2c0-0.5,0.4-0.9,0.9-0.9H27
		c0.5,0,0.9,0.4,0.9,0.9V42.4z"/>
	<path class="st0" d="M1.4,42.4c0,0.5,0.4,0.9,0.9,0.9h2.3c0.5,0,0.9-0.4,0.9-0.9v-0.2c0-0.5-0.4-0.9-0.9-0.9H2.3
		c-0.5,0-0.9,0.4-0.9,0.9V42.4z"/>
	<path class="st0" d="M21.2,61.5H21h-0.7h-0.2c-0.2,0-0.4,0.2-0.4,0.4v1.6c0,0.2,0.2,0.4,0.4,0.4h0.2H21h0.2c0.2,0,0.4-0.2,0.4-0.4
		v-1.6C21.6,61.6,21.4,61.5,21.2,61.5z"/>
	<rect x="19" y="52" class="st1" width="3.3" height="2.5"/>
	<rect x="20.1" y="54.5" class="st1" width="1.1" height="6.9"/>
	<rect x="10.3" y="45.7" class="st0" width="8.7" height="1.7"/>
	<path class="st2" d="M22.9,27.4c0-1.7-1.4-3.1-3.1-3.1H9.5c-1.7,0-3.1,1.4-3.1,3.1v15.3c0,1.7,1.4,3.1,3.1,3.1h10.3
		c1.7,0,3.1-1.4,3.1-3.1V27.4z"/>
	<path class="st1" d="M5.4,50.9c-0.7,0-1.3-0.3-1.8-0.8c-0.5-0.5-0.8-1.1-0.8-1.8v-5H4v5c0,0.4,0.1,0.7,0.4,1c0.3,0.3,0.6,0.4,1,0.4
		V50.9z"/>
	<path class="st1" d="M23.9,49.7c0.4,0,0.7-0.2,1-0.4c0.3-0.3,0.4-0.6,0.4-1v-5h1.2v5c0,0.7-0.3,1.3-0.8,1.8
		c-0.5,0.5-1.1,0.7-1.8,0.8V49.7z"/>
	<path class="st2" d="M23.9,51.5c0,0.1,0,0.3-0.2,0.4c-0.1,0.1-0.2,0.1-0.4,0.1H5.9c-0.1,0-0.3,0-0.4-0.1c-0.1-0.1-0.2-0.2-0.2-0.4
		v-2c0-0.5,0.2-1,0.6-1.4c0.4-0.4,0.9-0.6,1.5-0.6h14.4c0.5,0,1.1,0.2,1.5,0.6c0.4,0.4,0.6,0.9,0.6,1.4V51.5z"/>
	<path class="st3" d="M18.9,31c0,0.3-0.1,0.7-0.4,0.9c-0.3,0.2-0.6,0.4-0.9,0.4h-5.9c-0.3,0-0.7-0.1-0.9-0.4
		c-0.3-0.2-0.4-0.6-0.4-0.9v-6.6h8.5V31z"/>
	<path class="st0" d="M8.7,61.4H8.5H7.8H7.6c-0.2,0-0.4,0.2-0.4,0.4v1.6c0,0.2,0.2,0.4,0.4,0.4h0.2h0.7h0.2c0.2,0,0.4-0.2,0.4-0.4
		v-1.6C9.1,61.6,8.9,61.4,8.7,61.4z"/>
	<rect x="6.5" y="52" class="st1" width="3.3" height="2.5"/>
	<rect x="7.6" y="54.5" class="st1" width="1.1" height="6.9"/>
</g>
<g>
	<path class="st0" d="M55.5,42.1c0,0.5-0.4,0.9-0.9,0.9h-2.3c-0.5,0-0.9-0.4-0.9-0.9v-0.2c0-0.5,0.4-0.9,0.9-0.9h2.3
		c0.5,0,0.9,0.4,0.9,0.9V42.1z"/>
	<path class="st0" d="M28.9,42.1c0,0.5,0.4,0.9,0.9,0.9h2.3c0.5,0,0.9-0.4,0.9-0.9v-0.2c0-0.5-0.4-0.9-0.9-0.9h-2.3
		c-0.5,0-0.9,0.4-0.9,0.9V42.1z"/>
	<path class="st0" d="M48.8,61.1h-0.2h-0.7h-0.2c-0.2,0-0.4,0.2-0.4,0.4v1.6c0,0.2,0.2,0.4,0.4,0.4h0.2h0.7h0.2
		c0.2,0,0.4-0.2,0.4-0.4v-1.6C49.2,61.3,49,61.1,48.8,61.1z"/>
	<rect x="46.6" y="51.7" class="st1" width="3.3" height="2.5"/>
	<rect x="47.7" y="54.2" class="st1" width="1.1" height="6.9"/>
	<rect x="37.9" y="45.4" class="st0" width="8.7" height="1.7"/>
	<path class="st2" d="M50.4,27.1c0-1.7-1.4-3.1-3.1-3.1H37.1c-1.7,0-3.1,1.4-3.1,3.1v15.3c0,1.7,1.4,3.1,3.1,3.1h10.3
		c1.7,0,3.1-1.4,3.1-3.1V27.1z"/>
	<path class="st1" d="M32.9,50.5c-0.7,0-1.3-0.3-1.8-0.8c-0.5-0.5-0.8-1.1-0.8-1.8v-5h1.2v5c0,0.4,0.1,0.7,0.4,1
		c0.3,0.3,0.6,0.4,1,0.4V50.5z"/>
	<path class="st1" d="M51.5,49.4c0.4,0,0.7-0.2,1-0.4c0.3-0.3,0.4-0.6,0.4-1v-5H54v5c0,0.7-0.3,1.3-0.8,1.8
		c-0.5,0.5-1.1,0.7-1.8,0.8V49.4z"/>
	<path class="st2" d="M51.5,51.2c0,0.1,0,0.3-0.2,0.4c-0.1,0.1-0.2,0.1-0.4,0.1H33.5c-0.1,0-0.3,0-0.4-0.1c-0.1-0.1-0.2-0.2-0.2-0.4
		v-2c0-0.5,0.2-1,0.6-1.4c0.4-0.4,0.9-0.6,1.5-0.6h14.4c0.5,0,1.1,0.2,1.5,0.6c0.4,0.4,0.6,0.9,0.6,1.4V51.2z"/>
	<path class="st3" d="M46.5,30.6c0,0.3-0.1,0.7-0.4,0.9c-0.3,0.2-0.6,0.4-0.9,0.4h-5.9c-0.3,0-0.7-0.1-0.9-0.4
		C38.1,31.3,38,31,38,30.6V24h8.5V30.6z"/>
	<path class="st0" d="M36.3,61.1h-0.2h-0.7h-0.2c-0.2,0-0.4,0.2-0.4,0.4V63c0,0.2,0.2,0.4,0.4,0.4h0.2h0.7h0.2
		c0.2,0,0.4-0.2,0.4-0.4v-1.6C36.7,61.3,36.5,61.1,36.3,61.1z"/>
	<rect x="34.1" y="51.6" class="st1" width="3.3" height="2.5"/>
	<rect x="35.2" y="54.2" class="st1" width="1.1" height="6.9"/>
</g>
<g>
	<path class="st0" d="M82.8,42.1c0,0.5-0.4,0.9-0.9,0.9h-2.3c-0.5,0-0.9-0.4-0.9-0.9v-0.2c0-0.5,0.4-0.9,0.9-0.9h2.3
		c0.5,0,0.9,0.4,0.9,0.9V42.1z"/>
	<path class="st0" d="M56.2,42.1c0,0.5,0.4,0.9,0.9,0.9h2.3c0.5,0,0.9-0.4,0.9-0.9v-0.2c0-0.5-0.4-0.9-0.9-0.9h-2.3
		c-0.5,0-0.9,0.4-0.9,0.9V42.1z"/>
	<path class="st0" d="M76.1,61.2h-0.2h-0.7H75c-0.2,0-0.4,0.2-0.4,0.4v1.6c0,0.2,0.2,0.4,0.4,0.4h0.2h0.7h0.2c0.2,0,0.4-0.2,0.4-0.4
		v-1.6C76.4,61.3,76.3,61.2,76.1,61.2z"/>
	<rect x="73.9" y="51.7" class="st1" width="3.3" height="2.5"/>
	<rect x="75" y="54.2" class="st1" width="1.1" height="6.9"/>
	<rect x="65.2" y="45.4" class="st0" width="8.7" height="1.7"/>
	<path class="st2" d="M77.7,27.1c0-1.7-1.4-3.1-3.1-3.1H64.4c-1.7,0-3.1,1.4-3.1,3.1v15.3c0,1.7,1.4,3.1,3.1,3.1h10.3
		c1.7,0,3.1-1.4,3.1-3.1V27.1z"/>
	<path class="st1" d="M60.2,50.5c-0.7,0-1.3-0.3-1.8-0.8c-0.5-0.5-0.8-1.1-0.8-1.8v-5h1.2v5c0,0.4,0.1,0.7,0.4,1
		c0.3,0.3,0.6,0.4,1,0.4V50.5z"/>
	<path class="st1" d="M78.8,49.4c0.4,0,0.7-0.2,1-0.4c0.3-0.3,0.4-0.6,0.4-1v-5h1.2v5c0,0.7-0.3,1.3-0.8,1.8
		c-0.5,0.5-1.1,0.7-1.8,0.8V49.4z"/>
	<path class="st2" d="M78.8,51.2c0,0.1,0,0.3-0.2,0.4c-0.1,0.1-0.2,0.1-0.4,0.1H60.7c-0.1,0-0.3,0-0.4-0.1c-0.1-0.1-0.2-0.2-0.2-0.4
		v-2c0-0.5,0.2-1,0.6-1.4c0.4-0.4,0.9-0.6,1.5-0.6h14.4c0.5,0,1.1,0.2,1.5,0.6c0.4,0.4,0.6,0.9,0.6,1.4V51.2z"/>
	<path class="st3" d="M73.7,30.7c0,0.3-0.1,0.7-0.4,0.9c-0.3,0.2-0.6,0.4-0.9,0.4h-5.9c-0.3,0-0.7-0.1-0.9-0.4
		c-0.3-0.2-0.4-0.6-0.4-0.9V24h8.5V30.7z"/>
	<path class="st0" d="M63.6,61.1h-0.2h-0.7h-0.2c-0.2,0-0.4,0.2-0.4,0.4v1.6c0,0.2,0.2,0.4,0.4,0.4h0.2h0.7h0.2
		c0.2,0,0.4-0.2,0.4-0.4v-1.6C64,61.3,63.8,61.1,63.6,61.1z"/>
	<rect x="61.4" y="51.6" class="st1" width="3.3" height="2.5"/>
	<rect x="62.5" y="54.2" class="st1" width="1.1" height="6.9"/>
</g>
</svg>
