<?xml version="1.0" encoding="utf-8"?>
<!-- Generator: Adobe Illustrator 23.0.1, SVG Export Plug-In . SVG Version: 6.00 Build 0)  -->
<svg version="1.1" id="Layer_1" xmlns="http://www.w3.org/2000/svg" xmlns:xlink="http://www.w3.org/1999/xlink" x="0px" y="0px"
	 viewBox="0 0 83.69 83.84" style="enable-background:new 0 0 83.69 83.84;" xml:space="preserve">
<style type="text/css">
	.st0{fill:#E6E5E5;}
	.st1{fill:#FFFFFF;}
	.st2{fill:#3F4A5A;}
	.st3{clip-path:url(#SVGID_2_);}
	.st4{fill:#F67656;}
</style>
<g>
	<g>
		<rect x="29.49" y="66.3" class="st0" width="24.16" height="10.63"/>
		<rect x="23.69" y="76.93" class="st1" width="35.75" height="2.9"/>
		<path class="st2" d="M0.5,56.63V3.9c0-0.74,0.28-1.48,0.85-2.05C1.91,1.28,2.66,1,3.4,1h76.33c0.74,0,1.48,0.28,2.05,0.85
			c0.57,0.57,0.85,1.31,0.85,2.05v52.74H0.5z"/>
		<rect x="5.81" y="6.31" class="st1" width="71.5" height="45.01"/>
		<path class="st1" d="M82.63,63.4c0,0.74-0.28,1.48-0.85,2.05c-0.57,0.57-1.31,0.85-2.05,0.85H3.4c-0.74,0-1.48-0.28-2.05-0.85
			C0.78,64.88,0.5,64.14,0.5,63.4v-6.77h82.13V63.4z"/>
	</g>
	<g>
		<defs>
			<rect id="SVGID_1_" x="5.81" y="6.31" width="71.5" height="45.01"/>
		</defs>
		<clipPath id="SVGID_2_">
			<use xlink:href="#SVGID_1_"  style="overflow:visible;"/>
		</clipPath>
		<g class="st3">
			<g>
				<polygon class="st2" points="43.11,26.77 40.01,26.77 39.11,31.29 44.02,31.29 				"/>
				<polygon class="st2" points="32.69,28.73 29.99,30.28 31.47,34.66 35.72,32.19 				"/>
				<polygon class="st2" points="24.63,35.66 23.08,38.34 26.53,41.39 28.99,37.13 				"/>
				<polygon class="st2" points="21.11,45.68 21.11,48.78 25.63,49.69 25.63,44.77 				"/>
				<polygon class="st2" points="23.08,56.12 24.63,58.8 28.99,57.33 26.53,53.08 				"/>
				<polygon class="st2" points="29.99,64.17 32.69,65.72 35.72,62.26 31.47,59.81 				"/>
				<polygon class="st2" points="40.01,67.68 43.11,67.68 44.02,63.17 39.11,63.17 				"/>
				<polygon class="st2" points="50.45,65.72 53.14,64.17 51.66,59.81 47.41,62.26 				"/>
				<polygon class="st2" points="58.51,58.8 60.05,56.12 56.6,53.08 54.14,57.33 				"/>
				<polygon class="st2" points="62.02,48.78 62.02,45.68 57.51,44.77 57.51,49.69 				"/>
				<polygon class="st2" points="60.05,38.34 58.51,35.66 54.14,37.13 56.6,41.39 				"/>
				<polygon class="st2" points="53.14,30.28 50.44,28.74 47.41,32.19 51.66,34.66 				"/>
			</g>
			<path class="st2" d="M41.56,31.1c-8.9,0-16.13,7.22-16.13,16.12c0,8.91,7.22,16.13,16.13,16.13c8.91,0,16.13-7.22,16.13-16.13
				C57.7,38.32,50.47,31.1,41.56,31.1z M41.56,51.7c-2.46,0-4.46-2.01-4.46-4.47c0-2.46,2-4.47,4.46-4.47
				c2.47,0,4.47,2.01,4.47,4.47C46.03,49.69,44.03,51.7,41.56,51.7z"/>
			<path class="st4" d="M41.56,39.49c-4.27,0-7.74,3.46-7.74,7.74c0,4.28,3.46,7.74,7.74,7.74c4.28,0,7.74-3.46,7.74-7.74
				C49.31,42.95,45.84,39.49,41.56,39.49z M41.56,51.1c-2.13,0-3.86-1.73-3.86-3.87c0-2.13,1.73-3.87,3.86-3.87
				c2.13,0,3.87,1.73,3.87,3.87C45.44,49.37,43.7,51.1,41.56,51.1z"/>
		</g>
		<g class="st3">
			<g>
				<polygon class="st4" points="64.22,10.98 62.84,10.98 62.43,12.99 64.63,12.99 				"/>
				<polygon class="st4" points="59.57,11.85 58.37,12.54 59.03,14.49 60.92,13.39 				"/>
				<polygon class="st4" points="55.98,14.94 55.29,16.14 56.83,17.49 57.92,15.6 				"/>
				<polygon class="st4" points="54.41,19.41 54.41,20.79 56.42,21.2 56.42,19 				"/>
				<polygon class="st4" points="55.29,24.06 55.98,25.26 57.92,24.6 56.83,22.71 				"/>
				<polygon class="st4" points="58.37,27.65 59.57,28.34 60.92,26.8 59.03,25.71 				"/>
				<polygon class="st4" points="62.84,29.22 64.22,29.22 64.63,27.2 62.43,27.2 				"/>
				<polygon class="st4" points="67.49,28.34 68.69,27.65 68.03,25.71 66.14,26.8 				"/>
				<polygon class="st4" points="71.08,25.26 71.77,24.06 70.23,22.71 69.14,24.6 				"/>
				<polygon class="st4" points="72.65,20.79 72.65,19.41 70.64,19 70.64,21.2 				"/>
				<polygon class="st4" points="71.77,16.14 71.08,14.94 69.14,15.6 70.23,17.49 				"/>
				<polygon class="st4" points="68.69,12.54 67.49,11.86 66.14,13.39 68.03,14.49 				"/>
			</g>
			<path class="st4" d="M63.53,12.91c-3.97,0-7.19,3.22-7.19,7.19c0,3.97,3.22,7.19,7.19,7.19c3.97,0,7.19-3.22,7.19-7.19
				C70.72,16.13,67.5,12.91,63.53,12.91z M63.53,22.09c-1.1,0-1.99-0.9-1.99-1.99c0-1.1,0.89-1.99,1.99-1.99
				c1.1,0,1.99,0.89,1.99,1.99C65.52,21.2,64.63,22.09,63.53,22.09z"/>
			<path class="st4" d="M63.53,16.65c-1.91,0-3.45,1.54-3.45,3.45c0,1.91,1.54,3.45,3.45,3.45c1.91,0,3.45-1.55,3.45-3.45
				C66.98,18.19,65.44,16.65,63.53,16.65z M63.53,21.82c-0.95,0-1.72-0.77-1.72-1.72c0-0.95,0.77-1.72,1.72-1.72
				c0.95,0,1.73,0.77,1.73,1.72C65.25,21.05,64.48,21.82,63.53,21.82z"/>
		</g>
	</g>
</g>
</svg>
