<?xml version="1.0" encoding="utf-8"?>
<!-- Generator: Adobe Illustrator 23.0.1, SVG Export Plug-In . SVG Version: 6.00 Build 0)  -->
<svg version="1.1" id="Layer_1" xmlns="http://www.w3.org/2000/svg" xmlns:xlink="http://www.w3.org/1999/xlink" x="0px" y="0px"
	 viewBox="0 0 83.69 83.84" style="enable-background:new 0 0 83.69 83.84;" xml:space="preserve">
<style type="text/css">
	.st0{fill:#3F4A5A;}
	.st1{fill:#FFFFFF;}
	.st2{fill:#CCCBCA;}
</style>
<g>
	<g>
		<path class="st0" d="M16.56,66.87c13.32,13.32,29.83,18.42,36.86,11.39L40.87,65.71c-2.81,2.82-10.28-0.09-16.68-6.48
			c-6.39-6.39-9.3-13.86-6.48-16.68L5.17,30.01C-1.87,37.04,3.23,53.55,16.56,66.87z"/>
		<path class="st0" d="M8.26,26.92c0.39-0.4,0.94-0.64,1.54-0.64c0.6,0,1.15,0.24,1.54,0.64l9.46,9.46
			c0.39,0.39,0.64,0.94,0.64,1.54c0,0.6-0.24,1.15-0.64,1.54l-3.09,3.09L5.17,30.01L8.26,26.92z"/>
		<path class="st0" d="M43.96,62.62c0.4-0.39,0.94-0.63,1.55-0.63c0.6,0,1.15,0.24,1.54,0.63l9.46,9.46
			c0.39,0.39,0.64,0.94,0.64,1.54c0,0.6-0.24,1.15-0.64,1.54l-3.09,3.09L40.87,65.71L43.96,62.62z"/>
	</g>
	<g>
		<g>
			<path class="st1" d="M55.61,53.65c-14.3,0-25.89-11.59-25.89-25.9c0-14.3,11.59-25.89,25.89-25.89c14.3,0,25.9,11.59,25.9,25.9
				C81.5,42.05,69.91,53.65,55.61,53.65z"/>
			<polygon class="st1" points="29.71,51.67 29.71,27.75 53.63,27.75 			"/>
		</g>
		<g>
			<path class="st2" d="M51.44,27.75c0,0.89-0.72,1.61-1.61,1.61c-0.89,0-1.61-0.72-1.61-1.61c0-0.89,0.72-1.61,1.61-1.61
				C50.71,26.14,51.44,26.86,51.44,27.75z"/>
			<path class="st2" d="M57.22,27.75c0,0.89-0.72,1.61-1.62,1.61c-0.89,0-1.61-0.72-1.61-1.61c0-0.89,0.72-1.61,1.61-1.61
				C56.5,26.14,57.22,26.86,57.22,27.75z"/>
			<path class="st2" d="M63,27.75c0,0.89-0.72,1.61-1.62,1.61c-0.89,0-1.61-0.72-1.61-1.61c0-0.89,0.72-1.61,1.61-1.61
				C62.28,26.14,63,26.86,63,27.75z"/>
		</g>
		<g>
			<g>
				<path class="st2" d="M55.6,46.1c-6.93,0-13.19-3.84-16.34-10.01l3.92-2c2.4,4.69,7.16,7.6,12.42,7.6
					c5.27,0,10.03-2.91,12.42-7.6c1.01-1.97,1.52-4.09,1.52-6.34h4.4c0,2.91-0.7,5.79-2.01,8.35C68.79,42.26,62.53,46.1,55.6,46.1z"
					/>
				<g>
					<polygon class="st2" points="38.78,30.31 36.44,37.53 41.22,35.09 					"/>
					<polygon class="st2" points="38.78,30.31 46.01,32.65 41.22,35.09 					"/>
				</g>
			</g>
			<g>
				<path class="st2" d="M41.66,27.75h-4.4c0-2.9,0.69-5.79,2-8.34c3.15-6.17,9.41-10,16.34-10c6.93,0,13.19,3.83,16.34,10l-3.92,2
					c-2.4-4.69-7.16-7.6-12.42-7.6c-5.26,0-10.02,2.91-12.42,7.6C42.17,23.38,41.66,25.51,41.66,27.75z"/>
				<g>
					<polygon class="st2" points="72.43,25.2 74.77,17.97 69.99,20.41 					"/>
					<polygon class="st2" points="72.43,25.2 65.2,22.86 69.99,20.41 					"/>
				</g>
			</g>
		</g>
	</g>
</g>
</svg>
