<?xml version="1.0" encoding="utf-8"?>
<!-- Generator: Adobe Illustrator 23.0.1, SVG Export Plug-In . SVG Version: 6.00 Build 0)  -->
<svg version="1.1" id="Layer_1" xmlns="http://www.w3.org/2000/svg" xmlns:xlink="http://www.w3.org/1999/xlink" x="0px" y="0px"
	 viewBox="0 0 83.7 83.8" style="enable-background:new 0 0 83.7 83.8;" xml:space="preserve">
<style type="text/css">
	.st0{fill:#F67656;}
	.st1{fill:#FFFFFF;}
	.st2{fill:#3F4A5A;}
</style>
<path class="st0" d="M56.4,5.2h-7.5c0,0.1,0,0.1,0,0.2c0,3-2.5,5.5-5.5,5.5c-3,0-5.5-2.5-5.5-5.5c0-0.1,0-0.1,0-0.2h-6.2
	c0,7-5.7,12.7-12.7,12.7V68c0.2,0,0.3,0,0.5,0c6.1,0,11,4.9,11,11c0,0.5,0,0.9-0.1,1.4h7.8c0.1-2.8,2.4-5.1,5.2-5.1
	c2.8,0,5.1,2.3,5.2,5.1h7.6c0-0.3,0-0.6,0-0.9c0-6.1,4.9-11,11-11c0.6,0,1.3,0.1,1.9,0.2V17.9C62.1,17.9,56.4,12.2,56.4,5.2z"/>
<g>
	<rect x="29.4" y="23.4" class="st1" width="29.2" height="41.6"/>
	<g>
		<rect x="35.5" y="29.5" class="st2" width="3.4" height="29.4"/>
		<rect x="42.3" y="29.5" class="st2" width="3.4" height="29.4"/>
		<rect x="49.2" y="44.2" class="st2" width="3.4" height="14.7"/>
	</g>
</g>
</svg>
