<?xml version="1.0" encoding="utf-8"?>
<!-- Generator: Adobe Illustrator 23.0.1, SVG Export Plug-In . SVG Version: 6.00 Build 0)  -->
<svg version="1.1" id="Layer_1" xmlns="http://www.w3.org/2000/svg" xmlns:xlink="http://www.w3.org/1999/xlink" x="0px" y="0px"
	 viewBox="0 0 83.7 83.8" style="enable-background:new 0 0 83.7 83.8;" xml:space="preserve">
<style type="text/css">
	.st0{fill:#3F4A5A;}
	.st1{fill:#FFFFFF;}
	.st2{fill:#CCCBCA;}
	.st3{fill:#333C49;}
	.st4{fill:#FAD97F;}
	.st5{fill:#F5B947;}
</style>
<g>
	<g>
		<path class="st0" d="M9.7,52.4V14.9c0-0.6,0.2-1.2,0.7-1.6c0.4-0.4,1-0.7,1.6-0.7h59.8c0.6,0,1.2,0.2,1.6,0.7
			c0.4,0.4,0.7,1,0.7,1.6v37.6H9.7z"/>
		<path class="st1" d="M79.6,53.6c0,1-0.4,1.9-1.1,2.7c-0.7,0.7-1.7,1.1-2.7,1.1h-68c-1,0-1.9-0.4-2.7-1.1c-0.7-0.7-1.1-1.7-1.1-2.7
			v-1.1h75.5V53.6z"/>
		<path class="st2" d="M49.9,52.8c0,0.4-0.1,0.7-0.4,1c-0.3,0.3-0.6,0.4-1,0.4H35.2c-0.4,0-0.7-0.1-1-0.4c-0.3-0.3-0.4-0.6-0.4-1
			v-0.4h16.2V52.8z"/>
		<rect x="13.8" y="16.8" class="st1" width="56" height="31.5"/>
	</g>
	<g>
		<path class="st0" d="M76.7,21.4H59.5c-1.6,0-3,1.3-3,3v36.5c0,1.6,1.3,3,3,3h17.2c1.6,0,3-1.3,3-3V24.3
			C79.6,22.7,78.3,21.4,76.7,21.4z"/>
		<rect x="58.2" y="27.8" class="st1" width="19.7" height="29.6"/>
		<path class="st3" d="M66.3,61.3c-0.3,0-0.6-0.3-0.6-0.6v-0.2c0-0.3,0.3-0.6,0.6-0.6h3.6c0.3,0,0.6,0.3,0.6,0.6v0.2
			c0,0.3-0.3,0.6-0.6,0.6H66.3z"/>
		<g>
			<path class="st3" d="M68.9,24.6c0,0.5-0.4,0.8-0.8,0.8c-0.4,0-0.8-0.4-0.8-0.8c0-0.5,0.4-0.8,0.8-0.8
				C68.5,23.7,68.9,24.1,68.9,24.6z"/>
			<path class="st0" d="M68.4,24.6c0,0.2-0.1,0.3-0.3,0.3c-0.2,0-0.3-0.1-0.3-0.3c0-0.2,0.1-0.3,0.3-0.3
				C68.2,24.3,68.4,24.4,68.4,24.6z"/>
		</g>
	</g>
</g>
<g>
	<path class="st1" d="M43.1,62.8l-0.7-0.7c1.6-1.6,1.3-4.9-0.6-9.1c-2-4.5-5.7-9.4-10.3-14c-4.6-4.6-9.6-8.2-14-10.3
		c-4.2-1.9-7.6-2.1-9.1-0.6l-0.7-0.7c1.9-1.9,5.5-1.8,10.3,0.4c4.6,2.1,9.7,5.8,14.3,10.5c4.7,4.7,8.4,9.8,10.5,14.3
		C44.9,57.2,45,60.9,43.1,62.8z"/>
	<g>
		<path class="st1" d="M7.6,62.8c-0.2-0.2-0.4-0.5-0.6-0.7l0.9-0.5c0.1,0.2,0.3,0.4,0.4,0.5L7.6,62.8z"/>
		<path class="st1" d="M6.4,60.3c-0.1-0.4-0.1-0.9-0.1-1.3c0-0.1,0-0.3,0-0.4l1,0.1c0,0.1,0,0.3,0,0.4c0,0.4,0,0.8,0.1,1.1L6.4,60.3
			z M7.5,57.1l-1-0.2c0.1-0.5,0.2-1.1,0.4-1.6l1,0.3C7.7,56.1,7.6,56.6,7.5,57.1z M8.5,54l-1-0.4c0.2-0.5,0.4-1,0.7-1.5l0.9,0.4
			C8.9,53.1,8.6,53.6,8.5,54z M9.8,51.1l-0.9-0.5c0.3-0.5,0.5-1,0.8-1.5l0.9,0.5C10.3,50.2,10.1,50.7,9.8,51.1z M11.5,48.3l-0.9-0.6
			c0.3-0.5,0.6-0.9,0.9-1.4l0.8,0.6C12.1,47.4,11.8,47.9,11.5,48.3z M13.3,45.7L12.5,45c0.3-0.4,0.7-0.9,1-1.3l0.8,0.6
			C14,44.8,13.7,45.2,13.3,45.7z M15.3,43.1l-0.8-0.7c0.4-0.4,0.7-0.8,1.1-1.3l0.8,0.7C16,42.3,15.7,42.7,15.3,43.1z M17.5,40.7
			L16.8,40c0.4-0.4,0.8-0.8,1.1-1.2l0.7,0.7C18.2,39.9,17.9,40.3,17.5,40.7z M19.8,38.3l-0.7-0.7c0.4-0.4,0.8-0.8,1.2-1.1l0.7,0.8
			C20.6,37.6,20.2,37.9,19.8,38.3z M22.2,36.1l-0.7-0.8c0.4-0.4,0.8-0.7,1.3-1.1l0.7,0.8C23,35.4,22.6,35.7,22.2,36.1z M24.7,34
			L24,33.2c0.4-0.3,0.9-0.7,1.3-1L26,33C25.5,33.3,25.1,33.7,24.7,34z M27.3,32.1l-0.6-0.8c0.5-0.3,0.9-0.6,1.4-0.9l0.6,0.9
			C28.2,31.5,27.7,31.8,27.3,32.1z M30,30.3l-0.5-0.9c0.5-0.3,1-0.6,1.5-0.8l0.5,0.9C31,29.8,30.5,30,30,30.3z M32.9,28.8l-0.4-0.9
			c0.5-0.2,1-0.5,1.5-0.7l0.4,1C33.9,28.3,33.4,28.6,32.9,28.8z M35.9,27.6l-0.3-1c0.6-0.2,1.1-0.3,1.6-0.4l0.2,1
			C36.9,27.3,36.4,27.4,35.9,27.6z M40.5,27.1C40,27,39.5,27,38.9,27l-0.1-1c0.6,0,1.2,0,1.8,0.1L40.5,27.1z"/>
		<path class="st1" d="M42.4,28c-0.2-0.2-0.3-0.3-0.5-0.4l0.5-0.9c0.3,0.2,0.5,0.4,0.7,0.6L42.4,28z"/>
	</g>
	<g>
		<path class="st4" d="M39.9,45c0,8-6.5,14.5-14.5,14.5c-8,0-14.5-6.5-14.5-14.5c0-8,6.5-14.5,14.5-14.5C33.4,30.5,39.9,37,39.9,45z
			"/>
		<path class="st5" d="M37,45c0,6.4-5.2,11.6-11.6,11.6c-6.4,0-11.6-5.2-11.6-11.6c0-6.4,5.2-11.6,11.6-11.6
			C31.8,33.4,37,38.6,37,45z"/>
		<g>
			<path class="st4" d="M26.6,46h-2.4c-1,0-2-0.4-2.7-1.1c-0.7-0.7-1.1-1.7-1.1-2.7c0-1,0.4-2,1.1-2.7c0.7-0.7,1.7-1.1,2.7-1.1h5.3
				v1.9h-5.3c-0.5,0-1,0.2-1.3,0.5c-0.4,0.4-0.6,0.8-0.6,1.3c0,0.5,0.2,1,0.6,1.3c0.4,0.4,0.8,0.6,1.3,0.6h2.4V46z"/>
			<path class="st4" d="M26.6,51.7h-5.3v-1.9h5.3c0.5,0,1-0.2,1.3-0.6c0.3-0.3,0.6-0.8,0.6-1.3c0-0.5-0.2-1-0.6-1.3
				c-0.4-0.4-0.8-0.6-1.3-0.6h-2.4v-1.9h2.4c1,0,2,0.4,2.7,1.1c0.7,0.7,1.1,1.7,1.1,2.7c0,1-0.4,2-1.1,2.7
				C28.5,51.3,27.6,51.7,26.6,51.7z"/>
			<rect x="24.4" y="37.7" class="st4" width="1.9" height="14.6"/>
		</g>
	</g>
	<g>
		<path class="st1" d="M42.4,63.4l-0.5-0.9c0.2-0.1,0.4-0.3,0.5-0.4l0.7,0.7C42.9,63,42.6,63.2,42.4,63.4z"/>
		<path class="st1" d="M39.3,64.1c-0.1,0-0.3,0-0.4,0l0.1-1c0.5,0,1.1,0,1.5-0.1l0.2,1C40.3,64.1,39.8,64.1,39.3,64.1z M37.2,63.9
			c-0.5-0.1-1.1-0.2-1.6-0.4l0.3-1c0.5,0.2,1.1,0.3,1.5,0.4L37.2,63.9z M34,62.9c-0.5-0.2-1-0.4-1.5-0.7l0.4-0.9
			c0.5,0.2,1,0.5,1.5,0.6L34,62.9z M31,61.5c-0.5-0.3-1-0.5-1.5-0.8l0.5-0.9c0.5,0.3,0.9,0.5,1.4,0.8L31,61.5z M28.1,59.8
			c-0.5-0.3-0.9-0.6-1.4-0.9l0.6-0.8c0.5,0.3,0.9,0.6,1.4,0.9L28.1,59.8z M25.4,57.9c-0.4-0.3-0.9-0.7-1.3-1l0.6-0.8
			c0.4,0.3,0.9,0.7,1.3,1L25.4,57.9z M22.8,55.8c-0.4-0.4-0.8-0.7-1.3-1.1l0.7-0.8c0.4,0.4,0.8,0.7,1.2,1.1L22.8,55.8z M20.3,53.6
			c-0.4-0.4-0.8-0.8-1.2-1.1l0.7-0.7c0.4,0.4,0.8,0.8,1.2,1.1L20.3,53.6z M17.9,51.3c-0.4-0.4-0.8-0.8-1.1-1.2l0.8-0.7
			c0.4,0.4,0.7,0.8,1.1,1.2L17.9,51.3z M15.6,48.9c-0.4-0.4-0.7-0.8-1.1-1.3l0.8-0.7c0.3,0.4,0.7,0.8,1.1,1.2L15.6,48.9z M13.5,46.4
			c-0.3-0.4-0.7-0.9-1-1.3l0.8-0.6c0.3,0.4,0.6,0.9,1,1.3L13.5,46.4z M11.5,43.7c-0.3-0.5-0.6-0.9-0.9-1.4l0.9-0.6
			c0.3,0.4,0.6,0.9,0.9,1.4L11.5,43.7z M9.7,40.9c-0.3-0.5-0.6-1-0.8-1.5L9.8,39c0.2,0.5,0.5,0.9,0.8,1.4L9.7,40.9z M8.2,38
			c-0.2-0.5-0.5-1-0.7-1.5l1-0.4c0.2,0.5,0.4,1,0.6,1.5L8.2,38z M6.9,34.9c-0.2-0.6-0.3-1.1-0.4-1.6l1-0.2c0.1,0.5,0.2,1,0.4,1.5
			L6.9,34.9z M6.3,31.5c0-0.2,0-0.3,0-0.5c0-0.5,0-0.9,0.1-1.3l1,0.2c-0.1,0.3-0.1,0.7-0.1,1.1c0,0.1,0,0.3,0,0.4L6.3,31.5z"/>
		<path class="st1" d="M7.9,28.6L7,28c0.2-0.3,0.4-0.5,0.6-0.7L8.3,28C8.2,28.2,8,28.4,7.9,28.6z"/>
	</g>
	<path class="st1" d="M11.4,64.1c-1.6,0-2.9-0.4-3.8-1.3l0.7-0.7c1.6,1.6,4.9,1.3,9.1-0.6c4.5-2,9.4-5.7,14-10.3
		c4.6-4.6,8.2-9.6,10.3-14c1.9-4.2,2.1-7.6,0.6-9.1l0.7-0.7c1.9,1.9,1.8,5.5-0.4,10.3c-2.1,4.6-5.8,9.7-10.5,14.3
		c-4.7,4.7-9.8,8.4-14.3,10.5C15.4,63.5,13.2,64.1,11.4,64.1z"/>
</g>
</svg>
