<?xml version="1.0" encoding="utf-8"?>
<!-- Generator: Adobe Illustrator 23.0.1, SVG Export Plug-In . SVG Version: 6.00 Build 0)  -->
<svg version="1.1" id="Layer_1" xmlns="http://www.w3.org/2000/svg" xmlns:xlink="http://www.w3.org/1999/xlink" x="0px" y="0px"
	 viewBox="0 0 83.7 83.8" style="enable-background:new 0 0 83.7 83.8;" xml:space="preserve">
<style type="text/css">
	.st0{fill:#FFFFFF;}
	.st1{fill:#CCCBCA;}
	.st2{fill:#D9D8D7;}
	.st3{fill:#3F4A5A;}
	.st4{fill:#E6E5E5;}
	.st5{fill:#F67656;}
</style>
<g>
	<g>
		<path class="st0" d="M13.1,6c2.5,0,4.6,2.1,4.6,4.6v61.9c0,2.5,2.1,4.6,4.6,4.6h47.3V10.6c0-1.2-0.4-2.4-1.3-3.3
			C67.3,6.4,66.2,6,65,6H13.1z"/>
		<path class="st1" d="M74.2,72.5c0-2.5-2.1-4.6-4.6-4.6H22.3c2.5,0,4.6,2.1,4.6,4.6c0,2.5-2.1,4.6-4.6,4.6h47.3
			C72.1,77.1,74.2,75.1,74.2,72.5z"/>
		<path class="st1" d="M13.1,6C10.5,6,8.5,8,8.5,10.6s2.1,4.6,4.6,4.6h4.6v-4.6C17.7,8,15.6,6,13.1,6z"/>
	</g>
	<g>
		<rect x="49.6" y="60.5" class="st2" width="14" height="1.7"/>
		<g>
			<rect x="23.8" y="24.7" class="st2" width="39.8" height="1.7"/>
			<rect x="23.8" y="20.5" class="st2" width="39.8" height="1.7"/>
			<rect x="23.8" y="16.3" class="st3" width="19.9" height="1.7"/>
		</g>
		<g>
			<g>
				<path class="st4" d="M63.6,56.9H23.7V30h39.8V56.9z M24.8,55.8h37.7V31.1H24.8V55.8z"/>
				<rect x="24.3" y="49.3" class="st4" width="38.8" height="1.1"/>
				<rect x="24.3" y="42.9" class="st4" width="38.8" height="1.1"/>
				<rect x="24.3" y="36.4" class="st4" width="38.8" height="1.1"/>
				<rect x="56" y="30.5" class="st4" width="1.1" height="25.8"/>
				<rect x="49.6" y="30.5" class="st4" width="1.1" height="25.8"/>
				<rect x="43.1" y="30.5" class="st4" width="1.1" height="25.8"/>
				<rect x="36.6" y="30.5" class="st4" width="1.1" height="25.8"/>
				<rect x="30.2" y="30.5" class="st4" width="1.1" height="25.8"/>
			</g>
			<g>
				<polygon class="st5" points="24.8,56.8 23.8,55.8 30.4,49.2 36.9,49.2 49.8,36.3 56.3,36.3 62.5,30 63.5,31 56.8,37.7 
					50.4,37.7 37.5,50.6 31,50.6 				"/>
				<path class="st5" d="M25.8,56.3c0,0.9-0.7,1.5-1.6,1.5c-0.9,0-1.5-0.7-1.5-1.5c0-0.9,0.7-1.6,1.5-1.6
					C25.1,54.8,25.8,55.5,25.8,56.3z"/>
				<path class="st5" d="M32.3,49.9c0,0.9-0.7,1.5-1.5,1.5c-0.9,0-1.6-0.7-1.6-1.5c0-0.9,0.7-1.5,1.6-1.5
					C31.6,48.3,32.3,49,32.3,49.9z"/>
				<path class="st5" d="M38.7,49.9c0,0.9-0.7,1.5-1.6,1.5c-0.9,0-1.6-0.7-1.6-1.5c0-0.9,0.7-1.5,1.6-1.5C38,48.3,38.7,49,38.7,49.9
					z"/>
				<path class="st5" d="M51.6,37c0,0.9-0.7,1.6-1.5,1.6c-0.9,0-1.5-0.7-1.5-1.6c0-0.9,0.7-1.5,1.5-1.5C51,35.4,51.6,36.1,51.6,37z"
					/>
				<path class="st5" d="M58.1,37c0,0.9-0.7,1.6-1.5,1.6c-0.9,0-1.6-0.7-1.6-1.6c0-0.9,0.7-1.5,1.6-1.5C57.4,35.4,58.1,36.1,58.1,37
					z"/>
				<path class="st5" d="M64.6,30.5c0,0.9-0.7,1.6-1.5,1.6c-0.9,0-1.6-0.7-1.6-1.6c0-0.9,0.7-1.5,1.6-1.5
					C63.9,29,64.6,29.7,64.6,30.5z"/>
			</g>
		</g>
	</g>
</g>
</svg>
