<?xml version="1.0" encoding="utf-8"?>
<!-- Generator: Adobe Illustrator 23.0.1, SVG Export Plug-In . SVG Version: 6.00 Build 0)  -->
<svg version="1.1" id="Layer_1" xmlns="http://www.w3.org/2000/svg" xmlns:xlink="http://www.w3.org/1999/xlink" x="0px" y="0px"
	 viewBox="0 0 83.7 83.8" style="enable-background:new 0 0 83.7 83.8;" xml:space="preserve">
<style type="text/css">
	.st0{fill:#FFFFFF;}
	.st1{fill:#CCCBCA;}
	.st2{fill:#6BC7D9;}
	.st3{fill:#3F4A5A;}
</style>
<g>
	<g>
		<g>
			<path class="st0" d="M5.2,61.1c0,0.8,0.3,1.7,1,2.3c0.6,0.6,1.5,1,2.3,1h68.8c0.8,0,1.7-0.3,2.3-1c0.6-0.6,1-1.5,1-2.3V16.6
				c0-0.8-0.3-1.7-1-2.3c-0.6-0.6-1.5-1-2.3-1H8.5c-0.8,0-1.7,0.3-2.3,1c-0.6,0.6-1,1.5-1,2.3V61.1z"/>
		</g>
		<g>
			<rect x="12.2" y="58.6" class="st1" width="69.2" height="5.1"/>
			<rect x="12.2" y="48.4" class="st1" width="69.2" height="5.1"/>
			<rect x="12.2" y="38.2" class="st1" width="69.2" height="5.1"/>
			<rect x="12.2" y="28" class="st1" width="69.2" height="5.1"/>
			<rect x="2" y="12" class="st2" width="79.5" height="9.9"/>
			<rect x="2" y="27.9" class="st3" width="5.1" height="5.1"/>
			<rect x="2" y="38.2" class="st3" width="5.1" height="5.1"/>
			<rect x="2" y="48.4" class="st3" width="5.1" height="5.1"/>
			<rect x="2" y="58.6" class="st3" width="5.1" height="5.1"/>
			<g>
				<path class="st0" d="M14,18.3l-1.3,1.9H11l2-2.9l-1.9-2.7h1.7l1.2,1.7l1.2-1.7h1.7l-1.9,2.7l2,2.9h-1.7L14,18.3z"/>
				<path class="st0" d="M19.9,18.3l-1.3,1.9h-1.6l2-2.9L17,14.6h1.7l1.2,1.7l1.2-1.7h1.7l-1.9,2.7l2,2.9h-1.7L19.9,18.3z"/>
				<path class="st0" d="M25.7,18.3l-1.3,1.9h-1.6l2-2.9l-1.9-2.7h1.7l1.2,1.7l1.2-1.7h1.7l-1.9,2.7l2,2.9H27L25.7,18.3z"/>
				<path class="st0" d="M29,16.8h2.8v1.3H29V16.8z"/>
				<path class="st0" d="M38.1,18.3l-1.3,1.9h-1.6l2-2.9l-1.9-2.7H37l1.2,1.7l1.2-1.7h1.7l-1.9,2.7l2,2.9h-1.7L38.1,18.3z"/>
				<path class="st0" d="M44,18.3l-1.3,1.9h-1.6l2-2.9l-1.9-2.7h1.7l1.2,1.7l1.2-1.7h1.7l-1.9,2.7l2,2.9h-1.7L44,18.3z"/>
				<path class="st0" d="M50.3,16.8h2.8v1.3h-2.8V16.8z"/>
				<path class="st0" d="M56.4,18.3l-1.3,1.9h-1.6l2-2.9l-1.9-2.7h1.7l1.2,1.7l1.2-1.7h1.7l-1.9,2.7l2,2.9h-1.7L56.4,18.3z"/>
				<path class="st0" d="M62.3,18.3L61,20.3h-1.6l2-2.9l-1.9-2.7h1.7l1.2,1.7l1.2-1.7h1.7l-1.9,2.7l2,2.9h-1.7L62.3,18.3z"/>
				<path class="st0" d="M68.2,18.3l-1.3,1.9h-1.6l2-2.9l-1.9-2.7H67l1.2,1.7l1.2-1.7H71l-1.9,2.7l2,2.9h-1.7L68.2,18.3z"/>
				<path class="st0" d="M74.1,18.3l-1.3,1.9h-1.6l2-2.9l-1.9-2.7h1.7l1.2,1.7l1.2-1.7h1.7L75,17.4l2,2.9h-1.7L74.1,18.3z"/>
			</g>
		</g>
	</g>
</g>
</svg>
